G75*
G70*
%OFA0B0*%
%FSLAX24Y24*%
%IPPOS*%
%LPD*%
%AMOC8*
5,1,8,0,0,1.08239X$1,22.5*
%
%ADD10R,0.0276X0.0354*%
%ADD11R,0.0354X0.0276*%
%ADD12R,0.0669X0.0276*%
%ADD13R,0.0220X0.0500*%
%ADD14R,0.0500X0.0220*%
%ADD15C,0.0740*%
%ADD16R,0.0177X0.0197*%
%ADD17R,0.0335X0.0354*%
%ADD18R,0.0197X0.0177*%
%ADD19R,0.0354X0.0335*%
%ADD20R,0.0480X0.0880*%
%ADD21R,0.1417X0.0866*%
%ADD22R,0.0630X0.0551*%
%ADD23R,0.0354X0.0315*%
%ADD24R,0.0315X0.0354*%
%ADD25R,0.0551X0.0551*%
%ADD26C,0.0148*%
%ADD27R,0.0550X0.0137*%
%ADD28C,0.0376*%
%ADD29C,0.1181*%
%ADD30R,0.0315X0.0315*%
%ADD31R,0.0551X0.0630*%
%ADD32R,0.0571X0.0413*%
%ADD33R,0.0236X0.0315*%
%ADD34R,0.0740X0.0740*%
%ADD35C,0.0120*%
%ADD36C,0.0160*%
%ADD37C,0.0340*%
%ADD38C,0.0082*%
%ADD39C,0.0240*%
%ADD40C,0.0100*%
%ADD41C,0.0320*%
D10*
X027494Y024500D03*
X028006Y024500D03*
X027994Y025000D03*
X028506Y025000D03*
X033244Y026450D03*
X033756Y026450D03*
D11*
X031950Y029444D03*
X031950Y029956D03*
X031400Y029956D03*
X031400Y029444D03*
X026550Y031294D03*
X026550Y031806D03*
X026450Y024806D03*
X026450Y024294D03*
X025800Y024294D03*
X025800Y024806D03*
D12*
X024500Y029228D03*
X024500Y029700D03*
X024500Y030172D03*
D13*
X025498Y029090D03*
X025813Y029090D03*
X026128Y029090D03*
X026443Y029090D03*
X026757Y029090D03*
X027072Y029090D03*
X027387Y029090D03*
X027702Y029090D03*
X027702Y025710D03*
X027387Y025710D03*
X027072Y025710D03*
X026757Y025710D03*
X026443Y025710D03*
X026128Y025710D03*
X025813Y025710D03*
X025498Y025710D03*
D14*
X024910Y026298D03*
X024910Y026613D03*
X024910Y026928D03*
X024910Y027243D03*
X024910Y027557D03*
X024910Y027872D03*
X024910Y028187D03*
X024910Y028502D03*
X028290Y028502D03*
X028290Y028187D03*
X028290Y027872D03*
X028290Y027557D03*
X028290Y027243D03*
X028290Y026928D03*
X028290Y026613D03*
X028290Y026298D03*
D15*
X028000Y023000D03*
X027000Y023000D03*
X026000Y023000D03*
X021300Y025900D03*
X021300Y026900D03*
X027000Y034000D03*
X028000Y034000D03*
X029000Y034000D03*
D16*
X027669Y021938D03*
X027331Y021938D03*
D17*
X026972Y021800D03*
X028020Y021800D03*
D18*
G36*
X033393Y031607D02*
X033225Y031509D01*
X033137Y031661D01*
X033305Y031759D01*
X033393Y031607D01*
G37*
G36*
X033224Y031901D02*
X033056Y031803D01*
X032968Y031955D01*
X033136Y032053D01*
X033224Y031901D01*
G37*
G36*
X021914Y032003D02*
X022082Y031905D01*
X021994Y031753D01*
X021826Y031851D01*
X021914Y032003D01*
G37*
G36*
X021745Y031709D02*
X021913Y031611D01*
X021825Y031459D01*
X021657Y031557D01*
X021745Y031709D01*
G37*
D19*
G36*
X021421Y031583D02*
X021726Y031406D01*
X021559Y031117D01*
X021254Y031294D01*
X021421Y031583D01*
G37*
G36*
X021945Y032490D02*
X022250Y032313D01*
X022083Y032024D01*
X021778Y032201D01*
X021945Y032490D01*
G37*
G36*
X033276Y032244D02*
X032971Y032067D01*
X032804Y032356D01*
X033109Y032533D01*
X033276Y032244D01*
G37*
G36*
X033800Y031337D02*
X033495Y031160D01*
X033328Y031449D01*
X033633Y031626D01*
X033800Y031337D01*
G37*
D20*
X025110Y031480D03*
X024200Y031480D03*
X023290Y031480D03*
D21*
X024200Y033920D03*
D22*
X027450Y031951D03*
X027450Y030849D03*
D23*
X023044Y027774D03*
X023044Y027026D03*
X022217Y027400D03*
X029906Y023424D03*
X029906Y022676D03*
X030733Y023050D03*
X030644Y033976D03*
X030644Y034724D03*
X029817Y034350D03*
D24*
X028850Y030083D03*
X028476Y029256D03*
X029224Y029256D03*
X021674Y029606D03*
X020926Y029606D03*
X021300Y030433D03*
D25*
X029100Y030752D03*
X029100Y032248D03*
D26*
X023456Y025336D02*
X023530Y025262D01*
X023284Y025262D01*
X023112Y025434D01*
X023112Y025680D01*
X023284Y025852D01*
X023530Y025852D01*
X023702Y025680D01*
X023702Y025434D01*
X023530Y025262D01*
X023484Y025373D01*
X023330Y025373D01*
X023223Y025480D01*
X023223Y025634D01*
X023330Y025741D01*
X023484Y025741D01*
X023591Y025634D01*
X023591Y025480D01*
X023484Y025373D01*
X023438Y025484D01*
X023376Y025484D01*
X023334Y025526D01*
X023334Y025588D01*
X023376Y025630D01*
X023438Y025630D01*
X023480Y025588D01*
X023480Y025526D01*
X023438Y025484D01*
X024163Y024629D02*
X024237Y024555D01*
X023991Y024555D01*
X023819Y024727D01*
X023819Y024973D01*
X023991Y025145D01*
X024237Y025145D01*
X024409Y024973D01*
X024409Y024727D01*
X024237Y024555D01*
X024191Y024666D01*
X024037Y024666D01*
X023930Y024773D01*
X023930Y024927D01*
X024037Y025034D01*
X024191Y025034D01*
X024298Y024927D01*
X024298Y024773D01*
X024191Y024666D01*
X024145Y024777D01*
X024083Y024777D01*
X024041Y024819D01*
X024041Y024881D01*
X024083Y024923D01*
X024145Y024923D01*
X024187Y024881D01*
X024187Y024819D01*
X024145Y024777D01*
X024870Y023922D02*
X024944Y023848D01*
X024698Y023848D01*
X024526Y024020D01*
X024526Y024266D01*
X024698Y024438D01*
X024944Y024438D01*
X025116Y024266D01*
X025116Y024020D01*
X024944Y023848D01*
X024898Y023959D01*
X024744Y023959D01*
X024637Y024066D01*
X024637Y024220D01*
X024744Y024327D01*
X024898Y024327D01*
X025005Y024220D01*
X025005Y024066D01*
X024898Y023959D01*
X024852Y024070D01*
X024790Y024070D01*
X024748Y024112D01*
X024748Y024174D01*
X024790Y024216D01*
X024852Y024216D01*
X024894Y024174D01*
X024894Y024112D01*
X024852Y024070D01*
X024163Y023215D02*
X024237Y023141D01*
X023991Y023141D01*
X023819Y023313D01*
X023819Y023559D01*
X023991Y023731D01*
X024237Y023731D01*
X024409Y023559D01*
X024409Y023313D01*
X024237Y023141D01*
X024191Y023252D01*
X024037Y023252D01*
X023930Y023359D01*
X023930Y023513D01*
X024037Y023620D01*
X024191Y023620D01*
X024298Y023513D01*
X024298Y023359D01*
X024191Y023252D01*
X024145Y023363D01*
X024083Y023363D01*
X024041Y023405D01*
X024041Y023467D01*
X024083Y023509D01*
X024145Y023509D01*
X024187Y023467D01*
X024187Y023405D01*
X024145Y023363D01*
X023456Y023922D02*
X023530Y023848D01*
X023284Y023848D01*
X023112Y024020D01*
X023112Y024266D01*
X023284Y024438D01*
X023530Y024438D01*
X023702Y024266D01*
X023702Y024020D01*
X023530Y023848D01*
X023484Y023959D01*
X023330Y023959D01*
X023223Y024066D01*
X023223Y024220D01*
X023330Y024327D01*
X023484Y024327D01*
X023591Y024220D01*
X023591Y024066D01*
X023484Y023959D01*
X023438Y024070D01*
X023376Y024070D01*
X023334Y024112D01*
X023334Y024174D01*
X023376Y024216D01*
X023438Y024216D01*
X023480Y024174D01*
X023480Y024112D01*
X023438Y024070D01*
X022749Y024629D02*
X022823Y024555D01*
X022577Y024555D01*
X022405Y024727D01*
X022405Y024973D01*
X022577Y025145D01*
X022823Y025145D01*
X022995Y024973D01*
X022995Y024727D01*
X022823Y024555D01*
X022777Y024666D01*
X022623Y024666D01*
X022516Y024773D01*
X022516Y024927D01*
X022623Y025034D01*
X022777Y025034D01*
X022884Y024927D01*
X022884Y024773D01*
X022777Y024666D01*
X022731Y024777D01*
X022669Y024777D01*
X022627Y024819D01*
X022627Y024881D01*
X022669Y024923D01*
X022731Y024923D01*
X022773Y024881D01*
X022773Y024819D01*
X022731Y024777D01*
D27*
X029461Y024798D03*
X029461Y024543D03*
X029461Y024287D03*
X029461Y025054D03*
X029461Y025310D03*
X029461Y025566D03*
X029461Y025822D03*
X029461Y026078D03*
X029461Y026334D03*
X029461Y026590D03*
X029461Y026846D03*
X029461Y027102D03*
X029461Y027357D03*
X029461Y027613D03*
X032339Y027613D03*
X032339Y027357D03*
X032339Y027102D03*
X032339Y026846D03*
X032339Y026590D03*
X032339Y026334D03*
X032339Y026078D03*
X032339Y025822D03*
X032339Y025566D03*
X032339Y025310D03*
X032339Y025054D03*
X032339Y024798D03*
X032339Y024543D03*
X032339Y024287D03*
D28*
X031150Y023500D03*
X029896Y030440D03*
X030604Y030755D03*
X029896Y031070D03*
X029896Y031700D03*
X030604Y031385D03*
X032000Y031950D03*
D29*
X030250Y032724D03*
X030250Y029416D03*
D30*
X031400Y028945D03*
X031950Y028945D03*
X031950Y028355D03*
X031400Y028355D03*
D31*
X033099Y027350D03*
X034201Y027350D03*
D32*
X028396Y034856D03*
X026604Y034856D03*
D33*
X026201Y035494D03*
X028799Y035494D03*
D34*
X026000Y034000D03*
X029000Y023000D03*
D35*
X029100Y022300D02*
X030650Y022300D01*
X032100Y023750D01*
X032400Y023750D01*
X033650Y025150D01*
X033650Y025600D01*
X032339Y025566D02*
X032323Y025550D01*
X031700Y025550D01*
X031350Y025900D01*
X031350Y026150D01*
X032016Y026334D02*
X032339Y026334D01*
X031000Y025050D02*
X031000Y028050D01*
X030850Y028200D01*
X030550Y028550D01*
X030050Y028550D02*
X030800Y027850D01*
X030800Y024700D01*
X031213Y024287D01*
X032339Y024287D01*
X032339Y024543D02*
X031507Y024543D01*
X031000Y025050D01*
X030250Y026150D02*
X030000Y026400D01*
X030000Y026700D01*
X029854Y026846D01*
X029461Y026846D01*
X029465Y026850D01*
X025913Y026300D02*
X025813Y025710D01*
X025813Y025200D02*
X024900Y025200D01*
X024550Y025550D01*
X023414Y025550D01*
X023407Y025557D01*
X025913Y026300D02*
X025913Y028285D01*
X026128Y028500D01*
X027200Y029950D02*
X027900Y029950D01*
X023700Y030300D02*
X023400Y030000D01*
X023400Y029400D01*
X022450Y030450D02*
X022850Y030850D01*
X022850Y031371D01*
X022014Y032257D01*
X021954Y031878D02*
X022500Y031332D01*
X022500Y031000D01*
X022040Y031000D02*
X022050Y030800D01*
X022040Y031000D02*
X021490Y031350D01*
X029817Y034350D02*
X029800Y034400D01*
X031750Y033350D02*
X031750Y033100D01*
X032540Y032310D01*
X033040Y032300D01*
X032750Y031700D02*
X032881Y031600D01*
X033265Y031634D01*
X033564Y031393D02*
X033371Y031250D01*
X032550Y031200D01*
X029100Y022300D02*
X028250Y021450D01*
X027800Y021450D01*
X027650Y021650D01*
X027650Y021957D01*
X027669Y021938D01*
X027950Y021800D02*
X028020Y021800D01*
X027331Y021938D02*
X027331Y022200D01*
X025450Y022200D01*
X026300Y021850D02*
X026822Y021850D01*
X026972Y021800D01*
D36*
X032339Y025566D02*
X032966Y025566D01*
X033756Y026206D01*
X033756Y026450D01*
X034201Y026945D01*
X034201Y027350D01*
X034150Y027451D01*
X034150Y028900D01*
X033044Y029956D01*
X031950Y029956D01*
X031400Y029956D01*
X030956Y029950D01*
X030500Y030250D01*
X030210Y030440D01*
X029896Y030440D01*
X028850Y030083D02*
X028583Y030350D01*
X028250Y030350D01*
X031026Y034724D02*
X031306Y034553D01*
X031578Y034369D01*
X031841Y034173D01*
X032094Y033964D01*
X032337Y033743D01*
X032569Y033511D01*
X032790Y033268D01*
X032999Y033015D01*
X033195Y032752D01*
X033379Y032480D01*
X033550Y032200D01*
X033096Y031928D01*
X029800Y034400D02*
X029300Y034600D01*
X029300Y035350D02*
X029850Y035300D01*
X030200Y035050D01*
X030576Y034774D01*
X030644Y034724D01*
X031026Y034724D01*
X022900Y033700D02*
X022728Y033576D01*
X022562Y033445D01*
X022403Y033305D01*
X022250Y033158D01*
X022105Y033004D01*
X021967Y032843D01*
X021837Y032675D01*
X021715Y032502D01*
X021601Y032323D01*
X021496Y032139D01*
X021400Y031950D01*
X021385Y031865D01*
X021785Y031584D01*
X021300Y030433D02*
X021683Y030050D01*
X022650Y030050D01*
X023300Y030700D01*
X024050Y030700D01*
X026128Y029090D02*
X026128Y028500D01*
X026750Y028500D01*
X026750Y029090D01*
X026757Y029090D01*
X022539Y027839D02*
X022500Y027683D01*
X022217Y027400D01*
X022900Y033700D02*
X023150Y033700D01*
D37*
X023150Y033700D03*
X022450Y032800D03*
X022500Y031000D03*
X022050Y030800D03*
X022450Y030450D03*
X023700Y030300D03*
X024050Y030700D03*
X023400Y029400D03*
X023900Y028200D03*
X024250Y027850D03*
X023800Y027600D03*
X024100Y026600D03*
X023150Y026550D03*
X022539Y027839D03*
X021500Y027700D03*
X021150Y028900D03*
X025450Y028200D03*
X025500Y026650D03*
X025913Y026300D03*
X027000Y027550D03*
X027650Y027900D03*
X028800Y028850D03*
X029200Y028350D03*
X030050Y028550D03*
X030550Y028550D03*
X030300Y027600D03*
X030250Y026150D03*
X030100Y025250D03*
X028900Y025350D03*
X027350Y025000D03*
X027850Y023700D03*
X028600Y022300D03*
X028950Y021650D03*
X029500Y021800D03*
X031750Y022900D03*
X032150Y023250D03*
X033250Y025250D03*
X033650Y025600D03*
X034150Y026050D03*
X034550Y028150D03*
X034550Y028650D03*
X032900Y029400D03*
X032450Y029150D03*
X033550Y030500D03*
X033900Y030950D03*
X032550Y031200D03*
X032750Y031700D03*
X031550Y031650D03*
X031300Y031200D03*
X031400Y032150D03*
X031750Y033350D03*
X031500Y033900D03*
X030200Y035050D03*
X029700Y034900D03*
X029300Y034600D03*
X029300Y035350D03*
X025800Y034950D03*
X024650Y034800D03*
X026550Y030650D03*
X026400Y029850D03*
X027200Y029950D03*
X027900Y029950D03*
X028250Y030350D03*
X031350Y026150D03*
X026300Y021850D03*
X025450Y022200D03*
X025300Y023150D03*
X024800Y023150D03*
D38*
X025063Y021667D02*
X026019Y021398D01*
X027003Y021262D01*
X027692Y021262D01*
X027689Y021263D01*
X027648Y021318D01*
X027599Y021367D01*
X027599Y021383D01*
X027498Y021518D01*
X027449Y021567D01*
X027449Y021583D01*
X027439Y021596D01*
X027449Y021664D01*
X027449Y021698D01*
X027281Y021698D01*
X027281Y021564D01*
X027198Y021482D01*
X026747Y021482D01*
X026664Y021564D01*
X026664Y021649D01*
X026539Y021649D01*
X026476Y021586D01*
X026362Y021539D01*
X026238Y021539D01*
X026124Y021586D01*
X026036Y021674D01*
X025989Y021788D01*
X025989Y021912D01*
X026025Y021999D01*
X025689Y021999D01*
X025626Y021936D01*
X025512Y021889D01*
X025388Y021889D01*
X025274Y021936D01*
X025186Y022024D01*
X025139Y022138D01*
X025139Y022262D01*
X025186Y022376D01*
X025274Y022464D01*
X025388Y022511D01*
X025512Y022511D01*
X025626Y022464D01*
X025689Y022401D01*
X027414Y022401D01*
X027532Y022283D01*
X027532Y022177D01*
X027816Y022177D01*
X027875Y022118D01*
X028181Y022118D01*
X028289Y022239D01*
X028289Y022362D01*
X028336Y022476D01*
X028424Y022564D01*
X028494Y022593D01*
X028489Y022611D01*
X028489Y022845D01*
X028433Y022711D01*
X028289Y022567D01*
X028102Y022489D01*
X027898Y022489D01*
X027711Y022567D01*
X027567Y022711D01*
X027500Y022872D01*
X027433Y022711D01*
X027289Y022567D01*
X027102Y022489D01*
X026898Y022489D01*
X026711Y022567D01*
X026567Y022711D01*
X026500Y022872D01*
X026433Y022711D01*
X026289Y022567D01*
X026102Y022489D01*
X025898Y022489D01*
X025711Y022567D01*
X025567Y022711D01*
X025489Y022898D01*
X022914Y022898D01*
X022816Y022979D02*
X023849Y022979D01*
X023903Y022925D02*
X024326Y022925D01*
X024625Y023224D01*
X024625Y023401D01*
X025102Y023409D01*
X025686Y023409D01*
X025567Y023289D01*
X025489Y023102D01*
X025489Y022898D01*
X025489Y022979D02*
X024380Y022979D01*
X024460Y023059D02*
X025489Y023059D01*
X025505Y023140D02*
X024541Y023140D01*
X024621Y023220D02*
X025538Y023220D01*
X025578Y023301D02*
X024625Y023301D01*
X024625Y023381D02*
X025658Y023381D01*
X025522Y022818D02*
X023013Y022818D01*
X023111Y022737D02*
X025556Y022737D01*
X025621Y022657D02*
X023210Y022657D01*
X023304Y022580D02*
X022534Y023208D01*
X021857Y023936D01*
X021286Y024748D01*
X020831Y025631D01*
X020500Y026568D01*
X020301Y027542D01*
X020236Y028533D01*
X020308Y029524D01*
X020513Y030496D01*
X020850Y031430D01*
X021311Y032311D01*
X021363Y032384D01*
X021226Y032098D01*
X021199Y032079D01*
X021188Y032019D01*
X021161Y031963D01*
X021169Y031942D01*
X021151Y031917D01*
X021160Y031866D01*
X021151Y031815D01*
X021175Y031779D01*
X021183Y031737D01*
X021226Y031707D01*
X021255Y031664D01*
X021298Y031656D01*
X021299Y031655D01*
X021102Y031314D01*
X021132Y031201D01*
X021540Y030965D01*
X021653Y030995D01*
X021658Y031005D01*
X021769Y030934D01*
X021739Y030862D01*
X021739Y030738D01*
X021786Y030624D01*
X021874Y030536D01*
X021988Y030489D01*
X022112Y030489D01*
X022139Y030500D01*
X022139Y030388D01*
X022186Y030274D01*
X022189Y030271D01*
X021775Y030271D01*
X021598Y030447D01*
X021598Y030669D01*
X021516Y030751D01*
X021084Y030751D01*
X021002Y030669D01*
X021002Y030198D01*
X021084Y030115D01*
X021306Y030115D01*
X021462Y029958D01*
X021496Y029924D01*
X021462Y029915D01*
X021430Y029896D01*
X021404Y029870D01*
X021385Y029838D01*
X021376Y029802D01*
X021376Y029644D01*
X021636Y029644D01*
X021636Y029569D01*
X021376Y029569D01*
X021376Y029441D01*
X021310Y029441D01*
X021224Y029544D01*
X021224Y029842D01*
X021142Y029924D01*
X020710Y029924D01*
X020628Y029842D01*
X020628Y029371D01*
X020710Y029288D01*
X020941Y029288D01*
X021029Y029181D01*
X021029Y029171D01*
X021078Y029121D01*
X021123Y029067D01*
X021133Y029066D01*
X021141Y029059D01*
X021211Y029059D01*
X021280Y029052D01*
X021288Y029059D01*
X021472Y029059D01*
X021304Y028891D01*
X021199Y028637D01*
X021199Y028363D01*
X021304Y028109D01*
X021499Y027914D01*
X021753Y027809D01*
X022027Y027809D01*
X022228Y027892D01*
X022228Y027778D01*
X022244Y027740D01*
X022203Y027698D01*
X021981Y027698D01*
X021899Y027616D01*
X021899Y027184D01*
X021981Y027102D01*
X022452Y027102D01*
X022535Y027184D01*
X022535Y027406D01*
X022637Y027507D01*
X022692Y027540D01*
X022699Y027569D01*
X022716Y027576D01*
X022728Y027588D01*
X022735Y027562D01*
X022754Y027530D01*
X022780Y027504D01*
X022812Y027485D01*
X022848Y027476D01*
X023006Y027476D01*
X023006Y027736D01*
X023081Y027736D01*
X023081Y027476D01*
X023239Y027476D01*
X023259Y027481D01*
X023259Y027371D01*
X023413Y027217D01*
X023362Y027217D01*
X023362Y027242D01*
X023279Y027324D01*
X022808Y027324D01*
X022726Y027242D01*
X022726Y026810D01*
X022808Y026728D01*
X022888Y026728D01*
X022886Y026726D01*
X022839Y026612D01*
X022839Y026488D01*
X022886Y026374D01*
X022974Y026286D01*
X023004Y026274D01*
X022959Y026229D01*
X021859Y025129D01*
X021859Y024621D01*
X021971Y024509D01*
X022528Y023952D01*
X022896Y023952D01*
X022896Y023931D01*
X023195Y023632D01*
X023603Y023632D01*
X023603Y023224D01*
X023903Y022925D01*
X023768Y023059D02*
X022717Y023059D01*
X022618Y023140D02*
X023688Y023140D01*
X023607Y023220D02*
X022523Y023220D01*
X022448Y023301D02*
X023603Y023301D01*
X023603Y023381D02*
X022373Y023381D01*
X022298Y023462D02*
X023603Y023462D01*
X023603Y023542D02*
X022223Y023542D01*
X022148Y023623D02*
X023603Y023623D01*
X023124Y023703D02*
X022073Y023703D01*
X021999Y023784D02*
X023044Y023784D01*
X022963Y023864D02*
X021924Y023864D01*
X021851Y023945D02*
X022896Y023945D01*
X022455Y024025D02*
X021794Y024025D01*
X021738Y024106D02*
X022374Y024106D01*
X022294Y024186D02*
X021681Y024186D01*
X021624Y024267D02*
X022213Y024267D01*
X022133Y024347D02*
X021568Y024347D01*
X021511Y024428D02*
X022052Y024428D01*
X021972Y024508D02*
X021455Y024508D01*
X021398Y024589D02*
X021891Y024589D01*
X021859Y024669D02*
X021341Y024669D01*
X021285Y024750D02*
X021859Y024750D01*
X021859Y024830D02*
X021244Y024830D01*
X021202Y024911D02*
X021859Y024911D01*
X021859Y024991D02*
X021161Y024991D01*
X021119Y025072D02*
X021859Y025072D01*
X021882Y025152D02*
X021078Y025152D01*
X021036Y025233D02*
X021962Y025233D01*
X022043Y025313D02*
X020995Y025313D01*
X020953Y025394D02*
X021231Y025394D01*
X021259Y025394D02*
X021341Y025394D01*
X021341Y025389D02*
X021420Y025402D01*
X021496Y025426D01*
X021568Y025463D01*
X021633Y025510D01*
X021690Y025567D01*
X021737Y025632D01*
X021774Y025704D01*
X021798Y025780D01*
X021811Y025859D01*
X021341Y025859D01*
X021341Y025941D01*
X021811Y025941D01*
X021798Y026020D01*
X021774Y026096D01*
X021737Y026168D01*
X021690Y026233D01*
X021633Y026290D01*
X021568Y026337D01*
X021496Y026374D01*
X021422Y026398D01*
X021589Y026467D01*
X021733Y026611D01*
X021811Y026798D01*
X021811Y027002D01*
X021733Y027189D01*
X021589Y027333D01*
X021402Y027411D01*
X021198Y027411D01*
X021011Y027333D01*
X020867Y027189D01*
X020789Y027002D01*
X020789Y026798D01*
X020867Y026611D01*
X021011Y026467D01*
X021178Y026398D01*
X021104Y026374D01*
X021032Y026337D01*
X020967Y026290D01*
X020910Y026233D01*
X020863Y026168D01*
X020826Y026096D01*
X020802Y026020D01*
X020789Y025941D01*
X021259Y025941D01*
X021259Y025859D01*
X020789Y025859D01*
X020802Y025780D01*
X020826Y025704D01*
X020863Y025632D01*
X020910Y025567D01*
X020967Y025510D01*
X021032Y025463D01*
X021104Y025426D01*
X021180Y025402D01*
X021259Y025389D01*
X021259Y025859D01*
X021341Y025859D01*
X021341Y025389D01*
X021369Y025394D02*
X022123Y025394D01*
X022204Y025474D02*
X021583Y025474D01*
X021677Y025555D02*
X022284Y025555D01*
X022365Y025635D02*
X021739Y025635D01*
X021777Y025716D02*
X022445Y025716D01*
X022526Y025796D02*
X021801Y025796D01*
X021808Y025957D02*
X022687Y025957D01*
X022767Y026038D02*
X021793Y026038D01*
X021762Y026118D02*
X022848Y026118D01*
X022928Y026199D02*
X021715Y026199D01*
X021644Y026279D02*
X022991Y026279D01*
X022901Y026360D02*
X021524Y026360D01*
X021525Y026440D02*
X022859Y026440D01*
X022839Y026521D02*
X021643Y026521D01*
X021724Y026601D02*
X022839Y026601D01*
X022868Y026682D02*
X021763Y026682D01*
X021796Y026762D02*
X022774Y026762D01*
X022726Y026843D02*
X021811Y026843D01*
X021811Y026923D02*
X022726Y026923D01*
X022726Y027004D02*
X021810Y027004D01*
X021777Y027084D02*
X022726Y027084D01*
X022726Y027165D02*
X022516Y027165D01*
X022535Y027245D02*
X022729Y027245D01*
X022535Y027326D02*
X023304Y027326D01*
X023259Y027406D02*
X022536Y027406D01*
X022616Y027487D02*
X022810Y027487D01*
X022734Y027567D02*
X022699Y027567D01*
X023006Y027567D02*
X023081Y027567D01*
X023081Y027487D02*
X023006Y027487D01*
X023006Y027648D02*
X023081Y027648D01*
X023081Y027728D02*
X023006Y027728D01*
X023006Y027812D02*
X023006Y028072D01*
X022848Y028072D01*
X022812Y028063D01*
X022780Y028044D01*
X022777Y028041D01*
X022716Y028103D01*
X022601Y028150D01*
X022493Y028150D01*
X022581Y028363D01*
X022581Y028637D01*
X022476Y028891D01*
X022308Y029059D01*
X022621Y029059D01*
X023259Y028421D01*
X023259Y028067D01*
X023239Y028072D01*
X023081Y028072D01*
X023081Y027812D01*
X023006Y027812D01*
X023006Y027889D02*
X023081Y027889D01*
X023081Y027970D02*
X023006Y027970D01*
X023006Y028050D02*
X023081Y028050D01*
X023259Y028131D02*
X022649Y028131D01*
X022768Y028050D02*
X022790Y028050D01*
X022518Y028211D02*
X023259Y028211D01*
X023259Y028292D02*
X022552Y028292D01*
X022581Y028372D02*
X023259Y028372D01*
X023227Y028453D02*
X022581Y028453D01*
X022581Y028533D02*
X023147Y028533D01*
X023066Y028614D02*
X022581Y028614D01*
X022558Y028694D02*
X022986Y028694D01*
X022905Y028775D02*
X022524Y028775D01*
X022491Y028855D02*
X022825Y028855D01*
X022744Y028936D02*
X022432Y028936D01*
X022351Y029016D02*
X022664Y029016D01*
X022963Y029258D02*
X023122Y029258D01*
X023136Y029224D02*
X023224Y029136D01*
X023338Y029089D01*
X023462Y029089D01*
X023576Y029136D01*
X023664Y029224D01*
X023711Y029338D01*
X024024Y029338D01*
X024024Y029258D02*
X023678Y029258D01*
X023711Y029338D02*
X023711Y029462D01*
X023664Y029576D01*
X023601Y029639D01*
X023601Y029917D01*
X023673Y029989D01*
X023762Y029989D01*
X023876Y030036D01*
X023964Y030124D01*
X024011Y030238D01*
X024011Y030362D01*
X024000Y030389D01*
X024045Y030389D01*
X024024Y030369D01*
X024024Y029976D01*
X024064Y029936D01*
X024053Y029924D01*
X024034Y029892D01*
X024024Y029856D01*
X024024Y029728D01*
X024472Y029728D01*
X024472Y029672D01*
X024024Y029672D01*
X024024Y029544D01*
X024034Y029508D01*
X024053Y029476D01*
X024064Y029464D01*
X024024Y029424D01*
X024024Y029031D01*
X024107Y028949D01*
X024893Y028949D01*
X024976Y029031D01*
X024976Y029037D01*
X025247Y029037D01*
X025247Y028782D01*
X025329Y028699D01*
X025907Y028699D01*
X025907Y028563D01*
X025715Y028372D01*
X025715Y028372D01*
X025714Y028376D01*
X025626Y028464D01*
X025512Y028511D01*
X025388Y028511D01*
X025301Y028475D01*
X025301Y028671D01*
X025218Y028753D01*
X024602Y028753D01*
X024542Y028693D01*
X024519Y028693D01*
X024518Y028693D01*
X024517Y028693D01*
X024462Y028637D01*
X024407Y028581D01*
X024220Y028391D01*
X024149Y028391D01*
X024076Y028464D01*
X023962Y028511D01*
X023838Y028511D01*
X023724Y028464D01*
X023641Y028381D01*
X023641Y028579D01*
X022891Y029329D01*
X022891Y029329D01*
X022779Y029441D01*
X021972Y029441D01*
X021972Y029569D01*
X021712Y029569D01*
X021712Y029644D01*
X021972Y029644D01*
X021972Y029802D01*
X021965Y029829D01*
X022742Y029829D01*
X023392Y030479D01*
X023439Y030479D01*
X023436Y030476D01*
X023389Y030362D01*
X023389Y030273D01*
X023199Y030083D01*
X023199Y029639D01*
X023136Y029576D01*
X023089Y029462D01*
X023089Y029338D01*
X022882Y029338D01*
X022802Y029419D02*
X023089Y029419D01*
X023089Y029338D02*
X023136Y029224D01*
X023183Y029177D02*
X023043Y029177D01*
X023124Y029097D02*
X023320Y029097D01*
X023204Y029016D02*
X024040Y029016D01*
X024024Y029097D02*
X023480Y029097D01*
X023617Y029177D02*
X024024Y029177D01*
X024024Y029419D02*
X023711Y029419D01*
X023696Y029499D02*
X024039Y029499D01*
X024024Y029580D02*
X023660Y029580D01*
X023601Y029660D02*
X024024Y029660D01*
X024024Y029741D02*
X023601Y029741D01*
X023601Y029821D02*
X024024Y029821D01*
X024039Y029902D02*
X023601Y029902D01*
X023666Y029982D02*
X024024Y029982D01*
X024024Y030063D02*
X023902Y030063D01*
X023972Y030143D02*
X024024Y030143D01*
X024024Y030224D02*
X024005Y030224D01*
X024011Y030304D02*
X024024Y030304D01*
X024040Y030385D02*
X024002Y030385D01*
X024241Y030451D02*
X024314Y030524D01*
X024361Y030638D01*
X024361Y030762D01*
X024314Y030876D01*
X024291Y030899D01*
X024459Y030899D01*
X024494Y030909D01*
X024527Y030927D01*
X024553Y030953D01*
X024571Y030986D01*
X024581Y031021D01*
X024581Y031439D01*
X024241Y031439D01*
X024241Y031521D01*
X024159Y031521D01*
X024159Y032061D01*
X023941Y032061D01*
X023906Y032051D01*
X023873Y032033D01*
X023847Y032007D01*
X023829Y031974D01*
X023819Y031939D01*
X023819Y031521D01*
X024159Y031521D01*
X024159Y031439D01*
X023819Y031439D01*
X023819Y031021D01*
X023829Y030986D01*
X023847Y030953D01*
X023855Y030945D01*
X023831Y030921D01*
X023610Y030921D01*
X023671Y030982D01*
X023671Y031978D01*
X023591Y032058D01*
X023591Y032520D01*
X023545Y032631D01*
X023461Y032715D01*
X023121Y033055D01*
X023010Y033101D01*
X022536Y033101D01*
X022532Y033103D01*
X022730Y033296D01*
X022949Y033461D01*
X022974Y033436D01*
X023088Y033389D01*
X023212Y033389D01*
X023326Y033436D01*
X023352Y033462D01*
X023360Y033433D01*
X023379Y033400D01*
X023405Y033374D01*
X023437Y033356D01*
X023473Y033346D01*
X024159Y033346D01*
X024159Y033879D01*
X024241Y033879D01*
X024241Y033346D01*
X024927Y033346D01*
X024963Y033356D01*
X024995Y033374D01*
X025021Y033400D01*
X025040Y033433D01*
X025050Y033468D01*
X025050Y033879D01*
X024241Y033879D01*
X024241Y033961D01*
X025050Y033961D01*
X025050Y034372D01*
X025040Y034408D01*
X025021Y034440D01*
X024995Y034466D01*
X024963Y034485D01*
X024927Y034494D01*
X024241Y034494D01*
X024241Y033961D01*
X024159Y033961D01*
X024159Y033879D01*
X023411Y033879D01*
X023326Y033964D01*
X023212Y034011D01*
X023088Y034011D01*
X022974Y033964D01*
X022931Y033921D01*
X022921Y033921D01*
X022851Y033934D01*
X022832Y033921D01*
X022808Y033921D01*
X022758Y033871D01*
X022438Y033651D01*
X021870Y033096D01*
X021887Y033120D01*
X022569Y033842D01*
X023343Y034465D01*
X024194Y034977D01*
X025108Y035367D01*
X025942Y035596D01*
X025942Y035278D01*
X026024Y035196D01*
X026269Y035196D01*
X026264Y035194D01*
X026232Y035176D01*
X026206Y035150D01*
X026188Y035117D01*
X026178Y035082D01*
X026178Y034897D01*
X026563Y034897D01*
X026563Y034815D01*
X026178Y034815D01*
X026178Y034631D01*
X026188Y034595D01*
X026206Y034563D01*
X026232Y034537D01*
X026264Y034518D01*
X026291Y034511D01*
X025572Y034511D01*
X025489Y034428D01*
X025489Y033572D01*
X025572Y033489D01*
X025639Y033489D01*
X025639Y032067D01*
X025424Y032067D01*
X025413Y032070D01*
X025373Y032067D01*
X025332Y032067D01*
X025321Y032062D01*
X025310Y032061D01*
X025309Y032061D01*
X024812Y032061D01*
X024729Y031978D01*
X024729Y030982D01*
X024812Y030899D01*
X025408Y030899D01*
X025491Y030982D01*
X025491Y031274D01*
X025501Y031298D01*
X025501Y031402D01*
X025491Y031426D01*
X025491Y031528D01*
X025506Y031545D01*
X025689Y031545D01*
X025689Y030873D01*
X025729Y030777D01*
X026077Y030429D01*
X026173Y030389D01*
X026371Y030389D01*
X026374Y030386D01*
X026488Y030339D01*
X026612Y030339D01*
X026726Y030386D01*
X026814Y030474D01*
X026861Y030588D01*
X026861Y030712D01*
X026814Y030826D01*
X026726Y030914D01*
X026612Y030961D01*
X026488Y030961D01*
X026374Y030914D01*
X026371Y030911D01*
X026333Y030911D01*
X026211Y031033D01*
X026211Y031545D01*
X026287Y031545D01*
X026286Y031545D01*
X026260Y031518D01*
X026241Y031486D01*
X026232Y031450D01*
X026232Y031322D01*
X026522Y031322D01*
X026522Y031266D01*
X026578Y031266D01*
X026578Y031015D01*
X026746Y031015D01*
X026782Y031025D01*
X026814Y031043D01*
X026840Y031070D01*
X026859Y031102D01*
X026868Y031138D01*
X026868Y031266D01*
X026578Y031266D01*
X026578Y031322D01*
X026868Y031322D01*
X026868Y031450D01*
X026859Y031486D01*
X026840Y031518D01*
X026814Y031545D01*
X026813Y031545D01*
X027066Y031545D01*
X027077Y031535D01*
X027823Y031535D01*
X027906Y031617D01*
X027906Y031650D01*
X028863Y031650D01*
X028974Y031696D01*
X029058Y031781D01*
X029109Y031831D01*
X029434Y031831D01*
X029517Y031914D01*
X029517Y032582D01*
X029434Y032665D01*
X029361Y032665D01*
X029361Y032842D01*
X029611Y033091D01*
X029518Y032869D01*
X029518Y032578D01*
X029630Y032309D01*
X029836Y032103D01*
X030104Y031992D01*
X030396Y031992D01*
X030664Y032103D01*
X030870Y032309D01*
X030982Y032578D01*
X030982Y032869D01*
X030889Y033091D01*
X031739Y032242D01*
X031739Y032154D01*
X031721Y032136D01*
X031671Y032015D01*
X031671Y031937D01*
X031612Y031961D01*
X031488Y031961D01*
X031374Y031914D01*
X031286Y031826D01*
X031239Y031712D01*
X031239Y031588D01*
X031271Y031511D01*
X031238Y031511D01*
X031124Y031464D01*
X031036Y031376D01*
X030989Y031262D01*
X030989Y031138D01*
X031036Y031024D01*
X031124Y030936D01*
X031238Y030889D01*
X031341Y030889D01*
X031709Y030521D01*
X031821Y030409D01*
X033251Y030409D01*
X033286Y030324D01*
X033374Y030236D01*
X033488Y030189D01*
X033612Y030189D01*
X033726Y030236D01*
X033814Y030324D01*
X033861Y030438D01*
X033861Y030562D01*
X033827Y030644D01*
X033838Y030639D01*
X033962Y030639D01*
X034076Y030686D01*
X034164Y030774D01*
X034211Y030888D01*
X034211Y031012D01*
X034164Y031126D01*
X034076Y031214D01*
X033962Y031261D01*
X033927Y031261D01*
X033952Y031357D01*
X033726Y031748D01*
X033614Y031778D01*
X033498Y031711D01*
X033412Y031859D01*
X033662Y032010D01*
X033740Y032054D01*
X033740Y032056D01*
X033742Y032058D01*
X033764Y032145D01*
X033768Y032160D01*
X034150Y031430D01*
X034487Y030496D01*
X034692Y029524D01*
X034764Y028533D01*
X034699Y027542D01*
X034618Y027146D01*
X034618Y027723D01*
X034535Y027806D01*
X034371Y027806D01*
X034371Y028811D01*
X034373Y028814D01*
X034371Y028903D01*
X034371Y028992D01*
X034369Y028994D01*
X034369Y028997D01*
X034304Y029058D01*
X034242Y029121D01*
X034239Y029121D01*
X033199Y030114D01*
X033136Y030177D01*
X033133Y030177D01*
X033131Y030179D01*
X033042Y030177D01*
X032243Y030177D01*
X032186Y030235D01*
X031714Y030235D01*
X031675Y030195D01*
X031636Y030235D01*
X031164Y030235D01*
X031103Y030173D01*
X031021Y030172D01*
X030698Y030384D01*
X030698Y030385D01*
X030635Y030426D01*
X030670Y030426D01*
X030791Y030476D01*
X030883Y030569D01*
X030933Y030690D01*
X030933Y030821D01*
X030883Y030941D01*
X030791Y031034D01*
X030704Y031070D01*
X030791Y031106D01*
X030883Y031199D01*
X030933Y031319D01*
X030933Y031450D01*
X030883Y031571D01*
X030791Y031664D01*
X030670Y031714D01*
X030539Y031714D01*
X030418Y031664D01*
X030325Y031571D01*
X030275Y031450D01*
X030275Y031319D01*
X030325Y031199D01*
X030418Y031106D01*
X030505Y031070D01*
X030418Y031034D01*
X030325Y030941D01*
X030275Y030821D01*
X030275Y030690D01*
X030287Y030661D01*
X030276Y030661D01*
X030254Y030675D01*
X030187Y030661D01*
X030140Y030661D01*
X030082Y030719D01*
X029995Y030755D01*
X030082Y030791D01*
X030175Y030884D01*
X030225Y031005D01*
X030225Y031135D01*
X030175Y031256D01*
X030082Y031349D01*
X029995Y031385D01*
X030052Y031408D01*
X030105Y031444D01*
X030151Y031490D01*
X030187Y031544D01*
X030212Y031604D01*
X030225Y031668D01*
X030225Y031682D01*
X029914Y031682D01*
X029914Y031718D01*
X030225Y031718D01*
X030225Y031732D01*
X030212Y031796D01*
X030187Y031856D01*
X030151Y031910D01*
X030105Y031956D01*
X030052Y031992D01*
X029992Y032016D01*
X029928Y032029D01*
X029914Y032029D01*
X029914Y031718D01*
X029878Y031718D01*
X029878Y032029D01*
X029863Y032029D01*
X029800Y032016D01*
X029740Y031992D01*
X029686Y031956D01*
X029640Y031910D01*
X029604Y031856D01*
X029579Y031796D01*
X029567Y031732D01*
X029567Y031718D01*
X029878Y031718D01*
X029878Y031682D01*
X029567Y031682D01*
X029567Y031668D01*
X029579Y031604D01*
X029604Y031544D01*
X029640Y031490D01*
X029686Y031444D01*
X029740Y031408D01*
X029796Y031385D01*
X029709Y031349D01*
X029617Y031256D01*
X029567Y031135D01*
X029567Y031005D01*
X029617Y030884D01*
X029705Y030795D01*
X029517Y030869D01*
X029517Y031086D01*
X029434Y031169D01*
X028766Y031169D01*
X028683Y031086D01*
X028683Y030562D01*
X028675Y030571D01*
X028469Y030571D01*
X028426Y030614D01*
X028312Y030661D01*
X028188Y030661D01*
X028074Y030614D01*
X027986Y030526D01*
X027939Y030412D01*
X027939Y030288D01*
X027950Y030261D01*
X027838Y030261D01*
X027724Y030214D01*
X027661Y030151D01*
X027439Y030151D01*
X027376Y030214D01*
X027262Y030261D01*
X027138Y030261D01*
X027024Y030214D01*
X026936Y030126D01*
X026889Y030012D01*
X026889Y029888D01*
X026936Y029774D01*
X027024Y029686D01*
X027138Y029639D01*
X027262Y029639D01*
X027376Y029686D01*
X027439Y029749D01*
X027661Y029749D01*
X027724Y029686D01*
X027838Y029639D01*
X027962Y029639D01*
X028076Y029686D01*
X028164Y029774D01*
X028211Y029888D01*
X028211Y030012D01*
X028200Y030039D01*
X028312Y030039D01*
X028426Y030086D01*
X028469Y030129D01*
X028492Y030129D01*
X028552Y030069D01*
X028552Y029848D01*
X028634Y029765D01*
X029066Y029765D01*
X029148Y029848D01*
X029148Y030319D01*
X029132Y030335D01*
X029434Y030335D01*
X029438Y030339D01*
X029609Y030272D01*
X029617Y030254D01*
X029709Y030161D01*
X029830Y030111D01*
X029961Y030111D01*
X030082Y030161D01*
X030140Y030219D01*
X030144Y030219D01*
X030252Y030148D01*
X030104Y030148D01*
X029836Y030037D01*
X029630Y029831D01*
X029518Y029562D01*
X029518Y029467D01*
X029513Y029488D01*
X029494Y029520D01*
X029468Y029546D01*
X029436Y029565D01*
X029400Y029574D01*
X029262Y029574D01*
X029262Y029294D01*
X029518Y029294D01*
X029518Y029271D01*
X029630Y029002D01*
X029836Y028796D01*
X029850Y028790D01*
X029786Y028726D01*
X029739Y028612D01*
X029739Y028488D01*
X029786Y028374D01*
X029874Y028286D01*
X029988Y028239D01*
X030089Y028239D01*
X030599Y027763D01*
X030599Y027691D01*
X030564Y027776D01*
X030476Y027864D01*
X030362Y027911D01*
X030238Y027911D01*
X030124Y027864D01*
X030065Y027804D01*
X029813Y027804D01*
X029794Y027823D01*
X029141Y027823D01*
X029141Y028029D01*
X029126Y028044D01*
X029138Y028039D01*
X029262Y028039D01*
X029376Y028086D01*
X029464Y028174D01*
X029511Y028288D01*
X029511Y028412D01*
X029464Y028526D01*
X029376Y028614D01*
X029262Y028661D01*
X029165Y028661D01*
X029134Y028692D01*
X029133Y028692D01*
X029131Y028693D01*
X029072Y028693D01*
X029111Y028788D01*
X029111Y028912D01*
X029100Y028938D01*
X029186Y028938D01*
X029186Y029219D01*
X028926Y029219D01*
X028926Y029135D01*
X028912Y029140D01*
X028879Y029173D01*
X028870Y029173D01*
X028774Y029254D01*
X028774Y029492D01*
X028692Y029574D01*
X028260Y029574D01*
X028178Y029492D01*
X028178Y029021D01*
X028260Y028938D01*
X028500Y028938D01*
X028489Y028912D01*
X028489Y028788D01*
X028503Y028753D01*
X027982Y028753D01*
X027899Y028671D01*
X027899Y028091D01*
X027899Y028091D01*
X027826Y028164D01*
X027712Y028211D01*
X027588Y028211D01*
X027474Y028164D01*
X027386Y028076D01*
X027339Y027962D01*
X027339Y027838D01*
X027386Y027724D01*
X027474Y027636D01*
X027588Y027589D01*
X027712Y027589D01*
X027826Y027636D01*
X027899Y027709D01*
X027899Y026129D01*
X027982Y026047D01*
X028559Y026047D01*
X028559Y025779D01*
X028471Y025691D01*
X028121Y025691D01*
X028009Y025579D01*
X027953Y025523D01*
X027953Y026018D01*
X027871Y026101D01*
X026904Y026101D01*
X026900Y026097D01*
X026886Y026101D01*
X026771Y026101D01*
X026771Y025724D01*
X026743Y025724D01*
X026743Y026101D01*
X026629Y026101D01*
X026615Y026097D01*
X026611Y026101D01*
X026153Y026101D01*
X026176Y026124D01*
X026224Y026238D01*
X026224Y026362D01*
X026176Y026476D01*
X026114Y026539D01*
X026114Y028202D01*
X026191Y028279D01*
X026842Y028279D01*
X026971Y028408D01*
X026971Y028699D01*
X027058Y028699D01*
X027058Y029076D01*
X027086Y029076D01*
X027086Y028699D01*
X027201Y028699D01*
X027209Y028701D01*
X027209Y028529D01*
X026809Y028129D01*
X026809Y027799D01*
X026736Y027726D01*
X026689Y027612D01*
X026689Y027488D01*
X026736Y027374D01*
X026824Y027286D01*
X026938Y027239D01*
X027062Y027239D01*
X027176Y027286D01*
X027264Y027374D01*
X027311Y027488D01*
X027311Y027612D01*
X027264Y027726D01*
X027191Y027799D01*
X027191Y027971D01*
X027479Y028259D01*
X027591Y028371D01*
X027591Y028699D01*
X027871Y028699D01*
X027953Y028782D01*
X027953Y029398D01*
X027871Y029481D01*
X027219Y029481D01*
X027215Y029477D01*
X027201Y029481D01*
X027086Y029481D01*
X027086Y029104D01*
X027058Y029104D01*
X027058Y029481D01*
X026944Y029481D01*
X026930Y029477D01*
X026926Y029481D01*
X026589Y029481D01*
X026585Y029477D01*
X026571Y029481D01*
X026457Y029481D01*
X026457Y029104D01*
X026429Y029104D01*
X026429Y029481D01*
X026389Y029481D01*
X026389Y029539D01*
X026462Y029539D01*
X026576Y029586D01*
X026664Y029674D01*
X026711Y029788D01*
X026711Y029912D01*
X026664Y030026D01*
X026576Y030114D01*
X026462Y030161D01*
X026338Y030161D01*
X026321Y030154D01*
X026304Y030161D01*
X026296Y030161D01*
X026287Y030164D01*
X026244Y030161D01*
X026201Y030161D01*
X026192Y030158D01*
X026184Y030157D01*
X026145Y030138D01*
X026105Y030121D01*
X026098Y030115D01*
X026090Y030111D01*
X026062Y030078D01*
X025906Y029923D01*
X025867Y029827D01*
X025867Y029604D01*
X025729Y029741D01*
X025204Y029741D01*
X025191Y029754D01*
X025191Y030029D01*
X025079Y030141D01*
X024976Y030244D01*
X024976Y030369D01*
X024893Y030451D01*
X024241Y030451D01*
X024255Y030465D02*
X026041Y030465D01*
X025960Y030546D02*
X024323Y030546D01*
X024356Y030626D02*
X025880Y030626D01*
X025799Y030707D02*
X024361Y030707D01*
X024351Y030787D02*
X025725Y030787D01*
X025691Y030868D02*
X024317Y030868D01*
X024548Y030948D02*
X024762Y030948D01*
X024729Y031029D02*
X024581Y031029D01*
X024581Y031109D02*
X024729Y031109D01*
X024729Y031190D02*
X024581Y031190D01*
X024581Y031270D02*
X024729Y031270D01*
X024729Y031351D02*
X024581Y031351D01*
X024581Y031431D02*
X024729Y031431D01*
X024729Y031512D02*
X024241Y031512D01*
X024241Y031521D02*
X024581Y031521D01*
X024581Y031939D01*
X024571Y031974D01*
X024553Y032007D01*
X024527Y032033D01*
X024494Y032051D01*
X024459Y032061D01*
X024241Y032061D01*
X024241Y031521D01*
X024241Y031592D02*
X024159Y031592D01*
X024159Y031512D02*
X023671Y031512D01*
X023671Y031592D02*
X023819Y031592D01*
X023819Y031673D02*
X023671Y031673D01*
X023671Y031753D02*
X023819Y031753D01*
X023819Y031834D02*
X023671Y031834D01*
X023671Y031914D02*
X023819Y031914D01*
X023840Y031995D02*
X023655Y031995D01*
X023591Y032075D02*
X025639Y032075D01*
X025639Y032156D02*
X023591Y032156D01*
X023591Y032236D02*
X025639Y032236D01*
X025639Y032317D02*
X023591Y032317D01*
X023591Y032397D02*
X025639Y032397D01*
X025639Y032478D02*
X023591Y032478D01*
X023575Y032558D02*
X025639Y032558D01*
X025639Y032639D02*
X023537Y032639D01*
X023457Y032719D02*
X025639Y032719D01*
X025639Y032800D02*
X023376Y032800D01*
X023296Y032880D02*
X025639Y032880D01*
X025639Y032961D02*
X023215Y032961D01*
X023135Y033041D02*
X025639Y033041D01*
X025639Y033122D02*
X022552Y033122D01*
X022634Y033202D02*
X025639Y033202D01*
X025639Y033283D02*
X022716Y033283D01*
X022730Y033296D02*
X022730Y033296D01*
X022819Y033363D02*
X023424Y033363D01*
X023357Y033444D02*
X023333Y033444D01*
X022967Y033444D02*
X022926Y033444D01*
X022722Y033846D02*
X022574Y033846D01*
X022605Y033766D02*
X022497Y033766D01*
X022487Y033685D02*
X022421Y033685D01*
X022390Y033605D02*
X022345Y033605D01*
X022308Y033524D02*
X022269Y033524D01*
X022226Y033444D02*
X022193Y033444D01*
X022143Y033363D02*
X022117Y033363D01*
X022061Y033283D02*
X022041Y033283D01*
X021979Y033202D02*
X021965Y033202D01*
X021897Y033122D02*
X021889Y033122D01*
X022674Y033927D02*
X022840Y033927D01*
X022890Y033927D02*
X022937Y033927D01*
X023079Y034007D02*
X022774Y034007D01*
X022874Y034088D02*
X023350Y034088D01*
X023350Y034168D02*
X022974Y034168D01*
X023074Y034249D02*
X023350Y034249D01*
X023350Y034329D02*
X023174Y034329D01*
X023274Y034410D02*
X023361Y034410D01*
X023360Y034408D02*
X023350Y034372D01*
X023350Y033961D01*
X024159Y033961D01*
X024159Y034494D01*
X023473Y034494D01*
X023437Y034485D01*
X023405Y034466D01*
X023379Y034440D01*
X023360Y034408D01*
X023384Y034490D02*
X023458Y034490D01*
X023518Y034571D02*
X026202Y034571D01*
X026178Y034651D02*
X023652Y034651D01*
X023786Y034732D02*
X026178Y034732D01*
X026178Y034812D02*
X023920Y034812D01*
X024054Y034893D02*
X026563Y034893D01*
X026563Y034815D02*
X026645Y034815D01*
X026645Y034509D01*
X026908Y034509D01*
X026944Y034518D01*
X026976Y034537D01*
X027003Y034563D01*
X027021Y034595D01*
X027031Y034631D01*
X027031Y034815D01*
X026645Y034815D01*
X026645Y034897D01*
X027031Y034897D01*
X027031Y035035D01*
X027969Y035035D01*
X027969Y034591D01*
X028049Y034511D01*
X027898Y034511D01*
X027711Y034433D01*
X027567Y034289D01*
X027498Y034122D01*
X027474Y034196D01*
X027437Y034268D01*
X027390Y034333D01*
X027333Y034390D01*
X027268Y034437D01*
X027196Y034474D01*
X027120Y034498D01*
X027041Y034511D01*
X027041Y034041D01*
X026959Y034041D01*
X026959Y034511D01*
X026880Y034498D01*
X026804Y034474D01*
X026732Y034437D01*
X026667Y034390D01*
X026610Y034333D01*
X026563Y034268D01*
X026526Y034196D01*
X026511Y034149D01*
X026511Y034428D01*
X026431Y034509D01*
X026563Y034509D01*
X026563Y034815D01*
X026563Y034812D02*
X026645Y034812D01*
X026645Y034732D02*
X026563Y034732D01*
X026563Y034651D02*
X026645Y034651D01*
X026645Y034571D02*
X026563Y034571D01*
X026449Y034490D02*
X026855Y034490D01*
X026959Y034490D02*
X027041Y034490D01*
X027041Y034410D02*
X026959Y034410D01*
X026959Y034329D02*
X027041Y034329D01*
X027041Y034249D02*
X026959Y034249D01*
X026959Y034168D02*
X027041Y034168D01*
X027041Y034088D02*
X026959Y034088D01*
X026959Y033959D02*
X027041Y033959D01*
X027041Y033489D01*
X027120Y033502D01*
X027196Y033526D01*
X027268Y033563D01*
X027333Y033610D01*
X027390Y033667D01*
X027437Y033732D01*
X027474Y033804D01*
X027498Y033878D01*
X027567Y033711D01*
X027711Y033567D01*
X027898Y033489D01*
X028102Y033489D01*
X028289Y033567D01*
X028433Y033711D01*
X028502Y033878D01*
X028526Y033804D01*
X028563Y033732D01*
X028610Y033667D01*
X028667Y033610D01*
X028732Y033563D01*
X028804Y033526D01*
X028880Y033502D01*
X028959Y033489D01*
X028959Y033959D01*
X029041Y033959D01*
X029041Y034041D01*
X028959Y034041D01*
X028959Y034511D01*
X028880Y034498D01*
X028804Y034474D01*
X028732Y034437D01*
X028667Y034390D01*
X028610Y034333D01*
X028563Y034268D01*
X028526Y034196D01*
X028502Y034122D01*
X028433Y034289D01*
X028289Y034433D01*
X028107Y034509D01*
X028740Y034509D01*
X028822Y034591D01*
X028822Y034709D01*
X028879Y034709D01*
X028979Y034809D01*
X029069Y034809D01*
X029036Y034776D01*
X028989Y034662D01*
X028989Y034538D01*
X029036Y034424D01*
X029041Y034419D01*
X029041Y034041D01*
X029511Y034041D01*
X029498Y034120D01*
X029474Y034196D01*
X029437Y034268D01*
X029408Y034308D01*
X029421Y034314D01*
X029499Y034282D01*
X029499Y034134D01*
X029581Y034052D01*
X030052Y034052D01*
X030135Y034134D01*
X030135Y034566D01*
X030052Y034648D01*
X029888Y034648D01*
X029964Y034724D01*
X030000Y034811D01*
X030024Y034786D01*
X030138Y034739D01*
X030250Y034739D01*
X030326Y034684D01*
X030326Y034508D01*
X030408Y034426D01*
X030879Y034426D01*
X030957Y034503D01*
X030963Y034503D01*
X031286Y034302D01*
X031417Y034202D01*
X031324Y034164D01*
X031251Y034091D01*
X030962Y034091D01*
X030962Y034192D01*
X030879Y034274D01*
X030408Y034274D01*
X030326Y034192D01*
X030326Y033861D01*
X029698Y033861D01*
X029602Y033821D01*
X028952Y033171D01*
X028879Y033098D01*
X028839Y033002D01*
X028839Y032665D01*
X028766Y032665D01*
X028683Y032582D01*
X028683Y032257D01*
X028678Y032252D01*
X027906Y032252D01*
X027906Y032285D01*
X027823Y032368D01*
X027077Y032368D01*
X026994Y032285D01*
X026994Y032067D01*
X026803Y032067D01*
X026786Y032085D01*
X026314Y032085D01*
X026297Y032067D01*
X026161Y032067D01*
X026161Y033489D01*
X026428Y033489D01*
X026511Y033572D01*
X026511Y033851D01*
X026526Y033804D01*
X026563Y033732D01*
X026610Y033667D01*
X026667Y033610D01*
X026732Y033563D01*
X026804Y033526D01*
X026880Y033502D01*
X026959Y033489D01*
X026959Y033959D01*
X026959Y033927D02*
X027041Y033927D01*
X027041Y033846D02*
X026959Y033846D01*
X026959Y033766D02*
X027041Y033766D01*
X027041Y033685D02*
X026959Y033685D01*
X026959Y033605D02*
X027041Y033605D01*
X027041Y033524D02*
X026959Y033524D01*
X026811Y033524D02*
X026464Y033524D01*
X026511Y033605D02*
X026675Y033605D01*
X026597Y033685D02*
X026511Y033685D01*
X026511Y033766D02*
X026546Y033766D01*
X026513Y033846D02*
X026511Y033846D01*
X026511Y034168D02*
X026517Y034168D01*
X026511Y034249D02*
X026553Y034249D01*
X026511Y034329D02*
X026607Y034329D01*
X026694Y034410D02*
X026511Y034410D01*
X027007Y034571D02*
X027990Y034571D01*
X027969Y034651D02*
X027031Y034651D01*
X027031Y034732D02*
X027969Y034732D01*
X027969Y034812D02*
X027031Y034812D01*
X027031Y034973D02*
X027969Y034973D01*
X027969Y034893D02*
X026645Y034893D01*
X026178Y034973D02*
X024188Y034973D01*
X024374Y035054D02*
X026178Y035054D01*
X026197Y035134D02*
X024562Y035134D01*
X024751Y035215D02*
X026005Y035215D01*
X025942Y035295D02*
X024939Y035295D01*
X025138Y035376D02*
X025942Y035376D01*
X025942Y035456D02*
X025432Y035456D01*
X025726Y035537D02*
X025942Y035537D01*
X025551Y034490D02*
X024942Y034490D01*
X025039Y034410D02*
X025489Y034410D01*
X025489Y034329D02*
X025050Y034329D01*
X025050Y034249D02*
X025489Y034249D01*
X025489Y034168D02*
X025050Y034168D01*
X025050Y034088D02*
X025489Y034088D01*
X025489Y034007D02*
X025050Y034007D01*
X025050Y033846D02*
X025489Y033846D01*
X025489Y033766D02*
X025050Y033766D01*
X025050Y033685D02*
X025489Y033685D01*
X025489Y033605D02*
X025050Y033605D01*
X025050Y033524D02*
X025536Y033524D01*
X025639Y033444D02*
X025043Y033444D01*
X024976Y033363D02*
X025639Y033363D01*
X026161Y033363D02*
X029144Y033363D01*
X029064Y033283D02*
X026161Y033283D01*
X026161Y033202D02*
X028983Y033202D01*
X028903Y033122D02*
X026161Y033122D01*
X026161Y033041D02*
X028855Y033041D01*
X028839Y032961D02*
X026161Y032961D01*
X026161Y032880D02*
X028839Y032880D01*
X028839Y032800D02*
X026161Y032800D01*
X026161Y032719D02*
X028839Y032719D01*
X028740Y032639D02*
X026161Y032639D01*
X026161Y032558D02*
X028683Y032558D01*
X028683Y032478D02*
X026161Y032478D01*
X026161Y032397D02*
X028683Y032397D01*
X028683Y032317D02*
X027875Y032317D01*
X027025Y032317D02*
X026161Y032317D01*
X026161Y032236D02*
X026994Y032236D01*
X026994Y032156D02*
X026161Y032156D01*
X026161Y032075D02*
X026305Y032075D01*
X026795Y032075D02*
X026994Y032075D01*
X026844Y031512D02*
X029626Y031512D01*
X029584Y031592D02*
X027881Y031592D01*
X027784Y031265D02*
X027491Y031265D01*
X027491Y030890D01*
X027409Y030890D01*
X027409Y031265D01*
X027116Y031265D01*
X027081Y031256D01*
X027048Y031237D01*
X027022Y031211D01*
X027004Y031179D01*
X026994Y031143D01*
X026994Y030890D01*
X027409Y030890D01*
X027409Y030808D01*
X026994Y030808D01*
X026994Y030555D01*
X027004Y030519D01*
X027022Y030487D01*
X027048Y030460D01*
X027081Y030442D01*
X027116Y030432D01*
X027409Y030432D01*
X027409Y030808D01*
X027491Y030808D01*
X027491Y030890D01*
X027906Y030890D01*
X027906Y031143D01*
X027896Y031179D01*
X027878Y031211D01*
X027852Y031237D01*
X027819Y031256D01*
X027784Y031265D01*
X027890Y031190D02*
X029589Y031190D01*
X029567Y031109D02*
X029493Y031109D01*
X029517Y031029D02*
X029567Y031029D01*
X029590Y030948D02*
X029517Y030948D01*
X029520Y030868D02*
X029633Y030868D01*
X029630Y031270D02*
X026578Y031270D01*
X026522Y031270D02*
X026211Y031270D01*
X026232Y031266D02*
X026232Y031138D01*
X026241Y031102D01*
X026260Y031070D01*
X026286Y031043D01*
X026318Y031025D01*
X026354Y031015D01*
X026522Y031015D01*
X026522Y031266D01*
X026232Y031266D01*
X026232Y031190D02*
X026211Y031190D01*
X026211Y031109D02*
X026240Y031109D01*
X026216Y031029D02*
X026312Y031029D01*
X026296Y030948D02*
X026457Y030948D01*
X026522Y031029D02*
X026578Y031029D01*
X026578Y031109D02*
X026522Y031109D01*
X026522Y031190D02*
X026578Y031190D01*
X026643Y030948D02*
X026994Y030948D01*
X026994Y031029D02*
X026788Y031029D01*
X026860Y031109D02*
X026994Y031109D01*
X027010Y031190D02*
X026868Y031190D01*
X026868Y031351D02*
X029713Y031351D01*
X029706Y031431D02*
X026868Y031431D01*
X027409Y031190D02*
X027491Y031190D01*
X027491Y031109D02*
X027409Y031109D01*
X027409Y031029D02*
X027491Y031029D01*
X027491Y030948D02*
X027409Y030948D01*
X027409Y030868D02*
X026772Y030868D01*
X026830Y030787D02*
X026994Y030787D01*
X026994Y030707D02*
X026861Y030707D01*
X026861Y030626D02*
X026994Y030626D01*
X026996Y030546D02*
X026843Y030546D01*
X026805Y030465D02*
X027044Y030465D01*
X027048Y030224D02*
X024997Y030224D01*
X024976Y030304D02*
X027939Y030304D01*
X027939Y030385D02*
X026722Y030385D01*
X026505Y030143D02*
X026953Y030143D01*
X026910Y030063D02*
X026627Y030063D01*
X026682Y029982D02*
X026889Y029982D01*
X026889Y029902D02*
X026711Y029902D01*
X026711Y029821D02*
X026917Y029821D01*
X026970Y029741D02*
X026691Y029741D01*
X026650Y029660D02*
X027087Y029660D01*
X027313Y029660D02*
X027787Y029660D01*
X027670Y029741D02*
X027430Y029741D01*
X027086Y029419D02*
X027058Y029419D01*
X027058Y029338D02*
X027086Y029338D01*
X027086Y029258D02*
X027058Y029258D01*
X027058Y029177D02*
X027086Y029177D01*
X027086Y029016D02*
X027058Y029016D01*
X027058Y028936D02*
X027086Y028936D01*
X027086Y028855D02*
X027058Y028855D01*
X027058Y028775D02*
X027086Y028775D01*
X026971Y028694D02*
X027209Y028694D01*
X027209Y028614D02*
X026971Y028614D01*
X026971Y028533D02*
X027209Y028533D01*
X027132Y028453D02*
X026971Y028453D01*
X026935Y028372D02*
X027052Y028372D01*
X026971Y028292D02*
X026854Y028292D01*
X026891Y028211D02*
X026123Y028211D01*
X026114Y028131D02*
X026810Y028131D01*
X026809Y028050D02*
X026114Y028050D01*
X026114Y027970D02*
X026809Y027970D01*
X026809Y027889D02*
X026114Y027889D01*
X026114Y027809D02*
X026809Y027809D01*
X026738Y027728D02*
X026114Y027728D01*
X026114Y027648D02*
X026704Y027648D01*
X026689Y027567D02*
X026114Y027567D01*
X026114Y027487D02*
X026690Y027487D01*
X026723Y027406D02*
X026114Y027406D01*
X026114Y027326D02*
X026785Y027326D01*
X026923Y027245D02*
X026114Y027245D01*
X026114Y027165D02*
X027899Y027165D01*
X027899Y027245D02*
X027077Y027245D01*
X027215Y027326D02*
X027899Y027326D01*
X027899Y027406D02*
X027277Y027406D01*
X027310Y027487D02*
X027899Y027487D01*
X027899Y027567D02*
X027311Y027567D01*
X027296Y027648D02*
X027463Y027648D01*
X027385Y027728D02*
X027262Y027728D01*
X027191Y027809D02*
X027351Y027809D01*
X027339Y027889D02*
X027191Y027889D01*
X027191Y027970D02*
X027342Y027970D01*
X027376Y028050D02*
X027270Y028050D01*
X027351Y028131D02*
X027441Y028131D01*
X027431Y028211D02*
X027899Y028211D01*
X027899Y028131D02*
X027859Y028131D01*
X027899Y028292D02*
X027512Y028292D01*
X027591Y028372D02*
X027899Y028372D01*
X027899Y028453D02*
X027591Y028453D01*
X027591Y028533D02*
X027899Y028533D01*
X027899Y028614D02*
X027591Y028614D01*
X027591Y028694D02*
X027922Y028694D01*
X027946Y028775D02*
X028495Y028775D01*
X028489Y028855D02*
X027953Y028855D01*
X027953Y028936D02*
X028499Y028936D01*
X028182Y029016D02*
X027953Y029016D01*
X027953Y029097D02*
X028178Y029097D01*
X028178Y029177D02*
X027953Y029177D01*
X027953Y029258D02*
X028178Y029258D01*
X028178Y029338D02*
X027953Y029338D01*
X027933Y029419D02*
X028178Y029419D01*
X028185Y029499D02*
X026389Y029499D01*
X026429Y029419D02*
X026457Y029419D01*
X026457Y029338D02*
X026429Y029338D01*
X026429Y029258D02*
X026457Y029258D01*
X026457Y029177D02*
X026429Y029177D01*
X026560Y029580D02*
X029526Y029580D01*
X029518Y029499D02*
X029506Y029499D01*
X029559Y029660D02*
X028013Y029660D01*
X028130Y029741D02*
X029592Y029741D01*
X029626Y029821D02*
X029122Y029821D01*
X029148Y029902D02*
X029701Y029902D01*
X029781Y029982D02*
X029148Y029982D01*
X029148Y030063D02*
X029898Y030063D01*
X030039Y030143D02*
X030093Y030143D01*
X029753Y030143D02*
X029148Y030143D01*
X029148Y030224D02*
X029647Y030224D01*
X029527Y030304D02*
X029148Y030304D01*
X028683Y030626D02*
X028396Y030626D01*
X028104Y030626D02*
X027906Y030626D01*
X027906Y030555D02*
X027906Y030808D01*
X027491Y030808D01*
X027491Y030432D01*
X027784Y030432D01*
X027819Y030442D01*
X027852Y030460D01*
X027878Y030487D01*
X027896Y030519D01*
X027906Y030555D01*
X027904Y030546D02*
X028006Y030546D01*
X027961Y030465D02*
X027856Y030465D01*
X027906Y030707D02*
X028683Y030707D01*
X028683Y030787D02*
X027906Y030787D01*
X027906Y030948D02*
X028683Y030948D01*
X028683Y030868D02*
X027491Y030868D01*
X027491Y030787D02*
X027409Y030787D01*
X027409Y030707D02*
X027491Y030707D01*
X027491Y030626D02*
X027409Y030626D01*
X027409Y030546D02*
X027491Y030546D01*
X027491Y030465D02*
X027409Y030465D01*
X027352Y030224D02*
X027748Y030224D01*
X028211Y029982D02*
X028552Y029982D01*
X028552Y029902D02*
X028211Y029902D01*
X028183Y029821D02*
X028578Y029821D01*
X028552Y030063D02*
X028369Y030063D01*
X028980Y029546D02*
X029012Y029565D01*
X029048Y029574D01*
X029186Y029574D01*
X029186Y029294D01*
X029186Y029219D01*
X029262Y029219D01*
X029262Y029294D01*
X029186Y029294D01*
X028926Y029294D01*
X028926Y029452D01*
X028935Y029488D01*
X028954Y029520D01*
X028980Y029546D01*
X028942Y029499D02*
X028767Y029499D01*
X028774Y029419D02*
X028926Y029419D01*
X028926Y029338D02*
X028774Y029338D01*
X028774Y029258D02*
X029186Y029258D01*
X029262Y029258D02*
X029524Y029258D01*
X029522Y029219D02*
X029262Y029219D01*
X029262Y028938D01*
X029400Y028938D01*
X029436Y028948D01*
X029468Y028966D01*
X029494Y028993D01*
X029513Y029025D01*
X029522Y029061D01*
X029522Y029219D01*
X029522Y029177D02*
X029557Y029177D01*
X029591Y029097D02*
X029522Y029097D01*
X029508Y029016D02*
X029624Y029016D01*
X029696Y028936D02*
X029101Y028936D01*
X029111Y028855D02*
X029777Y028855D01*
X029835Y028775D02*
X029105Y028775D01*
X029072Y028694D02*
X029773Y028694D01*
X029740Y028614D02*
X029376Y028614D01*
X029457Y028533D02*
X029739Y028533D01*
X029754Y028453D02*
X029494Y028453D01*
X029511Y028372D02*
X029788Y028372D01*
X029869Y028292D02*
X029511Y028292D01*
X029479Y028211D02*
X030119Y028211D01*
X030205Y028131D02*
X029420Y028131D01*
X029289Y028050D02*
X030291Y028050D01*
X030377Y027970D02*
X029141Y027970D01*
X029141Y027889D02*
X030185Y027889D01*
X030069Y027809D02*
X029808Y027809D01*
X030415Y027889D02*
X030464Y027889D01*
X030531Y027809D02*
X030550Y027809D01*
X030584Y027728D02*
X030599Y027728D01*
X029031Y026399D02*
X028941Y026489D01*
X028941Y025621D01*
X028829Y025509D01*
X028638Y025318D01*
X028702Y025318D01*
X028785Y025236D01*
X028785Y025191D01*
X028829Y025191D01*
X029029Y024991D01*
X029045Y024991D01*
X029045Y024975D02*
X029029Y024991D01*
X029029Y024991D01*
X029045Y024975D02*
X029045Y025181D01*
X029046Y025182D01*
X029045Y025183D01*
X029045Y025437D01*
X029046Y025438D01*
X029045Y025439D01*
X029045Y025693D01*
X029046Y025694D01*
X029045Y025695D01*
X029045Y025949D01*
X029053Y025958D01*
X029045Y025991D01*
X029045Y026078D01*
X029461Y026078D01*
X029877Y026078D01*
X029877Y026165D01*
X029868Y026198D01*
X029877Y026207D01*
X029877Y026239D01*
X029939Y026177D01*
X029939Y026088D01*
X029986Y025974D01*
X030074Y025886D01*
X030188Y025839D01*
X030312Y025839D01*
X030409Y025879D01*
X030409Y024783D01*
X029877Y024281D01*
X029877Y024414D01*
X029876Y024415D01*
X029877Y024416D01*
X029877Y024669D01*
X030288Y024669D01*
X030203Y024589D02*
X029877Y024589D01*
X029877Y024669D02*
X029876Y024670D01*
X029877Y024672D01*
X029877Y024925D01*
X029876Y024926D01*
X029877Y024927D01*
X029877Y025181D01*
X029876Y025182D01*
X029877Y025183D01*
X029877Y025437D01*
X029876Y025438D01*
X029877Y025439D01*
X029877Y025693D01*
X029876Y025694D01*
X029877Y025695D01*
X029877Y025949D01*
X029868Y025958D01*
X029877Y025991D01*
X029877Y026078D01*
X029461Y026078D01*
X029461Y026078D01*
X029461Y026078D01*
X029045Y026078D01*
X029045Y026165D01*
X029053Y026198D01*
X029045Y026207D01*
X029045Y026399D01*
X029031Y026399D01*
X029045Y026360D02*
X028941Y026360D01*
X028941Y026440D02*
X028990Y026440D01*
X028941Y026279D02*
X029045Y026279D01*
X029053Y026199D02*
X028941Y026199D01*
X028941Y026118D02*
X029045Y026118D01*
X029045Y026038D02*
X028941Y026038D01*
X028941Y025957D02*
X029053Y025957D01*
X029045Y025877D02*
X028941Y025877D01*
X028941Y025796D02*
X029045Y025796D01*
X029045Y025716D02*
X028941Y025716D01*
X028941Y025635D02*
X029045Y025635D01*
X029045Y025555D02*
X028875Y025555D01*
X028794Y025474D02*
X029045Y025474D01*
X029045Y025394D02*
X028714Y025394D01*
X028707Y025313D02*
X029045Y025313D01*
X029045Y025233D02*
X028785Y025233D01*
X028868Y025152D02*
X029045Y025152D01*
X029045Y025072D02*
X028949Y025072D01*
X029877Y025072D02*
X030409Y025072D01*
X030409Y025152D02*
X029877Y025152D01*
X029877Y025233D02*
X030409Y025233D01*
X030409Y025313D02*
X029877Y025313D01*
X029877Y025394D02*
X030409Y025394D01*
X030409Y025474D02*
X029877Y025474D01*
X029877Y025555D02*
X030409Y025555D01*
X030409Y025635D02*
X029877Y025635D01*
X029877Y025716D02*
X030409Y025716D01*
X030409Y025796D02*
X029877Y025796D01*
X029877Y025877D02*
X030097Y025877D01*
X030003Y025957D02*
X029869Y025957D01*
X029877Y026038D02*
X029960Y026038D01*
X029939Y026118D02*
X029877Y026118D01*
X029868Y026199D02*
X029917Y026199D01*
X030403Y025877D02*
X030409Y025877D01*
X031201Y025765D02*
X031267Y025699D01*
X031499Y025467D01*
X031617Y025349D01*
X031923Y025349D01*
X031923Y025183D01*
X031932Y025174D01*
X031923Y025141D01*
X031923Y025054D01*
X031923Y024967D01*
X031932Y024934D01*
X031923Y024925D01*
X031923Y024744D01*
X031591Y024744D01*
X031201Y025133D01*
X031201Y025765D01*
X031201Y025716D02*
X031250Y025716D01*
X031201Y025635D02*
X031331Y025635D01*
X031411Y025555D02*
X031201Y025555D01*
X031201Y025474D02*
X031492Y025474D01*
X031572Y025394D02*
X031201Y025394D01*
X031201Y025313D02*
X031923Y025313D01*
X031923Y025233D02*
X031201Y025233D01*
X031201Y025152D02*
X031926Y025152D01*
X031923Y025072D02*
X031263Y025072D01*
X031343Y024991D02*
X031923Y024991D01*
X031923Y025054D02*
X032339Y025054D01*
X032339Y025054D01*
X031923Y025054D01*
X031923Y024911D02*
X031424Y024911D01*
X031504Y024830D02*
X031923Y024830D01*
X031923Y024750D02*
X031585Y024750D01*
X030949Y024267D02*
X030418Y024267D01*
X030504Y024347D02*
X030869Y024347D01*
X030788Y024428D02*
X030589Y024428D01*
X030675Y024508D02*
X030708Y024508D01*
X030717Y024499D02*
X031130Y024086D01*
X031297Y024086D01*
X031997Y024086D01*
X032006Y024077D01*
X032423Y024077D01*
X032310Y023951D01*
X032017Y023951D01*
X031899Y023833D01*
X031464Y023398D01*
X031479Y023435D01*
X031479Y023565D01*
X031429Y023686D01*
X031336Y023779D01*
X031215Y023829D01*
X031085Y023829D01*
X030964Y023779D01*
X030871Y023686D01*
X030821Y023565D01*
X030821Y023540D01*
X030629Y023348D01*
X030498Y023348D01*
X030415Y023266D01*
X030415Y022834D01*
X030498Y022752D01*
X030817Y022752D01*
X030567Y022501D01*
X030224Y022501D01*
X030224Y022638D01*
X029944Y022638D01*
X029944Y022714D01*
X029869Y022714D01*
X029869Y022974D01*
X029711Y022974D01*
X029675Y022965D01*
X029643Y022946D01*
X029616Y022920D01*
X029598Y022888D01*
X029588Y022852D01*
X029588Y022714D01*
X029869Y022714D01*
X029869Y022638D01*
X029588Y022638D01*
X029588Y022501D01*
X029429Y022501D01*
X029457Y022517D01*
X029483Y022543D01*
X029501Y022576D01*
X029502Y022576D02*
X029588Y022576D01*
X029511Y022611D02*
X029511Y022959D01*
X029041Y022959D01*
X029041Y023041D01*
X029511Y023041D01*
X029511Y023389D01*
X029501Y023424D01*
X029483Y023457D01*
X029480Y023459D01*
X029588Y023459D01*
X029588Y023208D01*
X029671Y023126D01*
X030142Y023126D01*
X030224Y023208D01*
X030224Y023640D01*
X030142Y023722D01*
X029878Y023722D01*
X029860Y023740D01*
X029883Y023763D01*
X030676Y024509D01*
X030679Y024509D01*
X030693Y024523D01*
X030717Y024499D01*
X030374Y024750D02*
X029877Y024750D01*
X029877Y024830D02*
X030409Y024830D01*
X030409Y024911D02*
X029877Y024911D01*
X029877Y024991D02*
X030409Y024991D01*
X030117Y024508D02*
X029877Y024508D01*
X029877Y024428D02*
X030032Y024428D01*
X029946Y024347D02*
X029877Y024347D01*
X030162Y024025D02*
X032376Y024025D01*
X032010Y023945D02*
X030076Y023945D01*
X029990Y023864D02*
X031930Y023864D01*
X031849Y023784D02*
X031325Y023784D01*
X031412Y023703D02*
X031769Y023703D01*
X031688Y023623D02*
X031455Y023623D01*
X031479Y023542D02*
X031608Y023542D01*
X031527Y023462D02*
X031479Y023462D01*
X031774Y023140D02*
X032382Y023140D01*
X032466Y023208D02*
X031696Y022580D01*
X030848Y022063D01*
X029937Y021667D01*
X028981Y021398D01*
X028403Y021318D01*
X029183Y022099D01*
X030733Y022099D01*
X032183Y023549D01*
X032323Y023549D01*
X032328Y023545D01*
X032406Y023549D01*
X032483Y023549D01*
X032488Y023554D01*
X032494Y023554D01*
X032546Y023612D01*
X032601Y023667D01*
X032601Y023673D01*
X033796Y025012D01*
X033851Y025067D01*
X033851Y025073D01*
X033855Y025078D01*
X033851Y025156D01*
X033851Y025361D01*
X033914Y025424D01*
X033961Y025538D01*
X033961Y025662D01*
X033914Y025776D01*
X033826Y025864D01*
X033732Y025902D01*
X033834Y025985D01*
X033847Y025985D01*
X033904Y026041D01*
X033966Y026092D01*
X033968Y026105D01*
X033977Y026114D01*
X033977Y026157D01*
X034035Y026214D01*
X034035Y026430D01*
X034362Y026793D01*
X034422Y026854D01*
X034422Y026861D01*
X034427Y026866D01*
X034425Y026894D01*
X034535Y026894D01*
X034574Y026933D01*
X034500Y026568D01*
X034169Y025631D01*
X033714Y024748D01*
X033143Y023936D01*
X032466Y023208D01*
X032477Y023220D02*
X031854Y023220D01*
X031935Y023301D02*
X032552Y023301D01*
X032627Y023381D02*
X032015Y023381D01*
X032096Y023462D02*
X032702Y023462D01*
X032777Y023542D02*
X032176Y023542D01*
X032557Y023623D02*
X032852Y023623D01*
X032927Y023703D02*
X032628Y023703D01*
X032699Y023784D02*
X033001Y023784D01*
X033076Y023864D02*
X032771Y023864D01*
X032843Y023945D02*
X033149Y023945D01*
X033206Y024025D02*
X032915Y024025D01*
X032987Y024106D02*
X033262Y024106D01*
X033319Y024186D02*
X033059Y024186D01*
X033131Y024267D02*
X033376Y024267D01*
X033432Y024347D02*
X033203Y024347D01*
X033274Y024428D02*
X033489Y024428D01*
X033545Y024508D02*
X033346Y024508D01*
X033418Y024589D02*
X033602Y024589D01*
X033659Y024669D02*
X033490Y024669D01*
X033562Y024750D02*
X033715Y024750D01*
X033756Y024830D02*
X033634Y024830D01*
X033706Y024911D02*
X033798Y024911D01*
X033778Y024991D02*
X033839Y024991D01*
X033851Y025072D02*
X033881Y025072D01*
X033851Y025152D02*
X033922Y025152D01*
X033964Y025233D02*
X033851Y025233D01*
X033851Y025313D02*
X034005Y025313D01*
X034047Y025394D02*
X033883Y025394D01*
X033934Y025474D02*
X034088Y025474D01*
X034130Y025555D02*
X033961Y025555D01*
X033961Y025635D02*
X034171Y025635D01*
X034199Y025716D02*
X033939Y025716D01*
X033894Y025796D02*
X034227Y025796D01*
X034256Y025877D02*
X033795Y025877D01*
X033800Y025957D02*
X034284Y025957D01*
X034312Y026038D02*
X033900Y026038D01*
X033977Y026118D02*
X034341Y026118D01*
X034369Y026199D02*
X034019Y026199D01*
X034035Y026279D02*
X034398Y026279D01*
X034426Y026360D02*
X034035Y026360D01*
X034044Y026440D02*
X034454Y026440D01*
X034483Y026521D02*
X034117Y026521D01*
X034189Y026601D02*
X034506Y026601D01*
X034523Y026682D02*
X034261Y026682D01*
X034334Y026762D02*
X034539Y026762D01*
X034556Y026843D02*
X034411Y026843D01*
X034564Y026923D02*
X034572Y026923D01*
X034618Y027165D02*
X034622Y027165D01*
X034618Y027245D02*
X034638Y027245D01*
X034655Y027326D02*
X034618Y027326D01*
X034618Y027406D02*
X034671Y027406D01*
X034688Y027487D02*
X034618Y027487D01*
X034618Y027567D02*
X034701Y027567D01*
X034699Y027542D02*
X034699Y027542D01*
X034706Y027648D02*
X034618Y027648D01*
X034613Y027728D02*
X034711Y027728D01*
X034716Y027809D02*
X034371Y027809D01*
X034371Y027889D02*
X034722Y027889D01*
X034727Y027970D02*
X034371Y027970D01*
X034371Y028050D02*
X034732Y028050D01*
X034737Y028131D02*
X034371Y028131D01*
X034371Y028211D02*
X034743Y028211D01*
X034748Y028292D02*
X034371Y028292D01*
X034371Y028372D02*
X034753Y028372D01*
X034758Y028453D02*
X034371Y028453D01*
X034371Y028533D02*
X034764Y028533D01*
X034758Y028614D02*
X034371Y028614D01*
X034371Y028694D02*
X034752Y028694D01*
X034746Y028775D02*
X034371Y028775D01*
X034372Y028855D02*
X034740Y028855D01*
X034735Y028936D02*
X034371Y028936D01*
X034348Y029016D02*
X034729Y029016D01*
X034723Y029097D02*
X034266Y029097D01*
X034180Y029177D02*
X034717Y029177D01*
X034711Y029258D02*
X034096Y029258D01*
X034011Y029338D02*
X034706Y029338D01*
X034700Y029419D02*
X033927Y029419D01*
X033843Y029499D02*
X034694Y029499D01*
X034681Y029580D02*
X033758Y029580D01*
X033674Y029660D02*
X034664Y029660D01*
X034646Y029741D02*
X033590Y029741D01*
X033505Y029821D02*
X034629Y029821D01*
X034612Y029902D02*
X033421Y029902D01*
X033337Y029982D02*
X034595Y029982D01*
X034578Y030063D02*
X033252Y030063D01*
X033169Y030143D02*
X034561Y030143D01*
X034544Y030224D02*
X033695Y030224D01*
X033794Y030304D02*
X034527Y030304D01*
X034510Y030385D02*
X033839Y030385D01*
X033861Y030465D02*
X034493Y030465D01*
X034469Y030546D02*
X033861Y030546D01*
X033834Y030626D02*
X034440Y030626D01*
X034411Y030707D02*
X034096Y030707D01*
X034169Y030787D02*
X034382Y030787D01*
X034353Y030868D02*
X034202Y030868D01*
X034211Y030948D02*
X034324Y030948D01*
X034295Y031029D02*
X034204Y031029D01*
X034171Y031109D02*
X034266Y031109D01*
X034237Y031190D02*
X034100Y031190D01*
X034208Y031270D02*
X033929Y031270D01*
X033951Y031351D02*
X034179Y031351D01*
X034150Y031431D02*
X033909Y031431D01*
X033863Y031512D02*
X034108Y031512D01*
X034066Y031592D02*
X033816Y031592D01*
X033770Y031673D02*
X034023Y031673D01*
X033981Y031753D02*
X033706Y031753D01*
X033571Y031753D02*
X033473Y031753D01*
X033427Y031834D02*
X033939Y031834D01*
X033897Y031914D02*
X033503Y031914D01*
X033637Y031995D02*
X033855Y031995D01*
X033813Y032075D02*
X033747Y032075D01*
X033767Y032156D02*
X033770Y032156D01*
X033261Y030385D02*
X030698Y030385D01*
X030764Y030465D02*
X031765Y030465D01*
X031684Y030546D02*
X030860Y030546D01*
X030907Y030626D02*
X031604Y030626D01*
X031523Y030707D02*
X030933Y030707D01*
X030933Y030787D02*
X031443Y030787D01*
X031362Y030868D02*
X030914Y030868D01*
X030877Y030948D02*
X031112Y030948D01*
X031034Y031029D02*
X030796Y031029D01*
X030794Y031109D02*
X031001Y031109D01*
X030989Y031190D02*
X030874Y031190D01*
X030913Y031270D02*
X030992Y031270D01*
X031026Y031351D02*
X030933Y031351D01*
X030933Y031431D02*
X031091Y031431D01*
X031271Y031512D02*
X030908Y031512D01*
X030863Y031592D02*
X031239Y031592D01*
X031239Y031673D02*
X030770Y031673D01*
X030439Y031673D02*
X030225Y031673D01*
X030221Y031753D02*
X031256Y031753D01*
X031294Y031834D02*
X030197Y031834D01*
X030147Y031914D02*
X031375Y031914D01*
X031671Y031995D02*
X030402Y031995D01*
X030596Y032075D02*
X031696Y032075D01*
X031739Y032156D02*
X030717Y032156D01*
X030797Y032236D02*
X031739Y032236D01*
X031664Y032317D02*
X030873Y032317D01*
X030907Y032397D02*
X031584Y032397D01*
X031503Y032478D02*
X030940Y032478D01*
X030973Y032558D02*
X031423Y032558D01*
X031342Y032639D02*
X030982Y032639D01*
X030982Y032719D02*
X031262Y032719D01*
X031181Y032800D02*
X030982Y032800D01*
X030977Y032880D02*
X031101Y032880D01*
X031020Y032961D02*
X030944Y032961D01*
X030940Y033041D02*
X030910Y033041D01*
X030326Y033927D02*
X029506Y033927D01*
X029511Y033959D02*
X029041Y033959D01*
X029041Y033489D01*
X029120Y033502D01*
X029196Y033526D01*
X029268Y033563D01*
X029333Y033610D01*
X029390Y033667D01*
X029437Y033732D01*
X029474Y033804D01*
X029498Y033880D01*
X029511Y033959D01*
X029487Y033846D02*
X029662Y033846D01*
X029547Y033766D02*
X029454Y033766D01*
X029466Y033685D02*
X029403Y033685D01*
X029386Y033605D02*
X029325Y033605D01*
X029305Y033524D02*
X029189Y033524D01*
X029225Y033444D02*
X026161Y033444D01*
X025489Y033927D02*
X024241Y033927D01*
X024241Y034007D02*
X024159Y034007D01*
X024159Y033927D02*
X023363Y033927D01*
X023350Y034007D02*
X023221Y034007D01*
X024159Y034088D02*
X024241Y034088D01*
X024241Y034168D02*
X024159Y034168D01*
X024159Y034249D02*
X024241Y034249D01*
X024241Y034329D02*
X024159Y034329D01*
X024159Y034410D02*
X024241Y034410D01*
X024241Y034490D02*
X024159Y034490D01*
X024159Y033846D02*
X024241Y033846D01*
X024241Y033766D02*
X024159Y033766D01*
X024159Y033685D02*
X024241Y033685D01*
X024241Y033605D02*
X024159Y033605D01*
X024159Y033524D02*
X024241Y033524D01*
X024241Y033444D02*
X024159Y033444D01*
X024159Y033363D02*
X024241Y033363D01*
X024241Y031995D02*
X024159Y031995D01*
X024159Y031914D02*
X024241Y031914D01*
X024241Y031834D02*
X024159Y031834D01*
X024159Y031753D02*
X024241Y031753D01*
X024241Y031673D02*
X024159Y031673D01*
X023819Y031431D02*
X023671Y031431D01*
X023671Y031351D02*
X023819Y031351D01*
X023819Y031270D02*
X023671Y031270D01*
X023671Y031190D02*
X023819Y031190D01*
X023819Y031109D02*
X023671Y031109D01*
X023671Y031029D02*
X023819Y031029D01*
X023852Y030948D02*
X023638Y030948D01*
X023432Y030465D02*
X023378Y030465D01*
X023398Y030385D02*
X023297Y030385D01*
X023217Y030304D02*
X023389Y030304D01*
X023339Y030224D02*
X023136Y030224D01*
X023056Y030143D02*
X023259Y030143D01*
X023199Y030063D02*
X022975Y030063D01*
X022895Y029982D02*
X023199Y029982D01*
X023199Y029902D02*
X022814Y029902D01*
X023199Y029821D02*
X021967Y029821D01*
X021972Y029741D02*
X023199Y029741D01*
X023199Y029660D02*
X021972Y029660D01*
X021972Y029499D02*
X023104Y029499D01*
X023140Y029580D02*
X021712Y029580D01*
X021636Y029580D02*
X021224Y029580D01*
X021224Y029660D02*
X021376Y029660D01*
X021376Y029741D02*
X021224Y029741D01*
X021224Y029821D02*
X021381Y029821D01*
X021439Y029902D02*
X021165Y029902D01*
X021358Y030063D02*
X020422Y030063D01*
X020439Y030143D02*
X021056Y030143D01*
X021002Y030224D02*
X020456Y030224D01*
X020473Y030304D02*
X021002Y030304D01*
X021002Y030385D02*
X020490Y030385D01*
X020507Y030465D02*
X021002Y030465D01*
X021002Y030546D02*
X020531Y030546D01*
X020560Y030626D02*
X021002Y030626D01*
X021039Y030707D02*
X020589Y030707D01*
X020618Y030787D02*
X021739Y030787D01*
X021741Y030868D02*
X020647Y030868D01*
X020676Y030948D02*
X021747Y030948D01*
X021752Y030707D02*
X021561Y030707D01*
X021598Y030626D02*
X021785Y030626D01*
X021865Y030546D02*
X021598Y030546D01*
X021598Y030465D02*
X022139Y030465D01*
X022140Y030385D02*
X021661Y030385D01*
X021742Y030304D02*
X022174Y030304D01*
X021438Y029982D02*
X020405Y029982D01*
X020388Y029902D02*
X020687Y029902D01*
X020628Y029821D02*
X020371Y029821D01*
X020354Y029741D02*
X020628Y029741D01*
X020628Y029660D02*
X020336Y029660D01*
X020319Y029580D02*
X020628Y029580D01*
X020628Y029499D02*
X020306Y029499D01*
X020300Y029419D02*
X020628Y029419D01*
X020660Y029338D02*
X020294Y029338D01*
X020289Y029258D02*
X020966Y029258D01*
X021029Y029177D02*
X020283Y029177D01*
X020277Y029097D02*
X021099Y029097D01*
X021348Y028936D02*
X020265Y028936D01*
X020271Y029016D02*
X021429Y029016D01*
X021289Y028855D02*
X020260Y028855D01*
X020254Y028775D02*
X021256Y028775D01*
X021222Y028694D02*
X020248Y028694D01*
X020242Y028614D02*
X021199Y028614D01*
X021199Y028533D02*
X020236Y028533D01*
X020242Y028453D02*
X021199Y028453D01*
X021199Y028372D02*
X020247Y028372D01*
X020252Y028292D02*
X021228Y028292D01*
X021262Y028211D02*
X020257Y028211D01*
X020263Y028131D02*
X021295Y028131D01*
X021363Y028050D02*
X020268Y028050D01*
X020273Y027970D02*
X021443Y027970D01*
X021559Y027889D02*
X020278Y027889D01*
X020284Y027809D02*
X022228Y027809D01*
X022221Y027889D02*
X022228Y027889D01*
X022232Y027728D02*
X020289Y027728D01*
X020294Y027648D02*
X021930Y027648D01*
X021899Y027567D02*
X020299Y027567D01*
X020312Y027487D02*
X021899Y027487D01*
X021899Y027406D02*
X021414Y027406D01*
X021597Y027326D02*
X021899Y027326D01*
X021899Y027245D02*
X021678Y027245D01*
X021744Y027165D02*
X021918Y027165D01*
X021186Y027406D02*
X020329Y027406D01*
X020345Y027326D02*
X021003Y027326D01*
X020922Y027245D02*
X020362Y027245D01*
X020378Y027165D02*
X020856Y027165D01*
X020823Y027084D02*
X020395Y027084D01*
X020411Y027004D02*
X020790Y027004D01*
X020789Y026923D02*
X020428Y026923D01*
X020444Y026843D02*
X020789Y026843D01*
X020804Y026762D02*
X020461Y026762D01*
X020477Y026682D02*
X020837Y026682D01*
X020876Y026601D02*
X020494Y026601D01*
X020517Y026521D02*
X020957Y026521D01*
X021075Y026440D02*
X020546Y026440D01*
X020574Y026360D02*
X021076Y026360D01*
X020956Y026279D02*
X020602Y026279D01*
X020631Y026199D02*
X020885Y026199D01*
X020838Y026118D02*
X020659Y026118D01*
X020688Y026038D02*
X020807Y026038D01*
X020792Y025957D02*
X020716Y025957D01*
X020744Y025877D02*
X021259Y025877D01*
X021259Y025796D02*
X021341Y025796D01*
X021341Y025716D02*
X021259Y025716D01*
X021259Y025635D02*
X021341Y025635D01*
X021341Y025555D02*
X021259Y025555D01*
X021259Y025474D02*
X021341Y025474D01*
X021017Y025474D02*
X020912Y025474D01*
X020923Y025555D02*
X020870Y025555D01*
X020861Y025635D02*
X020829Y025635D01*
X020823Y025716D02*
X020801Y025716D01*
X020799Y025796D02*
X020773Y025796D01*
X021341Y025877D02*
X022606Y025877D01*
X024338Y025349D02*
X024467Y025349D01*
X024699Y025117D01*
X024817Y024999D01*
X025482Y024999D01*
X025482Y024610D01*
X025543Y024549D01*
X025536Y024545D01*
X025510Y024518D01*
X025491Y024486D01*
X025482Y024450D01*
X025482Y024322D01*
X025772Y024322D01*
X025772Y024266D01*
X025828Y024266D01*
X025828Y024015D01*
X025996Y024015D01*
X026032Y024025D01*
X026218Y024025D01*
X026254Y024015D01*
X026422Y024015D01*
X026422Y024266D01*
X026478Y024266D01*
X026478Y024015D01*
X026646Y024015D01*
X026682Y024025D01*
X027374Y024025D01*
X027288Y023945D02*
X025332Y023945D01*
X025332Y023931D02*
X025332Y024355D01*
X025212Y024475D01*
X024879Y024143D01*
X024821Y024201D01*
X025154Y024533D01*
X025033Y024654D01*
X024625Y024654D01*
X024625Y025062D01*
X024338Y025349D01*
X024374Y025313D02*
X024503Y025313D01*
X024454Y025233D02*
X024583Y025233D01*
X024535Y025152D02*
X024664Y025152D01*
X024615Y025072D02*
X024744Y025072D01*
X024625Y024991D02*
X025482Y024991D01*
X025482Y024911D02*
X024625Y024911D01*
X024625Y024830D02*
X025482Y024830D01*
X025482Y024750D02*
X024625Y024750D01*
X024625Y024669D02*
X025482Y024669D01*
X025503Y024589D02*
X025098Y024589D01*
X025128Y024508D02*
X025504Y024508D01*
X025482Y024428D02*
X025259Y024428D01*
X025164Y024428D02*
X025048Y024428D01*
X025083Y024347D02*
X024967Y024347D01*
X025003Y024267D02*
X024887Y024267D01*
X024922Y024186D02*
X024836Y024186D01*
X024879Y024143D02*
X025212Y023811D01*
X025332Y023931D01*
X025332Y024025D02*
X025568Y024025D01*
X025604Y024015D01*
X025772Y024015D01*
X025772Y024266D01*
X025482Y024266D01*
X025482Y024138D01*
X025491Y024102D01*
X025510Y024070D01*
X025536Y024043D01*
X025568Y024025D01*
X025490Y024106D02*
X025332Y024106D01*
X025332Y024186D02*
X025482Y024186D01*
X025482Y024347D02*
X025332Y024347D01*
X025332Y024267D02*
X025772Y024267D01*
X025828Y024267D02*
X026422Y024267D01*
X026422Y024266D02*
X026132Y024266D01*
X026132Y024138D01*
X026141Y024102D01*
X026160Y024070D01*
X026186Y024043D01*
X026218Y024025D01*
X026140Y024106D02*
X026110Y024106D01*
X026109Y024102D02*
X026118Y024138D01*
X026118Y024266D01*
X025828Y024266D01*
X025828Y024322D01*
X026118Y024322D01*
X026118Y024450D01*
X026109Y024486D01*
X026090Y024518D01*
X026064Y024545D01*
X026057Y024549D01*
X026118Y024610D01*
X026118Y025002D01*
X026036Y025085D01*
X026004Y025085D01*
X026004Y025107D01*
X026014Y025117D01*
X026014Y025283D01*
X026004Y025293D01*
X026004Y025319D01*
X026252Y025319D01*
X026252Y025085D01*
X026214Y025085D01*
X026132Y025002D01*
X026132Y024610D01*
X026193Y024549D01*
X026186Y024545D01*
X026160Y024518D01*
X026141Y024486D01*
X026132Y024450D01*
X026132Y024322D01*
X026422Y024322D01*
X026422Y024266D01*
X026478Y024266D02*
X026478Y024322D01*
X026768Y024322D01*
X026768Y024450D01*
X026759Y024486D01*
X026740Y024518D01*
X026714Y024545D01*
X026707Y024549D01*
X026768Y024610D01*
X026768Y025002D01*
X026686Y025085D01*
X026634Y025085D01*
X026634Y025319D01*
X026743Y025319D01*
X026743Y025696D01*
X026771Y025696D01*
X026771Y025319D01*
X026886Y025319D01*
X026900Y025323D01*
X026904Y025319D01*
X027747Y025319D01*
X027708Y025278D01*
X027653Y025223D01*
X027653Y025221D01*
X027652Y025219D01*
X027653Y025142D01*
X027653Y025081D01*
X027614Y025176D01*
X027526Y025264D01*
X027412Y025311D01*
X027288Y025311D01*
X027174Y025264D01*
X027086Y025176D01*
X027039Y025062D01*
X027039Y024938D01*
X027086Y024824D01*
X027159Y024751D01*
X027159Y024421D01*
X027215Y024365D01*
X027215Y024264D01*
X027298Y024182D01*
X027541Y024182D01*
X027124Y023791D01*
X025177Y023791D01*
X025176Y023792D01*
X025115Y023791D01*
X024821Y024085D01*
X024879Y024143D01*
X024842Y024106D02*
X024917Y024106D01*
X024881Y024025D02*
X024997Y024025D01*
X024962Y023945D02*
X025078Y023945D01*
X025042Y023864D02*
X025158Y023864D01*
X025265Y023864D02*
X027202Y023864D01*
X027294Y024186D02*
X026768Y024186D01*
X026768Y024138D02*
X026768Y024266D01*
X026478Y024266D01*
X026478Y024267D02*
X027215Y024267D01*
X027215Y024347D02*
X026768Y024347D01*
X026768Y024428D02*
X027159Y024428D01*
X027159Y024508D02*
X026746Y024508D01*
X026747Y024589D02*
X027159Y024589D01*
X027159Y024669D02*
X026768Y024669D01*
X026768Y024750D02*
X027159Y024750D01*
X027084Y024830D02*
X026768Y024830D01*
X026768Y024911D02*
X027050Y024911D01*
X027039Y024991D02*
X026768Y024991D01*
X026699Y025072D02*
X027043Y025072D01*
X027076Y025152D02*
X026634Y025152D01*
X026634Y025233D02*
X027143Y025233D01*
X026771Y025394D02*
X026743Y025394D01*
X026743Y025474D02*
X026771Y025474D01*
X026771Y025555D02*
X026743Y025555D01*
X026743Y025635D02*
X026771Y025635D01*
X026771Y025796D02*
X026743Y025796D01*
X026743Y025877D02*
X026771Y025877D01*
X026771Y025957D02*
X026743Y025957D01*
X026743Y026038D02*
X026771Y026038D01*
X026207Y026199D02*
X027899Y026199D01*
X027899Y026279D02*
X026224Y026279D01*
X026224Y026360D02*
X027899Y026360D01*
X027899Y026440D02*
X026191Y026440D01*
X026132Y026521D02*
X027899Y026521D01*
X027899Y026601D02*
X026114Y026601D01*
X026114Y026682D02*
X027899Y026682D01*
X027899Y026762D02*
X026114Y026762D01*
X026114Y026843D02*
X027899Y026843D01*
X027899Y026923D02*
X026114Y026923D01*
X026114Y027004D02*
X027899Y027004D01*
X027899Y027084D02*
X026114Y027084D01*
X026170Y026118D02*
X027910Y026118D01*
X027934Y026038D02*
X028559Y026038D01*
X028559Y025957D02*
X027953Y025957D01*
X027953Y025877D02*
X028559Y025877D01*
X028559Y025796D02*
X027953Y025796D01*
X027953Y025716D02*
X028495Y025716D01*
X028065Y025635D02*
X027953Y025635D01*
X027953Y025555D02*
X027984Y025555D01*
X027742Y025313D02*
X026634Y025313D01*
X026252Y025313D02*
X026004Y025313D01*
X026014Y025233D02*
X026252Y025233D01*
X026252Y025152D02*
X026014Y025152D01*
X026049Y025072D02*
X026201Y025072D01*
X026132Y024991D02*
X026118Y024991D01*
X026118Y024911D02*
X026132Y024911D01*
X026132Y024830D02*
X026118Y024830D01*
X026118Y024750D02*
X026132Y024750D01*
X026132Y024669D02*
X026118Y024669D01*
X026097Y024589D02*
X026153Y024589D01*
X026154Y024508D02*
X026096Y024508D01*
X026118Y024428D02*
X026132Y024428D01*
X026132Y024347D02*
X026118Y024347D01*
X026118Y024186D02*
X026132Y024186D01*
X026109Y024102D02*
X026090Y024070D01*
X026064Y024043D01*
X026032Y024025D01*
X025828Y024025D02*
X025772Y024025D01*
X025772Y024106D02*
X025828Y024106D01*
X025828Y024186D02*
X025772Y024186D01*
X026422Y024186D02*
X026478Y024186D01*
X026478Y024106D02*
X026422Y024106D01*
X026422Y024025D02*
X026478Y024025D01*
X026682Y024025D02*
X026714Y024043D01*
X026740Y024070D01*
X026759Y024102D01*
X026768Y024138D01*
X026760Y024106D02*
X027460Y024106D01*
X027624Y025152D02*
X027653Y025152D01*
X027662Y025233D02*
X027557Y025233D01*
X029905Y023784D02*
X030975Y023784D01*
X030888Y023703D02*
X030161Y023703D01*
X030224Y023623D02*
X030845Y023623D01*
X030821Y023542D02*
X030224Y023542D01*
X030224Y023462D02*
X030742Y023462D01*
X030662Y023381D02*
X030224Y023381D01*
X030224Y023301D02*
X030450Y023301D01*
X030415Y023220D02*
X030224Y023220D01*
X030156Y023140D02*
X030415Y023140D01*
X030415Y023059D02*
X029511Y023059D01*
X029511Y023140D02*
X029657Y023140D01*
X029588Y023220D02*
X029511Y023220D01*
X029511Y023301D02*
X029588Y023301D01*
X029588Y023381D02*
X029511Y023381D01*
X029511Y022898D02*
X029604Y022898D01*
X029588Y022818D02*
X029511Y022818D01*
X029511Y022737D02*
X029588Y022737D01*
X029511Y022657D02*
X029869Y022657D01*
X029944Y022657D02*
X030722Y022657D01*
X030803Y022737D02*
X030224Y022737D01*
X030224Y022714D02*
X030224Y022852D01*
X030215Y022888D01*
X030196Y022920D01*
X030170Y022946D01*
X030138Y022965D01*
X030102Y022974D01*
X029944Y022974D01*
X029944Y022714D01*
X030224Y022714D01*
X030224Y022818D02*
X030431Y022818D01*
X030415Y022898D02*
X030209Y022898D01*
X030415Y022979D02*
X029041Y022979D01*
X029041Y022959D02*
X029041Y022501D01*
X029017Y022501D01*
X028901Y022385D01*
X028864Y022476D01*
X028851Y022489D01*
X028959Y022489D01*
X028959Y022959D01*
X029041Y022959D01*
X029041Y022898D02*
X028959Y022898D01*
X028959Y022818D02*
X029041Y022818D01*
X029041Y022737D02*
X028959Y022737D01*
X028959Y022657D02*
X029041Y022657D01*
X029041Y022576D02*
X028959Y022576D01*
X028959Y022496D02*
X029011Y022496D01*
X028931Y022415D02*
X028889Y022415D01*
X029177Y022093D02*
X030897Y022093D01*
X030808Y022174D02*
X031029Y022174D01*
X031161Y022254D02*
X030888Y022254D01*
X030969Y022335D02*
X031293Y022335D01*
X031425Y022415D02*
X031049Y022415D01*
X031130Y022496D02*
X031557Y022496D01*
X031689Y022576D02*
X031210Y022576D01*
X031291Y022657D02*
X031790Y022657D01*
X031889Y022737D02*
X031371Y022737D01*
X031452Y022818D02*
X031987Y022818D01*
X032086Y022898D02*
X031532Y022898D01*
X031613Y022979D02*
X032184Y022979D01*
X032283Y023059D02*
X031693Y023059D01*
X030642Y022576D02*
X030224Y022576D01*
X029944Y022737D02*
X029869Y022737D01*
X029869Y022818D02*
X029944Y022818D01*
X029944Y022898D02*
X029869Y022898D01*
X029511Y022611D02*
X029501Y022576D01*
X029097Y022013D02*
X030732Y022013D01*
X030547Y021932D02*
X029016Y021932D01*
X028936Y021852D02*
X030362Y021852D01*
X030177Y021771D02*
X028855Y021771D01*
X028775Y021691D02*
X029992Y021691D01*
X029736Y021610D02*
X028694Y021610D01*
X028614Y021530D02*
X029449Y021530D01*
X029163Y021449D02*
X028533Y021449D01*
X028453Y021369D02*
X028767Y021369D01*
X028230Y022174D02*
X027820Y022174D01*
X027532Y022254D02*
X028289Y022254D01*
X028289Y022335D02*
X027480Y022335D01*
X027299Y022576D02*
X027701Y022576D01*
X027621Y022657D02*
X027379Y022657D01*
X027444Y022737D02*
X027556Y022737D01*
X027522Y022818D02*
X027478Y022818D01*
X027117Y022496D02*
X027883Y022496D01*
X028117Y022496D02*
X028356Y022496D01*
X028311Y022415D02*
X025675Y022415D01*
X025549Y022496D02*
X025883Y022496D01*
X025701Y022576D02*
X023311Y022576D01*
X023304Y022580D02*
X024152Y022063D01*
X025063Y021667D01*
X025008Y021691D02*
X026029Y021691D01*
X025996Y021771D02*
X024823Y021771D01*
X024638Y021852D02*
X025989Y021852D01*
X025997Y021932D02*
X025616Y021932D01*
X025284Y021932D02*
X024453Y021932D01*
X024268Y022013D02*
X025198Y022013D01*
X025158Y022093D02*
X024103Y022093D01*
X023971Y022174D02*
X025139Y022174D01*
X025139Y022254D02*
X023839Y022254D01*
X023707Y022335D02*
X025169Y022335D01*
X025225Y022415D02*
X023575Y022415D01*
X023443Y022496D02*
X025351Y022496D01*
X026117Y022496D02*
X026883Y022496D01*
X026701Y022576D02*
X026299Y022576D01*
X026379Y022657D02*
X026621Y022657D01*
X026556Y022737D02*
X026444Y022737D01*
X026478Y022818D02*
X026522Y022818D01*
X027281Y021691D02*
X027449Y021691D01*
X027441Y021610D02*
X027281Y021610D01*
X027246Y021530D02*
X027486Y021530D01*
X027549Y021449D02*
X025837Y021449D01*
X025551Y021530D02*
X026699Y021530D01*
X026664Y021610D02*
X026500Y021610D01*
X026233Y021369D02*
X027599Y021369D01*
X027670Y021288D02*
X026818Y021288D01*
X026100Y021610D02*
X025264Y021610D01*
X028299Y022576D02*
X028454Y022576D01*
X028489Y022657D02*
X028379Y022657D01*
X028444Y022737D02*
X028489Y022737D01*
X028478Y022818D02*
X028489Y022818D01*
X030247Y024106D02*
X031110Y024106D01*
X031030Y024186D02*
X030333Y024186D01*
X032339Y025054D02*
X032339Y025054D01*
X032755Y025054D01*
X032755Y024967D01*
X032747Y024934D01*
X032755Y024925D01*
X032755Y024672D01*
X032754Y024670D01*
X032755Y024669D01*
X032951Y024669D01*
X032879Y024589D02*
X032755Y024589D01*
X032755Y024669D02*
X032755Y024450D01*
X033449Y025227D01*
X033449Y025361D01*
X033386Y025424D01*
X033339Y025538D01*
X033339Y025584D01*
X033114Y025402D01*
X033058Y025345D01*
X033044Y025345D01*
X033034Y025337D01*
X032955Y025345D01*
X032755Y025345D01*
X032755Y025183D01*
X032747Y025174D01*
X032755Y025141D01*
X032755Y025054D01*
X032339Y025054D01*
X032755Y025072D02*
X033310Y025072D01*
X033382Y025152D02*
X032753Y025152D01*
X032755Y025233D02*
X033449Y025233D01*
X033449Y025313D02*
X032755Y025313D01*
X032755Y024991D02*
X033239Y024991D01*
X033167Y024911D02*
X032755Y024911D01*
X032755Y024830D02*
X033095Y024830D01*
X033023Y024750D02*
X032755Y024750D01*
X032755Y024508D02*
X032807Y024508D01*
X033106Y025394D02*
X033417Y025394D01*
X033366Y025474D02*
X033204Y025474D01*
X033303Y025555D02*
X033339Y025555D01*
X032998Y025877D02*
X032755Y025877D01*
X032755Y025909D02*
X032747Y025942D01*
X032755Y025951D01*
X032755Y026205D01*
X032754Y026206D01*
X032755Y026207D01*
X032755Y026461D01*
X032754Y026462D01*
X032755Y026463D01*
X032755Y026717D01*
X032747Y026726D01*
X032755Y026759D01*
X032755Y026846D01*
X032755Y026911D01*
X032769Y026904D01*
X032805Y026894D01*
X033058Y026894D01*
X033058Y027309D01*
X033140Y027309D01*
X033140Y027391D01*
X033515Y027391D01*
X033515Y027684D01*
X033506Y027719D01*
X033487Y027752D01*
X033461Y027778D01*
X033429Y027796D01*
X033393Y027806D01*
X033140Y027806D01*
X033140Y027391D01*
X033058Y027391D01*
X033058Y027806D01*
X032805Y027806D01*
X032769Y027796D01*
X032737Y027778D01*
X032727Y027768D01*
X032673Y027823D01*
X032091Y027823D01*
X032091Y028056D01*
X032166Y028056D01*
X032248Y028139D01*
X032248Y028571D01*
X032169Y028650D01*
X032248Y028729D01*
X032248Y029161D01*
X032215Y029195D01*
X032268Y029248D01*
X032268Y029640D01*
X032208Y029700D01*
X032243Y029735D01*
X032956Y029735D01*
X033929Y028805D01*
X033929Y027806D01*
X033867Y027806D01*
X033785Y027723D01*
X033785Y026977D01*
X033862Y026899D01*
X033745Y026768D01*
X033560Y026768D01*
X033499Y026707D01*
X033495Y026714D01*
X033468Y026740D01*
X033436Y026759D01*
X033400Y026768D01*
X033272Y026768D01*
X033272Y026478D01*
X033216Y026478D01*
X033216Y026422D01*
X032965Y026422D01*
X032965Y026254D01*
X032975Y026218D01*
X032993Y026186D01*
X033020Y026160D01*
X033052Y026141D01*
X033088Y026132D01*
X033216Y026132D01*
X033216Y026422D01*
X033272Y026422D01*
X033272Y026132D01*
X033313Y026132D01*
X032888Y025787D01*
X032755Y025787D01*
X032755Y025822D01*
X032339Y025822D01*
X031923Y025822D01*
X031923Y025751D01*
X031783Y025751D01*
X031587Y025947D01*
X031614Y025974D01*
X031655Y026075D01*
X031871Y025859D01*
X031923Y025859D01*
X031923Y025822D01*
X032339Y025822D01*
X032339Y025822D01*
X032339Y025822D01*
X032755Y025822D01*
X032755Y025909D01*
X032755Y025957D02*
X033098Y025957D01*
X033197Y026038D02*
X032755Y026038D01*
X032755Y026118D02*
X033296Y026118D01*
X033272Y026199D02*
X033216Y026199D01*
X033216Y026279D02*
X033272Y026279D01*
X033272Y026360D02*
X033216Y026360D01*
X033216Y026440D02*
X032755Y026440D01*
X032755Y026360D02*
X032965Y026360D01*
X032965Y026279D02*
X032755Y026279D01*
X032755Y026199D02*
X032986Y026199D01*
X032965Y026478D02*
X033216Y026478D01*
X033216Y026768D01*
X033088Y026768D01*
X033052Y026759D01*
X033020Y026740D01*
X032993Y026714D01*
X032975Y026682D01*
X032965Y026646D01*
X032965Y026478D01*
X032965Y026521D02*
X032755Y026521D01*
X032755Y026601D02*
X032965Y026601D01*
X032975Y026682D02*
X032755Y026682D01*
X032755Y026762D02*
X033065Y026762D01*
X033216Y026762D02*
X033272Y026762D01*
X033272Y026682D02*
X033216Y026682D01*
X033216Y026601D02*
X033272Y026601D01*
X033272Y026521D02*
X033216Y026521D01*
X033423Y026762D02*
X033554Y026762D01*
X033461Y026922D02*
X033429Y026904D01*
X033393Y026894D01*
X033140Y026894D01*
X033140Y027309D01*
X033515Y027309D01*
X033515Y027016D01*
X033506Y026981D01*
X033487Y026948D01*
X033461Y026922D01*
X033462Y026923D02*
X033838Y026923D01*
X033812Y026843D02*
X032755Y026843D01*
X032755Y026846D02*
X032339Y026846D01*
X032339Y027055D01*
X032339Y027102D01*
X032339Y027102D01*
X032339Y026846D01*
X032339Y026846D01*
X032755Y026846D01*
X033058Y026923D02*
X033140Y026923D01*
X033140Y027004D02*
X033058Y027004D01*
X033058Y027084D02*
X033140Y027084D01*
X033140Y027165D02*
X033058Y027165D01*
X033058Y027245D02*
X033140Y027245D01*
X033140Y027326D02*
X033785Y027326D01*
X033785Y027406D02*
X033515Y027406D01*
X033515Y027487D02*
X033785Y027487D01*
X033785Y027567D02*
X033515Y027567D01*
X033515Y027648D02*
X033785Y027648D01*
X033789Y027728D02*
X033501Y027728D01*
X033441Y027889D02*
X033929Y027889D01*
X033929Y027809D02*
X032687Y027809D01*
X032719Y027914D02*
X032973Y027809D01*
X033247Y027809D01*
X033501Y027914D01*
X033696Y028109D01*
X033801Y028363D01*
X033801Y028637D01*
X033696Y028891D01*
X033501Y029086D01*
X033247Y029191D01*
X032973Y029191D01*
X032719Y029086D01*
X032524Y028891D01*
X032419Y028637D01*
X032419Y028363D01*
X032524Y028109D01*
X032719Y027914D01*
X032779Y027889D02*
X032091Y027889D01*
X032091Y027970D02*
X032663Y027970D01*
X032583Y028050D02*
X032091Y028050D01*
X032240Y028131D02*
X032515Y028131D01*
X032482Y028211D02*
X032248Y028211D01*
X032248Y028292D02*
X032448Y028292D01*
X032419Y028372D02*
X032248Y028372D01*
X032248Y028453D02*
X032419Y028453D01*
X032419Y028533D02*
X032248Y028533D01*
X032206Y028614D02*
X032419Y028614D01*
X032442Y028694D02*
X032213Y028694D01*
X032248Y028775D02*
X032476Y028775D01*
X032509Y028855D02*
X032248Y028855D01*
X032248Y028936D02*
X032568Y028936D01*
X032649Y029016D02*
X032248Y029016D01*
X032248Y029097D02*
X032745Y029097D01*
X032939Y029177D02*
X032233Y029177D01*
X032268Y029258D02*
X033455Y029258D01*
X033371Y029338D02*
X032268Y029338D01*
X032268Y029419D02*
X033287Y029419D01*
X033203Y029499D02*
X032268Y029499D01*
X032268Y029580D02*
X033118Y029580D01*
X033034Y029660D02*
X032248Y029660D01*
X032197Y030224D02*
X033405Y030224D01*
X033306Y030304D02*
X030820Y030304D01*
X030942Y030224D02*
X031153Y030224D01*
X031647Y030224D02*
X031703Y030224D01*
X030275Y030707D02*
X030095Y030707D01*
X030073Y030787D02*
X030275Y030787D01*
X030295Y030868D02*
X030159Y030868D01*
X030201Y030948D02*
X030332Y030948D01*
X030412Y031029D02*
X030225Y031029D01*
X030225Y031109D02*
X030415Y031109D01*
X030334Y031190D02*
X030202Y031190D01*
X030161Y031270D02*
X030296Y031270D01*
X030275Y031351D02*
X030078Y031351D01*
X030086Y031431D02*
X030275Y031431D01*
X030301Y031512D02*
X030166Y031512D01*
X030207Y031592D02*
X030346Y031592D01*
X029914Y031753D02*
X029878Y031753D01*
X029878Y031834D02*
X029914Y031834D01*
X029914Y031914D02*
X029878Y031914D01*
X029878Y031995D02*
X029914Y031995D01*
X029904Y032075D02*
X029517Y032075D01*
X029517Y031995D02*
X029747Y031995D01*
X029644Y031914D02*
X029517Y031914D01*
X029595Y031834D02*
X029436Y031834D01*
X029571Y031753D02*
X029031Y031753D01*
X028917Y031673D02*
X029567Y031673D01*
X029517Y032156D02*
X029783Y032156D01*
X029703Y032236D02*
X029517Y032236D01*
X029517Y032317D02*
X029627Y032317D01*
X029593Y032397D02*
X029517Y032397D01*
X029517Y032478D02*
X029560Y032478D01*
X029527Y032558D02*
X029517Y032558D01*
X029518Y032639D02*
X029460Y032639D01*
X029518Y032719D02*
X029361Y032719D01*
X029361Y032800D02*
X029518Y032800D01*
X029523Y032880D02*
X029399Y032880D01*
X029480Y032961D02*
X029556Y032961D01*
X029560Y033041D02*
X029590Y033041D01*
X029041Y033524D02*
X028959Y033524D01*
X028959Y033605D02*
X029041Y033605D01*
X029041Y033685D02*
X028959Y033685D01*
X028959Y033766D02*
X029041Y033766D01*
X029041Y033846D02*
X028959Y033846D01*
X028959Y033927D02*
X029041Y033927D01*
X029041Y034007D02*
X030326Y034007D01*
X030326Y034088D02*
X030089Y034088D01*
X030135Y034168D02*
X030326Y034168D01*
X030382Y034249D02*
X030135Y034249D01*
X030135Y034329D02*
X031243Y034329D01*
X031356Y034249D02*
X030905Y034249D01*
X030962Y034168D02*
X031335Y034168D01*
X031113Y034410D02*
X030135Y034410D01*
X030135Y034490D02*
X030344Y034490D01*
X030326Y034571D02*
X030130Y034571D01*
X030260Y034732D02*
X029967Y034732D01*
X029891Y034651D02*
X030326Y034651D01*
X030944Y034490D02*
X030984Y034490D01*
X029545Y034088D02*
X029503Y034088D01*
X029499Y034168D02*
X029483Y034168D01*
X029499Y034249D02*
X029447Y034249D01*
X029041Y034249D02*
X028959Y034249D01*
X028959Y034329D02*
X029041Y034329D01*
X029041Y034410D02*
X028959Y034410D01*
X028959Y034490D02*
X029009Y034490D01*
X028989Y034571D02*
X028802Y034571D01*
X028822Y034651D02*
X028989Y034651D01*
X029018Y034732D02*
X028902Y034732D01*
X028855Y034490D02*
X028152Y034490D01*
X028313Y034410D02*
X028694Y034410D01*
X028607Y034329D02*
X028394Y034329D01*
X028450Y034249D02*
X028553Y034249D01*
X028517Y034168D02*
X028483Y034168D01*
X028489Y033846D02*
X028513Y033846D01*
X028546Y033766D02*
X028456Y033766D01*
X028408Y033685D02*
X028597Y033685D01*
X028675Y033605D02*
X028327Y033605D01*
X028186Y033524D02*
X028811Y033524D01*
X028959Y034088D02*
X029041Y034088D01*
X029041Y034168D02*
X028959Y034168D01*
X027848Y034490D02*
X027145Y034490D01*
X027306Y034410D02*
X027687Y034410D01*
X027606Y034329D02*
X027393Y034329D01*
X027447Y034249D02*
X027550Y034249D01*
X027517Y034168D02*
X027483Y034168D01*
X027487Y033846D02*
X027511Y033846D01*
X027544Y033766D02*
X027454Y033766D01*
X027403Y033685D02*
X027592Y033685D01*
X027673Y033605D02*
X027325Y033605D01*
X027189Y033524D02*
X027814Y033524D01*
X026256Y031512D02*
X026211Y031512D01*
X026211Y031431D02*
X026232Y031431D01*
X026232Y031351D02*
X026211Y031351D01*
X025689Y031351D02*
X025501Y031351D01*
X025491Y031431D02*
X025689Y031431D01*
X025689Y031512D02*
X025491Y031512D01*
X025491Y031270D02*
X025689Y031270D01*
X025689Y031190D02*
X025491Y031190D01*
X025491Y031109D02*
X025689Y031109D01*
X025689Y031029D02*
X025491Y031029D01*
X025458Y030948D02*
X025689Y030948D01*
X026378Y030385D02*
X024960Y030385D01*
X025077Y030143D02*
X026155Y030143D01*
X026046Y030063D02*
X025158Y030063D01*
X025191Y029982D02*
X025966Y029982D01*
X025897Y029902D02*
X025191Y029902D01*
X025191Y029821D02*
X025867Y029821D01*
X025867Y029741D02*
X025730Y029741D01*
X025810Y029660D02*
X025867Y029660D01*
X025247Y029016D02*
X024960Y029016D01*
X025247Y028936D02*
X023285Y028936D01*
X023365Y028855D02*
X025247Y028855D01*
X025254Y028775D02*
X023446Y028775D01*
X023526Y028694D02*
X024542Y028694D01*
X024439Y028614D02*
X023607Y028614D01*
X023641Y028533D02*
X024360Y028533D01*
X024407Y028581D02*
X024407Y028581D01*
X024281Y028453D02*
X024087Y028453D01*
X023713Y028453D02*
X023641Y028453D01*
X023385Y027245D02*
X023359Y027245D01*
X025301Y028533D02*
X025876Y028533D01*
X025907Y028614D02*
X025301Y028614D01*
X025278Y028694D02*
X025907Y028694D01*
X025796Y028453D02*
X025637Y028453D01*
X027837Y027648D02*
X027899Y027648D01*
X027899Y027709D02*
X027899Y027709D01*
X029186Y029016D02*
X029262Y029016D01*
X029262Y029097D02*
X029186Y029097D01*
X029186Y029177D02*
X029262Y029177D01*
X029262Y029338D02*
X029186Y029338D01*
X029186Y029419D02*
X029262Y029419D01*
X029262Y029499D02*
X029186Y029499D01*
X028926Y029177D02*
X028865Y029177D01*
X028683Y031029D02*
X027906Y031029D01*
X027906Y031109D02*
X028707Y031109D01*
X030044Y031995D02*
X030098Y031995D01*
X033281Y029177D02*
X033540Y029177D01*
X033475Y029097D02*
X033624Y029097D01*
X033571Y029016D02*
X033708Y029016D01*
X033652Y028936D02*
X033793Y028936D01*
X033711Y028855D02*
X033877Y028855D01*
X033929Y028775D02*
X033744Y028775D01*
X033778Y028694D02*
X033929Y028694D01*
X033929Y028614D02*
X033801Y028614D01*
X033801Y028533D02*
X033929Y028533D01*
X033929Y028453D02*
X033801Y028453D01*
X033801Y028372D02*
X033929Y028372D01*
X033929Y028292D02*
X033772Y028292D01*
X033738Y028211D02*
X033929Y028211D01*
X033929Y028131D02*
X033705Y028131D01*
X033637Y028050D02*
X033929Y028050D01*
X033929Y027970D02*
X033557Y027970D01*
X033140Y027728D02*
X033058Y027728D01*
X033058Y027648D02*
X033140Y027648D01*
X033140Y027567D02*
X033058Y027567D01*
X033058Y027487D02*
X033140Y027487D01*
X033140Y027406D02*
X033058Y027406D01*
X033515Y027245D02*
X033785Y027245D01*
X033785Y027165D02*
X033515Y027165D01*
X033515Y027084D02*
X033785Y027084D01*
X033785Y027004D02*
X033512Y027004D01*
X032339Y027004D02*
X032339Y027004D01*
X032339Y027084D02*
X032339Y027084D01*
X032339Y026923D02*
X032339Y026923D01*
X032339Y026846D02*
X032339Y026846D01*
X031692Y026038D02*
X031640Y026038D01*
X031597Y025957D02*
X031773Y025957D01*
X031853Y025877D02*
X031658Y025877D01*
X031738Y025796D02*
X031923Y025796D01*
X032755Y025796D02*
X032899Y025796D01*
X024729Y031592D02*
X024581Y031592D01*
X024581Y031673D02*
X024729Y031673D01*
X024729Y031753D02*
X024581Y031753D01*
X024581Y031834D02*
X024729Y031834D01*
X024729Y031914D02*
X024581Y031914D01*
X024560Y031995D02*
X024745Y031995D01*
X021331Y032317D02*
X021315Y032317D01*
X021292Y032236D02*
X021272Y032236D01*
X021253Y032156D02*
X021230Y032156D01*
X021198Y032075D02*
X021187Y032075D01*
X021176Y031995D02*
X021145Y031995D01*
X021152Y031914D02*
X021103Y031914D01*
X021061Y031834D02*
X021154Y031834D01*
X021180Y031753D02*
X021019Y031753D01*
X020977Y031673D02*
X021249Y031673D01*
X021263Y031592D02*
X020934Y031592D01*
X020892Y031512D02*
X021216Y031512D01*
X021170Y031431D02*
X020850Y031431D01*
X020821Y031351D02*
X021123Y031351D01*
X021113Y031270D02*
X020792Y031270D01*
X020763Y031190D02*
X021151Y031190D01*
X021291Y031109D02*
X020734Y031109D01*
X020705Y031029D02*
X021430Y031029D01*
X021376Y029499D02*
X021262Y029499D01*
D39*
X025110Y031480D02*
X025384Y031806D01*
X025900Y031806D01*
X025950Y031806D01*
X025950Y030925D01*
X026225Y030650D01*
X026550Y030650D01*
X026253Y029900D02*
X026128Y029775D01*
X026128Y029090D01*
X026400Y029850D02*
X026253Y029900D01*
X025240Y031350D02*
X025110Y031480D01*
X025900Y031806D02*
X025900Y033800D01*
X026000Y034000D01*
X025950Y031806D02*
X026550Y031806D01*
X027305Y031806D01*
X027328Y031808D01*
X027350Y031813D01*
X027371Y031822D01*
X027390Y031834D01*
X027408Y031848D01*
X027422Y031866D01*
X027434Y031885D01*
X027443Y031906D01*
X027448Y031928D01*
X027450Y031951D01*
X029100Y032248D02*
X029100Y032950D01*
X029750Y033600D01*
X030750Y033600D01*
X032000Y032350D01*
X032000Y031950D01*
X030200Y031700D02*
X029900Y031700D01*
X029900Y032000D01*
X029900Y031700D02*
X029550Y031700D01*
X029100Y030752D02*
X029896Y030440D01*
X031150Y023500D02*
X030733Y023083D01*
X030733Y023050D01*
D40*
X029906Y023424D02*
X029680Y023650D01*
X028000Y023650D01*
X027850Y023700D01*
X027200Y023600D02*
X025100Y023600D01*
X024236Y023586D01*
X024114Y023436D01*
X023407Y024143D02*
X022607Y024143D01*
X022050Y024700D01*
X022050Y025050D01*
X023150Y026150D01*
X023600Y026150D01*
X023750Y026000D01*
X025200Y026000D01*
X025300Y025900D01*
X025488Y025700D01*
X025498Y025710D01*
X025813Y025710D02*
X025813Y025200D01*
X025813Y024819D01*
X025800Y024806D01*
X026443Y024813D02*
X026443Y025710D01*
X026443Y024813D02*
X026450Y024806D01*
X027350Y025000D02*
X027350Y024500D01*
X027494Y024500D01*
X028000Y024494D02*
X028000Y024350D01*
X027200Y023600D01*
X028000Y024494D02*
X028006Y024500D01*
X027994Y025000D01*
X027844Y025144D01*
X028200Y025500D01*
X028550Y025500D01*
X028750Y025700D01*
X028750Y027400D01*
X028600Y027550D01*
X028297Y027550D01*
X028290Y027557D01*
X028268Y027850D02*
X028290Y027872D01*
X028268Y027850D02*
X028200Y027900D01*
X027650Y027900D01*
X027400Y028450D02*
X027400Y029077D01*
X027387Y029090D01*
X027400Y029103D01*
X027400Y028450D02*
X027000Y028050D01*
X027000Y027550D01*
X028290Y028187D02*
X028327Y028150D01*
X028750Y028150D01*
X028950Y027950D01*
X028950Y026750D01*
X029110Y026590D01*
X029461Y026590D01*
X029857Y027357D02*
X030000Y027350D01*
X030600Y026750D01*
X030600Y024700D01*
X029750Y023900D01*
X029200Y023900D01*
X028950Y024150D01*
X028950Y024800D01*
X028750Y025000D01*
X028506Y025000D01*
X025500Y026650D02*
X025463Y026613D01*
X024910Y026613D01*
X024113Y026613D01*
X024100Y026600D01*
X023800Y026250D02*
X024862Y026250D01*
X024874Y026252D01*
X024886Y026256D01*
X024896Y026264D01*
X024904Y026274D01*
X024908Y026286D01*
X024910Y026298D01*
X023800Y026250D02*
X023500Y026550D01*
X023150Y026550D01*
X023044Y027026D02*
X024474Y027026D01*
X024550Y026950D01*
X024888Y026950D01*
X024910Y026928D01*
X024910Y027243D02*
X023657Y027243D01*
X023450Y027450D01*
X023450Y028500D01*
X022700Y029250D01*
X021220Y029250D01*
X020926Y029606D01*
X023900Y028200D02*
X024300Y028200D01*
X024598Y028502D01*
X024910Y028502D01*
X024910Y028187D02*
X025437Y028187D01*
X025450Y028200D01*
X024910Y027872D02*
X024888Y027850D01*
X024250Y027850D01*
X023900Y027500D02*
X023800Y027600D01*
X023900Y027500D02*
X024853Y027500D01*
X024910Y027557D01*
X025498Y029090D02*
X025360Y029228D01*
X024500Y029228D01*
X025000Y029675D02*
X025125Y029550D01*
X025650Y029550D01*
X025800Y029400D01*
X025800Y029103D01*
X025813Y029090D01*
X025000Y029675D02*
X025000Y029950D01*
X024778Y030172D01*
X024500Y030172D01*
X028476Y029256D02*
X028800Y028982D01*
X028800Y028850D01*
X029052Y028502D02*
X028290Y028502D01*
X029052Y028502D02*
X029200Y028350D01*
X029461Y027613D02*
X030263Y027613D01*
X030300Y027600D01*
X029857Y027357D02*
X029461Y027357D01*
X031400Y028355D02*
X031700Y028005D01*
X031700Y026300D01*
X031950Y026050D01*
X032311Y026050D01*
X032339Y026078D01*
X032306Y026300D02*
X032339Y026334D01*
X032016Y026334D02*
X031900Y026450D01*
X031900Y028250D01*
X031950Y028355D01*
X031950Y028945D02*
X031950Y029444D01*
X031400Y029444D02*
X031400Y028945D01*
X031900Y030600D02*
X033450Y030600D01*
X033550Y030500D01*
X033900Y030950D02*
X032900Y030950D01*
X032750Y030800D01*
X032125Y030800D01*
X032000Y030925D01*
X032000Y031200D01*
X031550Y031650D01*
X031300Y031200D02*
X031900Y030600D01*
X031500Y033900D02*
X030770Y033900D01*
X030644Y033976D01*
X029700Y034900D02*
X029600Y035000D01*
X028900Y035000D01*
X028800Y034900D01*
X028600Y034900D01*
X028396Y034856D01*
X028600Y022300D02*
X028170Y021820D01*
X028020Y021800D01*
D41*
X023290Y031480D02*
X023290Y032460D01*
X022950Y032800D01*
X022450Y032800D01*
X027450Y031951D02*
X028803Y031951D01*
X029100Y032248D01*
M02*
