G75*
G70*
%OFA0B0*%
%FSLAX24Y24*%
%IPPOS*%
%LPD*%
%AMOC8*
5,1,8,0,0,1.08239X$1,22.5*
%
%ADD10C,0.0740*%
%ADD11R,0.0740X0.0740*%
%ADD12C,0.0240*%
%ADD13C,0.0400*%
%ADD14C,0.0160*%
%ADD15C,0.0436*%
%ADD16C,0.0100*%
D10*
X027000Y022500D03*
X028000Y022500D03*
X029000Y022500D03*
X028500Y024000D03*
X027500Y024000D03*
X026500Y024000D03*
X029500Y024000D03*
X030500Y024000D03*
X030500Y032000D03*
X029500Y032000D03*
X028500Y032000D03*
X027500Y032000D03*
X026500Y032000D03*
X027000Y033500D03*
X028000Y033500D03*
X029000Y033500D03*
D11*
X030000Y033500D03*
X030000Y022500D03*
D12*
X029700Y032800D02*
X028300Y032800D01*
X028000Y033100D01*
X028000Y033300D01*
X028000Y033500D01*
X029700Y032800D02*
X030000Y033100D01*
X030000Y033500D01*
D13*
X025600Y027700D03*
X025500Y027200D03*
D14*
X025600Y027700D02*
X025600Y029200D01*
X025600Y029400D01*
X025600Y029600D01*
X025600Y032200D01*
X026200Y032800D01*
X027500Y032800D01*
X028000Y033300D01*
D15*
X024900Y029400D03*
X024900Y028800D03*
D16*
X024900Y024100D02*
X026500Y022500D01*
X027000Y022500D01*
X026100Y023300D02*
X025500Y023900D01*
X025500Y027200D01*
X024900Y028800D02*
X024900Y024100D01*
X026100Y023300D02*
X028600Y023300D01*
X029000Y022900D01*
X029000Y022500D01*
X025600Y029200D02*
X025400Y029400D01*
X025600Y029600D01*
X025600Y029400D02*
X025400Y029400D01*
X024900Y029400D01*
M02*
