G75*
G70*
%OFA0B0*%
%FSLAX24Y24*%
%IPPOS*%
%LPD*%
%AMOC8*
5,1,8,0,0,1.08239X$1,22.5*
%
%ADD10C,0.0040*%
%ADD11R,0.0010X0.0240*%
%ADD12R,0.0010X0.0550*%
%ADD13R,0.0010X0.0710*%
%ADD14R,0.0010X0.0860*%
%ADD15R,0.0010X0.1010*%
%ADD16R,0.0010X0.0450*%
%ADD17R,0.0010X0.0340*%
%ADD18R,0.0010X0.0300*%
%ADD19R,0.0010X0.0310*%
%ADD20R,0.0010X0.0270*%
%ADD21R,0.0010X0.0250*%
%ADD22R,0.0010X0.0540*%
%ADD23R,0.0010X0.0210*%
%ADD24R,0.0010X0.0690*%
%ADD25R,0.0010X0.0170*%
%ADD26R,0.0010X0.0830*%
%ADD27R,0.0010X0.0180*%
%ADD28R,0.0010X0.0150*%
%ADD29R,0.0010X0.0970*%
%ADD30R,0.0010X0.0160*%
%ADD31R,0.0010X0.1100*%
%ADD32R,0.0010X0.1230*%
%ADD33R,0.0010X0.0140*%
%ADD34R,0.0010X0.1330*%
%ADD35R,0.0010X0.1390*%
%ADD36R,0.0010X0.0130*%
%ADD37R,0.0010X0.1470*%
%ADD38R,0.0010X0.0120*%
%ADD39R,0.0010X0.1560*%
%ADD40R,0.0010X0.0110*%
%ADD41R,0.0010X0.1610*%
%ADD42R,0.0010X0.0100*%
%ADD43R,0.0010X0.1670*%
%ADD44R,0.0010X0.1720*%
%ADD45R,0.0010X0.1770*%
%ADD46R,0.0010X0.0090*%
%ADD47R,0.0010X0.1810*%
%ADD48R,0.0010X0.0080*%
%ADD49R,0.0010X0.0260*%
%ADD50R,0.0010X0.0400*%
%ADD51R,0.0010X0.0230*%
%ADD52R,0.0010X0.0050*%
%ADD53R,0.0010X0.0070*%
%ADD54R,0.0010X0.0320*%
%ADD55R,0.0010X0.0010*%
%ADD56R,0.0010X0.0040*%
%ADD57R,0.0010X0.0330*%
%ADD58R,0.0010X0.0020*%
%ADD59R,0.0010X0.0200*%
%ADD60R,0.0010X0.0030*%
%ADD61R,0.0010X0.0410*%
%ADD62R,0.0010X0.0060*%
%ADD63R,0.0010X0.0420*%
%ADD64R,0.0010X0.0360*%
%ADD65R,0.0010X0.0370*%
%ADD66R,0.0010X0.0380*%
%ADD67R,0.0010X0.0430*%
%ADD68R,0.0010X0.0390*%
%ADD69R,0.0010X0.0440*%
%ADD70R,0.0010X0.0190*%
%ADD71R,0.0010X0.0560*%
%ADD72R,0.0010X0.0220*%
%ADD73R,0.0010X0.0460*%
%ADD74R,0.0010X0.0470*%
%ADD75R,0.0010X0.0490*%
%ADD76R,0.0010X0.0500*%
%ADD77R,0.0010X0.0510*%
%ADD78R,0.0010X0.0520*%
%ADD79R,0.0010X0.0530*%
%ADD80R,0.0010X0.0750*%
%ADD81R,0.0010X0.0740*%
%ADD82R,0.0010X0.0730*%
%ADD83R,0.0010X0.0840*%
%ADD84R,0.0010X0.0670*%
%ADD85R,0.0010X0.0650*%
%ADD86R,0.0010X0.0480*%
%ADD87R,0.0010X0.0620*%
%ADD88R,0.0010X0.0700*%
%ADD89R,0.0010X0.0610*%
%ADD90R,0.0010X0.0590*%
%ADD91R,0.0010X0.0580*%
%ADD92R,0.0010X0.1140*%
%ADD93R,0.0010X0.1130*%
%ADD94R,0.0010X0.1200*%
%ADD95R,0.0010X0.0780*%
%ADD96R,0.0010X0.0290*%
%ADD97R,0.0010X0.0640*%
%ADD98R,0.0010X0.0570*%
%ADD99R,0.0010X0.0280*%
%ADD100R,0.0010X0.0350*%
%ADD101R,0.0010X0.0850*%
%ADD102R,0.0010X0.0880*%
%ADD103R,0.0010X0.0900*%
%ADD104R,0.0010X0.1240*%
%ADD105R,0.0010X0.1110*%
%ADD106R,0.0010X0.0870*%
%ADD107R,0.0010X0.0720*%
%ADD108C,0.0030*%
%ADD109C,0.0100*%
%ADD110C,0.0080*%
%ADD111C,0.0060*%
%ADD112C,0.0020*%
%ADD113C,0.0160*%
%ADD114C,0.0250*%
%ADD115C,0.0059*%
D10*
X032523Y024280D02*
X032523Y024587D01*
X032830Y024280D01*
X032830Y024587D01*
X032830Y024741D02*
X032523Y024741D01*
X032523Y024971D01*
X032600Y025048D01*
X032830Y025048D01*
X032753Y025201D02*
X032600Y025201D01*
X032523Y025278D01*
X032523Y025431D01*
X032600Y025508D01*
X032677Y025508D01*
X032677Y025201D01*
X032753Y025201D02*
X032830Y025278D01*
X032830Y025431D01*
X032830Y025661D02*
X032830Y025815D01*
X032830Y025738D02*
X032370Y025738D01*
X032370Y025661D01*
X032600Y025968D02*
X032523Y026045D01*
X032523Y026275D01*
X032677Y026199D02*
X032677Y026045D01*
X032600Y025968D01*
X032830Y025968D02*
X032830Y026199D01*
X032753Y026275D01*
X032677Y026199D01*
X032753Y026429D02*
X032830Y026506D01*
X032830Y026659D01*
X032753Y026736D01*
X032600Y026736D01*
X032523Y026659D01*
X032523Y026506D01*
X032600Y026429D01*
X032753Y026429D01*
X033090Y026733D02*
X033550Y026733D01*
X033550Y026886D02*
X033550Y026579D01*
X033550Y026426D02*
X033550Y026349D01*
X033473Y026349D01*
X033473Y026426D01*
X033550Y026426D01*
X033473Y026196D02*
X033550Y026119D01*
X033550Y025965D01*
X033473Y025889D01*
X033397Y025889D01*
X033320Y025965D01*
X033320Y026119D01*
X033397Y026196D01*
X033473Y026196D01*
X033320Y026119D02*
X033243Y026196D01*
X033166Y026196D01*
X033090Y026119D01*
X033090Y025965D01*
X033166Y025889D01*
X033243Y025889D01*
X033320Y025965D01*
X033243Y025735D02*
X033166Y025735D01*
X033090Y025658D01*
X033090Y025505D01*
X033166Y025428D01*
X033243Y025735D02*
X033550Y025428D01*
X033550Y025735D01*
X033550Y025275D02*
X033550Y025198D01*
X033473Y025198D01*
X033473Y025275D01*
X033550Y025275D01*
X033473Y025045D02*
X033550Y024968D01*
X033550Y024814D01*
X033473Y024738D01*
X033320Y024891D02*
X033320Y024968D01*
X033397Y025045D01*
X033473Y025045D01*
X033320Y024968D02*
X033243Y025045D01*
X033166Y025045D01*
X033090Y024968D01*
X033090Y024814D01*
X033166Y024738D01*
X033243Y026579D02*
X033090Y026733D01*
X032830Y026889D02*
X032523Y026889D01*
X032523Y027119D01*
X032600Y027196D01*
X032830Y027196D01*
X032830Y027350D02*
X032830Y027657D01*
X032830Y027503D02*
X032370Y027503D01*
X032523Y027350D01*
X033090Y027270D02*
X033166Y027347D01*
X033243Y027347D01*
X033320Y027270D01*
X033397Y027347D01*
X033473Y027347D01*
X033550Y027270D01*
X033550Y027116D01*
X033473Y027040D01*
X033320Y027193D02*
X033320Y027270D01*
X033090Y027270D02*
X033090Y027116D01*
X033166Y027040D01*
D11*
X033010Y028565D03*
X033000Y028575D03*
X033450Y029075D03*
D12*
X033440Y029070D03*
X032590Y029070D03*
X032990Y029960D03*
X033000Y029960D03*
X033020Y029950D03*
D13*
X033430Y029070D03*
D14*
X033420Y029075D03*
D15*
X033410Y029070D03*
X032540Y029070D03*
D16*
X032770Y028300D03*
X033040Y028150D03*
X033400Y028730D03*
X033400Y029420D03*
X033080Y029970D03*
X032880Y029980D03*
X032690Y029650D03*
D17*
X033390Y029525D03*
X033390Y028625D03*
X033160Y028215D03*
X032670Y028505D03*
D18*
X032750Y028745D03*
X032740Y028755D03*
X033210Y028715D03*
X033380Y028565D03*
D19*
X033210Y028300D03*
X033200Y028280D03*
X033380Y029580D03*
D20*
X033370Y029640D03*
X033370Y028510D03*
D21*
X033360Y028450D03*
X033200Y028710D03*
X032500Y029070D03*
X033360Y029700D03*
D22*
X032980Y029965D03*
X032720Y029695D03*
X033360Y029075D03*
X032850Y028245D03*
X032960Y028175D03*
D23*
X033050Y028540D03*
X032980Y028600D03*
X032970Y028610D03*
X032960Y028610D03*
X033190Y028720D03*
X033350Y028400D03*
X032580Y028470D03*
X033180Y029270D03*
X033190Y029270D03*
X033350Y029750D03*
X032580Y029680D03*
D24*
X032760Y029710D03*
X032840Y029350D03*
X032850Y029350D03*
X032860Y029340D03*
X032870Y029340D03*
X032600Y029070D03*
X033350Y029070D03*
D25*
X033150Y029270D03*
X033140Y029270D03*
X032700Y029260D03*
X032610Y029800D03*
X033090Y028520D03*
X033340Y028350D03*
X032610Y028350D03*
D26*
X032610Y029070D03*
X033340Y029070D03*
D27*
X033160Y029265D03*
X033340Y029795D03*
D28*
X033320Y029870D03*
X033070Y029500D03*
X032630Y029870D03*
X032760Y029010D03*
X032920Y028880D03*
X032620Y028310D03*
X032630Y028280D03*
X032640Y028250D03*
X032650Y028220D03*
X033300Y028220D03*
X033310Y028250D03*
X033320Y028280D03*
X033330Y028310D03*
D29*
X033330Y029070D03*
X032620Y029070D03*
D30*
X033130Y029275D03*
X033330Y029835D03*
X032620Y029835D03*
D31*
X033320Y029075D03*
D32*
X033310Y029070D03*
D33*
X033210Y029005D03*
X033090Y028935D03*
X033080Y028945D03*
X033070Y028945D03*
X033060Y028945D03*
X032950Y028865D03*
X033100Y028515D03*
X033290Y028195D03*
X033280Y028175D03*
X033100Y029485D03*
X033080Y029495D03*
X033060Y029505D03*
X033050Y029505D03*
X033310Y029895D03*
X033300Y029925D03*
X032650Y029925D03*
X032640Y029895D03*
D34*
X032650Y029070D03*
X033300Y029070D03*
D35*
X033290Y029070D03*
D36*
X033200Y029020D03*
X033110Y028930D03*
X033100Y028930D03*
X033050Y028950D03*
X033040Y028960D03*
X033030Y028960D03*
X032960Y028850D03*
X033180Y028680D03*
X032950Y029420D03*
X033040Y029510D03*
X033090Y029490D03*
X033110Y029480D03*
X033290Y029950D03*
X033280Y029970D03*
X032660Y028190D03*
D37*
X033280Y029070D03*
D38*
X033120Y028925D03*
X033020Y028965D03*
X032970Y028835D03*
X033120Y028735D03*
X033170Y028685D03*
X033110Y028505D03*
X032800Y028645D03*
X032790Y028645D03*
X032780Y028645D03*
X032780Y028795D03*
X033040Y029325D03*
X033120Y029475D03*
X033030Y029515D03*
X033020Y029525D03*
X033270Y029995D03*
X033260Y030015D03*
X032660Y029955D03*
X033270Y028155D03*
D39*
X033270Y029075D03*
D40*
X033190Y029030D03*
X033180Y029040D03*
X033130Y028920D03*
X033060Y028770D03*
X033080Y028760D03*
X033090Y028750D03*
X033110Y028740D03*
X033130Y028730D03*
X033140Y028720D03*
X032980Y028830D03*
X032880Y028730D03*
X032810Y028780D03*
X032790Y028790D03*
X032810Y028640D03*
X032750Y029000D03*
X032950Y029090D03*
X033050Y029320D03*
X033130Y029470D03*
X033260Y028130D03*
X032670Y028160D03*
D41*
X033260Y029070D03*
D42*
X033140Y028915D03*
X033010Y028965D03*
X032990Y028815D03*
X033000Y028805D03*
X033020Y028795D03*
X033050Y028775D03*
X033070Y028765D03*
X033100Y028745D03*
X033150Y028705D03*
X033160Y028695D03*
X033120Y028505D03*
X032860Y028745D03*
X032850Y028755D03*
X032840Y028765D03*
X032830Y028775D03*
X032820Y028775D03*
X032800Y028785D03*
X033060Y029315D03*
X032960Y029415D03*
X033010Y029525D03*
X033210Y029505D03*
X032670Y029985D03*
X032680Y030005D03*
X032690Y030025D03*
X032700Y030045D03*
X032710Y030065D03*
X032720Y030085D03*
X032730Y030105D03*
X033240Y030055D03*
X033250Y030035D03*
X033250Y028105D03*
X033240Y028085D03*
X033230Y028065D03*
X032730Y028035D03*
X032720Y028055D03*
X032680Y028135D03*
D43*
X033250Y029070D03*
D44*
X033240Y029075D03*
D45*
X033230Y029070D03*
D46*
X033170Y029050D03*
X033160Y029060D03*
X033150Y029070D03*
X033140Y029070D03*
X033130Y029080D03*
X032960Y029090D03*
X033010Y028800D03*
X033030Y028790D03*
X033040Y028780D03*
X032870Y028740D03*
X032820Y028630D03*
X032690Y028120D03*
X032700Y028100D03*
X032710Y028080D03*
X032740Y028020D03*
X033210Y028030D03*
X033220Y028050D03*
X033140Y029460D03*
X033000Y029530D03*
X033230Y030080D03*
D47*
X033220Y029070D03*
D48*
X033120Y029085D03*
X033110Y029095D03*
X033100Y029105D03*
X033090Y029105D03*
X033080Y029115D03*
X033000Y028975D03*
X032870Y028885D03*
X032890Y028695D03*
X032830Y028625D03*
X033150Y028915D03*
X032970Y029415D03*
X033150Y029455D03*
X033100Y029665D03*
X033090Y029665D03*
X033080Y029675D03*
X033220Y030095D03*
X033210Y030115D03*
X033180Y030165D03*
X032750Y030145D03*
X032740Y030125D03*
X032750Y028005D03*
X033180Y027985D03*
X033190Y027995D03*
X033200Y028015D03*
D49*
X032560Y028585D03*
X032780Y029045D03*
X033210Y029285D03*
X032560Y029565D03*
D50*
X032850Y029975D03*
X033180Y029865D03*
X033190Y029845D03*
X033200Y029825D03*
X033210Y029805D03*
D51*
X033200Y029270D03*
X032570Y029620D03*
X032570Y028530D03*
X032990Y028590D03*
X033020Y028560D03*
D52*
X032910Y028650D03*
X032820Y028910D03*
X032810Y028920D03*
X032990Y029080D03*
X033020Y029150D03*
X033040Y029140D03*
X033110Y029230D03*
X033010Y029390D03*
X033000Y029400D03*
X033200Y029520D03*
X033080Y030270D03*
X033060Y030280D03*
X033040Y030290D03*
X033030Y030290D03*
X033010Y030300D03*
X033000Y030300D03*
X032990Y030300D03*
X032980Y030300D03*
X032970Y030300D03*
X032960Y030300D03*
X032950Y030300D03*
X032940Y030300D03*
X032920Y030290D03*
X032910Y030290D03*
X032890Y030280D03*
X032870Y030270D03*
X032870Y027880D03*
X032890Y027870D03*
X032910Y027860D03*
X032920Y027860D03*
X032940Y027850D03*
X032950Y027850D03*
X032990Y027850D03*
X033000Y027850D03*
X033010Y027850D03*
X033030Y027860D03*
X033040Y027860D03*
X033060Y027870D03*
X033080Y027880D03*
D53*
X033160Y027960D03*
X033170Y027970D03*
X032760Y027990D03*
X032860Y028890D03*
X032910Y028910D03*
X032970Y029090D03*
X033060Y029130D03*
X033070Y029120D03*
X033120Y029240D03*
X033070Y029310D03*
X032980Y029410D03*
X033110Y029650D03*
X033200Y030130D03*
X033190Y030150D03*
X033170Y030180D03*
X033160Y030190D03*
X032760Y030160D03*
X032740Y029000D03*
D54*
X032690Y029235D03*
X033190Y028265D03*
X033180Y028245D03*
D55*
X033160Y028810D03*
X032970Y029000D03*
X032960Y029000D03*
X033020Y029070D03*
X032980Y029250D03*
X033010Y029280D03*
X033190Y029530D03*
X032990Y029610D03*
X032980Y029610D03*
X032880Y028850D03*
D56*
X032860Y028965D03*
X032850Y028965D03*
X032840Y028965D03*
X032730Y028995D03*
X032690Y028795D03*
X032840Y028615D03*
X032930Y028725D03*
X033180Y028795D03*
X033130Y028495D03*
X032980Y027845D03*
X032970Y027845D03*
X032960Y027845D03*
X033010Y029165D03*
X033030Y029375D03*
X033020Y029385D03*
X032960Y029605D03*
X033150Y029625D03*
D57*
X033170Y028230D03*
D58*
X033170Y028805D03*
X033010Y029075D03*
X033090Y029225D03*
X033020Y029275D03*
X032970Y029255D03*
X033120Y029345D03*
X032820Y028975D03*
D59*
X033170Y029265D03*
X032590Y029725D03*
X033060Y028535D03*
X033070Y028535D03*
X032590Y028425D03*
D60*
X032830Y028970D03*
X032870Y028960D03*
X032950Y029000D03*
X032980Y028990D03*
X033000Y029080D03*
X033000Y029170D03*
X032960Y029260D03*
X033030Y029280D03*
X033080Y029310D03*
X033100Y029230D03*
X033170Y029450D03*
X033160Y029610D03*
X032970Y029610D03*
D61*
X033170Y029880D03*
X032740Y028340D03*
X033090Y028160D03*
D62*
X033150Y027945D03*
X033140Y027935D03*
X033130Y027925D03*
X033120Y027915D03*
X033110Y027905D03*
X033100Y027895D03*
X033090Y027885D03*
X033070Y027875D03*
X033050Y027865D03*
X033020Y027855D03*
X032930Y027855D03*
X032900Y027865D03*
X032880Y027875D03*
X032860Y027885D03*
X032850Y027895D03*
X032840Y027905D03*
X032830Y027915D03*
X032820Y027925D03*
X032810Y027935D03*
X032800Y027945D03*
X032790Y027955D03*
X032780Y027965D03*
X032770Y027975D03*
X032900Y028675D03*
X032940Y028705D03*
X032950Y028695D03*
X032850Y028895D03*
X032840Y028895D03*
X032830Y028905D03*
X032800Y028925D03*
X032990Y028985D03*
X032980Y029085D03*
X033030Y029145D03*
X033050Y029135D03*
X032950Y029255D03*
X032990Y029405D03*
X032990Y029535D03*
X032950Y029605D03*
X033120Y029645D03*
X033130Y029635D03*
X033140Y029635D03*
X033160Y029455D03*
X033160Y028915D03*
X033150Y030205D03*
X033140Y030215D03*
X033130Y030225D03*
X033120Y030235D03*
X033110Y030245D03*
X033100Y030255D03*
X033090Y030265D03*
X033070Y030275D03*
X033050Y030285D03*
X033020Y030295D03*
X032930Y030295D03*
X032900Y030285D03*
X032880Y030275D03*
X032860Y030265D03*
X032850Y030255D03*
X032840Y030245D03*
X032830Y030235D03*
X032820Y030225D03*
X032810Y030215D03*
X032800Y030205D03*
X032790Y030195D03*
X032780Y030185D03*
X032770Y030175D03*
D63*
X032860Y029975D03*
X033140Y029925D03*
X033150Y029905D03*
X033160Y029895D03*
X032750Y028325D03*
X033070Y028155D03*
X033080Y028155D03*
D64*
X033150Y028205D03*
X032710Y028395D03*
X032660Y028555D03*
X032550Y029465D03*
D65*
X032830Y029970D03*
X032550Y028680D03*
X033140Y028190D03*
D66*
X033130Y028185D03*
X033120Y028175D03*
X033110Y028175D03*
X032720Y028375D03*
X032940Y028985D03*
D67*
X032940Y029430D03*
X033130Y029930D03*
X033120Y029940D03*
X033110Y029950D03*
X032870Y029980D03*
X033060Y028150D03*
D68*
X033100Y028170D03*
X032730Y028360D03*
X032840Y029970D03*
D69*
X033090Y029965D03*
X033100Y029955D03*
X032760Y028315D03*
X033050Y028155D03*
D70*
X033080Y028530D03*
X032700Y028780D03*
X032600Y028390D03*
X032600Y029760D03*
D71*
X033010Y029955D03*
X033030Y029945D03*
X033040Y029935D03*
X033050Y029935D03*
X033060Y029925D03*
X033070Y029925D03*
X032860Y028235D03*
D72*
X033040Y028545D03*
X033030Y028555D03*
X032770Y029035D03*
D73*
X032780Y028285D03*
X033030Y028145D03*
X032890Y029975D03*
D74*
X032900Y029980D03*
X033020Y028150D03*
D75*
X033010Y028150D03*
X032800Y028270D03*
X032920Y029980D03*
D76*
X032930Y029975D03*
X033000Y028155D03*
D77*
X032990Y028160D03*
X032810Y028260D03*
X032710Y029680D03*
D78*
X032940Y029975D03*
X032950Y029975D03*
X032820Y028255D03*
X032980Y028165D03*
D79*
X032970Y028170D03*
X032840Y028250D03*
X032830Y028250D03*
X032960Y029970D03*
X032970Y029970D03*
D80*
X032920Y028290D03*
X032950Y028280D03*
D81*
X032940Y028275D03*
D82*
X032930Y028280D03*
X032770Y029710D03*
D83*
X032930Y029225D03*
D84*
X032920Y029320D03*
X032910Y029320D03*
D85*
X032910Y028250D03*
D86*
X032790Y028275D03*
X032700Y029665D03*
X032910Y029975D03*
D87*
X032900Y028245D03*
D88*
X032900Y029315D03*
X032890Y029315D03*
X032880Y029325D03*
X032830Y029355D03*
D89*
X032740Y029700D03*
X032890Y028240D03*
D90*
X032880Y028240D03*
D91*
X032870Y028235D03*
D92*
X032820Y029575D03*
D93*
X032810Y029570D03*
X032800Y029550D03*
D94*
X032790Y029505D03*
D95*
X032780Y029695D03*
D96*
X032730Y028770D03*
X032760Y028740D03*
X032770Y028730D03*
D97*
X032750Y029705D03*
D98*
X032730Y029700D03*
X032510Y029070D03*
D99*
X032710Y028805D03*
X032720Y028785D03*
D100*
X032680Y028470D03*
X032690Y028440D03*
X032700Y028410D03*
D101*
X032680Y029430D03*
D102*
X032670Y029375D03*
D103*
X032660Y029315D03*
D104*
X032640Y029075D03*
D105*
X032630Y029070D03*
D106*
X032530Y029070D03*
D107*
X032520Y029075D03*
D108*
X031572Y030015D02*
X031378Y030015D01*
X031475Y030015D02*
X031475Y030305D01*
X031378Y030208D01*
X031277Y030257D02*
X031277Y030305D01*
X031277Y030257D02*
X031180Y030160D01*
X031180Y030015D01*
X031180Y030160D02*
X031084Y030257D01*
X031084Y030305D01*
X030982Y030208D02*
X030982Y030015D01*
X030982Y030160D02*
X030789Y030160D01*
X030789Y030208D02*
X030886Y030305D01*
X030982Y030208D01*
X030789Y030208D02*
X030789Y030015D01*
X030688Y030015D02*
X030591Y030112D01*
X030639Y030112D02*
X030494Y030112D01*
X030494Y030015D02*
X030494Y030305D01*
X030639Y030305D01*
X030688Y030257D01*
X030688Y030160D01*
X030639Y030112D01*
X030393Y030160D02*
X030345Y030112D01*
X030200Y030112D01*
X030296Y030112D02*
X030393Y030015D01*
X030393Y030160D02*
X030393Y030257D01*
X030345Y030305D01*
X030200Y030305D01*
X030200Y030015D01*
X030098Y030015D02*
X030098Y030208D01*
X030002Y030305D01*
X029905Y030208D01*
X029905Y030015D01*
X029905Y030160D02*
X030098Y030160D01*
X029515Y029132D02*
X029515Y029084D01*
X029418Y029084D01*
X029370Y029132D01*
X029273Y029132D01*
X029225Y029084D01*
X029225Y028987D01*
X029273Y028939D01*
X029370Y028939D01*
X029418Y028987D01*
X029515Y028987D01*
X029515Y028939D01*
X029467Y028838D02*
X029515Y028789D01*
X029515Y028693D01*
X029467Y028644D01*
X029273Y028838D01*
X029467Y028838D01*
X029467Y028644D02*
X029273Y028644D01*
X029225Y028693D01*
X029225Y028789D01*
X029273Y028838D01*
X029273Y028543D02*
X029225Y028495D01*
X029225Y028398D01*
X029273Y028350D01*
X029273Y028248D02*
X029225Y028200D01*
X029225Y028103D01*
X029273Y028055D01*
X029273Y028248D02*
X029322Y028248D01*
X029515Y028055D01*
X029515Y028248D01*
X029515Y028350D02*
X029322Y028543D01*
X029273Y028543D01*
X029515Y028543D02*
X029515Y028350D01*
X029515Y026812D02*
X029515Y026764D01*
X029418Y026764D01*
X029370Y026812D01*
X029273Y026812D01*
X029225Y026764D01*
X029225Y026667D01*
X029273Y026619D01*
X029370Y026619D01*
X029418Y026667D01*
X029515Y026667D01*
X029515Y026619D01*
X029467Y026518D02*
X029515Y026469D01*
X029515Y026373D01*
X029467Y026324D01*
X029273Y026518D01*
X029467Y026518D01*
X029467Y026324D02*
X029273Y026324D01*
X029225Y026373D01*
X029225Y026469D01*
X029273Y026518D01*
X029273Y026223D02*
X029225Y026175D01*
X029225Y026078D01*
X029273Y026030D01*
X029273Y025928D02*
X029225Y025880D01*
X029225Y025783D01*
X029273Y025735D01*
X029273Y025928D02*
X029322Y025928D01*
X029515Y025735D01*
X029515Y025928D01*
X029515Y026030D02*
X029322Y026223D01*
X029273Y026223D01*
X029515Y026223D02*
X029515Y026030D01*
X030002Y025325D02*
X029905Y025228D01*
X029905Y025035D01*
X029905Y025180D02*
X030098Y025180D01*
X030098Y025228D02*
X030098Y025035D01*
X030200Y025035D02*
X030200Y025325D01*
X030345Y025325D01*
X030393Y025277D01*
X030393Y025180D01*
X030345Y025132D01*
X030200Y025132D01*
X030296Y025132D02*
X030393Y025035D01*
X030494Y025035D02*
X030494Y025325D01*
X030639Y025325D01*
X030688Y025277D01*
X030688Y025180D01*
X030639Y025132D01*
X030494Y025132D01*
X030591Y025132D02*
X030688Y025035D01*
X030789Y025035D02*
X030789Y025228D01*
X030886Y025325D01*
X030982Y025228D01*
X030982Y025035D01*
X030982Y025180D02*
X030789Y025180D01*
X031084Y025277D02*
X031180Y025180D01*
X031180Y025035D01*
X031180Y025180D02*
X031277Y025277D01*
X031277Y025325D01*
X031378Y025277D02*
X031427Y025325D01*
X031523Y025325D01*
X031572Y025277D01*
X031572Y025228D01*
X031378Y025035D01*
X031572Y025035D01*
X031084Y025277D02*
X031084Y025325D01*
X030098Y025228D02*
X030002Y025325D01*
X028344Y025575D02*
X028150Y025575D01*
X028247Y025575D02*
X028247Y025865D01*
X028150Y025768D01*
X028049Y025865D02*
X027855Y025865D01*
X027952Y025865D02*
X027952Y025575D01*
X027657Y025720D02*
X027561Y025720D01*
X027561Y025575D02*
X027561Y025865D01*
X027754Y025865D01*
X027461Y025865D02*
X027364Y025865D01*
X027413Y025865D02*
X027413Y025575D01*
X027461Y025575D02*
X027364Y025575D01*
X027263Y025575D02*
X027263Y025865D01*
X027263Y025720D02*
X027070Y025720D01*
X026968Y025672D02*
X026968Y025623D01*
X026920Y025575D01*
X026823Y025575D01*
X026775Y025623D01*
X026823Y025720D02*
X026920Y025720D01*
X026968Y025672D01*
X027070Y025575D02*
X027070Y025865D01*
X026968Y025817D02*
X026920Y025865D01*
X026823Y025865D01*
X026775Y025817D01*
X026775Y025768D01*
X026823Y025720D01*
X024315Y025641D02*
X023945Y025641D01*
X023945Y025888D01*
X023945Y026009D02*
X023945Y026256D01*
X023945Y026378D02*
X024315Y026378D01*
X024192Y026378D02*
X023945Y026625D01*
X023945Y026746D02*
X024315Y026993D01*
X023945Y026993D01*
X024006Y027114D02*
X024253Y027114D01*
X024315Y027176D01*
X024315Y027300D01*
X024253Y027361D01*
X024006Y027361D01*
X023945Y027300D01*
X023945Y027176D01*
X024006Y027114D01*
X023715Y027176D02*
X023715Y027361D01*
X023653Y027423D01*
X023592Y027423D01*
X023530Y027361D01*
X023530Y027176D01*
X023653Y027054D02*
X023715Y026993D01*
X023715Y026869D01*
X023653Y026807D01*
X023406Y026807D01*
X023345Y026869D01*
X023345Y026993D01*
X023406Y027054D01*
X023345Y027176D02*
X023345Y027361D01*
X023406Y027423D01*
X023468Y027423D01*
X023530Y027361D01*
X023715Y027176D02*
X023345Y027176D01*
X023406Y026686D02*
X023530Y026686D01*
X023592Y026624D01*
X023592Y026439D01*
X023715Y026439D02*
X023345Y026439D01*
X023345Y026624D01*
X023406Y026686D01*
X023777Y026318D02*
X023777Y026071D01*
X023653Y025949D02*
X023715Y025888D01*
X023715Y025703D01*
X023838Y025703D02*
X023468Y025703D01*
X023468Y025888D01*
X023530Y025949D01*
X023653Y025949D01*
X023945Y026133D02*
X024315Y026133D01*
X024130Y026439D02*
X024315Y026625D01*
X024315Y026746D02*
X023945Y026746D01*
X023945Y027483D02*
X023945Y027668D01*
X024006Y027730D01*
X024068Y027730D01*
X024130Y027668D01*
X024130Y027483D01*
X024130Y027668D02*
X024192Y027730D01*
X024253Y027730D01*
X024315Y027668D01*
X024315Y027483D01*
X023945Y027483D01*
X023913Y028575D02*
X024010Y028575D01*
X024058Y028623D01*
X024160Y028575D02*
X024353Y028575D01*
X024256Y028575D02*
X024256Y028865D01*
X024160Y028768D01*
X024058Y028817D02*
X024010Y028865D01*
X023913Y028865D01*
X023865Y028817D01*
X023865Y028623D01*
X023913Y028575D01*
X024425Y030255D02*
X024425Y030448D01*
X024473Y030448D01*
X024667Y030255D01*
X024715Y030255D01*
X024667Y030550D02*
X024715Y030598D01*
X024715Y030695D01*
X024667Y030743D01*
X024618Y030743D01*
X024570Y030695D01*
X024570Y030598D01*
X024522Y030550D01*
X024473Y030550D01*
X024425Y030598D01*
X024425Y030695D01*
X024473Y030743D01*
X024425Y030844D02*
X024715Y030844D01*
X024715Y031038D01*
X024667Y031139D02*
X024715Y031187D01*
X024715Y031284D01*
X024667Y031332D01*
X024570Y031332D01*
X024570Y031236D01*
X024473Y031332D02*
X024425Y031284D01*
X024425Y031187D01*
X024473Y031139D01*
X024667Y031139D01*
X024570Y030941D02*
X024570Y030844D01*
X024425Y030844D02*
X024425Y031038D01*
X024425Y031434D02*
X024522Y031530D01*
X024425Y031627D01*
X024715Y031627D01*
X024715Y031728D02*
X024715Y031922D01*
X024715Y032023D02*
X024425Y032023D01*
X024715Y032216D01*
X024425Y032216D01*
X024425Y032318D02*
X024425Y032511D01*
X024425Y032414D02*
X024715Y032414D01*
X024425Y031922D02*
X024425Y031728D01*
X024715Y031728D01*
X024570Y031728D02*
X024570Y031825D01*
X024715Y031434D02*
X024425Y031434D01*
X024130Y025765D02*
X024130Y025641D01*
X024315Y025519D02*
X024315Y025396D01*
X024315Y025457D02*
X023945Y025457D01*
X023945Y025396D02*
X023945Y025519D01*
X023715Y025519D02*
X023653Y025581D01*
X023530Y025581D01*
X023468Y025519D01*
X023468Y025396D01*
X023530Y025334D01*
X023653Y025334D01*
X023715Y025396D01*
X023715Y025519D01*
X023945Y025274D02*
X024315Y025274D01*
X024130Y025274D02*
X024130Y025027D01*
X024192Y024906D02*
X024253Y024906D01*
X024315Y024844D01*
X024315Y024721D01*
X024253Y024659D01*
X024130Y024721D02*
X024068Y024659D01*
X024006Y024659D01*
X023945Y024721D01*
X023945Y024844D01*
X024006Y024906D01*
X023945Y025027D02*
X024315Y025027D01*
X024192Y024906D02*
X024130Y024844D01*
X024130Y024721D01*
X023715Y025089D02*
X023345Y025089D01*
X023345Y024966D02*
X023345Y025213D01*
D109*
X024957Y023079D02*
X031453Y023079D01*
X032043Y023669D01*
X032043Y032921D01*
X024957Y032921D01*
X024957Y023079D01*
D110*
X026500Y022250D02*
X026750Y022000D01*
X027250Y022000D01*
X027500Y022250D01*
X027750Y022000D01*
X028250Y022000D01*
X028500Y022250D01*
X028750Y022000D01*
X029250Y022000D01*
X029500Y022250D01*
X029750Y022000D01*
X030250Y022000D01*
X030500Y022250D01*
X030500Y022750D01*
X030250Y023000D01*
X029750Y023000D01*
X029500Y022750D01*
X029250Y023000D01*
X028750Y023000D01*
X028500Y022750D01*
X028250Y023000D01*
X027750Y023000D01*
X027500Y022750D01*
X027250Y023000D01*
X026750Y023000D01*
X026500Y022750D01*
X026500Y022250D01*
X029692Y025461D02*
X029692Y027539D01*
X031708Y027539D01*
X031708Y025461D01*
X029692Y025461D01*
X031020Y024850D02*
X031022Y024880D01*
X031028Y024910D01*
X031037Y024939D01*
X031050Y024966D01*
X031067Y024991D01*
X031086Y025014D01*
X031109Y025035D01*
X031134Y025052D01*
X031160Y025066D01*
X031189Y025076D01*
X031218Y025083D01*
X031248Y025086D01*
X031279Y025085D01*
X031309Y025080D01*
X031338Y025071D01*
X031365Y025059D01*
X031391Y025044D01*
X031415Y025025D01*
X031436Y025003D01*
X031454Y024979D01*
X031469Y024952D01*
X031480Y024924D01*
X031488Y024895D01*
X031492Y024865D01*
X031492Y024835D01*
X031488Y024805D01*
X031480Y024776D01*
X031469Y024748D01*
X031454Y024721D01*
X031436Y024697D01*
X031415Y024675D01*
X031391Y024656D01*
X031365Y024641D01*
X031338Y024629D01*
X031309Y024620D01*
X031279Y024615D01*
X031248Y024614D01*
X031218Y024617D01*
X031189Y024624D01*
X031160Y024634D01*
X031134Y024648D01*
X031109Y024665D01*
X031086Y024686D01*
X031067Y024709D01*
X031050Y024734D01*
X031037Y024761D01*
X031028Y024790D01*
X031022Y024820D01*
X031020Y024850D01*
X031708Y027761D02*
X029692Y027761D01*
X029692Y029839D01*
X031708Y029839D01*
X031708Y027761D01*
X030250Y033000D02*
X029750Y033000D01*
X029500Y033250D01*
X029250Y033000D01*
X028750Y033000D01*
X028500Y033250D01*
X028250Y033000D01*
X027750Y033000D01*
X027500Y033250D01*
X027250Y033000D01*
X026750Y033000D01*
X026500Y033250D01*
X026500Y033750D01*
X026750Y034000D01*
X027250Y034000D01*
X027500Y033750D01*
X027750Y034000D01*
X028250Y034000D01*
X028500Y033750D01*
X028750Y034000D01*
X029250Y034000D01*
X029500Y033750D01*
X029750Y034000D01*
X030250Y034000D01*
X030500Y033750D01*
X030500Y033250D01*
X030250Y033000D01*
D111*
X028120Y030000D02*
X026880Y030000D01*
X026857Y029998D01*
X026834Y029993D01*
X026812Y029984D01*
X026792Y029971D01*
X026774Y029956D01*
X026759Y029938D01*
X026746Y029918D01*
X026737Y029896D01*
X026732Y029873D01*
X026730Y029850D01*
X028120Y030000D02*
X028143Y029998D01*
X028166Y029993D01*
X028188Y029984D01*
X028208Y029971D01*
X028226Y029956D01*
X028241Y029938D01*
X028254Y029918D01*
X028263Y029896D01*
X028268Y029873D01*
X028270Y029850D01*
X028270Y026150D02*
X028268Y026127D01*
X028263Y026104D01*
X028254Y026082D01*
X028241Y026062D01*
X028226Y026044D01*
X028208Y026029D01*
X028188Y026016D01*
X028166Y026007D01*
X028143Y026002D01*
X028120Y026000D01*
X027700Y026000D01*
X027300Y026000D01*
X026880Y026000D01*
X026857Y026002D01*
X026834Y026007D01*
X026812Y026016D01*
X026792Y026029D01*
X026774Y026044D01*
X026759Y026062D01*
X026746Y026082D01*
X026737Y026104D01*
X026732Y026127D01*
X026730Y026150D01*
X027300Y026000D02*
X027302Y026027D01*
X027307Y026054D01*
X027317Y026080D01*
X027329Y026104D01*
X027345Y026126D01*
X027363Y026146D01*
X027385Y026163D01*
X027408Y026178D01*
X027433Y026188D01*
X027459Y026196D01*
X027486Y026200D01*
X027514Y026200D01*
X027541Y026196D01*
X027567Y026188D01*
X027592Y026178D01*
X027615Y026163D01*
X027637Y026146D01*
X027655Y026126D01*
X027671Y026104D01*
X027683Y026080D01*
X027693Y026054D01*
X027698Y026027D01*
X027700Y026000D01*
D112*
X028130Y026000D02*
X028130Y030000D01*
D113*
X024400Y028212D02*
X024400Y028188D01*
D114*
X030512Y027250D03*
X030512Y029550D03*
D115*
X032555Y030806D02*
X032676Y030955D01*
X032645Y031015D01*
X032624Y031079D01*
X032434Y031098D01*
X032434Y031242D01*
X032624Y031261D01*
X032645Y031325D01*
X032676Y031385D01*
X032555Y031534D01*
X032656Y031635D01*
X032805Y031514D01*
X032865Y031545D01*
X032929Y031566D01*
X032948Y031756D01*
X033092Y031756D01*
X033111Y031566D01*
X033175Y031545D01*
X033235Y031514D01*
X033384Y031635D01*
X033485Y031534D01*
X033364Y031385D01*
X033395Y031325D01*
X033191Y031241D01*
X033169Y031279D01*
X033139Y031311D01*
X033102Y031335D01*
X033060Y031350D01*
X033016Y031354D01*
X032972Y031348D01*
X032931Y031332D01*
X032895Y031306D01*
X032867Y031272D01*
X032847Y031233D01*
X032837Y031190D01*
X032837Y031146D01*
X032848Y031103D01*
X032869Y031064D01*
X032898Y031031D01*
X032935Y031006D01*
X032976Y030991D01*
X033020Y030985D01*
X033063Y030991D01*
X033104Y031006D01*
X033140Y031030D01*
X033169Y031062D01*
X033191Y031099D01*
X033395Y031015D01*
X033364Y030955D01*
X033485Y030806D01*
X033384Y030705D01*
X033235Y030826D01*
X033175Y030795D01*
X033111Y030774D01*
X033092Y030584D01*
X032948Y030584D01*
X032929Y030774D01*
X032865Y030795D01*
X032805Y030826D01*
X032656Y030705D01*
X032555Y030806D01*
X032580Y030781D02*
X032750Y030781D01*
X032679Y030723D02*
X032638Y030723D01*
X032581Y030838D02*
X033459Y030838D01*
X033460Y030781D02*
X033290Y030781D01*
X033361Y030723D02*
X033402Y030723D01*
X033412Y030896D02*
X032628Y030896D01*
X032675Y030954D02*
X033365Y030954D01*
X033393Y031011D02*
X033112Y031011D01*
X033173Y031069D02*
X033265Y031069D01*
X033192Y031241D02*
X033190Y031241D01*
X033150Y031299D02*
X033331Y031299D01*
X033379Y031356D02*
X032661Y031356D01*
X032652Y031414D02*
X033388Y031414D01*
X033435Y031472D02*
X032605Y031472D01*
X032558Y031529D02*
X032787Y031529D01*
X032833Y031529D02*
X033207Y031529D01*
X033253Y031529D02*
X033482Y031529D01*
X033432Y031587D02*
X033324Y031587D01*
X033109Y031587D02*
X032931Y031587D01*
X032937Y031644D02*
X033103Y031644D01*
X033098Y031702D02*
X032943Y031702D01*
X032716Y031587D02*
X032608Y031587D01*
X032636Y031299D02*
X032889Y031299D01*
X032851Y031241D02*
X032434Y031241D01*
X032434Y031184D02*
X032837Y031184D01*
X032842Y031126D02*
X032434Y031126D01*
X032628Y031069D02*
X032866Y031069D01*
X032928Y031011D02*
X032647Y031011D01*
X032908Y030781D02*
X033132Y030781D01*
X033106Y030723D02*
X032934Y030723D01*
X032940Y030666D02*
X033100Y030666D01*
X033094Y030608D02*
X032946Y030608D01*
M02*
