G75*
G70*
%OFA0B0*%
%FSLAX24Y24*%
%IPPOS*%
%LPD*%
%AMOC8*
5,1,8,0,0,1.08239X$1,22.5*
%
%ADD10C,0.0030*%
%ADD11C,0.0060*%
%ADD12R,0.0010X0.0240*%
%ADD13R,0.0010X0.0550*%
%ADD14R,0.0010X0.0710*%
%ADD15R,0.0010X0.0860*%
%ADD16R,0.0010X0.1010*%
%ADD17R,0.0010X0.0450*%
%ADD18R,0.0010X0.0340*%
%ADD19R,0.0010X0.0300*%
%ADD20R,0.0010X0.0310*%
%ADD21R,0.0010X0.0270*%
%ADD22R,0.0010X0.0250*%
%ADD23R,0.0010X0.0540*%
%ADD24R,0.0010X0.0210*%
%ADD25R,0.0010X0.0690*%
%ADD26R,0.0010X0.0170*%
%ADD27R,0.0010X0.0830*%
%ADD28R,0.0010X0.0180*%
%ADD29R,0.0010X0.0150*%
%ADD30R,0.0010X0.0970*%
%ADD31R,0.0010X0.0160*%
%ADD32R,0.0010X0.1100*%
%ADD33R,0.0010X0.1230*%
%ADD34R,0.0010X0.0140*%
%ADD35R,0.0010X0.1330*%
%ADD36R,0.0010X0.1390*%
%ADD37R,0.0010X0.0130*%
%ADD38R,0.0010X0.1470*%
%ADD39R,0.0010X0.0120*%
%ADD40R,0.0010X0.1560*%
%ADD41R,0.0010X0.0110*%
%ADD42R,0.0010X0.1610*%
%ADD43R,0.0010X0.0100*%
%ADD44R,0.0010X0.1670*%
%ADD45R,0.0010X0.1720*%
%ADD46R,0.0010X0.1770*%
%ADD47R,0.0010X0.0090*%
%ADD48R,0.0010X0.1810*%
%ADD49R,0.0010X0.0080*%
%ADD50R,0.0010X0.0260*%
%ADD51R,0.0010X0.0400*%
%ADD52R,0.0010X0.0230*%
%ADD53R,0.0010X0.0050*%
%ADD54R,0.0010X0.0070*%
%ADD55R,0.0010X0.0320*%
%ADD56R,0.0010X0.0010*%
%ADD57R,0.0010X0.0040*%
%ADD58R,0.0010X0.0330*%
%ADD59R,0.0010X0.0020*%
%ADD60R,0.0010X0.0200*%
%ADD61R,0.0010X0.0030*%
%ADD62R,0.0010X0.0410*%
%ADD63R,0.0010X0.0060*%
%ADD64R,0.0010X0.0420*%
%ADD65R,0.0010X0.0360*%
%ADD66R,0.0010X0.0370*%
%ADD67R,0.0010X0.0380*%
%ADD68R,0.0010X0.0430*%
%ADD69R,0.0010X0.0390*%
%ADD70R,0.0010X0.0440*%
%ADD71R,0.0010X0.0190*%
%ADD72R,0.0010X0.0560*%
%ADD73R,0.0010X0.0220*%
%ADD74R,0.0010X0.0460*%
%ADD75R,0.0010X0.0470*%
%ADD76R,0.0010X0.0490*%
%ADD77R,0.0010X0.0500*%
%ADD78R,0.0010X0.0510*%
%ADD79R,0.0010X0.0520*%
%ADD80R,0.0010X0.0530*%
%ADD81R,0.0010X0.0750*%
%ADD82R,0.0010X0.0740*%
%ADD83R,0.0010X0.0730*%
%ADD84R,0.0010X0.0840*%
%ADD85R,0.0010X0.0670*%
%ADD86R,0.0010X0.0650*%
%ADD87R,0.0010X0.0480*%
%ADD88R,0.0010X0.0620*%
%ADD89R,0.0010X0.0700*%
%ADD90R,0.0010X0.0610*%
%ADD91R,0.0010X0.0590*%
%ADD92R,0.0010X0.0580*%
%ADD93R,0.0010X0.1140*%
%ADD94R,0.0010X0.1130*%
%ADD95R,0.0010X0.1200*%
%ADD96R,0.0010X0.0780*%
%ADD97R,0.0010X0.0290*%
%ADD98R,0.0010X0.0640*%
%ADD99R,0.0010X0.0570*%
%ADD100R,0.0010X0.0280*%
%ADD101R,0.0010X0.0350*%
%ADD102R,0.0010X0.0850*%
%ADD103R,0.0010X0.0880*%
%ADD104R,0.0010X0.0900*%
%ADD105R,0.0010X0.1240*%
%ADD106R,0.0010X0.1110*%
%ADD107R,0.0010X0.0870*%
%ADD108R,0.0010X0.0720*%
%ADD109C,0.0059*%
D10*
X026586Y023095D02*
X026731Y023240D01*
X026780Y023192D02*
X026586Y023385D01*
X026780Y023385D02*
X026780Y023095D01*
X026881Y023143D02*
X026929Y023095D01*
X027026Y023095D01*
X027074Y023143D01*
X027074Y023337D01*
X027026Y023385D01*
X026929Y023385D01*
X026881Y023337D01*
X027175Y023337D02*
X027224Y023385D01*
X027321Y023385D01*
X027369Y023337D01*
X027369Y023288D01*
X027321Y023240D01*
X027224Y023240D01*
X027175Y023192D01*
X027175Y023143D01*
X027224Y023095D01*
X027321Y023095D01*
X027369Y023143D01*
X027586Y023095D02*
X027731Y023240D01*
X027780Y023192D02*
X027586Y023385D01*
X027780Y023385D02*
X027780Y023095D01*
X027881Y023143D02*
X027929Y023095D01*
X028026Y023095D01*
X028074Y023143D01*
X028074Y023337D01*
X028026Y023385D01*
X027929Y023385D01*
X027881Y023337D01*
X028175Y023337D02*
X028224Y023385D01*
X028369Y023385D01*
X028369Y023095D01*
X028369Y023192D02*
X028224Y023192D01*
X028175Y023240D01*
X028175Y023337D01*
X028272Y023192D02*
X028175Y023095D01*
X028586Y023095D02*
X028683Y023192D01*
X028635Y023192D02*
X028780Y023192D01*
X028780Y023095D02*
X028780Y023385D01*
X028635Y023385D01*
X028586Y023337D01*
X028586Y023240D01*
X028635Y023192D01*
X028881Y023095D02*
X029074Y023095D01*
X029074Y023385D01*
X028881Y023385D01*
X028978Y023240D02*
X029074Y023240D01*
X029175Y023192D02*
X029175Y023143D01*
X029224Y023095D01*
X029321Y023095D01*
X029369Y023143D01*
X029321Y023240D02*
X029369Y023288D01*
X029369Y023337D01*
X029321Y023385D01*
X029224Y023385D01*
X029175Y023337D01*
X029224Y023240D02*
X029175Y023192D01*
X029224Y023240D02*
X029321Y023240D01*
X029586Y023143D02*
X029586Y023337D01*
X029635Y023385D01*
X029780Y023385D01*
X029780Y023095D01*
X029635Y023095D01*
X029586Y023143D01*
X029881Y023095D02*
X029881Y023385D01*
X030074Y023385D02*
X029881Y023095D01*
X030074Y023095D02*
X030074Y023385D01*
X030175Y023337D02*
X030224Y023385D01*
X030321Y023385D01*
X030369Y023337D01*
X030369Y023143D01*
X030321Y023095D01*
X030224Y023095D01*
X030175Y023143D01*
X030175Y023240D01*
X030272Y023240D01*
X030324Y032595D02*
X030275Y032643D01*
X030275Y032740D01*
X030372Y032740D01*
X030275Y032837D02*
X030324Y032885D01*
X030421Y032885D01*
X030469Y032837D01*
X030469Y032643D01*
X030421Y032595D01*
X030324Y032595D01*
X030174Y032595D02*
X030174Y032885D01*
X029981Y032595D01*
X029981Y032885D01*
X029880Y032885D02*
X029880Y032595D01*
X029735Y032595D01*
X029686Y032643D01*
X029686Y032837D01*
X029735Y032885D01*
X029880Y032885D01*
X029271Y032885D02*
X029174Y032885D01*
X029222Y032885D02*
X029222Y032595D01*
X029174Y032595D02*
X029271Y032595D01*
X029074Y032595D02*
X029074Y032885D01*
X028881Y032595D01*
X028881Y032885D01*
X028780Y032740D02*
X028586Y032740D01*
X028683Y032837D02*
X028683Y032643D01*
X028369Y032643D02*
X028321Y032595D01*
X028224Y032595D01*
X028175Y032643D01*
X028175Y032740D01*
X028272Y032740D01*
X028175Y032837D02*
X028224Y032885D01*
X028321Y032885D01*
X028369Y032837D01*
X028369Y032643D01*
X028074Y032595D02*
X028074Y032885D01*
X027881Y032595D01*
X027881Y032885D01*
X027780Y032885D02*
X027635Y032885D01*
X027586Y032837D01*
X027586Y032643D01*
X027635Y032595D01*
X027780Y032595D01*
X027780Y032885D01*
X027369Y032885D02*
X027369Y032692D01*
X027272Y032595D01*
X027175Y032692D01*
X027175Y032885D01*
X027074Y032837D02*
X027074Y032643D01*
X027026Y032595D01*
X026929Y032595D01*
X026881Y032643D01*
X026780Y032643D02*
X026780Y032837D01*
X026731Y032885D01*
X026635Y032885D01*
X026586Y032837D01*
X026586Y032643D02*
X026635Y032595D01*
X026731Y032595D01*
X026780Y032643D01*
X026881Y032837D02*
X026929Y032885D01*
X027026Y032885D01*
X027074Y032837D01*
D11*
X027910Y030412D02*
X027910Y029985D01*
X027910Y030199D02*
X028551Y030199D01*
X028337Y029985D01*
X028230Y029768D02*
X027910Y029768D01*
X028230Y029768D02*
X028337Y029661D01*
X028337Y029341D01*
X027910Y029341D01*
X028017Y029123D02*
X028230Y029123D01*
X028337Y029017D01*
X028337Y028803D01*
X028230Y028696D01*
X028017Y028696D01*
X027910Y028803D01*
X027910Y029017D01*
X028017Y029123D01*
X027301Y028864D02*
X026660Y028864D01*
X026660Y028651D02*
X026660Y029078D01*
X026767Y029295D02*
X026660Y029402D01*
X026660Y029616D01*
X026767Y029722D01*
X026874Y029722D01*
X026980Y029616D01*
X026980Y029509D01*
X026980Y029616D02*
X027087Y029722D01*
X027194Y029722D01*
X027301Y029616D01*
X027301Y029402D01*
X027194Y029295D01*
X027301Y028864D02*
X027087Y028651D01*
X026767Y028435D02*
X026660Y028435D01*
X026660Y028329D01*
X026767Y028329D01*
X026767Y028435D01*
X026767Y028111D02*
X026660Y028004D01*
X026660Y027791D01*
X026767Y027684D01*
X026874Y027684D01*
X026980Y027791D01*
X026980Y028004D01*
X026874Y028111D01*
X026767Y028111D01*
X026980Y028004D02*
X027087Y028111D01*
X027194Y028111D01*
X027301Y028004D01*
X027301Y027791D01*
X027194Y027684D01*
X027087Y027684D01*
X026980Y027791D01*
X027087Y027467D02*
X027194Y027467D01*
X027301Y027360D01*
X027301Y027146D01*
X027194Y027040D01*
X027087Y027467D02*
X026660Y027040D01*
X026660Y027467D01*
X026660Y026824D02*
X026660Y026717D01*
X026767Y026717D01*
X026767Y026824D01*
X026660Y026824D01*
X026767Y026500D02*
X026660Y026393D01*
X026660Y026179D01*
X026767Y026073D01*
X026980Y026286D02*
X026980Y026393D01*
X026874Y026500D01*
X026767Y026500D01*
X026980Y026393D02*
X027087Y026500D01*
X027194Y026500D01*
X027301Y026393D01*
X027301Y026179D01*
X027194Y026073D01*
X027910Y026115D02*
X027910Y025688D01*
X028337Y026115D01*
X028337Y025688D01*
X028337Y026333D02*
X027910Y026333D01*
X027910Y026760D02*
X028230Y026760D01*
X028337Y026653D01*
X028337Y026333D01*
X028230Y026978D02*
X028017Y026978D01*
X027910Y027084D01*
X027910Y027298D01*
X028124Y027405D02*
X028124Y026978D01*
X028230Y026978D02*
X028337Y027084D01*
X028337Y027298D01*
X028230Y027405D01*
X028124Y027405D01*
X027910Y027622D02*
X027910Y027836D01*
X027910Y027729D02*
X028551Y027729D01*
X028551Y027622D01*
X028230Y028052D02*
X028337Y028159D01*
X028337Y028479D01*
X028124Y028372D02*
X028124Y028159D01*
X028230Y028052D01*
X027910Y028052D02*
X027910Y028372D01*
X028017Y028479D01*
X028124Y028372D01*
D12*
X028940Y027455D03*
X029390Y026955D03*
X029380Y026945D03*
D13*
X029800Y027450D03*
X028950Y027450D03*
X029370Y028330D03*
X029390Y028340D03*
X029400Y028340D03*
D14*
X028960Y027450D03*
D15*
X028970Y027455D03*
D16*
X028980Y027450D03*
X029850Y027450D03*
D17*
X029700Y028030D03*
X029510Y028360D03*
X029310Y028350D03*
X028990Y027800D03*
X028990Y027110D03*
X029350Y026530D03*
X029620Y026680D03*
D18*
X029720Y026885D03*
X029230Y026595D03*
X029000Y027005D03*
X029000Y027905D03*
D19*
X029180Y027095D03*
X029010Y026945D03*
X029640Y027125D03*
X029650Y027135D03*
D20*
X029180Y026680D03*
X029190Y026660D03*
X029010Y027960D03*
D21*
X029020Y028020D03*
X029020Y026890D03*
D22*
X029030Y026830D03*
X029190Y027090D03*
X029890Y027450D03*
X029030Y028080D03*
D23*
X029410Y028345D03*
X029670Y028075D03*
X029030Y027455D03*
X029540Y026625D03*
X029430Y026555D03*
D24*
X029340Y026920D03*
X029410Y026980D03*
X029420Y026990D03*
X029430Y026990D03*
X029200Y027100D03*
X029040Y026780D03*
X029810Y026850D03*
X029210Y027650D03*
X029200Y027650D03*
X029040Y028130D03*
X029810Y028060D03*
D25*
X029630Y028090D03*
X029550Y027730D03*
X029540Y027730D03*
X029530Y027720D03*
X029520Y027720D03*
X029790Y027450D03*
X029040Y027450D03*
D26*
X029240Y027650D03*
X029250Y027650D03*
X029690Y027640D03*
X029780Y028180D03*
X029300Y026900D03*
X029050Y026730D03*
X029780Y026730D03*
D27*
X029780Y027450D03*
X029050Y027450D03*
D28*
X029230Y027645D03*
X029050Y028175D03*
D29*
X029070Y028250D03*
X029320Y027880D03*
X029760Y028250D03*
X029630Y027390D03*
X029470Y027260D03*
X029770Y026690D03*
X029760Y026660D03*
X029750Y026630D03*
X029740Y026600D03*
X029090Y026600D03*
X029080Y026630D03*
X029070Y026660D03*
X029060Y026690D03*
D30*
X029060Y027450D03*
X029770Y027450D03*
D31*
X029260Y027655D03*
X029060Y028215D03*
X029770Y028215D03*
D32*
X029070Y027455D03*
D33*
X029080Y027450D03*
D34*
X029180Y027385D03*
X029300Y027315D03*
X029310Y027325D03*
X029320Y027325D03*
X029330Y027325D03*
X029440Y027245D03*
X029290Y026895D03*
X029100Y026575D03*
X029110Y026555D03*
X029290Y027865D03*
X029310Y027875D03*
X029330Y027885D03*
X029340Y027885D03*
X029080Y028275D03*
X029090Y028305D03*
X029740Y028305D03*
X029750Y028275D03*
D35*
X029740Y027450D03*
X029090Y027450D03*
D36*
X029100Y027450D03*
D37*
X029190Y027400D03*
X029280Y027310D03*
X029290Y027310D03*
X029340Y027330D03*
X029350Y027340D03*
X029360Y027340D03*
X029430Y027230D03*
X029210Y027060D03*
X029730Y026570D03*
X029440Y027800D03*
X029350Y027890D03*
X029300Y027870D03*
X029280Y027860D03*
X029100Y028330D03*
X029110Y028350D03*
D38*
X029110Y027450D03*
D39*
X029270Y027305D03*
X029370Y027345D03*
X029420Y027215D03*
X029270Y027115D03*
X029220Y027065D03*
X029280Y026885D03*
X029590Y027025D03*
X029600Y027025D03*
X029610Y027025D03*
X029610Y027175D03*
X029350Y027705D03*
X029270Y027855D03*
X029360Y027895D03*
X029370Y027905D03*
X029120Y028375D03*
X029130Y028395D03*
X029730Y028335D03*
X029120Y026535D03*
D40*
X029120Y027455D03*
D41*
X029200Y027410D03*
X029210Y027420D03*
X029260Y027300D03*
X029330Y027150D03*
X029310Y027140D03*
X029300Y027130D03*
X029280Y027120D03*
X029260Y027110D03*
X029250Y027100D03*
X029410Y027210D03*
X029510Y027110D03*
X029580Y027160D03*
X029600Y027170D03*
X029580Y027020D03*
X029640Y027380D03*
X029440Y027470D03*
X029340Y027700D03*
X029260Y027850D03*
X029130Y026510D03*
X029720Y026540D03*
D42*
X029130Y027450D03*
D43*
X029250Y027295D03*
X029380Y027345D03*
X029400Y027195D03*
X029390Y027185D03*
X029370Y027175D03*
X029340Y027155D03*
X029320Y027145D03*
X029290Y027125D03*
X029240Y027085D03*
X029230Y027075D03*
X029270Y026885D03*
X029530Y027125D03*
X029540Y027135D03*
X029550Y027145D03*
X029560Y027155D03*
X029570Y027155D03*
X029590Y027165D03*
X029330Y027695D03*
X029430Y027795D03*
X029380Y027905D03*
X029180Y027885D03*
X029140Y028415D03*
X029150Y028435D03*
X029660Y028485D03*
X029670Y028465D03*
X029680Y028445D03*
X029690Y028425D03*
X029700Y028405D03*
X029710Y028385D03*
X029720Y028365D03*
X029710Y026515D03*
X029670Y026435D03*
X029660Y026415D03*
X029160Y026445D03*
X029150Y026465D03*
X029140Y026485D03*
D44*
X029140Y027450D03*
D45*
X029150Y027455D03*
D46*
X029160Y027450D03*
D47*
X029220Y027430D03*
X029230Y027440D03*
X029240Y027450D03*
X029250Y027450D03*
X029260Y027460D03*
X029430Y027470D03*
X029380Y027180D03*
X029360Y027170D03*
X029350Y027160D03*
X029520Y027120D03*
X029570Y027010D03*
X029700Y026500D03*
X029690Y026480D03*
X029680Y026460D03*
X029650Y026400D03*
X029180Y026410D03*
X029170Y026430D03*
X029250Y027840D03*
X029390Y027910D03*
X029160Y028460D03*
D48*
X029170Y027450D03*
D49*
X029270Y027465D03*
X029280Y027475D03*
X029290Y027485D03*
X029300Y027485D03*
X029310Y027495D03*
X029390Y027355D03*
X029520Y027265D03*
X029500Y027075D03*
X029560Y027005D03*
X029240Y027295D03*
X029420Y027795D03*
X029240Y027835D03*
X029290Y028045D03*
X029300Y028045D03*
X029310Y028055D03*
X029170Y028475D03*
X029180Y028495D03*
X029210Y028545D03*
X029640Y028525D03*
X029650Y028505D03*
X029640Y026385D03*
X029210Y026365D03*
X029200Y026375D03*
X029190Y026395D03*
D50*
X029830Y026965D03*
X029610Y027425D03*
X029180Y027665D03*
X029830Y027945D03*
D51*
X029540Y028355D03*
X029210Y028245D03*
X029200Y028225D03*
X029190Y028205D03*
X029180Y028185D03*
D52*
X029190Y027650D03*
X029400Y026970D03*
X029370Y026940D03*
X029820Y026910D03*
X029820Y028000D03*
D53*
X029390Y027780D03*
X029380Y027770D03*
X029280Y027610D03*
X029350Y027520D03*
X029370Y027530D03*
X029400Y027460D03*
X029570Y027290D03*
X029580Y027300D03*
X029480Y027030D03*
X029520Y026260D03*
X029500Y026250D03*
X029480Y026240D03*
X029470Y026240D03*
X029450Y026230D03*
X029440Y026230D03*
X029400Y026230D03*
X029390Y026230D03*
X029380Y026230D03*
X029360Y026240D03*
X029350Y026240D03*
X029330Y026250D03*
X029310Y026260D03*
X029190Y027900D03*
X029310Y028650D03*
X029330Y028660D03*
X029350Y028670D03*
X029360Y028670D03*
X029380Y028680D03*
X029390Y028680D03*
X029400Y028680D03*
X029410Y028680D03*
X029420Y028680D03*
X029430Y028680D03*
X029440Y028680D03*
X029450Y028680D03*
X029470Y028670D03*
X029480Y028670D03*
X029500Y028660D03*
X029520Y028650D03*
D54*
X029630Y028540D03*
X029230Y028570D03*
X029220Y028560D03*
X029200Y028530D03*
X029190Y028510D03*
X029280Y028030D03*
X029410Y027790D03*
X029320Y027690D03*
X029270Y027620D03*
X029330Y027510D03*
X029320Y027500D03*
X029420Y027470D03*
X029480Y027290D03*
X029530Y027270D03*
X029650Y027380D03*
X029630Y026370D03*
X029230Y026340D03*
X029220Y026350D03*
D55*
X029210Y026625D03*
X029200Y026645D03*
X029700Y027615D03*
D56*
X029410Y027630D03*
X029380Y027660D03*
X029370Y027450D03*
X029420Y027380D03*
X029430Y027380D03*
X029510Y027230D03*
X029230Y027190D03*
X029200Y027910D03*
X029400Y027990D03*
X029410Y027990D03*
D57*
X029430Y027985D03*
X029240Y028005D03*
X029370Y027765D03*
X029360Y027755D03*
X029380Y027545D03*
X029530Y027345D03*
X029540Y027345D03*
X029550Y027345D03*
X029660Y027375D03*
X029700Y027175D03*
X029550Y026995D03*
X029460Y027105D03*
X029210Y027175D03*
X029260Y026875D03*
X029410Y026225D03*
X029420Y026225D03*
X029430Y026225D03*
D58*
X029220Y026610D03*
D59*
X029220Y027185D03*
X029380Y027455D03*
X029300Y027605D03*
X029370Y027655D03*
X029420Y027635D03*
X029270Y027725D03*
X029570Y027355D03*
D60*
X029220Y027645D03*
X029320Y026915D03*
X029330Y026915D03*
X029800Y026805D03*
X029800Y028105D03*
D61*
X029420Y027990D03*
X029230Y027990D03*
X029220Y027830D03*
X029310Y027690D03*
X029360Y027660D03*
X029430Y027640D03*
X029390Y027550D03*
X029390Y027460D03*
X029410Y027370D03*
X029440Y027380D03*
X029520Y027340D03*
X029560Y027350D03*
X029290Y027610D03*
D62*
X029220Y028260D03*
X029650Y026720D03*
X029300Y026540D03*
D63*
X029240Y026325D03*
X029250Y026315D03*
X029260Y026305D03*
X029270Y026295D03*
X029280Y026285D03*
X029290Y026275D03*
X029300Y026265D03*
X029320Y026255D03*
X029340Y026245D03*
X029370Y026235D03*
X029460Y026235D03*
X029490Y026245D03*
X029510Y026255D03*
X029530Y026265D03*
X029540Y026275D03*
X029550Y026285D03*
X029560Y026295D03*
X029570Y026305D03*
X029580Y026315D03*
X029590Y026325D03*
X029600Y026335D03*
X029610Y026345D03*
X029620Y026355D03*
X029490Y027055D03*
X029450Y027085D03*
X029440Y027075D03*
X029540Y027275D03*
X029550Y027275D03*
X029560Y027285D03*
X029590Y027305D03*
X029400Y027365D03*
X029410Y027465D03*
X029360Y027525D03*
X029340Y027515D03*
X029440Y027635D03*
X029400Y027785D03*
X029400Y027915D03*
X029440Y027985D03*
X029270Y028025D03*
X029260Y028015D03*
X029250Y028015D03*
X029230Y027835D03*
X029240Y028585D03*
X029250Y028595D03*
X029260Y028605D03*
X029270Y028615D03*
X029280Y028625D03*
X029290Y028635D03*
X029300Y028645D03*
X029320Y028655D03*
X029340Y028665D03*
X029370Y028675D03*
X029460Y028675D03*
X029490Y028665D03*
X029510Y028655D03*
X029530Y028645D03*
X029540Y028635D03*
X029550Y028625D03*
X029560Y028615D03*
X029570Y028605D03*
X029580Y028595D03*
X029590Y028585D03*
X029600Y028575D03*
X029610Y028565D03*
X029620Y028555D03*
X029230Y027295D03*
D64*
X029640Y026705D03*
X029320Y026535D03*
X029310Y026535D03*
X029230Y028275D03*
X029240Y028285D03*
X029250Y028305D03*
X029530Y028355D03*
D65*
X029840Y027845D03*
X029730Y026935D03*
X029680Y026775D03*
X029240Y026585D03*
D66*
X029250Y026570D03*
X029840Y027060D03*
X029560Y028350D03*
D67*
X029450Y027365D03*
X029670Y026755D03*
X029280Y026555D03*
X029270Y026555D03*
X029260Y026565D03*
D68*
X029330Y026530D03*
X029450Y027810D03*
X029260Y028310D03*
X029270Y028320D03*
X029280Y028330D03*
X029520Y028360D03*
D69*
X029550Y028350D03*
X029660Y026740D03*
X029290Y026550D03*
D70*
X029340Y026535D03*
X029630Y026695D03*
X029290Y028335D03*
X029300Y028345D03*
D71*
X029790Y028140D03*
X029690Y027160D03*
X029790Y026770D03*
X029310Y026910D03*
D72*
X029530Y026615D03*
X029330Y028305D03*
X029320Y028305D03*
X029340Y028315D03*
X029350Y028315D03*
X029360Y028325D03*
X029380Y028335D03*
D73*
X029620Y027415D03*
X029360Y026935D03*
X029350Y026925D03*
D74*
X029610Y026665D03*
X029360Y026525D03*
X029500Y028355D03*
D75*
X029490Y028360D03*
X029370Y026530D03*
D76*
X029380Y026530D03*
X029590Y026650D03*
X029470Y028360D03*
D77*
X029460Y028355D03*
X029390Y026535D03*
D78*
X029400Y026540D03*
X029580Y026640D03*
X029680Y028060D03*
D79*
X029450Y028355D03*
X029440Y028355D03*
X029570Y026635D03*
X029410Y026545D03*
D80*
X029420Y026550D03*
X029550Y026630D03*
X029560Y026630D03*
X029430Y028350D03*
X029420Y028350D03*
D81*
X029470Y026670D03*
X029440Y026660D03*
D82*
X029450Y026655D03*
D83*
X029460Y026660D03*
X029620Y028090D03*
D84*
X029460Y027605D03*
D85*
X029470Y027700D03*
X029480Y027700D03*
D86*
X029480Y026630D03*
D87*
X029600Y026655D03*
X029690Y028045D03*
X029480Y028355D03*
D88*
X029490Y026625D03*
D89*
X029490Y027695D03*
X029500Y027695D03*
X029510Y027705D03*
X029560Y027735D03*
D90*
X029650Y028080D03*
X029500Y026620D03*
D91*
X029510Y026620D03*
D92*
X029520Y026615D03*
D93*
X029570Y027955D03*
D94*
X029580Y027950D03*
X029590Y027930D03*
D95*
X029600Y027885D03*
D96*
X029610Y028075D03*
D97*
X029660Y027150D03*
X029630Y027120D03*
X029620Y027110D03*
D98*
X029640Y028085D03*
D99*
X029660Y028080D03*
X029880Y027450D03*
D100*
X029680Y027185D03*
X029670Y027165D03*
D101*
X029710Y026850D03*
X029700Y026820D03*
X029690Y026790D03*
D102*
X029710Y027810D03*
D103*
X029720Y027755D03*
D104*
X029730Y027695D03*
D105*
X029750Y027455D03*
D106*
X029760Y027450D03*
D107*
X029860Y027450D03*
D108*
X029870Y027455D03*
D109*
X029492Y029014D02*
X029348Y029014D01*
X029329Y029204D01*
X029265Y029225D01*
X029205Y029256D01*
X029056Y029135D01*
X028955Y029236D01*
X029076Y029385D01*
X029045Y029445D01*
X029249Y029529D01*
X029271Y029492D01*
X029300Y029460D01*
X029336Y029436D01*
X029377Y029421D01*
X029420Y029415D01*
X029464Y029421D01*
X029505Y029436D01*
X029542Y029461D01*
X029571Y029494D01*
X029592Y029533D01*
X029603Y029576D01*
X029603Y029620D01*
X029593Y029663D01*
X029573Y029702D01*
X029545Y029736D01*
X029509Y029762D01*
X029468Y029778D01*
X029424Y029784D01*
X029380Y029780D01*
X029338Y029765D01*
X029301Y029741D01*
X029271Y029709D01*
X029249Y029671D01*
X029045Y029755D01*
X029076Y029815D01*
X028955Y029964D01*
X029056Y030065D01*
X029205Y029944D01*
X029265Y029975D01*
X029329Y029996D01*
X029348Y030186D01*
X029492Y030186D01*
X029511Y029996D01*
X029575Y029975D01*
X029635Y029944D01*
X029784Y030065D01*
X029885Y029964D01*
X029764Y029815D01*
X029795Y029755D01*
X029816Y029691D01*
X030006Y029672D01*
X030006Y029528D01*
X029816Y029509D01*
X029795Y029445D01*
X029764Y029385D01*
X029885Y029236D01*
X029784Y029135D01*
X029635Y029256D01*
X029575Y029225D01*
X029511Y029204D01*
X029492Y029014D01*
X029496Y029054D02*
X029344Y029054D01*
X029338Y029112D02*
X029502Y029112D01*
X029508Y029169D02*
X029332Y029169D01*
X029261Y029227D02*
X029579Y029227D01*
X029670Y029227D02*
X029876Y029227D01*
X029846Y029284D02*
X028994Y029284D01*
X028964Y029227D02*
X029170Y029227D01*
X029099Y029169D02*
X029022Y029169D01*
X029041Y029342D02*
X029799Y029342D01*
X029772Y029400D02*
X029068Y029400D01*
X029075Y029457D02*
X029304Y029457D01*
X029258Y029515D02*
X029214Y029515D01*
X029209Y029687D02*
X029259Y029687D01*
X029307Y029745D02*
X029070Y029745D01*
X029069Y029802D02*
X029771Y029802D01*
X029798Y029745D02*
X029532Y029745D01*
X029581Y029687D02*
X029855Y029687D01*
X030006Y029630D02*
X029601Y029630D01*
X029602Y029572D02*
X030006Y029572D01*
X029874Y029515D02*
X029582Y029515D01*
X029536Y029457D02*
X029799Y029457D01*
X029818Y029169D02*
X029741Y029169D01*
X029801Y029860D02*
X029039Y029860D01*
X028992Y029918D02*
X029848Y029918D01*
X029874Y029975D02*
X029673Y029975D01*
X029743Y030033D02*
X029816Y030033D01*
X029575Y029975D02*
X029265Y029975D01*
X029332Y030033D02*
X029508Y030033D01*
X029502Y030090D02*
X029338Y030090D01*
X029344Y030148D02*
X029496Y030148D01*
X029167Y029975D02*
X028966Y029975D01*
X029024Y030033D02*
X029097Y030033D01*
M02*
