%
M48
M72
T01C0.0200
T02C0.0236
T03C0.0394
T04C0.0400
T05C0.1000
%
T01
X25500Y27200
X25600Y27700
T02
X24900Y28800
X24900Y29400
T03
X26500Y32000
X27500Y32000
X28500Y32000
X29500Y32000
X30500Y32000
X30500Y24000
X29500Y24000
X28500Y24000
X27500Y24000
X26500Y24000
T04
X27000Y22500
X28000Y22500
X29000Y22500
X30000Y22500
X30000Y33500
X29000Y33500
X28000Y33500
X27000Y33500
T05
X22890Y28000
X34110Y28000
M30
