G75*
G70*
%OFA0B0*%
%FSLAX24Y24*%
%IPPOS*%
%LPD*%
%AMOC8*
5,1,8,0,0,1.08239X$1,22.5*
%
%ADD10C,0.0800*%
%ADD11R,0.0414X0.0336*%
%ADD12R,0.0360X0.0660*%
%ADD13R,0.0336X0.0414*%
%ADD14R,0.0336X0.0729*%
%ADD15R,0.0560X0.0280*%
%ADD16R,0.0280X0.0560*%
%ADD17R,0.0336X0.0532*%
%ADD18R,0.2186X0.2501*%
%ADD19R,0.0454X0.0690*%
%ADD20R,0.0690X0.0611*%
%ADD21R,0.0375X0.0375*%
%ADD22R,0.0375X0.0532*%
%ADD23R,0.0375X0.0414*%
%ADD24R,0.0611X0.0611*%
%ADD25R,0.0414X0.0375*%
%ADD26C,0.0417*%
%ADD27C,0.0456*%
D10*
X003069Y006768D03*
X003069Y007768D03*
X003069Y008768D03*
X003069Y009768D03*
X003069Y010768D03*
X003069Y011768D03*
X012844Y010993D03*
X012844Y009993D03*
X012844Y008993D03*
X012844Y007993D03*
X012844Y006993D03*
X012844Y005993D03*
D11*
X010619Y009112D03*
X010619Y009623D03*
X009669Y009712D03*
X009169Y009712D03*
X009169Y010223D03*
X009669Y010223D03*
X003869Y007423D03*
X003869Y006912D03*
D12*
X006843Y007542D03*
X008343Y007542D03*
X008343Y009542D03*
X006843Y009542D03*
D13*
G36*
X006127Y010052D02*
X006365Y009814D01*
X006073Y009522D01*
X005835Y009760D01*
X006127Y010052D01*
G37*
G36*
X005765Y010413D02*
X006003Y010175D01*
X005711Y009883D01*
X005473Y010121D01*
X005765Y010413D01*
G37*
G36*
X009903Y012160D02*
X009665Y011922D01*
X009373Y012214D01*
X009611Y012452D01*
X009903Y012160D01*
G37*
G36*
X010265Y012521D02*
X010027Y012283D01*
X009735Y012575D01*
X009973Y012813D01*
X010265Y012521D01*
G37*
X011213Y011768D03*
X011725Y011768D03*
D14*
G36*
X009293Y014080D02*
X008969Y014167D01*
X009157Y014870D01*
X009481Y014783D01*
X009293Y014080D01*
G37*
G36*
X008837Y014203D02*
X008513Y014290D01*
X008701Y014993D01*
X009025Y014906D01*
X008837Y014203D01*
G37*
G36*
X008381Y014325D02*
X008057Y014412D01*
X008245Y015115D01*
X008569Y015028D01*
X008381Y014325D01*
G37*
D15*
G36*
X007534Y013749D02*
X007928Y014143D01*
X008126Y013945D01*
X007732Y013551D01*
X007534Y013749D01*
G37*
G36*
X007311Y013971D02*
X007705Y014365D01*
X007903Y014167D01*
X007509Y013773D01*
X007311Y013971D01*
G37*
G36*
X007089Y014194D02*
X007483Y014588D01*
X007681Y014390D01*
X007287Y013996D01*
X007089Y014194D01*
G37*
G36*
X007757Y013526D02*
X008151Y013920D01*
X008349Y013722D01*
X007955Y013328D01*
X007757Y013526D01*
G37*
G36*
X007979Y013303D02*
X008373Y013697D01*
X008571Y013499D01*
X008177Y013105D01*
X007979Y013303D01*
G37*
G36*
X008202Y013080D02*
X008596Y013474D01*
X008794Y013276D01*
X008400Y012882D01*
X008202Y013080D01*
G37*
G36*
X008425Y012858D02*
X008819Y013252D01*
X009017Y013054D01*
X008623Y012660D01*
X008425Y012858D01*
G37*
G36*
X008648Y012635D02*
X009042Y013029D01*
X009240Y012831D01*
X008846Y012437D01*
X008648Y012635D01*
G37*
G36*
X006257Y010245D02*
X006651Y010639D01*
X006849Y010441D01*
X006455Y010047D01*
X006257Y010245D01*
G37*
G36*
X006035Y010468D02*
X006429Y010862D01*
X006627Y010664D01*
X006233Y010270D01*
X006035Y010468D01*
G37*
G36*
X005812Y010690D02*
X006206Y011084D01*
X006404Y010886D01*
X006010Y010492D01*
X005812Y010690D01*
G37*
G36*
X005589Y010913D02*
X005983Y011307D01*
X006181Y011109D01*
X005787Y010715D01*
X005589Y010913D01*
G37*
G36*
X005367Y011136D02*
X005761Y011530D01*
X005959Y011332D01*
X005565Y010938D01*
X005367Y011136D01*
G37*
G36*
X005144Y011359D02*
X005538Y011753D01*
X005736Y011555D01*
X005342Y011161D01*
X005144Y011359D01*
G37*
G36*
X004921Y011581D02*
X005315Y011975D01*
X005513Y011777D01*
X005119Y011383D01*
X004921Y011581D01*
G37*
G36*
X004699Y011804D02*
X005093Y012198D01*
X005291Y012000D01*
X004897Y011606D01*
X004699Y011804D01*
G37*
D16*
G36*
X004699Y012831D02*
X004897Y013029D01*
X005291Y012635D01*
X005093Y012437D01*
X004699Y012831D01*
G37*
G36*
X004921Y013054D02*
X005119Y013252D01*
X005513Y012858D01*
X005315Y012660D01*
X004921Y013054D01*
G37*
G36*
X005144Y013276D02*
X005342Y013474D01*
X005736Y013080D01*
X005538Y012882D01*
X005144Y013276D01*
G37*
G36*
X005367Y013499D02*
X005565Y013697D01*
X005959Y013303D01*
X005761Y013105D01*
X005367Y013499D01*
G37*
G36*
X005589Y013722D02*
X005787Y013920D01*
X006181Y013526D01*
X005983Y013328D01*
X005589Y013722D01*
G37*
G36*
X005812Y013945D02*
X006010Y014143D01*
X006404Y013749D01*
X006206Y013551D01*
X005812Y013945D01*
G37*
G36*
X006035Y014167D02*
X006233Y014365D01*
X006627Y013971D01*
X006429Y013773D01*
X006035Y014167D01*
G37*
G36*
X006257Y014390D02*
X006455Y014588D01*
X006849Y014194D01*
X006651Y013996D01*
X006257Y014390D01*
G37*
G36*
X008425Y011777D02*
X008623Y011975D01*
X009017Y011581D01*
X008819Y011383D01*
X008425Y011777D01*
G37*
G36*
X008202Y011555D02*
X008400Y011753D01*
X008794Y011359D01*
X008596Y011161D01*
X008202Y011555D01*
G37*
G36*
X007979Y011332D02*
X008177Y011530D01*
X008571Y011136D01*
X008373Y010938D01*
X007979Y011332D01*
G37*
G36*
X007757Y011109D02*
X007955Y011307D01*
X008349Y010913D01*
X008151Y010715D01*
X007757Y011109D01*
G37*
G36*
X007534Y010886D02*
X007732Y011084D01*
X008126Y010690D01*
X007928Y010492D01*
X007534Y010886D01*
G37*
G36*
X007311Y010664D02*
X007509Y010862D01*
X007903Y010468D01*
X007705Y010270D01*
X007311Y010664D01*
G37*
G36*
X007089Y010441D02*
X007287Y010639D01*
X007681Y010245D01*
X007483Y010047D01*
X007089Y010441D01*
G37*
G36*
X008648Y012000D02*
X008846Y012198D01*
X009240Y011804D01*
X009042Y011606D01*
X008648Y012000D01*
G37*
D17*
G36*
X009456Y013612D02*
X009624Y013902D01*
X010084Y013636D01*
X009916Y013346D01*
X009456Y013612D01*
G37*
G36*
X009731Y014089D02*
X009899Y014379D01*
X010359Y014113D01*
X010191Y013823D01*
X009731Y014089D01*
G37*
G36*
X010479Y013022D02*
X010647Y013312D01*
X011107Y013046D01*
X010939Y012756D01*
X010479Y013022D01*
G37*
G36*
X010754Y013499D02*
X010922Y013789D01*
X011382Y013523D01*
X011214Y013233D01*
X010754Y013499D01*
G37*
G36*
X010747Y003823D02*
X010579Y004113D01*
X011039Y004379D01*
X011207Y004089D01*
X010747Y003823D01*
G37*
G36*
X011022Y003346D02*
X010854Y003636D01*
X011314Y003902D01*
X011482Y003612D01*
X011022Y003346D01*
G37*
G36*
X009999Y002756D02*
X009831Y003046D01*
X010291Y003312D01*
X010459Y003022D01*
X009999Y002756D01*
G37*
G36*
X009724Y003233D02*
X009556Y003523D01*
X010016Y003789D01*
X010184Y003499D01*
X009724Y003233D01*
G37*
X002095Y007977D03*
X001543Y007977D03*
X001543Y009158D03*
X002095Y009158D03*
D18*
X011019Y006033D03*
D19*
X010121Y008907D03*
X011917Y008907D03*
D20*
X011769Y009766D03*
X011769Y010869D03*
X009169Y008819D03*
X009169Y007716D03*
D21*
X010669Y010322D03*
X010669Y010913D03*
D22*
X009223Y006168D03*
X009223Y005468D03*
X008515Y005468D03*
X008515Y006168D03*
X007173Y006168D03*
X007173Y005468D03*
X007173Y004768D03*
X006465Y004768D03*
X006465Y005468D03*
X006465Y006168D03*
X005473Y005868D03*
X005473Y005168D03*
X005473Y004468D03*
X004765Y004468D03*
X004765Y005168D03*
X004765Y005868D03*
X008515Y004768D03*
X009223Y004768D03*
D23*
X009193Y003761D03*
X008445Y003761D03*
X008819Y002934D03*
G36*
X003647Y012425D02*
X003911Y012689D01*
X004203Y012397D01*
X003939Y012133D01*
X003647Y012425D01*
G37*
G36*
X002798Y012745D02*
X003062Y013009D01*
X003354Y012717D01*
X003090Y012453D01*
X002798Y012745D01*
G37*
G36*
X003327Y013274D02*
X003591Y013538D01*
X003883Y013246D01*
X003619Y012982D01*
X003327Y013274D01*
G37*
D24*
X004849Y003286D03*
X006345Y003286D03*
D25*
X004725Y006493D03*
X004725Y007242D03*
X004725Y007793D03*
X004725Y008542D03*
X004725Y009093D03*
X004725Y009842D03*
X005552Y009468D03*
X005552Y008168D03*
X005552Y006868D03*
D26*
X003619Y005018D03*
X004069Y005518D03*
X004319Y005168D03*
X004369Y005868D03*
X004219Y006418D03*
X005079Y006858D03*
X004219Y008168D03*
X004269Y009868D03*
X004419Y010368D03*
X005119Y010643D03*
X004719Y011118D03*
X006169Y012268D03*
X006519Y011818D03*
X006919Y011418D03*
X006019Y012718D03*
X006869Y013418D03*
X007219Y013668D03*
X007369Y012968D03*
X008459Y014008D03*
X009169Y013718D03*
X009419Y012618D03*
X010419Y013518D03*
X011319Y012568D03*
X010519Y012318D03*
X010619Y011468D03*
X009919Y011218D03*
X009819Y010768D03*
X009219Y010868D03*
X007269Y009518D03*
X007269Y009118D03*
X007319Y008618D03*
X007219Y008018D03*
X006819Y008168D03*
X006429Y007648D03*
X007269Y007368D03*
X007929Y007368D03*
X008619Y006818D03*
X007719Y006518D03*
X007589Y006058D03*
X007169Y006648D03*
X007609Y005368D03*
X007169Y004118D03*
X008119Y003018D03*
X010289Y003778D03*
X010579Y003368D03*
X010519Y004518D03*
X006119Y009318D03*
X004469Y013168D03*
X004819Y013518D03*
X005269Y013818D03*
X001919Y010068D03*
X001619Y009718D03*
X001919Y007468D03*
X001769Y006568D03*
X005459Y003338D03*
X005739Y003688D03*
X005379Y002788D03*
D27*
X010113Y007852D03*
X011023Y007922D03*
M02*
