G75*
G70*
%OFA0B0*%
%FSLAX24Y24*%
%IPPOS*%
%LPD*%
%AMOC8*
5,1,8,0,0,1.08239X$1,22.5*
%
%ADD10C,0.0800*%
%ADD11R,0.0454X0.1871*%
%ADD12R,0.0690X0.1399*%
%ADD13R,0.1871X0.0454*%
%ADD14R,0.1399X0.0690*%
%ADD15R,0.0611X0.0611*%
%ADD16C,0.0417*%
%ADD17C,0.0456*%
D10*
X003059Y005809D03*
X003059Y006809D03*
X003059Y007809D03*
X003059Y008809D03*
X003059Y009809D03*
X003059Y010809D03*
X012834Y010034D03*
X012834Y009034D03*
X012834Y008034D03*
X012834Y007034D03*
X012834Y006034D03*
X012834Y005034D03*
D11*
X011001Y008234D03*
X010213Y008234D03*
D12*
X009268Y006186D03*
X011946Y006186D03*
D13*
X008446Y003673D03*
X008446Y002885D03*
D14*
X006398Y001940D03*
X006398Y004618D03*
D15*
G36*
X011561Y002940D02*
X011130Y002509D01*
X010699Y002940D01*
X011130Y003371D01*
X011561Y002940D01*
G37*
G36*
X012619Y003998D02*
X012188Y003567D01*
X011757Y003998D01*
X012188Y004429D01*
X012619Y003998D01*
G37*
D16*
X003479Y002659D03*
X003939Y002789D03*
X003549Y003139D03*
X004309Y004209D03*
X004059Y004559D03*
X004319Y004929D03*
X005069Y005899D03*
X004209Y007209D03*
X004259Y008909D03*
X004409Y009409D03*
X005109Y009684D03*
X004709Y010159D03*
X006159Y011309D03*
X006009Y011759D03*
X006509Y010859D03*
X006909Y010459D03*
X007359Y012009D03*
X006859Y012459D03*
X007209Y012709D03*
X008449Y013049D03*
X009159Y012759D03*
X009409Y011659D03*
X010409Y012559D03*
X011309Y011609D03*
X010509Y011359D03*
X010609Y010509D03*
X009909Y010259D03*
X009809Y009809D03*
X009209Y009909D03*
X007259Y008559D03*
X007259Y008159D03*
X007309Y007659D03*
X007209Y007059D03*
X006809Y007209D03*
X007259Y006409D03*
X007159Y005699D03*
X007709Y005559D03*
X007579Y005099D03*
X007599Y004409D03*
X007243Y003133D03*
X006543Y003123D03*
X008609Y005859D03*
X007919Y006409D03*
X006109Y008359D03*
X004459Y012209D03*
X004809Y012559D03*
X005259Y012859D03*
X001909Y009109D03*
X001589Y008759D03*
X001909Y006509D03*
X001759Y005609D03*
X010279Y002819D03*
X010569Y002409D03*
X010509Y003559D03*
D17*
X009623Y003253D03*
X007713Y002323D03*
X005603Y002693D03*
X010103Y006893D03*
X011013Y006963D03*
M02*
