%
M48
M72
T01C0.0197
T02C0.0236
T03C0.0400
%
T01
X3619Y4069
X4069Y4569
X4319Y4219
X4369Y4919
X4219Y5469
X5079Y5909
X4219Y7219
X4269Y8919
X4419Y9419
X5119Y9694
X4719Y10169
X6169Y11319
X6019Y11769
X6519Y10869
X6919Y10469
X7369Y12019
X6869Y12469
X7219Y12719
X8459Y13059
X9169Y12769
X9419Y11669
X10419Y12569
X11319Y11619
X10519Y11369
X10619Y10519
X9919Y10269
X9819Y9819
X9219Y9919
X7269Y8569
X7269Y8169
X7319Y7669
X7219Y7069
X6819Y7219
X6429Y6699
X7269Y6419
X7169Y5699
X7719Y5569
X7589Y5109
X7609Y4419
X7169Y3169
X8119Y2069
X10289Y2829
X10579Y2419
X10519Y3569
X8619Y5869
X7929Y6419
X6119Y8369
X4469Y12219
X4819Y12569
X5269Y12869
X1919Y9119
X1619Y8769
X1919Y6519
X1769Y5619
X5459Y2389
X5739Y2739
X5379Y1839
T02
X10113Y6903
X11023Y6973
T03
X12844Y7044
X12844Y6044
X12844Y5044
X12844Y8044
X12844Y9044
X12844Y10044
X3069Y9819
X3069Y8819
X3069Y7819
X3069Y6819
X3069Y5819
X3069Y10819
M30
