G75*
G70*
%OFA0B0*%
%FSLAX24Y24*%
%IPPOS*%
%LPD*%
%AMOC8*
5,1,8,0,0,1.08239X$1,22.5*
%
%ADD10C,0.0060*%
%ADD11R,0.0010X0.0240*%
%ADD12R,0.0010X0.0550*%
%ADD13R,0.0010X0.0710*%
%ADD14R,0.0010X0.0860*%
%ADD15R,0.0010X0.1010*%
%ADD16R,0.0010X0.0450*%
%ADD17R,0.0010X0.0340*%
%ADD18R,0.0010X0.0300*%
%ADD19R,0.0010X0.0310*%
%ADD20R,0.0010X0.0270*%
%ADD21R,0.0010X0.0250*%
%ADD22R,0.0010X0.0540*%
%ADD23R,0.0010X0.0210*%
%ADD24R,0.0010X0.0690*%
%ADD25R,0.0010X0.0170*%
%ADD26R,0.0010X0.0830*%
%ADD27R,0.0010X0.0180*%
%ADD28R,0.0010X0.0150*%
%ADD29R,0.0010X0.0970*%
%ADD30R,0.0010X0.0160*%
%ADD31R,0.0010X0.1100*%
%ADD32R,0.0010X0.1230*%
%ADD33R,0.0010X0.0140*%
%ADD34R,0.0010X0.1330*%
%ADD35R,0.0010X0.1390*%
%ADD36R,0.0010X0.0130*%
%ADD37R,0.0010X0.1470*%
%ADD38R,0.0010X0.0120*%
%ADD39R,0.0010X0.1560*%
%ADD40R,0.0010X0.0110*%
%ADD41R,0.0010X0.1610*%
%ADD42R,0.0010X0.0100*%
%ADD43R,0.0010X0.1670*%
%ADD44R,0.0010X0.1720*%
%ADD45R,0.0010X0.1770*%
%ADD46R,0.0010X0.0090*%
%ADD47R,0.0010X0.1810*%
%ADD48R,0.0010X0.0080*%
%ADD49R,0.0010X0.0260*%
%ADD50R,0.0010X0.0400*%
%ADD51R,0.0010X0.0230*%
%ADD52R,0.0010X0.0050*%
%ADD53R,0.0010X0.0070*%
%ADD54R,0.0010X0.0320*%
%ADD55R,0.0010X0.0010*%
%ADD56R,0.0010X0.0040*%
%ADD57R,0.0010X0.0330*%
%ADD58R,0.0010X0.0020*%
%ADD59R,0.0010X0.0200*%
%ADD60R,0.0010X0.0030*%
%ADD61R,0.0010X0.0410*%
%ADD62R,0.0010X0.0060*%
%ADD63R,0.0010X0.0420*%
%ADD64R,0.0010X0.0360*%
%ADD65R,0.0010X0.0370*%
%ADD66R,0.0010X0.0380*%
%ADD67R,0.0010X0.0430*%
%ADD68R,0.0010X0.0390*%
%ADD69R,0.0010X0.0440*%
%ADD70R,0.0010X0.0190*%
%ADD71R,0.0010X0.0560*%
%ADD72R,0.0010X0.0220*%
%ADD73R,0.0010X0.0460*%
%ADD74R,0.0010X0.0470*%
%ADD75R,0.0010X0.0490*%
%ADD76R,0.0010X0.0500*%
%ADD77R,0.0010X0.0510*%
%ADD78R,0.0010X0.0520*%
%ADD79R,0.0010X0.0530*%
%ADD80R,0.0010X0.0750*%
%ADD81R,0.0010X0.0740*%
%ADD82R,0.0010X0.0730*%
%ADD83R,0.0010X0.0840*%
%ADD84R,0.0010X0.0670*%
%ADD85R,0.0010X0.0650*%
%ADD86R,0.0010X0.0480*%
%ADD87R,0.0010X0.0620*%
%ADD88R,0.0010X0.0700*%
%ADD89R,0.0010X0.0610*%
%ADD90R,0.0010X0.0590*%
%ADD91R,0.0010X0.0580*%
%ADD92R,0.0010X0.1140*%
%ADD93R,0.0010X0.1130*%
%ADD94R,0.0010X0.1200*%
%ADD95R,0.0010X0.0780*%
%ADD96R,0.0010X0.0290*%
%ADD97R,0.0010X0.0640*%
%ADD98R,0.0010X0.0570*%
%ADD99R,0.0010X0.0280*%
%ADD100R,0.0010X0.0350*%
%ADD101R,0.0010X0.0850*%
%ADD102R,0.0010X0.0880*%
%ADD103R,0.0010X0.0900*%
%ADD104R,0.0010X0.1240*%
%ADD105R,0.0010X0.1110*%
%ADD106R,0.0010X0.0870*%
%ADD107R,0.0010X0.0720*%
%ADD108C,0.0160*%
%ADD109C,0.0010*%
%ADD110C,0.0059*%
%ADD111C,0.0080*%
D10*
X005609Y003209D02*
X005609Y003636D01*
X005609Y003423D02*
X006250Y003423D01*
X006036Y003209D01*
X005929Y003854D02*
X005929Y004281D01*
X006143Y004498D02*
X006250Y004605D01*
X006250Y004818D01*
X006143Y004925D01*
X006036Y004925D01*
X005609Y004498D01*
X005609Y004925D01*
X005716Y005143D02*
X005823Y005143D01*
X005929Y005249D01*
X005929Y005463D01*
X005823Y005570D01*
X005716Y005570D01*
X005609Y005463D01*
X005609Y005249D01*
X005716Y005143D01*
X005929Y005249D02*
X006036Y005143D01*
X006143Y005143D01*
X006250Y005249D01*
X006250Y005463D01*
X006143Y005570D01*
X006036Y005570D01*
X005929Y005463D01*
X005929Y005787D02*
X005929Y006214D01*
X006036Y006432D02*
X006250Y006645D01*
X005609Y006645D01*
X005609Y006432D02*
X005609Y006859D01*
X005716Y007076D02*
X005609Y007183D01*
X005609Y007397D01*
X005716Y007503D01*
X005823Y007503D01*
X005929Y007397D01*
X005929Y007290D01*
X005929Y007397D02*
X006036Y007503D01*
X006143Y007503D01*
X006250Y007397D01*
X006250Y007183D01*
X006143Y007076D01*
X007789Y007286D02*
X007789Y006859D01*
X007896Y006859D01*
X008323Y007286D01*
X008430Y007286D01*
X008430Y006859D01*
X008430Y007504D02*
X007789Y007504D01*
X007789Y007931D02*
X008430Y007931D01*
X008430Y008148D02*
X007789Y008148D01*
X007789Y008575D01*
X007789Y008793D02*
X007789Y009220D01*
X007896Y009437D02*
X007789Y009544D01*
X007789Y009757D01*
X007896Y009864D01*
X008003Y009864D01*
X008109Y009757D01*
X008109Y009544D01*
X008216Y009437D01*
X008323Y009437D01*
X008430Y009544D01*
X008430Y009757D01*
X008323Y009864D01*
X008323Y010082D02*
X007896Y010082D01*
X007789Y010189D01*
X007789Y010402D01*
X007896Y010509D01*
X008323Y010509D01*
X008430Y010402D01*
X008430Y010189D01*
X008323Y010082D01*
X008430Y010726D02*
X007789Y010726D01*
X007789Y011153D02*
X008430Y011153D01*
X008216Y011371D02*
X008430Y011584D01*
X007789Y011584D01*
X007789Y011371D02*
X007789Y011798D01*
X007789Y011153D02*
X008430Y010726D01*
X008430Y008793D02*
X007789Y008793D01*
X008109Y008362D02*
X008109Y008148D01*
X008430Y008148D02*
X008430Y008575D01*
X007789Y007931D02*
X008430Y007504D01*
D11*
X004919Y007394D03*
X004909Y007384D03*
X004469Y007894D03*
D12*
X004479Y007889D03*
X005329Y007889D03*
X004929Y008779D03*
X004919Y008779D03*
X004899Y008769D03*
D13*
X004489Y007889D03*
D14*
X004499Y007894D03*
D15*
X004509Y007889D03*
X005379Y007889D03*
D16*
X005229Y008469D03*
X005039Y008799D03*
X004839Y008789D03*
X004519Y008239D03*
X004519Y007549D03*
X004879Y006969D03*
X005149Y007119D03*
D17*
X005249Y007324D03*
X004759Y007034D03*
X004529Y007444D03*
X004529Y008344D03*
D18*
X004709Y007534D03*
X004539Y007384D03*
X005169Y007564D03*
X005179Y007574D03*
D19*
X004709Y007119D03*
X004719Y007099D03*
X004539Y008399D03*
D20*
X004549Y008459D03*
X004549Y007329D03*
D21*
X004559Y007269D03*
X004719Y007529D03*
X005419Y007889D03*
X004559Y008519D03*
D22*
X004939Y008784D03*
X005199Y008514D03*
X004559Y007894D03*
X005069Y007064D03*
X004959Y006994D03*
D23*
X004869Y007359D03*
X004939Y007419D03*
X004949Y007429D03*
X004959Y007429D03*
X004729Y007539D03*
X004569Y007219D03*
X005339Y007289D03*
X004739Y008089D03*
X004729Y008089D03*
X004569Y008569D03*
X005339Y008499D03*
D24*
X005159Y008529D03*
X005079Y008169D03*
X005069Y008169D03*
X005059Y008159D03*
X005049Y008159D03*
X005319Y007889D03*
X004569Y007889D03*
D25*
X004769Y008089D03*
X004779Y008089D03*
X005219Y008079D03*
X005309Y008619D03*
X004829Y007339D03*
X004579Y007169D03*
X005309Y007169D03*
D26*
X005309Y007889D03*
X004579Y007889D03*
D27*
X004759Y008084D03*
X004579Y008614D03*
D28*
X004599Y008689D03*
X004849Y008319D03*
X005289Y008689D03*
X005159Y007829D03*
X004999Y007699D03*
X005299Y007129D03*
X005289Y007099D03*
X005279Y007069D03*
X005269Y007039D03*
X004619Y007039D03*
X004609Y007069D03*
X004599Y007099D03*
X004589Y007129D03*
D29*
X004589Y007889D03*
X005299Y007889D03*
D30*
X004789Y008094D03*
X004589Y008654D03*
X005299Y008654D03*
D31*
X004599Y007894D03*
D32*
X004609Y007889D03*
D33*
X004709Y007824D03*
X004829Y007754D03*
X004839Y007764D03*
X004849Y007764D03*
X004859Y007764D03*
X004969Y007684D03*
X004819Y007334D03*
X004629Y007014D03*
X004639Y006994D03*
X004819Y008304D03*
X004839Y008314D03*
X004859Y008324D03*
X004869Y008324D03*
X004609Y008714D03*
X004619Y008744D03*
X005269Y008744D03*
X005279Y008714D03*
D34*
X005269Y007889D03*
X004619Y007889D03*
D35*
X004629Y007889D03*
D36*
X004719Y007839D03*
X004809Y007749D03*
X004819Y007749D03*
X004869Y007769D03*
X004879Y007779D03*
X004889Y007779D03*
X004959Y007669D03*
X004739Y007499D03*
X005259Y007009D03*
X004969Y008239D03*
X004879Y008329D03*
X004829Y008309D03*
X004809Y008299D03*
X004629Y008769D03*
X004639Y008789D03*
D37*
X004639Y007889D03*
D38*
X004799Y007744D03*
X004899Y007784D03*
X004949Y007654D03*
X004799Y007554D03*
X004749Y007504D03*
X004809Y007324D03*
X005119Y007464D03*
X005129Y007464D03*
X005139Y007464D03*
X005139Y007614D03*
X004879Y008144D03*
X004799Y008294D03*
X004889Y008334D03*
X004899Y008344D03*
X004649Y008814D03*
X004659Y008834D03*
X005259Y008774D03*
X004649Y006974D03*
D39*
X004649Y007894D03*
D40*
X004729Y007849D03*
X004739Y007859D03*
X004789Y007739D03*
X004859Y007589D03*
X004839Y007579D03*
X004829Y007569D03*
X004809Y007559D03*
X004789Y007549D03*
X004779Y007539D03*
X004939Y007649D03*
X005039Y007549D03*
X005109Y007599D03*
X005129Y007609D03*
X005109Y007459D03*
X005169Y007819D03*
X004969Y007909D03*
X004869Y008139D03*
X004789Y008289D03*
X004659Y006949D03*
X005249Y006979D03*
D41*
X004659Y007889D03*
D42*
X004779Y007734D03*
X004909Y007784D03*
X004929Y007634D03*
X004919Y007624D03*
X004899Y007614D03*
X004869Y007594D03*
X004849Y007584D03*
X004819Y007564D03*
X004769Y007524D03*
X004759Y007514D03*
X004799Y007324D03*
X005059Y007564D03*
X005069Y007574D03*
X005079Y007584D03*
X005089Y007594D03*
X005099Y007594D03*
X005119Y007604D03*
X004859Y008134D03*
X004959Y008234D03*
X004909Y008344D03*
X004709Y008324D03*
X004669Y008854D03*
X004679Y008874D03*
X005189Y008924D03*
X005199Y008904D03*
X005209Y008884D03*
X005219Y008864D03*
X005229Y008844D03*
X005239Y008824D03*
X005249Y008804D03*
X005239Y006954D03*
X005199Y006874D03*
X005189Y006854D03*
X004689Y006884D03*
X004679Y006904D03*
X004669Y006924D03*
D43*
X004669Y007889D03*
D44*
X004679Y007894D03*
D45*
X004689Y007889D03*
D46*
X004749Y007869D03*
X004759Y007879D03*
X004769Y007889D03*
X004779Y007889D03*
X004789Y007899D03*
X004959Y007909D03*
X004909Y007619D03*
X004889Y007609D03*
X004879Y007599D03*
X005049Y007559D03*
X005099Y007449D03*
X005229Y006939D03*
X005219Y006919D03*
X005209Y006899D03*
X005179Y006839D03*
X004709Y006849D03*
X004699Y006869D03*
X004779Y008279D03*
X004919Y008349D03*
X004689Y008899D03*
D47*
X004699Y007889D03*
D48*
X004799Y007904D03*
X004809Y007914D03*
X004819Y007924D03*
X004829Y007924D03*
X004839Y007934D03*
X004919Y007794D03*
X005049Y007704D03*
X005029Y007514D03*
X005089Y007444D03*
X004769Y007734D03*
X004949Y008234D03*
X004769Y008274D03*
X004819Y008484D03*
X004829Y008484D03*
X004839Y008494D03*
X004699Y008914D03*
X004709Y008934D03*
X004739Y008984D03*
X005169Y008964D03*
X005179Y008944D03*
X005169Y006824D03*
X004739Y006804D03*
X004729Y006814D03*
X004719Y006834D03*
D49*
X005359Y007404D03*
X005139Y007864D03*
X004709Y008104D03*
X005359Y008384D03*
D50*
X005069Y008794D03*
X004739Y008684D03*
X004729Y008664D03*
X004719Y008644D03*
X004709Y008624D03*
D51*
X004719Y008089D03*
X005349Y008439D03*
X005349Y007349D03*
X004929Y007409D03*
X004899Y007379D03*
D52*
X005009Y007469D03*
X005099Y007729D03*
X005109Y007739D03*
X004929Y007899D03*
X004899Y007969D03*
X004879Y007959D03*
X004809Y008049D03*
X004909Y008209D03*
X004919Y008219D03*
X004719Y008339D03*
X004839Y009089D03*
X004859Y009099D03*
X004879Y009109D03*
X004889Y009109D03*
X004909Y009119D03*
X004919Y009119D03*
X004929Y009119D03*
X004939Y009119D03*
X004949Y009119D03*
X004959Y009119D03*
X004969Y009119D03*
X004979Y009119D03*
X004999Y009109D03*
X005009Y009109D03*
X005029Y009099D03*
X005049Y009089D03*
X005049Y006699D03*
X005029Y006689D03*
X005009Y006679D03*
X004999Y006679D03*
X004979Y006669D03*
X004969Y006669D03*
X004929Y006669D03*
X004919Y006669D03*
X004909Y006669D03*
X004889Y006679D03*
X004879Y006679D03*
X004859Y006689D03*
X004839Y006699D03*
D53*
X004759Y006779D03*
X004749Y006789D03*
X005159Y006809D03*
X005059Y007709D03*
X005009Y007729D03*
X005179Y007819D03*
X004949Y007909D03*
X004859Y007949D03*
X004849Y007939D03*
X004799Y008059D03*
X004849Y008129D03*
X004939Y008229D03*
X004809Y008469D03*
X004719Y008949D03*
X004729Y008969D03*
X004749Y008999D03*
X004759Y009009D03*
X005159Y008979D03*
D54*
X005229Y008054D03*
X004729Y007084D03*
X004739Y007064D03*
D55*
X004759Y007629D03*
X004949Y007819D03*
X004959Y007819D03*
X004899Y007889D03*
X005039Y007669D03*
X004939Y008069D03*
X004909Y008099D03*
X004729Y008349D03*
X004929Y008429D03*
X004939Y008429D03*
D56*
X004959Y008424D03*
X004769Y008444D03*
X004899Y008204D03*
X004889Y008194D03*
X004909Y007984D03*
X005059Y007784D03*
X005069Y007784D03*
X005079Y007784D03*
X005189Y007814D03*
X005229Y007614D03*
X005079Y007434D03*
X004989Y007544D03*
X004739Y007614D03*
X004789Y007314D03*
X004939Y006664D03*
X004949Y006664D03*
X004959Y006664D03*
D57*
X004749Y007049D03*
D58*
X004749Y007624D03*
X004909Y007894D03*
X004829Y008044D03*
X004899Y008094D03*
X004949Y008074D03*
X004799Y008164D03*
X005099Y007794D03*
D59*
X004749Y008084D03*
X005329Y008544D03*
X004859Y007354D03*
X004849Y007354D03*
X005329Y007244D03*
D60*
X005089Y007789D03*
X005049Y007779D03*
X004969Y007819D03*
X004939Y007809D03*
X004919Y007899D03*
X004919Y007989D03*
X004959Y008079D03*
X004889Y008099D03*
X004839Y008129D03*
X004819Y008049D03*
X004749Y008269D03*
X004759Y008429D03*
X004949Y008429D03*
D61*
X004749Y008699D03*
X005179Y007159D03*
X004829Y006979D03*
D62*
X004769Y006764D03*
X004779Y006754D03*
X004789Y006744D03*
X004799Y006734D03*
X004809Y006724D03*
X004819Y006714D03*
X004829Y006704D03*
X004849Y006694D03*
X004869Y006684D03*
X004899Y006674D03*
X004989Y006674D03*
X005019Y006684D03*
X005039Y006694D03*
X005059Y006704D03*
X005069Y006714D03*
X005079Y006724D03*
X005089Y006734D03*
X005099Y006744D03*
X005109Y006754D03*
X005119Y006764D03*
X005129Y006774D03*
X005139Y006784D03*
X005149Y006794D03*
X005019Y007494D03*
X004979Y007524D03*
X004969Y007514D03*
X005069Y007714D03*
X005079Y007714D03*
X005089Y007724D03*
X005119Y007744D03*
X004929Y007804D03*
X004939Y007904D03*
X004889Y007964D03*
X004869Y007954D03*
X004969Y008074D03*
X004929Y008224D03*
X004929Y008354D03*
X004969Y008424D03*
X004799Y008464D03*
X004789Y008454D03*
X004779Y008454D03*
X004759Y008274D03*
X004759Y007734D03*
X004769Y009024D03*
X004779Y009034D03*
X004789Y009044D03*
X004799Y009054D03*
X004809Y009064D03*
X004819Y009074D03*
X004829Y009084D03*
X004849Y009094D03*
X004869Y009104D03*
X004899Y009114D03*
X004989Y009114D03*
X005019Y009104D03*
X005039Y009094D03*
X005059Y009084D03*
X005069Y009074D03*
X005079Y009064D03*
X005089Y009054D03*
X005099Y009044D03*
X005109Y009034D03*
X005119Y009024D03*
X005129Y009014D03*
X005139Y009004D03*
X005149Y008994D03*
D63*
X005059Y008794D03*
X004779Y008744D03*
X004769Y008724D03*
X004759Y008714D03*
X005169Y007144D03*
X004849Y006974D03*
X004839Y006974D03*
D64*
X004769Y007024D03*
X005209Y007214D03*
X005259Y007374D03*
X005369Y008284D03*
D65*
X005089Y008789D03*
X005369Y007499D03*
X004779Y007009D03*
D66*
X004789Y007004D03*
X004799Y006994D03*
X004809Y006994D03*
X005199Y007194D03*
X004979Y007804D03*
D67*
X004979Y008249D03*
X004789Y008749D03*
X004799Y008759D03*
X004809Y008769D03*
X005049Y008799D03*
X004859Y006969D03*
D68*
X004819Y006989D03*
X005189Y007179D03*
X005079Y008789D03*
D69*
X004829Y008784D03*
X004819Y008774D03*
X005159Y007134D03*
X004869Y006974D03*
D70*
X004839Y007349D03*
X005219Y007599D03*
X005319Y007209D03*
X005319Y008579D03*
D71*
X004909Y008774D03*
X004889Y008764D03*
X004879Y008754D03*
X004869Y008754D03*
X004859Y008744D03*
X004849Y008744D03*
X005059Y007054D03*
D72*
X004879Y007364D03*
X004889Y007374D03*
X005149Y007854D03*
D73*
X005139Y007104D03*
X004889Y006964D03*
X005029Y008794D03*
D74*
X005019Y008799D03*
X004899Y006969D03*
D75*
X004909Y006969D03*
X005119Y007089D03*
X004999Y008799D03*
D76*
X004989Y008794D03*
X004919Y006974D03*
D77*
X004929Y006979D03*
X005109Y007079D03*
X005209Y008499D03*
D78*
X004979Y008794D03*
X004969Y008794D03*
X005099Y007074D03*
X004939Y006984D03*
D79*
X004949Y006989D03*
X005079Y007069D03*
X005089Y007069D03*
X004959Y008789D03*
X004949Y008789D03*
D80*
X004999Y007109D03*
X004969Y007099D03*
D81*
X004979Y007094D03*
D82*
X004989Y007099D03*
X005149Y008529D03*
D83*
X004989Y008044D03*
D84*
X004999Y008139D03*
X005009Y008139D03*
D85*
X005009Y007069D03*
D86*
X005129Y007094D03*
X005219Y008484D03*
X005009Y008794D03*
D87*
X005019Y007064D03*
D88*
X005019Y008134D03*
X005029Y008134D03*
X005039Y008144D03*
X005089Y008174D03*
D89*
X005179Y008519D03*
X005029Y007059D03*
D90*
X005039Y007059D03*
D91*
X005049Y007054D03*
D92*
X005099Y008394D03*
D93*
X005109Y008389D03*
X005119Y008369D03*
D94*
X005129Y008324D03*
D95*
X005139Y008514D03*
D96*
X005189Y007589D03*
X005159Y007559D03*
X005149Y007549D03*
D97*
X005169Y008524D03*
D98*
X005189Y008519D03*
X005409Y007889D03*
D99*
X005209Y007624D03*
X005199Y007604D03*
D100*
X005239Y007289D03*
X005229Y007259D03*
X005219Y007229D03*
D101*
X005239Y008249D03*
D102*
X005249Y008194D03*
D103*
X005259Y008134D03*
D104*
X005279Y007894D03*
D105*
X005289Y007889D03*
D106*
X005389Y007889D03*
D107*
X005399Y007894D03*
D108*
X010973Y004543D02*
X011943Y004543D01*
D109*
X006725Y009487D02*
X006548Y009487D01*
X006560Y009479D02*
X006716Y009479D01*
X006718Y009480D02*
X006694Y009463D01*
X006667Y009453D01*
X006638Y009449D01*
X006609Y009453D01*
X006582Y009464D01*
X006513Y009511D01*
X006452Y009568D01*
X006434Y009583D01*
X006413Y009593D01*
X006390Y009597D01*
X006367Y009596D01*
X006345Y009588D01*
X006326Y009575D01*
X006311Y009557D01*
X006299Y009535D01*
X006291Y009511D01*
X006287Y009486D01*
X006288Y009457D01*
X006297Y009429D01*
X006312Y009404D01*
X006326Y009391D01*
X006343Y009382D01*
X006361Y009378D01*
X006379Y009378D01*
X006396Y009382D01*
X006403Y009386D01*
X006408Y009391D01*
X006432Y009424D01*
X006435Y009430D01*
X006437Y009437D01*
X006436Y009444D01*
X006439Y009425D01*
X006442Y009388D01*
X006439Y009351D01*
X006432Y009324D01*
X006419Y009298D01*
X006402Y009276D01*
X006380Y009257D01*
X006351Y009241D01*
X006320Y009232D01*
X006287Y009229D01*
X005690Y009229D01*
X005906Y009421D01*
X005937Y009455D01*
X005961Y009495D01*
X005966Y009510D01*
X005969Y009525D01*
X005969Y009615D01*
X005974Y009669D01*
X005988Y009721D01*
X006012Y009769D01*
X006044Y009815D01*
X006082Y009855D01*
X006126Y009890D01*
X006192Y009927D01*
X006264Y009952D01*
X006339Y009963D01*
X006415Y009961D01*
X006456Y009953D01*
X006495Y009939D01*
X006532Y009919D01*
X006577Y009883D01*
X006613Y009839D01*
X006578Y009839D01*
X006572Y009838D01*
X006567Y009836D01*
X006553Y009824D01*
X006542Y009809D01*
X006539Y009801D01*
X006537Y009778D01*
X006541Y009756D01*
X006551Y009736D01*
X006577Y009700D01*
X006591Y009683D01*
X006608Y009669D01*
X006627Y009658D01*
X006647Y009649D01*
X006660Y009646D01*
X006673Y009647D01*
X006695Y009654D01*
X006714Y009666D01*
X006790Y009666D01*
X006790Y009671D02*
X006793Y009636D01*
X006790Y009602D01*
X006781Y009569D01*
X006766Y009538D01*
X006744Y009507D01*
X006718Y009480D01*
X006704Y009470D02*
X006573Y009470D01*
X006587Y009462D02*
X006691Y009462D01*
X006669Y009453D02*
X006608Y009453D01*
X006535Y009496D02*
X006733Y009496D01*
X006741Y009504D02*
X006522Y009504D01*
X006511Y009513D02*
X006748Y009513D01*
X006754Y009521D02*
X006502Y009521D01*
X006493Y009530D02*
X006760Y009530D01*
X006766Y009538D02*
X006484Y009538D01*
X006475Y009547D02*
X006770Y009547D01*
X006775Y009555D02*
X006465Y009555D01*
X006456Y009564D02*
X006779Y009564D01*
X006782Y009572D02*
X006447Y009572D01*
X006437Y009581D02*
X006785Y009581D01*
X006787Y009589D02*
X006421Y009589D01*
X006350Y009589D02*
X005969Y009589D01*
X005969Y009581D02*
X006335Y009581D01*
X006324Y009572D02*
X005969Y009572D01*
X005969Y009564D02*
X006317Y009564D01*
X006310Y009555D02*
X005969Y009555D01*
X005969Y009547D02*
X006306Y009547D01*
X006301Y009538D02*
X005969Y009538D01*
X005969Y009530D02*
X006297Y009530D01*
X006294Y009521D02*
X005968Y009521D01*
X005967Y009513D02*
X006292Y009513D01*
X006290Y009504D02*
X005964Y009504D01*
X005961Y009496D02*
X006289Y009496D01*
X006287Y009487D02*
X005956Y009487D01*
X005951Y009479D02*
X006287Y009479D01*
X006288Y009470D02*
X005946Y009470D01*
X005941Y009462D02*
X006288Y009462D01*
X006290Y009453D02*
X005936Y009453D01*
X005928Y009445D02*
X006292Y009445D01*
X006295Y009436D02*
X005920Y009436D01*
X005912Y009428D02*
X006298Y009428D01*
X006303Y009419D02*
X005904Y009419D01*
X005895Y009411D02*
X006308Y009411D01*
X006314Y009402D02*
X005885Y009402D01*
X005875Y009394D02*
X006323Y009394D01*
X006337Y009385D02*
X005866Y009385D01*
X005856Y009377D02*
X006441Y009377D01*
X006442Y009385D02*
X006402Y009385D01*
X006410Y009394D02*
X006441Y009394D01*
X006441Y009402D02*
X006416Y009402D01*
X006422Y009411D02*
X006440Y009411D01*
X006439Y009419D02*
X006429Y009419D01*
X006434Y009428D02*
X006439Y009428D01*
X006437Y009436D02*
X006437Y009436D01*
X006440Y009368D02*
X005847Y009368D01*
X005837Y009360D02*
X006440Y009360D01*
X006439Y009351D02*
X005828Y009351D01*
X005818Y009343D02*
X006437Y009343D01*
X006435Y009334D02*
X005808Y009334D01*
X005799Y009326D02*
X006432Y009326D01*
X006429Y009317D02*
X005789Y009317D01*
X005780Y009309D02*
X006425Y009309D01*
X006420Y009300D02*
X005770Y009300D01*
X005761Y009292D02*
X006414Y009292D01*
X006408Y009283D02*
X005751Y009283D01*
X005742Y009275D02*
X006401Y009275D01*
X006391Y009266D02*
X005732Y009266D01*
X005722Y009258D02*
X006381Y009258D01*
X006366Y009249D02*
X005713Y009249D01*
X005703Y009241D02*
X006350Y009241D01*
X006322Y009232D02*
X005694Y009232D01*
X005969Y009598D02*
X006789Y009598D01*
X006791Y009606D02*
X005969Y009606D01*
X005969Y009615D02*
X006791Y009615D01*
X006792Y009623D02*
X005970Y009623D01*
X005971Y009632D02*
X006793Y009632D01*
X006793Y009640D02*
X005971Y009640D01*
X005972Y009649D02*
X006648Y009649D01*
X006627Y009657D02*
X005973Y009657D01*
X005974Y009666D02*
X006613Y009666D01*
X006602Y009674D02*
X005975Y009674D01*
X005978Y009683D02*
X006592Y009683D01*
X006584Y009691D02*
X005980Y009691D01*
X005983Y009700D02*
X006577Y009700D01*
X006571Y009708D02*
X005985Y009708D01*
X005987Y009717D02*
X006565Y009717D01*
X006559Y009725D02*
X005991Y009725D01*
X005995Y009734D02*
X006553Y009734D01*
X006548Y009742D02*
X005999Y009742D01*
X006003Y009751D02*
X006543Y009751D01*
X006540Y009759D02*
X006007Y009759D01*
X006011Y009768D02*
X006539Y009768D01*
X006537Y009776D02*
X006017Y009776D01*
X006023Y009785D02*
X006537Y009785D01*
X006538Y009793D02*
X006029Y009793D01*
X006035Y009802D02*
X006539Y009802D01*
X006543Y009810D02*
X006041Y009810D01*
X006048Y009819D02*
X006549Y009819D01*
X006556Y009827D02*
X006056Y009827D01*
X006064Y009836D02*
X006567Y009836D01*
X006595Y009861D02*
X006090Y009861D01*
X006080Y009853D02*
X006602Y009853D01*
X006609Y009844D02*
X006072Y009844D01*
X006101Y009870D02*
X006588Y009870D01*
X006581Y009878D02*
X006111Y009878D01*
X006122Y009887D02*
X006572Y009887D01*
X006562Y009895D02*
X006135Y009895D01*
X006151Y009904D02*
X006551Y009904D01*
X006540Y009912D02*
X006166Y009912D01*
X006181Y009921D02*
X006529Y009921D01*
X006513Y009929D02*
X006198Y009929D01*
X006223Y009938D02*
X006497Y009938D01*
X006474Y009946D02*
X006247Y009946D01*
X006283Y009955D02*
X006446Y009955D01*
X006341Y009963D02*
X006339Y009963D01*
X006748Y009767D02*
X006748Y009767D01*
X006749Y009766D01*
X006762Y009749D01*
X006771Y009729D01*
X006777Y009715D01*
X006781Y009706D01*
X006790Y009671D01*
X006789Y009674D02*
X006722Y009674D01*
X006729Y009682D02*
X006740Y009702D01*
X006746Y009722D01*
X006748Y009743D01*
X006748Y009767D01*
X006748Y009759D02*
X006754Y009759D01*
X006748Y009751D02*
X006761Y009751D01*
X006765Y009742D02*
X006748Y009742D01*
X006747Y009734D02*
X006769Y009734D01*
X006773Y009725D02*
X006746Y009725D01*
X006744Y009717D02*
X006776Y009717D01*
X006780Y009708D02*
X006742Y009708D01*
X006739Y009700D02*
X006783Y009700D01*
X006785Y009691D02*
X006734Y009691D01*
X006730Y009683D02*
X006787Y009683D01*
X006791Y009657D02*
X006701Y009657D01*
X006714Y009666D02*
X006729Y009682D01*
X006679Y009649D02*
X006792Y009649D01*
D110*
X006181Y008945D02*
X006200Y008755D01*
X006264Y008734D01*
X006324Y008703D01*
X006473Y008824D01*
X006574Y008723D01*
X006453Y008574D01*
X006484Y008514D01*
X006505Y008450D01*
X006695Y008431D01*
X006695Y008287D01*
X006505Y008268D01*
X006484Y008204D01*
X006453Y008144D01*
X006574Y007995D01*
X006473Y007894D01*
X006324Y008015D01*
X006264Y007984D01*
X006200Y007963D01*
X006181Y007773D01*
X006037Y007773D01*
X006018Y007963D01*
X005954Y007984D01*
X005894Y008015D01*
X005745Y007894D01*
X005644Y007995D01*
X005765Y008144D01*
X005734Y008204D01*
X005939Y008288D01*
X005960Y008251D01*
X005989Y008219D01*
X006025Y008195D01*
X006066Y008180D01*
X006109Y008174D01*
X006153Y008180D01*
X006194Y008195D01*
X006231Y008220D01*
X006260Y008253D01*
X006281Y008292D01*
X006292Y008335D01*
X006292Y008379D01*
X006282Y008422D01*
X006262Y008462D01*
X006234Y008495D01*
X006198Y008521D01*
X006157Y008537D01*
X006113Y008543D01*
X006069Y008539D01*
X006027Y008525D01*
X005990Y008500D01*
X005960Y008468D01*
X005939Y008430D01*
X005734Y008514D01*
X005765Y008574D01*
X005644Y008723D01*
X005745Y008824D01*
X005894Y008703D01*
X005954Y008734D01*
X006018Y008755D01*
X006037Y008945D01*
X006181Y008945D01*
X006183Y008925D02*
X006035Y008925D01*
X006029Y008867D02*
X006189Y008867D01*
X006195Y008810D02*
X006023Y008810D01*
X006010Y008752D02*
X006208Y008752D01*
X006384Y008752D02*
X006545Y008752D01*
X006552Y008695D02*
X005666Y008695D01*
X005673Y008752D02*
X005834Y008752D01*
X005763Y008810D02*
X005731Y008810D01*
X005713Y008637D02*
X006505Y008637D01*
X006458Y008580D02*
X005760Y008580D01*
X005738Y008522D02*
X006024Y008522D01*
X005958Y008465D02*
X005854Y008465D01*
X005808Y008234D02*
X005975Y008234D01*
X006089Y008177D02*
X005748Y008177D01*
X005745Y008119D02*
X006473Y008119D01*
X006470Y008177D02*
X006128Y008177D01*
X006243Y008234D02*
X006494Y008234D01*
X006520Y008062D02*
X005698Y008062D01*
X005651Y008004D02*
X005881Y008004D01*
X005914Y008004D02*
X006304Y008004D01*
X006337Y008004D02*
X006567Y008004D01*
X006525Y007947D02*
X006408Y007947D01*
X006199Y007947D02*
X006019Y007947D01*
X006025Y007889D02*
X006193Y007889D01*
X006187Y007831D02*
X006031Y007831D01*
X006037Y007774D02*
X006181Y007774D01*
X005810Y007947D02*
X005693Y007947D01*
X006194Y008522D02*
X006480Y008522D01*
X006500Y008465D02*
X006260Y008465D01*
X006286Y008407D02*
X006695Y008407D01*
X006695Y008349D02*
X006292Y008349D01*
X006281Y008292D02*
X006695Y008292D01*
X006487Y008810D02*
X006455Y008810D01*
D111*
X009032Y008549D02*
X009032Y007171D01*
X009347Y007564D02*
X009820Y007564D01*
X009347Y007564D02*
X009347Y008549D01*
X009032Y008549D01*
X011394Y007564D02*
X011867Y007564D01*
X011867Y008549D01*
X012182Y008549D01*
X012182Y007171D01*
X011394Y005596D02*
X009820Y005596D01*
X008761Y004854D02*
X008761Y004539D01*
X007776Y004539D01*
X007776Y004066D01*
X007383Y004854D02*
X008761Y004854D01*
X007776Y002492D02*
X007776Y002019D01*
X008761Y002019D01*
X008761Y001704D01*
X007383Y001704D01*
X005808Y002492D02*
X005808Y004066D01*
M02*
