G75*
G70*
%OFA0B0*%
%FSLAX24Y24*%
%IPPOS*%
%LPD*%
%AMOC8*
5,1,8,0,0,1.08239X$1,22.5*
%
%ADD10C,0.0800*%
%ADD11R,0.0414X0.0336*%
%ADD12R,0.0360X0.0660*%
%ADD13R,0.0336X0.0414*%
%ADD14R,0.0336X0.0729*%
%ADD15R,0.0560X0.0280*%
%ADD16R,0.0280X0.0560*%
%ADD17R,0.0336X0.0532*%
%ADD18R,0.2186X0.2501*%
%ADD19R,0.0454X0.0690*%
%ADD20R,0.0690X0.0611*%
%ADD21R,0.0375X0.0375*%
%ADD22R,0.0375X0.0532*%
%ADD23R,0.0375X0.0414*%
%ADD24R,0.0560X0.0639*%
%ADD25R,0.0414X0.0375*%
%ADD26C,0.0417*%
D10*
X002616Y005799D03*
X002616Y006799D03*
X002616Y007799D03*
X002616Y008799D03*
X002616Y009799D03*
X002616Y010799D03*
X012391Y010024D03*
X012391Y009024D03*
X012391Y008024D03*
X012391Y007024D03*
X012391Y006024D03*
X012391Y005024D03*
D11*
X010166Y008143D03*
X010166Y008655D03*
X009216Y008743D03*
X008716Y008743D03*
X008716Y009255D03*
X009216Y009255D03*
X003416Y006455D03*
X003416Y005943D03*
D12*
X006390Y006573D03*
X007890Y006573D03*
X007890Y008573D03*
X006390Y008573D03*
D13*
G36*
X005674Y009083D02*
X005912Y008845D01*
X005620Y008553D01*
X005382Y008791D01*
X005674Y009083D01*
G37*
G36*
X005312Y009445D02*
X005550Y009207D01*
X005258Y008915D01*
X005020Y009153D01*
X005312Y009445D01*
G37*
G36*
X009450Y011191D02*
X009212Y010953D01*
X008920Y011245D01*
X009158Y011483D01*
X009450Y011191D01*
G37*
G36*
X009812Y011553D02*
X009574Y011315D01*
X009282Y011607D01*
X009520Y011845D01*
X009812Y011553D01*
G37*
X010760Y010799D03*
X011272Y010799D03*
D14*
G36*
X008840Y013112D02*
X008516Y013199D01*
X008704Y013902D01*
X009028Y013815D01*
X008840Y013112D01*
G37*
G36*
X008384Y013234D02*
X008060Y013321D01*
X008248Y014024D01*
X008572Y013937D01*
X008384Y013234D01*
G37*
G36*
X007928Y013356D02*
X007604Y013443D01*
X007792Y014146D01*
X008116Y014059D01*
X007928Y013356D01*
G37*
D15*
G36*
X007081Y012780D02*
X007475Y013174D01*
X007673Y012976D01*
X007279Y012582D01*
X007081Y012780D01*
G37*
G36*
X006858Y013003D02*
X007252Y013397D01*
X007450Y013199D01*
X007056Y012805D01*
X006858Y013003D01*
G37*
G36*
X006636Y013226D02*
X007030Y013620D01*
X007228Y013422D01*
X006834Y013028D01*
X006636Y013226D01*
G37*
G36*
X007304Y012557D02*
X007698Y012951D01*
X007896Y012753D01*
X007502Y012359D01*
X007304Y012557D01*
G37*
G36*
X007526Y012335D02*
X007920Y012729D01*
X008118Y012531D01*
X007724Y012137D01*
X007526Y012335D01*
G37*
G36*
X007749Y012112D02*
X008143Y012506D01*
X008341Y012308D01*
X007947Y011914D01*
X007749Y012112D01*
G37*
G36*
X007972Y011889D02*
X008366Y012283D01*
X008564Y012085D01*
X008170Y011691D01*
X007972Y011889D01*
G37*
G36*
X008194Y011667D02*
X008588Y012061D01*
X008786Y011863D01*
X008392Y011469D01*
X008194Y011667D01*
G37*
G36*
X005804Y009277D02*
X006198Y009671D01*
X006396Y009473D01*
X006002Y009079D01*
X005804Y009277D01*
G37*
G36*
X005582Y009499D02*
X005976Y009893D01*
X006174Y009695D01*
X005780Y009301D01*
X005582Y009499D01*
G37*
G36*
X005359Y009722D02*
X005753Y010116D01*
X005951Y009918D01*
X005557Y009524D01*
X005359Y009722D01*
G37*
G36*
X005136Y009945D02*
X005530Y010339D01*
X005728Y010141D01*
X005334Y009747D01*
X005136Y009945D01*
G37*
G36*
X004914Y010167D02*
X005308Y010561D01*
X005506Y010363D01*
X005112Y009969D01*
X004914Y010167D01*
G37*
G36*
X004691Y010390D02*
X005085Y010784D01*
X005283Y010586D01*
X004889Y010192D01*
X004691Y010390D01*
G37*
G36*
X004468Y010613D02*
X004862Y011007D01*
X005060Y010809D01*
X004666Y010415D01*
X004468Y010613D01*
G37*
G36*
X004245Y010835D02*
X004639Y011229D01*
X004837Y011031D01*
X004443Y010637D01*
X004245Y010835D01*
G37*
D16*
G36*
X004245Y011863D02*
X004443Y012061D01*
X004837Y011667D01*
X004639Y011469D01*
X004245Y011863D01*
G37*
G36*
X004468Y012085D02*
X004666Y012283D01*
X005060Y011889D01*
X004862Y011691D01*
X004468Y012085D01*
G37*
G36*
X004691Y012308D02*
X004889Y012506D01*
X005283Y012112D01*
X005085Y011914D01*
X004691Y012308D01*
G37*
G36*
X004914Y012531D02*
X005112Y012729D01*
X005506Y012335D01*
X005308Y012137D01*
X004914Y012531D01*
G37*
G36*
X005136Y012753D02*
X005334Y012951D01*
X005728Y012557D01*
X005530Y012359D01*
X005136Y012753D01*
G37*
G36*
X005359Y012976D02*
X005557Y013174D01*
X005951Y012780D01*
X005753Y012582D01*
X005359Y012976D01*
G37*
G36*
X005582Y013199D02*
X005780Y013397D01*
X006174Y013003D01*
X005976Y012805D01*
X005582Y013199D01*
G37*
G36*
X005804Y013422D02*
X006002Y013620D01*
X006396Y013226D01*
X006198Y013028D01*
X005804Y013422D01*
G37*
G36*
X007972Y010809D02*
X008170Y011007D01*
X008564Y010613D01*
X008366Y010415D01*
X007972Y010809D01*
G37*
G36*
X007749Y010586D02*
X007947Y010784D01*
X008341Y010390D01*
X008143Y010192D01*
X007749Y010586D01*
G37*
G36*
X007526Y010363D02*
X007724Y010561D01*
X008118Y010167D01*
X007920Y009969D01*
X007526Y010363D01*
G37*
G36*
X007304Y010141D02*
X007502Y010339D01*
X007896Y009945D01*
X007698Y009747D01*
X007304Y010141D01*
G37*
G36*
X007081Y009918D02*
X007279Y010116D01*
X007673Y009722D01*
X007475Y009524D01*
X007081Y009918D01*
G37*
G36*
X006858Y009695D02*
X007056Y009893D01*
X007450Y009499D01*
X007252Y009301D01*
X006858Y009695D01*
G37*
G36*
X006636Y009473D02*
X006834Y009671D01*
X007228Y009277D01*
X007030Y009079D01*
X006636Y009473D01*
G37*
G36*
X008194Y011031D02*
X008392Y011229D01*
X008786Y010835D01*
X008588Y010637D01*
X008194Y011031D01*
G37*
D17*
G36*
X009003Y012644D02*
X009171Y012934D01*
X009631Y012668D01*
X009463Y012378D01*
X009003Y012644D01*
G37*
G36*
X009278Y013121D02*
X009446Y013411D01*
X009906Y013145D01*
X009738Y012855D01*
X009278Y013121D01*
G37*
G36*
X010026Y012053D02*
X010194Y012343D01*
X010654Y012077D01*
X010486Y011787D01*
X010026Y012053D01*
G37*
G36*
X010301Y012530D02*
X010469Y012820D01*
X010929Y012554D01*
X010761Y012264D01*
X010301Y012530D01*
G37*
X001642Y008190D03*
X001090Y008190D03*
X001090Y007008D03*
X001642Y007008D03*
G36*
X009271Y002264D02*
X009103Y002554D01*
X009563Y002820D01*
X009731Y002530D01*
X009271Y002264D01*
G37*
G36*
X009546Y001787D02*
X009378Y002077D01*
X009838Y002343D01*
X010006Y002053D01*
X009546Y001787D01*
G37*
G36*
X010569Y002378D02*
X010401Y002668D01*
X010861Y002934D01*
X011029Y002644D01*
X010569Y002378D01*
G37*
G36*
X010294Y002855D02*
X010126Y003145D01*
X010586Y003411D01*
X010754Y003121D01*
X010294Y002855D01*
G37*
D18*
X010566Y005065D03*
D19*
X011464Y007939D03*
X009668Y007939D03*
D20*
X008716Y007850D03*
X008716Y006748D03*
X011316Y008798D03*
X011316Y009900D03*
D21*
X010216Y009944D03*
X010216Y009354D03*
D22*
X008770Y005199D03*
X008770Y004499D03*
X008770Y003799D03*
X008062Y003799D03*
X008062Y004499D03*
X008062Y005199D03*
X006720Y005199D03*
X006720Y004499D03*
X006720Y003799D03*
X006012Y003799D03*
X006012Y004499D03*
X006012Y005199D03*
X005020Y004899D03*
X005020Y004199D03*
X005020Y003499D03*
X004312Y003499D03*
X004312Y004199D03*
X004312Y004899D03*
D23*
X007992Y002793D03*
X008740Y002793D03*
X008366Y001966D03*
G36*
X003194Y011457D02*
X003458Y011721D01*
X003750Y011429D01*
X003486Y011165D01*
X003194Y011457D01*
G37*
G36*
X002345Y011777D02*
X002609Y012041D01*
X002901Y011749D01*
X002637Y011485D01*
X002345Y011777D01*
G37*
G36*
X002874Y012306D02*
X003138Y012570D01*
X003430Y012278D01*
X003166Y012014D01*
X002874Y012306D01*
G37*
D24*
X004720Y002399D03*
X006412Y002399D03*
D25*
X004272Y005525D03*
X004272Y006273D03*
X004272Y006825D03*
X004272Y007573D03*
X004272Y008125D03*
X004272Y008873D03*
X005099Y008499D03*
X005099Y007199D03*
X005099Y005899D03*
D26*
X003166Y004049D03*
X003616Y004549D03*
X003916Y004899D03*
X003766Y005449D03*
X004626Y005889D03*
X005976Y006679D03*
X006366Y007199D03*
X006766Y007049D03*
X006866Y007649D03*
X006816Y008149D03*
X006816Y008549D03*
X005666Y008349D03*
X004666Y009674D03*
X004266Y010149D03*
X003966Y009399D03*
X003816Y008899D03*
X003766Y007199D03*
X001466Y006499D03*
X001316Y005599D03*
X003866Y004199D03*
X005466Y002449D03*
X005216Y002149D03*
X005716Y002749D03*
X006716Y003149D03*
X007126Y003889D03*
X007136Y005089D03*
X007266Y005549D03*
X006716Y005679D03*
X006816Y006399D03*
X007476Y006399D03*
X008166Y005849D03*
X010066Y003549D03*
X009836Y002809D03*
X010126Y002399D03*
X011986Y004299D03*
X010766Y006539D03*
X011316Y007099D03*
X009666Y008649D03*
X009366Y009799D03*
X009466Y010249D03*
X010166Y010499D03*
X010066Y011349D03*
X010866Y011599D03*
X009966Y012549D03*
X008966Y011649D03*
X008716Y012749D03*
X008006Y013039D03*
X006916Y011999D03*
X006416Y012449D03*
X006766Y012699D03*
X005566Y011749D03*
X005716Y011299D03*
X006066Y010849D03*
X006466Y010449D03*
X004366Y012549D03*
X004016Y012199D03*
X004816Y012849D03*
X001466Y009099D03*
X001166Y008749D03*
X007666Y002049D03*
X008766Y009899D03*
M02*
