%
M48
M72
T01C0.0197
T02C0.0400
%
T01
X3166Y4049
X3616Y4549
X3916Y4899
X3766Y5449
X4626Y5889
X5976Y6679
X6366Y7199
X6766Y7049
X6866Y7649
X6816Y8149
X6816Y8549
X5666Y8349
X4666Y9674
X4266Y10149
X3966Y9399
X3816Y8899
X3766Y7199
X1466Y6499
X1316Y5599
X3866Y4199
X5466Y2449
X5216Y2149
X5716Y2749
X6716Y3149
X7126Y3889
X7136Y5089
X7266Y5549
X6716Y5679
X6816Y6399
X7476Y6399
X8166Y5849
X10066Y3549
X9836Y2809
X10126Y2399
X11986Y4299
X10766Y6539
X11316Y7099
X9666Y8649
X9366Y9799
X9466Y10249
X10166Y10499
X10066Y11349
X10866Y11599
X9966Y12549
X8966Y11649
X8716Y12749
X8006Y13039
X6916Y11999
X6416Y12449
X6766Y12699
X5566Y11749
X5716Y11299
X6066Y10849
X6466Y10449
X4366Y12549
X4016Y12199
X4816Y12849
X1466Y9099
X1166Y8749
X7666Y2049
X8766Y9899
T02
X12391Y10024
X12391Y9024
X12391Y8024
X12391Y7024
X12391Y6024
X12391Y5024
X2616Y5799
X2616Y6799
X2616Y7799
X2616Y8799
X2616Y9799
X2616Y10799
M30
