G75*
G70*
%OFA0B0*%
%FSLAX24Y24*%
%IPPOS*%
%LPD*%
%AMOC8*
5,1,8,0,0,1.08239X$1,22.5*
%
%ADD10C,0.0060*%
%ADD11R,0.0010X0.0240*%
%ADD12R,0.0010X0.0550*%
%ADD13R,0.0010X0.0710*%
%ADD14R,0.0010X0.0860*%
%ADD15R,0.0010X0.1010*%
%ADD16R,0.0010X0.0450*%
%ADD17R,0.0010X0.0340*%
%ADD18R,0.0010X0.0300*%
%ADD19R,0.0010X0.0310*%
%ADD20R,0.0010X0.0270*%
%ADD21R,0.0010X0.0250*%
%ADD22R,0.0010X0.0540*%
%ADD23R,0.0010X0.0210*%
%ADD24R,0.0010X0.0690*%
%ADD25R,0.0010X0.0170*%
%ADD26R,0.0010X0.0830*%
%ADD27R,0.0010X0.0180*%
%ADD28R,0.0010X0.0150*%
%ADD29R,0.0010X0.0970*%
%ADD30R,0.0010X0.0160*%
%ADD31R,0.0010X0.1100*%
%ADD32R,0.0010X0.1230*%
%ADD33R,0.0010X0.0140*%
%ADD34R,0.0010X0.1330*%
%ADD35R,0.0010X0.1390*%
%ADD36R,0.0010X0.0130*%
%ADD37R,0.0010X0.1470*%
%ADD38R,0.0010X0.0120*%
%ADD39R,0.0010X0.1560*%
%ADD40R,0.0010X0.0110*%
%ADD41R,0.0010X0.1610*%
%ADD42R,0.0010X0.0100*%
%ADD43R,0.0010X0.1670*%
%ADD44R,0.0010X0.1720*%
%ADD45R,0.0010X0.1770*%
%ADD46R,0.0010X0.0090*%
%ADD47R,0.0010X0.1810*%
%ADD48R,0.0010X0.0080*%
%ADD49R,0.0010X0.0260*%
%ADD50R,0.0010X0.0400*%
%ADD51R,0.0010X0.0230*%
%ADD52R,0.0010X0.0050*%
%ADD53R,0.0010X0.0070*%
%ADD54R,0.0010X0.0320*%
%ADD55R,0.0010X0.0010*%
%ADD56R,0.0010X0.0040*%
%ADD57R,0.0010X0.0330*%
%ADD58R,0.0010X0.0020*%
%ADD59R,0.0010X0.0200*%
%ADD60R,0.0010X0.0030*%
%ADD61R,0.0010X0.0410*%
%ADD62R,0.0010X0.0060*%
%ADD63R,0.0010X0.0420*%
%ADD64R,0.0010X0.0360*%
%ADD65R,0.0010X0.0370*%
%ADD66R,0.0010X0.0380*%
%ADD67R,0.0010X0.0430*%
%ADD68R,0.0010X0.0390*%
%ADD69R,0.0010X0.0440*%
%ADD70R,0.0010X0.0190*%
%ADD71R,0.0010X0.0560*%
%ADD72R,0.0010X0.0220*%
%ADD73R,0.0010X0.0460*%
%ADD74R,0.0010X0.0470*%
%ADD75R,0.0010X0.0490*%
%ADD76R,0.0010X0.0500*%
%ADD77R,0.0010X0.0510*%
%ADD78R,0.0010X0.0520*%
%ADD79R,0.0010X0.0530*%
%ADD80R,0.0010X0.0750*%
%ADD81R,0.0010X0.0740*%
%ADD82R,0.0010X0.0730*%
%ADD83R,0.0010X0.0840*%
%ADD84R,0.0010X0.0670*%
%ADD85R,0.0010X0.0650*%
%ADD86R,0.0010X0.0480*%
%ADD87R,0.0010X0.0620*%
%ADD88R,0.0010X0.0700*%
%ADD89R,0.0010X0.0610*%
%ADD90R,0.0010X0.0590*%
%ADD91R,0.0010X0.0580*%
%ADD92R,0.0010X0.1140*%
%ADD93R,0.0010X0.1130*%
%ADD94R,0.0010X0.1200*%
%ADD95R,0.0010X0.0780*%
%ADD96R,0.0010X0.0290*%
%ADD97R,0.0010X0.0640*%
%ADD98R,0.0010X0.0570*%
%ADD99R,0.0010X0.0280*%
%ADD100R,0.0010X0.0350*%
%ADD101R,0.0010X0.0850*%
%ADD102R,0.0010X0.0880*%
%ADD103R,0.0010X0.0900*%
%ADD104R,0.0010X0.1240*%
%ADD105R,0.0010X0.1110*%
%ADD106R,0.0010X0.0870*%
%ADD107R,0.0010X0.0720*%
%ADD108C,0.0160*%
%ADD109C,0.0010*%
%ADD110C,0.0059*%
%ADD111C,0.0080*%
D10*
X005619Y003219D02*
X005619Y003646D01*
X005619Y003433D02*
X006260Y003433D01*
X006046Y003219D01*
X005939Y003864D02*
X005939Y004291D01*
X006153Y004508D02*
X006260Y004615D01*
X006260Y004828D01*
X006153Y004935D01*
X006046Y004935D01*
X005619Y004508D01*
X005619Y004935D01*
X005726Y005153D02*
X005833Y005153D01*
X005939Y005259D01*
X005939Y005473D01*
X005833Y005580D01*
X005726Y005580D01*
X005619Y005473D01*
X005619Y005259D01*
X005726Y005153D01*
X005939Y005259D02*
X006046Y005153D01*
X006153Y005153D01*
X006260Y005259D01*
X006260Y005473D01*
X006153Y005580D01*
X006046Y005580D01*
X005939Y005473D01*
X005939Y005797D02*
X005939Y006224D01*
X006046Y006442D02*
X006260Y006655D01*
X005619Y006655D01*
X005619Y006442D02*
X005619Y006869D01*
X005726Y007086D02*
X005619Y007193D01*
X005619Y007407D01*
X005726Y007513D01*
X005833Y007513D01*
X005939Y007407D01*
X005939Y007300D01*
X005939Y007407D02*
X006046Y007513D01*
X006153Y007513D01*
X006260Y007407D01*
X006260Y007193D01*
X006153Y007086D01*
X007799Y007296D02*
X007799Y006869D01*
X007906Y006869D01*
X008333Y007296D01*
X008440Y007296D01*
X008440Y006869D01*
X008440Y007514D02*
X007799Y007514D01*
X007799Y007941D02*
X008440Y007941D01*
X008440Y008158D02*
X007799Y008158D01*
X007799Y008585D01*
X007799Y008803D02*
X007799Y009230D01*
X007906Y009447D02*
X007799Y009554D01*
X007799Y009767D01*
X007906Y009874D01*
X008013Y009874D01*
X008119Y009767D01*
X008119Y009554D01*
X008226Y009447D01*
X008333Y009447D01*
X008440Y009554D01*
X008440Y009767D01*
X008333Y009874D01*
X008333Y010092D02*
X007906Y010092D01*
X007799Y010199D01*
X007799Y010412D01*
X007906Y010519D01*
X008333Y010519D01*
X008440Y010412D01*
X008440Y010199D01*
X008333Y010092D01*
X008440Y010736D02*
X007799Y010736D01*
X007799Y011163D02*
X008440Y011163D01*
X008226Y011381D02*
X008440Y011594D01*
X007799Y011594D01*
X007799Y011381D02*
X007799Y011808D01*
X007799Y011163D02*
X008440Y010736D01*
X008440Y008803D02*
X007799Y008803D01*
X008119Y008372D02*
X008119Y008158D01*
X008440Y008158D02*
X008440Y008585D01*
X007799Y007941D02*
X008440Y007514D01*
D11*
X004929Y007404D03*
X004919Y007394D03*
X004479Y007904D03*
D12*
X004489Y007899D03*
X005339Y007899D03*
X004939Y008789D03*
X004929Y008789D03*
X004909Y008779D03*
D13*
X004499Y007899D03*
D14*
X004509Y007904D03*
D15*
X004519Y007899D03*
X005389Y007899D03*
D16*
X005239Y008479D03*
X005049Y008809D03*
X004849Y008799D03*
X004529Y008249D03*
X004529Y007559D03*
X004889Y006979D03*
X005159Y007129D03*
D17*
X005259Y007334D03*
X004769Y007044D03*
X004539Y007454D03*
X004539Y008354D03*
D18*
X004719Y007544D03*
X004549Y007394D03*
X005179Y007574D03*
X005189Y007584D03*
D19*
X004719Y007129D03*
X004729Y007109D03*
X004549Y008409D03*
D20*
X004559Y008469D03*
X004559Y007339D03*
D21*
X004569Y007279D03*
X004729Y007539D03*
X005429Y007899D03*
X004569Y008529D03*
D22*
X004949Y008794D03*
X005209Y008524D03*
X004569Y007904D03*
X005079Y007074D03*
X004969Y007004D03*
D23*
X004879Y007369D03*
X004949Y007429D03*
X004959Y007439D03*
X004969Y007439D03*
X004739Y007549D03*
X004579Y007229D03*
X005349Y007299D03*
X004749Y008099D03*
X004739Y008099D03*
X004579Y008579D03*
X005349Y008509D03*
D24*
X005169Y008539D03*
X005089Y008179D03*
X005079Y008179D03*
X005069Y008169D03*
X005059Y008169D03*
X005329Y007899D03*
X004579Y007899D03*
D25*
X004779Y008099D03*
X004789Y008099D03*
X005229Y008089D03*
X005319Y008629D03*
X004839Y007349D03*
X004589Y007179D03*
X005319Y007179D03*
D26*
X005319Y007899D03*
X004589Y007899D03*
D27*
X004769Y008094D03*
X004589Y008624D03*
D28*
X004609Y008699D03*
X004859Y008329D03*
X005299Y008699D03*
X005169Y007839D03*
X005009Y007709D03*
X005309Y007139D03*
X005299Y007109D03*
X005289Y007079D03*
X005279Y007049D03*
X004629Y007049D03*
X004619Y007079D03*
X004609Y007109D03*
X004599Y007139D03*
D29*
X004599Y007899D03*
X005309Y007899D03*
D30*
X004799Y008104D03*
X004599Y008664D03*
X005309Y008664D03*
D31*
X004609Y007904D03*
D32*
X004619Y007899D03*
D33*
X004719Y007834D03*
X004839Y007764D03*
X004849Y007774D03*
X004859Y007774D03*
X004869Y007774D03*
X004979Y007694D03*
X004829Y007344D03*
X004639Y007024D03*
X004649Y007004D03*
X004829Y008314D03*
X004849Y008324D03*
X004869Y008334D03*
X004879Y008334D03*
X004619Y008724D03*
X004629Y008754D03*
X005279Y008754D03*
X005289Y008724D03*
D34*
X005279Y007899D03*
X004629Y007899D03*
D35*
X004639Y007899D03*
D36*
X004729Y007849D03*
X004819Y007759D03*
X004829Y007759D03*
X004879Y007779D03*
X004889Y007789D03*
X004899Y007789D03*
X004969Y007679D03*
X004749Y007509D03*
X005269Y007019D03*
X004979Y008249D03*
X004889Y008339D03*
X004839Y008319D03*
X004819Y008309D03*
X004639Y008779D03*
X004649Y008799D03*
D37*
X004649Y007899D03*
D38*
X004809Y007754D03*
X004909Y007794D03*
X004959Y007664D03*
X004809Y007564D03*
X004759Y007514D03*
X004819Y007334D03*
X005129Y007474D03*
X005139Y007474D03*
X005149Y007474D03*
X005149Y007624D03*
X004889Y008154D03*
X004809Y008304D03*
X004899Y008344D03*
X004909Y008354D03*
X004659Y008824D03*
X004669Y008844D03*
X005269Y008784D03*
X004659Y006984D03*
D39*
X004659Y007904D03*
D40*
X004739Y007859D03*
X004749Y007869D03*
X004799Y007749D03*
X004869Y007599D03*
X004849Y007589D03*
X004839Y007579D03*
X004819Y007569D03*
X004799Y007559D03*
X004789Y007549D03*
X004949Y007659D03*
X005049Y007559D03*
X005119Y007609D03*
X005139Y007619D03*
X005119Y007469D03*
X005179Y007829D03*
X004979Y007919D03*
X004879Y008149D03*
X004799Y008299D03*
X004669Y006959D03*
X005259Y006989D03*
D41*
X004669Y007899D03*
D42*
X004789Y007744D03*
X004919Y007794D03*
X004939Y007644D03*
X004929Y007634D03*
X004909Y007624D03*
X004879Y007604D03*
X004859Y007594D03*
X004829Y007574D03*
X004779Y007534D03*
X004769Y007524D03*
X004809Y007334D03*
X005069Y007574D03*
X005079Y007584D03*
X005089Y007594D03*
X005099Y007604D03*
X005109Y007604D03*
X005129Y007614D03*
X004869Y008144D03*
X004969Y008244D03*
X004919Y008354D03*
X004719Y008334D03*
X004679Y008864D03*
X004689Y008884D03*
X005199Y008934D03*
X005209Y008914D03*
X005219Y008894D03*
X005229Y008874D03*
X005239Y008854D03*
X005249Y008834D03*
X005259Y008814D03*
X005249Y006964D03*
X005209Y006884D03*
X005199Y006864D03*
X004699Y006894D03*
X004689Y006914D03*
X004679Y006934D03*
D43*
X004679Y007899D03*
D44*
X004689Y007904D03*
D45*
X004699Y007899D03*
D46*
X004759Y007879D03*
X004769Y007889D03*
X004779Y007899D03*
X004789Y007899D03*
X004799Y007909D03*
X004969Y007919D03*
X004919Y007629D03*
X004899Y007619D03*
X004889Y007609D03*
X005059Y007569D03*
X005109Y007459D03*
X005239Y006949D03*
X005229Y006929D03*
X005219Y006909D03*
X005189Y006849D03*
X004719Y006859D03*
X004709Y006879D03*
X004789Y008289D03*
X004929Y008359D03*
X004699Y008909D03*
D47*
X004709Y007899D03*
D48*
X004809Y007914D03*
X004819Y007924D03*
X004829Y007934D03*
X004839Y007934D03*
X004849Y007944D03*
X004929Y007804D03*
X005059Y007714D03*
X005039Y007524D03*
X005099Y007454D03*
X004779Y007744D03*
X004959Y008244D03*
X004779Y008284D03*
X004829Y008494D03*
X004839Y008494D03*
X004849Y008504D03*
X004709Y008924D03*
X004719Y008944D03*
X004749Y008994D03*
X005179Y008974D03*
X005189Y008954D03*
X005179Y006834D03*
X004749Y006814D03*
X004739Y006824D03*
X004729Y006844D03*
D49*
X005369Y007414D03*
X005149Y007874D03*
X004719Y008114D03*
X005369Y008394D03*
D50*
X005079Y008804D03*
X004749Y008694D03*
X004739Y008674D03*
X004729Y008654D03*
X004719Y008634D03*
D51*
X004729Y008099D03*
X005359Y008449D03*
X005359Y007359D03*
X004939Y007419D03*
X004909Y007389D03*
D52*
X005019Y007479D03*
X005109Y007739D03*
X005119Y007749D03*
X004939Y007909D03*
X004909Y007979D03*
X004889Y007969D03*
X004819Y008059D03*
X004919Y008219D03*
X004929Y008229D03*
X004729Y008349D03*
X004849Y009099D03*
X004869Y009109D03*
X004889Y009119D03*
X004899Y009119D03*
X004919Y009129D03*
X004929Y009129D03*
X004939Y009129D03*
X004949Y009129D03*
X004959Y009129D03*
X004969Y009129D03*
X004979Y009129D03*
X004989Y009129D03*
X005009Y009119D03*
X005019Y009119D03*
X005039Y009109D03*
X005059Y009099D03*
X005059Y006709D03*
X005039Y006699D03*
X005019Y006689D03*
X005009Y006689D03*
X004989Y006679D03*
X004979Y006679D03*
X004939Y006679D03*
X004929Y006679D03*
X004919Y006679D03*
X004899Y006689D03*
X004889Y006689D03*
X004869Y006699D03*
X004849Y006709D03*
D53*
X004769Y006789D03*
X004759Y006799D03*
X005169Y006819D03*
X005069Y007719D03*
X005019Y007739D03*
X005189Y007829D03*
X004959Y007919D03*
X004869Y007959D03*
X004859Y007949D03*
X004809Y008069D03*
X004859Y008139D03*
X004949Y008239D03*
X004819Y008479D03*
X004729Y008959D03*
X004739Y008979D03*
X004759Y009009D03*
X004769Y009019D03*
X005169Y008989D03*
D54*
X005239Y008064D03*
X004739Y007094D03*
X004749Y007074D03*
D55*
X004769Y007639D03*
X004959Y007829D03*
X004969Y007829D03*
X004909Y007899D03*
X005049Y007679D03*
X004949Y008079D03*
X004919Y008109D03*
X004739Y008359D03*
X004939Y008439D03*
X004949Y008439D03*
D56*
X004969Y008434D03*
X004779Y008454D03*
X004909Y008214D03*
X004899Y008204D03*
X004919Y007994D03*
X005069Y007794D03*
X005079Y007794D03*
X005089Y007794D03*
X005199Y007824D03*
X005239Y007624D03*
X005089Y007444D03*
X004999Y007554D03*
X004749Y007624D03*
X004799Y007324D03*
X004949Y006674D03*
X004959Y006674D03*
X004969Y006674D03*
D57*
X004759Y007059D03*
D58*
X004759Y007634D03*
X004919Y007904D03*
X004839Y008054D03*
X004909Y008104D03*
X004959Y008084D03*
X004809Y008174D03*
X005109Y007804D03*
D59*
X004759Y008094D03*
X005339Y008554D03*
X004869Y007364D03*
X004859Y007364D03*
X005339Y007254D03*
D60*
X005099Y007799D03*
X005059Y007789D03*
X004979Y007829D03*
X004949Y007819D03*
X004929Y007909D03*
X004929Y007999D03*
X004969Y008089D03*
X004899Y008109D03*
X004849Y008139D03*
X004829Y008059D03*
X004759Y008279D03*
X004769Y008439D03*
X004959Y008439D03*
D61*
X004759Y008709D03*
X005189Y007169D03*
X004839Y006989D03*
D62*
X004779Y006774D03*
X004789Y006764D03*
X004799Y006754D03*
X004809Y006744D03*
X004819Y006734D03*
X004829Y006724D03*
X004839Y006714D03*
X004859Y006704D03*
X004879Y006694D03*
X004909Y006684D03*
X004999Y006684D03*
X005029Y006694D03*
X005049Y006704D03*
X005069Y006714D03*
X005079Y006724D03*
X005089Y006734D03*
X005099Y006744D03*
X005109Y006754D03*
X005119Y006764D03*
X005129Y006774D03*
X005139Y006784D03*
X005149Y006794D03*
X005159Y006804D03*
X005029Y007504D03*
X004989Y007534D03*
X004979Y007524D03*
X005079Y007724D03*
X005089Y007724D03*
X005099Y007734D03*
X005129Y007754D03*
X004939Y007814D03*
X004949Y007914D03*
X004899Y007974D03*
X004879Y007964D03*
X004979Y008084D03*
X004939Y008234D03*
X004939Y008364D03*
X004979Y008434D03*
X004809Y008474D03*
X004799Y008464D03*
X004789Y008464D03*
X004769Y008284D03*
X004769Y007744D03*
X004779Y009034D03*
X004789Y009044D03*
X004799Y009054D03*
X004809Y009064D03*
X004819Y009074D03*
X004829Y009084D03*
X004839Y009094D03*
X004859Y009104D03*
X004879Y009114D03*
X004909Y009124D03*
X004999Y009124D03*
X005029Y009114D03*
X005049Y009104D03*
X005069Y009094D03*
X005079Y009084D03*
X005089Y009074D03*
X005099Y009064D03*
X005109Y009054D03*
X005119Y009044D03*
X005129Y009034D03*
X005139Y009024D03*
X005149Y009014D03*
X005159Y009004D03*
D63*
X005069Y008804D03*
X004789Y008754D03*
X004779Y008734D03*
X004769Y008724D03*
X005179Y007154D03*
X004859Y006984D03*
X004849Y006984D03*
D64*
X004779Y007034D03*
X005219Y007224D03*
X005269Y007384D03*
X005379Y008294D03*
D65*
X005099Y008799D03*
X005379Y007509D03*
X004789Y007019D03*
D66*
X004799Y007014D03*
X004809Y007004D03*
X004819Y007004D03*
X005209Y007204D03*
X004989Y007814D03*
D67*
X004989Y008259D03*
X004799Y008759D03*
X004809Y008769D03*
X004819Y008779D03*
X005059Y008809D03*
X004869Y006979D03*
D68*
X004829Y006999D03*
X005199Y007189D03*
X005089Y008799D03*
D69*
X004839Y008794D03*
X004829Y008784D03*
X005169Y007144D03*
X004879Y006984D03*
D70*
X004849Y007359D03*
X005229Y007609D03*
X005329Y007219D03*
X005329Y008589D03*
D71*
X004919Y008784D03*
X004899Y008774D03*
X004889Y008764D03*
X004879Y008764D03*
X004869Y008754D03*
X004859Y008754D03*
X005069Y007064D03*
D72*
X004889Y007374D03*
X004899Y007384D03*
X005159Y007864D03*
D73*
X005149Y007114D03*
X004899Y006974D03*
X005039Y008804D03*
D74*
X005029Y008809D03*
X004909Y006979D03*
D75*
X004919Y006979D03*
X005129Y007099D03*
X005009Y008809D03*
D76*
X004999Y008804D03*
X004929Y006984D03*
D77*
X004939Y006989D03*
X005119Y007089D03*
X005219Y008509D03*
D78*
X004989Y008804D03*
X004979Y008804D03*
X005109Y007084D03*
X004949Y006994D03*
D79*
X004959Y006999D03*
X005089Y007079D03*
X005099Y007079D03*
X004969Y008799D03*
X004959Y008799D03*
D80*
X005009Y007119D03*
X004979Y007109D03*
D81*
X004989Y007104D03*
D82*
X004999Y007109D03*
X005159Y008539D03*
D83*
X004999Y008054D03*
D84*
X005009Y008149D03*
X005019Y008149D03*
D85*
X005019Y007079D03*
D86*
X005139Y007104D03*
X005229Y008494D03*
X005019Y008804D03*
D87*
X005029Y007074D03*
D88*
X005029Y008144D03*
X005039Y008144D03*
X005049Y008154D03*
X005099Y008184D03*
D89*
X005189Y008529D03*
X005039Y007069D03*
D90*
X005049Y007069D03*
D91*
X005059Y007064D03*
D92*
X005109Y008404D03*
D93*
X005119Y008399D03*
X005129Y008379D03*
D94*
X005139Y008334D03*
D95*
X005149Y008524D03*
D96*
X005199Y007599D03*
X005169Y007569D03*
X005159Y007559D03*
D97*
X005179Y008534D03*
D98*
X005199Y008529D03*
X005419Y007899D03*
D99*
X005219Y007634D03*
X005209Y007614D03*
D100*
X005249Y007299D03*
X005239Y007269D03*
X005229Y007239D03*
D101*
X005249Y008259D03*
D102*
X005259Y008204D03*
D103*
X005269Y008144D03*
D104*
X005289Y007904D03*
D105*
X005299Y007899D03*
D106*
X005399Y007899D03*
D107*
X005409Y007904D03*
D108*
X010983Y004553D02*
X011953Y004553D01*
D109*
X006735Y009497D02*
X006558Y009497D01*
X006570Y009489D02*
X006726Y009489D01*
X006728Y009490D02*
X006704Y009473D01*
X006677Y009463D01*
X006648Y009459D01*
X006619Y009463D01*
X006592Y009474D01*
X006523Y009521D01*
X006462Y009578D01*
X006444Y009593D01*
X006423Y009603D01*
X006400Y009607D01*
X006377Y009606D01*
X006355Y009598D01*
X006336Y009585D01*
X006321Y009567D01*
X006309Y009545D01*
X006301Y009521D01*
X006297Y009496D01*
X006298Y009467D01*
X006307Y009439D01*
X006322Y009414D01*
X006336Y009401D01*
X006353Y009392D01*
X006371Y009388D01*
X006389Y009388D01*
X006406Y009392D01*
X006413Y009396D01*
X006418Y009401D01*
X006442Y009434D01*
X006445Y009440D01*
X006447Y009447D01*
X006446Y009454D01*
X006449Y009435D01*
X006452Y009398D01*
X006449Y009361D01*
X006442Y009334D01*
X006429Y009308D01*
X006412Y009286D01*
X006390Y009267D01*
X006361Y009251D01*
X006330Y009242D01*
X006297Y009239D01*
X005700Y009239D01*
X005916Y009431D01*
X005947Y009465D01*
X005971Y009505D01*
X005976Y009520D01*
X005979Y009535D01*
X005979Y009625D01*
X005984Y009679D01*
X005998Y009731D01*
X006022Y009779D01*
X006054Y009825D01*
X006092Y009865D01*
X006136Y009900D01*
X006202Y009937D01*
X006274Y009962D01*
X006349Y009973D01*
X006425Y009971D01*
X006466Y009963D01*
X006505Y009949D01*
X006542Y009929D01*
X006587Y009893D01*
X006623Y009849D01*
X006588Y009849D01*
X006582Y009848D01*
X006577Y009846D01*
X006563Y009834D01*
X006552Y009819D01*
X006549Y009811D01*
X006547Y009788D01*
X006551Y009766D01*
X006561Y009746D01*
X006587Y009710D01*
X006601Y009693D01*
X006618Y009679D01*
X006637Y009668D01*
X006657Y009659D01*
X006670Y009656D01*
X006683Y009657D01*
X006705Y009664D01*
X006724Y009676D01*
X006800Y009676D01*
X006800Y009681D02*
X006803Y009646D01*
X006800Y009612D01*
X006791Y009579D01*
X006776Y009548D01*
X006754Y009517D01*
X006728Y009490D01*
X006714Y009480D02*
X006583Y009480D01*
X006597Y009472D02*
X006701Y009472D01*
X006679Y009463D02*
X006618Y009463D01*
X006545Y009506D02*
X006743Y009506D01*
X006751Y009514D02*
X006532Y009514D01*
X006521Y009523D02*
X006758Y009523D01*
X006764Y009531D02*
X006512Y009531D01*
X006503Y009540D02*
X006770Y009540D01*
X006776Y009548D02*
X006494Y009548D01*
X006485Y009557D02*
X006780Y009557D01*
X006785Y009565D02*
X006475Y009565D01*
X006466Y009574D02*
X006789Y009574D01*
X006792Y009582D02*
X006457Y009582D01*
X006447Y009591D02*
X006795Y009591D01*
X006797Y009599D02*
X006431Y009599D01*
X006360Y009599D02*
X005979Y009599D01*
X005979Y009591D02*
X006345Y009591D01*
X006334Y009582D02*
X005979Y009582D01*
X005979Y009574D02*
X006327Y009574D01*
X006320Y009565D02*
X005979Y009565D01*
X005979Y009557D02*
X006316Y009557D01*
X006311Y009548D02*
X005979Y009548D01*
X005979Y009540D02*
X006307Y009540D01*
X006304Y009531D02*
X005978Y009531D01*
X005977Y009523D02*
X006302Y009523D01*
X006300Y009514D02*
X005974Y009514D01*
X005971Y009506D02*
X006299Y009506D01*
X006297Y009497D02*
X005966Y009497D01*
X005961Y009489D02*
X006297Y009489D01*
X006298Y009480D02*
X005956Y009480D01*
X005951Y009472D02*
X006298Y009472D01*
X006300Y009463D02*
X005946Y009463D01*
X005938Y009455D02*
X006302Y009455D01*
X006305Y009446D02*
X005930Y009446D01*
X005922Y009438D02*
X006308Y009438D01*
X006313Y009429D02*
X005914Y009429D01*
X005905Y009421D02*
X006318Y009421D01*
X006324Y009412D02*
X005895Y009412D01*
X005885Y009404D02*
X006333Y009404D01*
X006347Y009395D02*
X005876Y009395D01*
X005866Y009387D02*
X006451Y009387D01*
X006452Y009395D02*
X006412Y009395D01*
X006420Y009404D02*
X006451Y009404D01*
X006451Y009412D02*
X006426Y009412D01*
X006432Y009421D02*
X006450Y009421D01*
X006449Y009429D02*
X006439Y009429D01*
X006444Y009438D02*
X006449Y009438D01*
X006447Y009446D02*
X006447Y009446D01*
X006450Y009378D02*
X005857Y009378D01*
X005847Y009370D02*
X006450Y009370D01*
X006449Y009361D02*
X005838Y009361D01*
X005828Y009353D02*
X006447Y009353D01*
X006445Y009344D02*
X005818Y009344D01*
X005809Y009336D02*
X006442Y009336D01*
X006439Y009327D02*
X005799Y009327D01*
X005790Y009319D02*
X006435Y009319D01*
X006430Y009310D02*
X005780Y009310D01*
X005771Y009302D02*
X006424Y009302D01*
X006418Y009293D02*
X005761Y009293D01*
X005752Y009285D02*
X006411Y009285D01*
X006401Y009276D02*
X005742Y009276D01*
X005732Y009268D02*
X006391Y009268D01*
X006376Y009259D02*
X005723Y009259D01*
X005713Y009251D02*
X006360Y009251D01*
X006332Y009242D02*
X005704Y009242D01*
X005979Y009608D02*
X006799Y009608D01*
X006801Y009616D02*
X005979Y009616D01*
X005979Y009625D02*
X006801Y009625D01*
X006802Y009633D02*
X005980Y009633D01*
X005981Y009642D02*
X006803Y009642D01*
X006803Y009650D02*
X005981Y009650D01*
X005982Y009659D02*
X006658Y009659D01*
X006637Y009667D02*
X005983Y009667D01*
X005984Y009676D02*
X006623Y009676D01*
X006612Y009684D02*
X005985Y009684D01*
X005988Y009693D02*
X006602Y009693D01*
X006594Y009701D02*
X005990Y009701D01*
X005993Y009710D02*
X006587Y009710D01*
X006581Y009718D02*
X005995Y009718D01*
X005997Y009727D02*
X006575Y009727D01*
X006569Y009735D02*
X006001Y009735D01*
X006005Y009744D02*
X006563Y009744D01*
X006558Y009752D02*
X006009Y009752D01*
X006013Y009761D02*
X006553Y009761D01*
X006550Y009769D02*
X006017Y009769D01*
X006021Y009778D02*
X006549Y009778D01*
X006547Y009786D02*
X006027Y009786D01*
X006033Y009795D02*
X006547Y009795D01*
X006548Y009803D02*
X006039Y009803D01*
X006045Y009812D02*
X006549Y009812D01*
X006553Y009820D02*
X006051Y009820D01*
X006058Y009829D02*
X006559Y009829D01*
X006566Y009837D02*
X006066Y009837D01*
X006074Y009846D02*
X006577Y009846D01*
X006605Y009871D02*
X006100Y009871D01*
X006090Y009863D02*
X006612Y009863D01*
X006619Y009854D02*
X006082Y009854D01*
X006111Y009880D02*
X006598Y009880D01*
X006591Y009888D02*
X006121Y009888D01*
X006132Y009897D02*
X006582Y009897D01*
X006572Y009905D02*
X006145Y009905D01*
X006161Y009914D02*
X006561Y009914D01*
X006550Y009922D02*
X006176Y009922D01*
X006191Y009931D02*
X006539Y009931D01*
X006523Y009939D02*
X006208Y009939D01*
X006233Y009948D02*
X006507Y009948D01*
X006484Y009956D02*
X006257Y009956D01*
X006293Y009965D02*
X006456Y009965D01*
X006351Y009973D02*
X006349Y009973D01*
X006758Y009777D02*
X006758Y009777D01*
X006759Y009776D01*
X006772Y009759D01*
X006781Y009739D01*
X006787Y009725D01*
X006791Y009716D01*
X006800Y009681D01*
X006799Y009684D02*
X006732Y009684D01*
X006739Y009692D02*
X006750Y009712D01*
X006756Y009732D01*
X006758Y009753D01*
X006758Y009777D01*
X006758Y009769D02*
X006764Y009769D01*
X006758Y009761D02*
X006771Y009761D01*
X006775Y009752D02*
X006758Y009752D01*
X006757Y009744D02*
X006779Y009744D01*
X006783Y009735D02*
X006756Y009735D01*
X006754Y009727D02*
X006786Y009727D01*
X006790Y009718D02*
X006752Y009718D01*
X006749Y009710D02*
X006793Y009710D01*
X006795Y009701D02*
X006744Y009701D01*
X006740Y009693D02*
X006797Y009693D01*
X006801Y009667D02*
X006711Y009667D01*
X006724Y009676D02*
X006739Y009692D01*
X006689Y009659D02*
X006802Y009659D01*
D110*
X006191Y008955D02*
X006210Y008765D01*
X006274Y008744D01*
X006334Y008713D01*
X006483Y008834D01*
X006584Y008733D01*
X006463Y008584D01*
X006494Y008524D01*
X006515Y008460D01*
X006705Y008441D01*
X006705Y008297D01*
X006515Y008278D01*
X006494Y008214D01*
X006463Y008154D01*
X006584Y008005D01*
X006483Y007904D01*
X006334Y008025D01*
X006274Y007994D01*
X006210Y007973D01*
X006191Y007783D01*
X006047Y007783D01*
X006028Y007973D01*
X005964Y007994D01*
X005904Y008025D01*
X005755Y007904D01*
X005654Y008005D01*
X005775Y008154D01*
X005744Y008214D01*
X005949Y008298D01*
X005970Y008261D01*
X005999Y008229D01*
X006035Y008205D01*
X006076Y008190D01*
X006119Y008184D01*
X006163Y008190D01*
X006204Y008205D01*
X006241Y008230D01*
X006270Y008263D01*
X006291Y008302D01*
X006302Y008345D01*
X006302Y008389D01*
X006292Y008432D01*
X006272Y008472D01*
X006244Y008505D01*
X006208Y008531D01*
X006167Y008547D01*
X006123Y008553D01*
X006079Y008549D01*
X006037Y008535D01*
X006000Y008510D01*
X005970Y008478D01*
X005949Y008440D01*
X005744Y008524D01*
X005775Y008584D01*
X005654Y008733D01*
X005755Y008834D01*
X005904Y008713D01*
X005964Y008744D01*
X006028Y008765D01*
X006047Y008955D01*
X006191Y008955D01*
X006193Y008935D02*
X006045Y008935D01*
X006039Y008877D02*
X006199Y008877D01*
X006205Y008820D02*
X006033Y008820D01*
X006020Y008762D02*
X006218Y008762D01*
X006394Y008762D02*
X006555Y008762D01*
X006562Y008705D02*
X005676Y008705D01*
X005683Y008762D02*
X005844Y008762D01*
X005773Y008820D02*
X005741Y008820D01*
X005723Y008647D02*
X006515Y008647D01*
X006468Y008590D02*
X005770Y008590D01*
X005748Y008532D02*
X006034Y008532D01*
X005968Y008475D02*
X005864Y008475D01*
X005818Y008244D02*
X005985Y008244D01*
X006099Y008187D02*
X005758Y008187D01*
X005755Y008129D02*
X006483Y008129D01*
X006480Y008187D02*
X006138Y008187D01*
X006253Y008244D02*
X006504Y008244D01*
X006530Y008072D02*
X005708Y008072D01*
X005661Y008014D02*
X005891Y008014D01*
X005924Y008014D02*
X006314Y008014D01*
X006347Y008014D02*
X006577Y008014D01*
X006535Y007957D02*
X006418Y007957D01*
X006209Y007957D02*
X006029Y007957D01*
X006035Y007899D02*
X006203Y007899D01*
X006197Y007841D02*
X006041Y007841D01*
X006047Y007784D02*
X006191Y007784D01*
X005820Y007957D02*
X005703Y007957D01*
X006204Y008532D02*
X006490Y008532D01*
X006510Y008475D02*
X006270Y008475D01*
X006296Y008417D02*
X006705Y008417D01*
X006705Y008359D02*
X006302Y008359D01*
X006291Y008302D02*
X006705Y008302D01*
X006497Y008820D02*
X006465Y008820D01*
D111*
X009042Y008559D02*
X009042Y007181D01*
X009357Y007574D02*
X009830Y007574D01*
X009357Y007574D02*
X009357Y008559D01*
X009042Y008559D01*
X011404Y007574D02*
X011877Y007574D01*
X011877Y008559D01*
X012192Y008559D01*
X012192Y007181D01*
X011404Y005606D02*
X009830Y005606D01*
X008771Y004864D02*
X008771Y004549D01*
X007786Y004549D01*
X007786Y004076D01*
X007393Y004864D02*
X008771Y004864D01*
X007786Y002502D02*
X007786Y002029D01*
X008771Y002029D01*
X008771Y001714D01*
X007393Y001714D01*
X005818Y002502D02*
X005818Y004076D01*
M02*
