%
M48
M72
T01C0.0197
T02C0.0236
T03C0.0400
%
T01
X3609Y4059
X4059Y4559
X4309Y4209
X4319Y4929
X5069Y5899
X4209Y7209
X4259Y8909
X4409Y9409
X5109Y9684
X4709Y10159
X6159Y11309
X6009Y11759
X6509Y10859
X6909Y10459
X7359Y12009
X6859Y12459
X7209Y12709
X8449Y13049
X9159Y12759
X9409Y11659
X10409Y12559
X11309Y11609
X10509Y11359
X10609Y10509
X9909Y10259
X9809Y9809
X9209Y9909
X7259Y8559
X7259Y8159
X7309Y7659
X7209Y7059
X6809Y7209
X7259Y6409
X7159Y5699
X7709Y5559
X7579Y5099
X7599Y4409
X7169Y3149
X8109Y2059
X10279Y2819
X10569Y2409
X10509Y3559
X8609Y5859
X7919Y6409
X6109Y8359
X4459Y12209
X4809Y12559
X5259Y12859
X1909Y9109
X1589Y8759
X1909Y6509
X1759Y5609
X5449Y2379
X5729Y2729
X5369Y1829
T02
X10103Y6893
X11013Y6963
T03
X12834Y7034
X12834Y6034
X12834Y5034
X12834Y8034
X12834Y9034
X12834Y10034
X3059Y9809
X3059Y8809
X3059Y7809
X3059Y6809
X3059Y5809
X3059Y10809
M30
