G75*
G70*
%OFA0B0*%
%FSLAX24Y24*%
%IPPOS*%
%LPD*%
%AMOC8*
5,1,8,0,0,1.08239X$1,22.5*
%
%ADD10C,0.0800*%
%ADD11R,0.0454X0.1871*%
%ADD12R,0.0690X0.1399*%
%ADD13R,0.1871X0.0454*%
%ADD14R,0.1399X0.0690*%
%ADD15R,0.0611X0.0611*%
%ADD16C,0.0417*%
%ADD17C,0.0456*%
D10*
X003069Y006768D03*
X003069Y007768D03*
X003069Y008768D03*
X003069Y009768D03*
X003069Y010768D03*
X003069Y011768D03*
X012844Y010993D03*
X012844Y009993D03*
X012844Y008993D03*
X012844Y007993D03*
X012844Y006993D03*
X012844Y005993D03*
D11*
X011011Y009192D03*
X010223Y009192D03*
D12*
X009278Y007145D03*
X011956Y007145D03*
D13*
X008456Y004631D03*
X008456Y003844D03*
D14*
X006408Y002899D03*
X006408Y005576D03*
D15*
G36*
X011571Y003899D02*
X011140Y003468D01*
X010709Y003899D01*
X011140Y004330D01*
X011571Y003899D01*
G37*
G36*
X012629Y004956D02*
X012198Y004525D01*
X011767Y004956D01*
X012198Y005387D01*
X012629Y004956D01*
G37*
D16*
X003619Y005018D03*
X004069Y005518D03*
X004319Y005168D03*
X004369Y005868D03*
X004219Y006418D03*
X005079Y006858D03*
X004219Y008168D03*
X004269Y009868D03*
X004419Y010368D03*
X005119Y010643D03*
X004719Y011118D03*
X006169Y012268D03*
X006519Y011818D03*
X006919Y011418D03*
X006019Y012718D03*
X006869Y013418D03*
X007219Y013668D03*
X007369Y012968D03*
X008459Y014008D03*
X009169Y013718D03*
X009419Y012618D03*
X010419Y013518D03*
X011319Y012568D03*
X010519Y012318D03*
X010619Y011468D03*
X009919Y011218D03*
X009819Y010768D03*
X009219Y010868D03*
X007269Y009518D03*
X007269Y009118D03*
X007319Y008618D03*
X007219Y008018D03*
X006819Y008168D03*
X006429Y007648D03*
X007269Y007368D03*
X007929Y007368D03*
X008619Y006818D03*
X007719Y006518D03*
X007589Y006058D03*
X007169Y006648D03*
X007609Y005368D03*
X007169Y004118D03*
X008119Y003018D03*
X010289Y003778D03*
X010579Y003368D03*
X010519Y004518D03*
X006119Y009318D03*
X004469Y013168D03*
X004819Y013518D03*
X005269Y013818D03*
X001919Y010068D03*
X001619Y009718D03*
X001919Y007468D03*
X001769Y006568D03*
X005459Y003338D03*
X005739Y003688D03*
X005379Y002788D03*
D17*
X010113Y007852D03*
X011023Y007922D03*
M02*
