G75*
G70*
%OFA0B0*%
%FSLAX24Y24*%
%IPPOS*%
%LPD*%
%AMOC8*
5,1,8,0,0,1.08239X$1,22.5*
%
%ADD10C,0.0740*%
%ADD11R,0.0394X0.1811*%
%ADD12R,0.0630X0.1339*%
%ADD13R,0.1811X0.0394*%
%ADD14R,0.1339X0.0630*%
%ADD15R,0.0551X0.0551*%
%ADD16C,0.0357*%
%ADD17C,0.0080*%
%ADD18C,0.0320*%
%ADD19C,0.0240*%
%ADD20C,0.0396*%
%ADD21C,0.0100*%
%ADD22C,0.0120*%
D10*
X002616Y005799D03*
X002616Y006799D03*
X002616Y007799D03*
X002616Y008799D03*
X002616Y009799D03*
X002616Y010799D03*
X012391Y010024D03*
X012391Y009024D03*
X012391Y008024D03*
X012391Y007024D03*
X012391Y006024D03*
X012391Y005024D03*
D11*
X010558Y008224D03*
X009770Y008224D03*
D12*
X008825Y006176D03*
X011503Y006176D03*
D13*
X008003Y003663D03*
X008003Y002875D03*
D14*
X005955Y001930D03*
X005955Y004608D03*
D15*
G36*
X011075Y002930D02*
X010687Y002542D01*
X010299Y002930D01*
X010687Y003318D01*
X011075Y002930D01*
G37*
G36*
X012133Y003988D02*
X011745Y003600D01*
X011357Y003988D01*
X011745Y004376D01*
X012133Y003988D01*
G37*
D16*
X010066Y003549D03*
X009836Y002809D03*
X010126Y002399D03*
X007666Y002049D03*
X006716Y003149D03*
X007156Y004399D03*
X007136Y005089D03*
X007266Y005549D03*
X006716Y005679D03*
X006816Y006399D03*
X006766Y007049D03*
X006366Y007199D03*
X005976Y006679D03*
X006866Y007649D03*
X006816Y008149D03*
X006816Y008549D03*
X005666Y008349D03*
X004666Y009674D03*
X004266Y010149D03*
X003966Y009399D03*
X003816Y008899D03*
X003766Y007199D03*
X004626Y005889D03*
X003766Y005449D03*
X003916Y004899D03*
X003616Y004549D03*
X003866Y004199D03*
X003166Y004049D03*
X001316Y005599D03*
X001466Y006499D03*
X001166Y008749D03*
X001466Y009099D03*
X004016Y012199D03*
X004366Y012549D03*
X004816Y012849D03*
X005566Y011749D03*
X005716Y011299D03*
X006066Y010849D03*
X006466Y010449D03*
X006916Y011999D03*
X006416Y012449D03*
X006766Y012699D03*
X008006Y013039D03*
X008716Y012749D03*
X008966Y011649D03*
X009966Y012549D03*
X010866Y011599D03*
X010066Y011349D03*
X010166Y010499D03*
X009466Y010249D03*
X009366Y009799D03*
X008766Y009899D03*
X007476Y006399D03*
X008166Y005849D03*
X005286Y002719D03*
X005006Y002369D03*
X004926Y001819D03*
D17*
X006937Y002684D02*
X002586Y002684D01*
X002668Y002606D02*
X006944Y002606D01*
X006937Y002612D02*
X007031Y002518D01*
X007391Y002518D01*
X007388Y002250D01*
X007379Y002241D01*
X007328Y002116D01*
X007328Y001982D01*
X007379Y001857D01*
X007474Y001762D01*
X007599Y001711D01*
X007733Y001711D01*
X007858Y001762D01*
X007953Y001857D01*
X008004Y001982D01*
X008004Y002116D01*
X007953Y002241D01*
X007948Y002246D01*
X007951Y002504D01*
X007972Y002518D01*
X008974Y002518D01*
X009068Y002612D01*
X009068Y003138D01*
X008974Y003232D01*
X007048Y003232D01*
X007003Y003341D01*
X006908Y003436D01*
X006783Y003487D01*
X006779Y003487D01*
X006814Y003536D01*
X006866Y003588D01*
X006866Y003607D01*
X006957Y003732D01*
X006957Y003703D01*
X007963Y003703D01*
X007963Y003623D01*
X008043Y003623D01*
X008043Y003703D01*
X009048Y003703D01*
X009048Y003829D01*
X009307Y003829D01*
X009446Y003685D01*
X009446Y002938D01*
X009428Y002900D01*
X009446Y002851D01*
X009446Y002798D01*
X009476Y002768D01*
X009490Y002729D01*
X009506Y002721D01*
X009549Y002617D01*
X009644Y002522D01*
X009769Y002471D01*
X009789Y002471D01*
X009788Y002466D01*
X009788Y002332D01*
X009839Y002207D01*
X009934Y002112D01*
X010059Y002061D01*
X010193Y002061D01*
X010318Y002112D01*
X010413Y002207D01*
X010423Y002231D01*
X010611Y002390D01*
X010621Y002380D01*
X010753Y002380D01*
X011237Y002864D01*
X011237Y002996D01*
X010990Y003243D01*
X010995Y003740D01*
X010996Y003741D01*
X010996Y003795D01*
X010997Y003850D01*
X010996Y003851D01*
X010996Y003853D01*
X010975Y003903D01*
X010955Y003953D01*
X010954Y003954D01*
X010953Y003956D01*
X010915Y003994D01*
X010877Y004033D01*
X010876Y004033D01*
X009940Y004969D01*
X009940Y006657D01*
X009964Y006680D01*
X010018Y006812D01*
X010018Y006954D01*
X009964Y007086D01*
X009871Y007178D01*
X009986Y007178D01*
X010021Y007188D01*
X010053Y007206D01*
X010079Y007232D01*
X010098Y007264D01*
X010107Y007300D01*
X010107Y008184D01*
X009810Y008184D01*
X009810Y008264D01*
X009730Y008264D01*
X009730Y008184D01*
X009433Y008184D01*
X009433Y007300D01*
X009443Y007264D01*
X009461Y007232D01*
X009488Y007206D01*
X009495Y007202D01*
X009457Y007187D01*
X009356Y007086D01*
X009302Y006954D01*
X009302Y006812D01*
X009356Y006680D01*
X009380Y006657D01*
X009380Y004797D01*
X009423Y004694D01*
X009488Y004629D01*
X007405Y004629D01*
X007348Y004686D01*
X007223Y004737D01*
X007089Y004737D01*
X006964Y004686D01*
X006869Y004591D01*
X006818Y004466D01*
X006818Y004332D01*
X006844Y004269D01*
X006825Y004269D01*
X006811Y004255D01*
X006792Y004252D01*
X006785Y004242D01*
X006785Y004989D01*
X006691Y005083D01*
X005441Y005083D01*
X005817Y005459D01*
X006457Y005459D01*
X006524Y005392D01*
X006649Y005341D01*
X006783Y005341D01*
X006908Y005392D01*
X006948Y005432D01*
X006967Y005385D01*
X006944Y005376D01*
X006849Y005281D01*
X006798Y005156D01*
X006798Y005022D01*
X006849Y004897D01*
X006944Y004802D01*
X007069Y004751D01*
X007203Y004751D01*
X007328Y004802D01*
X007401Y004875D01*
X007566Y004879D01*
X007653Y004877D01*
X007657Y004881D01*
X007662Y004881D01*
X007722Y004944D01*
X007904Y005119D01*
X007907Y005119D01*
X007970Y005182D01*
X008034Y005243D01*
X008034Y005246D01*
X008036Y005248D01*
X008036Y005337D01*
X008038Y005426D01*
X008036Y005428D01*
X008036Y005537D01*
X008099Y005511D01*
X008233Y005511D01*
X008350Y005559D01*
X008350Y005441D01*
X008444Y005347D01*
X009207Y005347D01*
X009300Y005441D01*
X009300Y006912D01*
X009207Y007006D01*
X008444Y007006D01*
X008350Y006912D01*
X008350Y006139D01*
X008286Y006166D01*
X008286Y009558D01*
X008466Y009738D01*
X008479Y009707D01*
X008574Y009612D01*
X008699Y009561D01*
X008833Y009561D01*
X008958Y009612D01*
X009042Y009697D01*
X009079Y009607D01*
X009174Y009512D01*
X009299Y009461D01*
X009433Y009461D01*
X009558Y009512D01*
X009635Y009589D01*
X010267Y009589D01*
X010567Y009289D01*
X010295Y009289D01*
X010201Y009196D01*
X010201Y007252D01*
X010248Y007205D01*
X010248Y007113D01*
X010212Y007024D01*
X010212Y006882D01*
X010266Y006750D01*
X010367Y006649D01*
X010499Y006595D01*
X010641Y006595D01*
X010773Y006649D01*
X010874Y006750D01*
X010928Y006882D01*
X010928Y007024D01*
X010888Y007120D01*
X010887Y007225D01*
X010915Y007252D01*
X010915Y008983D01*
X011535Y008983D01*
X011556Y008962D01*
X011556Y008562D01*
X011679Y008439D01*
X011898Y008220D01*
X011861Y008129D01*
X011861Y007919D01*
X011942Y007724D01*
X012091Y007575D01*
X012213Y007524D01*
X012091Y007473D01*
X011942Y007324D01*
X011861Y007129D01*
X011861Y007006D01*
X011121Y007006D01*
X011028Y006912D01*
X011028Y005441D01*
X011121Y005347D01*
X011884Y005347D01*
X011978Y005441D01*
X011978Y005725D01*
X012002Y005692D01*
X012059Y005635D01*
X012124Y005588D01*
X012195Y005551D01*
X012272Y005527D01*
X012288Y005524D01*
X012272Y005521D01*
X012195Y005497D01*
X012124Y005460D01*
X012059Y005413D01*
X012002Y005356D01*
X011955Y005291D01*
X011918Y005220D01*
X011894Y005143D01*
X011881Y005064D01*
X012351Y005064D01*
X012351Y004984D01*
X011881Y004984D01*
X011881Y004984D01*
X011894Y004905D01*
X011918Y004828D01*
X011955Y004757D01*
X012002Y004692D01*
X012059Y004635D01*
X012117Y004593D01*
X012014Y004593D01*
X011911Y004550D01*
X011855Y004494D01*
X011811Y004538D01*
X011679Y004538D01*
X011195Y004054D01*
X011195Y003922D01*
X011679Y003438D01*
X011811Y003438D01*
X012295Y003922D01*
X012295Y004033D01*
X012686Y004033D01*
X012789Y004076D01*
X012867Y004154D01*
X012923Y004210D01*
X012668Y003784D01*
X012110Y003083D01*
X011464Y002463D01*
X010741Y001935D01*
X009954Y001508D01*
X009567Y001346D01*
X009537Y001333D01*
X009488Y001315D01*
X009485Y001312D01*
X009481Y001310D01*
X009445Y001274D01*
X009407Y001239D01*
X009406Y001235D01*
X009403Y001232D01*
X009397Y001218D01*
X008987Y001081D01*
X008380Y000938D01*
X007763Y000852D01*
X007140Y000823D01*
X006517Y000852D01*
X005900Y000938D01*
X005293Y001081D01*
X004883Y001218D01*
X004877Y001232D01*
X004874Y001235D01*
X004873Y001239D01*
X004835Y001274D01*
X004799Y001310D01*
X004795Y001312D01*
X004792Y001315D01*
X004743Y001333D01*
X004713Y001346D01*
X004326Y001508D01*
X003539Y001935D01*
X002816Y002463D01*
X002170Y003083D01*
X001612Y003784D01*
X001152Y004553D01*
X000799Y005376D01*
X000559Y006239D01*
X000437Y007126D01*
X000420Y007573D01*
X000437Y008020D01*
X000559Y008907D01*
X000799Y009770D01*
X001152Y010593D01*
X001612Y011362D01*
X002170Y012063D01*
X002816Y012683D01*
X003539Y013211D01*
X004326Y013638D01*
X004713Y013800D01*
X004743Y013813D01*
X004792Y013831D01*
X004795Y013834D01*
X004799Y013836D01*
X004835Y013872D01*
X004873Y013908D01*
X004874Y013911D01*
X004877Y013914D01*
X004883Y013928D01*
X005293Y014065D01*
X005900Y014208D01*
X006517Y014294D01*
X007140Y014323D01*
X007763Y014294D01*
X008380Y014208D01*
X008987Y014065D01*
X009397Y013928D01*
X009403Y013914D01*
X009406Y013911D01*
X009407Y013908D01*
X009445Y013872D01*
X009481Y013836D01*
X009485Y013834D01*
X009488Y013831D01*
X009537Y013813D01*
X009567Y013800D01*
X009954Y013638D01*
X010741Y013211D01*
X011464Y012683D01*
X012110Y012063D01*
X012668Y011362D01*
X013128Y010593D01*
X013481Y009770D01*
X013721Y008907D01*
X013843Y008020D01*
X013860Y007573D01*
X013843Y007126D01*
X013721Y006239D01*
X013481Y005376D01*
X013331Y005028D01*
X013340Y006968D01*
X013340Y007024D01*
X013340Y007078D01*
X013340Y007079D01*
X013340Y007080D01*
X013837Y007080D01*
X013845Y007159D02*
X013307Y007159D01*
X013298Y007182D02*
X013298Y007182D01*
X013297Y007183D01*
X013258Y007222D01*
X013220Y007261D01*
X013219Y007261D01*
X013219Y007261D01*
X013168Y007283D01*
X013117Y007304D01*
X013116Y007304D01*
X013061Y007304D01*
X013006Y007304D01*
X013005Y007304D01*
X012849Y007304D01*
X012840Y007324D01*
X012691Y007473D01*
X012569Y007524D01*
X012691Y007575D01*
X012840Y007724D01*
X012921Y007919D01*
X012921Y008129D01*
X012840Y008324D01*
X012691Y008473D01*
X012569Y008524D01*
X012691Y008575D01*
X012840Y008724D01*
X012921Y008919D01*
X012921Y009129D01*
X012840Y009324D01*
X012691Y009473D01*
X012569Y009524D01*
X012691Y009575D01*
X012840Y009724D01*
X012921Y009919D01*
X012921Y010129D01*
X012840Y010324D01*
X012691Y010473D01*
X012496Y010554D01*
X012286Y010554D01*
X012091Y010473D01*
X011942Y010324D01*
X011861Y010129D01*
X011861Y009919D01*
X011942Y009724D01*
X012056Y009609D01*
X011171Y009609D01*
X010650Y010130D01*
X010527Y010253D01*
X010399Y010253D01*
X010453Y010307D01*
X010504Y010432D01*
X010504Y010566D01*
X010453Y010691D01*
X010361Y010783D01*
X010839Y011261D01*
X010933Y011261D01*
X011058Y011312D01*
X011153Y011407D01*
X011204Y011532D01*
X011204Y011666D01*
X011153Y011791D01*
X011058Y011886D01*
X010933Y011937D01*
X010799Y011937D01*
X010674Y011886D01*
X010579Y011791D01*
X010528Y011666D01*
X010528Y011572D01*
X010395Y011439D01*
X010353Y011541D01*
X010258Y011636D01*
X010133Y011687D01*
X009999Y011687D01*
X009936Y011661D01*
X009936Y012208D01*
X009939Y012211D01*
X010033Y012211D01*
X010158Y012262D01*
X010253Y012357D01*
X010304Y012482D01*
X010304Y012616D01*
X010253Y012741D01*
X010158Y012836D01*
X010033Y012887D01*
X009899Y012887D01*
X009774Y012836D01*
X009679Y012741D01*
X009628Y012616D01*
X009628Y012522D01*
X009496Y012390D01*
X009496Y011569D01*
X009120Y011569D01*
X009033Y011572D01*
X009030Y011569D01*
X009025Y011569D01*
X008963Y011507D01*
X008330Y010919D01*
X008325Y010919D01*
X008263Y010857D01*
X008200Y010798D01*
X008199Y010793D01*
X007726Y010320D01*
X007726Y010786D01*
X006626Y011886D01*
X006626Y012180D01*
X006703Y012257D01*
X006746Y012361D01*
X006822Y012361D01*
X007320Y011898D01*
X007379Y011839D01*
X007384Y011839D01*
X007387Y011836D01*
X007470Y011839D01*
X008103Y011839D01*
X008675Y012411D01*
X008783Y012411D01*
X008908Y012462D01*
X009003Y012557D01*
X009054Y012682D01*
X009054Y012816D01*
X009003Y012941D01*
X008908Y013036D01*
X008783Y013087D01*
X008649Y013087D01*
X008524Y013036D01*
X008429Y012941D01*
X008378Y012816D01*
X008378Y012708D01*
X007929Y012259D01*
X007548Y012259D01*
X007104Y012671D01*
X007104Y012766D01*
X007053Y012891D01*
X006958Y012986D01*
X006833Y013037D01*
X006699Y013037D01*
X006574Y012986D01*
X006479Y012891D01*
X006436Y012787D01*
X006349Y012787D01*
X006224Y012736D01*
X006129Y012641D01*
X006078Y012516D01*
X006078Y012382D01*
X006129Y012257D01*
X006206Y012180D01*
X006206Y011712D01*
X006329Y011589D01*
X007306Y010612D01*
X007306Y010286D01*
X006956Y009936D01*
X006956Y007978D01*
X006933Y007987D01*
X006799Y007987D01*
X006674Y007936D01*
X006667Y007929D01*
X004243Y007929D01*
X006425Y010111D01*
X006533Y010111D01*
X006658Y010162D01*
X006753Y010257D01*
X006804Y010382D01*
X006804Y010516D01*
X006753Y010641D01*
X006658Y010736D01*
X006533Y010787D01*
X006399Y010787D01*
X006274Y010736D01*
X006179Y010641D01*
X006128Y010516D01*
X006128Y010408D01*
X005726Y010006D01*
X005726Y010961D01*
X005783Y010961D01*
X005908Y011012D01*
X006003Y011107D01*
X006054Y011232D01*
X006054Y011366D01*
X006003Y011491D01*
X005908Y011586D01*
X005871Y011601D01*
X005904Y011682D01*
X005904Y011816D01*
X005853Y011941D01*
X005758Y012036D01*
X005633Y012087D01*
X005499Y012087D01*
X005374Y012036D01*
X005326Y011988D01*
X005326Y012585D01*
X005339Y012605D01*
X005326Y012670D01*
X005326Y012736D01*
X005309Y012753D01*
X005305Y012775D01*
X005250Y012812D01*
X005203Y012859D01*
X005180Y012859D01*
X005154Y012876D01*
X005154Y012916D01*
X005103Y013041D01*
X005008Y013136D01*
X004883Y013187D01*
X004749Y013187D01*
X004624Y013136D01*
X004529Y013041D01*
X004478Y012916D01*
X004478Y012869D01*
X004433Y012887D01*
X004299Y012887D01*
X004174Y012836D01*
X004079Y012741D01*
X004028Y012616D01*
X004028Y012537D01*
X003949Y012537D01*
X003824Y012486D01*
X003729Y012391D01*
X003678Y012266D01*
X003678Y012132D01*
X003729Y012007D01*
X003824Y011912D01*
X003949Y011861D01*
X004083Y011861D01*
X004112Y011872D01*
X004506Y011591D01*
X004506Y010636D01*
X004350Y010480D01*
X004333Y010487D01*
X004199Y010487D01*
X004074Y010436D01*
X003979Y010341D01*
X003928Y010216D01*
X003928Y010082D01*
X003979Y009957D01*
X004074Y009862D01*
X004115Y009845D01*
X004007Y009737D01*
X003899Y009737D01*
X003774Y009686D01*
X003679Y009591D01*
X003628Y009466D01*
X003628Y009332D01*
X003679Y009207D01*
X003774Y009112D01*
X003899Y009061D01*
X004033Y009061D01*
X004158Y009112D01*
X004253Y009207D01*
X004304Y009332D01*
X004304Y009440D01*
X004369Y009506D01*
X004379Y009482D01*
X004474Y009387D01*
X004497Y009378D01*
X003129Y008009D01*
X003103Y008009D01*
X003065Y008099D01*
X002916Y008248D01*
X002794Y008299D01*
X002916Y008350D01*
X003065Y008499D01*
X003146Y008694D01*
X003146Y008904D01*
X003065Y009099D01*
X002916Y009248D01*
X002765Y009311D01*
X002812Y009326D01*
X002883Y009363D01*
X002948Y009410D01*
X003005Y009467D01*
X003052Y009532D01*
X003089Y009603D01*
X003113Y009680D01*
X003126Y009759D01*
X002656Y009759D01*
X002656Y009839D01*
X003126Y009839D01*
X003126Y009839D01*
X003113Y009918D01*
X003089Y009995D01*
X003052Y010066D01*
X003005Y010131D01*
X002948Y010188D01*
X002883Y010235D01*
X002812Y010272D01*
X002765Y010287D01*
X002916Y010350D01*
X003065Y010499D01*
X003146Y010694D01*
X003146Y010904D01*
X003065Y011099D01*
X002916Y011248D01*
X002721Y011329D01*
X002511Y011329D01*
X002316Y011248D01*
X002167Y011099D01*
X002086Y010904D01*
X002086Y010694D01*
X002167Y010499D01*
X002316Y010350D01*
X002467Y010287D01*
X002420Y010272D01*
X002349Y010235D01*
X002284Y010188D01*
X002227Y010131D01*
X002180Y010066D01*
X002143Y009995D01*
X002119Y009918D01*
X002106Y009839D01*
X002576Y009839D01*
X002576Y009759D01*
X002106Y009759D01*
X002106Y009759D01*
X002119Y009680D01*
X002143Y009603D01*
X002180Y009532D01*
X002227Y009467D01*
X002284Y009410D01*
X002349Y009363D01*
X002420Y009326D01*
X002467Y009311D01*
X002316Y009248D01*
X002167Y009099D01*
X002086Y008904D01*
X002086Y008694D01*
X002167Y008499D01*
X002316Y008350D01*
X002438Y008299D01*
X002316Y008248D01*
X002167Y008099D01*
X002086Y007904D01*
X002086Y007694D01*
X002167Y007499D01*
X002316Y007350D01*
X002438Y007299D01*
X002316Y007248D01*
X002167Y007099D01*
X002086Y006904D01*
X002086Y006694D01*
X002167Y006499D01*
X002316Y006350D01*
X002438Y006299D01*
X002316Y006248D01*
X002167Y006099D01*
X002086Y005904D01*
X002086Y005694D01*
X002167Y005499D01*
X002316Y005350D01*
X002511Y005269D01*
X002721Y005269D01*
X002916Y005350D01*
X003065Y005499D01*
X003146Y005694D01*
X003146Y005904D01*
X003109Y005995D01*
X003303Y006189D01*
X003426Y006312D01*
X003426Y007112D01*
X003433Y007119D01*
X003479Y007007D01*
X003574Y006912D01*
X003699Y006861D01*
X003833Y006861D01*
X003958Y006912D01*
X004053Y007007D01*
X004104Y007132D01*
X004104Y007141D01*
X004332Y007369D01*
X006667Y007369D01*
X006674Y007362D01*
X006799Y007311D01*
X006933Y007311D01*
X006956Y007320D01*
X006956Y006707D01*
X006883Y006737D01*
X006749Y006737D01*
X006624Y006686D01*
X006529Y006591D01*
X006478Y006466D01*
X006478Y006332D01*
X006504Y006269D01*
X005877Y006269D01*
X005949Y006341D01*
X006043Y006341D01*
X006168Y006392D01*
X006263Y006487D01*
X006314Y006612D01*
X006314Y006746D01*
X006263Y006871D01*
X006168Y006966D01*
X006043Y007017D01*
X005909Y007017D01*
X005784Y006966D01*
X005689Y006871D01*
X005638Y006746D01*
X005638Y006652D01*
X004655Y005669D01*
X004025Y005669D01*
X003958Y005736D01*
X003833Y005787D01*
X003699Y005787D01*
X003574Y005736D01*
X003479Y005641D01*
X003428Y005516D01*
X003428Y005382D01*
X003479Y005257D01*
X003574Y005162D01*
X003664Y005125D01*
X003629Y005091D01*
X003578Y004966D01*
X003578Y004887D01*
X003549Y004887D01*
X003424Y004836D01*
X003329Y004741D01*
X003278Y004616D01*
X003278Y004482D01*
X003329Y004357D01*
X003345Y004341D01*
X003233Y004387D01*
X003099Y004387D01*
X002974Y004336D01*
X002879Y004241D01*
X002828Y004116D01*
X002828Y003982D01*
X002879Y003857D01*
X002974Y003762D01*
X003099Y003711D01*
X003193Y003711D01*
X003975Y002929D01*
X006457Y002929D01*
X006524Y002862D01*
X006649Y002811D01*
X006783Y002811D01*
X006908Y002862D01*
X006937Y002892D01*
X006937Y002612D01*
X007022Y002527D02*
X002750Y002527D01*
X002836Y002449D02*
X007390Y002449D01*
X007389Y002370D02*
X006726Y002370D01*
X006691Y002405D02*
X005220Y002405D01*
X005126Y002312D01*
X005126Y001549D01*
X005220Y001455D01*
X006691Y001455D01*
X006785Y001549D01*
X006785Y002312D01*
X006691Y002405D01*
X006785Y002292D02*
X007388Y002292D01*
X007368Y002213D02*
X006785Y002213D01*
X006785Y002135D02*
X007335Y002135D01*
X007328Y002056D02*
X006785Y002056D01*
X006785Y001978D02*
X007329Y001978D01*
X007362Y001899D02*
X006785Y001899D01*
X006785Y001821D02*
X007416Y001821D01*
X007523Y001742D02*
X006785Y001742D01*
X006785Y001664D02*
X010240Y001664D01*
X010096Y001585D02*
X006785Y001585D01*
X006742Y001507D02*
X009950Y001507D01*
X009763Y001428D02*
X004517Y001428D01*
X004330Y001507D02*
X005169Y001507D01*
X005126Y001585D02*
X004184Y001585D01*
X004040Y001664D02*
X005126Y001664D01*
X005126Y001742D02*
X003895Y001742D01*
X003750Y001821D02*
X005126Y001821D01*
X005126Y001899D02*
X003606Y001899D01*
X003481Y001978D02*
X005126Y001978D01*
X005126Y002056D02*
X003374Y002056D01*
X003266Y002135D02*
X005126Y002135D01*
X005126Y002213D02*
X003159Y002213D01*
X003051Y002292D02*
X005126Y002292D01*
X005185Y002370D02*
X002944Y002370D01*
X002504Y002763D02*
X006937Y002763D01*
X006937Y002841D02*
X006857Y002841D01*
X006575Y002841D02*
X002422Y002841D01*
X002340Y002920D02*
X006467Y002920D01*
X006828Y003469D02*
X006957Y003469D01*
X006957Y003447D02*
X006967Y003412D01*
X006985Y003380D01*
X007011Y003354D01*
X007043Y003335D01*
X007079Y003326D01*
X007963Y003326D01*
X007963Y003623D01*
X006957Y003623D01*
X006957Y003447D01*
X006953Y003391D02*
X006979Y003391D01*
X007015Y003312D02*
X009446Y003312D01*
X009446Y003234D02*
X007047Y003234D01*
X006957Y003548D02*
X006826Y003548D01*
X006880Y003626D02*
X007963Y003626D01*
X007963Y003548D02*
X008043Y003548D01*
X008043Y003623D02*
X008043Y003326D01*
X008927Y003326D01*
X008962Y003335D01*
X008994Y003354D01*
X009020Y003380D01*
X009039Y003412D01*
X009048Y003447D01*
X009048Y003623D01*
X008043Y003623D01*
X008043Y003626D02*
X009446Y003626D01*
X009446Y003548D02*
X009048Y003548D01*
X009048Y003469D02*
X009446Y003469D01*
X009446Y003391D02*
X009026Y003391D01*
X009052Y003155D02*
X009446Y003155D01*
X009446Y003077D02*
X009068Y003077D01*
X009068Y002998D02*
X009446Y002998D01*
X009437Y002920D02*
X009068Y002920D01*
X009068Y002841D02*
X009446Y002841D01*
X009478Y002763D02*
X009068Y002763D01*
X009068Y002684D02*
X009521Y002684D01*
X009561Y002606D02*
X009062Y002606D01*
X008983Y002527D02*
X009639Y002527D01*
X009788Y002449D02*
X007950Y002449D01*
X007949Y002370D02*
X009788Y002370D01*
X009804Y002292D02*
X007949Y002292D01*
X007964Y002213D02*
X009837Y002213D01*
X009912Y002135D02*
X007997Y002135D01*
X008004Y002056D02*
X010906Y002056D01*
X010799Y001978D02*
X008003Y001978D01*
X007970Y001899D02*
X010674Y001899D01*
X010530Y001821D02*
X007916Y001821D01*
X007809Y001742D02*
X010385Y001742D01*
X010340Y002135D02*
X011014Y002135D01*
X011121Y002213D02*
X010415Y002213D01*
X010495Y002292D02*
X011229Y002292D01*
X011336Y002370D02*
X010588Y002370D01*
X010822Y002449D02*
X011444Y002449D01*
X011530Y002527D02*
X010900Y002527D01*
X010979Y002606D02*
X011612Y002606D01*
X011694Y002684D02*
X011057Y002684D01*
X011136Y002763D02*
X011776Y002763D01*
X011858Y002841D02*
X011214Y002841D01*
X011237Y002920D02*
X011940Y002920D01*
X012021Y002998D02*
X011235Y002998D01*
X011157Y003077D02*
X012103Y003077D01*
X012167Y003155D02*
X011078Y003155D01*
X011000Y003234D02*
X012230Y003234D01*
X012292Y003312D02*
X010991Y003312D01*
X010992Y003391D02*
X012355Y003391D01*
X012417Y003469D02*
X011842Y003469D01*
X011921Y003548D02*
X012480Y003548D01*
X012542Y003626D02*
X011999Y003626D01*
X012078Y003705D02*
X012605Y003705D01*
X012667Y003783D02*
X012156Y003783D01*
X012235Y003862D02*
X012715Y003862D01*
X012762Y003940D02*
X012295Y003940D01*
X012295Y004019D02*
X012808Y004019D01*
X012810Y004097D02*
X012855Y004097D01*
X012888Y004176D02*
X012902Y004176D01*
X012047Y004647D02*
X010262Y004647D01*
X010184Y004725D02*
X011978Y004725D01*
X011931Y004804D02*
X010105Y004804D01*
X010027Y004882D02*
X011901Y004882D01*
X011885Y004961D02*
X009948Y004961D01*
X009940Y005039D02*
X012351Y005039D01*
X012351Y005064D02*
X012351Y005534D01*
X012351Y005984D01*
X012431Y005984D01*
X012431Y005064D01*
X012351Y005064D01*
X012351Y005118D02*
X012431Y005118D01*
X012431Y005196D02*
X012351Y005196D01*
X012351Y005275D02*
X012431Y005275D01*
X012431Y005353D02*
X012351Y005353D01*
X012351Y005432D02*
X012431Y005432D01*
X012431Y005510D02*
X012351Y005510D01*
X012351Y005589D02*
X012431Y005589D01*
X012431Y005667D02*
X012351Y005667D01*
X012351Y005746D02*
X012431Y005746D01*
X012431Y005824D02*
X012351Y005824D01*
X012351Y005903D02*
X012431Y005903D01*
X012431Y005981D02*
X012351Y005981D01*
X012027Y005667D02*
X011978Y005667D01*
X011978Y005589D02*
X012123Y005589D01*
X012236Y005510D02*
X011978Y005510D01*
X011968Y005432D02*
X012084Y005432D01*
X012000Y005353D02*
X011890Y005353D01*
X011946Y005275D02*
X009940Y005275D01*
X009940Y005353D02*
X011116Y005353D01*
X011037Y005432D02*
X009940Y005432D01*
X009940Y005510D02*
X011028Y005510D01*
X011028Y005589D02*
X009940Y005589D01*
X009940Y005667D02*
X011028Y005667D01*
X011028Y005746D02*
X009940Y005746D01*
X009940Y005824D02*
X011028Y005824D01*
X011028Y005903D02*
X009940Y005903D01*
X009940Y005981D02*
X011028Y005981D01*
X011028Y006060D02*
X009940Y006060D01*
X009940Y006138D02*
X011028Y006138D01*
X011028Y006217D02*
X009940Y006217D01*
X009940Y006295D02*
X011028Y006295D01*
X011028Y006374D02*
X009940Y006374D01*
X009940Y006452D02*
X011028Y006452D01*
X011028Y006531D02*
X009940Y006531D01*
X009940Y006609D02*
X010465Y006609D01*
X010329Y006688D02*
X009967Y006688D01*
X009999Y006766D02*
X010260Y006766D01*
X010227Y006845D02*
X010018Y006845D01*
X010018Y006923D02*
X010212Y006923D01*
X010212Y007002D02*
X009999Y007002D01*
X009966Y007080D02*
X010235Y007080D01*
X010248Y007159D02*
X009891Y007159D01*
X010082Y007237D02*
X010216Y007237D01*
X010201Y007316D02*
X010107Y007316D01*
X010107Y007394D02*
X010201Y007394D01*
X010201Y007473D02*
X010107Y007473D01*
X010107Y007551D02*
X010201Y007551D01*
X010201Y007630D02*
X010107Y007630D01*
X010107Y007708D02*
X010201Y007708D01*
X010201Y007787D02*
X010107Y007787D01*
X010107Y007865D02*
X010201Y007865D01*
X010201Y007944D02*
X010107Y007944D01*
X010107Y008022D02*
X010201Y008022D01*
X010201Y008101D02*
X010107Y008101D01*
X010107Y008179D02*
X010201Y008179D01*
X010201Y008258D02*
X009810Y008258D01*
X009810Y008264D02*
X010107Y008264D01*
X010107Y009148D01*
X010098Y009183D01*
X010079Y009215D01*
X010053Y009241D01*
X010021Y009260D01*
X009986Y009269D01*
X009810Y009269D01*
X009810Y008264D01*
X009810Y008336D02*
X009730Y008336D01*
X009730Y008264D02*
X009730Y009269D01*
X009555Y009269D01*
X009519Y009260D01*
X009488Y009241D01*
X009461Y009215D01*
X009443Y009183D01*
X009433Y009148D01*
X009433Y008264D01*
X009730Y008264D01*
X009730Y008258D02*
X008286Y008258D01*
X008286Y008336D02*
X009433Y008336D01*
X009433Y008415D02*
X008286Y008415D01*
X008286Y008493D02*
X009433Y008493D01*
X009433Y008572D02*
X008286Y008572D01*
X008286Y008650D02*
X009433Y008650D01*
X009433Y008729D02*
X008286Y008729D01*
X008286Y008807D02*
X009433Y008807D01*
X009433Y008886D02*
X008286Y008886D01*
X008286Y008964D02*
X009433Y008964D01*
X009433Y009043D02*
X008286Y009043D01*
X008286Y009121D02*
X009433Y009121D01*
X009452Y009200D02*
X008286Y009200D01*
X008286Y009278D02*
X010283Y009278D01*
X010205Y009200D02*
X010088Y009200D01*
X010107Y009121D02*
X010201Y009121D01*
X010201Y009043D02*
X010107Y009043D01*
X010107Y008964D02*
X010201Y008964D01*
X010201Y008886D02*
X010107Y008886D01*
X010107Y008807D02*
X010201Y008807D01*
X010201Y008729D02*
X010107Y008729D01*
X010107Y008650D02*
X010201Y008650D01*
X010201Y008572D02*
X010107Y008572D01*
X010107Y008493D02*
X010201Y008493D01*
X010201Y008415D02*
X010107Y008415D01*
X010107Y008336D02*
X010201Y008336D01*
X009810Y008415D02*
X009730Y008415D01*
X009730Y008493D02*
X009810Y008493D01*
X009810Y008572D02*
X009730Y008572D01*
X009730Y008650D02*
X009810Y008650D01*
X009810Y008729D02*
X009730Y008729D01*
X009730Y008807D02*
X009810Y008807D01*
X009810Y008886D02*
X009730Y008886D01*
X009730Y008964D02*
X009810Y008964D01*
X009810Y009043D02*
X009730Y009043D01*
X009730Y009121D02*
X009810Y009121D01*
X009810Y009200D02*
X009730Y009200D01*
X009559Y009514D02*
X010342Y009514D01*
X010421Y009435D02*
X008286Y009435D01*
X008286Y009357D02*
X010499Y009357D01*
X010915Y008964D02*
X011554Y008964D01*
X011556Y008886D02*
X010915Y008886D01*
X010915Y008807D02*
X011556Y008807D01*
X011556Y008729D02*
X010915Y008729D01*
X010915Y008650D02*
X011556Y008650D01*
X011556Y008572D02*
X010915Y008572D01*
X010915Y008493D02*
X011625Y008493D01*
X011703Y008415D02*
X010915Y008415D01*
X010915Y008336D02*
X011782Y008336D01*
X011860Y008258D02*
X010915Y008258D01*
X010915Y008179D02*
X011882Y008179D01*
X011861Y008101D02*
X010915Y008101D01*
X010915Y008022D02*
X011861Y008022D01*
X011861Y007944D02*
X010915Y007944D01*
X010915Y007865D02*
X011883Y007865D01*
X011916Y007787D02*
X010915Y007787D01*
X010915Y007708D02*
X011957Y007708D01*
X012036Y007630D02*
X010915Y007630D01*
X010915Y007551D02*
X012148Y007551D01*
X012090Y007473D02*
X010915Y007473D01*
X010915Y007394D02*
X012011Y007394D01*
X011938Y007316D02*
X010915Y007316D01*
X010900Y007237D02*
X011906Y007237D01*
X011873Y007159D02*
X010888Y007159D01*
X010905Y007080D02*
X011861Y007080D01*
X011117Y007002D02*
X010928Y007002D01*
X010928Y006923D02*
X011039Y006923D01*
X011028Y006845D02*
X010913Y006845D01*
X010880Y006766D02*
X011028Y006766D01*
X011028Y006688D02*
X010811Y006688D01*
X010675Y006609D02*
X011028Y006609D01*
X011911Y005196D02*
X009940Y005196D01*
X009940Y005118D02*
X011889Y005118D01*
X011881Y005064D02*
X011881Y005064D01*
X011954Y004568D02*
X010341Y004568D01*
X010419Y004490D02*
X011631Y004490D01*
X011552Y004411D02*
X010498Y004411D01*
X010576Y004333D02*
X011474Y004333D01*
X011395Y004254D02*
X010655Y004254D01*
X010733Y004176D02*
X011317Y004176D01*
X011238Y004097D02*
X010812Y004097D01*
X010891Y004019D02*
X011195Y004019D01*
X011195Y003940D02*
X010960Y003940D01*
X010992Y003862D02*
X011255Y003862D01*
X011334Y003783D02*
X010996Y003783D01*
X010995Y003705D02*
X011412Y003705D01*
X011491Y003626D02*
X010994Y003626D01*
X010993Y003548D02*
X011569Y003548D01*
X011648Y003469D02*
X010992Y003469D01*
X009427Y003705D02*
X009048Y003705D01*
X009048Y003783D02*
X009352Y003783D01*
X009471Y004647D02*
X007387Y004647D01*
X007253Y004725D02*
X009410Y004725D01*
X009380Y004804D02*
X007329Y004804D01*
X007059Y004725D02*
X006785Y004725D01*
X006785Y004647D02*
X006925Y004647D01*
X006860Y004568D02*
X006785Y004568D01*
X006785Y004490D02*
X006827Y004490D01*
X006818Y004411D02*
X006785Y004411D01*
X006785Y004333D02*
X006818Y004333D01*
X006803Y004254D02*
X006785Y004254D01*
X006785Y004804D02*
X006943Y004804D01*
X006864Y004882D02*
X006785Y004882D01*
X006785Y004961D02*
X006823Y004961D01*
X006798Y005039D02*
X006735Y005039D01*
X006798Y005118D02*
X005476Y005118D01*
X005554Y005196D02*
X006814Y005196D01*
X006847Y005275D02*
X005633Y005275D01*
X005711Y005353D02*
X006619Y005353D01*
X006485Y005432D02*
X005790Y005432D01*
X005124Y006138D02*
X003252Y006138D01*
X003303Y006189D02*
X003303Y006189D01*
X003331Y006217D02*
X005202Y006217D01*
X005281Y006295D02*
X003409Y006295D01*
X003426Y006374D02*
X005359Y006374D01*
X005438Y006452D02*
X003426Y006452D01*
X003426Y006531D02*
X005516Y006531D01*
X005595Y006609D02*
X003426Y006609D01*
X003426Y006688D02*
X005638Y006688D01*
X005646Y006766D02*
X003426Y006766D01*
X003426Y006845D02*
X005678Y006845D01*
X005741Y006923D02*
X003969Y006923D01*
X004047Y007002D02*
X005870Y007002D01*
X006082Y007002D02*
X006956Y007002D01*
X006956Y007080D02*
X004083Y007080D01*
X004122Y007159D02*
X006956Y007159D01*
X006956Y007237D02*
X004200Y007237D01*
X004279Y007316D02*
X006787Y007316D01*
X006945Y007316D02*
X006956Y007316D01*
X006956Y006923D02*
X006211Y006923D01*
X006274Y006845D02*
X006956Y006845D01*
X006956Y006766D02*
X006306Y006766D01*
X006314Y006688D02*
X006628Y006688D01*
X006547Y006609D02*
X006313Y006609D01*
X006281Y006531D02*
X006504Y006531D01*
X006478Y006452D02*
X006228Y006452D01*
X006123Y006374D02*
X006478Y006374D01*
X006493Y006295D02*
X005903Y006295D01*
X005045Y006060D02*
X003174Y006060D01*
X003114Y005981D02*
X004967Y005981D01*
X004888Y005903D02*
X003146Y005903D01*
X003146Y005824D02*
X004810Y005824D01*
X004731Y005746D02*
X003934Y005746D01*
X003598Y005746D02*
X003146Y005746D01*
X003135Y005667D02*
X003505Y005667D01*
X003457Y005589D02*
X003102Y005589D01*
X003070Y005510D02*
X003428Y005510D01*
X003428Y005432D02*
X002998Y005432D01*
X002920Y005353D02*
X003439Y005353D01*
X003472Y005275D02*
X002735Y005275D01*
X002497Y005275D02*
X001417Y005275D01*
X001383Y005261D02*
X001508Y005312D01*
X001603Y005407D01*
X001654Y005532D01*
X001654Y005666D01*
X001603Y005791D01*
X001508Y005886D01*
X001386Y005936D01*
X001386Y006166D01*
X001399Y006161D01*
X001533Y006161D01*
X001658Y006212D01*
X001753Y006307D01*
X001804Y006432D01*
X001804Y006566D01*
X001753Y006691D01*
X001686Y006758D01*
X001686Y008840D01*
X001753Y008907D01*
X001804Y009032D01*
X001804Y009166D01*
X001753Y009291D01*
X001658Y009386D01*
X001533Y009437D01*
X001399Y009437D01*
X001274Y009386D01*
X001179Y009291D01*
X001128Y009166D01*
X001128Y009087D01*
X001099Y009087D01*
X000974Y009036D01*
X000879Y008941D01*
X000828Y008816D01*
X000828Y008682D01*
X000879Y008557D01*
X000946Y008490D01*
X000946Y005658D01*
X000978Y005626D01*
X000978Y005532D01*
X001029Y005407D01*
X001124Y005312D01*
X001249Y005261D01*
X001383Y005261D01*
X001215Y005275D02*
X000843Y005275D01*
X000809Y005353D02*
X001083Y005353D01*
X001019Y005432D02*
X000784Y005432D01*
X000762Y005510D02*
X000987Y005510D01*
X000978Y005589D02*
X000740Y005589D01*
X000718Y005667D02*
X000946Y005667D01*
X000946Y005746D02*
X000697Y005746D01*
X000675Y005824D02*
X000946Y005824D01*
X000946Y005903D02*
X000653Y005903D01*
X000631Y005981D02*
X000946Y005981D01*
X000946Y006060D02*
X000609Y006060D01*
X000587Y006138D02*
X000946Y006138D01*
X000946Y006217D02*
X000566Y006217D01*
X000552Y006295D02*
X000946Y006295D01*
X000946Y006374D02*
X000541Y006374D01*
X000530Y006452D02*
X000946Y006452D01*
X000946Y006531D02*
X000519Y006531D01*
X000508Y006609D02*
X000946Y006609D01*
X000946Y006688D02*
X000497Y006688D01*
X000486Y006766D02*
X000946Y006766D01*
X000946Y006845D02*
X000476Y006845D01*
X000465Y006923D02*
X000946Y006923D01*
X000946Y007002D02*
X000454Y007002D01*
X000443Y007080D02*
X000946Y007080D01*
X000946Y007159D02*
X000435Y007159D01*
X000433Y007237D02*
X000946Y007237D01*
X000946Y007316D02*
X000430Y007316D01*
X000427Y007394D02*
X000946Y007394D01*
X000946Y007473D02*
X000424Y007473D01*
X000421Y007551D02*
X000946Y007551D01*
X000946Y007630D02*
X000422Y007630D01*
X000425Y007708D02*
X000946Y007708D01*
X000946Y007787D02*
X000428Y007787D01*
X000431Y007865D02*
X000946Y007865D01*
X000946Y007944D02*
X000434Y007944D01*
X000437Y008022D02*
X000946Y008022D01*
X000946Y008101D02*
X000448Y008101D01*
X000459Y008179D02*
X000946Y008179D01*
X000946Y008258D02*
X000470Y008258D01*
X000480Y008336D02*
X000946Y008336D01*
X000946Y008415D02*
X000491Y008415D01*
X000502Y008493D02*
X000943Y008493D01*
X000873Y008572D02*
X000513Y008572D01*
X000524Y008650D02*
X000841Y008650D01*
X000828Y008729D02*
X000535Y008729D01*
X000546Y008807D02*
X000828Y008807D01*
X000856Y008886D02*
X000556Y008886D01*
X000575Y008964D02*
X000902Y008964D01*
X000990Y009043D02*
X000597Y009043D01*
X000619Y009121D02*
X001128Y009121D01*
X001141Y009200D02*
X000641Y009200D01*
X000663Y009278D02*
X001174Y009278D01*
X001245Y009357D02*
X000684Y009357D01*
X000706Y009435D02*
X001393Y009435D01*
X001539Y009435D02*
X002259Y009435D01*
X002193Y009514D02*
X000728Y009514D01*
X000750Y009592D02*
X002149Y009592D01*
X002121Y009671D02*
X000772Y009671D01*
X000794Y009749D02*
X002108Y009749D01*
X002106Y009839D02*
X002106Y009839D01*
X002117Y009906D02*
X000858Y009906D01*
X000891Y009985D02*
X002140Y009985D01*
X002178Y010063D02*
X000925Y010063D01*
X000959Y010142D02*
X002237Y010142D01*
X002328Y010220D02*
X000992Y010220D01*
X001026Y010299D02*
X002439Y010299D01*
X002288Y010377D02*
X001060Y010377D01*
X001093Y010456D02*
X002210Y010456D01*
X002152Y010534D02*
X001127Y010534D01*
X001164Y010613D02*
X002120Y010613D01*
X002087Y010691D02*
X001211Y010691D01*
X001258Y010770D02*
X002086Y010770D01*
X002086Y010848D02*
X001305Y010848D01*
X001351Y010927D02*
X002095Y010927D01*
X002128Y011005D02*
X001398Y011005D01*
X001445Y011084D02*
X002160Y011084D01*
X002230Y011162D02*
X001492Y011162D01*
X001539Y011241D02*
X002308Y011241D01*
X002487Y011319D02*
X001586Y011319D01*
X001640Y011398D02*
X004506Y011398D01*
X004506Y011476D02*
X001703Y011476D01*
X001765Y011555D02*
X004506Y011555D01*
X004447Y011633D02*
X001828Y011633D01*
X001890Y011712D02*
X004337Y011712D01*
X004227Y011790D02*
X001953Y011790D01*
X002015Y011869D02*
X003929Y011869D01*
X003789Y011947D02*
X002078Y011947D01*
X002140Y012026D02*
X003722Y012026D01*
X003689Y012104D02*
X002213Y012104D01*
X002295Y012183D02*
X003678Y012183D01*
X003678Y012261D02*
X002376Y012261D01*
X002458Y012340D02*
X003708Y012340D01*
X003756Y012418D02*
X002540Y012418D01*
X002622Y012497D02*
X003850Y012497D01*
X004028Y012575D02*
X002704Y012575D01*
X002786Y012654D02*
X004043Y012654D01*
X004076Y012732D02*
X002884Y012732D01*
X002991Y012811D02*
X004149Y012811D01*
X004478Y012889D02*
X003098Y012889D01*
X003206Y012968D02*
X004499Y012968D01*
X004534Y013046D02*
X003313Y013046D01*
X003421Y013125D02*
X004613Y013125D01*
X005019Y013125D02*
X010859Y013125D01*
X010752Y013203D02*
X003528Y013203D01*
X003669Y013282D02*
X010611Y013282D01*
X010466Y013360D02*
X003814Y013360D01*
X003959Y013439D02*
X010321Y013439D01*
X010177Y013517D02*
X004103Y013517D01*
X004248Y013596D02*
X010032Y013596D01*
X009868Y013674D02*
X004412Y013674D01*
X004599Y013753D02*
X009681Y013753D01*
X009489Y013831D02*
X004791Y013831D01*
X004874Y013910D02*
X009406Y013910D01*
X009218Y013988D02*
X005062Y013988D01*
X005298Y014067D02*
X008982Y014067D01*
X008648Y014145D02*
X005632Y014145D01*
X006011Y014224D02*
X008269Y014224D01*
X007593Y014302D02*
X006687Y014302D01*
X006556Y012968D02*
X005133Y012968D01*
X005154Y012889D02*
X006478Y012889D01*
X006446Y012811D02*
X005252Y012811D01*
X005326Y012732D02*
X006220Y012732D01*
X006142Y012654D02*
X005329Y012654D01*
X005326Y012575D02*
X006102Y012575D01*
X006078Y012497D02*
X005326Y012497D01*
X005326Y012418D02*
X006078Y012418D01*
X006095Y012340D02*
X005326Y012340D01*
X005326Y012261D02*
X006128Y012261D01*
X006204Y012183D02*
X005326Y012183D01*
X005326Y012104D02*
X006206Y012104D01*
X006206Y012026D02*
X005768Y012026D01*
X005847Y011947D02*
X006206Y011947D01*
X006206Y011869D02*
X005883Y011869D01*
X005904Y011790D02*
X006206Y011790D01*
X006206Y011712D02*
X005904Y011712D01*
X005884Y011633D02*
X006285Y011633D01*
X006363Y011555D02*
X005939Y011555D01*
X006009Y011476D02*
X006442Y011476D01*
X006520Y011398D02*
X006041Y011398D01*
X006054Y011319D02*
X006599Y011319D01*
X006677Y011241D02*
X006054Y011241D01*
X006026Y011162D02*
X006756Y011162D01*
X006834Y011084D02*
X005979Y011084D01*
X005891Y011005D02*
X006913Y011005D01*
X006991Y010927D02*
X005726Y010927D01*
X005726Y010848D02*
X007070Y010848D01*
X007148Y010770D02*
X006576Y010770D01*
X006703Y010691D02*
X007227Y010691D01*
X007305Y010613D02*
X006765Y010613D01*
X006797Y010534D02*
X007306Y010534D01*
X007306Y010456D02*
X006804Y010456D01*
X006802Y010377D02*
X007306Y010377D01*
X007306Y010299D02*
X006770Y010299D01*
X006716Y010220D02*
X007240Y010220D01*
X007162Y010142D02*
X006608Y010142D01*
X006377Y010063D02*
X007083Y010063D01*
X007005Y009985D02*
X006299Y009985D01*
X006220Y009906D02*
X006956Y009906D01*
X006956Y009828D02*
X006142Y009828D01*
X006063Y009749D02*
X006956Y009749D01*
X006956Y009671D02*
X005985Y009671D01*
X005906Y009592D02*
X006956Y009592D01*
X006956Y009514D02*
X005828Y009514D01*
X005749Y009435D02*
X006956Y009435D01*
X006956Y009357D02*
X005671Y009357D01*
X005592Y009278D02*
X006956Y009278D01*
X006956Y009200D02*
X005514Y009200D01*
X005435Y009121D02*
X006956Y009121D01*
X006956Y009043D02*
X005357Y009043D01*
X005278Y008964D02*
X006956Y008964D01*
X006956Y008886D02*
X005200Y008886D01*
X005121Y008807D02*
X006956Y008807D01*
X006956Y008729D02*
X005043Y008729D01*
X004964Y008650D02*
X006956Y008650D01*
X006956Y008572D02*
X004886Y008572D01*
X004807Y008493D02*
X006956Y008493D01*
X006956Y008415D02*
X004729Y008415D01*
X004650Y008336D02*
X006956Y008336D01*
X006956Y008258D02*
X004572Y008258D01*
X004493Y008179D02*
X006956Y008179D01*
X006956Y008101D02*
X004415Y008101D01*
X004336Y008022D02*
X006956Y008022D01*
X006693Y007944D02*
X004258Y007944D01*
X003692Y008572D02*
X003095Y008572D01*
X003128Y008650D02*
X003770Y008650D01*
X003849Y008729D02*
X003146Y008729D01*
X003146Y008807D02*
X003927Y008807D01*
X004006Y008886D02*
X003146Y008886D01*
X003121Y008964D02*
X004084Y008964D01*
X004163Y009043D02*
X003089Y009043D01*
X003043Y009121D02*
X003765Y009121D01*
X003687Y009200D02*
X002965Y009200D01*
X002844Y009278D02*
X003650Y009278D01*
X003628Y009357D02*
X002871Y009357D01*
X002973Y009435D02*
X003628Y009435D01*
X003647Y009514D02*
X003039Y009514D01*
X003083Y009592D02*
X003680Y009592D01*
X003759Y009671D02*
X003110Y009671D01*
X003124Y009749D02*
X004019Y009749D01*
X004098Y009828D02*
X002656Y009828D01*
X002576Y009828D02*
X000824Y009828D01*
X001687Y009357D02*
X002361Y009357D01*
X002388Y009278D02*
X001758Y009278D01*
X001791Y009200D02*
X002267Y009200D01*
X002188Y009121D02*
X001804Y009121D01*
X001804Y009043D02*
X002143Y009043D01*
X002111Y008964D02*
X001776Y008964D01*
X001731Y008886D02*
X002086Y008886D01*
X002086Y008807D02*
X001686Y008807D01*
X001686Y008729D02*
X002086Y008729D01*
X002104Y008650D02*
X001686Y008650D01*
X001686Y008572D02*
X002137Y008572D01*
X002172Y008493D02*
X001686Y008493D01*
X001686Y008415D02*
X002251Y008415D01*
X002349Y008336D02*
X001686Y008336D01*
X001686Y008258D02*
X002338Y008258D01*
X002246Y008179D02*
X001686Y008179D01*
X001686Y008101D02*
X002168Y008101D01*
X002135Y008022D02*
X001686Y008022D01*
X001686Y007944D02*
X002102Y007944D01*
X002086Y007865D02*
X001686Y007865D01*
X001686Y007787D02*
X002086Y007787D01*
X002086Y007708D02*
X001686Y007708D01*
X001686Y007630D02*
X002113Y007630D01*
X002145Y007551D02*
X001686Y007551D01*
X001686Y007473D02*
X002193Y007473D01*
X002271Y007394D02*
X001686Y007394D01*
X001686Y007316D02*
X002398Y007316D01*
X002304Y007237D02*
X001686Y007237D01*
X001686Y007159D02*
X002226Y007159D01*
X002159Y007080D02*
X001686Y007080D01*
X001686Y007002D02*
X002126Y007002D01*
X002094Y006923D02*
X001686Y006923D01*
X001686Y006845D02*
X002086Y006845D01*
X002086Y006766D02*
X001686Y006766D01*
X001754Y006688D02*
X002088Y006688D01*
X002121Y006609D02*
X001787Y006609D01*
X001804Y006531D02*
X002154Y006531D01*
X002213Y006452D02*
X001804Y006452D01*
X001780Y006374D02*
X002292Y006374D01*
X002284Y006217D02*
X001662Y006217D01*
X001741Y006295D02*
X002429Y006295D01*
X002205Y006138D02*
X001386Y006138D01*
X001386Y006060D02*
X002150Y006060D01*
X002118Y005981D02*
X001386Y005981D01*
X001468Y005903D02*
X002086Y005903D01*
X002086Y005824D02*
X001570Y005824D01*
X001622Y005746D02*
X002086Y005746D01*
X002097Y005667D02*
X001654Y005667D01*
X001654Y005589D02*
X002129Y005589D01*
X002162Y005510D02*
X001645Y005510D01*
X001613Y005432D02*
X002234Y005432D01*
X002312Y005353D02*
X001549Y005353D01*
X000910Y005118D02*
X003656Y005118D01*
X003608Y005039D02*
X000944Y005039D01*
X000977Y004961D02*
X003578Y004961D01*
X003536Y004882D02*
X001011Y004882D01*
X001045Y004804D02*
X003392Y004804D01*
X003323Y004725D02*
X001078Y004725D01*
X001112Y004647D02*
X003290Y004647D01*
X003278Y004568D02*
X001146Y004568D01*
X001190Y004490D02*
X003278Y004490D01*
X003307Y004411D02*
X001237Y004411D01*
X001284Y004333D02*
X002971Y004333D01*
X002892Y004254D02*
X001331Y004254D01*
X001378Y004176D02*
X002852Y004176D01*
X002828Y004097D02*
X001425Y004097D01*
X001472Y004019D02*
X002828Y004019D01*
X002845Y003940D02*
X001518Y003940D01*
X001565Y003862D02*
X002877Y003862D01*
X002953Y003783D02*
X001613Y003783D01*
X001675Y003705D02*
X003199Y003705D01*
X003278Y003626D02*
X001738Y003626D01*
X001800Y003548D02*
X003356Y003548D01*
X003435Y003469D02*
X001863Y003469D01*
X001925Y003391D02*
X003513Y003391D01*
X003592Y003312D02*
X001988Y003312D01*
X002050Y003234D02*
X003670Y003234D01*
X003749Y003155D02*
X002113Y003155D01*
X002177Y003077D02*
X003827Y003077D01*
X003906Y002998D02*
X002259Y002998D01*
X003540Y005196D02*
X000877Y005196D01*
X003426Y006923D02*
X003563Y006923D01*
X003485Y007002D02*
X003426Y007002D01*
X003426Y007080D02*
X003449Y007080D01*
X003142Y008022D02*
X003097Y008022D01*
X003064Y008101D02*
X003221Y008101D01*
X003299Y008179D02*
X002985Y008179D01*
X002894Y008258D02*
X003378Y008258D01*
X003456Y008336D02*
X002883Y008336D01*
X002981Y008415D02*
X003535Y008415D01*
X003613Y008493D02*
X003060Y008493D01*
X003126Y009759D02*
X003126Y009759D01*
X003115Y009906D02*
X004030Y009906D01*
X003968Y009985D02*
X003092Y009985D01*
X003054Y010063D02*
X003935Y010063D01*
X003928Y010142D02*
X002995Y010142D01*
X002904Y010220D02*
X003929Y010220D01*
X003962Y010299D02*
X002793Y010299D01*
X002944Y010377D02*
X004015Y010377D01*
X004122Y010456D02*
X003022Y010456D01*
X003080Y010534D02*
X004404Y010534D01*
X004483Y010613D02*
X003112Y010613D01*
X003145Y010691D02*
X004506Y010691D01*
X004506Y010770D02*
X003146Y010770D01*
X003146Y010848D02*
X004506Y010848D01*
X004506Y010927D02*
X003137Y010927D01*
X003104Y011005D02*
X004506Y011005D01*
X004506Y011084D02*
X003072Y011084D01*
X003002Y011162D02*
X004506Y011162D01*
X004506Y011241D02*
X002924Y011241D01*
X002745Y011319D02*
X004506Y011319D01*
X004117Y011869D02*
X004103Y011869D01*
X005098Y013046D02*
X008549Y013046D01*
X008456Y012968D02*
X006976Y012968D01*
X007054Y012889D02*
X008408Y012889D01*
X008378Y012811D02*
X007086Y012811D01*
X007104Y012732D02*
X008378Y012732D01*
X008324Y012654D02*
X007124Y012654D01*
X007208Y012575D02*
X008245Y012575D01*
X008167Y012497D02*
X007293Y012497D01*
X007377Y012418D02*
X008088Y012418D01*
X008010Y012340D02*
X007462Y012340D01*
X007546Y012261D02*
X007931Y012261D01*
X008211Y011947D02*
X009496Y011947D01*
X009496Y011869D02*
X008133Y011869D01*
X008290Y012026D02*
X009496Y012026D01*
X009496Y012104D02*
X008368Y012104D01*
X008447Y012183D02*
X009496Y012183D01*
X009496Y012261D02*
X008525Y012261D01*
X008604Y012340D02*
X009496Y012340D01*
X009524Y012418D02*
X008801Y012418D01*
X008942Y012497D02*
X009602Y012497D01*
X009628Y012575D02*
X009010Y012575D01*
X009043Y012654D02*
X009643Y012654D01*
X009676Y012732D02*
X009054Y012732D01*
X009054Y012811D02*
X009749Y012811D01*
X010183Y012811D02*
X011289Y012811D01*
X011182Y012889D02*
X009024Y012889D01*
X008976Y012968D02*
X011074Y012968D01*
X010967Y013046D02*
X008883Y013046D01*
X009936Y012183D02*
X011985Y012183D01*
X011904Y012261D02*
X010155Y012261D01*
X010235Y012340D02*
X011822Y012340D01*
X011740Y012418D02*
X010278Y012418D01*
X010304Y012497D02*
X011658Y012497D01*
X011576Y012575D02*
X010304Y012575D01*
X010289Y012654D02*
X011494Y012654D01*
X011396Y012732D02*
X010256Y012732D01*
X009936Y012104D02*
X012067Y012104D01*
X012140Y012026D02*
X009936Y012026D01*
X009936Y011947D02*
X012202Y011947D01*
X012265Y011869D02*
X011075Y011869D01*
X011153Y011790D02*
X012327Y011790D01*
X012390Y011712D02*
X011186Y011712D01*
X011204Y011633D02*
X012452Y011633D01*
X012515Y011555D02*
X011204Y011555D01*
X011181Y011476D02*
X012577Y011476D01*
X012640Y011398D02*
X011143Y011398D01*
X011065Y011319D02*
X012694Y011319D01*
X012741Y011241D02*
X010819Y011241D01*
X010740Y011162D02*
X012788Y011162D01*
X012835Y011084D02*
X010662Y011084D01*
X010583Y011005D02*
X012882Y011005D01*
X012929Y010927D02*
X010505Y010927D01*
X010426Y010848D02*
X012975Y010848D01*
X013022Y010770D02*
X010374Y010770D01*
X010453Y010691D02*
X013069Y010691D01*
X013116Y010613D02*
X010485Y010613D01*
X010504Y010534D02*
X012237Y010534D01*
X012073Y010456D02*
X010504Y010456D01*
X010482Y010377D02*
X011995Y010377D01*
X011931Y010299D02*
X010444Y010299D01*
X010560Y010220D02*
X011899Y010220D01*
X011866Y010142D02*
X010638Y010142D01*
X010717Y010063D02*
X011861Y010063D01*
X011861Y009985D02*
X010795Y009985D01*
X010874Y009906D02*
X011866Y009906D01*
X011899Y009828D02*
X010952Y009828D01*
X011031Y009749D02*
X011931Y009749D01*
X011995Y009671D02*
X011109Y009671D01*
X012594Y009514D02*
X013552Y009514D01*
X013530Y009592D02*
X012709Y009592D01*
X012787Y009671D02*
X013508Y009671D01*
X013486Y009749D02*
X012851Y009749D01*
X012883Y009828D02*
X013456Y009828D01*
X013422Y009906D02*
X012916Y009906D01*
X012921Y009985D02*
X013389Y009985D01*
X013355Y010063D02*
X012921Y010063D01*
X012916Y010142D02*
X013321Y010142D01*
X013288Y010220D02*
X012883Y010220D01*
X012851Y010299D02*
X013254Y010299D01*
X013220Y010377D02*
X012787Y010377D01*
X012709Y010456D02*
X013187Y010456D01*
X013153Y010534D02*
X012545Y010534D01*
X012729Y009435D02*
X013574Y009435D01*
X013596Y009357D02*
X012808Y009357D01*
X012859Y009278D02*
X013617Y009278D01*
X013639Y009200D02*
X012892Y009200D01*
X012921Y009121D02*
X013661Y009121D01*
X013683Y009043D02*
X012921Y009043D01*
X012921Y008964D02*
X013705Y008964D01*
X013724Y008886D02*
X012907Y008886D01*
X012875Y008807D02*
X013734Y008807D01*
X013745Y008729D02*
X012842Y008729D01*
X012767Y008650D02*
X013756Y008650D01*
X013767Y008572D02*
X012684Y008572D01*
X012644Y008493D02*
X013778Y008493D01*
X013789Y008415D02*
X012750Y008415D01*
X012828Y008336D02*
X013800Y008336D01*
X013810Y008258D02*
X012868Y008258D01*
X012900Y008179D02*
X013821Y008179D01*
X013832Y008101D02*
X012921Y008101D01*
X012921Y008022D02*
X013843Y008022D01*
X013846Y007944D02*
X012921Y007944D01*
X012899Y007865D02*
X013849Y007865D01*
X013852Y007787D02*
X012866Y007787D01*
X012825Y007708D02*
X013855Y007708D01*
X013858Y007630D02*
X012746Y007630D01*
X012634Y007551D02*
X013859Y007551D01*
X013856Y007473D02*
X012692Y007473D01*
X012770Y007394D02*
X013853Y007394D01*
X013850Y007316D02*
X012844Y007316D01*
X013116Y007304D02*
X013116Y007304D01*
X013243Y007237D02*
X013847Y007237D01*
X013826Y007002D02*
X013340Y007002D01*
X013340Y006968D02*
X013340Y006968D01*
X013340Y006923D02*
X013815Y006923D01*
X013804Y006845D02*
X013339Y006845D01*
X013339Y006766D02*
X013794Y006766D01*
X013783Y006688D02*
X013339Y006688D01*
X013338Y006609D02*
X013772Y006609D01*
X013761Y006531D02*
X013338Y006531D01*
X013338Y006452D02*
X013750Y006452D01*
X013739Y006374D02*
X013337Y006374D01*
X013337Y006295D02*
X013728Y006295D01*
X013714Y006217D02*
X013336Y006217D01*
X013336Y006138D02*
X013693Y006138D01*
X013671Y006060D02*
X013336Y006060D01*
X013335Y005981D02*
X013649Y005981D01*
X013627Y005903D02*
X013335Y005903D01*
X013335Y005824D02*
X013605Y005824D01*
X013583Y005746D02*
X013334Y005746D01*
X013334Y005667D02*
X013562Y005667D01*
X013540Y005589D02*
X013334Y005589D01*
X013333Y005510D02*
X013518Y005510D01*
X013496Y005432D02*
X013333Y005432D01*
X013333Y005353D02*
X013471Y005353D01*
X013437Y005275D02*
X013332Y005275D01*
X013332Y005196D02*
X013403Y005196D01*
X013370Y005118D02*
X013332Y005118D01*
X013331Y005039D02*
X013336Y005039D01*
X013340Y007080D02*
X013319Y007131D01*
X013298Y007182D01*
X009459Y007237D02*
X008286Y007237D01*
X008286Y007159D02*
X009429Y007159D01*
X009354Y007080D02*
X008286Y007080D01*
X008286Y007002D02*
X008440Y007002D01*
X008361Y006923D02*
X008286Y006923D01*
X008286Y006845D02*
X008350Y006845D01*
X008350Y006766D02*
X008286Y006766D01*
X008286Y006688D02*
X008350Y006688D01*
X008350Y006609D02*
X008286Y006609D01*
X008286Y006531D02*
X008350Y006531D01*
X008350Y006452D02*
X008286Y006452D01*
X008286Y006374D02*
X008350Y006374D01*
X008350Y006295D02*
X008286Y006295D01*
X008286Y006217D02*
X008350Y006217D01*
X008350Y005510D02*
X008036Y005510D01*
X008036Y005432D02*
X008360Y005432D01*
X008438Y005353D02*
X008036Y005353D01*
X008036Y005275D02*
X009380Y005275D01*
X009380Y005353D02*
X009213Y005353D01*
X009291Y005432D02*
X009380Y005432D01*
X009380Y005510D02*
X009300Y005510D01*
X009300Y005589D02*
X009380Y005589D01*
X009380Y005667D02*
X009300Y005667D01*
X009300Y005746D02*
X009380Y005746D01*
X009380Y005824D02*
X009300Y005824D01*
X009300Y005903D02*
X009380Y005903D01*
X009380Y005981D02*
X009300Y005981D01*
X009300Y006060D02*
X009380Y006060D01*
X009380Y006138D02*
X009300Y006138D01*
X009300Y006217D02*
X009380Y006217D01*
X009380Y006295D02*
X009300Y006295D01*
X009300Y006374D02*
X009380Y006374D01*
X009380Y006452D02*
X009300Y006452D01*
X009300Y006531D02*
X009380Y006531D01*
X009380Y006609D02*
X009300Y006609D01*
X009300Y006688D02*
X009353Y006688D01*
X009321Y006766D02*
X009300Y006766D01*
X009300Y006845D02*
X009302Y006845D01*
X009302Y006923D02*
X009289Y006923D01*
X009321Y007002D02*
X009211Y007002D01*
X009433Y007316D02*
X008286Y007316D01*
X008286Y007394D02*
X009433Y007394D01*
X009433Y007473D02*
X008286Y007473D01*
X008286Y007551D02*
X009433Y007551D01*
X009433Y007630D02*
X008286Y007630D01*
X008286Y007708D02*
X009433Y007708D01*
X009433Y007787D02*
X008286Y007787D01*
X008286Y007865D02*
X009433Y007865D01*
X009433Y007944D02*
X008286Y007944D01*
X008286Y008022D02*
X009433Y008022D01*
X009433Y008101D02*
X008286Y008101D01*
X008286Y008179D02*
X009433Y008179D01*
X009173Y009514D02*
X008286Y009514D01*
X008320Y009592D02*
X008623Y009592D01*
X008516Y009671D02*
X008399Y009671D01*
X008909Y009592D02*
X009094Y009592D01*
X009053Y009671D02*
X009016Y009671D01*
X008018Y010613D02*
X007726Y010613D01*
X007726Y010691D02*
X008097Y010691D01*
X008175Y010770D02*
X007726Y010770D01*
X007664Y010848D02*
X008253Y010848D01*
X008338Y010927D02*
X007585Y010927D01*
X007507Y011005D02*
X008422Y011005D01*
X008507Y011084D02*
X007428Y011084D01*
X007350Y011162D02*
X008591Y011162D01*
X008676Y011241D02*
X007271Y011241D01*
X007193Y011319D02*
X008760Y011319D01*
X008845Y011398D02*
X007114Y011398D01*
X007036Y011476D02*
X008929Y011476D01*
X009010Y011555D02*
X006957Y011555D01*
X006879Y011633D02*
X009496Y011633D01*
X009496Y011712D02*
X006800Y011712D01*
X006722Y011790D02*
X009496Y011790D01*
X009936Y011790D02*
X010579Y011790D01*
X010546Y011712D02*
X009936Y011712D01*
X009936Y011869D02*
X010657Y011869D01*
X010528Y011633D02*
X010261Y011633D01*
X010339Y011555D02*
X010510Y011555D01*
X010432Y011476D02*
X010380Y011476D01*
X007940Y010534D02*
X007726Y010534D01*
X007726Y010456D02*
X007861Y010456D01*
X007783Y010377D02*
X007726Y010377D01*
X006356Y010770D02*
X005726Y010770D01*
X005726Y010691D02*
X006229Y010691D01*
X006167Y010613D02*
X005726Y010613D01*
X005726Y010534D02*
X006135Y010534D01*
X006128Y010456D02*
X005726Y010456D01*
X005726Y010377D02*
X006097Y010377D01*
X006019Y010299D02*
X005726Y010299D01*
X005726Y010220D02*
X005940Y010220D01*
X005862Y010142D02*
X005726Y010142D01*
X005726Y010063D02*
X005783Y010063D01*
X004477Y009357D02*
X004304Y009357D01*
X004304Y009435D02*
X004426Y009435D01*
X004398Y009278D02*
X004282Y009278D01*
X004245Y009200D02*
X004320Y009200D01*
X004241Y009121D02*
X004167Y009121D01*
X006643Y011869D02*
X007349Y011869D01*
X007267Y011947D02*
X006626Y011947D01*
X006626Y012026D02*
X007183Y012026D01*
X007098Y012104D02*
X006626Y012104D01*
X006628Y012183D02*
X007014Y012183D01*
X006929Y012261D02*
X006704Y012261D01*
X006737Y012340D02*
X006844Y012340D01*
X005364Y012026D02*
X005326Y012026D01*
X006947Y005432D02*
X006948Y005432D01*
X006921Y005353D02*
X006813Y005353D01*
X007663Y004882D02*
X009380Y004882D01*
X009380Y004961D02*
X007739Y004961D01*
X007821Y005039D02*
X009380Y005039D01*
X009380Y005118D02*
X007903Y005118D01*
X007985Y005196D02*
X009380Y005196D01*
X008043Y003469D02*
X007963Y003469D01*
X007963Y003391D02*
X008043Y003391D01*
X006957Y003705D02*
X006937Y003705D01*
X004838Y001271D02*
X009442Y001271D01*
X009321Y001193D02*
X004959Y001193D01*
X004704Y001350D02*
X009576Y001350D01*
X009087Y001114D02*
X005193Y001114D01*
X005485Y001036D02*
X008795Y001036D01*
X008461Y000957D02*
X005819Y000957D01*
X006326Y000879D02*
X007954Y000879D01*
D18*
X010126Y002399D02*
X010706Y002889D01*
X010687Y002930D01*
X010570Y006953D02*
X010558Y008224D01*
D19*
X009660Y006883D02*
X009660Y004853D01*
X010716Y003797D01*
X010706Y002889D01*
X011745Y003988D02*
X012070Y004313D01*
X012630Y004313D01*
X013050Y004733D01*
X013060Y007024D01*
X012391Y007024D01*
X008003Y002875D02*
X007672Y002655D01*
X007666Y002049D01*
X003766Y007199D02*
X004216Y007649D01*
X006866Y007649D01*
D20*
X009660Y006883D03*
X010570Y006953D03*
D21*
X011766Y008649D02*
X011766Y009049D01*
X011616Y009199D01*
X011610Y009193D01*
X010960Y009193D01*
X010354Y009799D01*
X009366Y009799D01*
X009672Y010043D02*
X009466Y010249D01*
X009672Y010043D02*
X010440Y010043D01*
X011084Y009399D01*
X012016Y009399D01*
X012391Y009024D01*
X011766Y008649D02*
X012391Y008024D01*
X010166Y010499D02*
X010016Y010499D01*
X009916Y010599D01*
X009366Y010599D01*
X008716Y009949D01*
X008766Y009899D01*
X007516Y010199D02*
X007516Y010699D01*
X006416Y011799D01*
X006416Y012449D01*
X006766Y012699D02*
X007466Y012049D01*
X008016Y012049D01*
X008716Y012749D01*
X009666Y011349D02*
X009716Y011349D01*
X007516Y010199D02*
X007166Y009849D01*
X007166Y005749D01*
X007266Y005549D01*
X003966Y009399D02*
X004916Y010349D01*
X004916Y012149D01*
X004366Y012549D01*
X004016Y012199D02*
X004716Y011699D01*
X004716Y010549D01*
X004316Y010149D01*
X004266Y010149D01*
X004666Y009674D02*
X004766Y009649D01*
X005116Y009999D01*
X005116Y012649D01*
X004816Y012849D01*
X005566Y011749D02*
X005316Y011549D01*
X005316Y009899D01*
X003216Y007799D01*
X002616Y007799D01*
X003216Y007199D02*
X006466Y010449D01*
X005716Y011299D02*
X005516Y011099D01*
X005516Y009799D01*
X002616Y006899D01*
X002616Y006799D01*
X003216Y006399D02*
X003216Y007199D01*
X003216Y006399D02*
X002616Y005799D01*
D22*
X003766Y005449D02*
X004746Y005449D01*
X005976Y006679D01*
X005716Y006049D02*
X006716Y006049D01*
X006816Y006149D01*
X006816Y006399D01*
X007476Y006399D02*
X007466Y009749D01*
X008416Y010699D01*
X009116Y011349D01*
X009666Y011349D01*
X009716Y011349D02*
X009716Y012299D01*
X009966Y012549D01*
X010866Y011599D02*
X010116Y010849D01*
X009266Y010849D01*
X008066Y009649D01*
X008066Y006099D01*
X008166Y005899D01*
X008166Y005849D01*
X007816Y005339D02*
X007816Y009699D01*
X009216Y011099D01*
X009766Y011099D01*
X010066Y011349D01*
X005716Y006049D02*
X004586Y004909D01*
X003916Y004899D01*
X003716Y004599D02*
X003616Y004549D01*
X003716Y004599D02*
X004646Y004599D01*
X005726Y005679D01*
X006716Y005679D01*
X007136Y005089D02*
X007566Y005099D01*
X007816Y005339D01*
X007196Y004409D02*
X007156Y004399D01*
X007196Y004409D02*
X009506Y004409D01*
X009866Y004049D01*
X009866Y003749D01*
X010066Y003549D01*
X009666Y003774D02*
X009666Y002889D01*
X009836Y002809D01*
X009666Y003774D02*
X009401Y004049D01*
X006916Y004049D01*
X006646Y003679D01*
X004156Y003679D01*
X003866Y003939D01*
X003866Y004199D01*
X003166Y004049D02*
X004066Y003149D01*
X006716Y003149D01*
X001466Y006499D02*
X001466Y009099D01*
X001166Y008749D02*
X001166Y005749D01*
X001316Y005599D01*
M02*
