G75*
G70*
%OFA0B0*%
%FSLAX24Y24*%
%IPPOS*%
%LPD*%
%AMOC8*
5,1,8,0,0,1.08239X$1,22.5*
%
%ADD10C,0.0030*%
%ADD11R,0.0240X0.0010*%
%ADD12R,0.0550X0.0010*%
%ADD13R,0.0710X0.0010*%
%ADD14R,0.0860X0.0010*%
%ADD15R,0.1010X0.0010*%
%ADD16R,0.0450X0.0010*%
%ADD17R,0.0340X0.0010*%
%ADD18R,0.0300X0.0010*%
%ADD19R,0.0310X0.0010*%
%ADD20R,0.0270X0.0010*%
%ADD21R,0.0250X0.0010*%
%ADD22R,0.0540X0.0010*%
%ADD23R,0.0210X0.0010*%
%ADD24R,0.0690X0.0010*%
%ADD25R,0.0170X0.0010*%
%ADD26R,0.0830X0.0010*%
%ADD27R,0.0180X0.0010*%
%ADD28R,0.0150X0.0010*%
%ADD29R,0.0970X0.0010*%
%ADD30R,0.0160X0.0010*%
%ADD31R,0.1100X0.0010*%
%ADD32R,0.1230X0.0010*%
%ADD33R,0.0140X0.0010*%
%ADD34R,0.1330X0.0010*%
%ADD35R,0.1390X0.0010*%
%ADD36R,0.0130X0.0010*%
%ADD37R,0.1470X0.0010*%
%ADD38R,0.0120X0.0010*%
%ADD39R,0.1560X0.0010*%
%ADD40R,0.0110X0.0010*%
%ADD41R,0.1610X0.0010*%
%ADD42R,0.0100X0.0010*%
%ADD43R,0.1670X0.0010*%
%ADD44R,0.1720X0.0010*%
%ADD45R,0.1770X0.0010*%
%ADD46R,0.0090X0.0010*%
%ADD47R,0.1810X0.0010*%
%ADD48R,0.0080X0.0010*%
%ADD49R,0.0260X0.0010*%
%ADD50R,0.0400X0.0010*%
%ADD51R,0.0230X0.0010*%
%ADD52R,0.0050X0.0010*%
%ADD53R,0.0070X0.0010*%
%ADD54R,0.0320X0.0010*%
%ADD55R,0.0010X0.0010*%
%ADD56R,0.0040X0.0010*%
%ADD57R,0.0330X0.0010*%
%ADD58R,0.0020X0.0010*%
%ADD59R,0.0200X0.0010*%
%ADD60R,0.0030X0.0010*%
%ADD61R,0.0410X0.0010*%
%ADD62R,0.0060X0.0010*%
%ADD63R,0.0420X0.0010*%
%ADD64R,0.0360X0.0010*%
%ADD65R,0.0370X0.0010*%
%ADD66R,0.0380X0.0010*%
%ADD67R,0.0430X0.0010*%
%ADD68R,0.0390X0.0010*%
%ADD69R,0.0440X0.0010*%
%ADD70R,0.0190X0.0010*%
%ADD71R,0.0560X0.0010*%
%ADD72R,0.0220X0.0010*%
%ADD73R,0.0460X0.0010*%
%ADD74R,0.0470X0.0010*%
%ADD75R,0.0490X0.0010*%
%ADD76R,0.0500X0.0010*%
%ADD77R,0.0510X0.0010*%
%ADD78R,0.0520X0.0010*%
%ADD79R,0.0530X0.0010*%
%ADD80R,0.0750X0.0010*%
%ADD81R,0.0740X0.0010*%
%ADD82R,0.0730X0.0010*%
%ADD83R,0.0840X0.0010*%
%ADD84R,0.0670X0.0010*%
%ADD85R,0.0650X0.0010*%
%ADD86R,0.0480X0.0010*%
%ADD87R,0.0620X0.0010*%
%ADD88R,0.0700X0.0010*%
%ADD89R,0.0610X0.0010*%
%ADD90R,0.0590X0.0010*%
%ADD91R,0.0580X0.0010*%
%ADD92R,0.1140X0.0010*%
%ADD93R,0.1130X0.0010*%
%ADD94R,0.1200X0.0010*%
%ADD95R,0.0780X0.0010*%
%ADD96R,0.0290X0.0010*%
%ADD97R,0.0640X0.0010*%
%ADD98R,0.0570X0.0010*%
%ADD99R,0.0280X0.0010*%
%ADD100R,0.0350X0.0010*%
%ADD101R,0.0850X0.0010*%
%ADD102R,0.0880X0.0010*%
%ADD103R,0.0900X0.0010*%
%ADD104R,0.1240X0.0010*%
%ADD105R,0.1110X0.0010*%
%ADD106R,0.0870X0.0010*%
%ADD107R,0.0720X0.0010*%
%ADD108C,0.0160*%
%ADD109R,0.0280X0.0160*%
%ADD110C,0.0080*%
%ADD111C,0.0060*%
%ADD112R,0.0340X0.0300*%
%ADD113C,0.0050*%
D10*
X002559Y003694D02*
X002607Y003694D01*
X002656Y003743D01*
X002656Y003839D01*
X002704Y003888D01*
X002753Y003888D01*
X002801Y003839D01*
X002801Y003743D01*
X002753Y003694D01*
X002559Y003694D02*
X002511Y003743D01*
X002511Y003839D01*
X002559Y003888D01*
X002511Y003989D02*
X002801Y003989D01*
X002801Y004182D01*
X002801Y004284D02*
X002511Y004284D01*
X002511Y004429D01*
X002559Y004477D01*
X002656Y004477D01*
X002704Y004429D01*
X002704Y004284D01*
X002704Y004380D02*
X002801Y004477D01*
X002801Y004578D02*
X002801Y004675D01*
X002801Y004627D02*
X002511Y004627D01*
X002511Y004675D02*
X002511Y004578D01*
X002607Y004775D02*
X002511Y004871D01*
X002607Y004968D01*
X002801Y004968D01*
X002801Y005069D02*
X002801Y005263D01*
X002801Y005069D02*
X002511Y005069D01*
X002656Y004968D02*
X002656Y004775D01*
X002607Y004775D02*
X002801Y004775D01*
X002511Y004182D02*
X002511Y003989D01*
X002656Y003989D02*
X002656Y004086D01*
X002071Y004801D02*
X001781Y004801D01*
X001781Y004947D01*
X001829Y004995D01*
X001926Y004995D01*
X001974Y004947D01*
X001974Y004801D01*
X001974Y004898D02*
X002071Y004995D01*
X002023Y005096D02*
X002071Y005144D01*
X002071Y005241D01*
X002023Y005290D01*
X001926Y005290D01*
X001926Y005193D01*
X001829Y005290D02*
X001781Y005241D01*
X001781Y005144D01*
X001829Y005096D01*
X002023Y005096D01*
X002071Y005391D02*
X001781Y005391D01*
X001781Y005536D01*
X001829Y005584D01*
X001877Y005584D01*
X001926Y005536D01*
X001926Y005391D01*
X001926Y005536D02*
X001974Y005584D01*
X002023Y005584D01*
X002071Y005536D01*
X002071Y005391D01*
X002071Y005980D02*
X001781Y005980D01*
X002071Y005980D02*
X002071Y006174D01*
X002071Y006275D02*
X002071Y006468D01*
X002071Y006569D02*
X002071Y006714D01*
X002023Y006763D01*
X001829Y006763D01*
X001781Y006714D01*
X001781Y006569D01*
X002071Y006569D01*
X001926Y006371D02*
X001926Y006275D01*
X001781Y006275D02*
X002071Y006275D01*
X001781Y006275D02*
X001781Y006468D01*
X003031Y006664D02*
X003031Y006954D01*
X003176Y006954D01*
X003224Y006906D01*
X003224Y006809D01*
X003176Y006761D01*
X003031Y006761D01*
X003128Y006761D02*
X003224Y006664D01*
X003326Y006712D02*
X003374Y006664D01*
X003471Y006664D01*
X003519Y006712D01*
X003620Y006664D02*
X003620Y006954D01*
X003519Y006906D02*
X003471Y006954D01*
X003374Y006954D01*
X003326Y006906D01*
X003326Y006712D01*
X003620Y006761D02*
X003814Y006954D01*
X003669Y006809D02*
X003814Y006664D01*
X003391Y007645D02*
X003391Y007851D01*
X003322Y007851D02*
X003596Y007851D01*
X003459Y007988D02*
X003254Y007782D01*
X003217Y007888D02*
X003148Y007888D01*
X003080Y007956D01*
X003080Y008025D01*
X003217Y008162D01*
X003285Y008162D01*
X003353Y008093D01*
X003353Y008025D01*
X003145Y008233D02*
X003145Y008302D01*
X003077Y008370D01*
X003008Y008370D01*
X002974Y008336D01*
X002974Y008267D01*
X003042Y008199D01*
X003042Y008131D01*
X003008Y008096D01*
X002940Y008096D01*
X002871Y008165D01*
X002871Y008233D01*
X003298Y008688D02*
X003367Y008688D01*
X003298Y008688D02*
X003230Y008756D01*
X003230Y008825D01*
X003367Y008962D01*
X003435Y008962D01*
X003503Y008893D01*
X003503Y008825D01*
X003575Y008753D02*
X003438Y008617D01*
X003438Y008548D01*
X003507Y008480D01*
X003575Y008480D01*
X003712Y008617D02*
X003712Y008685D01*
X003643Y008753D01*
X003575Y008753D01*
X003329Y009067D02*
X003192Y008931D01*
X003056Y008931D01*
X003056Y009067D01*
X003192Y009204D01*
X003507Y009630D02*
X003575Y009630D01*
X003712Y009767D01*
X003712Y009835D01*
X003609Y009938D01*
X003404Y009732D01*
X003507Y009630D01*
X003332Y009804D02*
X003538Y010009D01*
X003401Y010146D02*
X003332Y009804D01*
X003196Y009941D02*
X003401Y010146D01*
X003295Y010183D02*
X003295Y010252D01*
X003227Y010320D01*
X003158Y010320D01*
X003021Y010183D01*
X003021Y010115D01*
X003090Y010046D01*
X003158Y010046D01*
X003227Y010115D01*
X003158Y010183D01*
X002322Y010395D02*
X002186Y010532D01*
X002322Y010532D02*
X002186Y010395D01*
X002012Y010426D02*
X001875Y010289D01*
X001943Y010358D02*
X002148Y010153D01*
X001974Y010047D02*
X001803Y010218D01*
X001666Y010081D02*
X001837Y009910D01*
X001906Y009910D01*
X001974Y009978D01*
X001974Y010047D01*
X001697Y009907D02*
X001697Y009839D01*
X001595Y009736D01*
X001663Y009667D02*
X001458Y009873D01*
X001561Y009975D01*
X001629Y009975D01*
X001697Y009907D01*
X001592Y009596D02*
X001386Y009801D01*
X001250Y009664D02*
X001592Y009596D01*
X001455Y009459D02*
X001250Y009664D01*
X001179Y009594D02*
X001111Y009525D01*
X001145Y009560D02*
X001350Y009354D01*
X001316Y009320D02*
X001384Y009389D01*
X005579Y005163D02*
X005531Y005114D01*
X005531Y005018D01*
X005579Y004969D01*
X005676Y004969D01*
X005724Y005018D01*
X005821Y005018D01*
X005821Y004969D01*
X005773Y004868D02*
X005821Y004820D01*
X005821Y004723D01*
X005773Y004675D01*
X005579Y004868D01*
X005773Y004868D01*
X005579Y004868D02*
X005531Y004820D01*
X005531Y004723D01*
X005579Y004675D01*
X005773Y004675D01*
X005773Y004574D02*
X005821Y004525D01*
X005821Y004428D01*
X005773Y004380D01*
X005579Y004574D01*
X005773Y004574D01*
X005579Y004574D02*
X005531Y004525D01*
X005531Y004428D01*
X005579Y004380D01*
X005773Y004380D01*
X005821Y004279D02*
X005821Y004085D01*
X005821Y004182D02*
X005531Y004182D01*
X005627Y004085D01*
X005627Y003984D02*
X005821Y003791D01*
X005773Y003690D02*
X005724Y003690D01*
X005676Y003641D01*
X005676Y003593D01*
X005676Y003641D02*
X005627Y003690D01*
X005579Y003690D01*
X005531Y003641D01*
X005531Y003544D01*
X005579Y003496D01*
X005773Y003496D02*
X005821Y003544D01*
X005821Y003641D01*
X005773Y003690D01*
X005627Y003791D02*
X005821Y003984D01*
X005821Y005114D02*
X005724Y005114D01*
X005676Y005163D01*
X005579Y005163D01*
X005821Y005163D02*
X005821Y005114D01*
X007581Y005068D02*
X007581Y005164D01*
X007629Y005213D01*
X007726Y005213D01*
X007774Y005164D01*
X007871Y005164D01*
X007871Y005213D01*
X007871Y005068D02*
X007774Y005068D01*
X007726Y005019D01*
X007629Y005019D01*
X007581Y005068D01*
X007629Y004918D02*
X007823Y004725D01*
X007871Y004773D01*
X007871Y004870D01*
X007823Y004918D01*
X007629Y004918D01*
X007581Y004870D01*
X007581Y004773D01*
X007629Y004725D01*
X007823Y004725D01*
X007823Y004624D02*
X007871Y004575D01*
X007871Y004478D01*
X007823Y004430D01*
X007629Y004624D01*
X007823Y004624D01*
X007823Y004430D02*
X007629Y004430D01*
X007581Y004478D01*
X007581Y004575D01*
X007629Y004624D01*
X007871Y004329D02*
X007871Y004135D01*
X007871Y004232D02*
X007581Y004232D01*
X007677Y004135D01*
X007677Y004034D02*
X007871Y003841D01*
X007823Y003740D02*
X007774Y003740D01*
X007726Y003691D01*
X007726Y003643D01*
X007726Y003691D02*
X007677Y003740D01*
X007629Y003740D01*
X007581Y003691D01*
X007581Y003594D01*
X007629Y003546D01*
X007823Y003546D02*
X007871Y003594D01*
X007871Y003691D01*
X007823Y003740D01*
X007677Y003841D02*
X007871Y004034D01*
X007871Y005019D02*
X007871Y005068D01*
X010731Y003784D02*
X010731Y003494D01*
X010731Y003591D02*
X010876Y003591D01*
X010924Y003639D01*
X010924Y003736D01*
X010876Y003784D01*
X010731Y003784D01*
X010828Y003591D02*
X010924Y003494D01*
X011026Y003542D02*
X011026Y003736D01*
X011074Y003784D01*
X011171Y003784D01*
X011219Y003736D01*
X011219Y003639D02*
X011122Y003639D01*
X011219Y003639D02*
X011219Y003542D01*
X011171Y003494D01*
X011074Y003494D01*
X011026Y003542D01*
X011026Y003304D02*
X011026Y003014D01*
X011219Y003014D01*
X011320Y003014D02*
X011465Y003014D01*
X011514Y003062D01*
X011514Y003256D01*
X011465Y003304D01*
X011320Y003304D01*
X011320Y003014D01*
X011122Y003159D02*
X011026Y003159D01*
X011026Y003304D02*
X011219Y003304D01*
X011320Y003494D02*
X011465Y003494D01*
X011514Y003542D01*
X011514Y003591D01*
X011465Y003639D01*
X011320Y003639D01*
X011320Y003494D02*
X011320Y003784D01*
X011465Y003784D01*
X011514Y003736D01*
X011514Y003688D01*
X011465Y003639D01*
X010731Y003304D02*
X010731Y003014D01*
X010924Y003014D01*
X013257Y005730D02*
X013325Y005730D01*
X013462Y005867D01*
X013462Y005935D01*
X013359Y006038D01*
X013154Y005832D01*
X013257Y005730D01*
X013082Y005904D02*
X013288Y006109D01*
X013151Y006246D02*
X013082Y005904D01*
X012946Y006041D02*
X013151Y006246D01*
X013045Y006283D02*
X013045Y006352D01*
X012977Y006420D01*
X012908Y006420D01*
X012771Y006283D01*
X012771Y006215D01*
X012840Y006146D01*
X012908Y006146D01*
X012977Y006215D01*
X012908Y006283D01*
X013257Y006730D02*
X013188Y006798D01*
X013188Y006867D01*
X013117Y006938D02*
X013288Y007109D01*
X013325Y007003D02*
X013291Y006969D01*
X013291Y006901D01*
X013359Y006832D01*
X013359Y006764D01*
X013325Y006730D01*
X013257Y006730D01*
X013362Y006624D02*
X013465Y006521D01*
X013533Y006521D01*
X013567Y006556D01*
X013567Y006624D01*
X013465Y006727D01*
X013462Y006867D02*
X013462Y006935D01*
X013393Y007003D01*
X013325Y007003D01*
X013117Y006938D02*
X013048Y006938D01*
X012980Y007006D01*
X012980Y007075D01*
X013151Y007246D01*
X013079Y007317D02*
X012942Y007181D01*
X012806Y007181D01*
X012806Y007317D01*
X012942Y007454D01*
X013254Y007782D02*
X013322Y007714D01*
X013288Y007748D02*
X013493Y007953D01*
X013459Y007988D02*
X013528Y007919D01*
X013388Y008059D02*
X013046Y007991D01*
X012974Y008062D02*
X012974Y008199D01*
X013008Y008165D02*
X012906Y008267D01*
X012837Y008199D02*
X013042Y008404D01*
X013145Y008302D01*
X013145Y008233D01*
X013077Y008165D01*
X013008Y008165D01*
X013251Y008196D02*
X013182Y007854D01*
X013307Y008680D02*
X013375Y008680D01*
X013512Y008817D01*
X013512Y008885D01*
X013443Y008953D01*
X013375Y008953D01*
X013238Y008817D01*
X013238Y008748D01*
X013307Y008680D01*
X013132Y008854D02*
X013201Y009196D01*
X013129Y009267D02*
X012992Y009404D01*
X013061Y009336D02*
X012856Y009131D01*
X012996Y008991D02*
X013338Y009059D01*
X013459Y009414D02*
X013459Y009550D01*
X013493Y009516D02*
X013390Y009619D01*
X013322Y009550D02*
X013527Y009756D01*
X013630Y009653D01*
X013630Y009585D01*
X013561Y009516D01*
X013493Y009516D01*
X013456Y009827D02*
X013319Y009964D01*
X013387Y009896D02*
X013182Y009690D01*
X013076Y009864D02*
X013008Y009864D01*
X012905Y009967D01*
X013110Y010172D01*
X013213Y010070D01*
X013213Y010001D01*
X013076Y009864D01*
X011980Y011534D02*
X011835Y011534D01*
X011835Y011824D01*
X011980Y011824D01*
X012028Y011776D01*
X012028Y011582D01*
X011980Y011534D01*
X011734Y011534D02*
X011540Y011534D01*
X011540Y011824D01*
X011734Y011824D01*
X011637Y011679D02*
X011540Y011679D01*
X011439Y011534D02*
X011246Y011534D01*
X011246Y011824D01*
X011294Y012014D02*
X011391Y012014D01*
X011439Y012062D01*
X011439Y012159D01*
X011342Y012159D01*
X011246Y012062D02*
X011294Y012014D01*
X011246Y012062D02*
X011246Y012256D01*
X011294Y012304D01*
X011391Y012304D01*
X011439Y012256D01*
X011540Y012304D02*
X011540Y012014D01*
X011685Y012014D01*
X011734Y012062D01*
X011734Y012111D01*
X011685Y012159D01*
X011540Y012159D01*
X011540Y012304D02*
X011685Y012304D01*
X011734Y012256D01*
X011734Y012208D01*
X011685Y012159D01*
X011144Y012159D02*
X011096Y012111D01*
X010951Y012111D01*
X011048Y012111D02*
X011144Y012014D01*
X011144Y012159D02*
X011144Y012256D01*
X011096Y012304D01*
X010951Y012304D01*
X010951Y012014D01*
X009971Y010063D02*
X009874Y009966D01*
X009874Y010014D02*
X009874Y009869D01*
X009971Y009869D02*
X009681Y009869D01*
X009681Y010014D01*
X009729Y010063D01*
X009826Y010063D01*
X009874Y010014D01*
X009971Y009768D02*
X009681Y009768D01*
X009681Y009575D02*
X009971Y009575D01*
X009874Y009671D01*
X009971Y009768D01*
X009826Y009474D02*
X009874Y009425D01*
X009874Y009280D01*
X009971Y009280D02*
X009681Y009280D01*
X009681Y009425D01*
X009729Y009474D01*
X009826Y009474D01*
X007464Y009054D02*
X007270Y009054D01*
X007367Y009054D02*
X007367Y008764D01*
X007169Y008812D02*
X007169Y009054D01*
X006976Y009054D02*
X006976Y008812D01*
X007024Y008764D01*
X007121Y008764D01*
X007169Y008812D01*
X006874Y008812D02*
X006826Y008764D01*
X006681Y008764D01*
X006681Y009054D01*
X006826Y009054D01*
X006874Y009006D01*
X006874Y008958D01*
X006826Y008909D01*
X006681Y008909D01*
X006826Y008909D02*
X006874Y008861D01*
X006874Y008812D01*
X004021Y003713D02*
X004021Y003664D01*
X003924Y003664D01*
X003876Y003713D01*
X003779Y003713D01*
X003731Y003664D01*
X003731Y003568D01*
X003779Y003519D01*
X003876Y003519D01*
X003924Y003568D01*
X004021Y003568D01*
X004021Y003519D01*
X004021Y003418D02*
X004021Y003225D01*
X004021Y003321D02*
X003731Y003321D01*
X003827Y003225D01*
X003876Y003124D02*
X003973Y003124D01*
X004021Y003075D01*
X004021Y002978D01*
X003973Y002930D01*
X003876Y002930D02*
X003827Y003027D01*
X003827Y003075D01*
X003876Y003124D01*
X003731Y003124D02*
X003731Y002930D01*
X003876Y002930D01*
X003827Y002829D02*
X004021Y002635D01*
X003973Y002534D02*
X003924Y002534D01*
X003876Y002486D01*
X003876Y002438D01*
X003876Y002486D02*
X003827Y002534D01*
X003779Y002534D01*
X003731Y002486D01*
X003731Y002389D01*
X003779Y002341D01*
X003973Y002341D02*
X004021Y002389D01*
X004021Y002486D01*
X003973Y002534D01*
X003827Y002635D02*
X004021Y002829D01*
X013362Y006624D02*
X013567Y006829D01*
X013670Y006727D01*
X013670Y006658D01*
X013636Y006624D01*
X013567Y006624D01*
D11*
X007101Y000759D03*
X006601Y001209D03*
X006591Y001199D03*
D12*
X007096Y001619D03*
X007096Y000769D03*
X007976Y001189D03*
X007986Y001209D03*
X007986Y001219D03*
D13*
X007096Y000779D03*
D14*
X007101Y000789D03*
D15*
X007096Y000799D03*
X007096Y001669D03*
D16*
X007676Y001519D03*
X008006Y001329D03*
X007996Y001129D03*
X007446Y000809D03*
X006756Y000809D03*
X006176Y001169D03*
X006326Y001439D03*
D17*
X006531Y001539D03*
X006241Y001049D03*
X006651Y000819D03*
X007551Y000819D03*
D18*
X006781Y001469D03*
X006771Y001459D03*
X006741Y000999D03*
X006591Y000829D03*
D19*
X006326Y000999D03*
X006306Y001009D03*
X007606Y000829D03*
D20*
X007666Y000839D03*
X006536Y000839D03*
D21*
X006476Y000849D03*
X006736Y001009D03*
X007096Y001709D03*
X007726Y000849D03*
D22*
X007991Y001229D03*
X007721Y001489D03*
X007101Y000849D03*
X006271Y001359D03*
X006201Y001249D03*
D23*
X006566Y001159D03*
X006626Y001229D03*
X006636Y001239D03*
X006636Y001249D03*
X006746Y001019D03*
X006426Y000859D03*
X006496Y001629D03*
X007296Y001029D03*
X007296Y001019D03*
X007776Y000859D03*
X007706Y001629D03*
D24*
X007736Y001449D03*
X007376Y001369D03*
X007376Y001359D03*
X007366Y001349D03*
X007366Y001339D03*
X007096Y001609D03*
X007096Y000859D03*
D25*
X007296Y001059D03*
X007296Y001069D03*
X007286Y001509D03*
X007826Y001599D03*
X006546Y001119D03*
X006376Y000869D03*
X006376Y001599D03*
D26*
X007096Y001599D03*
X007096Y000869D03*
D27*
X007291Y001049D03*
X007821Y000869D03*
D28*
X007896Y000889D03*
X007526Y001139D03*
X007896Y001579D03*
X007036Y001449D03*
X006906Y001289D03*
X006336Y001589D03*
X006306Y001579D03*
X006276Y001569D03*
X006246Y001559D03*
X006246Y000909D03*
X006276Y000899D03*
X006306Y000889D03*
X006336Y000879D03*
D29*
X007096Y000879D03*
X007096Y001589D03*
D30*
X007301Y001079D03*
X007861Y000879D03*
X007861Y001589D03*
D31*
X007101Y000889D03*
D32*
X007096Y000899D03*
D33*
X007031Y000999D03*
X006961Y001119D03*
X006971Y001129D03*
X006971Y001139D03*
X006971Y001149D03*
X006891Y001259D03*
X006541Y001109D03*
X006221Y000919D03*
X006201Y000929D03*
X007511Y001109D03*
X007521Y001129D03*
X007531Y001149D03*
X007531Y001159D03*
X007921Y000899D03*
X007951Y000909D03*
X007951Y001559D03*
X007921Y001569D03*
D34*
X007096Y001559D03*
X007096Y000909D03*
D35*
X007096Y000919D03*
D36*
X007046Y001009D03*
X006956Y001099D03*
X006956Y001109D03*
X006976Y001159D03*
X006986Y001169D03*
X006986Y001179D03*
X006876Y001249D03*
X006706Y001029D03*
X006216Y001549D03*
X007446Y001259D03*
X007536Y001169D03*
X007516Y001119D03*
X007506Y001099D03*
X007976Y000919D03*
X007996Y000929D03*
D37*
X007096Y000929D03*
D38*
X006951Y001089D03*
X006991Y001189D03*
X006861Y001239D03*
X006761Y001089D03*
X006711Y001039D03*
X006531Y001099D03*
X006671Y001409D03*
X006671Y001419D03*
X006671Y001429D03*
X006821Y001429D03*
X007351Y001169D03*
X007501Y001089D03*
X007541Y001179D03*
X007551Y001189D03*
X008021Y000939D03*
X008041Y000949D03*
X007981Y001549D03*
X006181Y000939D03*
D39*
X007101Y000939D03*
D40*
X007056Y001019D03*
X007066Y001029D03*
X006946Y001079D03*
X006796Y001149D03*
X006786Y001129D03*
X006776Y001119D03*
X006766Y001099D03*
X006756Y001079D03*
X006746Y001069D03*
X006856Y001229D03*
X006756Y001329D03*
X006806Y001399D03*
X006816Y001419D03*
X006666Y001399D03*
X007026Y001459D03*
X007116Y001259D03*
X007346Y001159D03*
X007496Y001079D03*
X006186Y001539D03*
X006156Y000949D03*
D41*
X007096Y000949D03*
D42*
X006941Y001069D03*
X006991Y001199D03*
X006841Y001219D03*
X006831Y001209D03*
X006821Y001189D03*
X006801Y001159D03*
X006791Y001139D03*
X006771Y001109D03*
X006731Y001059D03*
X006721Y001049D03*
X006531Y001089D03*
X006771Y001349D03*
X006781Y001359D03*
X006791Y001369D03*
X006801Y001379D03*
X006801Y001389D03*
X006811Y001409D03*
X007341Y001149D03*
X007441Y001249D03*
X007551Y001199D03*
X007531Y000999D03*
X008061Y000959D03*
X008081Y000969D03*
X008131Y001479D03*
X008111Y001489D03*
X008091Y001499D03*
X008071Y001509D03*
X008051Y001519D03*
X008031Y001529D03*
X008011Y001539D03*
X006161Y001529D03*
X006081Y001489D03*
X006061Y001479D03*
X006091Y000979D03*
X006111Y000969D03*
X006131Y000959D03*
D43*
X007096Y000959D03*
D44*
X007101Y000969D03*
D45*
X007096Y000979D03*
D46*
X007076Y001039D03*
X007086Y001049D03*
X007096Y001059D03*
X007096Y001069D03*
X007106Y001079D03*
X007116Y001249D03*
X006826Y001199D03*
X006816Y001179D03*
X006806Y001169D03*
X006766Y001339D03*
X006656Y001389D03*
X006146Y001519D03*
X006126Y001509D03*
X006106Y001499D03*
X006046Y001469D03*
X006056Y000999D03*
X006076Y000989D03*
X007486Y001069D03*
X007556Y001209D03*
X008106Y000979D03*
D47*
X007096Y000989D03*
D48*
X007111Y001089D03*
X007121Y001099D03*
X007131Y001109D03*
X007131Y001119D03*
X007141Y001129D03*
X007001Y001209D03*
X006911Y001339D03*
X006721Y001319D03*
X006651Y001379D03*
X006941Y001059D03*
X007441Y001239D03*
X007481Y001059D03*
X007691Y001109D03*
X007691Y001119D03*
X007701Y001129D03*
X008121Y000989D03*
X008141Y000999D03*
X008191Y001029D03*
X008171Y001459D03*
X008151Y001469D03*
X006031Y001459D03*
X006011Y001029D03*
X006021Y001019D03*
X006041Y001009D03*
D49*
X006611Y001649D03*
X007071Y001429D03*
X007311Y000999D03*
D50*
X007831Y000999D03*
X007851Y001009D03*
X007871Y001019D03*
X007891Y001029D03*
X008001Y001359D03*
D51*
X007646Y001639D03*
X007296Y001009D03*
X006616Y001219D03*
X006586Y001189D03*
X006556Y001639D03*
D52*
X006676Y001299D03*
X006936Y001389D03*
X006946Y001399D03*
X007106Y001219D03*
X007176Y001189D03*
X007166Y001169D03*
X007256Y001099D03*
X007416Y001199D03*
X007426Y001209D03*
X007546Y001009D03*
X008296Y001129D03*
X008306Y001149D03*
X008316Y001169D03*
X008316Y001179D03*
X008326Y001199D03*
X008326Y001209D03*
X008326Y001219D03*
X008326Y001229D03*
X008326Y001239D03*
X008326Y001249D03*
X008326Y001259D03*
X008326Y001269D03*
X008316Y001289D03*
X008316Y001299D03*
X008306Y001319D03*
X008296Y001339D03*
X005906Y001339D03*
X005896Y001319D03*
X005886Y001299D03*
X005886Y001289D03*
X005876Y001269D03*
X005876Y001259D03*
X005876Y001219D03*
X005876Y001209D03*
X005876Y001199D03*
X005886Y001179D03*
X005886Y001169D03*
X005896Y001149D03*
X005906Y001129D03*
D53*
X005986Y001049D03*
X005996Y001039D03*
X006016Y001449D03*
X006916Y001349D03*
X006936Y001299D03*
X007116Y001239D03*
X007156Y001149D03*
X007146Y001139D03*
X007266Y001089D03*
X007336Y001139D03*
X007436Y001229D03*
X007676Y001099D03*
X008156Y001009D03*
X008176Y001019D03*
X008206Y001039D03*
X008216Y001049D03*
X008186Y001449D03*
X007026Y001469D03*
D54*
X007261Y001519D03*
X006291Y001019D03*
X006271Y001029D03*
D55*
X006836Y001049D03*
X007026Y001239D03*
X007026Y001249D03*
X007096Y001189D03*
X007276Y001229D03*
X007306Y001199D03*
X007556Y001019D03*
X007636Y001219D03*
X007636Y001229D03*
X006876Y001329D03*
D56*
X006991Y001349D03*
X006991Y001359D03*
X006991Y001369D03*
X007021Y001479D03*
X006821Y001519D03*
X006641Y001369D03*
X006751Y001279D03*
X006521Y001079D03*
X006821Y001029D03*
X007191Y001199D03*
X007401Y001179D03*
X007411Y001189D03*
X007631Y001249D03*
X007651Y001059D03*
X005871Y001229D03*
X005871Y001239D03*
X005871Y001249D03*
D57*
X006256Y001039D03*
D58*
X006831Y001039D03*
X007101Y001199D03*
X007251Y001119D03*
X007301Y001189D03*
X007281Y001239D03*
X007371Y001089D03*
X007001Y001389D03*
D59*
X007291Y001039D03*
X007751Y001619D03*
X006561Y001149D03*
X006561Y001139D03*
X006451Y001619D03*
D60*
X006996Y001379D03*
X006986Y001339D03*
X007026Y001259D03*
X007016Y001229D03*
X007106Y001209D03*
X007196Y001209D03*
X007286Y001249D03*
X007306Y001179D03*
X007336Y001129D03*
X007256Y001109D03*
X007476Y001039D03*
X007636Y001049D03*
X007636Y001239D03*
D61*
X007906Y001039D03*
X006366Y001469D03*
X006186Y001119D03*
D62*
X005971Y001059D03*
X005961Y001069D03*
X005951Y001079D03*
X005941Y001089D03*
X005931Y001099D03*
X005921Y001109D03*
X005911Y001119D03*
X005901Y001139D03*
X005891Y001159D03*
X005881Y001189D03*
X005881Y001279D03*
X005891Y001309D03*
X005901Y001329D03*
X005911Y001349D03*
X005921Y001359D03*
X005931Y001369D03*
X005941Y001379D03*
X005951Y001389D03*
X005961Y001399D03*
X005971Y001409D03*
X005981Y001419D03*
X005991Y001429D03*
X006001Y001439D03*
X006701Y001309D03*
X006731Y001269D03*
X006721Y001259D03*
X006921Y001359D03*
X006921Y001369D03*
X006931Y001379D03*
X006951Y001409D03*
X007011Y001219D03*
X007111Y001229D03*
X007171Y001179D03*
X007161Y001159D03*
X007281Y001259D03*
X007431Y001219D03*
X007561Y001219D03*
X007631Y001259D03*
X007671Y001089D03*
X007661Y001079D03*
X007661Y001069D03*
X007481Y001049D03*
X006941Y001049D03*
X008201Y001439D03*
X008211Y001429D03*
X008221Y001419D03*
X008231Y001409D03*
X008241Y001399D03*
X008251Y001389D03*
X008261Y001379D03*
X008271Y001369D03*
X008281Y001359D03*
X008291Y001349D03*
X008301Y001329D03*
X008311Y001309D03*
X008321Y001279D03*
X008321Y001189D03*
X008311Y001159D03*
X008301Y001139D03*
X008291Y001119D03*
X008281Y001109D03*
X008271Y001099D03*
X008261Y001089D03*
X008251Y001079D03*
X008241Y001069D03*
X008231Y001059D03*
D63*
X007951Y001069D03*
X007931Y001059D03*
X007921Y001049D03*
X008001Y001349D03*
X006351Y001459D03*
X006181Y001139D03*
X006181Y001129D03*
D64*
X006231Y001059D03*
X006421Y001499D03*
X006581Y001549D03*
X007491Y001659D03*
D65*
X007996Y001379D03*
X006706Y001659D03*
X006216Y001069D03*
D66*
X006211Y001079D03*
X006201Y001089D03*
X006201Y001099D03*
X006401Y001489D03*
X007011Y001269D03*
D67*
X007456Y001269D03*
X007956Y001079D03*
X007966Y001089D03*
X007976Y001099D03*
X008006Y001339D03*
X006176Y001149D03*
D68*
X006196Y001109D03*
X006386Y001479D03*
X007996Y001369D03*
D69*
X007991Y001119D03*
X007981Y001109D03*
X006341Y001449D03*
X006181Y001159D03*
D70*
X006556Y001129D03*
X006806Y001509D03*
X006416Y001609D03*
X007786Y001609D03*
D71*
X007981Y001199D03*
X007971Y001179D03*
X007961Y001169D03*
X007961Y001159D03*
X007951Y001149D03*
X007951Y001139D03*
X006261Y001349D03*
D72*
X006571Y001169D03*
X006581Y001179D03*
X007061Y001439D03*
D73*
X006311Y001429D03*
X006171Y001179D03*
X008001Y001319D03*
D74*
X008006Y001309D03*
X006176Y001189D03*
D75*
X006176Y001199D03*
X006296Y001409D03*
X008006Y001289D03*
D76*
X008001Y001279D03*
X006181Y001209D03*
D77*
X006186Y001219D03*
X006286Y001399D03*
X007706Y001499D03*
D78*
X008001Y001269D03*
X008001Y001259D03*
X006281Y001389D03*
X006191Y001229D03*
D79*
X006196Y001239D03*
X006276Y001369D03*
X006276Y001379D03*
X007996Y001249D03*
X007996Y001239D03*
D80*
X006316Y001289D03*
X006306Y001259D03*
D81*
X006301Y001269D03*
D82*
X006306Y001279D03*
X007736Y001439D03*
D83*
X007251Y001279D03*
D84*
X007346Y001289D03*
X007346Y001299D03*
D85*
X006276Y001299D03*
D86*
X006301Y001419D03*
X007691Y001509D03*
X008001Y001299D03*
D87*
X006271Y001309D03*
D88*
X007341Y001309D03*
X007341Y001319D03*
X007351Y001329D03*
X007381Y001379D03*
D89*
X007726Y001469D03*
X006266Y001319D03*
D90*
X006266Y001329D03*
D91*
X006261Y001339D03*
D92*
X007601Y001389D03*
D93*
X007596Y001399D03*
X007576Y001409D03*
D94*
X007531Y001419D03*
D95*
X007721Y001429D03*
D96*
X006796Y001479D03*
X006766Y001449D03*
X006756Y001439D03*
D97*
X007731Y001459D03*
D98*
X007726Y001479D03*
X007096Y001699D03*
D99*
X006831Y001499D03*
X006811Y001489D03*
D100*
X006496Y001529D03*
X006466Y001519D03*
X006436Y001509D03*
D101*
X007456Y001529D03*
D102*
X007401Y001539D03*
D103*
X007341Y001549D03*
D104*
X007101Y001569D03*
D105*
X007096Y001579D03*
D106*
X007096Y001679D03*
D107*
X007101Y001689D03*
D108*
X005730Y001943D02*
X005730Y002663D01*
X005457Y008991D02*
X005474Y009008D01*
X009204Y008999D02*
X009228Y008999D01*
X011016Y010787D02*
X011016Y010811D01*
X009374Y011391D02*
X009357Y011408D01*
D109*
X008716Y008999D03*
X010166Y008399D03*
X003416Y006199D03*
D110*
X004627Y006450D02*
X004942Y006450D01*
X004942Y006214D01*
X004942Y006648D02*
X004627Y006648D01*
X004942Y006648D02*
X004942Y006884D01*
X004942Y007514D02*
X004942Y007750D01*
X004627Y007750D01*
X004627Y007948D02*
X004942Y007948D01*
X004942Y008184D01*
X004942Y008814D02*
X004942Y009050D01*
X004627Y009050D01*
X006140Y008179D02*
X006140Y006967D01*
X006652Y006573D02*
X007628Y006573D01*
X008140Y006967D02*
X008140Y008179D01*
X008244Y008126D02*
X008244Y007693D01*
X008244Y008126D02*
X008401Y008283D01*
X009031Y008283D01*
X009188Y008126D01*
X009188Y007693D01*
X009188Y006905D02*
X009188Y006315D01*
X008244Y006315D01*
X008244Y006905D01*
X009276Y006899D02*
X011856Y006899D01*
X011856Y004539D01*
X010194Y003400D02*
X010253Y003298D01*
X010194Y003400D02*
X009308Y002889D01*
X009367Y002786D01*
X009520Y002284D02*
X009452Y002245D01*
X009879Y001900D02*
X009938Y001798D01*
X010824Y002309D01*
X010765Y002412D01*
X008917Y002438D02*
X008917Y002123D01*
X008681Y002123D01*
X008051Y002123D02*
X007815Y002123D01*
X007815Y002438D01*
X009276Y004539D02*
X009276Y006899D01*
X010844Y008522D02*
X011001Y008365D01*
X011631Y008365D01*
X011788Y008522D01*
X011788Y008955D01*
X011788Y009743D02*
X011788Y010333D01*
X010844Y010333D01*
X010844Y009743D01*
X010397Y009716D02*
X010216Y009716D01*
X010308Y009594D01*
X010216Y009716D02*
X010035Y009716D01*
X010130Y009594D02*
X010206Y009710D01*
X010844Y008955D02*
X010844Y008522D01*
X007640Y008573D02*
X006652Y008573D01*
X006640Y007573D02*
X006642Y007617D01*
X006648Y007661D01*
X006658Y007704D01*
X006671Y007746D01*
X006688Y007787D01*
X006709Y007826D01*
X006733Y007863D01*
X006760Y007898D01*
X006790Y007930D01*
X006823Y007960D01*
X006859Y007986D01*
X006896Y008010D01*
X006936Y008029D01*
X006977Y008046D01*
X007020Y008058D01*
X007063Y008067D01*
X007107Y008072D01*
X007151Y008073D01*
X007195Y008070D01*
X007239Y008063D01*
X007282Y008052D01*
X007324Y008038D01*
X007364Y008020D01*
X007403Y007998D01*
X007439Y007974D01*
X007473Y007946D01*
X007505Y007915D01*
X007534Y007881D01*
X007560Y007845D01*
X007582Y007807D01*
X007601Y007767D01*
X007616Y007725D01*
X007628Y007683D01*
X007636Y007639D01*
X007640Y007595D01*
X007640Y007551D01*
X007636Y007507D01*
X007628Y007463D01*
X007616Y007421D01*
X007601Y007379D01*
X007582Y007339D01*
X007560Y007301D01*
X007534Y007265D01*
X007505Y007231D01*
X007473Y007200D01*
X007439Y007172D01*
X007403Y007148D01*
X007364Y007126D01*
X007324Y007108D01*
X007282Y007094D01*
X007239Y007083D01*
X007195Y007076D01*
X007151Y007073D01*
X007107Y007074D01*
X007063Y007079D01*
X007020Y007088D01*
X006977Y007100D01*
X006936Y007117D01*
X006896Y007136D01*
X006859Y007160D01*
X006823Y007186D01*
X006790Y007216D01*
X006760Y007248D01*
X006733Y007283D01*
X006709Y007320D01*
X006688Y007359D01*
X006671Y007400D01*
X006658Y007442D01*
X006648Y007485D01*
X006642Y007529D01*
X006640Y007573D01*
X004942Y005584D02*
X004942Y005348D01*
X004627Y005348D01*
X001996Y007087D02*
X001996Y008111D01*
X001878Y008111D01*
X001878Y007087D02*
X001996Y007087D01*
X001366Y006969D02*
X001366Y006890D01*
X000854Y007087D02*
X000736Y007087D01*
X000736Y008111D01*
X000854Y008111D01*
X002971Y011164D02*
X002748Y011387D01*
X002971Y011164D02*
X003138Y011331D01*
X003584Y011777D02*
X003751Y011944D01*
X003528Y012167D01*
X007565Y013565D02*
X007698Y014060D01*
X009067Y013693D02*
X008934Y013198D01*
X009352Y012953D02*
X009420Y012914D01*
X009779Y013298D02*
X009838Y013400D01*
X010724Y012889D01*
X010665Y012786D01*
X010153Y011900D02*
X010094Y011798D01*
X009208Y012309D01*
X009267Y012412D01*
D111*
X008369Y011448D02*
X008369Y011250D01*
X006516Y009398D01*
X004564Y011349D01*
X006516Y013301D01*
X008369Y011448D01*
X007902Y011349D02*
X007904Y011372D01*
X007910Y011395D01*
X007919Y011416D01*
X007932Y011436D01*
X007948Y011453D01*
X007966Y011467D01*
X007986Y011478D01*
X008008Y011486D01*
X008031Y011490D01*
X008055Y011490D01*
X008078Y011486D01*
X008100Y011478D01*
X008120Y011467D01*
X008138Y011453D01*
X008154Y011436D01*
X008167Y011416D01*
X008176Y011395D01*
X008182Y011372D01*
X008184Y011349D01*
X008182Y011326D01*
X008176Y011303D01*
X008167Y011282D01*
X008154Y011262D01*
X008138Y011245D01*
X008120Y011231D01*
X008100Y011220D01*
X008078Y011212D01*
X008055Y011208D01*
X008031Y011208D01*
X008008Y011212D01*
X007986Y011220D01*
X007966Y011231D01*
X007948Y011245D01*
X007932Y011262D01*
X007919Y011282D01*
X007910Y011303D01*
X007904Y011326D01*
X007902Y011349D01*
X008298Y005435D02*
X008534Y005435D01*
X008534Y004963D02*
X008298Y004963D01*
X008298Y004735D02*
X008534Y004735D01*
X008534Y004263D02*
X008298Y004263D01*
X008298Y004035D02*
X008534Y004035D01*
X008534Y003563D02*
X008298Y003563D01*
X006484Y003563D02*
X006248Y003563D01*
X006248Y004035D02*
X006484Y004035D01*
X006484Y004263D02*
X006248Y004263D01*
X006248Y004735D02*
X006484Y004735D01*
X006484Y004963D02*
X006248Y004963D01*
X006248Y005435D02*
X006484Y005435D01*
X004784Y005135D02*
X004548Y005135D01*
X004548Y004663D02*
X004784Y004663D01*
X004784Y004435D02*
X004548Y004435D01*
X004548Y003963D02*
X004784Y003963D01*
X004784Y003735D02*
X004548Y003735D01*
X004548Y003263D02*
X004784Y003263D01*
D112*
X010566Y007089D03*
D113*
X009116Y007449D02*
X008316Y007449D01*
X010916Y009199D02*
X011716Y009199D01*
M02*
