G75*
G70*
%OFA0B0*%
%FSLAX24Y24*%
%IPPOS*%
%LPD*%
%AMOC8*
5,1,8,0,0,1.08239X$1,22.5*
%
%ADD10C,0.0800*%
%ADD11R,0.0454X0.1871*%
%ADD12R,0.0690X0.1399*%
%ADD13R,0.1871X0.0454*%
%ADD14R,0.1399X0.0690*%
%ADD15R,0.0611X0.0611*%
%ADD16C,0.0417*%
%ADD17C,0.0456*%
D10*
X003069Y005819D03*
X003069Y006819D03*
X003069Y007819D03*
X003069Y008819D03*
X003069Y009819D03*
X003069Y010819D03*
X012844Y010044D03*
X012844Y009044D03*
X012844Y008044D03*
X012844Y007044D03*
X012844Y006044D03*
X012844Y005044D03*
D11*
X011011Y008244D03*
X010223Y008244D03*
D12*
X009278Y006196D03*
X011956Y006196D03*
D13*
X008456Y003683D03*
X008456Y002895D03*
D14*
X006408Y001950D03*
X006408Y004628D03*
D15*
G36*
X011571Y002950D02*
X011140Y002519D01*
X010709Y002950D01*
X011140Y003381D01*
X011571Y002950D01*
G37*
G36*
X012629Y004008D02*
X012198Y003577D01*
X011767Y004008D01*
X012198Y004439D01*
X012629Y004008D01*
G37*
D16*
X003619Y004069D03*
X004069Y004569D03*
X004319Y004219D03*
X004369Y004919D03*
X004219Y005469D03*
X005079Y005909D03*
X004219Y007219D03*
X004269Y008919D03*
X004419Y009419D03*
X005119Y009694D03*
X004719Y010169D03*
X006169Y011319D03*
X006019Y011769D03*
X006519Y010869D03*
X006919Y010469D03*
X007369Y012019D03*
X006869Y012469D03*
X007219Y012719D03*
X008459Y013059D03*
X009169Y012769D03*
X009419Y011669D03*
X010419Y012569D03*
X011319Y011619D03*
X010519Y011369D03*
X010619Y010519D03*
X009919Y010269D03*
X009819Y009819D03*
X009219Y009919D03*
X007269Y008569D03*
X007269Y008169D03*
X007319Y007669D03*
X007219Y007069D03*
X006819Y007219D03*
X006429Y006699D03*
X007269Y006419D03*
X007169Y005699D03*
X007719Y005569D03*
X007589Y005109D03*
X007609Y004419D03*
X007169Y003169D03*
X008119Y002069D03*
X010289Y002829D03*
X010579Y002419D03*
X010519Y003569D03*
X008619Y005869D03*
X007929Y006419D03*
X006119Y008369D03*
X004469Y012219D03*
X004819Y012569D03*
X005269Y012869D03*
X001919Y009119D03*
X001619Y008769D03*
X001919Y006519D03*
X001769Y005619D03*
X005459Y002389D03*
X005739Y002739D03*
X005379Y001839D03*
D17*
X010113Y006903D03*
X011023Y006973D03*
M02*
