%
M48
M72
T01C0.0197
T02C0.0236
T03C0.0400
%
T01
X3619Y5018
X4069Y5518
X4319Y5168
X4369Y5868
X4219Y6418
X5079Y6858
X4219Y8168
X4269Y9868
X4419Y10368
X5119Y10643
X4719Y11118
X6169Y12268
X6519Y11818
X6919Y11418
X6019Y12718
X6869Y13418
X7219Y13668
X7369Y12968
X8459Y14008
X9169Y13718
X9419Y12618
X10419Y13518
X11319Y12568
X10519Y12318
X10619Y11468
X9919Y11218
X9819Y10768
X9219Y10868
X7269Y9518
X7269Y9118
X7319Y8618
X7219Y8018
X6819Y8168
X6429Y7648
X7269Y7368
X7929Y7368
X8619Y6818
X7719Y6518
X7589Y6058
X7169Y6648
X7609Y5368
X7169Y4118
X8119Y3018
X10289Y3778
X10579Y3368
X10519Y4518
X6119Y9318
X4469Y13168
X4819Y13518
X5269Y13818
X1919Y10068
X1619Y9718
X1919Y7468
X1769Y6568
X5459Y3338
X5739Y3688
X5379Y2788
T02
X10113Y7852
X11023Y7922
T03
X12844Y7993
X12844Y8993
X12844Y9993
X12844Y10993
X12844Y6993
X12844Y5993
X3069Y6768
X3069Y7768
X3069Y8768
X3069Y9768
X3069Y10768
X3069Y11768
M30
