G75*
G70*
%OFA0B0*%
%FSLAX24Y24*%
%IPPOS*%
%LPD*%
%AMOC8*
5,1,8,0,0,1.08239X$1,22.5*
%
%ADD10C,0.0740*%
%ADD11R,0.0394X0.1811*%
%ADD12R,0.0630X0.1339*%
%ADD13R,0.1811X0.0394*%
%ADD14R,0.1339X0.0630*%
%ADD15R,0.0551X0.0551*%
%ADD16C,0.0357*%
%ADD17C,0.0080*%
%ADD18C,0.0320*%
%ADD19C,0.0240*%
%ADD20C,0.0396*%
%ADD21C,0.0100*%
%ADD22C,0.0120*%
D10*
X003069Y006768D03*
X003069Y007768D03*
X003069Y008768D03*
X003069Y009768D03*
X003069Y010768D03*
X003069Y011768D03*
X012844Y010993D03*
X012844Y009993D03*
X012844Y008993D03*
X012844Y007993D03*
X012844Y006993D03*
X012844Y005993D03*
D11*
X011011Y009192D03*
X010223Y009192D03*
D12*
X009278Y007145D03*
X011956Y007145D03*
D13*
X008456Y004631D03*
X008456Y003844D03*
D14*
X006408Y002899D03*
X006408Y005576D03*
D15*
G36*
X011528Y003899D02*
X011140Y003511D01*
X010752Y003899D01*
X011140Y004287D01*
X011528Y003899D01*
G37*
G36*
X012586Y004956D02*
X012198Y004568D01*
X011810Y004956D01*
X012198Y005344D01*
X012586Y004956D01*
G37*
D16*
X010519Y004518D03*
X010289Y003778D03*
X010579Y003368D03*
X008119Y003018D03*
X007169Y004118D03*
X007609Y005368D03*
X007589Y006058D03*
X007719Y006518D03*
X007169Y006648D03*
X007269Y007368D03*
X007219Y008018D03*
X006819Y008168D03*
X006429Y007648D03*
X007319Y008618D03*
X007269Y009118D03*
X007269Y009518D03*
X006119Y009318D03*
X005119Y010643D03*
X004719Y011118D03*
X004419Y010368D03*
X004269Y009868D03*
X004219Y008168D03*
X005079Y006858D03*
X004219Y006418D03*
X004369Y005868D03*
X004069Y005518D03*
X004319Y005168D03*
X003619Y005018D03*
X001769Y006568D03*
X001919Y007468D03*
X001619Y009718D03*
X001919Y010068D03*
X004469Y013168D03*
X004819Y013518D03*
X005269Y013818D03*
X006019Y012718D03*
X006169Y012268D03*
X006519Y011818D03*
X006919Y011418D03*
X007369Y012968D03*
X006869Y013418D03*
X007219Y013668D03*
X008459Y014008D03*
X009169Y013718D03*
X009419Y012618D03*
X010419Y013518D03*
X011319Y012568D03*
X010519Y012318D03*
X010619Y011468D03*
X009919Y011218D03*
X009819Y010768D03*
X009219Y010868D03*
X007929Y007368D03*
X008619Y006818D03*
X005739Y003688D03*
X005459Y003338D03*
X005379Y002788D03*
D17*
X003046Y003553D02*
X002605Y003994D01*
X002206Y004474D01*
X001854Y004988D01*
X001551Y005533D01*
X001299Y006103D01*
X001101Y006694D01*
X000958Y007301D01*
X000872Y007919D01*
X000843Y008542D01*
X000872Y009164D01*
X000958Y009782D01*
X001101Y010389D01*
X001299Y010980D01*
X001551Y011550D01*
X001854Y012095D01*
X002206Y012609D01*
X002605Y013089D01*
X003046Y013530D01*
X003525Y013928D01*
X004040Y014280D01*
X004584Y014584D01*
X005155Y014836D01*
X005746Y015034D01*
X006353Y015177D01*
X006970Y015263D01*
X007593Y015292D01*
X008216Y015263D01*
X008833Y015177D01*
X009440Y015034D01*
X010031Y014836D01*
X010602Y014584D01*
X011146Y014280D01*
X011661Y013928D01*
X012140Y013530D01*
X012581Y013089D01*
X012980Y012609D01*
X013332Y012095D01*
X013635Y011550D01*
X013887Y010980D01*
X014085Y010389D01*
X014228Y009782D01*
X014314Y009164D01*
X014343Y008542D01*
X014314Y007919D01*
X014228Y007301D01*
X014085Y006694D01*
X013887Y006103D01*
X013784Y005869D01*
X013793Y007936D01*
X013793Y007937D01*
X013793Y007992D01*
X013793Y008047D01*
X013793Y008048D01*
X013772Y008099D01*
X013751Y008150D01*
X013751Y008151D01*
X013750Y008151D01*
X013711Y008190D01*
X013673Y008229D01*
X013672Y008229D01*
X013672Y008230D01*
X013621Y008251D01*
X013570Y008272D01*
X013569Y008272D01*
X013569Y008273D01*
X013514Y008273D01*
X013459Y008273D01*
X013458Y008273D01*
X013302Y008273D01*
X013293Y008293D01*
X013144Y008442D01*
X013022Y008493D01*
X013144Y008543D01*
X013293Y008692D01*
X013374Y008887D01*
X013374Y009098D01*
X013293Y009293D01*
X013144Y009442D01*
X013022Y009493D01*
X013144Y009543D01*
X013293Y009692D01*
X013374Y009887D01*
X013374Y010098D01*
X013293Y010293D01*
X013144Y010442D01*
X013022Y010493D01*
X013144Y010543D01*
X013293Y010692D01*
X013374Y010887D01*
X013374Y011098D01*
X013293Y011293D01*
X013144Y011442D01*
X012949Y011523D01*
X012739Y011523D01*
X012544Y011442D01*
X012395Y011293D01*
X012314Y011098D01*
X012314Y010887D01*
X012395Y010692D01*
X012509Y010578D01*
X011624Y010578D01*
X011103Y011099D01*
X010980Y011222D01*
X010852Y011222D01*
X010906Y011276D01*
X010957Y011400D01*
X010957Y011535D01*
X010906Y011659D01*
X010814Y011751D01*
X011292Y012229D01*
X011386Y012229D01*
X011511Y012281D01*
X011606Y012376D01*
X011657Y012500D01*
X011657Y012635D01*
X011606Y012759D01*
X011511Y012854D01*
X011386Y012906D01*
X011252Y012906D01*
X011127Y012854D01*
X011032Y012759D01*
X010981Y012635D01*
X010981Y012540D01*
X010848Y012408D01*
X010806Y012509D01*
X010711Y012604D01*
X010586Y012656D01*
X010452Y012656D01*
X010389Y012630D01*
X010389Y013176D01*
X010392Y013179D01*
X010486Y013179D01*
X010611Y013231D01*
X010706Y013326D01*
X010757Y013450D01*
X010757Y013585D01*
X010706Y013709D01*
X010611Y013804D01*
X010486Y013856D01*
X010352Y013856D01*
X010227Y013804D01*
X010132Y013709D01*
X010081Y013585D01*
X010081Y013490D01*
X009949Y013359D01*
X009949Y012538D01*
X009573Y012538D01*
X009486Y012541D01*
X009483Y012538D01*
X009478Y012538D01*
X009416Y012476D01*
X008783Y011888D01*
X008778Y011888D01*
X008716Y011826D01*
X008653Y011767D01*
X008652Y011762D01*
X008179Y011289D01*
X008179Y011754D01*
X007079Y012854D01*
X007079Y013149D01*
X007156Y013226D01*
X007199Y013329D01*
X007275Y013329D01*
X007773Y012866D01*
X007832Y012808D01*
X007837Y012808D01*
X007840Y012804D01*
X007923Y012808D01*
X008556Y012808D01*
X009128Y013379D01*
X009236Y013379D01*
X009361Y013431D01*
X009456Y013526D01*
X009507Y013650D01*
X009507Y013785D01*
X009456Y013909D01*
X009361Y014004D01*
X009236Y014056D01*
X009102Y014056D01*
X008977Y014004D01*
X008882Y013909D01*
X008831Y013785D01*
X008831Y013676D01*
X008382Y013228D01*
X008001Y013228D01*
X007557Y013640D01*
X007557Y013735D01*
X007506Y013859D01*
X007411Y013954D01*
X007286Y014006D01*
X007152Y014006D01*
X007027Y013954D01*
X006932Y013859D01*
X006889Y013756D01*
X006802Y013756D01*
X006677Y013704D01*
X006582Y013609D01*
X006531Y013485D01*
X006531Y013350D01*
X006582Y013226D01*
X006659Y013149D01*
X006659Y012681D01*
X006782Y012558D01*
X007759Y011581D01*
X007759Y011254D01*
X007409Y010904D01*
X007409Y008947D01*
X007386Y008956D01*
X007252Y008956D01*
X007127Y008904D01*
X007120Y008898D01*
X004696Y008898D01*
X006878Y011079D01*
X006986Y011079D01*
X007111Y011131D01*
X007206Y011226D01*
X007257Y011350D01*
X007257Y011485D01*
X007206Y011609D01*
X007111Y011704D01*
X006986Y011756D01*
X006852Y011756D01*
X006727Y011704D01*
X006632Y011609D01*
X006581Y011485D01*
X006581Y011376D01*
X006179Y010974D01*
X006179Y011929D01*
X006236Y011929D01*
X006361Y011981D01*
X006456Y012076D01*
X006507Y012200D01*
X006507Y012335D01*
X006456Y012459D01*
X006361Y012554D01*
X006324Y012570D01*
X006357Y012650D01*
X006357Y012785D01*
X006306Y012909D01*
X006211Y013004D01*
X006086Y013056D01*
X005952Y013056D01*
X005827Y013004D01*
X005779Y012956D01*
X005779Y013554D01*
X005792Y013573D01*
X005779Y013638D01*
X005779Y013704D01*
X005762Y013721D01*
X005758Y013744D01*
X005703Y013781D01*
X005656Y013828D01*
X005633Y013828D01*
X005607Y013844D01*
X005607Y013885D01*
X005556Y014009D01*
X005461Y014104D01*
X005336Y014156D01*
X005202Y014156D01*
X005077Y014104D01*
X004982Y014009D01*
X004931Y013885D01*
X004931Y013838D01*
X004886Y013856D01*
X004752Y013856D01*
X004627Y013804D01*
X004532Y013709D01*
X004481Y013585D01*
X004481Y013506D01*
X004402Y013506D01*
X004277Y013454D01*
X004182Y013359D01*
X004131Y013235D01*
X004131Y013100D01*
X004182Y012976D01*
X004277Y012881D01*
X004402Y012829D01*
X004536Y012829D01*
X004565Y012841D01*
X004959Y012559D01*
X004959Y011604D01*
X004803Y011449D01*
X004786Y011456D01*
X004652Y011456D01*
X004527Y011404D01*
X004432Y011309D01*
X004381Y011185D01*
X004381Y011050D01*
X004432Y010926D01*
X004527Y010831D01*
X004568Y010814D01*
X004460Y010706D01*
X004352Y010706D01*
X004227Y010654D01*
X004132Y010559D01*
X004081Y010435D01*
X004081Y010300D01*
X004132Y010176D01*
X004227Y010081D01*
X004352Y010029D01*
X004486Y010029D01*
X004611Y010081D01*
X004706Y010176D01*
X004757Y010300D01*
X004757Y010409D01*
X004823Y010474D01*
X004832Y010451D01*
X004927Y010356D01*
X004951Y010346D01*
X003582Y008978D01*
X003556Y008978D01*
X003518Y009068D01*
X003369Y009217D01*
X003247Y009268D01*
X003369Y009318D01*
X003518Y009467D01*
X003599Y009662D01*
X003599Y009873D01*
X003518Y010068D01*
X003369Y010217D01*
X003218Y010280D01*
X003265Y010295D01*
X003336Y010331D01*
X003401Y010379D01*
X003458Y010435D01*
X003505Y010500D01*
X003542Y010572D01*
X003566Y010648D01*
X003579Y010727D01*
X003579Y010728D01*
X003109Y010728D01*
X003109Y010808D01*
X003579Y010808D01*
X003566Y010887D01*
X003542Y010963D01*
X003505Y011035D01*
X003458Y011100D01*
X003401Y011157D01*
X003336Y011204D01*
X003265Y011240D01*
X003218Y011255D01*
X003369Y011318D01*
X003518Y011467D01*
X003599Y011662D01*
X003599Y011873D01*
X003518Y012068D01*
X003369Y012217D01*
X003174Y012298D01*
X002964Y012298D01*
X002769Y012217D01*
X002620Y012068D01*
X002539Y011873D01*
X002539Y011662D01*
X002620Y011467D01*
X002769Y011318D01*
X002920Y011255D01*
X002873Y011240D01*
X002802Y011204D01*
X002737Y011157D01*
X002680Y011100D01*
X002633Y011035D01*
X002596Y010963D01*
X002572Y010887D01*
X002559Y010808D01*
X002559Y010808D01*
X003029Y010808D01*
X003029Y010728D01*
X002559Y010728D01*
X002559Y010727D01*
X002572Y010648D01*
X002596Y010572D01*
X002633Y010500D01*
X002680Y010435D01*
X002737Y010379D01*
X002802Y010331D01*
X002873Y010295D01*
X002920Y010280D01*
X002769Y010217D01*
X002620Y010068D01*
X002539Y009873D01*
X002539Y009662D01*
X002620Y009467D01*
X002769Y009318D01*
X002891Y009268D01*
X002769Y009217D01*
X002620Y009068D01*
X002539Y008873D01*
X002539Y008662D01*
X002620Y008467D01*
X002769Y008318D01*
X002891Y008268D01*
X002769Y008217D01*
X002620Y008068D01*
X002539Y007873D01*
X002539Y007662D01*
X002620Y007467D01*
X002769Y007318D01*
X002891Y007268D01*
X002769Y007217D01*
X002620Y007068D01*
X002539Y006873D01*
X002539Y006662D01*
X002620Y006467D01*
X002769Y006318D01*
X002964Y006238D01*
X003174Y006238D01*
X003369Y006318D01*
X003518Y006467D01*
X003599Y006662D01*
X003599Y006873D01*
X003562Y006963D01*
X003756Y007158D01*
X003879Y007281D01*
X003879Y008081D01*
X003886Y008087D01*
X003932Y007976D01*
X004027Y007881D01*
X004152Y007829D01*
X004286Y007829D01*
X004411Y007881D01*
X004506Y007976D01*
X004557Y008100D01*
X004557Y008110D01*
X004785Y008338D01*
X007120Y008338D01*
X007127Y008331D01*
X007252Y008279D01*
X007386Y008279D01*
X007409Y008288D01*
X007409Y007676D01*
X007336Y007706D01*
X007202Y007706D01*
X007077Y007654D01*
X006982Y007559D01*
X006931Y007435D01*
X006931Y007300D01*
X006957Y007238D01*
X006330Y007238D01*
X006402Y007309D01*
X006496Y007309D01*
X006621Y007361D01*
X006716Y007456D01*
X006767Y007580D01*
X006767Y007715D01*
X006716Y007839D01*
X006621Y007934D01*
X006496Y007986D01*
X006362Y007986D01*
X006237Y007934D01*
X006142Y007839D01*
X006091Y007715D01*
X006091Y007620D01*
X005108Y006638D01*
X004478Y006638D01*
X004411Y006704D01*
X004286Y006756D01*
X004152Y006756D01*
X004027Y006704D01*
X003932Y006609D01*
X003881Y006485D01*
X003881Y006350D01*
X003932Y006226D01*
X004027Y006131D01*
X004117Y006094D01*
X004082Y006059D01*
X004031Y005935D01*
X004031Y005856D01*
X004002Y005856D01*
X003877Y005804D01*
X003782Y005709D01*
X003731Y005585D01*
X003731Y005450D01*
X003782Y005326D01*
X003798Y005310D01*
X003686Y005356D01*
X003552Y005356D01*
X003427Y005304D01*
X003332Y005209D01*
X003281Y005085D01*
X003281Y004950D01*
X003332Y004826D01*
X003427Y004731D01*
X003552Y004679D01*
X003646Y004679D01*
X004428Y003898D01*
X006910Y003898D01*
X006977Y003831D01*
X007102Y003779D01*
X007236Y003779D01*
X007361Y003831D01*
X007390Y003860D01*
X007390Y003581D01*
X007484Y003487D01*
X007844Y003487D01*
X007841Y003218D01*
X007832Y003209D01*
X007781Y003085D01*
X007781Y002950D01*
X007832Y002826D01*
X007927Y002731D01*
X008052Y002679D01*
X008186Y002679D01*
X008311Y002731D01*
X008406Y002826D01*
X008457Y002950D01*
X008457Y003085D01*
X008406Y003209D01*
X008401Y003214D01*
X008404Y003473D01*
X008425Y003487D01*
X009427Y003487D01*
X009521Y003581D01*
X009521Y004107D01*
X009427Y004201D01*
X007501Y004201D01*
X007456Y004309D01*
X007361Y004404D01*
X007236Y004456D01*
X007232Y004456D01*
X007267Y004504D01*
X007319Y004556D01*
X007319Y004576D01*
X007410Y004701D01*
X007410Y004671D01*
X008416Y004671D01*
X008416Y004591D01*
X008496Y004591D01*
X008496Y004671D01*
X009501Y004671D01*
X009501Y004798D01*
X009760Y004798D01*
X009899Y004654D01*
X009899Y003907D01*
X009881Y003869D01*
X009899Y003819D01*
X009899Y003766D01*
X009929Y003737D01*
X009943Y003697D01*
X009959Y003690D01*
X010002Y003586D01*
X010097Y003491D01*
X010222Y003439D01*
X010242Y003439D01*
X010241Y003435D01*
X010241Y003300D01*
X010292Y003176D01*
X010387Y003081D01*
X010512Y003029D01*
X010646Y003029D01*
X010771Y003081D01*
X010866Y003176D01*
X010876Y003199D01*
X011064Y003358D01*
X011074Y003349D01*
X011206Y003349D01*
X011690Y003832D01*
X011690Y003965D01*
X011443Y004212D01*
X011448Y004708D01*
X011449Y004710D01*
X011449Y004764D01*
X011450Y004818D01*
X011449Y004820D01*
X011449Y004821D01*
X011428Y004871D01*
X011408Y004922D01*
X011407Y004923D01*
X011406Y004924D01*
X011368Y004962D01*
X011330Y005001D01*
X011329Y005002D01*
X010393Y005938D01*
X010393Y007625D01*
X010417Y007649D01*
X010471Y007780D01*
X010471Y007923D01*
X010417Y008054D01*
X010324Y008147D01*
X010439Y008147D01*
X010474Y008156D01*
X010506Y008175D01*
X010532Y008201D01*
X010551Y008233D01*
X010560Y008268D01*
X010560Y009152D01*
X010263Y009152D01*
X010263Y009232D01*
X010183Y009232D01*
X010183Y009152D01*
X009886Y009152D01*
X009886Y008268D01*
X009896Y008233D01*
X009914Y008201D01*
X009941Y008175D01*
X009948Y008171D01*
X009910Y008155D01*
X009809Y008054D01*
X009755Y007923D01*
X009755Y007780D01*
X009809Y007649D01*
X009833Y007625D01*
X009833Y005766D01*
X009876Y005663D01*
X009941Y005598D01*
X007858Y005598D01*
X007801Y005654D01*
X007676Y005706D01*
X007542Y005706D01*
X007417Y005654D01*
X007322Y005559D01*
X007271Y005435D01*
X007271Y005300D01*
X007297Y005238D01*
X007278Y005238D01*
X007264Y005224D01*
X007245Y005221D01*
X007238Y005211D01*
X007238Y005957D01*
X007144Y006051D01*
X005894Y006051D01*
X006270Y006428D01*
X006910Y006428D01*
X006977Y006361D01*
X007102Y006309D01*
X007236Y006309D01*
X007361Y006361D01*
X007401Y006401D01*
X007420Y006354D01*
X007397Y006344D01*
X007302Y006249D01*
X007251Y006125D01*
X007251Y005990D01*
X007302Y005866D01*
X007397Y005771D01*
X007522Y005719D01*
X007656Y005719D01*
X007781Y005771D01*
X007854Y005844D01*
X008019Y005847D01*
X008106Y005846D01*
X008110Y005850D01*
X008115Y005850D01*
X008175Y005912D01*
X008358Y006088D01*
X008360Y006088D01*
X008423Y006150D01*
X008487Y006212D01*
X008487Y006215D01*
X008489Y006216D01*
X008489Y006305D01*
X008491Y006394D01*
X008489Y006396D01*
X008489Y006505D01*
X008552Y006479D01*
X008686Y006479D01*
X008804Y006528D01*
X008804Y006409D01*
X008897Y006316D01*
X009660Y006316D01*
X009753Y006409D01*
X009753Y007881D01*
X009660Y007974D01*
X008897Y007974D01*
X008804Y007881D01*
X008804Y007107D01*
X008739Y007134D01*
X008739Y010526D01*
X008919Y010707D01*
X008932Y010676D01*
X009027Y010581D01*
X009152Y010529D01*
X009286Y010529D01*
X009411Y010581D01*
X009495Y010665D01*
X009532Y010576D01*
X009627Y010481D01*
X009752Y010429D01*
X009886Y010429D01*
X010011Y010481D01*
X010088Y010558D01*
X010720Y010558D01*
X011020Y010258D01*
X010748Y010258D01*
X010654Y010164D01*
X010654Y008220D01*
X010701Y008174D01*
X010701Y008081D01*
X010665Y007993D01*
X010665Y007850D01*
X010719Y007719D01*
X010820Y007618D01*
X010952Y007563D01*
X011094Y007563D01*
X011226Y007618D01*
X011327Y007719D01*
X011381Y007850D01*
X011381Y007993D01*
X011341Y008089D01*
X011340Y008193D01*
X011368Y008220D01*
X011368Y009952D01*
X011988Y009952D01*
X012009Y009931D01*
X012009Y009531D01*
X012132Y009408D01*
X012351Y009188D01*
X012314Y009098D01*
X012314Y008887D01*
X012395Y008692D01*
X012544Y008543D01*
X012666Y008493D01*
X012544Y008442D01*
X012395Y008293D01*
X012314Y008098D01*
X012314Y007974D01*
X011574Y007974D01*
X011481Y007881D01*
X011481Y006409D01*
X011574Y006316D01*
X012337Y006316D01*
X012431Y006409D01*
X012431Y006694D01*
X012455Y006660D01*
X012512Y006604D01*
X012577Y006556D01*
X012648Y006520D01*
X012725Y006495D01*
X012741Y006493D01*
X012725Y006490D01*
X012648Y006465D01*
X012577Y006429D01*
X012512Y006382D01*
X012455Y006325D01*
X012408Y006260D01*
X012371Y006188D01*
X012347Y006112D01*
X012334Y006033D01*
X012334Y006033D01*
X012804Y006033D01*
X012804Y006503D01*
X012804Y006953D01*
X012884Y006953D01*
X012884Y006033D01*
X012804Y006033D01*
X012804Y005953D01*
X012334Y005953D01*
X012334Y005952D01*
X012347Y005873D01*
X012371Y005797D01*
X012408Y005725D01*
X012455Y005660D01*
X012512Y005604D01*
X012570Y005562D01*
X012467Y005562D01*
X012364Y005519D01*
X012308Y005462D01*
X012264Y005506D01*
X012132Y005506D01*
X011648Y005023D01*
X011648Y004890D01*
X012132Y004407D01*
X012264Y004407D01*
X012748Y004890D01*
X012748Y005002D01*
X013139Y005002D01*
X013242Y005044D01*
X013320Y005123D01*
X013516Y005319D01*
X013332Y004988D01*
X012980Y004474D01*
X012581Y003994D01*
X012140Y003553D01*
X011661Y003155D01*
X011146Y002803D01*
X010602Y002499D01*
X010031Y002247D01*
X009440Y002049D01*
X008833Y001906D01*
X008216Y001820D01*
X007593Y001792D01*
X006970Y001820D01*
X006353Y001906D01*
X005746Y002049D01*
X005155Y002247D01*
X004584Y002499D01*
X004040Y002803D01*
X003525Y003155D01*
X003046Y003553D01*
X003025Y003574D02*
X007397Y003574D01*
X007390Y003653D02*
X002946Y003653D01*
X002868Y003731D02*
X007390Y003731D01*
X007390Y003810D02*
X007310Y003810D01*
X007028Y003810D02*
X002789Y003810D01*
X002711Y003888D02*
X006920Y003888D01*
X007144Y003374D02*
X005673Y003374D01*
X005579Y003280D01*
X005579Y002518D01*
X005673Y002424D01*
X007144Y002424D01*
X007238Y002518D01*
X007238Y003280D01*
X007144Y003374D01*
X007179Y003339D02*
X007842Y003339D01*
X007843Y003417D02*
X003210Y003417D01*
X003304Y003339D02*
X005638Y003339D01*
X005579Y003260D02*
X003399Y003260D01*
X003493Y003182D02*
X005579Y003182D01*
X005579Y003103D02*
X003601Y003103D01*
X003716Y003025D02*
X005579Y003025D01*
X005579Y002946D02*
X003830Y002946D01*
X003945Y002868D02*
X005579Y002868D01*
X005579Y002789D02*
X004064Y002789D01*
X004205Y002711D02*
X005579Y002711D01*
X005579Y002632D02*
X004346Y002632D01*
X004487Y002554D02*
X005579Y002554D01*
X005622Y002475D02*
X004639Y002475D01*
X004817Y002397D02*
X010369Y002397D01*
X010192Y002318D02*
X004995Y002318D01*
X005178Y002240D02*
X010008Y002240D01*
X009774Y002161D02*
X005412Y002161D01*
X005646Y002083D02*
X009540Y002083D01*
X009248Y002004D02*
X005938Y002004D01*
X006272Y001926D02*
X008914Y001926D01*
X008407Y001847D02*
X006779Y001847D01*
X007195Y002475D02*
X010547Y002475D01*
X010699Y002554D02*
X007238Y002554D01*
X007238Y002632D02*
X010840Y002632D01*
X010981Y002711D02*
X008262Y002711D01*
X008369Y002789D02*
X011122Y002789D01*
X011241Y002868D02*
X008423Y002868D01*
X008456Y002946D02*
X011356Y002946D01*
X011470Y003025D02*
X008457Y003025D01*
X008450Y003103D02*
X010365Y003103D01*
X010290Y003182D02*
X008417Y003182D01*
X008402Y003260D02*
X010257Y003260D01*
X010241Y003339D02*
X008402Y003339D01*
X008403Y003417D02*
X010241Y003417D01*
X010092Y003496D02*
X009436Y003496D01*
X009515Y003574D02*
X010014Y003574D01*
X009974Y003653D02*
X009521Y003653D01*
X009521Y003731D02*
X009931Y003731D01*
X009899Y003810D02*
X009521Y003810D01*
X009521Y003888D02*
X009890Y003888D01*
X009899Y003967D02*
X009521Y003967D01*
X009521Y004045D02*
X009899Y004045D01*
X009899Y004124D02*
X009505Y004124D01*
X009415Y004304D02*
X009447Y004322D01*
X009473Y004348D01*
X009492Y004380D01*
X009501Y004416D01*
X009501Y004591D01*
X008496Y004591D01*
X008496Y004294D01*
X009380Y004294D01*
X009415Y004304D01*
X009479Y004359D02*
X009899Y004359D01*
X009899Y004281D02*
X007468Y004281D01*
X007496Y004304D02*
X007532Y004294D01*
X008416Y004294D01*
X008416Y004591D01*
X007410Y004591D01*
X007410Y004416D01*
X007420Y004380D01*
X007438Y004348D01*
X007464Y004322D01*
X007496Y004304D01*
X007432Y004359D02*
X007406Y004359D01*
X007410Y004438D02*
X007281Y004438D01*
X007279Y004516D02*
X007410Y004516D01*
X007333Y004595D02*
X008416Y004595D01*
X008416Y004516D02*
X008496Y004516D01*
X008496Y004438D02*
X008416Y004438D01*
X008416Y004359D02*
X008496Y004359D01*
X008496Y004595D02*
X009899Y004595D01*
X009899Y004516D02*
X009501Y004516D01*
X009501Y004438D02*
X009899Y004438D01*
X009899Y004202D02*
X007500Y004202D01*
X007410Y004673D02*
X007390Y004673D01*
X007256Y005223D02*
X007238Y005223D01*
X007238Y005301D02*
X007271Y005301D01*
X007271Y005380D02*
X007238Y005380D01*
X007238Y005458D02*
X007280Y005458D01*
X007313Y005537D02*
X007238Y005537D01*
X007238Y005615D02*
X007378Y005615D01*
X007512Y005694D02*
X007238Y005694D01*
X007238Y005772D02*
X007396Y005772D01*
X007317Y005851D02*
X007238Y005851D01*
X007238Y005929D02*
X007276Y005929D01*
X007251Y006008D02*
X007188Y006008D01*
X007251Y006086D02*
X005929Y006086D01*
X006007Y006165D02*
X007267Y006165D01*
X007300Y006243D02*
X006086Y006243D01*
X006164Y006322D02*
X007072Y006322D01*
X006938Y006400D02*
X006243Y006400D01*
X006356Y007264D02*
X006946Y007264D01*
X006931Y007342D02*
X006576Y007342D01*
X006681Y007421D02*
X006931Y007421D01*
X006957Y007499D02*
X006734Y007499D01*
X006766Y007578D02*
X007000Y007578D01*
X007081Y007656D02*
X006767Y007656D01*
X006759Y007735D02*
X007409Y007735D01*
X007409Y007813D02*
X006727Y007813D01*
X006664Y007892D02*
X007409Y007892D01*
X007409Y007970D02*
X006535Y007970D01*
X006323Y007970D02*
X004500Y007970D01*
X004536Y008049D02*
X007409Y008049D01*
X007409Y008127D02*
X004575Y008127D01*
X004653Y008206D02*
X007409Y008206D01*
X007398Y008284D02*
X007409Y008284D01*
X007240Y008284D02*
X004732Y008284D01*
X004422Y007892D02*
X006194Y007892D01*
X006131Y007813D02*
X003879Y007813D01*
X003879Y007735D02*
X006099Y007735D01*
X006091Y007656D02*
X003879Y007656D01*
X003879Y007578D02*
X006048Y007578D01*
X005969Y007499D02*
X003879Y007499D01*
X003879Y007421D02*
X005891Y007421D01*
X005812Y007342D02*
X003879Y007342D01*
X003862Y007264D02*
X005734Y007264D01*
X005655Y007185D02*
X003784Y007185D01*
X003705Y007107D02*
X005577Y007107D01*
X005498Y007028D02*
X003627Y007028D01*
X003567Y006950D02*
X005420Y006950D01*
X005341Y006871D02*
X003599Y006871D01*
X003599Y006793D02*
X005263Y006793D01*
X005184Y006714D02*
X004387Y006714D01*
X004051Y006714D02*
X003599Y006714D01*
X003588Y006636D02*
X003958Y006636D01*
X003911Y006557D02*
X003556Y006557D01*
X003523Y006479D02*
X003881Y006479D01*
X003881Y006400D02*
X003451Y006400D01*
X003373Y006322D02*
X003892Y006322D01*
X003925Y006243D02*
X003188Y006243D01*
X002950Y006243D02*
X001870Y006243D01*
X001836Y006229D02*
X001961Y006281D01*
X002056Y006376D01*
X002107Y006500D01*
X002107Y006635D01*
X002056Y006759D01*
X001961Y006854D01*
X001839Y006905D01*
X001839Y007134D01*
X001852Y007129D01*
X001986Y007129D01*
X002111Y007181D01*
X002206Y007276D01*
X002257Y007400D01*
X002257Y007535D01*
X002206Y007659D01*
X002139Y007726D01*
X002139Y009809D01*
X002206Y009876D01*
X002257Y010000D01*
X002257Y010135D01*
X002206Y010259D01*
X002111Y010354D01*
X001986Y010406D01*
X001852Y010406D01*
X001727Y010354D01*
X001632Y010259D01*
X001581Y010135D01*
X001581Y010056D01*
X001552Y010056D01*
X001427Y010004D01*
X001332Y009909D01*
X001281Y009785D01*
X001281Y009650D01*
X001332Y009526D01*
X001399Y009459D01*
X001399Y006626D01*
X001431Y006595D01*
X001431Y006500D01*
X001482Y006376D01*
X001577Y006281D01*
X001702Y006229D01*
X001836Y006229D01*
X002002Y006322D02*
X002765Y006322D01*
X002687Y006400D02*
X002066Y006400D01*
X002098Y006479D02*
X002615Y006479D01*
X002583Y006557D02*
X002107Y006557D01*
X002107Y006636D02*
X002550Y006636D01*
X002539Y006714D02*
X002075Y006714D01*
X002023Y006793D02*
X002539Y006793D01*
X002539Y006871D02*
X001921Y006871D01*
X001839Y006950D02*
X002571Y006950D01*
X002603Y007028D02*
X001839Y007028D01*
X001839Y007107D02*
X002659Y007107D01*
X002737Y007185D02*
X002115Y007185D01*
X002194Y007264D02*
X002882Y007264D01*
X002745Y007342D02*
X002233Y007342D01*
X002257Y007421D02*
X002666Y007421D01*
X002607Y007499D02*
X002257Y007499D01*
X002240Y007578D02*
X002574Y007578D01*
X002542Y007656D02*
X002207Y007656D01*
X002139Y007735D02*
X002539Y007735D01*
X002539Y007813D02*
X002139Y007813D01*
X002139Y007892D02*
X002547Y007892D01*
X002579Y007970D02*
X002139Y007970D01*
X002139Y008049D02*
X002612Y008049D01*
X002679Y008127D02*
X002139Y008127D01*
X002139Y008206D02*
X002758Y008206D01*
X002851Y008284D02*
X002139Y008284D01*
X002139Y008363D02*
X002724Y008363D01*
X002646Y008441D02*
X002139Y008441D01*
X002139Y008520D02*
X002598Y008520D01*
X002566Y008598D02*
X002139Y008598D01*
X002139Y008677D02*
X002539Y008677D01*
X002539Y008755D02*
X002139Y008755D01*
X002139Y008834D02*
X002539Y008834D01*
X002555Y008912D02*
X002139Y008912D01*
X002139Y008991D02*
X002588Y008991D01*
X002621Y009069D02*
X002139Y009069D01*
X002139Y009148D02*
X002700Y009148D01*
X002791Y009226D02*
X002139Y009226D01*
X002139Y009305D02*
X002802Y009305D01*
X002704Y009383D02*
X002139Y009383D01*
X002139Y009462D02*
X002625Y009462D01*
X002590Y009540D02*
X002139Y009540D01*
X002139Y009619D02*
X002557Y009619D01*
X002539Y009697D02*
X002139Y009697D01*
X002139Y009776D02*
X002539Y009776D01*
X002539Y009854D02*
X002184Y009854D01*
X002229Y009933D02*
X002564Y009933D01*
X002596Y010011D02*
X002257Y010011D01*
X002257Y010090D02*
X002642Y010090D01*
X002720Y010168D02*
X002244Y010168D01*
X002211Y010247D02*
X002841Y010247D01*
X002814Y010325D02*
X002140Y010325D01*
X001992Y010404D02*
X002712Y010404D01*
X002646Y010482D02*
X001132Y010482D01*
X001106Y010404D02*
X001846Y010404D01*
X001698Y010325D02*
X001086Y010325D01*
X001067Y010247D02*
X001627Y010247D01*
X001594Y010168D02*
X001049Y010168D01*
X001030Y010090D02*
X001581Y010090D01*
X001443Y010011D02*
X001012Y010011D01*
X000993Y009933D02*
X001355Y009933D01*
X001309Y009854D02*
X000975Y009854D01*
X000957Y009776D02*
X001281Y009776D01*
X001281Y009697D02*
X000946Y009697D01*
X000935Y009619D02*
X001294Y009619D01*
X001326Y009540D02*
X000924Y009540D01*
X000913Y009462D02*
X001396Y009462D01*
X001399Y009383D02*
X000902Y009383D01*
X000891Y009305D02*
X001399Y009305D01*
X001399Y009226D02*
X000880Y009226D01*
X000871Y009148D02*
X001399Y009148D01*
X001399Y009069D02*
X000867Y009069D01*
X000864Y008991D02*
X001399Y008991D01*
X001399Y008912D02*
X000860Y008912D01*
X000857Y008834D02*
X001399Y008834D01*
X001399Y008755D02*
X000853Y008755D01*
X000849Y008677D02*
X001399Y008677D01*
X001399Y008598D02*
X000846Y008598D01*
X000844Y008520D02*
X001399Y008520D01*
X001399Y008441D02*
X000848Y008441D01*
X000851Y008363D02*
X001399Y008363D01*
X001399Y008284D02*
X000855Y008284D01*
X000859Y008206D02*
X001399Y008206D01*
X001399Y008127D02*
X000862Y008127D01*
X000866Y008049D02*
X001399Y008049D01*
X001399Y007970D02*
X000869Y007970D01*
X000876Y007892D02*
X001399Y007892D01*
X001399Y007813D02*
X000887Y007813D01*
X000898Y007735D02*
X001399Y007735D01*
X001399Y007656D02*
X000908Y007656D01*
X000919Y007578D02*
X001399Y007578D01*
X001399Y007499D02*
X000930Y007499D01*
X000941Y007421D02*
X001399Y007421D01*
X001399Y007342D02*
X000952Y007342D01*
X000967Y007264D02*
X001399Y007264D01*
X001399Y007185D02*
X000985Y007185D01*
X001004Y007107D02*
X001399Y007107D01*
X001399Y007028D02*
X001022Y007028D01*
X001041Y006950D02*
X001399Y006950D01*
X001399Y006871D02*
X001059Y006871D01*
X001078Y006793D02*
X001399Y006793D01*
X001399Y006714D02*
X001096Y006714D01*
X001120Y006636D02*
X001399Y006636D01*
X001431Y006557D02*
X001147Y006557D01*
X001173Y006479D02*
X001440Y006479D01*
X001472Y006400D02*
X001199Y006400D01*
X001226Y006322D02*
X001536Y006322D01*
X001668Y006243D02*
X001252Y006243D01*
X001278Y006165D02*
X003993Y006165D01*
X004109Y006086D02*
X001306Y006086D01*
X001341Y006008D02*
X004061Y006008D01*
X004031Y005929D02*
X001376Y005929D01*
X001410Y005851D02*
X003989Y005851D01*
X003845Y005772D02*
X001445Y005772D01*
X001480Y005694D02*
X003776Y005694D01*
X003743Y005615D02*
X001514Y005615D01*
X001549Y005537D02*
X003731Y005537D01*
X003731Y005458D02*
X001592Y005458D01*
X001636Y005380D02*
X003760Y005380D01*
X003424Y005301D02*
X001680Y005301D01*
X001723Y005223D02*
X003345Y005223D01*
X003305Y005144D02*
X001767Y005144D01*
X001811Y005066D02*
X003281Y005066D01*
X003281Y004987D02*
X001855Y004987D01*
X001909Y004909D02*
X003298Y004909D01*
X003330Y004830D02*
X001962Y004830D01*
X002016Y004752D02*
X003406Y004752D01*
X003652Y004673D02*
X002070Y004673D01*
X002124Y004595D02*
X003731Y004595D01*
X003809Y004516D02*
X002177Y004516D01*
X002236Y004438D02*
X003888Y004438D01*
X003966Y004359D02*
X002302Y004359D01*
X002367Y004281D02*
X004045Y004281D01*
X004123Y004202D02*
X002432Y004202D01*
X002497Y004124D02*
X004202Y004124D01*
X004280Y004045D02*
X002562Y004045D01*
X002632Y003967D02*
X004359Y003967D01*
X003115Y003496D02*
X007475Y003496D01*
X007238Y003260D02*
X007842Y003260D01*
X007821Y003182D02*
X007238Y003182D01*
X007238Y003103D02*
X007788Y003103D01*
X007781Y003025D02*
X007238Y003025D01*
X007238Y002946D02*
X007782Y002946D01*
X007815Y002868D02*
X007238Y002868D01*
X007238Y002789D02*
X007869Y002789D01*
X007976Y002711D02*
X007238Y002711D01*
X009501Y004673D02*
X009880Y004673D01*
X009805Y004752D02*
X009501Y004752D01*
X009924Y005615D02*
X007840Y005615D01*
X007706Y005694D02*
X009863Y005694D01*
X009833Y005772D02*
X007782Y005772D01*
X008116Y005851D02*
X009833Y005851D01*
X009833Y005929D02*
X008192Y005929D01*
X008274Y006008D02*
X009833Y006008D01*
X009833Y006086D02*
X008356Y006086D01*
X008438Y006165D02*
X009833Y006165D01*
X009833Y006243D02*
X008489Y006243D01*
X008489Y006322D02*
X008891Y006322D01*
X008813Y006400D02*
X008489Y006400D01*
X008489Y006479D02*
X008804Y006479D01*
X008804Y007185D02*
X008739Y007185D01*
X008739Y007264D02*
X008804Y007264D01*
X008804Y007342D02*
X008739Y007342D01*
X008739Y007421D02*
X008804Y007421D01*
X008804Y007499D02*
X008739Y007499D01*
X008739Y007578D02*
X008804Y007578D01*
X008804Y007656D02*
X008739Y007656D01*
X008739Y007735D02*
X008804Y007735D01*
X008804Y007813D02*
X008739Y007813D01*
X008739Y007892D02*
X008815Y007892D01*
X008739Y007970D02*
X008893Y007970D01*
X008739Y008049D02*
X009807Y008049D01*
X009775Y007970D02*
X009664Y007970D01*
X009742Y007892D02*
X009755Y007892D01*
X009753Y007813D02*
X009755Y007813D01*
X009753Y007735D02*
X009774Y007735D01*
X009753Y007656D02*
X009806Y007656D01*
X009833Y007578D02*
X009753Y007578D01*
X009753Y007499D02*
X009833Y007499D01*
X009833Y007421D02*
X009753Y007421D01*
X009753Y007342D02*
X009833Y007342D01*
X009833Y007264D02*
X009753Y007264D01*
X009753Y007185D02*
X009833Y007185D01*
X009833Y007107D02*
X009753Y007107D01*
X009753Y007028D02*
X009833Y007028D01*
X009833Y006950D02*
X009753Y006950D01*
X009753Y006871D02*
X009833Y006871D01*
X009833Y006793D02*
X009753Y006793D01*
X009753Y006714D02*
X009833Y006714D01*
X009833Y006636D02*
X009753Y006636D01*
X009753Y006557D02*
X009833Y006557D01*
X009833Y006479D02*
X009753Y006479D01*
X009744Y006400D02*
X009833Y006400D01*
X009833Y006322D02*
X009666Y006322D01*
X010393Y006322D02*
X011569Y006322D01*
X011490Y006400D02*
X010393Y006400D01*
X010393Y006479D02*
X011481Y006479D01*
X011481Y006557D02*
X010393Y006557D01*
X010393Y006636D02*
X011481Y006636D01*
X011481Y006714D02*
X010393Y006714D01*
X010393Y006793D02*
X011481Y006793D01*
X011481Y006871D02*
X010393Y006871D01*
X010393Y006950D02*
X011481Y006950D01*
X011481Y007028D02*
X010393Y007028D01*
X010393Y007107D02*
X011481Y007107D01*
X011481Y007185D02*
X010393Y007185D01*
X010393Y007264D02*
X011481Y007264D01*
X011481Y007342D02*
X010393Y007342D01*
X010393Y007421D02*
X011481Y007421D01*
X011481Y007499D02*
X010393Y007499D01*
X010393Y007578D02*
X010918Y007578D01*
X010782Y007656D02*
X010420Y007656D01*
X010452Y007735D02*
X010713Y007735D01*
X010680Y007813D02*
X010471Y007813D01*
X010471Y007892D02*
X010665Y007892D01*
X010665Y007970D02*
X010452Y007970D01*
X010419Y008049D02*
X010688Y008049D01*
X010701Y008127D02*
X010344Y008127D01*
X010535Y008206D02*
X010669Y008206D01*
X010654Y008284D02*
X010560Y008284D01*
X010560Y008363D02*
X010654Y008363D01*
X010654Y008441D02*
X010560Y008441D01*
X010560Y008520D02*
X010654Y008520D01*
X010654Y008598D02*
X010560Y008598D01*
X010560Y008677D02*
X010654Y008677D01*
X010654Y008755D02*
X010560Y008755D01*
X010560Y008834D02*
X010654Y008834D01*
X010654Y008912D02*
X010560Y008912D01*
X010560Y008991D02*
X010654Y008991D01*
X010654Y009069D02*
X010560Y009069D01*
X010560Y009148D02*
X010654Y009148D01*
X010654Y009226D02*
X010263Y009226D01*
X010263Y009232D02*
X010560Y009232D01*
X010560Y010116D01*
X010551Y010152D01*
X010532Y010184D01*
X010506Y010210D01*
X010474Y010228D01*
X010439Y010238D01*
X010263Y010238D01*
X010263Y009232D01*
X010263Y009305D02*
X010183Y009305D01*
X010183Y009232D02*
X010183Y010238D01*
X010008Y010238D01*
X009972Y010228D01*
X009941Y010210D01*
X009914Y010184D01*
X009896Y010152D01*
X009886Y010116D01*
X009886Y009232D01*
X010183Y009232D01*
X010183Y009226D02*
X008739Y009226D01*
X008739Y009148D02*
X009886Y009148D01*
X009886Y009069D02*
X008739Y009069D01*
X008739Y008991D02*
X009886Y008991D01*
X009886Y008912D02*
X008739Y008912D01*
X008739Y008834D02*
X009886Y008834D01*
X009886Y008755D02*
X008739Y008755D01*
X008739Y008677D02*
X009886Y008677D01*
X009886Y008598D02*
X008739Y008598D01*
X008739Y008520D02*
X009886Y008520D01*
X009886Y008441D02*
X008739Y008441D01*
X008739Y008363D02*
X009886Y008363D01*
X009886Y008284D02*
X008739Y008284D01*
X008739Y008206D02*
X009912Y008206D01*
X009882Y008127D02*
X008739Y008127D01*
X008739Y009305D02*
X009886Y009305D01*
X009886Y009383D02*
X008739Y009383D01*
X008739Y009462D02*
X009886Y009462D01*
X009886Y009540D02*
X008739Y009540D01*
X008739Y009619D02*
X009886Y009619D01*
X009886Y009697D02*
X008739Y009697D01*
X008739Y009776D02*
X009886Y009776D01*
X009886Y009854D02*
X008739Y009854D01*
X008739Y009933D02*
X009886Y009933D01*
X009886Y010011D02*
X008739Y010011D01*
X008739Y010090D02*
X009886Y010090D01*
X009905Y010168D02*
X008739Y010168D01*
X008739Y010247D02*
X010736Y010247D01*
X010658Y010168D02*
X010541Y010168D01*
X010560Y010090D02*
X010654Y010090D01*
X010654Y010011D02*
X010560Y010011D01*
X010560Y009933D02*
X010654Y009933D01*
X010654Y009854D02*
X010560Y009854D01*
X010560Y009776D02*
X010654Y009776D01*
X010654Y009697D02*
X010560Y009697D01*
X010560Y009619D02*
X010654Y009619D01*
X010654Y009540D02*
X010560Y009540D01*
X010560Y009462D02*
X010654Y009462D01*
X010654Y009383D02*
X010560Y009383D01*
X010560Y009305D02*
X010654Y009305D01*
X010263Y009383D02*
X010183Y009383D01*
X010183Y009462D02*
X010263Y009462D01*
X010263Y009540D02*
X010183Y009540D01*
X010183Y009619D02*
X010263Y009619D01*
X010263Y009697D02*
X010183Y009697D01*
X010183Y009776D02*
X010263Y009776D01*
X010263Y009854D02*
X010183Y009854D01*
X010183Y009933D02*
X010263Y009933D01*
X010263Y010011D02*
X010183Y010011D01*
X010183Y010090D02*
X010263Y010090D01*
X010263Y010168D02*
X010183Y010168D01*
X010012Y010482D02*
X010796Y010482D01*
X010874Y010404D02*
X008739Y010404D01*
X008739Y010482D02*
X009626Y010482D01*
X009547Y010561D02*
X009362Y010561D01*
X009469Y010639D02*
X009506Y010639D01*
X009076Y010561D02*
X008773Y010561D01*
X008852Y010639D02*
X008969Y010639D01*
X008739Y010325D02*
X010953Y010325D01*
X011368Y009933D02*
X012007Y009933D01*
X012009Y009854D02*
X011368Y009854D01*
X011368Y009776D02*
X012009Y009776D01*
X012009Y009697D02*
X011368Y009697D01*
X011368Y009619D02*
X012009Y009619D01*
X012009Y009540D02*
X011368Y009540D01*
X011368Y009462D02*
X012078Y009462D01*
X012156Y009383D02*
X011368Y009383D01*
X011368Y009305D02*
X012235Y009305D01*
X012313Y009226D02*
X011368Y009226D01*
X011368Y009148D02*
X012335Y009148D01*
X012314Y009069D02*
X011368Y009069D01*
X011368Y008991D02*
X012314Y008991D01*
X012314Y008912D02*
X011368Y008912D01*
X011368Y008834D02*
X012336Y008834D01*
X012369Y008755D02*
X011368Y008755D01*
X011368Y008677D02*
X012410Y008677D01*
X012489Y008598D02*
X011368Y008598D01*
X011368Y008520D02*
X012601Y008520D01*
X012543Y008441D02*
X011368Y008441D01*
X011368Y008363D02*
X012465Y008363D01*
X012391Y008284D02*
X011368Y008284D01*
X011353Y008206D02*
X012359Y008206D01*
X012326Y008127D02*
X011341Y008127D01*
X011358Y008049D02*
X012314Y008049D01*
X011570Y007970D02*
X011381Y007970D01*
X011381Y007892D02*
X011492Y007892D01*
X011481Y007813D02*
X011366Y007813D01*
X011333Y007735D02*
X011481Y007735D01*
X011481Y007656D02*
X011264Y007656D01*
X011128Y007578D02*
X011481Y007578D01*
X012431Y006636D02*
X012480Y006636D01*
X012431Y006557D02*
X012576Y006557D01*
X012689Y006479D02*
X012431Y006479D01*
X012421Y006400D02*
X012537Y006400D01*
X012453Y006322D02*
X012343Y006322D01*
X012399Y006243D02*
X010393Y006243D01*
X010393Y006165D02*
X012364Y006165D01*
X012342Y006086D02*
X010393Y006086D01*
X010393Y006008D02*
X012804Y006008D01*
X012804Y006086D02*
X012884Y006086D01*
X012884Y006165D02*
X012804Y006165D01*
X012804Y006243D02*
X012884Y006243D01*
X012884Y006322D02*
X012804Y006322D01*
X012804Y006400D02*
X012884Y006400D01*
X012884Y006479D02*
X012804Y006479D01*
X012804Y006557D02*
X012884Y006557D01*
X012884Y006636D02*
X012804Y006636D01*
X012804Y006714D02*
X012884Y006714D01*
X012884Y006793D02*
X012804Y006793D01*
X012804Y006871D02*
X012884Y006871D01*
X012884Y006950D02*
X012804Y006950D01*
X013788Y006950D02*
X014145Y006950D01*
X014164Y007028D02*
X013789Y007028D01*
X013789Y007107D02*
X014182Y007107D01*
X014201Y007185D02*
X013790Y007185D01*
X013790Y007264D02*
X014219Y007264D01*
X014234Y007342D02*
X013790Y007342D01*
X013791Y007421D02*
X014245Y007421D01*
X014256Y007499D02*
X013791Y007499D01*
X013791Y007578D02*
X014267Y007578D01*
X014278Y007656D02*
X013792Y007656D01*
X013792Y007735D02*
X014289Y007735D01*
X014300Y007813D02*
X013792Y007813D01*
X013793Y007892D02*
X014310Y007892D01*
X014317Y007970D02*
X013793Y007970D01*
X013793Y008048D02*
X013793Y008048D01*
X013793Y008049D02*
X014320Y008049D01*
X014324Y008127D02*
X013761Y008127D01*
X013696Y008206D02*
X014328Y008206D01*
X014331Y008284D02*
X013297Y008284D01*
X013224Y008363D02*
X014335Y008363D01*
X014338Y008441D02*
X013145Y008441D01*
X013087Y008520D02*
X014342Y008520D01*
X014340Y008598D02*
X013199Y008598D01*
X013278Y008677D02*
X014337Y008677D01*
X014333Y008755D02*
X013319Y008755D01*
X013352Y008834D02*
X014330Y008834D01*
X014326Y008912D02*
X013374Y008912D01*
X013374Y008991D02*
X014322Y008991D01*
X014319Y009069D02*
X013374Y009069D01*
X013353Y009148D02*
X014315Y009148D01*
X014306Y009226D02*
X013321Y009226D01*
X013282Y009305D02*
X014295Y009305D01*
X014284Y009383D02*
X013203Y009383D01*
X013097Y009462D02*
X014273Y009462D01*
X014262Y009540D02*
X013137Y009540D01*
X013220Y009619D02*
X014251Y009619D01*
X014240Y009697D02*
X013295Y009697D01*
X013328Y009776D02*
X014229Y009776D01*
X014211Y009854D02*
X013360Y009854D01*
X013374Y009933D02*
X014193Y009933D01*
X014174Y010011D02*
X013374Y010011D01*
X013374Y010090D02*
X014156Y010090D01*
X014137Y010168D02*
X013345Y010168D01*
X013312Y010247D02*
X014119Y010247D01*
X014100Y010325D02*
X013261Y010325D01*
X013183Y010404D02*
X014080Y010404D01*
X014054Y010482D02*
X013047Y010482D01*
X013162Y010561D02*
X014028Y010561D01*
X014001Y010639D02*
X013240Y010639D01*
X013304Y010718D02*
X013975Y010718D01*
X013949Y010796D02*
X013336Y010796D01*
X013369Y010875D02*
X013923Y010875D01*
X013896Y010953D02*
X013374Y010953D01*
X013374Y011032D02*
X013864Y011032D01*
X013830Y011110D02*
X013369Y011110D01*
X013336Y011189D02*
X013795Y011189D01*
X013760Y011267D02*
X013304Y011267D01*
X013240Y011346D02*
X013726Y011346D01*
X013691Y011424D02*
X013162Y011424D01*
X012998Y011503D02*
X013656Y011503D01*
X013618Y011581D02*
X010938Y011581D01*
X010957Y011503D02*
X012690Y011503D01*
X012526Y011424D02*
X010957Y011424D01*
X010935Y011346D02*
X012448Y011346D01*
X012384Y011267D02*
X010897Y011267D01*
X011013Y011189D02*
X012352Y011189D01*
X012319Y011110D02*
X011091Y011110D01*
X011170Y011032D02*
X012314Y011032D01*
X012314Y010953D02*
X011248Y010953D01*
X011327Y010875D02*
X012319Y010875D01*
X012352Y010796D02*
X011405Y010796D01*
X011484Y010718D02*
X012384Y010718D01*
X012448Y010639D02*
X011562Y010639D01*
X010906Y011660D02*
X013575Y011660D01*
X013531Y011738D02*
X010827Y011738D01*
X010879Y011817D02*
X013487Y011817D01*
X013443Y011895D02*
X010958Y011895D01*
X011036Y011974D02*
X013400Y011974D01*
X013356Y012052D02*
X011115Y012052D01*
X011193Y012131D02*
X013308Y012131D01*
X013254Y012209D02*
X011272Y012209D01*
X011518Y012288D02*
X013200Y012288D01*
X013146Y012366D02*
X011596Y012366D01*
X011634Y012445D02*
X013093Y012445D01*
X013039Y012523D02*
X011657Y012523D01*
X011657Y012602D02*
X012985Y012602D01*
X012921Y012680D02*
X011639Y012680D01*
X011606Y012759D02*
X012856Y012759D01*
X012791Y012837D02*
X011528Y012837D01*
X011110Y012837D02*
X010389Y012837D01*
X010389Y012759D02*
X011032Y012759D01*
X010999Y012680D02*
X010389Y012680D01*
X010389Y012916D02*
X012725Y012916D01*
X012660Y012994D02*
X010389Y012994D01*
X010389Y013073D02*
X012595Y013073D01*
X012519Y013151D02*
X010389Y013151D01*
X010608Y013230D02*
X012441Y013230D01*
X012362Y013308D02*
X010688Y013308D01*
X010731Y013387D02*
X012284Y013387D01*
X012205Y013465D02*
X010757Y013465D01*
X010757Y013544D02*
X012124Y013544D01*
X012029Y013622D02*
X010742Y013622D01*
X010710Y013701D02*
X011935Y013701D01*
X011840Y013779D02*
X010636Y013779D01*
X010202Y013779D02*
X009507Y013779D01*
X009507Y013701D02*
X010129Y013701D01*
X010096Y013622D02*
X009496Y013622D01*
X009463Y013544D02*
X010081Y013544D01*
X010055Y013465D02*
X009395Y013465D01*
X009254Y013387D02*
X009977Y013387D01*
X009949Y013308D02*
X009057Y013308D01*
X008978Y013230D02*
X009949Y013230D01*
X009949Y013151D02*
X008900Y013151D01*
X008821Y013073D02*
X009949Y013073D01*
X009949Y012994D02*
X008743Y012994D01*
X008664Y012916D02*
X009949Y012916D01*
X009949Y012837D02*
X008586Y012837D01*
X008384Y013230D02*
X007999Y013230D01*
X007915Y013308D02*
X008463Y013308D01*
X008541Y013387D02*
X007830Y013387D01*
X007746Y013465D02*
X008620Y013465D01*
X008698Y013544D02*
X007661Y013544D01*
X007577Y013622D02*
X008777Y013622D01*
X008831Y013701D02*
X007557Y013701D01*
X007539Y013779D02*
X008831Y013779D01*
X008861Y013858D02*
X007507Y013858D01*
X007429Y013936D02*
X008909Y013936D01*
X009002Y014015D02*
X005551Y014015D01*
X005586Y013936D02*
X007009Y013936D01*
X006931Y013858D02*
X005607Y013858D01*
X005705Y013779D02*
X006899Y013779D01*
X006673Y013701D02*
X005779Y013701D01*
X005782Y013622D02*
X006595Y013622D01*
X006555Y013544D02*
X005779Y013544D01*
X005779Y013465D02*
X006531Y013465D01*
X006531Y013387D02*
X005779Y013387D01*
X005779Y013308D02*
X006548Y013308D01*
X006581Y013230D02*
X005779Y013230D01*
X005779Y013151D02*
X006657Y013151D01*
X006659Y013073D02*
X005779Y013073D01*
X005779Y012994D02*
X005817Y012994D01*
X006221Y012994D02*
X006659Y012994D01*
X006659Y012916D02*
X006300Y012916D01*
X006336Y012837D02*
X006659Y012837D01*
X006659Y012759D02*
X006357Y012759D01*
X006357Y012680D02*
X006659Y012680D01*
X006738Y012602D02*
X006337Y012602D01*
X006392Y012523D02*
X006816Y012523D01*
X006895Y012445D02*
X006462Y012445D01*
X006495Y012366D02*
X006973Y012366D01*
X007052Y012288D02*
X006507Y012288D01*
X006507Y012209D02*
X007130Y012209D01*
X007209Y012131D02*
X006479Y012131D01*
X006432Y012052D02*
X007287Y012052D01*
X007366Y011974D02*
X006344Y011974D01*
X006179Y011895D02*
X007444Y011895D01*
X007523Y011817D02*
X006179Y011817D01*
X006179Y011738D02*
X006809Y011738D01*
X006682Y011660D02*
X006179Y011660D01*
X006179Y011581D02*
X006620Y011581D01*
X006588Y011503D02*
X006179Y011503D01*
X006179Y011424D02*
X006581Y011424D01*
X006550Y011346D02*
X006179Y011346D01*
X006179Y011267D02*
X006472Y011267D01*
X006393Y011189D02*
X006179Y011189D01*
X006179Y011110D02*
X006315Y011110D01*
X006236Y011032D02*
X006179Y011032D01*
X006516Y010718D02*
X007409Y010718D01*
X007409Y010796D02*
X006595Y010796D01*
X006673Y010875D02*
X007409Y010875D01*
X007458Y010953D02*
X006752Y010953D01*
X006830Y011032D02*
X007536Y011032D01*
X007615Y011110D02*
X007061Y011110D01*
X007169Y011189D02*
X007693Y011189D01*
X007759Y011267D02*
X007223Y011267D01*
X007256Y011346D02*
X007759Y011346D01*
X007759Y011424D02*
X007257Y011424D01*
X007250Y011503D02*
X007759Y011503D01*
X007758Y011581D02*
X007218Y011581D01*
X007156Y011660D02*
X007680Y011660D01*
X007601Y011738D02*
X007029Y011738D01*
X007646Y012288D02*
X009213Y012288D01*
X009129Y012209D02*
X007724Y012209D01*
X007803Y012131D02*
X009044Y012131D01*
X008960Y012052D02*
X007881Y012052D01*
X007960Y011974D02*
X008875Y011974D01*
X008791Y011895D02*
X008038Y011895D01*
X008117Y011817D02*
X008706Y011817D01*
X008628Y011738D02*
X008179Y011738D01*
X008179Y011660D02*
X008550Y011660D01*
X008471Y011581D02*
X008179Y011581D01*
X008179Y011503D02*
X008393Y011503D01*
X008314Y011424D02*
X008179Y011424D01*
X008179Y011346D02*
X008236Y011346D01*
X007409Y010639D02*
X006438Y010639D01*
X006359Y010561D02*
X007409Y010561D01*
X007409Y010482D02*
X006281Y010482D01*
X006202Y010404D02*
X007409Y010404D01*
X007409Y010325D02*
X006124Y010325D01*
X006045Y010247D02*
X007409Y010247D01*
X007409Y010168D02*
X005967Y010168D01*
X005888Y010090D02*
X007409Y010090D01*
X007409Y010011D02*
X005810Y010011D01*
X005731Y009933D02*
X007409Y009933D01*
X007409Y009854D02*
X005653Y009854D01*
X005574Y009776D02*
X007409Y009776D01*
X007409Y009697D02*
X005496Y009697D01*
X005417Y009619D02*
X007409Y009619D01*
X007409Y009540D02*
X005339Y009540D01*
X005260Y009462D02*
X007409Y009462D01*
X007409Y009383D02*
X005182Y009383D01*
X005103Y009305D02*
X007409Y009305D01*
X007409Y009226D02*
X005025Y009226D01*
X004946Y009148D02*
X007409Y009148D01*
X007409Y009069D02*
X004868Y009069D01*
X004789Y008991D02*
X007409Y008991D01*
X007146Y008912D02*
X004711Y008912D01*
X004145Y009540D02*
X003548Y009540D01*
X003581Y009619D02*
X004223Y009619D01*
X004302Y009697D02*
X003599Y009697D01*
X003599Y009776D02*
X004380Y009776D01*
X004459Y009854D02*
X003599Y009854D01*
X003574Y009933D02*
X004537Y009933D01*
X004616Y010011D02*
X003542Y010011D01*
X003497Y010090D02*
X004218Y010090D01*
X004140Y010168D02*
X003418Y010168D01*
X003297Y010247D02*
X004103Y010247D01*
X004081Y010325D02*
X003324Y010325D01*
X003426Y010404D02*
X004081Y010404D01*
X004100Y010482D02*
X003492Y010482D01*
X003536Y010561D02*
X004133Y010561D01*
X004212Y010639D02*
X003564Y010639D01*
X003577Y010718D02*
X004472Y010718D01*
X004551Y010796D02*
X003109Y010796D01*
X003029Y010796D02*
X001237Y010796D01*
X001211Y010718D02*
X002561Y010718D01*
X002575Y010639D02*
X001185Y010639D01*
X001158Y010561D02*
X002602Y010561D01*
X002570Y010875D02*
X001264Y010875D01*
X001290Y010953D02*
X002593Y010953D01*
X002631Y011032D02*
X001322Y011032D01*
X001356Y011110D02*
X002690Y011110D01*
X002781Y011189D02*
X001391Y011189D01*
X001426Y011267D02*
X002892Y011267D01*
X002741Y011346D02*
X001460Y011346D01*
X001495Y011424D02*
X002663Y011424D01*
X002605Y011503D02*
X001530Y011503D01*
X001568Y011581D02*
X002573Y011581D01*
X002540Y011660D02*
X001612Y011660D01*
X001655Y011738D02*
X002539Y011738D01*
X002539Y011817D02*
X001699Y011817D01*
X001743Y011895D02*
X002548Y011895D01*
X002581Y011974D02*
X001786Y011974D01*
X001830Y012052D02*
X002613Y012052D01*
X002683Y012131D02*
X001878Y012131D01*
X001932Y012209D02*
X002761Y012209D01*
X002940Y012288D02*
X001986Y012288D01*
X002040Y012366D02*
X004959Y012366D01*
X004959Y012288D02*
X003198Y012288D01*
X003377Y012209D02*
X004959Y012209D01*
X004959Y012131D02*
X003455Y012131D01*
X003525Y012052D02*
X004959Y012052D01*
X004959Y011974D02*
X003557Y011974D01*
X003590Y011895D02*
X004959Y011895D01*
X004959Y011817D02*
X003599Y011817D01*
X003599Y011738D02*
X004959Y011738D01*
X004959Y011660D02*
X003598Y011660D01*
X003565Y011581D02*
X004936Y011581D01*
X004857Y011503D02*
X003533Y011503D01*
X003475Y011424D02*
X004575Y011424D01*
X004468Y011346D02*
X003397Y011346D01*
X003357Y011189D02*
X004382Y011189D01*
X004381Y011110D02*
X003448Y011110D01*
X003507Y011032D02*
X004388Y011032D01*
X004421Y010953D02*
X003545Y010953D01*
X003568Y010875D02*
X004483Y010875D01*
X004415Y011267D02*
X003246Y011267D01*
X003579Y010808D02*
X003579Y010808D01*
X004620Y010090D02*
X004694Y010090D01*
X004698Y010168D02*
X004773Y010168D01*
X004735Y010247D02*
X004851Y010247D01*
X004930Y010325D02*
X004757Y010325D01*
X004757Y010404D02*
X004879Y010404D01*
X004066Y009462D02*
X003513Y009462D01*
X003434Y009383D02*
X003988Y009383D01*
X003909Y009305D02*
X003336Y009305D01*
X003347Y009226D02*
X003831Y009226D01*
X003752Y009148D02*
X003439Y009148D01*
X003517Y009069D02*
X003674Y009069D01*
X003595Y008991D02*
X003550Y008991D01*
X003879Y008049D02*
X003902Y008049D01*
X003879Y007970D02*
X003938Y007970D01*
X003879Y007892D02*
X004016Y007892D01*
X007266Y006322D02*
X007374Y006322D01*
X007400Y006400D02*
X007401Y006400D01*
X010401Y005929D02*
X012338Y005929D01*
X012354Y005851D02*
X010480Y005851D01*
X010558Y005772D02*
X012384Y005772D01*
X012431Y005694D02*
X010637Y005694D01*
X010715Y005615D02*
X012500Y005615D01*
X012407Y005537D02*
X010794Y005537D01*
X010872Y005458D02*
X012084Y005458D01*
X012005Y005380D02*
X010951Y005380D01*
X011029Y005301D02*
X011927Y005301D01*
X011848Y005223D02*
X011108Y005223D01*
X011186Y005144D02*
X011770Y005144D01*
X011691Y005066D02*
X011265Y005066D01*
X011344Y004987D02*
X011648Y004987D01*
X011648Y004909D02*
X011413Y004909D01*
X011445Y004830D02*
X011708Y004830D01*
X011787Y004752D02*
X011449Y004752D01*
X011448Y004673D02*
X011865Y004673D01*
X011944Y004595D02*
X011447Y004595D01*
X011446Y004516D02*
X012022Y004516D01*
X012101Y004438D02*
X011445Y004438D01*
X011445Y004359D02*
X012884Y004359D01*
X012819Y004281D02*
X011444Y004281D01*
X011453Y004202D02*
X012754Y004202D01*
X012689Y004124D02*
X011531Y004124D01*
X011610Y004045D02*
X012624Y004045D01*
X012554Y003967D02*
X011688Y003967D01*
X011690Y003888D02*
X012475Y003888D01*
X012397Y003810D02*
X011667Y003810D01*
X011589Y003731D02*
X012318Y003731D01*
X012240Y003653D02*
X011510Y003653D01*
X011432Y003574D02*
X012161Y003574D01*
X012071Y003496D02*
X011353Y003496D01*
X011275Y003417D02*
X011976Y003417D01*
X011882Y003339D02*
X011041Y003339D01*
X010948Y003260D02*
X011787Y003260D01*
X011693Y003182D02*
X010868Y003182D01*
X010793Y003103D02*
X011585Y003103D01*
X012295Y004438D02*
X012950Y004438D01*
X013009Y004516D02*
X012374Y004516D01*
X012452Y004595D02*
X013062Y004595D01*
X013116Y004673D02*
X012531Y004673D01*
X012609Y004752D02*
X013170Y004752D01*
X013224Y004830D02*
X012688Y004830D01*
X012748Y004909D02*
X013277Y004909D01*
X013331Y004987D02*
X012748Y004987D01*
X013263Y005066D02*
X013375Y005066D01*
X013342Y005144D02*
X013419Y005144D01*
X013420Y005223D02*
X013463Y005223D01*
X013499Y005301D02*
X013506Y005301D01*
X013784Y005929D02*
X013810Y005929D01*
X013784Y006008D02*
X013845Y006008D01*
X013880Y006086D02*
X013785Y006086D01*
X013785Y006165D02*
X013908Y006165D01*
X013934Y006243D02*
X013785Y006243D01*
X013786Y006322D02*
X013960Y006322D01*
X013987Y006400D02*
X013786Y006400D01*
X013786Y006479D02*
X014013Y006479D01*
X014039Y006557D02*
X013787Y006557D01*
X013787Y006636D02*
X014066Y006636D01*
X014090Y006714D02*
X013787Y006714D01*
X013788Y006793D02*
X014108Y006793D01*
X014127Y006871D02*
X013788Y006871D01*
X010885Y012445D02*
X010833Y012445D01*
X010792Y012523D02*
X010963Y012523D01*
X010981Y012602D02*
X010714Y012602D01*
X009949Y012602D02*
X007332Y012602D01*
X007253Y012680D02*
X009949Y012680D01*
X009949Y012759D02*
X007175Y012759D01*
X007096Y012837D02*
X007802Y012837D01*
X007720Y012916D02*
X007079Y012916D01*
X007079Y012994D02*
X007636Y012994D01*
X007551Y013073D02*
X007079Y013073D01*
X007081Y013151D02*
X007467Y013151D01*
X007382Y013230D02*
X007157Y013230D01*
X007190Y013308D02*
X007297Y013308D01*
X007410Y012523D02*
X009463Y012523D01*
X009383Y012445D02*
X007489Y012445D01*
X007567Y012366D02*
X009298Y012366D01*
X009477Y013858D02*
X011746Y013858D01*
X011649Y013936D02*
X009429Y013936D01*
X009336Y014015D02*
X011535Y014015D01*
X011420Y014093D02*
X005472Y014093D01*
X005066Y014093D02*
X003766Y014093D01*
X003651Y014015D02*
X004987Y014015D01*
X004952Y013936D02*
X003537Y013936D01*
X003440Y013858D02*
X004931Y013858D01*
X004602Y013779D02*
X003346Y013779D01*
X003251Y013701D02*
X004529Y013701D01*
X004496Y013622D02*
X003157Y013622D01*
X003062Y013544D02*
X004481Y013544D01*
X004303Y013465D02*
X002981Y013465D01*
X002902Y013387D02*
X004209Y013387D01*
X004161Y013308D02*
X002824Y013308D01*
X002745Y013230D02*
X004131Y013230D01*
X004131Y013151D02*
X002667Y013151D01*
X002591Y013073D02*
X004142Y013073D01*
X004175Y012994D02*
X002526Y012994D01*
X002461Y012916D02*
X004242Y012916D01*
X004382Y012837D02*
X002396Y012837D01*
X002330Y012759D02*
X004680Y012759D01*
X004570Y012837D02*
X004556Y012837D01*
X004790Y012680D02*
X002265Y012680D01*
X002201Y012602D02*
X004900Y012602D01*
X004959Y012523D02*
X002147Y012523D01*
X002094Y012445D02*
X004959Y012445D01*
X003881Y014172D02*
X011305Y014172D01*
X011191Y014250D02*
X003995Y014250D01*
X004126Y014329D02*
X011060Y014329D01*
X010919Y014407D02*
X004267Y014407D01*
X004408Y014486D02*
X010778Y014486D01*
X010637Y014564D02*
X004549Y014564D01*
X004717Y014643D02*
X010469Y014643D01*
X010291Y014721D02*
X004895Y014721D01*
X005073Y014800D02*
X010113Y014800D01*
X009905Y014878D02*
X005281Y014878D01*
X005515Y014957D02*
X009671Y014957D01*
X009435Y015035D02*
X005751Y015035D01*
X006085Y015114D02*
X009101Y015114D01*
X008722Y015192D02*
X006464Y015192D01*
X007140Y015271D02*
X008046Y015271D01*
D18*
X011011Y009192D02*
X011023Y007922D01*
X011140Y003899D02*
X011159Y003858D01*
X010579Y003368D01*
D19*
X011159Y003858D02*
X011169Y004766D01*
X010113Y005822D01*
X010113Y007852D01*
X012523Y005282D02*
X012198Y004956D01*
X012523Y005282D02*
X013083Y005282D01*
X013503Y005702D01*
X013513Y007993D01*
X012844Y007993D01*
X008456Y003844D02*
X008125Y003624D01*
X008119Y003018D01*
X004219Y008168D02*
X004669Y008618D01*
X007319Y008618D01*
D20*
X010113Y007852D03*
X011023Y007922D03*
D21*
X012219Y009618D02*
X012219Y010018D01*
X012069Y010168D01*
X012063Y010162D01*
X011413Y010162D01*
X010807Y010768D01*
X009819Y010768D01*
X010125Y011012D02*
X009919Y011218D01*
X010125Y011012D02*
X010893Y011012D01*
X011537Y010368D01*
X012469Y010368D01*
X012844Y009993D01*
X012219Y009618D02*
X012844Y008993D01*
X010619Y011468D02*
X010469Y011468D01*
X010369Y011568D01*
X009819Y011568D01*
X009169Y010918D01*
X009219Y010868D01*
X007969Y011168D02*
X007969Y011668D01*
X006869Y012768D01*
X006869Y013418D01*
X007219Y013668D02*
X007919Y013018D01*
X008469Y013018D01*
X009169Y013718D01*
X010119Y012318D02*
X010169Y012318D01*
X007969Y011168D02*
X007619Y010818D01*
X007619Y006718D01*
X007719Y006518D01*
X004419Y010368D02*
X005369Y011318D01*
X005369Y013118D01*
X004819Y013518D01*
X004469Y013168D02*
X005169Y012668D01*
X005169Y011518D01*
X004769Y011118D01*
X004719Y011118D01*
X005119Y010643D02*
X005219Y010618D01*
X005569Y010968D01*
X005569Y013618D01*
X005269Y013818D01*
X006019Y012718D02*
X005769Y012518D01*
X005769Y010868D01*
X003669Y008768D01*
X003069Y008768D01*
X003669Y008168D02*
X006919Y011418D01*
X006169Y012268D02*
X005969Y012068D01*
X005969Y010768D01*
X003069Y007868D01*
X003069Y007768D01*
X003669Y007368D02*
X003669Y008168D01*
X003669Y007368D02*
X003069Y006768D01*
D22*
X004219Y006418D02*
X005199Y006418D01*
X006429Y007648D01*
X006169Y007018D02*
X007169Y007018D01*
X007269Y007118D01*
X007269Y007368D01*
X007929Y007368D02*
X007919Y010718D01*
X008869Y011668D01*
X009569Y012318D01*
X010119Y012318D01*
X010169Y012318D02*
X010169Y013268D01*
X010419Y013518D01*
X011319Y012568D02*
X010569Y011818D01*
X009719Y011818D01*
X008519Y010618D01*
X008519Y007068D01*
X008619Y006868D01*
X008619Y006818D01*
X008269Y006308D02*
X008269Y010668D01*
X009669Y012068D01*
X010219Y012068D01*
X010519Y012318D01*
X006169Y007018D02*
X005039Y005878D01*
X004369Y005868D01*
X004169Y005568D02*
X004069Y005518D01*
X004169Y005568D02*
X005099Y005568D01*
X006179Y006648D01*
X007169Y006648D01*
X007589Y006058D02*
X008019Y006068D01*
X008269Y006308D01*
X007649Y005378D02*
X007609Y005368D01*
X007649Y005378D02*
X009959Y005378D01*
X010319Y005018D01*
X010319Y004718D01*
X010519Y004518D01*
X010119Y004743D02*
X010119Y003858D01*
X010289Y003778D01*
X010119Y004743D02*
X009854Y005018D01*
X007369Y005018D01*
X007099Y004648D01*
X004609Y004648D01*
X004319Y004908D01*
X004319Y005168D01*
X003619Y005018D02*
X004519Y004118D01*
X007169Y004118D01*
X001919Y007468D02*
X001919Y010068D01*
X001619Y009718D02*
X001619Y006718D01*
X001769Y006568D01*
M02*
