G75*
G70*
%OFA0B0*%
%FSLAX24Y24*%
%IPPOS*%
%LPD*%
%AMOC8*
5,1,8,0,0,1.08239X$1,22.5*
%
%ADD10C,0.0120*%
%ADD11C,0.0740*%
%ADD12R,0.0354X0.0276*%
%ADD13R,0.0300X0.0600*%
%ADD14R,0.0276X0.0354*%
%ADD15R,0.0276X0.0669*%
%ADD16R,0.0500X0.0220*%
%ADD17R,0.0220X0.0500*%
%ADD18R,0.0276X0.0472*%
%ADD19R,0.2126X0.2441*%
%ADD20R,0.0394X0.0630*%
%ADD21R,0.0630X0.0551*%
%ADD22R,0.0315X0.0315*%
%ADD23R,0.0315X0.0472*%
%ADD24R,0.0315X0.0354*%
%ADD25R,0.0551X0.0551*%
%ADD26R,0.0354X0.0315*%
%ADD27C,0.0160*%
%ADD28C,0.0357*%
%ADD29C,0.0100*%
%ADD30C,0.0240*%
%ADD31C,0.0080*%
%ADD32C,0.0320*%
%ADD33C,0.0396*%
D10*
X003969Y004868D02*
X004369Y004468D01*
X004765Y004468D01*
X004765Y005168D02*
X004319Y005168D01*
X003969Y005168D02*
X003969Y004868D01*
X003969Y005168D02*
X003719Y005418D01*
X003719Y005668D01*
X003419Y005968D01*
X002719Y005968D01*
X002169Y006518D01*
X002169Y006868D01*
X001969Y007068D01*
X001719Y007068D01*
X001569Y007218D01*
X001569Y007951D01*
X001543Y007977D01*
X001919Y007468D02*
X001969Y007468D01*
X002369Y007068D01*
X002369Y006618D01*
X002819Y006168D01*
X003519Y006168D01*
X003969Y005668D01*
X004069Y005518D01*
X004369Y005868D02*
X004765Y005868D01*
X005473Y005868D02*
X005769Y005868D01*
X005769Y005168D02*
X005473Y005168D01*
X005473Y004468D02*
X005769Y004468D01*
X007173Y004768D02*
X007223Y004818D01*
X007609Y005368D01*
X007173Y005468D02*
X007173Y005522D01*
X007569Y005918D01*
X007589Y006058D01*
X007173Y006168D02*
X007169Y006648D01*
X007269Y007368D02*
X007929Y007368D01*
X008619Y006818D02*
X008969Y006818D01*
X009219Y006568D01*
X009219Y006218D01*
X009223Y006213D01*
X009223Y006168D01*
X009223Y005468D02*
X009769Y004922D01*
X009769Y004484D01*
X010151Y004101D01*
X010893Y004101D01*
X011319Y004168D02*
X011119Y004518D01*
X010519Y004518D01*
X010289Y003778D02*
X009913Y003468D01*
X009870Y003511D01*
X008819Y004318D02*
X007869Y004318D01*
X007669Y004118D01*
X007169Y004118D01*
X008819Y004318D02*
X009223Y004722D01*
X009223Y004768D01*
X011168Y003624D02*
X011319Y003825D01*
X011319Y004168D01*
X010093Y001542D02*
X010093Y000542D01*
X005093Y000542D02*
X005093Y001542D01*
X003619Y005018D02*
X003619Y005118D01*
X003469Y005268D01*
X003469Y005618D01*
X003319Y005768D01*
X002619Y005768D01*
X001819Y006568D01*
X001769Y006568D01*
X001543Y009158D02*
X001519Y009334D01*
X001619Y009718D01*
X001919Y010068D02*
X002095Y009693D01*
X002095Y009158D01*
X007369Y012968D02*
X008287Y012968D01*
X008498Y013178D01*
X008275Y013401D02*
X008303Y013451D01*
X008069Y013218D01*
X007619Y013636D02*
X007830Y013847D01*
X008707Y013006D02*
X008721Y012956D01*
X010045Y014101D02*
X010419Y013778D01*
X010419Y013518D01*
X010793Y013034D02*
X010819Y013007D01*
X010819Y012618D01*
X010519Y012318D01*
X011319Y012568D02*
X011319Y013260D01*
X011068Y013511D01*
X010093Y015542D02*
X010093Y016542D01*
X005093Y016542D02*
X005093Y015542D01*
X010093Y015542D02*
X010427Y015414D01*
X010754Y015269D01*
X011075Y015109D01*
X011387Y014934D01*
X011690Y014744D01*
X011984Y014540D01*
X012267Y014321D01*
X012540Y014090D01*
X012801Y013845D01*
X013050Y013588D01*
X013287Y013320D01*
X013510Y013040D01*
X013720Y012750D01*
X013915Y012451D01*
X014096Y012142D01*
X014262Y011825D01*
X014412Y011500D01*
X014547Y011168D01*
X014665Y010830D01*
X014767Y010487D01*
X014852Y010140D01*
X014921Y009789D01*
X014972Y009435D01*
X015007Y009078D01*
X015024Y008721D01*
X015024Y008363D01*
X015007Y008006D01*
X014972Y007649D01*
X014921Y007295D01*
X014852Y006944D01*
X014767Y006597D01*
X014665Y006254D01*
X014547Y005916D01*
X014412Y005584D01*
X014262Y005259D01*
X014096Y004942D01*
X013915Y004633D01*
X013720Y004334D01*
X013510Y004044D01*
X013287Y003764D01*
X013050Y003496D01*
X012801Y003239D01*
X012540Y002994D01*
X012267Y002763D01*
X011984Y002544D01*
X011690Y002340D01*
X011387Y002150D01*
X011075Y001975D01*
X010754Y001815D01*
X010427Y001670D01*
X010093Y001542D01*
X010093Y000542D02*
X009718Y000434D01*
X009338Y000344D01*
X008954Y000271D01*
X008567Y000217D01*
X008178Y000180D01*
X007788Y000162D01*
X007398Y000162D01*
X007008Y000180D01*
X006619Y000217D01*
X006232Y000271D01*
X005848Y000344D01*
X005468Y000434D01*
X005093Y000542D01*
X005093Y016542D02*
X005468Y016650D01*
X005848Y016740D01*
X006232Y016813D01*
X006619Y016867D01*
X007008Y016904D01*
X007398Y016922D01*
X007788Y016922D01*
X008178Y016904D01*
X008567Y016867D01*
X008954Y016813D01*
X009338Y016740D01*
X009718Y016650D01*
X010093Y016542D01*
X005093Y015542D02*
X004759Y015414D01*
X004432Y015269D01*
X004111Y015109D01*
X003799Y014934D01*
X003496Y014744D01*
X003202Y014540D01*
X002919Y014321D01*
X002646Y014090D01*
X002385Y013845D01*
X002136Y013588D01*
X001899Y013320D01*
X001676Y013040D01*
X001466Y012750D01*
X001271Y012451D01*
X001090Y012142D01*
X000924Y011825D01*
X000774Y011500D01*
X000639Y011168D01*
X000521Y010830D01*
X000419Y010487D01*
X000334Y010140D01*
X000265Y009789D01*
X000214Y009435D01*
X000179Y009078D01*
X000162Y008721D01*
X000162Y008363D01*
X000179Y008006D01*
X000214Y007649D01*
X000265Y007295D01*
X000334Y006944D01*
X000419Y006597D01*
X000521Y006254D01*
X000639Y005916D01*
X000774Y005584D01*
X000924Y005259D01*
X001090Y004942D01*
X001271Y004633D01*
X001466Y004334D01*
X001676Y004044D01*
X001899Y003764D01*
X002136Y003496D01*
X002385Y003239D01*
X002646Y002994D01*
X002919Y002763D01*
X003202Y002544D01*
X003496Y002340D01*
X003799Y002150D01*
X004111Y001975D01*
X004432Y001815D01*
X004759Y001670D01*
X005093Y001542D01*
D11*
X003069Y006768D03*
X003069Y007768D03*
X003069Y008768D03*
X003069Y009768D03*
X003069Y010768D03*
X003069Y011768D03*
X012844Y010993D03*
X012844Y009993D03*
X012844Y008993D03*
X012844Y007993D03*
X012844Y006993D03*
X012844Y005993D03*
D12*
X010619Y009112D03*
X010619Y009623D03*
X009669Y009712D03*
X009169Y009712D03*
X009169Y010223D03*
X009669Y010223D03*
X003869Y007423D03*
X003869Y006912D03*
D13*
X006843Y007542D03*
X008343Y007542D03*
X008343Y009542D03*
X006843Y009542D03*
D14*
G36*
X006127Y010009D02*
X006322Y009814D01*
X006073Y009565D01*
X005878Y009760D01*
X006127Y010009D01*
G37*
G36*
X005765Y010370D02*
X005960Y010175D01*
X005711Y009926D01*
X005516Y010121D01*
X005765Y010370D01*
G37*
G36*
X009860Y012160D02*
X009665Y011965D01*
X009416Y012214D01*
X009611Y012409D01*
X009860Y012160D01*
G37*
G36*
X010222Y012521D02*
X010027Y012326D01*
X009778Y012575D01*
X009973Y012770D01*
X010222Y012521D01*
G37*
X011213Y011768D03*
X011725Y011768D03*
D15*
G36*
X009271Y014117D02*
X009006Y014189D01*
X009179Y014833D01*
X009444Y014761D01*
X009271Y014117D01*
G37*
G36*
X008815Y014240D02*
X008550Y014312D01*
X008723Y014956D01*
X008988Y014884D01*
X008815Y014240D01*
G37*
G36*
X008359Y014362D02*
X008094Y014434D01*
X008267Y015078D01*
X008532Y015006D01*
X008359Y014362D01*
G37*
D16*
G36*
X007576Y013749D02*
X007928Y014101D01*
X008084Y013945D01*
X007732Y013593D01*
X007576Y013749D01*
G37*
G36*
X007353Y013971D02*
X007705Y014323D01*
X007861Y014167D01*
X007509Y013815D01*
X007353Y013971D01*
G37*
G36*
X007131Y014194D02*
X007483Y014546D01*
X007639Y014390D01*
X007287Y014038D01*
X007131Y014194D01*
G37*
G36*
X007799Y013526D02*
X008151Y013878D01*
X008307Y013722D01*
X007955Y013370D01*
X007799Y013526D01*
G37*
G36*
X008021Y013303D02*
X008373Y013655D01*
X008529Y013499D01*
X008177Y013147D01*
X008021Y013303D01*
G37*
G36*
X008244Y013080D02*
X008596Y013432D01*
X008752Y013276D01*
X008400Y012924D01*
X008244Y013080D01*
G37*
G36*
X008467Y012858D02*
X008819Y013210D01*
X008975Y013054D01*
X008623Y012702D01*
X008467Y012858D01*
G37*
G36*
X008690Y012635D02*
X009042Y012987D01*
X009198Y012831D01*
X008846Y012479D01*
X008690Y012635D01*
G37*
G36*
X006299Y010245D02*
X006651Y010597D01*
X006807Y010441D01*
X006455Y010089D01*
X006299Y010245D01*
G37*
G36*
X006077Y010468D02*
X006429Y010820D01*
X006585Y010664D01*
X006233Y010312D01*
X006077Y010468D01*
G37*
G36*
X005854Y010690D02*
X006206Y011042D01*
X006362Y010886D01*
X006010Y010534D01*
X005854Y010690D01*
G37*
G36*
X005631Y010913D02*
X005983Y011265D01*
X006139Y011109D01*
X005787Y010757D01*
X005631Y010913D01*
G37*
G36*
X005409Y011136D02*
X005761Y011488D01*
X005917Y011332D01*
X005565Y010980D01*
X005409Y011136D01*
G37*
G36*
X005186Y011359D02*
X005538Y011711D01*
X005694Y011555D01*
X005342Y011203D01*
X005186Y011359D01*
G37*
G36*
X004963Y011581D02*
X005315Y011933D01*
X005471Y011777D01*
X005119Y011425D01*
X004963Y011581D01*
G37*
G36*
X004741Y011804D02*
X005093Y012156D01*
X005249Y012000D01*
X004897Y011648D01*
X004741Y011804D01*
G37*
D17*
G36*
X004741Y012831D02*
X004897Y012987D01*
X005249Y012635D01*
X005093Y012479D01*
X004741Y012831D01*
G37*
G36*
X004963Y013054D02*
X005119Y013210D01*
X005471Y012858D01*
X005315Y012702D01*
X004963Y013054D01*
G37*
G36*
X005186Y013276D02*
X005342Y013432D01*
X005694Y013080D01*
X005538Y012924D01*
X005186Y013276D01*
G37*
G36*
X005409Y013499D02*
X005565Y013655D01*
X005917Y013303D01*
X005761Y013147D01*
X005409Y013499D01*
G37*
G36*
X005631Y013722D02*
X005787Y013878D01*
X006139Y013526D01*
X005983Y013370D01*
X005631Y013722D01*
G37*
G36*
X005854Y013945D02*
X006010Y014101D01*
X006362Y013749D01*
X006206Y013593D01*
X005854Y013945D01*
G37*
G36*
X006077Y014167D02*
X006233Y014323D01*
X006585Y013971D01*
X006429Y013815D01*
X006077Y014167D01*
G37*
G36*
X006299Y014390D02*
X006455Y014546D01*
X006807Y014194D01*
X006651Y014038D01*
X006299Y014390D01*
G37*
G36*
X008467Y011777D02*
X008623Y011933D01*
X008975Y011581D01*
X008819Y011425D01*
X008467Y011777D01*
G37*
G36*
X008244Y011555D02*
X008400Y011711D01*
X008752Y011359D01*
X008596Y011203D01*
X008244Y011555D01*
G37*
G36*
X008021Y011332D02*
X008177Y011488D01*
X008529Y011136D01*
X008373Y010980D01*
X008021Y011332D01*
G37*
G36*
X007799Y011109D02*
X007955Y011265D01*
X008307Y010913D01*
X008151Y010757D01*
X007799Y011109D01*
G37*
G36*
X007576Y010886D02*
X007732Y011042D01*
X008084Y010690D01*
X007928Y010534D01*
X007576Y010886D01*
G37*
G36*
X007353Y010664D02*
X007509Y010820D01*
X007861Y010468D01*
X007705Y010312D01*
X007353Y010664D01*
G37*
G36*
X007131Y010441D02*
X007287Y010597D01*
X007639Y010245D01*
X007483Y010089D01*
X007131Y010441D01*
G37*
G36*
X008690Y012000D02*
X008846Y012156D01*
X009198Y011804D01*
X009042Y011648D01*
X008690Y012000D01*
G37*
D18*
G36*
X009497Y013623D02*
X009635Y013861D01*
X010043Y013625D01*
X009905Y013387D01*
X009497Y013623D01*
G37*
G36*
X009772Y014100D02*
X009910Y014338D01*
X010318Y014102D01*
X010180Y013864D01*
X009772Y014100D01*
G37*
G36*
X010520Y013033D02*
X010658Y013271D01*
X011066Y013035D01*
X010928Y012797D01*
X010520Y013033D01*
G37*
G36*
X010795Y013510D02*
X010933Y013748D01*
X011341Y013512D01*
X011203Y013274D01*
X010795Y013510D01*
G37*
G36*
X010758Y003864D02*
X010620Y004102D01*
X011028Y004338D01*
X011166Y004100D01*
X010758Y003864D01*
G37*
G36*
X011033Y003387D02*
X010895Y003625D01*
X011303Y003861D01*
X011441Y003623D01*
X011033Y003387D01*
G37*
G36*
X010010Y002797D02*
X009872Y003035D01*
X010280Y003271D01*
X010418Y003033D01*
X010010Y002797D01*
G37*
G36*
X009735Y003274D02*
X009597Y003512D01*
X010005Y003748D01*
X010143Y003510D01*
X009735Y003274D01*
G37*
X002095Y007977D03*
X001543Y007977D03*
X001543Y009158D03*
X002095Y009158D03*
D19*
X011019Y006033D03*
D20*
X010121Y008907D03*
X011917Y008907D03*
D21*
X011769Y009766D03*
X011769Y010869D03*
X009169Y008819D03*
X009169Y007716D03*
D22*
X010669Y010322D03*
X010669Y010913D03*
D23*
X009223Y006168D03*
X009223Y005468D03*
X008515Y005468D03*
X008515Y006168D03*
X007173Y006168D03*
X007173Y005468D03*
X007173Y004768D03*
X006465Y004768D03*
X006465Y005468D03*
X006465Y006168D03*
X005473Y005868D03*
X005473Y005168D03*
X005473Y004468D03*
X004765Y004468D03*
X004765Y005168D03*
X004765Y005868D03*
X008515Y004768D03*
X009223Y004768D03*
D24*
X009193Y003761D03*
X008445Y003761D03*
X008819Y002934D03*
G36*
X003689Y012425D02*
X003911Y012647D01*
X004161Y012397D01*
X003939Y012175D01*
X003689Y012425D01*
G37*
G36*
X002840Y012745D02*
X003062Y012967D01*
X003312Y012717D01*
X003090Y012495D01*
X002840Y012745D01*
G37*
G36*
X003369Y013274D02*
X003591Y013496D01*
X003841Y013246D01*
X003619Y013024D01*
X003369Y013274D01*
G37*
D25*
X004849Y003286D03*
X006345Y003286D03*
D26*
X004725Y006493D03*
X004725Y007242D03*
X004725Y007793D03*
X004725Y008542D03*
X004725Y009093D03*
X004725Y009842D03*
X005552Y009468D03*
X005552Y008168D03*
X005552Y006868D03*
D27*
X005769Y006868D01*
X005769Y005868D01*
X005769Y005168D01*
X005769Y004468D01*
X006269Y004768D02*
X006019Y005018D01*
X006019Y005468D01*
X006019Y006168D01*
X006019Y007118D01*
X005919Y007218D01*
X005669Y007218D01*
X005552Y007334D01*
X005552Y008168D01*
X005719Y008618D02*
X005619Y008718D01*
X005619Y009301D01*
X005625Y009320D01*
X005628Y009340D01*
X005629Y009360D01*
X005626Y009379D01*
X005620Y009398D01*
X005611Y009416D01*
X005600Y009432D01*
X005586Y009447D01*
X005570Y009459D01*
X005552Y009468D01*
X005719Y008618D02*
X005869Y008618D01*
X005969Y008518D01*
X005969Y007568D01*
X006569Y006968D01*
X007865Y006968D01*
X008115Y006718D01*
X008115Y006168D01*
X008115Y005468D01*
X008115Y004768D01*
X008515Y004768D01*
X008515Y005468D02*
X008115Y005468D01*
X008115Y006168D02*
X008515Y006168D01*
X006465Y006168D02*
X006019Y006168D01*
X006019Y005468D02*
X006465Y005468D01*
X006465Y004768D02*
X006269Y004768D01*
X005089Y006493D02*
X004725Y006493D01*
X005089Y006493D02*
X005079Y006858D01*
X004444Y006818D01*
X004319Y006943D01*
X004319Y007668D01*
X004444Y007793D01*
X004725Y007793D01*
X003069Y009768D02*
X002469Y009268D01*
X002469Y008818D01*
X002095Y008443D01*
X002095Y007977D01*
X002195Y008143D01*
X004119Y011468D02*
X005005Y011468D01*
X005217Y011679D01*
X003069Y011768D02*
X003069Y012474D01*
X003076Y012731D01*
X007619Y013468D02*
X007869Y013218D01*
X008069Y013218D01*
X008275Y013401D02*
X008482Y013598D01*
X008639Y013658D01*
X009069Y013318D01*
X009938Y012798D01*
X010000Y012548D01*
X010000Y013237D01*
X009869Y013368D01*
X009700Y013554D01*
X009770Y013624D01*
X010000Y012548D02*
X010119Y012279D01*
X010119Y011618D01*
X010269Y011468D01*
X010269Y010768D01*
X010119Y010618D01*
X010119Y010268D01*
X010075Y010223D01*
X009669Y010223D01*
X010119Y010268D02*
X010119Y009618D01*
X010121Y008907D01*
X010125Y009118D01*
X010619Y009112D01*
X010619Y009623D02*
X010680Y009823D01*
X010669Y010322D01*
X007619Y013468D02*
X007619Y013636D01*
D28*
X007219Y013668D03*
X006869Y013418D03*
X007369Y012968D03*
X006519Y011818D03*
X006169Y012268D03*
X006019Y012718D03*
X005269Y013818D03*
X004819Y013518D03*
X004469Y013168D03*
X004719Y011118D03*
X005119Y010643D03*
X004419Y010368D03*
X004269Y009868D03*
X004219Y008168D03*
X005079Y006858D03*
X004219Y006418D03*
X004369Y005868D03*
X004069Y005518D03*
X004319Y005168D03*
X003619Y005018D03*
X001769Y006568D03*
X001919Y007468D03*
X001619Y009718D03*
X001919Y010068D03*
X006119Y009318D03*
X007269Y009518D03*
X007269Y009118D03*
X007319Y008618D03*
X007219Y008018D03*
X006819Y008168D03*
X006429Y007648D03*
X007269Y007368D03*
X007929Y007368D03*
X008619Y006818D03*
X007719Y006518D03*
X007589Y006058D03*
X007169Y006648D03*
X007609Y005368D03*
X007169Y004118D03*
X008119Y003018D03*
X010289Y003778D03*
X010579Y003368D03*
X010519Y004518D03*
X005739Y003688D03*
X005459Y003338D03*
X005379Y002788D03*
X009219Y010868D03*
X009819Y010768D03*
X009919Y011218D03*
X010619Y011468D03*
X010519Y012318D03*
X011319Y012568D03*
X010419Y013518D03*
X009419Y012618D03*
X009169Y013718D03*
X008459Y014008D03*
X006919Y011418D03*
D29*
X007169Y011418D01*
X007333Y011568D01*
X008721Y012956D01*
X008169Y013690D02*
X008053Y013624D01*
X008169Y013690D02*
X008459Y014008D01*
X008619Y013868D01*
X008819Y014068D01*
X009169Y013718D02*
X009375Y013974D01*
X009225Y014475D01*
X008313Y014720D02*
X007569Y014468D01*
X007385Y014292D01*
X007607Y014069D02*
X007255Y013718D01*
X007219Y013668D01*
X006869Y013418D02*
X006869Y014076D01*
X006553Y014292D01*
X006331Y014069D02*
X006133Y014268D01*
X005169Y014268D01*
X003986Y013585D01*
X003612Y013382D01*
X003605Y013260D01*
X004469Y013168D02*
X005019Y013168D01*
X005217Y012956D01*
X005440Y013178D02*
X005119Y013518D01*
X004819Y013518D01*
X005269Y013818D02*
X005663Y013401D01*
X005885Y013624D02*
X006179Y013310D01*
X006019Y012718D01*
X006369Y012468D02*
X006369Y013686D01*
X006108Y013847D01*
X004995Y012733D02*
X005053Y012633D01*
X006969Y010668D01*
X006969Y009718D01*
X006843Y009542D01*
X006793Y009542D01*
X006219Y008968D01*
X006219Y007868D01*
X006429Y007648D01*
X006545Y007542D01*
X006843Y007542D01*
X007719Y006518D02*
X007919Y006318D01*
X007919Y004768D01*
X007569Y004418D01*
X007019Y004418D01*
X006869Y004268D01*
X006869Y003968D01*
X007019Y003818D01*
X007969Y003818D01*
X008269Y004118D01*
X009019Y004118D01*
X009193Y003943D01*
X009193Y003761D01*
X005119Y007418D02*
X005119Y010643D01*
X005469Y010418D02*
X005738Y010148D01*
X005469Y010418D02*
X005469Y011040D01*
X005663Y011234D01*
X005885Y011011D02*
X005719Y010845D01*
X005719Y010618D01*
X006100Y010237D01*
X006100Y009787D01*
X004725Y009842D02*
X004719Y009898D01*
X004719Y011118D01*
X004419Y010368D02*
X004169Y010368D01*
X003969Y010168D01*
X003969Y009368D01*
X004419Y008918D01*
X004419Y008542D01*
X004725Y008542D01*
X004725Y009093D02*
X004269Y009550D01*
X004269Y009868D01*
X004219Y008168D02*
X003869Y007818D01*
X003869Y007423D01*
X003869Y006912D02*
X003869Y006768D01*
X004219Y006418D01*
X004725Y007242D02*
X004943Y007242D01*
X005119Y007418D01*
X008275Y011234D02*
X008742Y010868D01*
X009019Y010868D01*
X008819Y010668D01*
X008819Y009868D01*
X008975Y009712D01*
X009169Y009712D01*
X009169Y010223D02*
X009669Y010223D01*
X009819Y010768D02*
X009469Y011168D01*
X008887Y011168D01*
X008498Y011457D01*
X008721Y011679D02*
X009133Y011368D01*
X009769Y011368D01*
X009919Y011218D01*
X010619Y011468D02*
X010869Y011768D01*
X011213Y011768D01*
X011725Y011768D02*
X012519Y011768D01*
X012844Y011443D01*
X012844Y010993D01*
X009219Y010868D02*
X009019Y010868D01*
X006369Y012468D02*
X006169Y012268D01*
D30*
X004119Y010718D02*
X003669Y010268D01*
X003669Y009268D01*
X003669Y008568D01*
X004219Y008168D01*
X003669Y009268D02*
X003169Y009768D01*
X007319Y008618D02*
X007420Y008619D01*
X008619Y008618D01*
X008820Y008819D01*
X009169Y008819D01*
X010121Y008819D01*
X010121Y008907D01*
X010113Y008899D01*
X010113Y007852D01*
X010919Y007168D02*
X011019Y006033D01*
X012803Y006033D01*
X012844Y005993D01*
X012844Y006993D01*
X011219Y007508D02*
X010919Y007168D01*
X010069Y008857D02*
X010121Y008907D01*
X008445Y003761D02*
X008091Y003288D01*
X008119Y003300D01*
X008119Y003018D01*
X008091Y003288D02*
X006345Y003286D01*
D31*
X003046Y003553D02*
X002605Y003994D01*
X002206Y004474D01*
X001854Y004988D01*
X001551Y005533D01*
X001299Y006103D01*
X001101Y006694D01*
X000958Y007301D01*
X000872Y007919D01*
X000843Y008542D01*
X000872Y009164D01*
X000958Y009782D01*
X001101Y010389D01*
X001299Y010980D01*
X001551Y011550D01*
X001854Y012095D01*
X002206Y012609D01*
X002605Y013089D01*
X003046Y013530D01*
X003525Y013928D01*
X004040Y014280D01*
X004584Y014584D01*
X005155Y014836D01*
X005746Y015034D01*
X006353Y015177D01*
X006970Y015263D01*
X007593Y015292D01*
X008216Y015263D01*
X008833Y015177D01*
X009440Y015034D01*
X010031Y014836D01*
X010602Y014584D01*
X011146Y014280D01*
X011661Y013928D01*
X012140Y013530D01*
X012581Y013089D01*
X012980Y012609D01*
X013332Y012095D01*
X013635Y011550D01*
X013887Y010980D01*
X014085Y010389D01*
X014228Y009782D01*
X014314Y009164D01*
X014343Y008542D01*
X014314Y007919D01*
X014228Y007301D01*
X014085Y006694D01*
X013887Y006103D01*
X013635Y005533D01*
X013332Y004988D01*
X012980Y004474D01*
X012581Y003994D01*
X012140Y003553D01*
X011661Y003155D01*
X011146Y002803D01*
X010602Y002499D01*
X010031Y002247D01*
X009440Y002049D01*
X008833Y001906D01*
X008216Y001820D01*
X007593Y001792D01*
X006970Y001820D01*
X006353Y001906D01*
X005746Y002049D01*
X005155Y002247D01*
X004584Y002499D01*
X004040Y002803D01*
X003525Y003155D01*
X003046Y003553D01*
X003025Y003574D02*
X004433Y003574D01*
X004433Y003580D02*
X004433Y003326D01*
X004809Y003326D01*
X004809Y003701D01*
X004555Y003701D01*
X004519Y003692D01*
X004487Y003673D01*
X004461Y003647D01*
X004443Y003615D01*
X004433Y003580D01*
X004467Y003653D02*
X002946Y003653D01*
X002868Y003731D02*
X006809Y003731D01*
X006932Y003608D01*
X007981Y003608D01*
X007951Y003567D01*
X006781Y003566D01*
X006781Y003627D01*
X006687Y003721D01*
X006003Y003721D01*
X005909Y003627D01*
X005909Y002944D01*
X006003Y002850D01*
X006687Y002850D01*
X006781Y002944D01*
X006781Y003006D01*
X007781Y003007D01*
X007781Y002950D01*
X007832Y002826D01*
X007927Y002731D01*
X008052Y002679D01*
X008186Y002679D01*
X008311Y002731D01*
X008406Y002826D01*
X008457Y002950D01*
X008457Y003085D01*
X008406Y003209D01*
X008399Y003216D01*
X008399Y003232D01*
X008543Y003424D01*
X008669Y003424D01*
X008762Y003518D01*
X008762Y003908D01*
X008876Y003908D01*
X008876Y003518D01*
X008969Y003424D01*
X009417Y003424D01*
X009446Y003453D01*
X009560Y003254D01*
X009060Y003254D01*
X009043Y003272D01*
X008595Y003272D01*
X008502Y003178D01*
X008502Y003004D01*
X008499Y002998D01*
X008499Y002871D01*
X008502Y002865D01*
X008502Y002691D01*
X008595Y002597D01*
X009043Y002597D01*
X009060Y002614D01*
X010110Y002614D01*
X010228Y002663D01*
X010277Y002713D01*
X010294Y002713D01*
X010296Y002714D01*
X010299Y002714D01*
X010355Y002737D01*
X010412Y002760D01*
X010414Y002761D01*
X010416Y002762D01*
X010460Y002806D01*
X010722Y003061D01*
X010771Y003081D01*
X010866Y003176D01*
X010909Y003280D01*
X010927Y003249D01*
X011055Y003215D01*
X011579Y003517D01*
X011613Y003646D01*
X011546Y003761D01*
X011550Y003766D01*
X011539Y003840D01*
X011539Y004138D01*
X011555Y004198D01*
X011539Y004226D01*
X011539Y004259D01*
X011495Y004302D01*
X011339Y004576D01*
X011339Y004609D01*
X011295Y004652D01*
X011284Y004673D01*
X012100Y004673D01*
X012136Y004682D01*
X012168Y004701D01*
X012194Y004727D01*
X012212Y004759D01*
X012222Y004794D01*
X012222Y005993D01*
X011059Y005993D01*
X011059Y006073D01*
X012222Y006073D01*
X012222Y007272D01*
X012212Y007308D01*
X012194Y007340D01*
X012168Y007366D01*
X012136Y007384D01*
X012100Y007394D01*
X011059Y007394D01*
X011059Y006073D01*
X010979Y006073D01*
X010979Y005993D01*
X009816Y005993D01*
X009816Y005186D01*
X009541Y005461D01*
X009541Y005770D01*
X009493Y005818D01*
X009541Y005865D01*
X009541Y006470D01*
X009447Y006564D01*
X009439Y006564D01*
X009439Y006659D01*
X009189Y006909D01*
X009060Y007038D01*
X008878Y007038D01*
X008811Y007104D01*
X008686Y007156D01*
X008605Y007156D01*
X008623Y007187D01*
X008633Y007223D01*
X008633Y007507D01*
X008378Y007507D01*
X008378Y007577D01*
X008308Y007577D01*
X008308Y007982D01*
X008175Y007982D01*
X008139Y007972D01*
X008107Y007954D01*
X008081Y007927D01*
X008063Y007896D01*
X008053Y007860D01*
X008053Y007682D01*
X007996Y007706D01*
X007862Y007706D01*
X007737Y007654D01*
X007670Y007588D01*
X007528Y007588D01*
X007461Y007654D01*
X007336Y007706D01*
X007202Y007706D01*
X007153Y007686D01*
X007153Y007908D01*
X007059Y008002D01*
X006627Y008002D01*
X006578Y007952D01*
X006496Y007986D01*
X006429Y007986D01*
X006429Y008881D01*
X006630Y009082D01*
X007059Y009082D01*
X007153Y009175D01*
X007153Y009605D01*
X007179Y009631D01*
X007179Y009650D01*
X007190Y009666D01*
X007179Y009735D01*
X007179Y010167D01*
X007417Y009928D01*
X007550Y009928D01*
X007773Y010151D01*
X007995Y010374D01*
X008218Y010597D01*
X008451Y010829D01*
X008602Y010710D01*
X008609Y010703D01*
X008609Y009921D01*
X008605Y009927D01*
X008579Y009954D01*
X008547Y009972D01*
X008511Y009982D01*
X008378Y009982D01*
X008378Y009577D01*
X008308Y009577D01*
X008308Y009982D01*
X008175Y009982D01*
X008139Y009972D01*
X008107Y009954D01*
X008081Y009927D01*
X008063Y009896D01*
X008053Y009860D01*
X008053Y009577D01*
X008308Y009577D01*
X008308Y009507D01*
X008053Y009507D01*
X008053Y009223D01*
X008063Y009187D01*
X008081Y009156D01*
X008107Y009130D01*
X008139Y009111D01*
X008175Y009102D01*
X008308Y009102D01*
X008308Y009507D01*
X008378Y009507D01*
X008378Y009577D01*
X008633Y009577D01*
X008633Y009757D01*
X008732Y009658D01*
X008832Y009558D01*
X008832Y009508D01*
X008926Y009414D01*
X009412Y009414D01*
X009441Y009442D01*
X009473Y009434D01*
X009640Y009434D01*
X009640Y009683D01*
X009698Y009683D01*
X009698Y009434D01*
X009865Y009434D01*
X009880Y009438D01*
X009880Y009382D01*
X009858Y009382D01*
X009765Y009289D01*
X009765Y009099D01*
X009644Y009099D01*
X009644Y009161D01*
X009550Y009254D01*
X008788Y009254D01*
X008694Y009161D01*
X008694Y009070D01*
X008662Y009056D01*
X008583Y008977D01*
X008503Y008898D01*
X007517Y008899D01*
X007511Y008904D01*
X007386Y008956D01*
X007252Y008956D01*
X007127Y008904D01*
X007032Y008809D01*
X006981Y008685D01*
X006981Y008550D01*
X007032Y008426D01*
X007127Y008331D01*
X007252Y008279D01*
X007386Y008279D01*
X007511Y008331D01*
X007519Y008339D01*
X008563Y008338D01*
X008563Y008338D01*
X008619Y008338D01*
X008674Y008337D01*
X008675Y008338D01*
X008727Y008359D01*
X008777Y008380D01*
X008777Y008380D01*
X008778Y008380D01*
X008784Y008387D01*
X008788Y008383D01*
X009550Y008383D01*
X009644Y008477D01*
X009644Y008539D01*
X009765Y008539D01*
X009765Y008526D01*
X009833Y008458D01*
X009833Y008078D01*
X009809Y008054D01*
X009755Y007923D01*
X009755Y007780D01*
X009809Y007649D01*
X009910Y007548D01*
X010042Y007493D01*
X010184Y007493D01*
X010316Y007548D01*
X010417Y007649D01*
X010471Y007780D01*
X010471Y007923D01*
X010417Y008054D01*
X010393Y008078D01*
X010393Y008441D01*
X010478Y008526D01*
X010478Y008632D01*
X010482Y008636D01*
X010531Y008754D01*
X010531Y008814D01*
X010862Y008814D01*
X010956Y008908D01*
X010956Y009316D01*
X010904Y009368D01*
X010956Y009419D01*
X010956Y009827D01*
X010919Y009865D01*
X010915Y010027D01*
X010986Y010098D01*
X010986Y010546D01*
X010898Y010635D01*
X010912Y010643D01*
X010939Y010669D01*
X010957Y010701D01*
X010966Y010737D01*
X010966Y010874D01*
X010708Y010874D01*
X010708Y010952D01*
X010966Y010952D01*
X010966Y011089D01*
X010957Y011124D01*
X010939Y011156D01*
X010912Y011182D01*
X010881Y011201D01*
X010845Y011210D01*
X010840Y011210D01*
X010906Y011276D01*
X010957Y011400D01*
X010957Y011482D01*
X011009Y011430D01*
X011417Y011430D01*
X011469Y011482D01*
X011521Y011430D01*
X011929Y011430D01*
X012023Y011524D01*
X012023Y011558D01*
X012432Y011558D01*
X012547Y011443D01*
X012544Y011442D01*
X012395Y011293D01*
X012314Y011098D01*
X012314Y010887D01*
X012395Y010692D01*
X012544Y010543D01*
X012666Y010493D01*
X012544Y010442D01*
X012395Y010293D01*
X012314Y010098D01*
X012314Y009887D01*
X012395Y009692D01*
X012544Y009543D01*
X012666Y009493D01*
X012544Y009442D01*
X012395Y009293D01*
X012314Y009098D01*
X012314Y008887D01*
X012395Y008692D01*
X012544Y008543D01*
X012666Y008493D01*
X012544Y008442D01*
X012395Y008293D01*
X012314Y008098D01*
X012314Y007887D01*
X012395Y007692D01*
X012544Y007543D01*
X012695Y007480D01*
X012648Y007465D01*
X012577Y007429D01*
X012512Y007382D01*
X012455Y007325D01*
X012408Y007260D01*
X012371Y007188D01*
X012347Y007112D01*
X012334Y007033D01*
X012334Y007033D01*
X012804Y007033D01*
X012804Y006953D01*
X012334Y006953D01*
X012334Y006952D01*
X012347Y006873D01*
X012371Y006797D01*
X012408Y006725D01*
X012455Y006660D01*
X012512Y006604D01*
X012577Y006556D01*
X012648Y006520D01*
X012725Y006495D01*
X012741Y006493D01*
X012725Y006490D01*
X012648Y006465D01*
X012577Y006429D01*
X012512Y006382D01*
X012455Y006325D01*
X012408Y006260D01*
X012371Y006188D01*
X012347Y006112D01*
X012334Y006033D01*
X012334Y006033D01*
X012804Y006033D01*
X012804Y006503D01*
X012804Y006953D01*
X012884Y006953D01*
X012884Y007033D01*
X013354Y007033D01*
X013341Y007112D01*
X013317Y007188D01*
X013280Y007260D01*
X013233Y007325D01*
X013176Y007382D01*
X013111Y007429D01*
X013040Y007465D01*
X012993Y007480D01*
X013144Y007543D01*
X013293Y007692D01*
X013374Y007887D01*
X013374Y008098D01*
X013293Y008293D01*
X013144Y008442D01*
X013022Y008493D01*
X013144Y008543D01*
X013293Y008692D01*
X013374Y008887D01*
X013374Y009098D01*
X013293Y009293D01*
X013144Y009442D01*
X013022Y009493D01*
X013144Y009543D01*
X013293Y009692D01*
X013374Y009887D01*
X013374Y010098D01*
X013293Y010293D01*
X013144Y010442D01*
X013022Y010493D01*
X013144Y010543D01*
X013293Y010692D01*
X013374Y010887D01*
X013374Y011098D01*
X013293Y011293D01*
X013144Y011442D01*
X013054Y011479D01*
X013054Y011529D01*
X012729Y011854D01*
X012606Y011978D01*
X012023Y011978D01*
X012023Y012011D01*
X011929Y012105D01*
X011521Y012105D01*
X011469Y012053D01*
X011417Y012105D01*
X011009Y012105D01*
X010915Y012011D01*
X010915Y011983D01*
X010859Y011978D01*
X010782Y011978D01*
X010774Y011970D01*
X010763Y011969D01*
X010714Y011909D01*
X010659Y011854D01*
X010659Y011844D01*
X010628Y011806D01*
X010552Y011806D01*
X010427Y011754D01*
X010374Y011702D01*
X010359Y011717D01*
X010359Y012017D01*
X010452Y011979D01*
X010586Y011979D01*
X010711Y012031D01*
X010806Y012126D01*
X010857Y012250D01*
X010857Y012345D01*
X010910Y012398D01*
X010990Y012477D01*
X011032Y012376D01*
X011127Y012281D01*
X011252Y012229D01*
X011386Y012229D01*
X011511Y012281D01*
X011606Y012376D01*
X011657Y012500D01*
X011657Y012635D01*
X011606Y012759D01*
X011539Y012826D01*
X011539Y013351D01*
X011472Y013418D01*
X011513Y013490D01*
X011479Y013618D01*
X010955Y013920D01*
X010827Y013886D01*
X010714Y013690D01*
X010706Y013709D01*
X010640Y013775D01*
X010639Y013786D01*
X010639Y013869D01*
X010633Y013875D01*
X010632Y013884D01*
X010569Y013939D01*
X010510Y013998D01*
X010501Y013998D01*
X010462Y014031D01*
X010491Y014080D01*
X010456Y014208D01*
X009932Y014511D01*
X009804Y014476D01*
X009600Y014123D01*
X009626Y014025D01*
X009583Y014013D01*
X009582Y014016D01*
X009575Y014083D01*
X009558Y014097D01*
X009492Y014318D01*
X009617Y014785D01*
X009550Y014900D01*
X009156Y015006D01*
X009099Y014973D01*
X009075Y014997D01*
X009043Y015016D01*
X008920Y015049D01*
X008804Y014618D01*
X008749Y014633D01*
X008864Y015063D01*
X008741Y015096D01*
X008704Y015096D01*
X008671Y015088D01*
X008638Y015145D01*
X008244Y015250D01*
X008129Y015184D01*
X008039Y014849D01*
X007568Y014689D01*
X007550Y014707D01*
X007417Y014707D01*
X006977Y014266D01*
X006956Y014286D01*
X006941Y014286D01*
X006521Y014707D01*
X006388Y014707D01*
X006166Y014484D01*
X006159Y014478D01*
X005197Y014478D01*
X005139Y014493D01*
X005113Y014478D01*
X005082Y014478D01*
X005040Y014436D01*
X003884Y013769D01*
X003665Y013650D01*
X003657Y013657D01*
X003525Y013657D01*
X003208Y013341D01*
X003208Y013208D01*
X003553Y012864D01*
X003685Y012864D01*
X004002Y013180D01*
X004002Y013313D01*
X003975Y013340D01*
X004013Y013361D01*
X004016Y013360D01*
X004089Y013402D01*
X004163Y013442D01*
X004164Y013445D01*
X004504Y013641D01*
X004481Y013585D01*
X004481Y013506D01*
X004402Y013506D01*
X004277Y013454D01*
X004182Y013359D01*
X004131Y013235D01*
X004131Y013100D01*
X004182Y012976D01*
X004277Y012881D01*
X004402Y012829D01*
X004536Y012829D01*
X004580Y012847D01*
X004580Y012766D01*
X005027Y012318D01*
X005067Y012318D01*
X005069Y012317D01*
X005027Y012317D01*
X004580Y011869D01*
X004580Y011737D01*
X004609Y011708D01*
X004439Y011708D01*
X004439Y012070D01*
X004445Y012097D01*
X004439Y012133D01*
X004439Y012169D01*
X004428Y012195D01*
X004423Y012222D01*
X004404Y012253D01*
X004390Y012286D01*
X004370Y012306D01*
X004322Y012383D01*
X004322Y012464D01*
X004183Y012603D01*
X004162Y012636D01*
X004120Y012666D01*
X003978Y012808D01*
X003845Y012808D01*
X003529Y012491D01*
X003529Y012359D01*
X003668Y012220D01*
X003799Y012012D01*
X003799Y010793D01*
X003510Y010505D01*
X003504Y010498D01*
X003505Y010500D01*
X003542Y010572D01*
X003566Y010648D01*
X003579Y010727D01*
X003579Y010728D01*
X003109Y010728D01*
X003109Y010808D01*
X003579Y010808D01*
X003566Y010887D01*
X003542Y010963D01*
X003505Y011035D01*
X003458Y011100D01*
X003401Y011157D01*
X003336Y011204D01*
X003265Y011240D01*
X003218Y011255D01*
X003369Y011318D01*
X003518Y011467D01*
X003599Y011662D01*
X003599Y011873D01*
X003518Y012068D01*
X003369Y012217D01*
X003309Y012242D01*
X003309Y012471D01*
X003309Y012488D01*
X003473Y012651D01*
X003473Y012784D01*
X003129Y013128D01*
X002996Y013128D01*
X002680Y012812D01*
X002680Y012679D01*
X002830Y012528D01*
X002830Y012525D01*
X002829Y012522D01*
X002829Y012478D01*
X002828Y012433D01*
X002829Y012430D01*
X002829Y012242D01*
X002769Y012217D01*
X002620Y012068D01*
X002539Y011873D01*
X002539Y011662D01*
X002620Y011467D01*
X002769Y011318D01*
X002920Y011255D01*
X002873Y011240D01*
X002802Y011204D01*
X002737Y011157D01*
X002680Y011100D01*
X002633Y011035D01*
X002596Y010963D01*
X002572Y010887D01*
X002559Y010808D01*
X002559Y010808D01*
X003029Y010808D01*
X003029Y010728D01*
X002559Y010728D01*
X002559Y010727D01*
X002572Y010648D01*
X002596Y010572D01*
X002633Y010500D01*
X002680Y010435D01*
X002737Y010379D01*
X002802Y010331D01*
X002873Y010295D01*
X002920Y010280D01*
X002769Y010217D01*
X002620Y010068D01*
X002539Y009873D01*
X002539Y009662D01*
X002546Y009644D01*
X002362Y009491D01*
X002315Y009538D01*
X002315Y009655D01*
X002332Y009704D01*
X002315Y009742D01*
X002315Y009784D01*
X002277Y009821D01*
X002227Y009928D01*
X002257Y010000D01*
X002257Y010135D01*
X002206Y010259D01*
X002111Y010354D01*
X001986Y010406D01*
X001852Y010406D01*
X001727Y010354D01*
X001632Y010259D01*
X001581Y010135D01*
X001581Y010056D01*
X001552Y010056D01*
X001427Y010004D01*
X001332Y009909D01*
X001281Y009785D01*
X001281Y009650D01*
X001326Y009541D01*
X001246Y009461D01*
X001246Y008856D01*
X001339Y008762D01*
X001747Y008762D01*
X001819Y008833D01*
X001891Y008762D01*
X002074Y008762D01*
X001891Y008579D01*
X001855Y008491D01*
X001855Y008337D01*
X001819Y008302D01*
X001747Y008373D01*
X001339Y008373D01*
X001246Y008279D01*
X001246Y007674D01*
X001339Y007581D01*
X001349Y007581D01*
X001349Y007126D01*
X001608Y006867D01*
X001577Y006854D01*
X001482Y006759D01*
X001431Y006635D01*
X001431Y006500D01*
X001482Y006376D01*
X001577Y006281D01*
X001702Y006229D01*
X001836Y006229D01*
X001843Y006232D01*
X002399Y005676D01*
X002528Y005548D01*
X003228Y005548D01*
X003249Y005526D01*
X003249Y005176D01*
X003298Y005127D01*
X003281Y005085D01*
X003281Y004950D01*
X003332Y004826D01*
X003427Y004731D01*
X003552Y004679D01*
X003686Y004679D01*
X003799Y004726D01*
X004149Y004376D01*
X004278Y004248D01*
X004447Y004248D01*
X004447Y004165D01*
X004541Y004071D01*
X004988Y004071D01*
X005082Y004165D01*
X005082Y004770D01*
X005035Y004818D01*
X005082Y004865D01*
X005082Y005470D01*
X005035Y005518D01*
X005082Y005565D01*
X005082Y006170D01*
X005008Y006244D01*
X005015Y006250D01*
X005033Y006282D01*
X005042Y006318D01*
X005042Y006455D01*
X004764Y006455D01*
X004764Y006532D01*
X005042Y006532D01*
X005042Y006669D01*
X005033Y006705D01*
X005015Y006737D01*
X004988Y006763D01*
X004957Y006781D01*
X004921Y006791D01*
X004764Y006791D01*
X004764Y006532D01*
X004687Y006532D01*
X004687Y006791D01*
X004530Y006791D01*
X004494Y006781D01*
X004462Y006763D01*
X004436Y006737D01*
X004418Y006705D01*
X004416Y006699D01*
X004411Y006704D01*
X004286Y006756D01*
X004206Y006756D01*
X004206Y007116D01*
X004154Y007168D01*
X004206Y007219D01*
X004206Y007627D01*
X004112Y007721D01*
X004079Y007721D01*
X004079Y007731D01*
X004178Y007829D01*
X004286Y007829D01*
X004408Y007880D01*
X004408Y007832D01*
X004687Y007832D01*
X004687Y008091D01*
X004554Y008091D01*
X004557Y008100D01*
X004557Y008224D01*
X004909Y008224D01*
X004909Y008091D01*
X004764Y008091D01*
X004764Y007832D01*
X004687Y007832D01*
X004687Y007755D01*
X004408Y007755D01*
X004408Y007618D01*
X004418Y007582D01*
X004436Y007550D01*
X004455Y007532D01*
X004388Y007465D01*
X004388Y007018D01*
X004482Y006924D01*
X004969Y006924D01*
X005062Y007018D01*
X005062Y007064D01*
X005206Y007208D01*
X005312Y007314D01*
X005312Y007287D01*
X005349Y007198D01*
X005362Y007185D01*
X005184Y007185D01*
X005230Y007107D02*
X005105Y007107D01*
X005062Y007028D02*
X005215Y007028D01*
X005215Y007091D02*
X005215Y006644D01*
X005309Y006550D01*
X005529Y006550D01*
X005529Y006264D01*
X005250Y006264D01*
X005156Y006170D01*
X005156Y005565D01*
X005203Y005518D01*
X005156Y005470D01*
X005156Y004865D01*
X005203Y004818D01*
X005156Y004770D01*
X005156Y004165D01*
X005250Y004071D01*
X005697Y004071D01*
X005791Y004165D01*
X005791Y004228D01*
X005817Y004228D01*
X005905Y004264D01*
X005972Y004332D01*
X006009Y004420D01*
X006009Y004688D01*
X006133Y004564D01*
X006147Y004558D01*
X006147Y004465D01*
X006241Y004371D01*
X006676Y004371D01*
X006659Y004354D01*
X006659Y003881D01*
X006809Y003731D01*
X006756Y003653D02*
X006887Y003653D01*
X006781Y003574D02*
X007956Y003574D01*
X008420Y003260D02*
X008584Y003260D01*
X008505Y003182D02*
X008417Y003182D01*
X008450Y003103D02*
X008502Y003103D01*
X008502Y003025D02*
X008457Y003025D01*
X008456Y002946D02*
X008499Y002946D01*
X008500Y002868D02*
X008423Y002868D01*
X008369Y002789D02*
X008502Y002789D01*
X008502Y002711D02*
X008262Y002711D01*
X007976Y002711D02*
X004205Y002711D01*
X004064Y002789D02*
X007869Y002789D01*
X007815Y002868D02*
X006705Y002868D01*
X006781Y002946D02*
X007782Y002946D01*
X008479Y003339D02*
X009512Y003339D01*
X009466Y003417D02*
X008537Y003417D01*
X008740Y003496D02*
X008898Y003496D01*
X008876Y003574D02*
X008762Y003574D01*
X008762Y003653D02*
X008876Y003653D01*
X008876Y003731D02*
X008762Y003731D01*
X008762Y003810D02*
X008876Y003810D01*
X008876Y003888D02*
X008762Y003888D01*
X009054Y003260D02*
X009557Y003260D01*
X010152Y002632D02*
X010840Y002632D01*
X010699Y002554D02*
X004487Y002554D01*
X004346Y002632D02*
X008561Y002632D01*
X008914Y001926D02*
X006272Y001926D01*
X005938Y002004D02*
X009248Y002004D01*
X009540Y002083D02*
X005646Y002083D01*
X005412Y002161D02*
X009774Y002161D01*
X010008Y002240D02*
X005178Y002240D01*
X004995Y002318D02*
X010192Y002318D01*
X010369Y002397D02*
X004817Y002397D01*
X004639Y002475D02*
X010547Y002475D01*
X010443Y002789D02*
X011122Y002789D01*
X011241Y002868D02*
X010523Y002868D01*
X010604Y002946D02*
X011356Y002946D01*
X011470Y003025D02*
X010685Y003025D01*
X010793Y003103D02*
X011585Y003103D01*
X011693Y003182D02*
X010868Y003182D01*
X010901Y003260D02*
X010921Y003260D01*
X011133Y003260D02*
X011787Y003260D01*
X011882Y003339D02*
X011269Y003339D01*
X011405Y003417D02*
X011976Y003417D01*
X012071Y003496D02*
X011541Y003496D01*
X011594Y003574D02*
X012161Y003574D01*
X012240Y003653D02*
X011609Y003653D01*
X011564Y003731D02*
X012318Y003731D01*
X012397Y003810D02*
X011543Y003810D01*
X011539Y003888D02*
X012475Y003888D01*
X012554Y003967D02*
X011539Y003967D01*
X011539Y004045D02*
X012624Y004045D01*
X012689Y004124D02*
X011539Y004124D01*
X011553Y004202D02*
X012754Y004202D01*
X012819Y004281D02*
X011517Y004281D01*
X011463Y004359D02*
X012884Y004359D01*
X012950Y004438D02*
X011418Y004438D01*
X011373Y004516D02*
X013009Y004516D01*
X013062Y004595D02*
X011339Y004595D01*
X012101Y004673D02*
X013116Y004673D01*
X013170Y004752D02*
X012208Y004752D01*
X012222Y004830D02*
X013224Y004830D01*
X013277Y004909D02*
X012222Y004909D01*
X012222Y004987D02*
X013331Y004987D01*
X013375Y005066D02*
X012222Y005066D01*
X012222Y005144D02*
X013419Y005144D01*
X013463Y005223D02*
X012222Y005223D01*
X012222Y005301D02*
X013506Y005301D01*
X013550Y005380D02*
X012222Y005380D01*
X012222Y005458D02*
X013594Y005458D01*
X013637Y005537D02*
X013073Y005537D01*
X013040Y005520D02*
X013111Y005556D01*
X013176Y005604D01*
X013233Y005660D01*
X013280Y005725D01*
X013317Y005797D01*
X013341Y005873D01*
X013354Y005952D01*
X013354Y005953D01*
X012884Y005953D01*
X012884Y006033D01*
X012804Y006033D01*
X012804Y005953D01*
X012334Y005953D01*
X012334Y005952D01*
X012347Y005873D01*
X012371Y005797D01*
X012408Y005725D01*
X012455Y005660D01*
X012512Y005604D01*
X012577Y005556D01*
X012648Y005520D01*
X012725Y005495D01*
X012804Y005483D01*
X012804Y005953D01*
X012884Y005953D01*
X012884Y005483D01*
X012884Y005483D01*
X012963Y005495D01*
X013040Y005520D01*
X012884Y005537D02*
X012804Y005537D01*
X012804Y005483D02*
X012804Y005483D01*
X012804Y005615D02*
X012884Y005615D01*
X012884Y005694D02*
X012804Y005694D01*
X012804Y005772D02*
X012884Y005772D01*
X012884Y005851D02*
X012804Y005851D01*
X012804Y005929D02*
X012884Y005929D01*
X012884Y006008D02*
X013845Y006008D01*
X013880Y006086D02*
X013346Y006086D01*
X013341Y006112D02*
X013317Y006188D01*
X013280Y006260D01*
X013233Y006325D01*
X013176Y006382D01*
X013111Y006429D01*
X013040Y006465D01*
X012963Y006490D01*
X012947Y006493D01*
X012963Y006495D01*
X013040Y006520D01*
X013111Y006556D01*
X013176Y006604D01*
X013233Y006660D01*
X013280Y006725D01*
X013317Y006797D01*
X013341Y006873D01*
X013354Y006952D01*
X013354Y006953D01*
X012884Y006953D01*
X012884Y006033D01*
X013354Y006033D01*
X013341Y006112D01*
X013324Y006165D02*
X013908Y006165D01*
X013934Y006243D02*
X013289Y006243D01*
X013235Y006322D02*
X013960Y006322D01*
X013987Y006400D02*
X013151Y006400D01*
X013112Y006557D02*
X014039Y006557D01*
X014013Y006479D02*
X012999Y006479D01*
X012884Y006479D02*
X012804Y006479D01*
X012804Y006557D02*
X012884Y006557D01*
X012884Y006636D02*
X012804Y006636D01*
X012804Y006714D02*
X012884Y006714D01*
X012884Y006793D02*
X012804Y006793D01*
X012804Y006871D02*
X012884Y006871D01*
X012884Y006950D02*
X012804Y006950D01*
X012804Y007028D02*
X012222Y007028D01*
X012222Y006950D02*
X012334Y006950D01*
X012347Y006871D02*
X012222Y006871D01*
X012222Y006793D02*
X012374Y006793D01*
X012416Y006714D02*
X012222Y006714D01*
X012222Y006636D02*
X012480Y006636D01*
X012576Y006557D02*
X012222Y006557D01*
X012222Y006479D02*
X012689Y006479D01*
X012804Y006400D02*
X012884Y006400D01*
X012884Y006322D02*
X012804Y006322D01*
X012804Y006243D02*
X012884Y006243D01*
X012884Y006165D02*
X012804Y006165D01*
X012804Y006086D02*
X012884Y006086D01*
X012804Y006008D02*
X011059Y006008D01*
X011059Y006086D02*
X010979Y006086D01*
X010979Y006073D02*
X010979Y007394D01*
X009938Y007394D01*
X009902Y007384D01*
X009870Y007366D01*
X009844Y007340D01*
X009826Y007308D01*
X009816Y007272D01*
X009816Y006073D01*
X010979Y006073D01*
X010979Y006008D02*
X009541Y006008D01*
X009541Y006086D02*
X009816Y006086D01*
X009816Y006165D02*
X009541Y006165D01*
X009541Y006243D02*
X009816Y006243D01*
X009816Y006322D02*
X009541Y006322D01*
X009541Y006400D02*
X009816Y006400D01*
X009816Y006479D02*
X009532Y006479D01*
X009454Y006557D02*
X009816Y006557D01*
X009816Y006636D02*
X009439Y006636D01*
X009384Y006714D02*
X009816Y006714D01*
X009816Y006793D02*
X009305Y006793D01*
X009227Y006871D02*
X009816Y006871D01*
X009816Y006950D02*
X009148Y006950D01*
X009070Y007028D02*
X009816Y007028D01*
X009816Y007107D02*
X008806Y007107D01*
X008836Y007301D02*
X008800Y007310D01*
X008768Y007329D01*
X008742Y007355D01*
X008724Y007387D01*
X008714Y007422D01*
X008714Y007676D01*
X009129Y007676D01*
X009209Y007676D01*
X009209Y007301D01*
X009502Y007301D01*
X009538Y007310D01*
X009570Y007329D01*
X009596Y007355D01*
X009614Y007387D01*
X009624Y007422D01*
X009624Y007676D01*
X009209Y007676D01*
X009209Y007756D01*
X009624Y007756D01*
X009624Y008010D01*
X009614Y008046D01*
X009596Y008078D01*
X009570Y008104D01*
X009538Y008122D01*
X009502Y008132D01*
X009209Y008132D01*
X009209Y007756D01*
X009129Y007756D01*
X009129Y007676D01*
X009129Y007301D01*
X008836Y007301D01*
X008755Y007342D02*
X008633Y007342D01*
X008633Y007264D02*
X009816Y007264D01*
X009816Y007185D02*
X008622Y007185D01*
X008424Y007102D02*
X008332Y007009D01*
X008282Y006889D01*
X008251Y006921D01*
X008100Y007072D01*
X008121Y007081D01*
X008149Y007108D01*
X008175Y007102D01*
X008308Y007102D01*
X008308Y007507D01*
X008378Y007507D01*
X008378Y007102D01*
X008424Y007102D01*
X008378Y007107D02*
X008308Y007107D01*
X008308Y007185D02*
X008378Y007185D01*
X008378Y007264D02*
X008308Y007264D01*
X008308Y007342D02*
X008378Y007342D01*
X008378Y007421D02*
X008308Y007421D01*
X008308Y007499D02*
X008378Y007499D01*
X008378Y007577D02*
X008633Y007577D01*
X008633Y007860D01*
X008623Y007896D01*
X008605Y007927D01*
X008579Y007954D01*
X008547Y007972D01*
X008511Y007982D01*
X008378Y007982D01*
X008378Y007577D01*
X008378Y007578D02*
X008308Y007578D01*
X008308Y007656D02*
X008378Y007656D01*
X008378Y007735D02*
X008308Y007735D01*
X008308Y007813D02*
X008378Y007813D01*
X008378Y007892D02*
X008308Y007892D01*
X008308Y007970D02*
X008378Y007970D01*
X008550Y007970D02*
X008714Y007970D01*
X008714Y008010D02*
X008714Y007756D01*
X009129Y007756D01*
X009129Y008132D01*
X008836Y008132D01*
X008800Y008122D01*
X008768Y008104D01*
X008742Y008078D01*
X008724Y008046D01*
X008714Y008010D01*
X008725Y008049D02*
X006429Y008049D01*
X006429Y008127D02*
X008817Y008127D01*
X008735Y008363D02*
X009833Y008363D01*
X009833Y008441D02*
X009608Y008441D01*
X009644Y008520D02*
X009771Y008520D01*
X009833Y008284D02*
X007398Y008284D01*
X007240Y008284D02*
X006429Y008284D01*
X006429Y008206D02*
X009833Y008206D01*
X009833Y008127D02*
X009521Y008127D01*
X009613Y008049D02*
X009807Y008049D01*
X009775Y007970D02*
X009624Y007970D01*
X009624Y007892D02*
X009755Y007892D01*
X009755Y007813D02*
X009624Y007813D01*
X009624Y007656D02*
X009806Y007656D01*
X009774Y007735D02*
X009209Y007735D01*
X009209Y007813D02*
X009129Y007813D01*
X009129Y007735D02*
X008633Y007735D01*
X008633Y007813D02*
X008714Y007813D01*
X008714Y007892D02*
X008625Y007892D01*
X008633Y007656D02*
X008714Y007656D01*
X008714Y007578D02*
X008633Y007578D01*
X008633Y007499D02*
X008714Y007499D01*
X008715Y007421D02*
X008633Y007421D01*
X008351Y007028D02*
X008144Y007028D01*
X008147Y007107D02*
X008156Y007107D01*
X008222Y006950D02*
X008307Y006950D01*
X007741Y007656D02*
X007457Y007656D01*
X007153Y007735D02*
X008053Y007735D01*
X008053Y007813D02*
X007153Y007813D01*
X007153Y007892D02*
X008062Y007892D01*
X008136Y007970D02*
X007091Y007970D01*
X007095Y008363D02*
X006429Y008363D01*
X006429Y008441D02*
X007026Y008441D01*
X006993Y008520D02*
X006429Y008520D01*
X006429Y008598D02*
X006981Y008598D01*
X006981Y008677D02*
X006429Y008677D01*
X006429Y008755D02*
X007010Y008755D01*
X007056Y008834D02*
X006429Y008834D01*
X006461Y008912D02*
X007146Y008912D01*
X007125Y009148D02*
X008089Y009148D01*
X008053Y009226D02*
X007153Y009226D01*
X007153Y009305D02*
X008053Y009305D01*
X008053Y009383D02*
X007153Y009383D01*
X007153Y009462D02*
X008053Y009462D01*
X008053Y009619D02*
X007167Y009619D01*
X007185Y009697D02*
X008053Y009697D01*
X008053Y009776D02*
X007179Y009776D01*
X007179Y009854D02*
X008053Y009854D01*
X008086Y009933D02*
X007554Y009933D01*
X007632Y010011D02*
X008609Y010011D01*
X008600Y009933D02*
X008609Y009933D01*
X008609Y010090D02*
X007711Y010090D01*
X007789Y010168D02*
X008609Y010168D01*
X008609Y010247D02*
X007868Y010247D01*
X007946Y010325D02*
X008609Y010325D01*
X008609Y010404D02*
X008025Y010404D01*
X008103Y010482D02*
X008609Y010482D01*
X008609Y010561D02*
X008182Y010561D01*
X008260Y010639D02*
X008609Y010639D01*
X008593Y010718D02*
X008339Y010718D01*
X008417Y010796D02*
X008493Y010796D01*
X007886Y011424D02*
X007487Y011424D01*
X007478Y011416D02*
X007539Y011472D01*
X007539Y011477D01*
X008579Y012517D01*
X008778Y012318D01*
X008911Y012318D01*
X009358Y012766D01*
X009358Y012865D01*
X009660Y012685D01*
X009617Y012643D01*
X009617Y012549D01*
X009592Y012549D01*
X009556Y012540D01*
X009524Y012521D01*
X009434Y012431D01*
X009638Y012227D01*
X009597Y012187D01*
X009393Y012390D01*
X009303Y012300D01*
X009285Y012268D01*
X009275Y012233D01*
X009275Y012196D01*
X009285Y012160D01*
X009303Y012128D01*
X009421Y012011D01*
X009597Y012187D01*
X009638Y012146D01*
X009462Y011970D01*
X009580Y011852D01*
X009612Y011833D01*
X009647Y011824D01*
X009684Y011824D01*
X009720Y011833D01*
X009752Y011852D01*
X009842Y011942D01*
X009638Y012146D01*
X009679Y012187D01*
X009879Y011986D01*
X009879Y011570D01*
X009885Y011556D01*
X009878Y011556D01*
X009856Y011578D01*
X009203Y011578D01*
X009201Y011579D01*
X009358Y011737D01*
X009358Y011869D01*
X008911Y012317D01*
X008778Y012317D01*
X008529Y012067D01*
X008306Y011845D01*
X008306Y011845D01*
X008084Y011622D01*
X007887Y011426D01*
X007638Y011176D01*
X007415Y010954D01*
X007193Y010731D01*
X007180Y010718D01*
X007180Y010752D01*
X007179Y010753D01*
X007179Y010754D01*
X007118Y010815D01*
X006861Y011079D01*
X006986Y011079D01*
X007111Y011131D01*
X007187Y011207D01*
X007247Y011204D01*
X007251Y011208D01*
X007256Y011208D01*
X007314Y011266D01*
X007414Y011358D01*
X007420Y011358D01*
X007478Y011416D01*
X007401Y011346D02*
X007807Y011346D01*
X007729Y011267D02*
X007316Y011267D01*
X007169Y011189D02*
X007650Y011189D01*
X007572Y011110D02*
X007061Y011110D01*
X006907Y011032D02*
X007493Y011032D01*
X007415Y010953D02*
X006984Y010953D01*
X007060Y010875D02*
X007336Y010875D01*
X007258Y010796D02*
X007137Y010796D01*
X006581Y011367D02*
X005986Y011977D01*
X006102Y011929D01*
X006236Y011929D01*
X006361Y011981D01*
X006456Y012076D01*
X006507Y012200D01*
X006507Y012309D01*
X006579Y012381D01*
X006579Y013233D01*
X006582Y013226D01*
X006677Y013131D01*
X006802Y013079D01*
X006936Y013079D01*
X007061Y013131D01*
X007156Y013226D01*
X007199Y013329D01*
X007286Y013329D01*
X007398Y013375D01*
X007416Y013332D01*
X007666Y013082D01*
X007733Y013014D01*
X007821Y012978D01*
X008117Y012978D01*
X008138Y012987D01*
X008212Y012913D01*
X008477Y013178D01*
X008498Y013157D01*
X008233Y012892D01*
X008297Y012828D01*
X007187Y011719D01*
X007140Y011676D01*
X007111Y011704D01*
X006986Y011756D01*
X006852Y011756D01*
X006727Y011704D01*
X006632Y011609D01*
X006581Y011485D01*
X006581Y011367D01*
X006581Y011424D02*
X006525Y011424D01*
X006588Y011503D02*
X006448Y011503D01*
X006372Y011581D02*
X006620Y011581D01*
X006682Y011660D02*
X006295Y011660D01*
X006219Y011738D02*
X006809Y011738D01*
X007029Y011738D02*
X007206Y011738D01*
X007285Y011817D02*
X006142Y011817D01*
X006066Y011895D02*
X007363Y011895D01*
X007442Y011974D02*
X006344Y011974D01*
X006432Y012052D02*
X007520Y012052D01*
X007599Y012131D02*
X006479Y012131D01*
X006507Y012209D02*
X007677Y012209D01*
X007756Y012288D02*
X006507Y012288D01*
X006565Y012366D02*
X007834Y012366D01*
X007913Y012445D02*
X006579Y012445D01*
X006579Y012523D02*
X007991Y012523D01*
X008070Y012602D02*
X006579Y012602D01*
X006579Y012680D02*
X008148Y012680D01*
X008227Y012759D02*
X006579Y012759D01*
X006579Y012837D02*
X008288Y012837D01*
X008256Y012916D02*
X008214Y012916D01*
X008209Y012916D02*
X006579Y012916D01*
X006579Y012994D02*
X007781Y012994D01*
X007675Y013073D02*
X006579Y013073D01*
X006579Y013151D02*
X006657Y013151D01*
X006581Y013230D02*
X006579Y013230D01*
X007081Y013151D02*
X007596Y013151D01*
X007518Y013230D02*
X007157Y013230D01*
X007190Y013308D02*
X007439Y013308D01*
X008053Y013645D02*
X008318Y013910D01*
X008245Y013984D01*
X008245Y014012D01*
X008022Y014235D01*
X007899Y014358D01*
X007943Y014373D01*
X007988Y014295D01*
X008382Y014189D01*
X008439Y014222D01*
X008463Y014198D01*
X008495Y014179D01*
X008618Y014147D01*
X008734Y014577D01*
X008789Y014562D01*
X008674Y014132D01*
X008797Y014099D01*
X008834Y014099D01*
X008867Y014108D01*
X008900Y014050D01*
X009014Y014020D01*
X008977Y014004D01*
X008882Y013909D01*
X008839Y013805D01*
X008802Y013835D01*
X008781Y013857D01*
X008764Y013864D01*
X008750Y013875D01*
X008721Y013884D01*
X008694Y013896D01*
X008676Y013897D01*
X008659Y013901D01*
X008628Y013898D01*
X008598Y013899D01*
X008581Y013892D01*
X008564Y013890D01*
X008537Y013876D01*
X008440Y013839D01*
X008404Y013825D01*
X008339Y013889D01*
X008074Y013624D01*
X008053Y013645D01*
X008108Y013701D02*
X008151Y013701D01*
X008187Y013779D02*
X008229Y013779D01*
X008265Y013858D02*
X008308Y013858D01*
X008371Y013858D02*
X008490Y013858D01*
X008440Y013839D02*
X008440Y013839D01*
X008292Y013936D02*
X008909Y013936D01*
X008861Y013858D02*
X008779Y013858D01*
X008876Y014093D02*
X008163Y014093D01*
X008085Y014172D02*
X008525Y014172D01*
X008625Y014172D02*
X008685Y014172D01*
X008706Y014250D02*
X008646Y014250D01*
X008667Y014329D02*
X008727Y014329D01*
X008748Y014407D02*
X008688Y014407D01*
X008709Y014486D02*
X008769Y014486D01*
X008782Y014564D02*
X008730Y014564D01*
X008751Y014643D02*
X008811Y014643D01*
X008832Y014721D02*
X008772Y014721D01*
X008793Y014800D02*
X008853Y014800D01*
X008874Y014878D02*
X008814Y014878D01*
X008835Y014957D02*
X008895Y014957D01*
X008916Y015035D02*
X008856Y015035D01*
X008970Y015035D02*
X009435Y015035D01*
X009340Y014957D02*
X009671Y014957D01*
X009563Y014878D02*
X009905Y014878D01*
X010113Y014800D02*
X009609Y014800D01*
X009600Y014721D02*
X010291Y014721D01*
X010469Y014643D02*
X009578Y014643D01*
X009557Y014564D02*
X010637Y014564D01*
X010778Y014486D02*
X009976Y014486D01*
X009839Y014486D02*
X009536Y014486D01*
X009515Y014407D02*
X009764Y014407D01*
X009719Y014329D02*
X009494Y014329D01*
X009512Y014250D02*
X009674Y014250D01*
X009628Y014172D02*
X009535Y014172D01*
X009562Y014093D02*
X009608Y014093D01*
X009587Y014015D02*
X009582Y014015D01*
X010112Y014407D02*
X010919Y014407D01*
X011060Y014329D02*
X010248Y014329D01*
X010384Y014250D02*
X011191Y014250D01*
X011305Y014172D02*
X010466Y014172D01*
X010487Y014093D02*
X011420Y014093D01*
X011535Y014015D02*
X010482Y014015D01*
X010572Y013936D02*
X011649Y013936D01*
X011746Y013858D02*
X011063Y013858D01*
X011199Y013779D02*
X011840Y013779D01*
X011935Y013701D02*
X011335Y013701D01*
X011471Y013622D02*
X012029Y013622D01*
X012124Y013544D02*
X011499Y013544D01*
X011499Y013465D02*
X012205Y013465D01*
X012284Y013387D02*
X011504Y013387D01*
X011539Y013308D02*
X012362Y013308D01*
X012441Y013230D02*
X011539Y013230D01*
X011539Y013151D02*
X012519Y013151D01*
X012595Y013073D02*
X011539Y013073D01*
X011539Y012994D02*
X012660Y012994D01*
X012725Y012916D02*
X011539Y012916D01*
X011539Y012837D02*
X012791Y012837D01*
X012856Y012759D02*
X011606Y012759D01*
X011639Y012680D02*
X012921Y012680D01*
X012985Y012602D02*
X011657Y012602D01*
X011657Y012523D02*
X013039Y012523D01*
X013093Y012445D02*
X011634Y012445D01*
X011596Y012366D02*
X013146Y012366D01*
X013200Y012288D02*
X011518Y012288D01*
X011120Y012288D02*
X010857Y012288D01*
X010840Y012209D02*
X013254Y012209D01*
X013308Y012131D02*
X010808Y012131D01*
X010732Y012052D02*
X010956Y012052D01*
X010778Y011974D02*
X010359Y011974D01*
X010359Y011895D02*
X010700Y011895D01*
X010637Y011817D02*
X010359Y011817D01*
X010359Y011738D02*
X010411Y011738D01*
X009879Y011738D02*
X009358Y011738D01*
X009358Y011817D02*
X009879Y011817D01*
X009879Y011895D02*
X009795Y011895D01*
X009810Y011974D02*
X009879Y011974D01*
X009813Y012052D02*
X009732Y012052D01*
X009735Y012131D02*
X009653Y012131D01*
X009623Y012131D02*
X009541Y012131D01*
X009544Y012052D02*
X009463Y012052D01*
X009466Y011974D02*
X009254Y011974D01*
X009175Y012052D02*
X009380Y012052D01*
X009302Y012131D02*
X009097Y012131D01*
X009018Y012209D02*
X009275Y012209D01*
X009296Y012288D02*
X008940Y012288D01*
X008958Y012366D02*
X009369Y012366D01*
X009418Y012366D02*
X009499Y012366D01*
X009496Y012288D02*
X009578Y012288D01*
X009575Y012209D02*
X009620Y012209D01*
X009448Y012445D02*
X009037Y012445D01*
X009115Y012523D02*
X009527Y012523D01*
X009617Y012602D02*
X009194Y012602D01*
X009272Y012680D02*
X009655Y012680D01*
X009537Y012759D02*
X009351Y012759D01*
X009358Y012837D02*
X009405Y012837D01*
X008731Y012366D02*
X008428Y012366D01*
X008350Y012288D02*
X008749Y012288D01*
X008671Y012209D02*
X008271Y012209D01*
X008193Y012131D02*
X008592Y012131D01*
X008514Y012052D02*
X008114Y012052D01*
X008036Y011974D02*
X008435Y011974D01*
X008357Y011895D02*
X007957Y011895D01*
X007879Y011817D02*
X008278Y011817D01*
X008200Y011738D02*
X007800Y011738D01*
X007722Y011660D02*
X008121Y011660D01*
X008084Y011622D02*
X008084Y011622D01*
X008043Y011581D02*
X007643Y011581D01*
X007565Y011503D02*
X007964Y011503D01*
X007887Y011426D02*
X007887Y011426D01*
X008507Y012445D02*
X008652Y012445D01*
X008335Y012994D02*
X008292Y012994D01*
X008371Y013073D02*
X008413Y013073D01*
X008449Y013151D02*
X008492Y013151D01*
X008242Y014015D02*
X009002Y014015D01*
X008155Y014250D02*
X008006Y014250D01*
X007968Y014329D02*
X007928Y014329D01*
X007894Y014800D02*
X005073Y014800D01*
X004895Y014721D02*
X007663Y014721D01*
X007353Y014643D02*
X006585Y014643D01*
X006663Y014564D02*
X007275Y014564D01*
X007196Y014486D02*
X006742Y014486D01*
X006820Y014407D02*
X007118Y014407D01*
X007039Y014329D02*
X006899Y014329D01*
X006324Y014643D02*
X004717Y014643D01*
X004991Y014407D02*
X004267Y014407D01*
X004408Y014486D02*
X005127Y014486D01*
X005167Y014486D02*
X006167Y014486D01*
X006246Y014564D02*
X004549Y014564D01*
X004719Y014250D02*
X003995Y014250D01*
X003881Y014172D02*
X004582Y014172D01*
X004446Y014093D02*
X003766Y014093D01*
X003651Y014015D02*
X004310Y014015D01*
X004174Y013936D02*
X003537Y013936D01*
X003440Y013858D02*
X004038Y013858D01*
X003902Y013779D02*
X003346Y013779D01*
X003251Y013701D02*
X003758Y013701D01*
X003490Y013622D02*
X003157Y013622D01*
X003062Y013544D02*
X003411Y013544D01*
X003333Y013465D02*
X002981Y013465D01*
X002902Y013387D02*
X003254Y013387D01*
X003208Y013308D02*
X002824Y013308D01*
X002745Y013230D02*
X003208Y013230D01*
X003265Y013151D02*
X002667Y013151D01*
X002591Y013073D02*
X002940Y013073D01*
X002862Y012994D02*
X002526Y012994D01*
X002461Y012916D02*
X002783Y012916D01*
X002705Y012837D02*
X002396Y012837D01*
X002330Y012759D02*
X002680Y012759D01*
X002680Y012680D02*
X002265Y012680D01*
X002201Y012602D02*
X002757Y012602D01*
X002829Y012523D02*
X002147Y012523D01*
X002094Y012445D02*
X002828Y012445D01*
X002829Y012366D02*
X002040Y012366D01*
X001986Y012288D02*
X002829Y012288D01*
X002761Y012209D02*
X001932Y012209D01*
X001878Y012131D02*
X002683Y012131D01*
X002613Y012052D02*
X001830Y012052D01*
X001786Y011974D02*
X002581Y011974D01*
X002548Y011895D02*
X001743Y011895D01*
X001699Y011817D02*
X002539Y011817D01*
X002539Y011738D02*
X001655Y011738D01*
X001612Y011660D02*
X002540Y011660D01*
X002573Y011581D02*
X001568Y011581D01*
X001530Y011503D02*
X002605Y011503D01*
X002663Y011424D02*
X001495Y011424D01*
X001460Y011346D02*
X002741Y011346D01*
X002781Y011189D02*
X001391Y011189D01*
X001426Y011267D02*
X002892Y011267D01*
X002690Y011110D02*
X001356Y011110D01*
X001322Y011032D02*
X002631Y011032D01*
X002593Y010953D02*
X001290Y010953D01*
X001264Y010875D02*
X002570Y010875D01*
X002561Y010718D02*
X001211Y010718D01*
X001237Y010796D02*
X003029Y010796D01*
X003109Y010796D02*
X003799Y010796D01*
X003799Y010875D02*
X003568Y010875D01*
X003579Y010808D02*
X003579Y010808D01*
X003577Y010718D02*
X003723Y010718D01*
X003645Y010639D02*
X003564Y010639D01*
X003566Y010561D02*
X003536Y010561D01*
X003545Y010953D02*
X003799Y010953D01*
X003799Y011032D02*
X003507Y011032D01*
X003448Y011110D02*
X003799Y011110D01*
X003799Y011189D02*
X003357Y011189D01*
X003246Y011267D02*
X003799Y011267D01*
X003799Y011346D02*
X003397Y011346D01*
X003475Y011424D02*
X003799Y011424D01*
X003799Y011503D02*
X003533Y011503D01*
X003565Y011581D02*
X003799Y011581D01*
X003799Y011660D02*
X003598Y011660D01*
X003599Y011738D02*
X003799Y011738D01*
X003799Y011817D02*
X003599Y011817D01*
X003590Y011895D02*
X003799Y011895D01*
X003799Y011974D02*
X003557Y011974D01*
X003525Y012052D02*
X003774Y012052D01*
X003724Y012131D02*
X003455Y012131D01*
X003377Y012209D02*
X003675Y012209D01*
X003600Y012288D02*
X003309Y012288D01*
X003309Y012366D02*
X003529Y012366D01*
X003529Y012445D02*
X003309Y012445D01*
X003345Y012523D02*
X003560Y012523D01*
X003639Y012602D02*
X003423Y012602D01*
X003473Y012680D02*
X003717Y012680D01*
X003796Y012759D02*
X003473Y012759D01*
X003420Y012837D02*
X004382Y012837D01*
X004242Y012916D02*
X003737Y012916D01*
X003816Y012994D02*
X004175Y012994D01*
X004142Y013073D02*
X003894Y013073D01*
X003973Y013151D02*
X004131Y013151D01*
X004131Y013230D02*
X004002Y013230D01*
X004002Y013308D02*
X004161Y013308D01*
X004209Y013387D02*
X004062Y013387D01*
X004198Y013465D02*
X004303Y013465D01*
X004334Y013544D02*
X004481Y013544D01*
X004470Y013622D02*
X004496Y013622D01*
X004556Y012837D02*
X004580Y012837D01*
X004587Y012759D02*
X004027Y012759D01*
X004105Y012680D02*
X004666Y012680D01*
X004744Y012602D02*
X004184Y012602D01*
X004262Y012523D02*
X004823Y012523D01*
X004901Y012445D02*
X004322Y012445D01*
X004333Y012366D02*
X004980Y012366D01*
X004998Y012288D02*
X004389Y012288D01*
X004426Y012209D02*
X004920Y012209D01*
X004841Y012131D02*
X004439Y012131D01*
X004439Y012052D02*
X004763Y012052D01*
X004684Y011974D02*
X004439Y011974D01*
X004439Y011895D02*
X004606Y011895D01*
X004580Y011817D02*
X004439Y011817D01*
X004439Y011738D02*
X004580Y011738D01*
X005679Y010826D02*
X005864Y011011D01*
X005885Y010990D01*
X005679Y010784D01*
X005679Y010826D01*
X005679Y010796D02*
X005691Y010796D01*
X005728Y010875D02*
X005770Y010875D01*
X005806Y010953D02*
X005848Y010953D01*
X005989Y011974D02*
X005994Y011974D01*
X006759Y010167D02*
X006759Y010002D01*
X006627Y010002D01*
X006533Y009908D01*
X006533Y009579D01*
X006009Y009054D01*
X006009Y008817D01*
X006005Y008821D01*
X005917Y008858D01*
X005859Y008858D01*
X005859Y009214D01*
X005889Y009244D01*
X005889Y009617D01*
X006059Y009787D01*
X006100Y009746D01*
X006141Y009787D01*
X006317Y009611D01*
X006435Y009728D01*
X006453Y009760D01*
X006463Y009796D01*
X006463Y009833D01*
X006453Y009868D01*
X006435Y009900D01*
X006407Y009928D01*
X006521Y009928D01*
X006759Y010167D01*
X006759Y010090D02*
X006682Y010090D01*
X006759Y010011D02*
X006603Y010011D01*
X006558Y009933D02*
X006525Y009933D01*
X006533Y009854D02*
X006457Y009854D01*
X006457Y009776D02*
X006533Y009776D01*
X006533Y009697D02*
X006403Y009697D01*
X006325Y009619D02*
X006533Y009619D01*
X006495Y009540D02*
X006246Y009540D01*
X006276Y009570D02*
X006100Y009746D01*
X005896Y009542D01*
X005986Y009452D01*
X006018Y009433D01*
X006054Y009424D01*
X006091Y009424D01*
X006126Y009433D01*
X006158Y009452D01*
X006276Y009570D01*
X006309Y009619D02*
X006227Y009619D01*
X006230Y009697D02*
X006149Y009697D01*
X006152Y009776D02*
X006130Y009776D01*
X006070Y009776D02*
X006048Y009776D01*
X006051Y009697D02*
X005970Y009697D01*
X005973Y009619D02*
X005891Y009619D01*
X005889Y009540D02*
X005898Y009540D01*
X005889Y009462D02*
X005976Y009462D01*
X005889Y009383D02*
X006338Y009383D01*
X006416Y009462D02*
X006168Y009462D01*
X006259Y009305D02*
X005889Y009305D01*
X005872Y009226D02*
X006181Y009226D01*
X006102Y009148D02*
X005859Y009148D01*
X005859Y009069D02*
X006024Y009069D01*
X006009Y008991D02*
X005859Y008991D01*
X005859Y008912D02*
X006009Y008912D01*
X006009Y008834D02*
X005975Y008834D01*
X006539Y008991D02*
X008596Y008991D01*
X008518Y008912D02*
X007492Y008912D01*
X007153Y009540D02*
X008308Y009540D01*
X008378Y009540D02*
X008832Y009540D01*
X008878Y009462D02*
X008633Y009462D01*
X008633Y009507D02*
X008378Y009507D01*
X008378Y009102D01*
X008511Y009102D01*
X008547Y009111D01*
X008579Y009130D01*
X008605Y009156D01*
X008623Y009187D01*
X008633Y009223D01*
X008633Y009507D01*
X008633Y009619D02*
X008771Y009619D01*
X008692Y009697D02*
X008633Y009697D01*
X008378Y009697D02*
X008308Y009697D01*
X008308Y009619D02*
X008378Y009619D01*
X008378Y009776D02*
X008308Y009776D01*
X008308Y009854D02*
X008378Y009854D01*
X008378Y009933D02*
X008308Y009933D01*
X008308Y009462D02*
X008378Y009462D01*
X008378Y009383D02*
X008308Y009383D01*
X008308Y009305D02*
X008378Y009305D01*
X008378Y009226D02*
X008308Y009226D01*
X008308Y009148D02*
X008378Y009148D01*
X008597Y009148D02*
X008694Y009148D01*
X008693Y009069D02*
X006618Y009069D01*
X007179Y009933D02*
X007413Y009933D01*
X007335Y010011D02*
X007179Y010011D01*
X007179Y010090D02*
X007256Y010090D01*
X008633Y009383D02*
X009880Y009383D01*
X009781Y009305D02*
X008633Y009305D01*
X008633Y009226D02*
X008760Y009226D01*
X009578Y009226D02*
X009765Y009226D01*
X009765Y009148D02*
X009644Y009148D01*
X009640Y009462D02*
X009698Y009462D01*
X009698Y009540D02*
X009640Y009540D01*
X009640Y009619D02*
X009698Y009619D01*
X010531Y008755D02*
X011404Y008755D01*
X011326Y008677D02*
X010499Y008677D01*
X010478Y008598D02*
X011247Y008598D01*
X011169Y008520D02*
X010472Y008520D01*
X010393Y008441D02*
X011090Y008441D01*
X011012Y008363D02*
X010393Y008363D01*
X010393Y008284D02*
X010933Y008284D01*
X010912Y008263D02*
X010820Y008225D01*
X010719Y008124D01*
X010665Y007993D01*
X010665Y007850D01*
X010719Y007719D01*
X010820Y007618D01*
X010952Y007563D01*
X011094Y007563D01*
X011226Y007618D01*
X011327Y007719D01*
X011365Y007811D01*
X011986Y008432D01*
X012180Y008432D01*
X012274Y008526D01*
X012274Y009289D01*
X012201Y009361D01*
X012198Y009379D01*
X012244Y009424D01*
X012244Y010108D01*
X012150Y010202D01*
X011388Y010202D01*
X011294Y010108D01*
X011294Y009424D01*
X011388Y009331D01*
X011549Y009331D01*
X011560Y009266D01*
X011560Y008911D01*
X010912Y008263D01*
X010801Y008206D02*
X010393Y008206D01*
X010393Y008127D02*
X010722Y008127D01*
X010688Y008049D02*
X010419Y008049D01*
X010452Y007970D02*
X010665Y007970D01*
X010665Y007892D02*
X010471Y007892D01*
X010471Y007813D02*
X010680Y007813D01*
X010713Y007735D02*
X010452Y007735D01*
X010420Y007656D02*
X010782Y007656D01*
X010918Y007578D02*
X010346Y007578D01*
X010198Y007499D02*
X012650Y007499D01*
X012566Y007421D02*
X009624Y007421D01*
X009624Y007499D02*
X010028Y007499D01*
X009881Y007578D02*
X009624Y007578D01*
X009583Y007342D02*
X009846Y007342D01*
X009209Y007342D02*
X009129Y007342D01*
X009129Y007421D02*
X009209Y007421D01*
X009209Y007499D02*
X009129Y007499D01*
X009129Y007578D02*
X009209Y007578D01*
X009209Y007656D02*
X009129Y007656D01*
X009129Y007892D02*
X009209Y007892D01*
X009209Y007970D02*
X009129Y007970D01*
X009129Y008049D02*
X009209Y008049D01*
X009209Y008127D02*
X009129Y008127D01*
X008675Y008338D02*
X008675Y008338D01*
X006595Y007970D02*
X006535Y007970D01*
X005322Y007264D02*
X005262Y007264D01*
X005309Y007185D02*
X005215Y007091D01*
X005309Y007185D02*
X005362Y007185D01*
X005215Y006950D02*
X004994Y006950D01*
X005028Y006714D02*
X005215Y006714D01*
X005215Y006793D02*
X004206Y006793D01*
X004206Y006871D02*
X005215Y006871D01*
X005223Y006636D02*
X005042Y006636D01*
X005042Y006557D02*
X005302Y006557D01*
X005529Y006400D02*
X005042Y006400D01*
X005042Y006322D02*
X005529Y006322D01*
X005529Y006479D02*
X004764Y006479D01*
X004764Y006557D02*
X004687Y006557D01*
X004687Y006636D02*
X004764Y006636D01*
X004764Y006714D02*
X004687Y006714D01*
X004423Y006714D02*
X004387Y006714D01*
X004456Y006950D02*
X004206Y006950D01*
X004206Y007028D02*
X004388Y007028D01*
X004388Y007107D02*
X004206Y007107D01*
X004172Y007185D02*
X004388Y007185D01*
X004388Y007264D02*
X004206Y007264D01*
X004206Y007342D02*
X004388Y007342D01*
X004388Y007421D02*
X004206Y007421D01*
X004206Y007499D02*
X004422Y007499D01*
X004420Y007578D02*
X004206Y007578D01*
X004178Y007656D02*
X004408Y007656D01*
X004408Y007735D02*
X004083Y007735D01*
X004162Y007813D02*
X004687Y007813D01*
X004687Y007892D02*
X004764Y007892D01*
X004764Y007970D02*
X004687Y007970D01*
X004687Y008049D02*
X004764Y008049D01*
X004909Y008127D02*
X004557Y008127D01*
X004557Y008206D02*
X004909Y008206D01*
X004764Y009132D02*
X004687Y009132D01*
X004687Y009391D01*
X004530Y009391D01*
X004494Y009381D01*
X004462Y009363D01*
X004436Y009337D01*
X004418Y009305D01*
X004408Y009269D01*
X004408Y009225D01*
X004179Y009454D01*
X004179Y010081D01*
X004203Y010105D01*
X004227Y010081D01*
X004352Y010029D01*
X004388Y010029D01*
X004388Y009618D01*
X004482Y009524D01*
X004909Y009524D01*
X004909Y009391D01*
X004764Y009391D01*
X004764Y009132D01*
X004764Y009148D02*
X004687Y009148D01*
X004687Y009226D02*
X004764Y009226D01*
X004764Y009305D02*
X004687Y009305D01*
X004687Y009383D02*
X004764Y009383D01*
X004909Y009462D02*
X004179Y009462D01*
X004179Y009540D02*
X004466Y009540D01*
X004388Y009619D02*
X004179Y009619D01*
X004179Y009697D02*
X004388Y009697D01*
X004388Y009776D02*
X004179Y009776D01*
X004179Y009854D02*
X004388Y009854D01*
X004388Y009933D02*
X004179Y009933D01*
X004179Y010011D02*
X004388Y010011D01*
X004218Y010090D02*
X004188Y010090D01*
X004250Y009383D02*
X004500Y009383D01*
X004418Y009305D02*
X004329Y009305D01*
X004407Y009226D02*
X004408Y009226D01*
X002841Y010247D02*
X002211Y010247D01*
X002244Y010168D02*
X002720Y010168D01*
X002642Y010090D02*
X002257Y010090D01*
X002257Y010011D02*
X002596Y010011D01*
X002564Y009933D02*
X002229Y009933D01*
X002262Y009854D02*
X002539Y009854D01*
X002539Y009776D02*
X002315Y009776D01*
X002330Y009697D02*
X002539Y009697D01*
X002515Y009619D02*
X002315Y009619D01*
X002315Y009540D02*
X002421Y009540D01*
X002067Y008755D02*
X000853Y008755D01*
X000849Y008677D02*
X001989Y008677D01*
X001910Y008598D02*
X000846Y008598D01*
X000844Y008520D02*
X001867Y008520D01*
X001855Y008441D02*
X000848Y008441D01*
X000851Y008363D02*
X001329Y008363D01*
X001250Y008284D02*
X000855Y008284D01*
X000859Y008206D02*
X001246Y008206D01*
X001246Y008127D02*
X000862Y008127D01*
X000866Y008049D02*
X001246Y008049D01*
X001246Y007970D02*
X000869Y007970D01*
X000876Y007892D02*
X001246Y007892D01*
X001246Y007813D02*
X000887Y007813D01*
X000898Y007735D02*
X001246Y007735D01*
X001264Y007656D02*
X000908Y007656D01*
X000919Y007578D02*
X001349Y007578D01*
X001349Y007499D02*
X000930Y007499D01*
X000941Y007421D02*
X001349Y007421D01*
X001349Y007342D02*
X000952Y007342D01*
X000967Y007264D02*
X001349Y007264D01*
X001349Y007185D02*
X000985Y007185D01*
X001004Y007107D02*
X001369Y007107D01*
X001447Y007028D02*
X001022Y007028D01*
X001041Y006950D02*
X001526Y006950D01*
X001604Y006871D02*
X001059Y006871D01*
X001078Y006793D02*
X001515Y006793D01*
X001463Y006714D02*
X001096Y006714D01*
X001120Y006636D02*
X001431Y006636D01*
X001431Y006557D02*
X001147Y006557D01*
X001173Y006479D02*
X001440Y006479D01*
X001472Y006400D02*
X001199Y006400D01*
X001226Y006322D02*
X001536Y006322D01*
X001668Y006243D02*
X001252Y006243D01*
X001278Y006165D02*
X001911Y006165D01*
X001989Y006086D02*
X001306Y006086D01*
X001341Y006008D02*
X002068Y006008D01*
X002146Y005929D02*
X001376Y005929D01*
X001410Y005851D02*
X002225Y005851D01*
X002303Y005772D02*
X001445Y005772D01*
X001480Y005694D02*
X002382Y005694D01*
X002460Y005615D02*
X001514Y005615D01*
X001549Y005537D02*
X003239Y005537D01*
X003249Y005458D02*
X001592Y005458D01*
X001636Y005380D02*
X003249Y005380D01*
X003249Y005301D02*
X001680Y005301D01*
X001723Y005223D02*
X003249Y005223D01*
X003281Y005144D02*
X001767Y005144D01*
X001811Y005066D02*
X003281Y005066D01*
X003281Y004987D02*
X001855Y004987D01*
X001909Y004909D02*
X003298Y004909D01*
X003330Y004830D02*
X001962Y004830D01*
X002016Y004752D02*
X003406Y004752D01*
X003852Y004673D02*
X002070Y004673D01*
X002124Y004595D02*
X003931Y004595D01*
X004009Y004516D02*
X002177Y004516D01*
X002236Y004438D02*
X004088Y004438D01*
X004149Y004376D02*
X004149Y004376D01*
X004166Y004359D02*
X002302Y004359D01*
X002367Y004281D02*
X004245Y004281D01*
X004447Y004202D02*
X002432Y004202D01*
X002497Y004124D02*
X004489Y004124D01*
X004809Y003653D02*
X004889Y003653D01*
X004889Y003701D02*
X004889Y003326D01*
X004809Y003326D01*
X004809Y003246D01*
X004433Y003246D01*
X004433Y002992D01*
X004443Y002956D01*
X004461Y002924D01*
X004487Y002898D01*
X004519Y002879D01*
X004555Y002870D01*
X004809Y002870D01*
X004809Y003246D01*
X004889Y003246D01*
X004889Y003326D01*
X005265Y003326D01*
X005265Y003580D01*
X005255Y003615D01*
X005237Y003647D01*
X005211Y003673D01*
X005179Y003692D01*
X005143Y003701D01*
X004889Y003701D01*
X004889Y003574D02*
X004809Y003574D01*
X004809Y003496D02*
X004889Y003496D01*
X004889Y003417D02*
X004809Y003417D01*
X004809Y003339D02*
X004889Y003339D01*
X004889Y003260D02*
X005909Y003260D01*
X005909Y003182D02*
X005265Y003182D01*
X005265Y003246D02*
X004889Y003246D01*
X004889Y002870D01*
X005143Y002870D01*
X005179Y002879D01*
X005211Y002898D01*
X005237Y002924D01*
X005255Y002956D01*
X005265Y002992D01*
X005265Y003246D01*
X005265Y003339D02*
X005909Y003339D01*
X005909Y003417D02*
X005265Y003417D01*
X005265Y003496D02*
X005909Y003496D01*
X005909Y003574D02*
X005265Y003574D01*
X005231Y003653D02*
X005935Y003653D01*
X005749Y004124D02*
X006659Y004124D01*
X006659Y004202D02*
X005791Y004202D01*
X005921Y004281D02*
X006659Y004281D01*
X006664Y004359D02*
X005984Y004359D01*
X006009Y004438D02*
X006175Y004438D01*
X006147Y004516D02*
X006009Y004516D01*
X006009Y004595D02*
X006103Y004595D01*
X006024Y004673D02*
X006009Y004673D01*
X006659Y004045D02*
X002562Y004045D01*
X002632Y003967D02*
X006659Y003967D01*
X006659Y003888D02*
X002711Y003888D01*
X002789Y003810D02*
X006730Y003810D01*
X005909Y003103D02*
X005265Y003103D01*
X005265Y003025D02*
X005909Y003025D01*
X005909Y002946D02*
X005249Y002946D01*
X004889Y002946D02*
X004809Y002946D01*
X004809Y003025D02*
X004889Y003025D01*
X004889Y003103D02*
X004809Y003103D01*
X004809Y003182D02*
X004889Y003182D01*
X004809Y003260D02*
X003399Y003260D01*
X003493Y003182D02*
X004433Y003182D01*
X004433Y003103D02*
X003601Y003103D01*
X003716Y003025D02*
X004433Y003025D01*
X004449Y002946D02*
X003830Y002946D01*
X003945Y002868D02*
X005986Y002868D01*
X006779Y001847D02*
X008407Y001847D01*
X010275Y002711D02*
X010981Y002711D01*
X009816Y005223D02*
X009779Y005223D01*
X009816Y005301D02*
X009701Y005301D01*
X009622Y005380D02*
X009816Y005380D01*
X009816Y005458D02*
X009544Y005458D01*
X009541Y005537D02*
X009816Y005537D01*
X009816Y005615D02*
X009541Y005615D01*
X009541Y005694D02*
X009816Y005694D01*
X009816Y005772D02*
X009539Y005772D01*
X009526Y005851D02*
X009816Y005851D01*
X009816Y005929D02*
X009541Y005929D01*
X010979Y006165D02*
X011059Y006165D01*
X011059Y006243D02*
X010979Y006243D01*
X010979Y006322D02*
X011059Y006322D01*
X011059Y006400D02*
X010979Y006400D01*
X010979Y006479D02*
X011059Y006479D01*
X011059Y006557D02*
X010979Y006557D01*
X010979Y006636D02*
X011059Y006636D01*
X011059Y006714D02*
X010979Y006714D01*
X010979Y006793D02*
X011059Y006793D01*
X011059Y006871D02*
X010979Y006871D01*
X010979Y006950D02*
X011059Y006950D01*
X011059Y007028D02*
X010979Y007028D01*
X010979Y007107D02*
X011059Y007107D01*
X011059Y007185D02*
X010979Y007185D01*
X010979Y007264D02*
X011059Y007264D01*
X011059Y007342D02*
X010979Y007342D01*
X011128Y007578D02*
X012509Y007578D01*
X012431Y007656D02*
X011264Y007656D01*
X011333Y007735D02*
X012377Y007735D01*
X012345Y007813D02*
X011367Y007813D01*
X011446Y007892D02*
X012314Y007892D01*
X012314Y007970D02*
X011524Y007970D01*
X011603Y008049D02*
X012314Y008049D01*
X012326Y008127D02*
X011681Y008127D01*
X011760Y008206D02*
X012359Y008206D01*
X012391Y008284D02*
X011838Y008284D01*
X011917Y008363D02*
X012465Y008363D01*
X012543Y008441D02*
X012189Y008441D01*
X012267Y008520D02*
X012601Y008520D01*
X012489Y008598D02*
X012274Y008598D01*
X012274Y008677D02*
X012410Y008677D01*
X012369Y008755D02*
X012274Y008755D01*
X012274Y008834D02*
X012336Y008834D01*
X012314Y008912D02*
X012274Y008912D01*
X012274Y008991D02*
X012314Y008991D01*
X012314Y009069D02*
X012274Y009069D01*
X012274Y009148D02*
X012335Y009148D01*
X012367Y009226D02*
X012274Y009226D01*
X012257Y009305D02*
X012407Y009305D01*
X012485Y009383D02*
X012203Y009383D01*
X012244Y009462D02*
X012591Y009462D01*
X012551Y009540D02*
X012244Y009540D01*
X012244Y009619D02*
X012468Y009619D01*
X012393Y009697D02*
X012244Y009697D01*
X012244Y009776D02*
X012360Y009776D01*
X012328Y009854D02*
X012244Y009854D01*
X012244Y009933D02*
X012314Y009933D01*
X012314Y010011D02*
X012244Y010011D01*
X012244Y010090D02*
X012314Y010090D01*
X012343Y010168D02*
X012184Y010168D01*
X012376Y010247D02*
X010986Y010247D01*
X010986Y010325D02*
X012427Y010325D01*
X012506Y010404D02*
X010986Y010404D01*
X010986Y010482D02*
X011367Y010482D01*
X011368Y010481D02*
X011400Y010463D01*
X011436Y010453D01*
X011729Y010453D01*
X011729Y010829D01*
X011314Y010829D01*
X011314Y010575D01*
X011324Y010539D01*
X011342Y010507D01*
X011368Y010481D01*
X011318Y010561D02*
X010972Y010561D01*
X010905Y010639D02*
X011314Y010639D01*
X011314Y010718D02*
X010961Y010718D01*
X010966Y010796D02*
X011314Y010796D01*
X011314Y010909D02*
X011729Y010909D01*
X011729Y011284D01*
X011436Y011284D01*
X011400Y011275D01*
X011368Y011256D01*
X011342Y011230D01*
X011324Y011198D01*
X011314Y011163D01*
X011314Y010909D01*
X011314Y010953D02*
X010966Y010953D01*
X010966Y011032D02*
X011314Y011032D01*
X011314Y011110D02*
X010961Y011110D01*
X010902Y011189D02*
X011321Y011189D01*
X011387Y011267D02*
X010897Y011267D01*
X010935Y011346D02*
X012448Y011346D01*
X012384Y011267D02*
X012151Y011267D01*
X012138Y011275D02*
X012170Y011256D01*
X012196Y011230D01*
X012214Y011198D01*
X012224Y011163D01*
X012224Y010909D01*
X011809Y010909D01*
X011729Y010909D01*
X011729Y010829D01*
X011809Y010829D01*
X011809Y010909D01*
X011809Y011284D01*
X012102Y011284D01*
X012138Y011275D01*
X012217Y011189D02*
X012352Y011189D01*
X012319Y011110D02*
X012224Y011110D01*
X012224Y011032D02*
X012314Y011032D01*
X012314Y010953D02*
X012224Y010953D01*
X012319Y010875D02*
X011809Y010875D01*
X011809Y010829D02*
X012224Y010829D01*
X012224Y010575D01*
X012214Y010539D01*
X012196Y010507D01*
X012170Y010481D01*
X012138Y010463D01*
X012102Y010453D01*
X011809Y010453D01*
X011809Y010829D01*
X011809Y010796D02*
X011729Y010796D01*
X011729Y010718D02*
X011809Y010718D01*
X011809Y010639D02*
X011729Y010639D01*
X011729Y010561D02*
X011809Y010561D01*
X011809Y010482D02*
X011729Y010482D01*
X011729Y010875D02*
X010708Y010875D01*
X010957Y011424D02*
X012526Y011424D01*
X012487Y011503D02*
X012001Y011503D01*
X011809Y011267D02*
X011729Y011267D01*
X011729Y011189D02*
X011809Y011189D01*
X011809Y011110D02*
X011729Y011110D01*
X011729Y011032D02*
X011809Y011032D01*
X011809Y010953D02*
X011729Y010953D01*
X012224Y010796D02*
X012352Y010796D01*
X012384Y010718D02*
X012224Y010718D01*
X012224Y010639D02*
X012448Y010639D01*
X012526Y010561D02*
X012220Y010561D01*
X012171Y010482D02*
X012641Y010482D01*
X013047Y010482D02*
X014054Y010482D01*
X014080Y010404D02*
X013183Y010404D01*
X013261Y010325D02*
X014100Y010325D01*
X014119Y010247D02*
X013312Y010247D01*
X013345Y010168D02*
X014137Y010168D01*
X014156Y010090D02*
X013374Y010090D01*
X013374Y010011D02*
X014174Y010011D01*
X014193Y009933D02*
X013374Y009933D01*
X013360Y009854D02*
X014211Y009854D01*
X014229Y009776D02*
X013328Y009776D01*
X013295Y009697D02*
X014240Y009697D01*
X014251Y009619D02*
X013220Y009619D01*
X013137Y009540D02*
X014262Y009540D01*
X014273Y009462D02*
X013097Y009462D01*
X013203Y009383D02*
X014284Y009383D01*
X014295Y009305D02*
X013282Y009305D01*
X013321Y009226D02*
X014306Y009226D01*
X014315Y009148D02*
X013353Y009148D01*
X013374Y009069D02*
X014319Y009069D01*
X014322Y008991D02*
X013374Y008991D01*
X013374Y008912D02*
X014326Y008912D01*
X014330Y008834D02*
X013352Y008834D01*
X013319Y008755D02*
X014333Y008755D01*
X014337Y008677D02*
X013278Y008677D01*
X013199Y008598D02*
X014340Y008598D01*
X014342Y008520D02*
X013087Y008520D01*
X013145Y008441D02*
X014338Y008441D01*
X014335Y008363D02*
X013224Y008363D01*
X013297Y008284D02*
X014331Y008284D01*
X014328Y008206D02*
X013329Y008206D01*
X013362Y008127D02*
X014324Y008127D01*
X014320Y008049D02*
X013374Y008049D01*
X013374Y007970D02*
X014317Y007970D01*
X014310Y007892D02*
X013374Y007892D01*
X013343Y007813D02*
X014300Y007813D01*
X014289Y007735D02*
X013311Y007735D01*
X013257Y007656D02*
X014278Y007656D01*
X014267Y007578D02*
X013179Y007578D01*
X013038Y007499D02*
X014256Y007499D01*
X014245Y007421D02*
X013123Y007421D01*
X013216Y007342D02*
X014234Y007342D01*
X014219Y007264D02*
X013277Y007264D01*
X013318Y007185D02*
X014201Y007185D01*
X014182Y007107D02*
X013342Y007107D01*
X013354Y007033D02*
X013354Y007033D01*
X013354Y006950D02*
X014145Y006950D01*
X014164Y007028D02*
X012884Y007028D01*
X012472Y007342D02*
X012192Y007342D01*
X012222Y007264D02*
X012411Y007264D01*
X012370Y007185D02*
X012222Y007185D01*
X012222Y007107D02*
X012346Y007107D01*
X012222Y006400D02*
X012537Y006400D01*
X012453Y006322D02*
X012222Y006322D01*
X012222Y006243D02*
X012399Y006243D01*
X012364Y006165D02*
X012222Y006165D01*
X012222Y006086D02*
X012342Y006086D01*
X012338Y005929D02*
X012222Y005929D01*
X012222Y005851D02*
X012354Y005851D01*
X012384Y005772D02*
X012222Y005772D01*
X012222Y005694D02*
X012431Y005694D01*
X012500Y005615D02*
X012222Y005615D01*
X012222Y005537D02*
X012616Y005537D01*
X013188Y005615D02*
X013672Y005615D01*
X013706Y005694D02*
X013257Y005694D01*
X013304Y005772D02*
X013741Y005772D01*
X013776Y005851D02*
X013334Y005851D01*
X013350Y005929D02*
X013810Y005929D01*
X013354Y006033D02*
X013354Y006033D01*
X013208Y006636D02*
X014066Y006636D01*
X014090Y006714D02*
X013272Y006714D01*
X013315Y006793D02*
X014108Y006793D01*
X014127Y006871D02*
X013341Y006871D01*
X011483Y008834D02*
X010882Y008834D01*
X010956Y008912D02*
X011560Y008912D01*
X011560Y008991D02*
X010956Y008991D01*
X010956Y009069D02*
X011560Y009069D01*
X011560Y009148D02*
X010956Y009148D01*
X010956Y009226D02*
X011560Y009226D01*
X011553Y009305D02*
X010956Y009305D01*
X010920Y009383D02*
X011335Y009383D01*
X011294Y009462D02*
X010956Y009462D01*
X010956Y009540D02*
X011294Y009540D01*
X011294Y009619D02*
X010956Y009619D01*
X010956Y009697D02*
X011294Y009697D01*
X011294Y009776D02*
X010956Y009776D01*
X010930Y009854D02*
X011294Y009854D01*
X011294Y009933D02*
X010917Y009933D01*
X010916Y010011D02*
X011294Y010011D01*
X011294Y010090D02*
X010978Y010090D01*
X010986Y010168D02*
X011354Y010168D01*
X009879Y011581D02*
X009202Y011581D01*
X009281Y011660D02*
X009879Y011660D01*
X009537Y011895D02*
X009332Y011895D01*
X010879Y012366D02*
X011042Y012366D01*
X011004Y012445D02*
X010957Y012445D01*
X011982Y012052D02*
X013356Y012052D01*
X013400Y011974D02*
X012610Y011974D01*
X012688Y011895D02*
X013443Y011895D01*
X013487Y011817D02*
X012767Y011817D01*
X012845Y011738D02*
X013531Y011738D01*
X013575Y011660D02*
X012924Y011660D01*
X013002Y011581D02*
X013618Y011581D01*
X013656Y011503D02*
X013054Y011503D01*
X013162Y011424D02*
X013691Y011424D01*
X013726Y011346D02*
X013240Y011346D01*
X013304Y011267D02*
X013760Y011267D01*
X013795Y011189D02*
X013336Y011189D01*
X013369Y011110D02*
X013830Y011110D01*
X013864Y011032D02*
X013374Y011032D01*
X013374Y010953D02*
X013896Y010953D01*
X013923Y010875D02*
X013369Y010875D01*
X013336Y010796D02*
X013949Y010796D01*
X013975Y010718D02*
X013304Y010718D01*
X013240Y010639D02*
X014001Y010639D01*
X014028Y010561D02*
X013162Y010561D01*
X010720Y013701D02*
X010710Y013701D01*
X010766Y013779D02*
X010639Y013779D01*
X010639Y013858D02*
X010811Y013858D01*
X009101Y015114D02*
X008656Y015114D01*
X008722Y015192D02*
X008461Y015192D01*
X008143Y015192D02*
X006464Y015192D01*
X006085Y015114D02*
X008110Y015114D01*
X008089Y015035D02*
X005751Y015035D01*
X005515Y014957D02*
X008068Y014957D01*
X008047Y014878D02*
X005281Y014878D01*
X004855Y014329D02*
X004126Y014329D01*
X003344Y013073D02*
X003184Y013073D01*
X003263Y012994D02*
X003422Y012994D01*
X003501Y012916D02*
X003341Y012916D01*
X002575Y010639D02*
X001185Y010639D01*
X001158Y010561D02*
X002602Y010561D01*
X002646Y010482D02*
X001132Y010482D01*
X001106Y010404D02*
X001846Y010404D01*
X001992Y010404D02*
X002712Y010404D01*
X002814Y010325D02*
X002140Y010325D01*
X001698Y010325D02*
X001086Y010325D01*
X001067Y010247D02*
X001627Y010247D01*
X001594Y010168D02*
X001049Y010168D01*
X001030Y010090D02*
X001581Y010090D01*
X001443Y010011D02*
X001012Y010011D01*
X000993Y009933D02*
X001355Y009933D01*
X001309Y009854D02*
X000975Y009854D01*
X000957Y009776D02*
X001281Y009776D01*
X001281Y009697D02*
X000946Y009697D01*
X000935Y009619D02*
X001294Y009619D01*
X001325Y009540D02*
X000924Y009540D01*
X000913Y009462D02*
X001247Y009462D01*
X001246Y009383D02*
X000902Y009383D01*
X000891Y009305D02*
X001246Y009305D01*
X001246Y009226D02*
X000880Y009226D01*
X000871Y009148D02*
X001246Y009148D01*
X001246Y009069D02*
X000867Y009069D01*
X000864Y008991D02*
X001246Y008991D01*
X001246Y008912D02*
X000860Y008912D01*
X000857Y008834D02*
X001268Y008834D01*
X001758Y008363D02*
X001855Y008363D01*
X005009Y006243D02*
X005229Y006243D01*
X005156Y006165D02*
X005082Y006165D01*
X005082Y006086D02*
X005156Y006086D01*
X005156Y006008D02*
X005082Y006008D01*
X005082Y005929D02*
X005156Y005929D01*
X005156Y005851D02*
X005082Y005851D01*
X005082Y005772D02*
X005156Y005772D01*
X005156Y005694D02*
X005082Y005694D01*
X005082Y005615D02*
X005156Y005615D01*
X005184Y005537D02*
X005054Y005537D01*
X005082Y005458D02*
X005156Y005458D01*
X005156Y005380D02*
X005082Y005380D01*
X005082Y005301D02*
X005156Y005301D01*
X005156Y005223D02*
X005082Y005223D01*
X005082Y005144D02*
X005156Y005144D01*
X005156Y005066D02*
X005082Y005066D01*
X005082Y004987D02*
X005156Y004987D01*
X005156Y004909D02*
X005082Y004909D01*
X005047Y004830D02*
X005191Y004830D01*
X005156Y004752D02*
X005082Y004752D01*
X005082Y004673D02*
X005156Y004673D01*
X005156Y004595D02*
X005082Y004595D01*
X005082Y004516D02*
X005156Y004516D01*
X005156Y004438D02*
X005082Y004438D01*
X005082Y004359D02*
X005156Y004359D01*
X005156Y004281D02*
X005082Y004281D01*
X005082Y004202D02*
X005156Y004202D01*
X005197Y004124D02*
X005041Y004124D01*
X004433Y003496D02*
X003115Y003496D01*
X003210Y003417D02*
X004433Y003417D01*
X004433Y003339D02*
X003304Y003339D01*
X007140Y015271D02*
X008046Y015271D01*
D32*
X003925Y012411D02*
X004119Y012105D01*
X004119Y011468D01*
X004119Y010718D01*
X003169Y009768D02*
X003069Y009768D01*
X008819Y002934D02*
X010046Y002934D01*
X010145Y003034D01*
X010235Y003034D01*
X010579Y003368D01*
X011023Y007922D02*
X011917Y008815D01*
X011917Y008907D01*
X010211Y008818D02*
X010121Y008907D01*
X010119Y008910D01*
X011917Y008907D02*
X011914Y009032D01*
X011905Y009157D01*
X011890Y009281D01*
X011868Y009404D01*
X011841Y009526D01*
X011808Y009647D01*
X011769Y009766D01*
D33*
X011023Y007922D03*
X010113Y007852D03*
M02*
