G75*
G70*
%OFA0B0*%
%FSLAX24Y24*%
%IPPOS*%
%LPD*%
%AMOC8*
5,1,8,0,0,1.08239X$1,22.5*
%
%ADD10C,0.0100*%
%ADD11C,0.0740*%
%ADD12R,0.0354X0.0276*%
%ADD13R,0.0300X0.0600*%
%ADD14R,0.0276X0.0354*%
%ADD15R,0.0276X0.0669*%
%ADD16R,0.0500X0.0220*%
%ADD17R,0.0220X0.0500*%
%ADD18R,0.0276X0.0472*%
%ADD19R,0.2126X0.2441*%
%ADD20R,0.0394X0.0630*%
%ADD21R,0.0630X0.0551*%
%ADD22R,0.0315X0.0315*%
%ADD23R,0.0315X0.0472*%
%ADD24R,0.0315X0.0354*%
%ADD25R,0.0551X0.0551*%
%ADD26R,0.0354X0.0315*%
%ADD27C,0.0160*%
%ADD28C,0.0357*%
%ADD29C,0.0240*%
%ADD30C,0.0120*%
%ADD31C,0.0080*%
%ADD32C,0.0320*%
%ADD33C,0.0396*%
D10*
X004715Y006283D02*
X004933Y006283D01*
X005109Y006459D01*
X005109Y009684D01*
X005459Y009459D02*
X005728Y009190D01*
X006090Y009278D02*
X005709Y009659D01*
X005709Y009886D01*
X005875Y010053D01*
X005653Y010275D02*
X005459Y010082D01*
X005459Y009459D01*
X004709Y008939D02*
X004709Y010159D01*
X004409Y009409D02*
X004159Y009409D01*
X003959Y009209D01*
X003959Y008409D01*
X004409Y007959D01*
X004409Y007583D01*
X004715Y007583D01*
X004715Y008135D02*
X004259Y008591D01*
X004259Y008909D01*
X004709Y008939D02*
X004715Y008883D01*
X006090Y008828D02*
X006090Y009278D01*
X006833Y009083D02*
X006833Y008583D01*
X006293Y008043D01*
X006293Y007123D01*
X006843Y006573D01*
X007709Y005559D02*
X007909Y005359D01*
X007909Y003809D01*
X007559Y003459D01*
X007009Y003459D01*
X006859Y003309D01*
X006859Y003009D01*
X007009Y002859D01*
X007959Y002859D01*
X008259Y003159D01*
X009009Y003159D01*
X009183Y002985D01*
X009183Y002803D01*
X010083Y014583D02*
X010421Y014453D01*
X010751Y014307D01*
X011075Y014145D01*
X011390Y013967D01*
X011696Y013774D01*
X011992Y013567D01*
X012278Y013345D01*
X012553Y013110D01*
X012816Y012862D01*
X013067Y012601D01*
X013304Y012328D01*
X013528Y012044D01*
X013738Y011750D01*
X013934Y011445D01*
X014114Y011132D01*
X014279Y010810D01*
X014428Y010480D01*
X014561Y010144D01*
X014677Y009801D01*
X014777Y009453D01*
X014859Y009101D01*
X014925Y008745D01*
X014972Y008387D01*
X015003Y008026D01*
X015016Y007665D01*
X015011Y007303D01*
X014988Y006942D01*
X014948Y006583D01*
X014891Y006225D01*
X014816Y005871D01*
X014724Y005522D01*
X014616Y005177D01*
X014490Y004837D01*
X014349Y004504D01*
X014191Y004179D01*
X014017Y003862D01*
X013829Y003553D01*
X013625Y003254D01*
X013407Y002965D01*
X013176Y002687D01*
X012931Y002421D01*
X012673Y002167D01*
X012404Y001925D01*
X012123Y001698D01*
X011831Y001484D01*
X011530Y001284D01*
X011218Y001100D01*
X010899Y000930D01*
X010571Y000777D01*
X010236Y000640D01*
X009895Y000519D01*
X009549Y000415D01*
X009198Y000328D01*
X008843Y000258D01*
X008485Y000205D01*
X008125Y000170D01*
X007764Y000152D01*
X007402Y000152D01*
X007041Y000170D01*
X006681Y000205D01*
X006323Y000258D01*
X005968Y000328D01*
X005617Y000415D01*
X005271Y000519D01*
X004930Y000640D01*
X004595Y000777D01*
X004267Y000930D01*
X003948Y001100D01*
X003636Y001284D01*
X003335Y001484D01*
X003043Y001698D01*
X002762Y001925D01*
X002493Y002167D01*
X002235Y002421D01*
X001990Y002687D01*
X001759Y002965D01*
X001541Y003254D01*
X001337Y003553D01*
X001149Y003862D01*
X000975Y004179D01*
X000817Y004504D01*
X000676Y004837D01*
X000550Y005177D01*
X000442Y005522D01*
X000350Y005871D01*
X000275Y006225D01*
X000218Y006583D01*
X000178Y006942D01*
X000155Y007303D01*
X000150Y007665D01*
X000163Y008026D01*
X000194Y008387D01*
X000241Y008745D01*
X000307Y009101D01*
X000389Y009453D01*
X000489Y009801D01*
X000605Y010144D01*
X000738Y010480D01*
X000887Y010810D01*
X001052Y011132D01*
X001232Y011445D01*
X001428Y011750D01*
X001638Y012044D01*
X001862Y012328D01*
X002099Y012601D01*
X002350Y012862D01*
X002613Y013110D01*
X002888Y013345D01*
X003174Y013567D01*
X003470Y013774D01*
X003776Y013967D01*
X004091Y014145D01*
X004415Y014307D01*
X004745Y014453D01*
X005083Y014583D01*
X005083Y015583D01*
X005159Y013309D02*
X003976Y012627D01*
X003602Y012424D01*
X003595Y012302D01*
X004459Y012209D02*
X005009Y012209D01*
X005207Y011997D01*
X005430Y012220D02*
X005109Y012559D01*
X004809Y012559D01*
X005259Y012859D02*
X005653Y012443D01*
X005875Y012665D02*
X006169Y012352D01*
X006009Y011759D01*
X006359Y011509D02*
X006159Y011309D01*
X006359Y011509D02*
X006359Y012727D01*
X006098Y012888D01*
X006321Y013111D02*
X006123Y013309D01*
X005159Y013309D01*
X006543Y013334D02*
X006859Y013118D01*
X006859Y012459D01*
X007209Y012709D02*
X007245Y012759D01*
X007597Y013111D01*
X007375Y013334D02*
X007559Y013509D01*
X008303Y013761D01*
X008809Y013109D02*
X008609Y012909D01*
X008449Y013049D01*
X008159Y012732D01*
X008043Y012665D01*
X008711Y011997D02*
X007323Y010609D01*
X007159Y010459D01*
X006909Y010459D01*
X006953Y009933D02*
X006953Y009203D01*
X006833Y009083D01*
X006833Y008583D02*
X006863Y008583D01*
X005083Y015583D02*
X005458Y015691D01*
X005838Y015781D01*
X006222Y015854D01*
X006609Y015908D01*
X006998Y015945D01*
X007388Y015963D01*
X007778Y015963D01*
X008168Y015945D01*
X008557Y015908D01*
X008944Y015854D01*
X009328Y015781D01*
X009708Y015691D01*
X010083Y015583D01*
X010083Y014583D01*
X009215Y013517D02*
X009365Y013015D01*
X009159Y012759D01*
X008613Y011253D02*
X008273Y011253D01*
X006953Y009933D01*
X008265Y010275D02*
X008732Y009909D01*
X009009Y009909D01*
X008809Y009709D01*
X008809Y008909D01*
X008965Y008753D01*
X009159Y008753D01*
X009159Y009265D02*
X009659Y009265D01*
X009809Y009809D02*
X009459Y010209D01*
X008877Y010209D01*
X008488Y010498D01*
X008711Y010721D02*
X009123Y010409D01*
X009759Y010409D01*
X009909Y010259D01*
X010609Y010509D02*
X010859Y010809D01*
X011203Y010809D01*
X011715Y010809D02*
X012509Y010809D01*
X012834Y010484D01*
X012834Y010034D01*
X009209Y009909D02*
X009009Y009909D01*
X008934Y010943D02*
X008923Y010943D01*
X008613Y011253D01*
X004209Y007209D02*
X003859Y006859D01*
D11*
X003059Y006809D03*
X003059Y005809D03*
X003059Y007809D03*
X003059Y008809D03*
X003059Y009809D03*
X003059Y010809D03*
X012834Y010034D03*
X012834Y009034D03*
X012834Y008034D03*
X012834Y007034D03*
X012834Y006034D03*
X012834Y005034D03*
D12*
X010609Y008153D03*
X010609Y008665D03*
X009659Y008753D03*
X009159Y008753D03*
X009159Y009265D03*
X009659Y009265D03*
D13*
X008333Y008583D03*
X006833Y008583D03*
X006833Y006583D03*
X008333Y006583D03*
D14*
G36*
X006117Y009050D02*
X006312Y008855D01*
X006063Y008606D01*
X005868Y008801D01*
X006117Y009050D01*
G37*
G36*
X005755Y009412D02*
X005950Y009217D01*
X005701Y008968D01*
X005506Y009163D01*
X005755Y009412D01*
G37*
G36*
X009850Y011201D02*
X009655Y011006D01*
X009406Y011255D01*
X009601Y011450D01*
X009850Y011201D01*
G37*
G36*
X010212Y011563D02*
X010017Y011368D01*
X009768Y011617D01*
X009963Y011812D01*
X010212Y011563D01*
G37*
X011203Y010809D03*
X011715Y010809D03*
D15*
G36*
X009261Y013159D02*
X008996Y013231D01*
X009169Y013875D01*
X009434Y013803D01*
X009261Y013159D01*
G37*
G36*
X008805Y013281D02*
X008540Y013353D01*
X008713Y013997D01*
X008978Y013925D01*
X008805Y013281D01*
G37*
G36*
X008349Y013403D02*
X008084Y013475D01*
X008257Y014119D01*
X008522Y014047D01*
X008349Y013403D01*
G37*
D16*
G36*
X007566Y012790D02*
X007918Y013142D01*
X008074Y012986D01*
X007722Y012634D01*
X007566Y012790D01*
G37*
G36*
X007343Y013013D02*
X007695Y013365D01*
X007851Y013209D01*
X007499Y012857D01*
X007343Y013013D01*
G37*
G36*
X007121Y013236D02*
X007473Y013588D01*
X007629Y013432D01*
X007277Y013080D01*
X007121Y013236D01*
G37*
G36*
X007789Y012567D02*
X008141Y012919D01*
X008297Y012763D01*
X007945Y012411D01*
X007789Y012567D01*
G37*
G36*
X008011Y012345D02*
X008363Y012697D01*
X008519Y012541D01*
X008167Y012189D01*
X008011Y012345D01*
G37*
G36*
X008234Y012122D02*
X008586Y012474D01*
X008742Y012318D01*
X008390Y011966D01*
X008234Y012122D01*
G37*
G36*
X008457Y011899D02*
X008809Y012251D01*
X008965Y012095D01*
X008613Y011743D01*
X008457Y011899D01*
G37*
G36*
X008680Y011677D02*
X009032Y012029D01*
X009188Y011873D01*
X008836Y011521D01*
X008680Y011677D01*
G37*
G36*
X006289Y009287D02*
X006641Y009639D01*
X006797Y009483D01*
X006445Y009131D01*
X006289Y009287D01*
G37*
G36*
X006067Y009509D02*
X006419Y009861D01*
X006575Y009705D01*
X006223Y009353D01*
X006067Y009509D01*
G37*
G36*
X005844Y009732D02*
X006196Y010084D01*
X006352Y009928D01*
X006000Y009576D01*
X005844Y009732D01*
G37*
G36*
X005621Y009955D02*
X005973Y010307D01*
X006129Y010151D01*
X005777Y009799D01*
X005621Y009955D01*
G37*
G36*
X005399Y010177D02*
X005751Y010529D01*
X005907Y010373D01*
X005555Y010021D01*
X005399Y010177D01*
G37*
G36*
X005176Y010400D02*
X005528Y010752D01*
X005684Y010596D01*
X005332Y010244D01*
X005176Y010400D01*
G37*
G36*
X004953Y010623D02*
X005305Y010975D01*
X005461Y010819D01*
X005109Y010467D01*
X004953Y010623D01*
G37*
G36*
X004731Y010845D02*
X005083Y011197D01*
X005239Y011041D01*
X004887Y010689D01*
X004731Y010845D01*
G37*
D17*
G36*
X004731Y011873D02*
X004887Y012029D01*
X005239Y011677D01*
X005083Y011521D01*
X004731Y011873D01*
G37*
G36*
X004953Y012095D02*
X005109Y012251D01*
X005461Y011899D01*
X005305Y011743D01*
X004953Y012095D01*
G37*
G36*
X005176Y012318D02*
X005332Y012474D01*
X005684Y012122D01*
X005528Y011966D01*
X005176Y012318D01*
G37*
G36*
X005399Y012541D02*
X005555Y012697D01*
X005907Y012345D01*
X005751Y012189D01*
X005399Y012541D01*
G37*
G36*
X005621Y012763D02*
X005777Y012919D01*
X006129Y012567D01*
X005973Y012411D01*
X005621Y012763D01*
G37*
G36*
X005844Y012986D02*
X006000Y013142D01*
X006352Y012790D01*
X006196Y012634D01*
X005844Y012986D01*
G37*
G36*
X006067Y013209D02*
X006223Y013365D01*
X006575Y013013D01*
X006419Y012857D01*
X006067Y013209D01*
G37*
G36*
X006289Y013432D02*
X006445Y013588D01*
X006797Y013236D01*
X006641Y013080D01*
X006289Y013432D01*
G37*
G36*
X008680Y011041D02*
X008836Y011197D01*
X009188Y010845D01*
X009032Y010689D01*
X008680Y011041D01*
G37*
G36*
X008457Y010819D02*
X008613Y010975D01*
X008965Y010623D01*
X008809Y010467D01*
X008457Y010819D01*
G37*
G36*
X008234Y010596D02*
X008390Y010752D01*
X008742Y010400D01*
X008586Y010244D01*
X008234Y010596D01*
G37*
G36*
X008011Y010373D02*
X008167Y010529D01*
X008519Y010177D01*
X008363Y010021D01*
X008011Y010373D01*
G37*
G36*
X007789Y010151D02*
X007945Y010307D01*
X008297Y009955D01*
X008141Y009799D01*
X007789Y010151D01*
G37*
G36*
X007566Y009928D02*
X007722Y010084D01*
X008074Y009732D01*
X007918Y009576D01*
X007566Y009928D01*
G37*
G36*
X007343Y009705D02*
X007499Y009861D01*
X007851Y009509D01*
X007695Y009353D01*
X007343Y009705D01*
G37*
G36*
X007121Y009483D02*
X007277Y009639D01*
X007629Y009287D01*
X007473Y009131D01*
X007121Y009483D01*
G37*
D18*
G36*
X009487Y012665D02*
X009625Y012903D01*
X010033Y012667D01*
X009895Y012429D01*
X009487Y012665D01*
G37*
G36*
X009762Y013142D02*
X009900Y013380D01*
X010308Y013144D01*
X010170Y012906D01*
X009762Y013142D01*
G37*
G36*
X010510Y012074D02*
X010648Y012312D01*
X011056Y012076D01*
X010918Y011838D01*
X010510Y012074D01*
G37*
G36*
X010785Y012551D02*
X010923Y012789D01*
X011331Y012553D01*
X011193Y012315D01*
X010785Y012551D01*
G37*
G36*
X010748Y002906D02*
X010610Y003144D01*
X011018Y003380D01*
X011156Y003142D01*
X010748Y002906D01*
G37*
G36*
X011023Y002429D02*
X010885Y002667D01*
X011293Y002903D01*
X011431Y002665D01*
X011023Y002429D01*
G37*
G36*
X010000Y001838D02*
X009862Y002076D01*
X010270Y002312D01*
X010408Y002074D01*
X010000Y001838D01*
G37*
G36*
X009725Y002315D02*
X009587Y002553D01*
X009995Y002789D01*
X010133Y002551D01*
X009725Y002315D01*
G37*
X002085Y007018D03*
X001533Y007018D03*
X001533Y008200D03*
X002085Y008200D03*
D19*
X011009Y005075D03*
D20*
X010111Y007949D03*
X011907Y007949D03*
D21*
X011759Y008808D03*
X011759Y009910D03*
X009159Y007860D03*
X009159Y006758D03*
D22*
X010659Y009364D03*
X010659Y009954D03*
D23*
X009213Y005209D03*
X008505Y005209D03*
X008505Y004509D03*
X008505Y003809D03*
X009213Y003809D03*
X009213Y004509D03*
X007163Y004509D03*
X007163Y003809D03*
X006455Y003809D03*
X006455Y004509D03*
X006455Y005209D03*
X007163Y005209D03*
X005463Y004909D03*
X005463Y004209D03*
X005463Y003509D03*
X004755Y003509D03*
X004755Y004209D03*
X004755Y004909D03*
D24*
X008435Y002803D03*
X009183Y002803D03*
X008809Y001976D03*
G36*
X003679Y011467D02*
X003901Y011689D01*
X004151Y011439D01*
X003929Y011217D01*
X003679Y011467D01*
G37*
G36*
X002830Y011787D02*
X003052Y012009D01*
X003302Y011759D01*
X003080Y011537D01*
X002830Y011787D01*
G37*
G36*
X003359Y012316D02*
X003581Y012538D01*
X003831Y012288D01*
X003609Y012066D01*
X003359Y012316D01*
G37*
D25*
X004839Y002327D03*
X006335Y002327D03*
D26*
X004715Y005535D03*
X004715Y006283D03*
X004715Y006835D03*
X004715Y007583D03*
X004715Y008135D03*
X004715Y008883D03*
X005542Y008509D03*
X005542Y007209D03*
X005542Y005909D03*
D27*
X005759Y005909D01*
X005759Y004909D01*
X005759Y004209D01*
X005759Y003509D01*
X006259Y003809D02*
X006009Y004059D01*
X006009Y004509D01*
X006009Y005209D01*
X006009Y006159D01*
X005909Y006259D01*
X005659Y006259D01*
X005542Y006376D01*
X005542Y007209D01*
X005709Y007659D02*
X005609Y007759D01*
X005609Y008342D01*
X005615Y008361D01*
X005618Y008381D01*
X005619Y008401D01*
X005616Y008420D01*
X005610Y008439D01*
X005601Y008457D01*
X005590Y008473D01*
X005576Y008488D01*
X005560Y008500D01*
X005542Y008509D01*
X005709Y007659D02*
X005859Y007659D01*
X005959Y007559D01*
X005959Y006609D01*
X006559Y006009D01*
X007855Y006009D01*
X008105Y005759D01*
X008105Y005209D01*
X008105Y004509D01*
X008105Y003809D01*
X008505Y003809D01*
X008505Y004509D02*
X008105Y004509D01*
X008105Y005209D02*
X008505Y005209D01*
X006455Y005209D02*
X006009Y005209D01*
X006009Y004509D02*
X006455Y004509D01*
X006455Y003809D02*
X006259Y003809D01*
X005079Y005535D02*
X004715Y005535D01*
X005079Y005535D02*
X005069Y005899D01*
X004434Y005859D01*
X004309Y005984D01*
X004309Y006710D01*
X004434Y006835D01*
X004715Y006835D01*
X003059Y008809D02*
X002459Y008309D01*
X002459Y007859D01*
X002085Y007485D01*
X002085Y007018D01*
X002185Y007185D01*
X004109Y010509D02*
X004995Y010509D01*
X005207Y010721D01*
X003059Y010809D02*
X003059Y011516D01*
X003066Y011773D01*
X007609Y012509D02*
X007859Y012259D01*
X008059Y012259D01*
X008265Y012443D02*
X008472Y012639D01*
X008629Y012699D01*
X009059Y012359D01*
X009928Y011840D01*
X009990Y011590D01*
X009990Y012278D01*
X009859Y012409D01*
X009690Y012596D01*
X009760Y012666D01*
X009990Y011590D02*
X010109Y011321D01*
X010109Y010659D01*
X010259Y010509D01*
X010259Y009809D01*
X010109Y009659D01*
X010109Y009309D01*
X010065Y009265D01*
X009659Y009265D01*
X010109Y009309D02*
X010109Y008659D01*
X010111Y007949D01*
X010115Y008159D01*
X010609Y008153D01*
X010609Y008665D02*
X010670Y008865D01*
X010659Y009364D01*
X007609Y012509D02*
X007609Y012677D01*
D28*
X007209Y012709D03*
X006859Y012459D03*
X007359Y012009D03*
X006509Y010859D03*
X006909Y010459D03*
X006159Y011309D03*
X006009Y011759D03*
X005259Y012859D03*
X004809Y012559D03*
X004459Y012209D03*
X004709Y010159D03*
X005109Y009684D03*
X004409Y009409D03*
X004259Y008909D03*
X004209Y007209D03*
X005069Y005899D03*
X004359Y004909D03*
X004059Y004559D03*
X004309Y004209D03*
X003609Y004059D03*
X001759Y005609D03*
X001909Y006509D03*
X001609Y008759D03*
X001909Y009109D03*
X006109Y008359D03*
X007259Y008159D03*
X007259Y008559D03*
X007309Y007659D03*
X007209Y007059D03*
X006809Y007209D03*
X007259Y006409D03*
X007159Y005689D03*
X007709Y005559D03*
X007579Y005099D03*
X007599Y004409D03*
X007159Y003159D03*
X008109Y002059D03*
X010279Y002819D03*
X010569Y002409D03*
X010509Y003559D03*
X008609Y005859D03*
X007919Y006409D03*
X009809Y009809D03*
X009909Y010259D03*
X010609Y010509D03*
X010509Y011359D03*
X011309Y011609D03*
X010409Y012559D03*
X009409Y011659D03*
X009159Y012759D03*
X008449Y013049D03*
X009209Y009909D03*
X005729Y002729D03*
X005449Y002379D03*
X005369Y001829D03*
D29*
X006335Y002327D02*
X008081Y002329D01*
X008109Y002341D01*
X008109Y002059D01*
X008081Y002329D02*
X008435Y002803D01*
X011009Y005075D02*
X010909Y006209D01*
X011209Y006549D01*
X010103Y006893D02*
X010103Y007940D01*
X010111Y007949D01*
X010111Y007860D01*
X009159Y007860D01*
X008810Y007860D01*
X008609Y007659D01*
X007410Y007660D01*
X007309Y007659D01*
X010059Y007899D02*
X010111Y007949D01*
X011009Y005075D02*
X012793Y005075D01*
X012834Y005034D01*
X012834Y006034D01*
X004209Y007209D02*
X003659Y007609D01*
X003659Y008309D01*
X003659Y009309D01*
X004109Y009759D01*
X003159Y008809D02*
X003659Y008309D01*
D30*
X002085Y008200D02*
X002085Y008735D01*
X001909Y009109D01*
X001609Y008759D02*
X001509Y008375D01*
X001533Y008200D01*
X001533Y007018D02*
X001559Y006993D01*
X001559Y006259D01*
X001709Y006109D01*
X001959Y006109D01*
X002159Y005909D01*
X002159Y005559D01*
X002709Y005009D01*
X003409Y005009D01*
X003709Y004709D01*
X003709Y004459D01*
X003959Y004209D01*
X003959Y003909D01*
X004359Y003509D01*
X004755Y003509D01*
X004755Y004209D02*
X004309Y004209D01*
X004059Y004559D02*
X003959Y004709D01*
X003509Y005209D01*
X002809Y005209D01*
X002359Y005659D01*
X002359Y006109D01*
X001959Y006509D01*
X001909Y006509D01*
X001809Y005609D02*
X002609Y004809D01*
X003309Y004809D01*
X003459Y004659D01*
X003459Y004309D01*
X003609Y004159D01*
X003609Y004059D01*
X004359Y004909D02*
X004755Y004909D01*
X005463Y004909D02*
X005759Y004909D01*
X005759Y004209D02*
X005463Y004209D01*
X005463Y003509D02*
X005759Y003509D01*
X007163Y003809D02*
X007213Y003859D01*
X007599Y004409D01*
X007163Y004509D02*
X007163Y004563D01*
X007559Y004959D01*
X007579Y005099D01*
X007163Y005209D02*
X007159Y005689D01*
X007259Y006409D02*
X007919Y006409D01*
X008609Y005859D02*
X008959Y005859D01*
X009209Y005609D01*
X009209Y005259D01*
X009213Y005255D01*
X009213Y005209D01*
X009213Y004509D02*
X009759Y003963D01*
X009759Y003525D01*
X010141Y003143D01*
X010883Y003143D01*
X011309Y003209D02*
X011109Y003559D01*
X010509Y003559D01*
X010279Y002819D02*
X009903Y002509D01*
X009860Y002552D01*
X008809Y003359D02*
X007859Y003359D01*
X007659Y003159D01*
X007159Y003159D01*
X008809Y003359D02*
X009213Y003763D01*
X009213Y003809D01*
X011158Y002666D02*
X011309Y002866D01*
X011309Y003209D01*
X010509Y011359D02*
X010809Y011659D01*
X010809Y012049D01*
X010783Y012075D01*
X011058Y012552D02*
X011309Y012302D01*
X011309Y011609D01*
X010409Y012559D02*
X010409Y012819D01*
X010035Y013143D01*
X008697Y012047D02*
X008711Y011997D01*
X008488Y012220D02*
X008277Y012009D01*
X007359Y012009D01*
X007609Y012677D02*
X007820Y012888D01*
X008293Y012493D02*
X008059Y012259D01*
X008265Y012443D02*
X008293Y012493D01*
X001809Y005609D02*
X001759Y005609D01*
D31*
X002779Y002851D02*
X006720Y002851D01*
X006677Y002763D02*
X005993Y002763D01*
X005899Y002669D01*
X005899Y001985D01*
X005993Y001891D01*
X006677Y001891D01*
X006771Y001985D01*
X006771Y002048D01*
X007771Y002049D01*
X007771Y001992D01*
X007822Y001867D01*
X007917Y001772D01*
X008042Y001721D01*
X008176Y001721D01*
X008301Y001772D01*
X008396Y001867D01*
X008447Y001992D01*
X008447Y002126D01*
X008396Y002251D01*
X008389Y002258D01*
X008389Y002273D01*
X008533Y002466D01*
X008659Y002466D01*
X008752Y002559D01*
X008752Y002949D01*
X008866Y002949D01*
X008866Y002559D01*
X008959Y002466D01*
X009407Y002466D01*
X009436Y002494D01*
X009550Y002296D01*
X009050Y002296D01*
X009033Y002313D01*
X008585Y002313D01*
X008492Y002219D01*
X008492Y002046D01*
X008489Y002040D01*
X008489Y001912D01*
X008492Y001906D01*
X008492Y001733D01*
X008585Y001639D01*
X009033Y001639D01*
X009050Y001656D01*
X010100Y001656D01*
X010218Y001705D01*
X010267Y001754D01*
X010284Y001754D01*
X010286Y001755D01*
X010289Y001755D01*
X010345Y001779D01*
X010402Y001801D01*
X010404Y001803D01*
X010406Y001804D01*
X010450Y001847D01*
X010712Y002102D01*
X010761Y002122D01*
X010856Y002217D01*
X010899Y002322D01*
X010917Y002291D01*
X011045Y002256D01*
X011569Y002559D01*
X011603Y002687D01*
X011536Y002803D01*
X011540Y002807D01*
X011529Y002882D01*
X011529Y003180D01*
X011545Y003239D01*
X011529Y003267D01*
X011529Y003300D01*
X011485Y003344D01*
X011329Y003617D01*
X011329Y003650D01*
X011285Y003694D01*
X011274Y003714D01*
X012090Y003714D01*
X012126Y003724D01*
X012158Y003742D01*
X012184Y003768D01*
X012202Y003800D01*
X012212Y003836D01*
X012212Y005035D01*
X011049Y005035D01*
X011049Y005115D01*
X010969Y005115D01*
X010969Y006435D01*
X009928Y006435D01*
X009892Y006426D01*
X009860Y006407D01*
X009834Y006381D01*
X009816Y006349D01*
X009806Y006314D01*
X009806Y005115D01*
X010969Y005115D01*
X010969Y005035D01*
X009806Y005035D01*
X009806Y004227D01*
X009531Y004503D01*
X009531Y004812D01*
X009483Y004859D01*
X009531Y004907D01*
X009531Y005512D01*
X009437Y005605D01*
X009429Y005605D01*
X009429Y005700D01*
X009179Y005950D01*
X009050Y006079D01*
X008868Y006079D01*
X008801Y006146D01*
X008676Y006197D01*
X008595Y006197D01*
X008613Y006229D01*
X008623Y006265D01*
X008623Y006548D01*
X008368Y006548D01*
X008368Y006143D01*
X008414Y006143D01*
X008322Y006051D01*
X008272Y005931D01*
X008241Y005962D01*
X008090Y006113D01*
X008111Y006122D01*
X008139Y006150D01*
X008165Y006143D01*
X008298Y006143D01*
X008298Y006548D01*
X008368Y006548D01*
X008368Y006618D01*
X008298Y006618D01*
X008298Y007023D01*
X008165Y007023D01*
X008129Y007013D01*
X008097Y006995D01*
X008071Y006969D01*
X008053Y006937D01*
X008043Y006901D01*
X008043Y006724D01*
X007986Y006747D01*
X007852Y006747D01*
X007727Y006696D01*
X007660Y006629D01*
X007518Y006629D01*
X007451Y006696D01*
X007326Y006747D01*
X007192Y006747D01*
X007143Y006727D01*
X007143Y006949D01*
X007049Y007043D01*
X006670Y007043D01*
X006503Y007210D01*
X006503Y007956D01*
X006670Y008123D01*
X007049Y008123D01*
X007143Y008217D01*
X007143Y008949D01*
X007070Y009023D01*
X007163Y009116D01*
X007163Y009214D01*
X007407Y008970D01*
X007540Y008970D01*
X007763Y009193D01*
X007985Y009415D01*
X008208Y009638D01*
X008431Y009861D01*
X008441Y009871D01*
X008592Y009752D01*
X008599Y009745D01*
X008599Y008962D01*
X008595Y008969D01*
X008569Y008995D01*
X008537Y009013D01*
X008501Y009023D01*
X008368Y009023D01*
X008368Y008618D01*
X008623Y008618D01*
X008623Y008798D01*
X008722Y008699D01*
X008822Y008599D01*
X008822Y008549D01*
X008916Y008455D01*
X009402Y008455D01*
X009431Y008484D01*
X009463Y008475D01*
X009630Y008475D01*
X009630Y008724D01*
X009688Y008724D01*
X009688Y008475D01*
X009855Y008475D01*
X009870Y008479D01*
X009870Y008424D01*
X009848Y008424D01*
X009755Y008330D01*
X009755Y008140D01*
X009634Y008140D01*
X009634Y008202D01*
X009540Y008296D01*
X008778Y008296D01*
X008684Y008202D01*
X008684Y008111D01*
X008652Y008098D01*
X008573Y008019D01*
X008493Y007939D01*
X007507Y007940D01*
X007501Y007946D01*
X007376Y007997D01*
X007242Y007997D01*
X007117Y007946D01*
X007022Y007851D01*
X006971Y007726D01*
X006971Y007592D01*
X007022Y007467D01*
X007117Y007372D01*
X007242Y007321D01*
X007376Y007321D01*
X007501Y007372D01*
X007509Y007380D01*
X008553Y007379D01*
X008553Y007379D01*
X008609Y007379D01*
X008664Y007379D01*
X008665Y007379D01*
X008717Y007401D01*
X008767Y007421D01*
X008767Y007422D01*
X008768Y007422D01*
X008774Y007428D01*
X008778Y007425D01*
X009540Y007425D01*
X009634Y007518D01*
X009634Y007580D01*
X009755Y007580D01*
X009755Y007568D01*
X009823Y007499D01*
X009823Y007119D01*
X009799Y007096D01*
X009745Y006964D01*
X009745Y006822D01*
X009799Y006690D01*
X009900Y006589D01*
X010032Y006535D01*
X010174Y006535D01*
X010306Y006589D01*
X010407Y006690D01*
X010461Y006822D01*
X010461Y006964D01*
X010407Y007096D01*
X010383Y007119D01*
X010383Y007482D01*
X010468Y007568D01*
X010468Y007674D01*
X010472Y007678D01*
X010521Y007795D01*
X010521Y007855D01*
X010852Y007855D01*
X010946Y007949D01*
X010946Y008357D01*
X010894Y008409D01*
X010946Y008461D01*
X010946Y008869D01*
X010909Y008906D01*
X010905Y009069D01*
X010976Y009140D01*
X010976Y009587D01*
X010888Y009676D01*
X010902Y009685D01*
X010929Y009711D01*
X010947Y009743D01*
X010956Y009778D01*
X010956Y009916D01*
X010698Y009916D01*
X011719Y009916D01*
X011719Y009950D02*
X011719Y009870D01*
X011799Y009870D01*
X011799Y009495D01*
X012092Y009495D01*
X012128Y009504D01*
X012160Y009523D01*
X012186Y009549D01*
X012204Y009581D01*
X012214Y009616D01*
X012214Y009870D01*
X011799Y009870D01*
X011799Y009950D01*
X012214Y009950D01*
X012214Y010204D01*
X012204Y010240D01*
X012186Y010272D01*
X012160Y010298D01*
X012128Y010316D01*
X012092Y010326D01*
X011799Y010326D01*
X011799Y009950D01*
X011719Y009950D01*
X011304Y009950D01*
X011304Y010204D01*
X011314Y010240D01*
X011332Y010272D01*
X011358Y010298D01*
X011390Y010316D01*
X011426Y010326D01*
X011719Y010326D01*
X011719Y009950D01*
X011719Y009995D02*
X011799Y009995D01*
X011799Y010073D02*
X011719Y010073D01*
X011719Y010152D02*
X011799Y010152D01*
X011799Y010230D02*
X011719Y010230D01*
X011719Y010309D02*
X011799Y010309D01*
X011919Y010472D02*
X012013Y010566D01*
X012013Y010599D01*
X012422Y010599D01*
X012537Y010484D01*
X012534Y010483D01*
X012385Y010334D01*
X012304Y010139D01*
X012304Y009929D01*
X012385Y009734D01*
X012534Y009585D01*
X012656Y009534D01*
X012534Y009483D01*
X012385Y009334D01*
X012304Y009139D01*
X012304Y008929D01*
X012385Y008734D01*
X012534Y008585D01*
X012656Y008534D01*
X012534Y008483D01*
X012385Y008334D01*
X012304Y008139D01*
X012304Y007929D01*
X012385Y007734D01*
X012534Y007585D01*
X012656Y007534D01*
X012534Y007483D01*
X012385Y007334D01*
X012304Y007139D01*
X012304Y006929D01*
X012385Y006734D01*
X012534Y006585D01*
X012685Y006522D01*
X012638Y006507D01*
X012567Y006470D01*
X012502Y006423D01*
X012445Y006366D01*
X012398Y006301D01*
X012361Y006230D01*
X012337Y006153D01*
X012324Y006074D01*
X012794Y006074D01*
X012794Y005994D01*
X012324Y005994D01*
X012324Y005994D01*
X012337Y005915D01*
X012361Y005838D01*
X012398Y005767D01*
X012445Y005702D01*
X012502Y005645D01*
X012567Y005598D01*
X012638Y005561D01*
X012715Y005537D01*
X012731Y005534D01*
X012715Y005531D01*
X012638Y005507D01*
X012567Y005470D01*
X012502Y005423D01*
X012445Y005366D01*
X012398Y005301D01*
X012361Y005230D01*
X012337Y005153D01*
X012324Y005074D01*
X012794Y005074D01*
X012794Y004994D01*
X012874Y004994D01*
X012874Y004524D01*
X012874Y004524D01*
X012953Y004537D01*
X013030Y004561D01*
X013101Y004598D01*
X013166Y004645D01*
X013223Y004702D01*
X013270Y004767D01*
X013307Y004838D01*
X013331Y004915D01*
X013344Y004994D01*
X012874Y004994D01*
X012874Y005074D01*
X013344Y005074D01*
X013344Y005074D01*
X013331Y005153D01*
X013307Y005230D01*
X013270Y005301D01*
X013223Y005366D01*
X013166Y005423D01*
X013101Y005470D01*
X013030Y005507D01*
X012953Y005531D01*
X012937Y005534D01*
X012953Y005537D01*
X013030Y005561D01*
X013101Y005598D01*
X013166Y005645D01*
X013223Y005702D01*
X013270Y005767D01*
X013307Y005838D01*
X013331Y005915D01*
X013344Y005994D01*
X012874Y005994D01*
X012874Y005074D01*
X012794Y005074D01*
X012794Y005544D01*
X012794Y005994D01*
X012874Y005994D01*
X012874Y006074D01*
X013344Y006074D01*
X013344Y006074D01*
X013331Y006153D01*
X013307Y006230D01*
X013270Y006301D01*
X013223Y006366D01*
X013166Y006423D01*
X013101Y006470D01*
X013030Y006507D01*
X012983Y006522D01*
X013134Y006585D01*
X013283Y006734D01*
X013364Y006929D01*
X013364Y007139D01*
X013283Y007334D01*
X013134Y007483D01*
X013012Y007534D01*
X013134Y007585D01*
X013283Y007734D01*
X013364Y007929D01*
X013364Y008139D01*
X013283Y008334D01*
X013134Y008483D01*
X013012Y008534D01*
X013134Y008585D01*
X013283Y008734D01*
X013364Y008929D01*
X013364Y009139D01*
X013283Y009334D01*
X013134Y009483D01*
X013012Y009534D01*
X013134Y009585D01*
X013283Y009734D01*
X013364Y009929D01*
X013364Y010139D01*
X013283Y010334D01*
X013134Y010483D01*
X013044Y010521D01*
X013044Y010571D01*
X012719Y010896D01*
X012596Y011019D01*
X012013Y011019D01*
X012013Y011052D01*
X011919Y011146D01*
X011511Y011146D01*
X011459Y011094D01*
X011407Y011146D01*
X010999Y011146D01*
X010905Y011052D01*
X010905Y011024D01*
X010849Y011019D01*
X010772Y011019D01*
X010764Y011011D01*
X010753Y011010D01*
X010704Y010951D01*
X010649Y010896D01*
X010649Y010885D01*
X010618Y010847D01*
X010542Y010847D01*
X010417Y010796D01*
X010364Y010743D01*
X010349Y010758D01*
X010349Y011059D01*
X010442Y011021D01*
X010576Y011021D01*
X010701Y011072D01*
X010796Y011167D01*
X010847Y011292D01*
X010847Y011386D01*
X010900Y011439D01*
X010980Y011519D01*
X011022Y011417D01*
X011117Y011322D01*
X011242Y011271D01*
X011376Y011271D01*
X011501Y011322D01*
X011596Y011417D01*
X011647Y011542D01*
X011647Y011676D01*
X011596Y011801D01*
X011529Y011868D01*
X011529Y012393D01*
X011462Y012460D01*
X011503Y012531D01*
X011469Y012659D01*
X010945Y012962D01*
X010817Y012927D01*
X010704Y012731D01*
X010696Y012751D01*
X010630Y012817D01*
X010629Y012827D01*
X010629Y012910D01*
X010623Y012917D01*
X010622Y012926D01*
X010559Y012980D01*
X010500Y013039D01*
X010491Y013039D01*
X010452Y013073D01*
X010481Y013122D01*
X010446Y013250D01*
X009922Y013552D01*
X009794Y013518D01*
X009590Y013164D01*
X009616Y013067D01*
X009573Y013055D01*
X009572Y013057D01*
X009565Y013124D01*
X009548Y013138D01*
X009482Y013360D01*
X009607Y013827D01*
X009540Y013942D01*
X009146Y014047D01*
X009089Y014014D01*
X009065Y014039D01*
X009033Y014057D01*
X008910Y014090D01*
X008794Y013659D01*
X008739Y013674D01*
X008854Y014105D01*
X008731Y014138D01*
X008694Y014138D01*
X008661Y014129D01*
X008628Y014186D01*
X008234Y014292D01*
X008119Y014226D01*
X008029Y013890D01*
X007558Y013730D01*
X007540Y013748D01*
X007407Y013748D01*
X006967Y013307D01*
X006946Y013328D01*
X006931Y013328D01*
X006511Y013748D01*
X006378Y013748D01*
X006156Y013525D01*
X006149Y013519D01*
X005187Y013519D01*
X005129Y013534D01*
X005103Y013519D01*
X005072Y013519D01*
X005030Y013477D01*
X003874Y012810D01*
X003655Y012691D01*
X003647Y012699D01*
X003515Y012699D01*
X003198Y012382D01*
X003198Y012250D01*
X003543Y011905D01*
X003675Y011905D01*
X003992Y012222D01*
X003992Y012354D01*
X003965Y012381D01*
X004003Y012402D01*
X004006Y012401D01*
X004079Y012443D01*
X004153Y012484D01*
X004154Y012487D01*
X004494Y012683D01*
X004471Y012626D01*
X004471Y012547D01*
X004392Y012547D01*
X004267Y012496D01*
X004172Y012401D01*
X004121Y012276D01*
X004121Y012142D01*
X004172Y012017D01*
X004267Y011922D01*
X004392Y011871D01*
X004526Y011871D01*
X004570Y011889D01*
X004570Y011807D01*
X005017Y011360D01*
X005150Y011360D01*
X005399Y011609D01*
X005622Y011832D01*
X005709Y011919D01*
X005671Y011826D01*
X005671Y011692D01*
X005722Y011567D01*
X005817Y011472D01*
X005854Y011457D01*
X005821Y011376D01*
X005821Y011242D01*
X005872Y011117D01*
X005967Y011022D01*
X006092Y010971D01*
X006226Y010971D01*
X006351Y011022D01*
X006446Y011117D01*
X006497Y011242D01*
X006497Y011350D01*
X006569Y011422D01*
X006569Y012275D01*
X006572Y012267D01*
X006667Y012172D01*
X006792Y012121D01*
X006926Y012121D01*
X007051Y012172D01*
X007146Y012267D01*
X007189Y012371D01*
X007276Y012371D01*
X007388Y012417D01*
X007406Y012373D01*
X007723Y012056D01*
X007811Y012019D01*
X008107Y012019D01*
X008128Y012028D01*
X008202Y011955D01*
X008467Y012220D01*
X008488Y012199D01*
X008223Y011934D01*
X008287Y011870D01*
X007177Y010761D01*
X007130Y010717D01*
X007101Y010746D01*
X006976Y010797D01*
X006842Y010797D01*
X006717Y010746D01*
X006622Y010651D01*
X006571Y010526D01*
X006571Y010392D01*
X006622Y010267D01*
X006717Y010172D01*
X006842Y010121D01*
X006844Y010121D01*
X006743Y010020D01*
X006743Y009765D01*
X006709Y009799D01*
X006486Y010022D01*
X006263Y010244D01*
X006235Y010244D01*
X006162Y010318D01*
X005897Y010053D01*
X005875Y010074D01*
X006141Y010339D01*
X006067Y010412D01*
X006067Y010441D01*
X005818Y010690D01*
X005595Y010913D01*
X005373Y011135D01*
X005150Y011358D01*
X005017Y011358D01*
X004570Y010911D01*
X004570Y010778D01*
X004599Y010749D01*
X004429Y010749D01*
X004429Y011111D01*
X004435Y011138D01*
X004429Y011174D01*
X004429Y011210D01*
X004418Y011236D01*
X004413Y011264D01*
X004394Y011294D01*
X004380Y011328D01*
X004360Y011348D01*
X004312Y011424D01*
X004312Y011505D01*
X004173Y011644D01*
X004152Y011678D01*
X004110Y011707D01*
X003968Y011849D01*
X003835Y011849D01*
X003519Y011533D01*
X003519Y011400D01*
X003658Y011261D01*
X003789Y011054D01*
X003789Y009835D01*
X003500Y009546D01*
X003494Y009540D01*
X003495Y009542D01*
X003532Y009613D01*
X003556Y009690D01*
X003569Y009769D01*
X003099Y009769D01*
X003099Y009849D01*
X003569Y009849D01*
X003569Y009849D01*
X003556Y009928D01*
X003532Y010005D01*
X003495Y010076D01*
X003448Y010141D01*
X003391Y010198D01*
X003326Y010245D01*
X003255Y010282D01*
X003208Y010297D01*
X003359Y010360D01*
X003508Y010509D01*
X003589Y010704D01*
X003589Y010914D01*
X003508Y011109D01*
X003359Y011258D01*
X003299Y011283D01*
X003299Y011512D01*
X003299Y011529D01*
X003463Y011693D01*
X003463Y011825D01*
X003119Y012170D01*
X002986Y012170D01*
X002670Y011853D01*
X002670Y011721D01*
X002820Y011570D01*
X002820Y011567D01*
X002819Y011564D01*
X002819Y011519D01*
X002818Y011475D01*
X002819Y011472D01*
X002819Y011283D01*
X002759Y011258D01*
X002610Y011109D01*
X002529Y010914D01*
X002529Y010704D01*
X002610Y010509D01*
X002759Y010360D01*
X002910Y010297D01*
X002863Y010282D01*
X002792Y010245D01*
X002727Y010198D01*
X002670Y010141D01*
X002623Y010076D01*
X002586Y010005D01*
X002562Y009928D01*
X002549Y009849D01*
X003019Y009849D01*
X003019Y009769D01*
X002549Y009769D01*
X002549Y009769D01*
X002562Y009690D01*
X002586Y009613D01*
X002623Y009542D01*
X002670Y009477D01*
X002727Y009420D01*
X002792Y009373D01*
X002863Y009336D01*
X002910Y009321D01*
X002759Y009258D01*
X002610Y009109D01*
X002529Y008914D01*
X002529Y008704D01*
X002536Y008686D01*
X002352Y008532D01*
X002305Y008580D01*
X002305Y008696D01*
X002322Y008746D01*
X002305Y008784D01*
X002305Y008826D01*
X002267Y008863D01*
X002217Y008969D01*
X002247Y009042D01*
X002247Y009176D01*
X002196Y009301D01*
X002101Y009396D01*
X001976Y009447D01*
X001842Y009447D01*
X001717Y009396D01*
X001622Y009301D01*
X001571Y009176D01*
X001571Y009097D01*
X001542Y009097D01*
X001417Y009046D01*
X001322Y008951D01*
X001271Y008826D01*
X001271Y008692D01*
X001316Y008582D01*
X001236Y008502D01*
X001236Y007897D01*
X001329Y007803D01*
X001737Y007803D01*
X001809Y007875D01*
X001881Y007803D01*
X002064Y007803D01*
X001881Y007621D01*
X001845Y007532D01*
X001845Y007379D01*
X001809Y007343D01*
X001737Y007415D01*
X001329Y007415D01*
X001236Y007321D01*
X001236Y006716D01*
X001329Y006622D01*
X001339Y006622D01*
X001339Y006168D01*
X001468Y006039D01*
X001598Y005909D01*
X001567Y005896D01*
X001472Y005801D01*
X001421Y005676D01*
X001421Y005542D01*
X001472Y005417D01*
X001567Y005322D01*
X001692Y005271D01*
X001826Y005271D01*
X001833Y005274D01*
X002389Y004718D01*
X002518Y004589D01*
X003218Y004589D01*
X003239Y004568D01*
X003239Y004218D01*
X003288Y004169D01*
X003271Y004126D01*
X003271Y003992D01*
X003322Y003867D01*
X003417Y003772D01*
X003542Y003721D01*
X003676Y003721D01*
X003789Y003767D01*
X004268Y003289D01*
X004437Y003289D01*
X004437Y003207D01*
X004531Y003113D01*
X004978Y003113D01*
X005072Y003207D01*
X005072Y003812D01*
X005025Y003859D01*
X005072Y003907D01*
X005072Y004512D01*
X005025Y004559D01*
X005072Y004607D01*
X005072Y005212D01*
X004998Y005285D01*
X005005Y005292D01*
X005023Y005323D01*
X005032Y005359D01*
X005032Y005496D01*
X004754Y005496D01*
X004754Y005574D01*
X004677Y005574D01*
X004677Y005832D01*
X004520Y005832D01*
X004484Y005823D01*
X004452Y005805D01*
X004426Y005778D01*
X004408Y005747D01*
X004398Y005711D01*
X004398Y005574D01*
X004677Y005574D01*
X004677Y005496D01*
X004398Y005496D01*
X004398Y005359D01*
X004408Y005323D01*
X004426Y005292D01*
X004452Y005265D01*
X004477Y005251D01*
X004459Y005234D01*
X004426Y005247D01*
X004292Y005247D01*
X004167Y005196D01*
X004072Y005101D01*
X004021Y004976D01*
X004021Y004969D01*
X003729Y005293D01*
X003729Y005300D01*
X003669Y005360D01*
X003612Y005424D01*
X003605Y005424D01*
X003600Y005429D01*
X003515Y005429D01*
X003433Y005433D01*
X003508Y005509D01*
X003589Y005704D01*
X003589Y005914D01*
X003508Y006109D01*
X003359Y006258D01*
X003237Y006309D01*
X003359Y006360D01*
X003508Y006509D01*
X003589Y006704D01*
X003589Y006914D01*
X003508Y007109D01*
X003359Y007258D01*
X003237Y007309D01*
X003359Y007360D01*
X003436Y007436D01*
X003438Y007435D01*
X003449Y007415D01*
X003477Y007395D01*
X003500Y007372D01*
X003521Y007363D01*
X003837Y007134D01*
X003649Y006946D01*
X003649Y006772D01*
X003772Y006649D01*
X003946Y006649D01*
X004168Y006871D01*
X004276Y006871D01*
X004398Y006921D01*
X004398Y006874D01*
X004677Y006874D01*
X004677Y007132D01*
X004544Y007132D01*
X004547Y007142D01*
X004547Y007266D01*
X004899Y007266D01*
X004899Y007132D01*
X004754Y007132D01*
X004754Y006874D01*
X004677Y006874D01*
X004677Y006796D01*
X004398Y006796D01*
X004398Y006659D01*
X004408Y006623D01*
X004426Y006592D01*
X004445Y006573D01*
X004378Y006507D01*
X004378Y006059D01*
X004472Y005966D01*
X004959Y005966D01*
X005052Y006059D01*
X005052Y006105D01*
X005302Y006355D01*
X005302Y006328D01*
X005339Y006240D01*
X005352Y006226D01*
X005299Y006226D01*
X005205Y006133D01*
X005205Y005685D01*
X005299Y005592D01*
X005519Y005592D01*
X005519Y005305D01*
X005240Y005305D01*
X005146Y005212D01*
X005146Y004607D01*
X005193Y004559D01*
X005146Y004512D01*
X005146Y003907D01*
X005193Y003859D01*
X005146Y003812D01*
X005146Y003207D01*
X005240Y003113D01*
X005687Y003113D01*
X005781Y003207D01*
X005781Y003269D01*
X005807Y003269D01*
X005895Y003306D01*
X005962Y003373D01*
X005999Y003461D01*
X005999Y003730D01*
X006123Y003606D01*
X006137Y003600D01*
X006137Y003507D01*
X006231Y003413D01*
X006666Y003413D01*
X006649Y003396D01*
X006649Y002922D01*
X006799Y002772D01*
X006922Y002649D01*
X007971Y002649D01*
X007941Y002609D01*
X006771Y002608D01*
X006771Y002669D01*
X006677Y002763D01*
X006746Y002694D02*
X006877Y002694D01*
X006799Y002773D02*
X002858Y002773D01*
X002936Y002694D02*
X004457Y002694D01*
X004451Y002689D02*
X004433Y002657D01*
X004423Y002621D01*
X004423Y002367D01*
X004799Y002367D01*
X004799Y002287D01*
X004879Y002287D01*
X004879Y001911D01*
X005133Y001911D01*
X005169Y001921D01*
X005201Y001939D01*
X005227Y001965D01*
X005245Y001997D01*
X005255Y002033D01*
X005255Y002287D01*
X004879Y002287D01*
X004879Y002367D01*
X005255Y002367D01*
X005255Y002621D01*
X005245Y002657D01*
X005227Y002689D01*
X005201Y002715D01*
X005169Y002733D01*
X005133Y002743D01*
X004879Y002743D01*
X004879Y002367D01*
X004799Y002367D01*
X004799Y002743D01*
X004545Y002743D01*
X004509Y002733D01*
X004477Y002715D01*
X004451Y002689D01*
X004423Y002616D02*
X003015Y002616D01*
X003036Y002595D02*
X002595Y003036D01*
X002196Y003515D01*
X001844Y004030D01*
X001541Y004574D01*
X001289Y005145D01*
X001091Y005736D01*
X000948Y006343D01*
X000862Y006960D01*
X000833Y007583D01*
X000862Y008206D01*
X000948Y008823D01*
X001091Y009430D01*
X001289Y010021D01*
X001541Y010592D01*
X001844Y011136D01*
X002196Y011651D01*
X002595Y012130D01*
X003036Y012571D01*
X003515Y012970D01*
X004030Y013322D01*
X004574Y013625D01*
X005145Y013877D01*
X005736Y014075D01*
X006343Y014218D01*
X006960Y014304D01*
X007583Y014333D01*
X008206Y014304D01*
X008823Y014218D01*
X009430Y014075D01*
X010021Y013877D01*
X010592Y013625D01*
X011136Y013322D01*
X011651Y012970D01*
X012130Y012571D01*
X012571Y012130D01*
X012970Y011651D01*
X013322Y011136D01*
X013625Y010592D01*
X013877Y010021D01*
X014075Y009430D01*
X014218Y008823D01*
X014304Y008206D01*
X014333Y007583D01*
X014304Y006960D01*
X014218Y006343D01*
X014075Y005736D01*
X013877Y005145D01*
X013625Y004574D01*
X013322Y004030D01*
X012970Y003515D01*
X012571Y003036D01*
X012130Y002595D01*
X011651Y002196D01*
X011136Y001844D01*
X010592Y001541D01*
X010021Y001289D01*
X009430Y001091D01*
X008823Y000948D01*
X008206Y000862D01*
X007583Y000833D01*
X006960Y000862D01*
X006343Y000948D01*
X005736Y001091D01*
X005145Y001289D01*
X004574Y001541D01*
X004030Y001844D01*
X003515Y002196D01*
X003036Y002595D01*
X003105Y002537D02*
X004423Y002537D01*
X004423Y002459D02*
X003200Y002459D01*
X003294Y002380D02*
X004423Y002380D01*
X004423Y002287D02*
X004423Y002033D01*
X004433Y001997D01*
X004451Y001965D01*
X004477Y001939D01*
X004509Y001921D01*
X004545Y001911D01*
X004799Y001911D01*
X004799Y002287D01*
X004423Y002287D01*
X004423Y002223D02*
X003483Y002223D01*
X003389Y002302D02*
X004799Y002302D01*
X004799Y002380D02*
X004879Y002380D01*
X004879Y002302D02*
X005899Y002302D01*
X005899Y002380D02*
X005255Y002380D01*
X005255Y002459D02*
X005899Y002459D01*
X005899Y002537D02*
X005255Y002537D01*
X005255Y002616D02*
X005899Y002616D01*
X005925Y002694D02*
X005221Y002694D01*
X004879Y002694D02*
X004799Y002694D01*
X004799Y002616D02*
X004879Y002616D01*
X004879Y002537D02*
X004799Y002537D01*
X004799Y002459D02*
X004879Y002459D01*
X004879Y002223D02*
X004799Y002223D01*
X004799Y002145D02*
X004879Y002145D01*
X004879Y002066D02*
X004799Y002066D01*
X004799Y001988D02*
X004879Y001988D01*
X005239Y001988D02*
X005899Y001988D01*
X005899Y002066D02*
X005255Y002066D01*
X005255Y002145D02*
X005899Y002145D01*
X005899Y002223D02*
X005255Y002223D01*
X004629Y001517D02*
X010537Y001517D01*
X010689Y001595D02*
X004477Y001595D01*
X004336Y001674D02*
X008551Y001674D01*
X008492Y001752D02*
X008252Y001752D01*
X008359Y001831D02*
X008492Y001831D01*
X008490Y001909D02*
X008413Y001909D01*
X008446Y001988D02*
X008489Y001988D01*
X008492Y002066D02*
X008447Y002066D01*
X008440Y002145D02*
X008492Y002145D01*
X008495Y002223D02*
X008407Y002223D01*
X008410Y002302D02*
X008574Y002302D01*
X008469Y002380D02*
X009502Y002380D01*
X009547Y002302D02*
X009044Y002302D01*
X008888Y002537D02*
X008730Y002537D01*
X008752Y002616D02*
X008866Y002616D01*
X008866Y002694D02*
X008752Y002694D01*
X008752Y002773D02*
X008866Y002773D01*
X008866Y002851D02*
X008752Y002851D01*
X008752Y002930D02*
X008866Y002930D01*
X008527Y002459D02*
X009456Y002459D01*
X010142Y001674D02*
X010830Y001674D01*
X010971Y001752D02*
X010265Y001752D01*
X010433Y001831D02*
X011112Y001831D01*
X011231Y001909D02*
X010513Y001909D01*
X010594Y001988D02*
X011346Y001988D01*
X011460Y002066D02*
X010675Y002066D01*
X010783Y002145D02*
X011575Y002145D01*
X011683Y002223D02*
X010858Y002223D01*
X010891Y002302D02*
X010911Y002302D01*
X011123Y002302D02*
X011777Y002302D01*
X011872Y002380D02*
X011259Y002380D01*
X011395Y002459D02*
X011966Y002459D01*
X012061Y002537D02*
X011531Y002537D01*
X011584Y002616D02*
X012151Y002616D01*
X012230Y002694D02*
X011599Y002694D01*
X011554Y002773D02*
X012308Y002773D01*
X012387Y002851D02*
X011533Y002851D01*
X011529Y002930D02*
X012465Y002930D01*
X012544Y003008D02*
X011529Y003008D01*
X011529Y003087D02*
X012614Y003087D01*
X012679Y003165D02*
X011529Y003165D01*
X011543Y003244D02*
X012744Y003244D01*
X012809Y003322D02*
X011507Y003322D01*
X011453Y003401D02*
X012874Y003401D01*
X012940Y003479D02*
X011408Y003479D01*
X011363Y003558D02*
X012999Y003558D01*
X013052Y003636D02*
X011329Y003636D01*
X012091Y003715D02*
X013106Y003715D01*
X013160Y003793D02*
X012198Y003793D01*
X012212Y003872D02*
X013214Y003872D01*
X013267Y003950D02*
X012212Y003950D01*
X012212Y004029D02*
X013321Y004029D01*
X013365Y004107D02*
X012212Y004107D01*
X012212Y004186D02*
X013409Y004186D01*
X013453Y004264D02*
X012212Y004264D01*
X012212Y004343D02*
X013496Y004343D01*
X013540Y004421D02*
X012212Y004421D01*
X012212Y004500D02*
X013584Y004500D01*
X013627Y004578D02*
X013063Y004578D01*
X013178Y004657D02*
X013662Y004657D01*
X013696Y004735D02*
X013247Y004735D01*
X013294Y004814D02*
X013731Y004814D01*
X013766Y004892D02*
X013324Y004892D01*
X013340Y004971D02*
X013800Y004971D01*
X013835Y005049D02*
X012874Y005049D01*
X012874Y004971D02*
X012794Y004971D01*
X012794Y004994D02*
X012794Y004524D01*
X012794Y004524D01*
X012715Y004537D01*
X012638Y004561D01*
X012567Y004598D01*
X012502Y004645D01*
X012445Y004702D01*
X012398Y004767D01*
X012361Y004838D01*
X012337Y004915D01*
X012324Y004994D01*
X012324Y004994D01*
X012794Y004994D01*
X012794Y005049D02*
X011049Y005049D01*
X011049Y005115D02*
X012212Y005115D01*
X012212Y006314D01*
X012202Y006349D01*
X012184Y006381D01*
X012158Y006407D01*
X012126Y006426D01*
X012090Y006435D01*
X011049Y006435D01*
X011049Y005115D01*
X011049Y005128D02*
X010969Y005128D01*
X010969Y005206D02*
X011049Y005206D01*
X011049Y005285D02*
X010969Y005285D01*
X010969Y005363D02*
X011049Y005363D01*
X011049Y005442D02*
X010969Y005442D01*
X010969Y005520D02*
X011049Y005520D01*
X011049Y005599D02*
X010969Y005599D01*
X010969Y005677D02*
X011049Y005677D01*
X011049Y005756D02*
X010969Y005756D01*
X010969Y005834D02*
X011049Y005834D01*
X011049Y005913D02*
X010969Y005913D01*
X010969Y005991D02*
X011049Y005991D01*
X011049Y006070D02*
X010969Y006070D01*
X010969Y006148D02*
X011049Y006148D01*
X011049Y006227D02*
X010969Y006227D01*
X010969Y006305D02*
X011049Y006305D01*
X011049Y006384D02*
X010969Y006384D01*
X010942Y006605D02*
X011084Y006605D01*
X011216Y006659D01*
X011317Y006760D01*
X011355Y006852D01*
X011976Y007474D01*
X012170Y007474D01*
X012264Y007568D01*
X012264Y008330D01*
X012191Y008402D01*
X012188Y008420D01*
X012234Y008466D01*
X012234Y009150D01*
X012140Y009243D01*
X011378Y009243D01*
X011284Y009150D01*
X011284Y008466D01*
X011378Y008372D01*
X011539Y008372D01*
X011550Y008307D01*
X011550Y007952D01*
X010902Y007305D01*
X010810Y007267D01*
X010709Y007166D01*
X010655Y007034D01*
X010655Y006892D01*
X010709Y006760D01*
X010810Y006659D01*
X010942Y006605D01*
X010908Y006619D02*
X010336Y006619D01*
X010410Y006698D02*
X010772Y006698D01*
X010703Y006776D02*
X010442Y006776D01*
X010461Y006855D02*
X010670Y006855D01*
X010655Y006933D02*
X010461Y006933D01*
X010442Y007012D02*
X010655Y007012D01*
X010678Y007090D02*
X010409Y007090D01*
X010383Y007169D02*
X010712Y007169D01*
X010791Y007247D02*
X010383Y007247D01*
X010383Y007326D02*
X010923Y007326D01*
X011002Y007404D02*
X010383Y007404D01*
X010383Y007483D02*
X011080Y007483D01*
X011159Y007561D02*
X010462Y007561D01*
X010468Y007640D02*
X011237Y007640D01*
X011316Y007718D02*
X010489Y007718D01*
X010521Y007797D02*
X011394Y007797D01*
X011473Y007875D02*
X010872Y007875D01*
X010946Y007954D02*
X011550Y007954D01*
X011550Y008032D02*
X010946Y008032D01*
X010946Y008111D02*
X011550Y008111D01*
X011550Y008189D02*
X010946Y008189D01*
X010946Y008268D02*
X011550Y008268D01*
X011543Y008346D02*
X010946Y008346D01*
X010910Y008425D02*
X011325Y008425D01*
X011284Y008503D02*
X010946Y008503D01*
X010946Y008582D02*
X011284Y008582D01*
X011284Y008660D02*
X010946Y008660D01*
X010946Y008739D02*
X011284Y008739D01*
X011284Y008817D02*
X010946Y008817D01*
X010920Y008896D02*
X011284Y008896D01*
X011284Y008974D02*
X010907Y008974D01*
X010906Y009053D02*
X011284Y009053D01*
X011284Y009131D02*
X010968Y009131D01*
X010976Y009210D02*
X011344Y009210D01*
X011426Y009495D02*
X011719Y009495D01*
X011719Y009870D01*
X011304Y009870D01*
X011304Y009616D01*
X011314Y009581D01*
X011332Y009549D01*
X011358Y009523D01*
X011390Y009504D01*
X011426Y009495D01*
X011357Y009524D02*
X010976Y009524D01*
X010976Y009445D02*
X012496Y009445D01*
X012417Y009367D02*
X010976Y009367D01*
X010976Y009288D02*
X012366Y009288D01*
X012333Y009210D02*
X012174Y009210D01*
X012234Y009131D02*
X012304Y009131D01*
X012304Y009053D02*
X012234Y009053D01*
X012234Y008974D02*
X012304Y008974D01*
X012318Y008896D02*
X012234Y008896D01*
X012234Y008817D02*
X012350Y008817D01*
X012383Y008739D02*
X012234Y008739D01*
X012234Y008660D02*
X012458Y008660D01*
X012541Y008582D02*
X012234Y008582D01*
X012234Y008503D02*
X012581Y008503D01*
X012475Y008425D02*
X012193Y008425D01*
X012247Y008346D02*
X012397Y008346D01*
X012357Y008268D02*
X012264Y008268D01*
X012264Y008189D02*
X012325Y008189D01*
X012304Y008111D02*
X012264Y008111D01*
X012264Y008032D02*
X012304Y008032D01*
X012304Y007954D02*
X012264Y007954D01*
X012264Y007875D02*
X012326Y007875D01*
X012359Y007797D02*
X012264Y007797D01*
X012264Y007718D02*
X012400Y007718D01*
X012479Y007640D02*
X012264Y007640D01*
X012257Y007561D02*
X012591Y007561D01*
X012533Y007483D02*
X012179Y007483D01*
X012381Y007326D02*
X011828Y007326D01*
X011907Y007404D02*
X012455Y007404D01*
X012349Y007247D02*
X011750Y007247D01*
X011671Y007169D02*
X012316Y007169D01*
X012304Y007090D02*
X011593Y007090D01*
X011514Y007012D02*
X012304Y007012D01*
X012304Y006933D02*
X011436Y006933D01*
X011357Y006855D02*
X012335Y006855D01*
X012367Y006776D02*
X011323Y006776D01*
X011254Y006698D02*
X012421Y006698D01*
X012499Y006619D02*
X011118Y006619D01*
X010188Y006541D02*
X012640Y006541D01*
X012556Y006462D02*
X009614Y006462D01*
X009614Y006464D02*
X009614Y006718D01*
X009199Y006718D01*
X009199Y006798D01*
X009119Y006798D01*
X009119Y007173D01*
X008826Y007173D01*
X008790Y007164D01*
X008758Y007145D01*
X008732Y007119D01*
X008714Y007087D01*
X008704Y007052D01*
X008704Y006798D01*
X009119Y006798D01*
X009119Y006718D01*
X008704Y006718D01*
X008704Y006464D01*
X008714Y006428D01*
X008732Y006396D01*
X008758Y006370D01*
X008790Y006352D01*
X008826Y006342D01*
X009119Y006342D01*
X009119Y006718D01*
X009199Y006718D01*
X009199Y006342D01*
X009492Y006342D01*
X009528Y006352D01*
X009560Y006370D01*
X009586Y006396D01*
X009604Y006428D01*
X009614Y006464D01*
X009614Y006541D02*
X010018Y006541D01*
X009871Y006619D02*
X009614Y006619D01*
X009614Y006698D02*
X009796Y006698D01*
X009764Y006776D02*
X009199Y006776D01*
X009199Y006798D02*
X009614Y006798D01*
X009614Y007052D01*
X009604Y007087D01*
X009586Y007119D01*
X009560Y007145D01*
X009528Y007164D01*
X009492Y007173D01*
X009199Y007173D01*
X009199Y006798D01*
X009199Y006855D02*
X009119Y006855D01*
X009119Y006933D02*
X009199Y006933D01*
X009199Y007012D02*
X009119Y007012D01*
X009119Y007090D02*
X009199Y007090D01*
X009199Y007169D02*
X009119Y007169D01*
X008807Y007169D02*
X006544Y007169D01*
X006503Y007247D02*
X009823Y007247D01*
X009823Y007169D02*
X009511Y007169D01*
X009603Y007090D02*
X009797Y007090D01*
X009765Y007012D02*
X009614Y007012D01*
X009614Y006933D02*
X009745Y006933D01*
X009745Y006855D02*
X009614Y006855D01*
X009199Y006698D02*
X009119Y006698D01*
X009119Y006776D02*
X008623Y006776D01*
X008623Y006698D02*
X008704Y006698D01*
X008704Y006619D02*
X008623Y006619D01*
X008623Y006618D02*
X008623Y006901D01*
X008613Y006937D01*
X008595Y006969D01*
X008569Y006995D01*
X008537Y007013D01*
X008501Y007023D01*
X008368Y007023D01*
X008368Y006618D01*
X008623Y006618D01*
X008623Y006541D02*
X008704Y006541D01*
X008705Y006462D02*
X008623Y006462D01*
X008623Y006384D02*
X008745Y006384D01*
X008623Y006305D02*
X009806Y006305D01*
X009806Y006227D02*
X008612Y006227D01*
X008796Y006148D02*
X009806Y006148D01*
X009806Y006070D02*
X009060Y006070D01*
X009138Y005991D02*
X009806Y005991D01*
X009806Y005913D02*
X009217Y005913D01*
X009295Y005834D02*
X009806Y005834D01*
X009806Y005756D02*
X009374Y005756D01*
X009429Y005677D02*
X009806Y005677D01*
X009806Y005599D02*
X009444Y005599D01*
X009522Y005520D02*
X009806Y005520D01*
X009806Y005442D02*
X009531Y005442D01*
X009531Y005363D02*
X009806Y005363D01*
X009806Y005285D02*
X009531Y005285D01*
X009531Y005206D02*
X009806Y005206D01*
X009806Y005128D02*
X009531Y005128D01*
X009531Y005049D02*
X010969Y005049D01*
X009806Y004971D02*
X009531Y004971D01*
X009516Y004892D02*
X009806Y004892D01*
X009806Y004814D02*
X009529Y004814D01*
X009531Y004735D02*
X009806Y004735D01*
X009806Y004657D02*
X009531Y004657D01*
X009531Y004578D02*
X009806Y004578D01*
X009806Y004500D02*
X009534Y004500D01*
X009612Y004421D02*
X009806Y004421D01*
X009806Y004343D02*
X009691Y004343D01*
X009769Y004264D02*
X009806Y004264D01*
X008297Y005991D02*
X008212Y005991D01*
X008134Y006070D02*
X008341Y006070D01*
X008368Y006148D02*
X008298Y006148D01*
X008298Y006227D02*
X008368Y006227D01*
X008368Y006305D02*
X008298Y006305D01*
X008298Y006384D02*
X008368Y006384D01*
X008368Y006462D02*
X008298Y006462D01*
X008298Y006541D02*
X008368Y006541D01*
X008368Y006619D02*
X008298Y006619D01*
X008298Y006698D02*
X008368Y006698D01*
X008368Y006776D02*
X008298Y006776D01*
X008298Y006855D02*
X008368Y006855D01*
X008368Y006933D02*
X008298Y006933D01*
X008298Y007012D02*
X008368Y007012D01*
X008540Y007012D02*
X008704Y007012D01*
X008715Y007090D02*
X006623Y007090D01*
X006503Y007326D02*
X007230Y007326D01*
X007388Y007326D02*
X009823Y007326D01*
X009823Y007404D02*
X008725Y007404D01*
X008665Y007379D02*
X008665Y007379D01*
X008704Y006933D02*
X008615Y006933D01*
X008623Y006855D02*
X008704Y006855D01*
X009119Y006619D02*
X009199Y006619D01*
X009199Y006541D02*
X009119Y006541D01*
X009119Y006462D02*
X009199Y006462D01*
X009199Y006384D02*
X009119Y006384D01*
X009573Y006384D02*
X009836Y006384D01*
X009823Y007483D02*
X009598Y007483D01*
X009634Y007561D02*
X009761Y007561D01*
X009755Y008189D02*
X009634Y008189D01*
X009568Y008268D02*
X009755Y008268D01*
X009771Y008346D02*
X008623Y008346D01*
X008623Y008268D02*
X008750Y008268D01*
X008684Y008189D02*
X008587Y008189D01*
X008595Y008197D02*
X008613Y008229D01*
X008623Y008265D01*
X008623Y008548D01*
X008368Y008548D01*
X008368Y008143D01*
X008501Y008143D01*
X008537Y008153D01*
X008569Y008171D01*
X008595Y008197D01*
X008683Y008111D02*
X006658Y008111D01*
X006579Y008032D02*
X008586Y008032D01*
X008508Y007954D02*
X007482Y007954D01*
X007136Y007954D02*
X006503Y007954D01*
X006503Y007875D02*
X007046Y007875D01*
X007000Y007797D02*
X006503Y007797D01*
X006503Y007718D02*
X006971Y007718D01*
X006971Y007640D02*
X006503Y007640D01*
X006503Y007561D02*
X006983Y007561D01*
X007016Y007483D02*
X006503Y007483D01*
X006503Y007404D02*
X007085Y007404D01*
X007081Y007012D02*
X008126Y007012D01*
X008052Y006933D02*
X007143Y006933D01*
X007143Y006855D02*
X008043Y006855D01*
X008043Y006776D02*
X007143Y006776D01*
X007447Y006698D02*
X007731Y006698D01*
X008137Y006148D02*
X008146Y006148D01*
X008165Y008143D02*
X008298Y008143D01*
X008298Y008548D01*
X008368Y008548D01*
X008368Y008618D01*
X008298Y008618D01*
X008298Y008548D01*
X008043Y008548D01*
X008043Y008265D01*
X008053Y008229D01*
X008071Y008197D01*
X008097Y008171D01*
X008129Y008153D01*
X008165Y008143D01*
X008079Y008189D02*
X007115Y008189D01*
X007143Y008268D02*
X008043Y008268D01*
X008043Y008346D02*
X007143Y008346D01*
X007143Y008425D02*
X008043Y008425D01*
X008043Y008503D02*
X007143Y008503D01*
X007143Y008582D02*
X008298Y008582D01*
X008298Y008618D02*
X008043Y008618D01*
X008043Y008901D01*
X008053Y008937D01*
X008071Y008969D01*
X008097Y008995D01*
X008129Y009013D01*
X008165Y009023D01*
X008298Y009023D01*
X008298Y008618D01*
X008298Y008660D02*
X008368Y008660D01*
X008368Y008582D02*
X008822Y008582D01*
X008868Y008503D02*
X008623Y008503D01*
X008623Y008425D02*
X009870Y008425D01*
X009688Y008503D02*
X009630Y008503D01*
X009630Y008582D02*
X009688Y008582D01*
X009688Y008660D02*
X009630Y008660D01*
X008761Y008660D02*
X008623Y008660D01*
X008623Y008739D02*
X008682Y008739D01*
X008599Y008974D02*
X008590Y008974D01*
X008599Y009053D02*
X007622Y009053D01*
X007701Y009131D02*
X008599Y009131D01*
X008599Y009210D02*
X007779Y009210D01*
X007858Y009288D02*
X008599Y009288D01*
X008599Y009367D02*
X007936Y009367D01*
X008015Y009445D02*
X008599Y009445D01*
X008599Y009524D02*
X008093Y009524D01*
X008172Y009602D02*
X008599Y009602D01*
X008599Y009681D02*
X008250Y009681D01*
X008329Y009759D02*
X008583Y009759D01*
X008483Y009838D02*
X008407Y009838D01*
X009191Y010621D02*
X009348Y010778D01*
X009348Y010911D01*
X008901Y011358D01*
X008805Y011358D01*
X008803Y011360D01*
X008901Y011360D01*
X009348Y011807D01*
X009348Y011907D01*
X009650Y011727D01*
X009607Y011684D01*
X009607Y011591D01*
X009582Y011591D01*
X009546Y011581D01*
X009514Y011563D01*
X009424Y011473D01*
X009628Y011269D01*
X009587Y011228D01*
X009628Y011187D01*
X009452Y011011D01*
X009570Y010893D01*
X009602Y010875D01*
X009637Y010865D01*
X009674Y010865D01*
X009710Y010875D01*
X009742Y010893D01*
X009832Y010983D01*
X009628Y011187D01*
X009669Y011228D01*
X009869Y011028D01*
X009869Y010611D01*
X009875Y010597D01*
X009868Y010597D01*
X009846Y010619D01*
X009193Y010619D01*
X009191Y010621D01*
X009192Y010623D02*
X009869Y010623D01*
X009869Y010701D02*
X009271Y010701D01*
X009348Y010780D02*
X009869Y010780D01*
X009869Y010858D02*
X009348Y010858D01*
X009322Y010937D02*
X009527Y010937D01*
X009456Y011015D02*
X009244Y011015D01*
X009165Y011094D02*
X009370Y011094D01*
X009411Y011052D02*
X009293Y011170D01*
X009275Y011202D01*
X009265Y011237D01*
X009265Y011274D01*
X009275Y011310D01*
X009293Y011342D01*
X009383Y011432D01*
X009587Y011228D01*
X009411Y011052D01*
X009453Y011094D02*
X009534Y011094D01*
X009531Y011172D02*
X009613Y011172D01*
X009643Y011172D02*
X009725Y011172D01*
X009722Y011094D02*
X009803Y011094D01*
X009800Y011015D02*
X009869Y011015D01*
X009869Y010937D02*
X009785Y010937D01*
X009610Y011251D02*
X009565Y011251D01*
X009568Y011329D02*
X009486Y011329D01*
X009489Y011408D02*
X009408Y011408D01*
X009359Y011408D02*
X008948Y011408D01*
X008930Y011329D02*
X009286Y011329D01*
X009265Y011251D02*
X009008Y011251D01*
X009087Y011172D02*
X009292Y011172D01*
X009438Y011486D02*
X009027Y011486D01*
X009105Y011565D02*
X009517Y011565D01*
X009607Y011643D02*
X009184Y011643D01*
X009262Y011722D02*
X009645Y011722D01*
X009527Y011800D02*
X009341Y011800D01*
X009348Y011879D02*
X009395Y011879D01*
X008482Y012193D02*
X008439Y012193D01*
X008403Y012114D02*
X008361Y012114D01*
X008325Y012036D02*
X008282Y012036D01*
X008246Y011957D02*
X008204Y011957D01*
X008199Y011957D02*
X006569Y011957D01*
X006569Y011879D02*
X008278Y011879D01*
X008217Y011800D02*
X006569Y011800D01*
X006569Y011722D02*
X008138Y011722D01*
X008060Y011643D02*
X006569Y011643D01*
X006569Y011565D02*
X007981Y011565D01*
X007903Y011486D02*
X006569Y011486D01*
X006555Y011408D02*
X007824Y011408D01*
X007746Y011329D02*
X006497Y011329D01*
X006497Y011251D02*
X007667Y011251D01*
X007589Y011172D02*
X006469Y011172D01*
X006422Y011094D02*
X007510Y011094D01*
X007432Y011015D02*
X006334Y011015D01*
X005984Y011015D02*
X005493Y011015D01*
X005571Y010937D02*
X007353Y010937D01*
X007275Y010858D02*
X005650Y010858D01*
X005728Y010780D02*
X006799Y010780D01*
X006672Y010701D02*
X005807Y010701D01*
X005885Y010623D02*
X006610Y010623D01*
X006578Y010544D02*
X005964Y010544D01*
X006042Y010466D02*
X006571Y010466D01*
X006573Y010387D02*
X006092Y010387D01*
X006110Y010309D02*
X006152Y010309D01*
X006171Y010309D02*
X006605Y010309D01*
X006659Y010230D02*
X006278Y010230D01*
X006356Y010152D02*
X006767Y010152D01*
X006796Y010073D02*
X006435Y010073D01*
X006513Y009995D02*
X006743Y009995D01*
X006743Y009916D02*
X006592Y009916D01*
X006670Y009838D02*
X006743Y009838D01*
X007163Y009210D02*
X007168Y009210D01*
X007163Y009131D02*
X007246Y009131D01*
X007325Y009053D02*
X007100Y009053D01*
X007118Y008974D02*
X007403Y008974D01*
X007544Y008974D02*
X008076Y008974D01*
X008043Y008896D02*
X007143Y008896D01*
X007143Y008817D02*
X008043Y008817D01*
X008043Y008739D02*
X007143Y008739D01*
X007143Y008660D02*
X008043Y008660D01*
X008298Y008739D02*
X008368Y008739D01*
X008368Y008817D02*
X008298Y008817D01*
X008298Y008896D02*
X008368Y008896D01*
X008368Y008974D02*
X008298Y008974D01*
X008298Y008503D02*
X008368Y008503D01*
X008368Y008425D02*
X008298Y008425D01*
X008298Y008346D02*
X008368Y008346D01*
X008368Y008268D02*
X008298Y008268D01*
X008298Y008189D02*
X008368Y008189D01*
X006523Y008570D02*
X006206Y008253D01*
X006083Y008130D01*
X006083Y007774D01*
X005995Y007862D01*
X005907Y007899D01*
X005849Y007899D01*
X005849Y008255D01*
X005879Y008285D01*
X005879Y008658D01*
X006049Y008828D01*
X006090Y008787D01*
X006131Y008828D01*
X006307Y008652D01*
X006425Y008770D01*
X006443Y008802D01*
X006453Y008837D01*
X006453Y008874D01*
X006443Y008910D01*
X006425Y008942D01*
X006397Y008970D01*
X006511Y008970D01*
X006623Y009082D01*
X006623Y009043D01*
X006617Y009043D01*
X006523Y008949D01*
X006523Y008570D01*
X006523Y008582D02*
X006236Y008582D01*
X006266Y008611D02*
X006090Y008787D01*
X005886Y008583D01*
X005976Y008493D01*
X006008Y008475D01*
X006044Y008465D01*
X006081Y008465D01*
X006116Y008475D01*
X006148Y008493D01*
X006266Y008611D01*
X006299Y008660D02*
X006217Y008660D01*
X006220Y008739D02*
X006139Y008739D01*
X006142Y008817D02*
X006120Y008817D01*
X006060Y008817D02*
X006038Y008817D01*
X006041Y008739D02*
X005960Y008739D01*
X005963Y008660D02*
X005881Y008660D01*
X005879Y008582D02*
X005888Y008582D01*
X005879Y008503D02*
X005966Y008503D01*
X005879Y008425D02*
X006378Y008425D01*
X006456Y008503D02*
X006158Y008503D01*
X006299Y008346D02*
X005879Y008346D01*
X005862Y008268D02*
X006221Y008268D01*
X006142Y008189D02*
X005849Y008189D01*
X005849Y008111D02*
X006083Y008111D01*
X006083Y008032D02*
X005849Y008032D01*
X005849Y007954D02*
X006083Y007954D01*
X006083Y007875D02*
X005965Y007875D01*
X006061Y007797D02*
X006083Y007797D01*
X006315Y008660D02*
X006523Y008660D01*
X006523Y008739D02*
X006393Y008739D01*
X006447Y008817D02*
X006523Y008817D01*
X006523Y008896D02*
X006447Y008896D01*
X006515Y008974D02*
X006548Y008974D01*
X006593Y009053D02*
X006623Y009053D01*
X005760Y009916D02*
X005718Y009916D01*
X005669Y009868D02*
X005854Y010053D01*
X005875Y010031D01*
X005669Y009825D01*
X005669Y009868D01*
X005669Y009838D02*
X005681Y009838D01*
X005796Y009995D02*
X005838Y009995D01*
X005876Y010073D02*
X005917Y010073D01*
X005953Y010152D02*
X005995Y010152D01*
X006032Y010230D02*
X006074Y010230D01*
X005896Y011094D02*
X005414Y011094D01*
X005336Y011172D02*
X005849Y011172D01*
X005821Y011251D02*
X005257Y011251D01*
X005179Y011329D02*
X005821Y011329D01*
X005834Y011408D02*
X005197Y011408D01*
X005276Y011486D02*
X005803Y011486D01*
X005725Y011565D02*
X005354Y011565D01*
X005433Y011643D02*
X005691Y011643D01*
X005671Y011722D02*
X005511Y011722D01*
X005590Y011800D02*
X005671Y011800D01*
X005668Y011879D02*
X005692Y011879D01*
X004970Y011408D02*
X004323Y011408D01*
X004312Y011486D02*
X004891Y011486D01*
X004813Y011565D02*
X004252Y011565D01*
X004174Y011643D02*
X004734Y011643D01*
X004656Y011722D02*
X004095Y011722D01*
X004017Y011800D02*
X004577Y011800D01*
X004570Y011879D02*
X004546Y011879D01*
X004372Y011879D02*
X003410Y011879D01*
X003463Y011800D02*
X003786Y011800D01*
X003707Y011722D02*
X003463Y011722D01*
X003413Y011643D02*
X003629Y011643D01*
X003550Y011565D02*
X003335Y011565D01*
X003299Y011486D02*
X003519Y011486D01*
X003519Y011408D02*
X003299Y011408D01*
X003299Y011329D02*
X003590Y011329D01*
X003665Y011251D02*
X003367Y011251D01*
X003445Y011172D02*
X003714Y011172D01*
X003764Y011094D02*
X003515Y011094D01*
X003547Y011015D02*
X003789Y011015D01*
X003789Y010937D02*
X003580Y010937D01*
X003589Y010858D02*
X003789Y010858D01*
X003789Y010780D02*
X003589Y010780D01*
X003588Y010701D02*
X003789Y010701D01*
X003789Y010623D02*
X003555Y010623D01*
X003523Y010544D02*
X003789Y010544D01*
X003789Y010466D02*
X003465Y010466D01*
X003387Y010387D02*
X003789Y010387D01*
X003789Y010309D02*
X003236Y010309D01*
X003347Y010230D02*
X003789Y010230D01*
X003789Y010152D02*
X003438Y010152D01*
X003497Y010073D02*
X003789Y010073D01*
X003789Y009995D02*
X003535Y009995D01*
X003558Y009916D02*
X003789Y009916D01*
X003789Y009838D02*
X003099Y009838D01*
X003019Y009838D02*
X001227Y009838D01*
X001254Y009916D02*
X002560Y009916D01*
X002549Y009849D02*
X002549Y009849D01*
X002551Y009759D02*
X001201Y009759D01*
X001175Y009681D02*
X002565Y009681D01*
X002592Y009602D02*
X001148Y009602D01*
X001122Y009524D02*
X002636Y009524D01*
X002702Y009445D02*
X001982Y009445D01*
X001836Y009445D02*
X001096Y009445D01*
X001076Y009367D02*
X001688Y009367D01*
X001617Y009288D02*
X001057Y009288D01*
X001039Y009210D02*
X001584Y009210D01*
X001571Y009131D02*
X001020Y009131D01*
X001002Y009053D02*
X001433Y009053D01*
X001345Y008974D02*
X000983Y008974D01*
X000965Y008896D02*
X001299Y008896D01*
X001271Y008817D02*
X000947Y008817D01*
X000936Y008739D02*
X001271Y008739D01*
X001284Y008660D02*
X000925Y008660D01*
X000914Y008582D02*
X001315Y008582D01*
X001237Y008503D02*
X000903Y008503D01*
X000892Y008425D02*
X001236Y008425D01*
X001236Y008346D02*
X000881Y008346D01*
X000870Y008268D02*
X001236Y008268D01*
X001236Y008189D02*
X000861Y008189D01*
X000857Y008111D02*
X001236Y008111D01*
X001236Y008032D02*
X000854Y008032D01*
X000850Y007954D02*
X001236Y007954D01*
X001258Y007875D02*
X000847Y007875D01*
X000843Y007797D02*
X002057Y007797D01*
X001979Y007718D02*
X000839Y007718D01*
X000836Y007640D02*
X001900Y007640D01*
X001857Y007561D02*
X000834Y007561D01*
X000838Y007483D02*
X001845Y007483D01*
X001845Y007404D02*
X001748Y007404D01*
X001319Y007404D02*
X000841Y007404D01*
X000845Y007326D02*
X001240Y007326D01*
X001236Y007247D02*
X000849Y007247D01*
X000852Y007169D02*
X001236Y007169D01*
X001236Y007090D02*
X000856Y007090D01*
X000859Y007012D02*
X001236Y007012D01*
X001236Y006933D02*
X000866Y006933D01*
X000877Y006855D02*
X001236Y006855D01*
X001236Y006776D02*
X000888Y006776D01*
X000898Y006698D02*
X001254Y006698D01*
X001339Y006619D02*
X000909Y006619D01*
X000920Y006541D02*
X001339Y006541D01*
X001339Y006462D02*
X000931Y006462D01*
X000942Y006384D02*
X001339Y006384D01*
X001339Y006305D02*
X000957Y006305D01*
X000975Y006227D02*
X001339Y006227D01*
X001359Y006148D02*
X000994Y006148D01*
X001012Y006070D02*
X001437Y006070D01*
X001516Y005991D02*
X001031Y005991D01*
X001049Y005913D02*
X001594Y005913D01*
X001505Y005834D02*
X001068Y005834D01*
X001086Y005756D02*
X001453Y005756D01*
X001421Y005677D02*
X001110Y005677D01*
X001137Y005599D02*
X001421Y005599D01*
X001430Y005520D02*
X001163Y005520D01*
X001189Y005442D02*
X001462Y005442D01*
X001526Y005363D02*
X001216Y005363D01*
X001242Y005285D02*
X001658Y005285D01*
X001901Y005206D02*
X001268Y005206D01*
X001296Y005128D02*
X001979Y005128D01*
X002058Y005049D02*
X001331Y005049D01*
X001366Y004971D02*
X002136Y004971D01*
X002215Y004892D02*
X001400Y004892D01*
X001435Y004814D02*
X002293Y004814D01*
X002372Y004735D02*
X001470Y004735D01*
X001504Y004657D02*
X002450Y004657D01*
X001845Y004029D02*
X003271Y004029D01*
X003271Y004107D02*
X001801Y004107D01*
X001757Y004186D02*
X003271Y004186D01*
X003239Y004264D02*
X001713Y004264D01*
X001670Y004343D02*
X003239Y004343D01*
X003239Y004421D02*
X001626Y004421D01*
X001582Y004500D02*
X003239Y004500D01*
X003229Y004578D02*
X001539Y004578D01*
X001899Y003950D02*
X003288Y003950D01*
X003320Y003872D02*
X001952Y003872D01*
X002006Y003793D02*
X003396Y003793D01*
X003842Y003715D02*
X002060Y003715D01*
X002114Y003636D02*
X003921Y003636D01*
X003999Y003558D02*
X002167Y003558D01*
X002226Y003479D02*
X004078Y003479D01*
X004156Y003401D02*
X002292Y003401D01*
X002357Y003322D02*
X004235Y003322D01*
X004437Y003244D02*
X002422Y003244D01*
X002487Y003165D02*
X004479Y003165D01*
X005031Y003165D02*
X005187Y003165D01*
X005146Y003244D02*
X005072Y003244D01*
X005072Y003322D02*
X005146Y003322D01*
X005146Y003401D02*
X005072Y003401D01*
X005072Y003479D02*
X005146Y003479D01*
X005146Y003558D02*
X005072Y003558D01*
X005072Y003636D02*
X005146Y003636D01*
X005146Y003715D02*
X005072Y003715D01*
X005072Y003793D02*
X005146Y003793D01*
X005181Y003872D02*
X005037Y003872D01*
X005072Y003950D02*
X005146Y003950D01*
X005146Y004029D02*
X005072Y004029D01*
X005072Y004107D02*
X005146Y004107D01*
X005146Y004186D02*
X005072Y004186D01*
X005072Y004264D02*
X005146Y004264D01*
X005146Y004343D02*
X005072Y004343D01*
X005072Y004421D02*
X005146Y004421D01*
X005146Y004500D02*
X005072Y004500D01*
X005044Y004578D02*
X005174Y004578D01*
X005146Y004657D02*
X005072Y004657D01*
X005072Y004735D02*
X005146Y004735D01*
X005146Y004814D02*
X005072Y004814D01*
X005072Y004892D02*
X005146Y004892D01*
X005146Y004971D02*
X005072Y004971D01*
X005072Y005049D02*
X005146Y005049D01*
X005146Y005128D02*
X005072Y005128D01*
X005072Y005206D02*
X005146Y005206D01*
X005219Y005285D02*
X004999Y005285D01*
X005032Y005363D02*
X005519Y005363D01*
X005519Y005442D02*
X005032Y005442D01*
X005032Y005574D02*
X005032Y005711D01*
X005023Y005747D01*
X005005Y005778D01*
X004978Y005805D01*
X004947Y005823D01*
X004911Y005832D01*
X004754Y005832D01*
X004754Y005574D01*
X005032Y005574D01*
X005032Y005599D02*
X005292Y005599D01*
X005213Y005677D02*
X005032Y005677D01*
X005018Y005756D02*
X005205Y005756D01*
X005205Y005834D02*
X003589Y005834D01*
X003589Y005756D02*
X004413Y005756D01*
X004398Y005677D02*
X003578Y005677D01*
X003546Y005599D02*
X004398Y005599D01*
X004398Y005442D02*
X003441Y005442D01*
X003513Y005520D02*
X004677Y005520D01*
X004754Y005520D02*
X005519Y005520D01*
X005205Y005913D02*
X003589Y005913D01*
X003557Y005991D02*
X004446Y005991D01*
X004378Y006070D02*
X003525Y006070D01*
X003470Y006148D02*
X004378Y006148D01*
X004378Y006227D02*
X003391Y006227D01*
X003383Y006384D02*
X004378Y006384D01*
X004378Y006462D02*
X003462Y006462D01*
X003521Y006541D02*
X004412Y006541D01*
X004410Y006619D02*
X003554Y006619D01*
X003587Y006698D02*
X003723Y006698D01*
X003649Y006776D02*
X003589Y006776D01*
X003589Y006855D02*
X003649Y006855D01*
X003649Y006933D02*
X003581Y006933D01*
X003549Y007012D02*
X003715Y007012D01*
X003793Y007090D02*
X003516Y007090D01*
X003449Y007169D02*
X003789Y007169D01*
X003681Y007247D02*
X003371Y007247D01*
X003277Y007326D02*
X003573Y007326D01*
X003465Y007404D02*
X003404Y007404D01*
X004073Y006776D02*
X004398Y006776D01*
X004398Y006698D02*
X003995Y006698D01*
X004152Y006855D02*
X004677Y006855D01*
X004677Y006933D02*
X004754Y006933D01*
X004754Y007012D02*
X004677Y007012D01*
X004677Y007090D02*
X004754Y007090D01*
X004899Y007169D02*
X004547Y007169D01*
X004547Y007247D02*
X004899Y007247D01*
X005252Y006305D02*
X005312Y006305D01*
X005352Y006227D02*
X005174Y006227D01*
X005220Y006148D02*
X005095Y006148D01*
X005052Y006070D02*
X005205Y006070D01*
X005205Y005991D02*
X004984Y005991D01*
X004754Y005756D02*
X004677Y005756D01*
X004677Y005677D02*
X004754Y005677D01*
X004754Y005599D02*
X004677Y005599D01*
X004398Y005363D02*
X003666Y005363D01*
X003737Y005285D02*
X004433Y005285D01*
X004192Y005206D02*
X003808Y005206D01*
X003878Y005128D02*
X004099Y005128D01*
X004051Y005049D02*
X003949Y005049D01*
X004020Y004971D02*
X004021Y004971D01*
X004378Y006305D02*
X003246Y006305D01*
X004677Y008174D02*
X004677Y008432D01*
X004520Y008432D01*
X004484Y008423D01*
X004452Y008405D01*
X004426Y008378D01*
X004408Y008347D01*
X004398Y008311D01*
X004398Y008267D01*
X004169Y008496D01*
X004169Y009122D01*
X004193Y009146D01*
X004217Y009122D01*
X004342Y009071D01*
X004378Y009071D01*
X004378Y008659D01*
X004472Y008566D01*
X004899Y008566D01*
X004899Y008432D01*
X004754Y008432D01*
X004754Y008174D01*
X004677Y008174D01*
X004677Y008189D02*
X004754Y008189D01*
X004754Y008268D02*
X004677Y008268D01*
X004677Y008346D02*
X004754Y008346D01*
X004754Y008425D02*
X004677Y008425D01*
X004490Y008425D02*
X004240Y008425D01*
X004169Y008503D02*
X004899Y008503D01*
X004456Y008582D02*
X004169Y008582D01*
X004169Y008660D02*
X004378Y008660D01*
X004378Y008739D02*
X004169Y008739D01*
X004169Y008817D02*
X004378Y008817D01*
X004378Y008896D02*
X004169Y008896D01*
X004169Y008974D02*
X004378Y008974D01*
X004378Y009053D02*
X004169Y009053D01*
X004178Y009131D02*
X004208Y009131D01*
X003635Y009681D02*
X003554Y009681D01*
X003556Y009602D02*
X003526Y009602D01*
X003567Y009759D02*
X003713Y009759D01*
X003569Y009769D02*
X003569Y009769D01*
X002882Y010309D02*
X001416Y010309D01*
X001450Y010387D02*
X002731Y010387D01*
X002653Y010466D02*
X001485Y010466D01*
X001520Y010544D02*
X002595Y010544D01*
X002563Y010623D02*
X001558Y010623D01*
X001602Y010701D02*
X002530Y010701D01*
X002529Y010780D02*
X001645Y010780D01*
X001689Y010858D02*
X002529Y010858D01*
X002538Y010937D02*
X001733Y010937D01*
X001776Y011015D02*
X002571Y011015D01*
X002603Y011094D02*
X001820Y011094D01*
X001868Y011172D02*
X002673Y011172D01*
X002751Y011251D02*
X001922Y011251D01*
X001976Y011329D02*
X002819Y011329D01*
X002819Y011408D02*
X002030Y011408D01*
X002084Y011486D02*
X002818Y011486D01*
X002819Y011565D02*
X002137Y011565D01*
X002191Y011643D02*
X002747Y011643D01*
X002670Y011722D02*
X002255Y011722D01*
X002320Y011800D02*
X002670Y011800D01*
X002695Y011879D02*
X002386Y011879D01*
X002451Y011957D02*
X002773Y011957D01*
X002852Y012036D02*
X002516Y012036D01*
X002581Y012114D02*
X002930Y012114D01*
X003174Y012114D02*
X003334Y012114D01*
X003412Y012036D02*
X003253Y012036D01*
X003331Y011957D02*
X003491Y011957D01*
X003727Y011957D02*
X004232Y011957D01*
X004165Y012036D02*
X003806Y012036D01*
X003884Y012114D02*
X004132Y012114D01*
X004121Y012193D02*
X003963Y012193D01*
X003992Y012271D02*
X004121Y012271D01*
X004151Y012350D02*
X003992Y012350D01*
X004052Y012428D02*
X004199Y012428D01*
X004188Y012507D02*
X004293Y012507D01*
X004324Y012585D02*
X004471Y012585D01*
X004460Y012664D02*
X004486Y012664D01*
X004164Y012978D02*
X003527Y012978D01*
X003430Y012899D02*
X004028Y012899D01*
X003892Y012821D02*
X003336Y012821D01*
X003241Y012742D02*
X003748Y012742D01*
X003480Y012664D02*
X003147Y012664D01*
X003052Y012585D02*
X003401Y012585D01*
X003323Y012507D02*
X002971Y012507D01*
X002892Y012428D02*
X003244Y012428D01*
X003198Y012350D02*
X002814Y012350D01*
X002735Y012271D02*
X003198Y012271D01*
X003255Y012193D02*
X002657Y012193D01*
X003641Y013056D02*
X004300Y013056D01*
X004436Y013135D02*
X003756Y013135D01*
X003871Y013213D02*
X004572Y013213D01*
X004709Y013292D02*
X003985Y013292D01*
X004116Y013370D02*
X004845Y013370D01*
X004981Y013449D02*
X004257Y013449D01*
X004398Y013527D02*
X005117Y013527D01*
X005157Y013527D02*
X006157Y013527D01*
X006236Y013606D02*
X004539Y013606D01*
X004707Y013684D02*
X006314Y013684D01*
X006575Y013684D02*
X007343Y013684D01*
X007265Y013606D02*
X006653Y013606D01*
X006732Y013527D02*
X007186Y013527D01*
X007108Y013449D02*
X006810Y013449D01*
X006889Y013370D02*
X007029Y013370D01*
X007653Y013763D02*
X004885Y013763D01*
X005063Y013841D02*
X007884Y013841D01*
X008037Y013920D02*
X005271Y013920D01*
X005505Y013998D02*
X008058Y013998D01*
X008079Y014077D02*
X005741Y014077D01*
X006075Y014155D02*
X008100Y014155D01*
X008133Y014234D02*
X006454Y014234D01*
X007130Y014312D02*
X008036Y014312D01*
X008451Y014234D02*
X008712Y014234D01*
X008646Y014155D02*
X009091Y014155D01*
X008960Y014077D02*
X009425Y014077D01*
X009330Y013998D02*
X009661Y013998D01*
X009553Y013920D02*
X009895Y013920D01*
X010103Y013841D02*
X009599Y013841D01*
X009590Y013763D02*
X010281Y013763D01*
X010459Y013684D02*
X009568Y013684D01*
X009547Y013606D02*
X010627Y013606D01*
X010768Y013527D02*
X009966Y013527D01*
X009829Y013527D02*
X009526Y013527D01*
X009505Y013449D02*
X009754Y013449D01*
X009709Y013370D02*
X009484Y013370D01*
X009502Y013292D02*
X009664Y013292D01*
X009618Y013213D02*
X009525Y013213D01*
X009552Y013135D02*
X009598Y013135D01*
X009577Y013056D02*
X009572Y013056D01*
X010102Y013449D02*
X010909Y013449D01*
X011050Y013370D02*
X010238Y013370D01*
X010374Y013292D02*
X011181Y013292D01*
X011295Y013213D02*
X010456Y013213D01*
X010477Y013135D02*
X011410Y013135D01*
X011525Y013056D02*
X010472Y013056D01*
X010562Y012978D02*
X011639Y012978D01*
X011736Y012899D02*
X011053Y012899D01*
X011189Y012821D02*
X011830Y012821D01*
X011925Y012742D02*
X011325Y012742D01*
X011461Y012664D02*
X012019Y012664D01*
X012114Y012585D02*
X011489Y012585D01*
X011489Y012507D02*
X012195Y012507D01*
X012274Y012428D02*
X011494Y012428D01*
X011529Y012350D02*
X012352Y012350D01*
X012431Y012271D02*
X011529Y012271D01*
X011529Y012193D02*
X012509Y012193D01*
X012585Y012114D02*
X011529Y012114D01*
X011529Y012036D02*
X012650Y012036D01*
X012715Y011957D02*
X011529Y011957D01*
X011529Y011879D02*
X012781Y011879D01*
X012846Y011800D02*
X011596Y011800D01*
X011629Y011722D02*
X012911Y011722D01*
X012975Y011643D02*
X011647Y011643D01*
X011647Y011565D02*
X013029Y011565D01*
X013083Y011486D02*
X011624Y011486D01*
X011586Y011408D02*
X013136Y011408D01*
X013190Y011329D02*
X011508Y011329D01*
X011110Y011329D02*
X010847Y011329D01*
X010830Y011251D02*
X013244Y011251D01*
X013298Y011172D02*
X010798Y011172D01*
X010722Y011094D02*
X010946Y011094D01*
X010768Y011015D02*
X010349Y011015D01*
X010349Y010937D02*
X010690Y010937D01*
X010627Y010858D02*
X010349Y010858D01*
X010349Y010780D02*
X010401Y010780D01*
X010947Y010442D02*
X010896Y010317D01*
X010830Y010252D01*
X010835Y010252D01*
X010871Y010242D01*
X010902Y010224D01*
X010929Y010198D01*
X010947Y010166D01*
X010956Y010130D01*
X010956Y009993D01*
X010698Y009993D01*
X010698Y009916D01*
X010895Y009681D02*
X011304Y009681D01*
X011304Y009759D02*
X010951Y009759D01*
X010956Y009838D02*
X011304Y009838D01*
X011304Y009995D02*
X010956Y009995D01*
X010956Y010073D02*
X011304Y010073D01*
X011304Y010152D02*
X010951Y010152D01*
X010892Y010230D02*
X011311Y010230D01*
X011377Y010309D02*
X010887Y010309D01*
X010925Y010387D02*
X012438Y010387D01*
X012374Y010309D02*
X012141Y010309D01*
X012207Y010230D02*
X012342Y010230D01*
X012309Y010152D02*
X012214Y010152D01*
X012214Y010073D02*
X012304Y010073D01*
X012304Y009995D02*
X012214Y009995D01*
X012309Y009916D02*
X011799Y009916D01*
X011799Y009838D02*
X011719Y009838D01*
X011719Y009759D02*
X011799Y009759D01*
X011799Y009681D02*
X011719Y009681D01*
X011719Y009602D02*
X011799Y009602D01*
X011799Y009524D02*
X011719Y009524D01*
X011308Y009602D02*
X010962Y009602D01*
X010947Y010442D02*
X010947Y010523D01*
X010999Y010472D01*
X011407Y010472D01*
X011459Y010524D01*
X011511Y010472D01*
X011919Y010472D01*
X011991Y010544D02*
X012477Y010544D01*
X012516Y010466D02*
X010947Y010466D01*
X010869Y011408D02*
X011032Y011408D01*
X010994Y011486D02*
X010947Y011486D01*
X011972Y011094D02*
X013346Y011094D01*
X013390Y011015D02*
X012600Y011015D01*
X012678Y010937D02*
X013433Y010937D01*
X013477Y010858D02*
X012757Y010858D01*
X012835Y010780D02*
X013521Y010780D01*
X013565Y010701D02*
X012914Y010701D01*
X012992Y010623D02*
X013608Y010623D01*
X013646Y010544D02*
X013044Y010544D01*
X013152Y010466D02*
X013681Y010466D01*
X013716Y010387D02*
X013230Y010387D01*
X013294Y010309D02*
X013750Y010309D01*
X013785Y010230D02*
X013326Y010230D01*
X013359Y010152D02*
X013820Y010152D01*
X013854Y010073D02*
X013364Y010073D01*
X013364Y009995D02*
X013886Y009995D01*
X013913Y009916D02*
X013359Y009916D01*
X013326Y009838D02*
X013939Y009838D01*
X013965Y009759D02*
X013294Y009759D01*
X013230Y009681D02*
X013991Y009681D01*
X014018Y009602D02*
X013152Y009602D01*
X013037Y009524D02*
X014044Y009524D01*
X014070Y009445D02*
X013173Y009445D01*
X013251Y009367D02*
X014090Y009367D01*
X014109Y009288D02*
X013302Y009288D01*
X013335Y009210D02*
X014127Y009210D01*
X014146Y009131D02*
X013364Y009131D01*
X013364Y009053D02*
X014164Y009053D01*
X014183Y008974D02*
X013364Y008974D01*
X013350Y008896D02*
X014201Y008896D01*
X014219Y008817D02*
X013318Y008817D01*
X013285Y008739D02*
X014230Y008739D01*
X014241Y008660D02*
X013210Y008660D01*
X013127Y008582D02*
X014252Y008582D01*
X014263Y008503D02*
X013087Y008503D01*
X013193Y008425D02*
X014274Y008425D01*
X014285Y008346D02*
X013272Y008346D01*
X013311Y008268D02*
X014296Y008268D01*
X014305Y008189D02*
X013343Y008189D01*
X013364Y008111D02*
X014309Y008111D01*
X014312Y008032D02*
X013364Y008032D01*
X013364Y007954D02*
X014316Y007954D01*
X014320Y007875D02*
X013342Y007875D01*
X013309Y007797D02*
X014323Y007797D01*
X014327Y007718D02*
X013268Y007718D01*
X013189Y007640D02*
X014330Y007640D01*
X014332Y007561D02*
X013077Y007561D01*
X013135Y007483D02*
X014328Y007483D01*
X014325Y007404D02*
X013214Y007404D01*
X013287Y007326D02*
X014321Y007326D01*
X014318Y007247D02*
X013319Y007247D01*
X013352Y007169D02*
X014314Y007169D01*
X014310Y007090D02*
X013364Y007090D01*
X013364Y007012D02*
X014307Y007012D01*
X014300Y006933D02*
X013364Y006933D01*
X013333Y006855D02*
X014290Y006855D01*
X014279Y006776D02*
X013301Y006776D01*
X013247Y006698D02*
X014268Y006698D01*
X014257Y006619D02*
X013169Y006619D01*
X013028Y006541D02*
X014246Y006541D01*
X014235Y006462D02*
X013113Y006462D01*
X013206Y006384D02*
X014224Y006384D01*
X014209Y006305D02*
X013267Y006305D01*
X013308Y006227D02*
X014191Y006227D01*
X014172Y006148D02*
X013332Y006148D01*
X013344Y005994D02*
X013344Y005994D01*
X013344Y005991D02*
X014135Y005991D01*
X014117Y005913D02*
X013331Y005913D01*
X013305Y005834D02*
X014098Y005834D01*
X014080Y005756D02*
X013262Y005756D01*
X013198Y005677D02*
X014056Y005677D01*
X014029Y005599D02*
X013102Y005599D01*
X012989Y005520D02*
X014003Y005520D01*
X013977Y005442D02*
X013141Y005442D01*
X013225Y005363D02*
X013950Y005363D01*
X013924Y005285D02*
X013279Y005285D01*
X013314Y005206D02*
X013898Y005206D01*
X013870Y005128D02*
X013336Y005128D01*
X013344Y004994D02*
X013344Y004994D01*
X012874Y004892D02*
X012794Y004892D01*
X012794Y004814D02*
X012874Y004814D01*
X012874Y004735D02*
X012794Y004735D01*
X012794Y004657D02*
X012874Y004657D01*
X012874Y004578D02*
X012794Y004578D01*
X012606Y004578D02*
X012212Y004578D01*
X012212Y004657D02*
X012490Y004657D01*
X012421Y004735D02*
X012212Y004735D01*
X012212Y004814D02*
X012374Y004814D01*
X012344Y004892D02*
X012212Y004892D01*
X012212Y004971D02*
X012328Y004971D01*
X012324Y005074D02*
X012324Y005074D01*
X012332Y005128D02*
X012212Y005128D01*
X012212Y005206D02*
X012354Y005206D01*
X012389Y005285D02*
X012212Y005285D01*
X012212Y005363D02*
X012443Y005363D01*
X012527Y005442D02*
X012212Y005442D01*
X012212Y005520D02*
X012679Y005520D01*
X012794Y005520D02*
X012874Y005520D01*
X012874Y005442D02*
X012794Y005442D01*
X012794Y005363D02*
X012874Y005363D01*
X012874Y005285D02*
X012794Y005285D01*
X012794Y005206D02*
X012874Y005206D01*
X012874Y005128D02*
X012794Y005128D01*
X012794Y005599D02*
X012874Y005599D01*
X012874Y005677D02*
X012794Y005677D01*
X012794Y005756D02*
X012874Y005756D01*
X012874Y005834D02*
X012794Y005834D01*
X012794Y005913D02*
X012874Y005913D01*
X012874Y005991D02*
X012794Y005991D01*
X012794Y006070D02*
X012212Y006070D01*
X012212Y006148D02*
X012336Y006148D01*
X012324Y006074D02*
X012324Y006074D01*
X012324Y005991D02*
X012212Y005991D01*
X012212Y005913D02*
X012337Y005913D01*
X012364Y005834D02*
X012212Y005834D01*
X012212Y005756D02*
X012406Y005756D01*
X012470Y005677D02*
X012212Y005677D01*
X012212Y005599D02*
X012566Y005599D01*
X012874Y006070D02*
X014154Y006070D01*
X012462Y006384D02*
X012182Y006384D01*
X012212Y006305D02*
X012401Y006305D01*
X012360Y006227D02*
X012212Y006227D01*
X012161Y009524D02*
X012631Y009524D01*
X012516Y009602D02*
X012210Y009602D01*
X012214Y009681D02*
X012438Y009681D01*
X012374Y009759D02*
X012214Y009759D01*
X012214Y009838D02*
X012342Y009838D01*
X010710Y012742D02*
X010700Y012742D01*
X010756Y012821D02*
X010629Y012821D01*
X010629Y012899D02*
X010801Y012899D01*
X009004Y013061D02*
X008967Y013046D01*
X008872Y012951D01*
X008829Y012847D01*
X008792Y012876D01*
X008771Y012899D01*
X008754Y012906D01*
X008740Y012917D01*
X008711Y012925D01*
X008684Y012938D01*
X008666Y012938D01*
X008649Y012943D01*
X008618Y012939D01*
X008588Y012940D01*
X008571Y012934D01*
X008554Y012932D01*
X008527Y012917D01*
X008430Y012880D01*
X008394Y012866D01*
X008329Y012931D01*
X008064Y012665D01*
X008043Y012687D01*
X008308Y012952D01*
X008235Y013025D01*
X008235Y013053D01*
X008012Y013276D01*
X008012Y013276D01*
X007889Y013399D01*
X007933Y013414D01*
X007978Y013336D01*
X008372Y013231D01*
X008429Y013264D01*
X008453Y013239D01*
X008485Y013221D01*
X008608Y013188D01*
X008724Y013619D01*
X008779Y013604D01*
X008664Y013173D01*
X008787Y013140D01*
X008824Y013140D01*
X008857Y013149D01*
X008890Y013092D01*
X009004Y013061D01*
X008992Y013056D02*
X008232Y013056D01*
X008282Y012978D02*
X008899Y012978D01*
X008851Y012899D02*
X008769Y012899D01*
X008866Y013135D02*
X008153Y013135D01*
X008075Y013213D02*
X008515Y013213D01*
X008615Y013213D02*
X008675Y013213D01*
X008696Y013292D02*
X008636Y013292D01*
X008657Y013370D02*
X008717Y013370D01*
X008738Y013449D02*
X008678Y013449D01*
X008699Y013527D02*
X008759Y013527D01*
X008772Y013606D02*
X008720Y013606D01*
X008741Y013684D02*
X008801Y013684D01*
X008822Y013763D02*
X008762Y013763D01*
X008783Y013841D02*
X008843Y013841D01*
X008864Y013920D02*
X008804Y013920D01*
X008825Y013998D02*
X008885Y013998D01*
X008906Y014077D02*
X008846Y014077D01*
X008145Y013292D02*
X007996Y013292D01*
X007958Y013370D02*
X007918Y013370D01*
X008255Y012899D02*
X008298Y012899D01*
X008361Y012899D02*
X008480Y012899D01*
X008430Y012880D02*
X008430Y012880D01*
X008219Y012821D02*
X008177Y012821D01*
X008141Y012742D02*
X008098Y012742D01*
X007586Y012193D02*
X007071Y012193D01*
X007147Y012271D02*
X007508Y012271D01*
X007429Y012350D02*
X007180Y012350D01*
X007665Y012114D02*
X006569Y012114D01*
X006569Y012036D02*
X007771Y012036D01*
X006647Y012193D02*
X006569Y012193D01*
X006569Y012271D02*
X006571Y012271D01*
X007019Y010780D02*
X007196Y010780D01*
X004988Y011329D02*
X004379Y011329D01*
X004416Y011251D02*
X004910Y011251D01*
X004831Y011172D02*
X004429Y011172D01*
X004429Y011094D02*
X004753Y011094D01*
X004674Y011015D02*
X004429Y011015D01*
X004429Y010937D02*
X004596Y010937D01*
X004570Y010858D02*
X004429Y010858D01*
X004429Y010780D02*
X004570Y010780D01*
X002771Y010230D02*
X001381Y010230D01*
X001346Y010152D02*
X002680Y010152D01*
X002621Y010073D02*
X001312Y010073D01*
X001280Y009995D02*
X002583Y009995D01*
X002804Y009367D02*
X002130Y009367D01*
X002201Y009288D02*
X002831Y009288D01*
X002710Y009210D02*
X002234Y009210D01*
X002247Y009131D02*
X002632Y009131D01*
X002586Y009053D02*
X002247Y009053D01*
X002219Y008974D02*
X002554Y008974D01*
X002529Y008896D02*
X002252Y008896D01*
X002305Y008817D02*
X002529Y008817D01*
X002529Y008739D02*
X002320Y008739D01*
X002305Y008660D02*
X002505Y008660D01*
X002411Y008582D02*
X002305Y008582D01*
X004319Y008346D02*
X004408Y008346D01*
X004397Y008268D02*
X004398Y008268D01*
X005999Y003715D02*
X006014Y003715D01*
X005999Y003636D02*
X006093Y003636D01*
X006137Y003558D02*
X005999Y003558D01*
X005999Y003479D02*
X006165Y003479D01*
X005974Y003401D02*
X006654Y003401D01*
X006649Y003322D02*
X005911Y003322D01*
X005781Y003244D02*
X006649Y003244D01*
X006649Y003165D02*
X005739Y003165D01*
X006649Y003087D02*
X002552Y003087D01*
X002622Y003008D02*
X006649Y003008D01*
X006649Y002930D02*
X002701Y002930D01*
X003591Y002145D02*
X004423Y002145D01*
X004423Y002066D02*
X003706Y002066D01*
X003820Y001988D02*
X004439Y001988D01*
X004195Y001752D02*
X007966Y001752D01*
X007859Y001831D02*
X004054Y001831D01*
X003935Y001909D02*
X005976Y001909D01*
X005402Y001203D02*
X009764Y001203D01*
X009998Y001281D02*
X005168Y001281D01*
X004985Y001360D02*
X010182Y001360D01*
X010359Y001438D02*
X004807Y001438D01*
X005636Y001124D02*
X009530Y001124D01*
X009238Y001046D02*
X005928Y001046D01*
X006262Y000967D02*
X008904Y000967D01*
X008397Y000889D02*
X006769Y000889D01*
X006695Y001909D02*
X007805Y001909D01*
X007772Y001988D02*
X006771Y001988D01*
X006771Y002616D02*
X007946Y002616D01*
D32*
X008809Y001976D02*
X010036Y001976D01*
X010135Y002075D01*
X010225Y002075D01*
X010569Y002409D01*
X011013Y006963D02*
X011907Y007857D01*
X011907Y007949D01*
X010201Y007859D02*
X010111Y007949D01*
X010109Y007951D01*
X011907Y007949D02*
X011904Y008074D01*
X011895Y008199D01*
X011880Y008323D01*
X011858Y008446D01*
X011831Y008568D01*
X011798Y008689D01*
X011759Y008808D01*
X004109Y009759D02*
X004109Y010509D01*
X004109Y011147D01*
X003915Y011453D01*
X003159Y008809D02*
X003059Y008809D01*
D33*
X010103Y006893D03*
X011013Y006963D03*
M02*
