G75*
G70*
%OFA0B0*%
%FSLAX24Y24*%
%IPPOS*%
%LPD*%
%AMOC8*
5,1,8,0,0,1.08239X$1,22.5*
%
%ADD10C,0.0060*%
%ADD11R,0.0010X0.0240*%
%ADD12R,0.0010X0.0550*%
%ADD13R,0.0010X0.0710*%
%ADD14R,0.0010X0.0860*%
%ADD15R,0.0010X0.1010*%
%ADD16R,0.0010X0.0450*%
%ADD17R,0.0010X0.0340*%
%ADD18R,0.0010X0.0300*%
%ADD19R,0.0010X0.0310*%
%ADD20R,0.0010X0.0270*%
%ADD21R,0.0010X0.0250*%
%ADD22R,0.0010X0.0540*%
%ADD23R,0.0010X0.0210*%
%ADD24R,0.0010X0.0690*%
%ADD25R,0.0010X0.0170*%
%ADD26R,0.0010X0.0830*%
%ADD27R,0.0010X0.0180*%
%ADD28R,0.0010X0.0150*%
%ADD29R,0.0010X0.0970*%
%ADD30R,0.0010X0.0160*%
%ADD31R,0.0010X0.1100*%
%ADD32R,0.0010X0.1230*%
%ADD33R,0.0010X0.0140*%
%ADD34R,0.0010X0.1330*%
%ADD35R,0.0010X0.1390*%
%ADD36R,0.0010X0.0130*%
%ADD37R,0.0010X0.1470*%
%ADD38R,0.0010X0.0120*%
%ADD39R,0.0010X0.1560*%
%ADD40R,0.0010X0.0110*%
%ADD41R,0.0010X0.1610*%
%ADD42R,0.0010X0.0100*%
%ADD43R,0.0010X0.1670*%
%ADD44R,0.0010X0.1720*%
%ADD45R,0.0010X0.1770*%
%ADD46R,0.0010X0.0090*%
%ADD47R,0.0010X0.1810*%
%ADD48R,0.0010X0.0080*%
%ADD49R,0.0010X0.0260*%
%ADD50R,0.0010X0.0400*%
%ADD51R,0.0010X0.0230*%
%ADD52R,0.0010X0.0050*%
%ADD53R,0.0010X0.0070*%
%ADD54R,0.0010X0.0320*%
%ADD55R,0.0010X0.0010*%
%ADD56R,0.0010X0.0040*%
%ADD57R,0.0010X0.0330*%
%ADD58R,0.0010X0.0020*%
%ADD59R,0.0010X0.0200*%
%ADD60R,0.0010X0.0030*%
%ADD61R,0.0010X0.0410*%
%ADD62R,0.0010X0.0060*%
%ADD63R,0.0010X0.0420*%
%ADD64R,0.0010X0.0360*%
%ADD65R,0.0010X0.0370*%
%ADD66R,0.0010X0.0380*%
%ADD67R,0.0010X0.0430*%
%ADD68R,0.0010X0.0390*%
%ADD69R,0.0010X0.0440*%
%ADD70R,0.0010X0.0190*%
%ADD71R,0.0010X0.0560*%
%ADD72R,0.0010X0.0220*%
%ADD73R,0.0010X0.0460*%
%ADD74R,0.0010X0.0470*%
%ADD75R,0.0010X0.0490*%
%ADD76R,0.0010X0.0500*%
%ADD77R,0.0010X0.0510*%
%ADD78R,0.0010X0.0520*%
%ADD79R,0.0010X0.0530*%
%ADD80R,0.0010X0.0750*%
%ADD81R,0.0010X0.0740*%
%ADD82R,0.0010X0.0730*%
%ADD83R,0.0010X0.0840*%
%ADD84R,0.0010X0.0670*%
%ADD85R,0.0010X0.0650*%
%ADD86R,0.0010X0.0480*%
%ADD87R,0.0010X0.0620*%
%ADD88R,0.0010X0.0700*%
%ADD89R,0.0010X0.0610*%
%ADD90R,0.0010X0.0590*%
%ADD91R,0.0010X0.0580*%
%ADD92R,0.0010X0.1140*%
%ADD93R,0.0010X0.1130*%
%ADD94R,0.0010X0.1200*%
%ADD95R,0.0010X0.0780*%
%ADD96R,0.0010X0.0290*%
%ADD97R,0.0010X0.0640*%
%ADD98R,0.0010X0.0570*%
%ADD99R,0.0010X0.0280*%
%ADD100R,0.0010X0.0350*%
%ADD101R,0.0010X0.0850*%
%ADD102R,0.0010X0.0880*%
%ADD103R,0.0010X0.0900*%
%ADD104R,0.0010X0.1240*%
%ADD105R,0.0010X0.1110*%
%ADD106R,0.0010X0.0870*%
%ADD107R,0.0010X0.0720*%
%ADD108C,0.0160*%
%ADD109C,0.0010*%
%ADD110C,0.0059*%
%ADD111C,0.0080*%
D10*
X005166Y003199D02*
X005166Y003626D01*
X005166Y003413D02*
X005807Y003413D01*
X005593Y003199D01*
X005486Y003844D02*
X005486Y004271D01*
X005700Y004488D02*
X005807Y004595D01*
X005807Y004808D01*
X005700Y004915D01*
X005593Y004915D01*
X005166Y004488D01*
X005166Y004915D01*
X005273Y005133D02*
X005379Y005133D01*
X005486Y005239D01*
X005486Y005453D01*
X005379Y005560D01*
X005273Y005560D01*
X005166Y005453D01*
X005166Y005239D01*
X005273Y005133D01*
X005486Y005239D02*
X005593Y005133D01*
X005700Y005133D01*
X005807Y005239D01*
X005807Y005453D01*
X005700Y005560D01*
X005593Y005560D01*
X005486Y005453D01*
X005486Y005777D02*
X005486Y006204D01*
X005593Y006422D02*
X005807Y006635D01*
X005166Y006635D01*
X005166Y006422D02*
X005166Y006849D01*
X005273Y007066D02*
X005166Y007173D01*
X005166Y007387D01*
X005273Y007493D01*
X005379Y007493D01*
X005486Y007387D01*
X005486Y007280D01*
X005486Y007387D02*
X005593Y007493D01*
X005700Y007493D01*
X005807Y007387D01*
X005807Y007173D01*
X005700Y007066D01*
X007346Y007276D02*
X007346Y006849D01*
X007453Y006849D01*
X007880Y007276D01*
X007987Y007276D01*
X007987Y006849D01*
X007987Y007494D02*
X007346Y007494D01*
X007346Y007921D02*
X007987Y007921D01*
X007987Y008138D02*
X007346Y008138D01*
X007346Y008565D01*
X007346Y008783D02*
X007346Y009210D01*
X007453Y009427D02*
X007346Y009534D01*
X007346Y009747D01*
X007453Y009854D01*
X007559Y009854D01*
X007666Y009747D01*
X007666Y009534D01*
X007773Y009427D01*
X007880Y009427D01*
X007987Y009534D01*
X007987Y009747D01*
X007880Y009854D01*
X007880Y010072D02*
X007453Y010072D01*
X007346Y010179D01*
X007346Y010392D01*
X007453Y010499D01*
X007880Y010499D01*
X007987Y010392D01*
X007987Y010179D01*
X007880Y010072D01*
X007987Y010716D02*
X007346Y010716D01*
X007346Y011143D02*
X007987Y011143D01*
X007773Y011361D02*
X007987Y011574D01*
X007346Y011574D01*
X007346Y011361D02*
X007346Y011788D01*
X007346Y011143D02*
X007987Y010716D01*
X007987Y008783D02*
X007346Y008783D01*
X007666Y008352D02*
X007666Y008138D01*
X007987Y008138D02*
X007987Y008565D01*
X007346Y007921D02*
X007987Y007494D01*
D11*
X004476Y007384D03*
X004466Y007374D03*
X004026Y007884D03*
D12*
X004036Y007879D03*
X004456Y008759D03*
X004476Y008769D03*
X004486Y008769D03*
X004886Y007879D03*
D13*
X004046Y007879D03*
D14*
X004056Y007884D03*
D15*
X004066Y007879D03*
X004936Y007879D03*
D16*
X004786Y008459D03*
X004596Y008789D03*
X004396Y008779D03*
X004076Y008229D03*
X004076Y007539D03*
X004436Y006959D03*
X004706Y007109D03*
D17*
X004806Y007314D03*
X004316Y007024D03*
X004086Y007434D03*
X004086Y008334D03*
D18*
X004266Y007524D03*
X004096Y007374D03*
X004726Y007554D03*
X004736Y007564D03*
D19*
X004266Y007109D03*
X004276Y007089D03*
X004096Y008389D03*
D20*
X004106Y008449D03*
X004106Y007319D03*
D21*
X004116Y007259D03*
X004276Y007519D03*
X004976Y007879D03*
X004116Y008509D03*
D22*
X004496Y008774D03*
X004756Y008504D03*
X004116Y007884D03*
X004626Y007054D03*
X004516Y006984D03*
D23*
X004426Y007349D03*
X004496Y007409D03*
X004506Y007419D03*
X004516Y007419D03*
X004286Y007529D03*
X004126Y007209D03*
X004896Y007279D03*
X004296Y008079D03*
X004286Y008079D03*
X004126Y008559D03*
X004896Y008489D03*
D24*
X004716Y008519D03*
X004636Y008159D03*
X004626Y008159D03*
X004616Y008149D03*
X004606Y008149D03*
X004876Y007879D03*
X004126Y007879D03*
D25*
X004326Y008079D03*
X004336Y008079D03*
X004776Y008069D03*
X004866Y008609D03*
X004386Y007329D03*
X004136Y007159D03*
X004866Y007159D03*
D26*
X004866Y007879D03*
X004136Y007879D03*
D27*
X004316Y008074D03*
X004136Y008604D03*
D28*
X004156Y008679D03*
X004406Y008309D03*
X004846Y008679D03*
X004716Y007819D03*
X004556Y007689D03*
X004856Y007119D03*
X004846Y007089D03*
X004836Y007059D03*
X004826Y007029D03*
X004176Y007029D03*
X004166Y007059D03*
X004156Y007089D03*
X004146Y007119D03*
D29*
X004146Y007879D03*
X004856Y007879D03*
D30*
X004346Y008084D03*
X004146Y008644D03*
X004856Y008644D03*
D31*
X004156Y007884D03*
D32*
X004166Y007879D03*
D33*
X004266Y007814D03*
X004386Y007744D03*
X004396Y007754D03*
X004406Y007754D03*
X004416Y007754D03*
X004526Y007674D03*
X004376Y007324D03*
X004186Y007004D03*
X004196Y006984D03*
X004376Y008294D03*
X004396Y008304D03*
X004416Y008314D03*
X004426Y008314D03*
X004166Y008704D03*
X004176Y008734D03*
X004826Y008734D03*
X004836Y008704D03*
D34*
X004826Y007879D03*
X004176Y007879D03*
D35*
X004186Y007879D03*
D36*
X004276Y007829D03*
X004366Y007739D03*
X004376Y007739D03*
X004426Y007759D03*
X004436Y007769D03*
X004446Y007769D03*
X004516Y007659D03*
X004296Y007489D03*
X004816Y006999D03*
X004526Y008229D03*
X004436Y008319D03*
X004386Y008299D03*
X004366Y008289D03*
X004186Y008759D03*
X004196Y008779D03*
D37*
X004196Y007879D03*
D38*
X004356Y007734D03*
X004456Y007774D03*
X004506Y007644D03*
X004356Y007544D03*
X004306Y007494D03*
X004366Y007314D03*
X004676Y007454D03*
X004686Y007454D03*
X004696Y007454D03*
X004696Y007604D03*
X004436Y008134D03*
X004356Y008284D03*
X004446Y008324D03*
X004456Y008334D03*
X004816Y008764D03*
X004216Y008824D03*
X004206Y008804D03*
X004206Y006964D03*
D39*
X004206Y007884D03*
D40*
X004286Y007839D03*
X004296Y007849D03*
X004346Y007729D03*
X004416Y007579D03*
X004396Y007569D03*
X004386Y007559D03*
X004366Y007549D03*
X004346Y007539D03*
X004336Y007529D03*
X004496Y007639D03*
X004596Y007539D03*
X004666Y007589D03*
X004686Y007599D03*
X004666Y007449D03*
X004726Y007809D03*
X004526Y007899D03*
X004426Y008129D03*
X004346Y008279D03*
X004806Y006969D03*
X004216Y006939D03*
D41*
X004216Y007879D03*
D42*
X004416Y008124D03*
X004516Y008224D03*
X004466Y008334D03*
X004266Y008314D03*
X004466Y007774D03*
X004336Y007724D03*
X004406Y007574D03*
X004426Y007584D03*
X004456Y007604D03*
X004476Y007614D03*
X004486Y007624D03*
X004376Y007554D03*
X004326Y007514D03*
X004316Y007504D03*
X004356Y007314D03*
X004616Y007554D03*
X004626Y007564D03*
X004636Y007574D03*
X004646Y007584D03*
X004656Y007584D03*
X004676Y007594D03*
X004796Y006944D03*
X004756Y006864D03*
X004746Y006844D03*
X004246Y006874D03*
X004236Y006894D03*
X004226Y006914D03*
X004226Y008844D03*
X004236Y008864D03*
X004746Y008914D03*
X004756Y008894D03*
X004766Y008874D03*
X004776Y008854D03*
X004786Y008834D03*
X004796Y008814D03*
X004806Y008794D03*
D43*
X004226Y007879D03*
D44*
X004236Y007884D03*
D45*
X004246Y007879D03*
D46*
X004306Y007859D03*
X004316Y007869D03*
X004326Y007879D03*
X004336Y007879D03*
X004346Y007889D03*
X004516Y007899D03*
X004466Y007609D03*
X004446Y007599D03*
X004436Y007589D03*
X004606Y007549D03*
X004656Y007439D03*
X004786Y006929D03*
X004776Y006909D03*
X004766Y006889D03*
X004736Y006829D03*
X004266Y006839D03*
X004256Y006859D03*
X004336Y008269D03*
X004476Y008339D03*
X004246Y008889D03*
D47*
X004256Y007879D03*
D48*
X004356Y007894D03*
X004366Y007904D03*
X004376Y007914D03*
X004386Y007914D03*
X004396Y007924D03*
X004476Y007784D03*
X004606Y007694D03*
X004586Y007504D03*
X004646Y007434D03*
X004326Y007724D03*
X004506Y008224D03*
X004326Y008264D03*
X004376Y008474D03*
X004386Y008474D03*
X004396Y008484D03*
X004256Y008904D03*
X004266Y008924D03*
X004296Y008974D03*
X004726Y008954D03*
X004736Y008934D03*
X004276Y006824D03*
X004286Y006804D03*
X004296Y006794D03*
X004726Y006814D03*
D49*
X004916Y007394D03*
X004696Y007854D03*
X004266Y008094D03*
X004916Y008374D03*
D50*
X004626Y008784D03*
X004296Y008674D03*
X004286Y008654D03*
X004276Y008634D03*
X004266Y008614D03*
D51*
X004276Y008079D03*
X004486Y007399D03*
X004456Y007369D03*
X004906Y007339D03*
X004906Y008429D03*
D52*
X004476Y008209D03*
X004466Y008199D03*
X004366Y008039D03*
X004436Y007949D03*
X004456Y007959D03*
X004486Y007889D03*
X004666Y007729D03*
X004656Y007719D03*
X004566Y007459D03*
X004606Y006689D03*
X004586Y006679D03*
X004566Y006669D03*
X004556Y006669D03*
X004536Y006659D03*
X004526Y006659D03*
X004486Y006659D03*
X004476Y006659D03*
X004466Y006659D03*
X004446Y006669D03*
X004436Y006669D03*
X004416Y006679D03*
X004396Y006689D03*
X004276Y008329D03*
X004396Y009079D03*
X004416Y009089D03*
X004436Y009099D03*
X004446Y009099D03*
X004466Y009109D03*
X004476Y009109D03*
X004486Y009109D03*
X004496Y009109D03*
X004506Y009109D03*
X004516Y009109D03*
X004526Y009109D03*
X004536Y009109D03*
X004556Y009099D03*
X004566Y009099D03*
X004586Y009089D03*
X004606Y009079D03*
D53*
X004716Y008969D03*
X004316Y008999D03*
X004306Y008989D03*
X004286Y008959D03*
X004276Y008939D03*
X004366Y008459D03*
X004496Y008219D03*
X004406Y008119D03*
X004356Y008049D03*
X004416Y007939D03*
X004406Y007929D03*
X004506Y007899D03*
X004566Y007719D03*
X004616Y007699D03*
X004736Y007809D03*
X004716Y006799D03*
X004316Y006769D03*
X004306Y006779D03*
D54*
X004296Y007054D03*
X004286Y007074D03*
X004786Y008044D03*
D55*
X004496Y008059D03*
X004466Y008089D03*
X004456Y007879D03*
X004506Y007809D03*
X004516Y007809D03*
X004596Y007659D03*
X004316Y007619D03*
X004286Y008339D03*
X004486Y008419D03*
X004496Y008419D03*
D56*
X004516Y008414D03*
X004326Y008434D03*
X004456Y008194D03*
X004446Y008184D03*
X004466Y007974D03*
X004616Y007774D03*
X004626Y007774D03*
X004636Y007774D03*
X004746Y007804D03*
X004786Y007604D03*
X004636Y007424D03*
X004546Y007534D03*
X004296Y007604D03*
X004346Y007304D03*
X004496Y006654D03*
X004506Y006654D03*
X004516Y006654D03*
D57*
X004306Y007039D03*
D58*
X004306Y007614D03*
X004466Y007884D03*
X004386Y008034D03*
X004456Y008084D03*
X004506Y008064D03*
X004356Y008154D03*
X004656Y007784D03*
D59*
X004306Y008074D03*
X004886Y008534D03*
X004416Y007344D03*
X004406Y007344D03*
X004886Y007234D03*
D60*
X004646Y007779D03*
X004606Y007769D03*
X004526Y007809D03*
X004496Y007799D03*
X004476Y007889D03*
X004476Y007979D03*
X004516Y008069D03*
X004446Y008089D03*
X004396Y008119D03*
X004376Y008039D03*
X004306Y008259D03*
X004316Y008419D03*
X004506Y008419D03*
D61*
X004306Y008689D03*
X004736Y007149D03*
X004386Y006969D03*
D62*
X004326Y006754D03*
X004336Y006744D03*
X004346Y006734D03*
X004356Y006724D03*
X004366Y006714D03*
X004376Y006704D03*
X004386Y006694D03*
X004406Y006684D03*
X004426Y006674D03*
X004456Y006664D03*
X004546Y006664D03*
X004576Y006674D03*
X004596Y006684D03*
X004616Y006694D03*
X004626Y006704D03*
X004636Y006714D03*
X004646Y006724D03*
X004656Y006734D03*
X004666Y006744D03*
X004676Y006754D03*
X004686Y006764D03*
X004696Y006774D03*
X004706Y006784D03*
X004576Y007484D03*
X004536Y007514D03*
X004526Y007504D03*
X004626Y007704D03*
X004636Y007704D03*
X004646Y007714D03*
X004676Y007734D03*
X004486Y007794D03*
X004496Y007894D03*
X004446Y007954D03*
X004426Y007944D03*
X004526Y008064D03*
X004486Y008214D03*
X004486Y008344D03*
X004526Y008414D03*
X004356Y008454D03*
X004346Y008444D03*
X004336Y008444D03*
X004316Y008264D03*
X004316Y007724D03*
X004326Y009014D03*
X004336Y009024D03*
X004346Y009034D03*
X004356Y009044D03*
X004366Y009054D03*
X004376Y009064D03*
X004386Y009074D03*
X004406Y009084D03*
X004426Y009094D03*
X004456Y009104D03*
X004546Y009104D03*
X004576Y009094D03*
X004596Y009084D03*
X004616Y009074D03*
X004626Y009064D03*
X004636Y009054D03*
X004646Y009044D03*
X004656Y009034D03*
X004666Y009024D03*
X004676Y009014D03*
X004686Y009004D03*
X004696Y008994D03*
X004706Y008984D03*
D63*
X004616Y008784D03*
X004336Y008734D03*
X004326Y008714D03*
X004316Y008704D03*
X004726Y007134D03*
X004406Y006964D03*
X004396Y006964D03*
D64*
X004326Y007014D03*
X004766Y007204D03*
X004816Y007364D03*
X004926Y008274D03*
D65*
X004646Y008779D03*
X004926Y007489D03*
X004336Y006999D03*
D66*
X004346Y006994D03*
X004356Y006984D03*
X004366Y006984D03*
X004756Y007184D03*
X004536Y007794D03*
D67*
X004536Y008239D03*
X004346Y008739D03*
X004356Y008749D03*
X004366Y008759D03*
X004606Y008789D03*
X004416Y006959D03*
D68*
X004376Y006979D03*
X004746Y007169D03*
X004636Y008779D03*
D69*
X004386Y008774D03*
X004376Y008764D03*
X004716Y007124D03*
X004426Y006964D03*
D70*
X004396Y007339D03*
X004776Y007589D03*
X004876Y007199D03*
X004876Y008569D03*
D71*
X004466Y008764D03*
X004446Y008754D03*
X004436Y008744D03*
X004426Y008744D03*
X004416Y008734D03*
X004406Y008734D03*
X004616Y007044D03*
D72*
X004436Y007354D03*
X004446Y007364D03*
X004706Y007844D03*
D73*
X004696Y007094D03*
X004446Y006954D03*
X004586Y008784D03*
D74*
X004576Y008789D03*
X004456Y006959D03*
D75*
X004466Y006959D03*
X004676Y007079D03*
X004556Y008789D03*
D76*
X004546Y008784D03*
X004476Y006964D03*
D77*
X004486Y006969D03*
X004666Y007069D03*
X004766Y008489D03*
D78*
X004536Y008784D03*
X004526Y008784D03*
X004656Y007064D03*
X004496Y006974D03*
D79*
X004506Y006979D03*
X004636Y007059D03*
X004646Y007059D03*
X004516Y008779D03*
X004506Y008779D03*
D80*
X004556Y007099D03*
X004526Y007089D03*
D81*
X004536Y007084D03*
D82*
X004546Y007089D03*
X004706Y008519D03*
D83*
X004546Y008034D03*
D84*
X004556Y008129D03*
X004566Y008129D03*
D85*
X004566Y007059D03*
D86*
X004686Y007084D03*
X004776Y008474D03*
X004566Y008784D03*
D87*
X004576Y007054D03*
D88*
X004576Y008124D03*
X004586Y008124D03*
X004596Y008134D03*
X004646Y008164D03*
D89*
X004736Y008509D03*
X004586Y007049D03*
D90*
X004596Y007049D03*
D91*
X004606Y007044D03*
D92*
X004656Y008384D03*
D93*
X004666Y008379D03*
X004676Y008359D03*
D94*
X004686Y008314D03*
D95*
X004696Y008504D03*
D96*
X004746Y007579D03*
X004716Y007549D03*
X004706Y007539D03*
D97*
X004726Y008514D03*
D98*
X004746Y008509D03*
X004966Y007879D03*
D99*
X004766Y007614D03*
X004756Y007594D03*
D100*
X004796Y007279D03*
X004786Y007249D03*
X004776Y007219D03*
D101*
X004796Y008239D03*
D102*
X004806Y008184D03*
D103*
X004816Y008124D03*
D104*
X004836Y007884D03*
D105*
X004846Y007879D03*
D106*
X004946Y007879D03*
D107*
X004956Y007884D03*
D108*
X010530Y004533D02*
X011500Y004533D01*
D109*
X006301Y009497D02*
X006275Y009470D01*
X006251Y009453D01*
X006224Y009443D01*
X006195Y009439D01*
X006166Y009443D01*
X006139Y009454D01*
X006070Y009501D01*
X006009Y009558D01*
X005991Y009573D01*
X005970Y009583D01*
X005947Y009587D01*
X005924Y009586D01*
X005902Y009578D01*
X005883Y009565D01*
X005868Y009547D01*
X005856Y009525D01*
X005848Y009501D01*
X005844Y009476D01*
X005845Y009447D01*
X005854Y009419D01*
X005869Y009394D01*
X005883Y009381D01*
X005900Y009372D01*
X005918Y009368D01*
X005935Y009368D01*
X005953Y009372D01*
X005960Y009376D01*
X005965Y009381D01*
X005989Y009414D01*
X005992Y009420D01*
X005994Y009427D01*
X005993Y009434D01*
X005996Y009415D01*
X005999Y009378D01*
X005996Y009341D01*
X005989Y009314D01*
X005976Y009288D01*
X005959Y009266D01*
X005937Y009247D01*
X005908Y009231D01*
X005877Y009222D01*
X005844Y009219D01*
X005247Y009219D01*
X005463Y009411D01*
X005494Y009445D01*
X005518Y009485D01*
X005523Y009500D01*
X005526Y009515D01*
X005526Y009605D01*
X005531Y009659D01*
X005545Y009711D01*
X005569Y009759D01*
X005601Y009805D01*
X005639Y009845D01*
X005683Y009880D01*
X005749Y009917D01*
X005821Y009942D01*
X005896Y009953D01*
X005972Y009951D01*
X006013Y009943D01*
X006052Y009929D01*
X006089Y009909D01*
X006134Y009873D01*
X006170Y009829D01*
X006135Y009829D01*
X006129Y009828D01*
X006124Y009826D01*
X006110Y009814D01*
X006099Y009799D01*
X006096Y009791D01*
X006094Y009768D01*
X006098Y009746D01*
X006108Y009726D01*
X006134Y009690D01*
X006148Y009673D01*
X006165Y009659D01*
X006184Y009648D01*
X006204Y009639D01*
X006217Y009636D01*
X006230Y009637D01*
X006252Y009644D01*
X006271Y009656D01*
X006347Y009656D01*
X006347Y009661D02*
X006350Y009626D01*
X006347Y009592D01*
X006338Y009559D01*
X006323Y009528D01*
X006301Y009497D01*
X006298Y009494D02*
X006079Y009494D01*
X006068Y009503D02*
X006305Y009503D01*
X006311Y009511D02*
X006059Y009511D01*
X006050Y009520D02*
X006317Y009520D01*
X006323Y009528D02*
X006040Y009528D01*
X006031Y009537D02*
X006327Y009537D01*
X006332Y009545D02*
X006022Y009545D01*
X006013Y009554D02*
X006336Y009554D01*
X006339Y009562D02*
X006004Y009562D01*
X005994Y009571D02*
X006342Y009571D01*
X006344Y009579D02*
X005978Y009579D01*
X005907Y009579D02*
X005526Y009579D01*
X005526Y009571D02*
X005892Y009571D01*
X005881Y009562D02*
X005526Y009562D01*
X005526Y009554D02*
X005874Y009554D01*
X005867Y009545D02*
X005526Y009545D01*
X005526Y009537D02*
X005862Y009537D01*
X005858Y009528D02*
X005526Y009528D01*
X005526Y009520D02*
X005854Y009520D01*
X005851Y009511D02*
X005525Y009511D01*
X005524Y009503D02*
X005849Y009503D01*
X005847Y009494D02*
X005521Y009494D01*
X005518Y009486D02*
X005846Y009486D01*
X005844Y009477D02*
X005513Y009477D01*
X005508Y009469D02*
X005844Y009469D01*
X005845Y009460D02*
X005503Y009460D01*
X005498Y009452D02*
X005845Y009452D01*
X005847Y009443D02*
X005493Y009443D01*
X005485Y009435D02*
X005849Y009435D01*
X005852Y009426D02*
X005477Y009426D01*
X005469Y009418D02*
X005855Y009418D01*
X005860Y009409D02*
X005461Y009409D01*
X005452Y009401D02*
X005865Y009401D01*
X005871Y009392D02*
X005442Y009392D01*
X005432Y009384D02*
X005880Y009384D01*
X005894Y009375D02*
X005423Y009375D01*
X005413Y009367D02*
X005998Y009367D01*
X005999Y009375D02*
X005959Y009375D01*
X005967Y009384D02*
X005998Y009384D01*
X005998Y009392D02*
X005973Y009392D01*
X005979Y009401D02*
X005997Y009401D01*
X005996Y009409D02*
X005986Y009409D01*
X005991Y009418D02*
X005996Y009418D01*
X005994Y009426D02*
X005994Y009426D01*
X005997Y009358D02*
X005404Y009358D01*
X005394Y009350D02*
X005997Y009350D01*
X005996Y009341D02*
X005385Y009341D01*
X005375Y009333D02*
X005994Y009333D01*
X005992Y009324D02*
X005365Y009324D01*
X005356Y009316D02*
X005989Y009316D01*
X005986Y009307D02*
X005346Y009307D01*
X005337Y009299D02*
X005981Y009299D01*
X005977Y009290D02*
X005327Y009290D01*
X005318Y009282D02*
X005971Y009282D01*
X005965Y009273D02*
X005308Y009273D01*
X005298Y009265D02*
X005958Y009265D01*
X005948Y009256D02*
X005289Y009256D01*
X005279Y009248D02*
X005938Y009248D01*
X005923Y009239D02*
X005270Y009239D01*
X005260Y009231D02*
X005907Y009231D01*
X005878Y009222D02*
X005251Y009222D01*
X005526Y009588D02*
X006346Y009588D01*
X006348Y009596D02*
X005526Y009596D01*
X005526Y009605D02*
X006348Y009605D01*
X006349Y009613D02*
X005527Y009613D01*
X005528Y009622D02*
X006350Y009622D01*
X006350Y009630D02*
X005528Y009630D01*
X005529Y009639D02*
X006205Y009639D01*
X006184Y009647D02*
X005530Y009647D01*
X005531Y009656D02*
X006170Y009656D01*
X006159Y009664D02*
X005532Y009664D01*
X005535Y009673D02*
X006149Y009673D01*
X006141Y009681D02*
X005537Y009681D01*
X005540Y009690D02*
X006134Y009690D01*
X006128Y009698D02*
X005542Y009698D01*
X005544Y009707D02*
X006122Y009707D01*
X006116Y009715D02*
X005548Y009715D01*
X005552Y009724D02*
X006110Y009724D01*
X006105Y009732D02*
X005556Y009732D01*
X005560Y009741D02*
X006100Y009741D01*
X006097Y009749D02*
X005564Y009749D01*
X005568Y009758D02*
X006096Y009758D01*
X006094Y009766D02*
X005574Y009766D01*
X005580Y009775D02*
X006094Y009775D01*
X006095Y009783D02*
X005586Y009783D01*
X005592Y009792D02*
X006096Y009792D01*
X006100Y009800D02*
X005598Y009800D01*
X005605Y009809D02*
X006106Y009809D01*
X006113Y009817D02*
X005613Y009817D01*
X005621Y009826D02*
X006124Y009826D01*
X006152Y009851D02*
X005647Y009851D01*
X005637Y009843D02*
X006159Y009843D01*
X006166Y009834D02*
X005629Y009834D01*
X005658Y009860D02*
X006145Y009860D01*
X006138Y009868D02*
X005668Y009868D01*
X005679Y009877D02*
X006129Y009877D01*
X006119Y009885D02*
X005692Y009885D01*
X005707Y009894D02*
X006108Y009894D01*
X006097Y009902D02*
X005723Y009902D01*
X005738Y009911D02*
X006086Y009911D01*
X006070Y009919D02*
X005755Y009919D01*
X005780Y009928D02*
X006054Y009928D01*
X006031Y009936D02*
X005804Y009936D01*
X005840Y009945D02*
X006003Y009945D01*
X005898Y009953D02*
X005896Y009953D01*
X006236Y009639D02*
X006349Y009639D01*
X006348Y009647D02*
X006258Y009647D01*
X006271Y009656D02*
X006286Y009672D01*
X006297Y009692D01*
X006303Y009712D01*
X006305Y009733D01*
X006305Y009757D01*
X006306Y009756D01*
X006319Y009739D01*
X006328Y009719D01*
X006334Y009705D01*
X006338Y009696D01*
X006347Y009661D01*
X006346Y009664D02*
X006279Y009664D01*
X006287Y009673D02*
X006344Y009673D01*
X006342Y009681D02*
X006291Y009681D01*
X006296Y009690D02*
X006340Y009690D01*
X006337Y009698D02*
X006299Y009698D01*
X006301Y009707D02*
X006333Y009707D01*
X006330Y009715D02*
X006303Y009715D01*
X006304Y009724D02*
X006326Y009724D01*
X006322Y009732D02*
X006305Y009732D01*
X006305Y009741D02*
X006318Y009741D01*
X006311Y009749D02*
X006305Y009749D01*
X006305Y009757D02*
X006305Y009757D01*
X006290Y009486D02*
X006092Y009486D01*
X006104Y009477D02*
X006282Y009477D01*
X006273Y009469D02*
X006117Y009469D01*
X006130Y009460D02*
X006261Y009460D01*
X006248Y009452D02*
X006144Y009452D01*
X006165Y009443D02*
X006226Y009443D01*
D110*
X006030Y008814D02*
X006131Y008713D01*
X006010Y008564D01*
X006041Y008504D01*
X006062Y008440D01*
X006252Y008421D01*
X006252Y008277D01*
X006062Y008258D01*
X006041Y008194D01*
X006010Y008134D01*
X006131Y007985D01*
X006030Y007884D01*
X005881Y008005D01*
X005821Y007974D01*
X005757Y007953D01*
X005738Y007763D01*
X005594Y007763D01*
X005575Y007953D01*
X005511Y007974D01*
X005451Y008005D01*
X005302Y007884D01*
X005201Y007985D01*
X005322Y008134D01*
X005291Y008194D01*
X005495Y008278D01*
X005517Y008241D01*
X005546Y008209D01*
X005582Y008185D01*
X005623Y008170D01*
X005666Y008164D01*
X005710Y008170D01*
X005751Y008185D01*
X005788Y008210D01*
X005817Y008243D01*
X005838Y008282D01*
X005849Y008325D01*
X005849Y008369D01*
X005839Y008412D01*
X005819Y008452D01*
X005791Y008485D01*
X005755Y008511D01*
X005714Y008527D01*
X005670Y008533D01*
X005626Y008529D01*
X005584Y008515D01*
X005547Y008490D01*
X005517Y008458D01*
X005495Y008420D01*
X005291Y008504D01*
X005322Y008564D01*
X005201Y008713D01*
X005302Y008814D01*
X005451Y008693D01*
X005511Y008724D01*
X005575Y008745D01*
X005594Y008935D01*
X005738Y008935D01*
X005757Y008745D01*
X005821Y008724D01*
X005881Y008693D01*
X006030Y008814D01*
X006044Y008800D02*
X006012Y008800D01*
X005941Y008742D02*
X006102Y008742D01*
X006109Y008685D02*
X005223Y008685D01*
X005230Y008742D02*
X005391Y008742D01*
X005320Y008800D02*
X005288Y008800D01*
X005567Y008742D02*
X005765Y008742D01*
X005752Y008800D02*
X005580Y008800D01*
X005586Y008857D02*
X005746Y008857D01*
X005740Y008915D02*
X005592Y008915D01*
X005581Y008512D02*
X005295Y008512D01*
X005317Y008570D02*
X006015Y008570D01*
X006037Y008512D02*
X005751Y008512D01*
X005817Y008455D02*
X006057Y008455D01*
X006062Y008627D02*
X005270Y008627D01*
X005411Y008455D02*
X005515Y008455D01*
X005532Y008224D02*
X005365Y008224D01*
X005305Y008167D02*
X005646Y008167D01*
X005685Y008167D02*
X006027Y008167D01*
X006030Y008109D02*
X005302Y008109D01*
X005255Y008052D02*
X006077Y008052D01*
X006124Y007994D02*
X005894Y007994D01*
X005861Y007994D02*
X005471Y007994D01*
X005438Y007994D02*
X005208Y007994D01*
X005250Y007937D02*
X005367Y007937D01*
X005576Y007937D02*
X005756Y007937D01*
X005750Y007879D02*
X005582Y007879D01*
X005588Y007821D02*
X005744Y007821D01*
X005738Y007764D02*
X005594Y007764D01*
X005965Y007937D02*
X006082Y007937D01*
X006051Y008224D02*
X005800Y008224D01*
X005838Y008282D02*
X006252Y008282D01*
X006252Y008339D02*
X005849Y008339D01*
X005843Y008397D02*
X006252Y008397D01*
D111*
X008341Y007305D02*
X008341Y005927D01*
X008656Y005927D01*
X008656Y006912D01*
X009129Y006912D01*
X010703Y006912D02*
X011176Y006912D01*
X011176Y005927D01*
X011491Y005927D01*
X011491Y007305D01*
X010703Y008880D02*
X009129Y008880D01*
X008888Y004724D02*
X007510Y004724D01*
X007903Y004409D02*
X007903Y003936D01*
X007903Y004409D02*
X008888Y004409D01*
X008888Y004724D01*
X007903Y002362D02*
X007903Y001889D01*
X008888Y001889D01*
X008888Y001574D01*
X007510Y001574D01*
X005935Y002362D02*
X005935Y003936D01*
M02*
