G75*
G70*
%OFA0B0*%
%FSLAX24Y24*%
%IPPOS*%
%LPD*%
%AMOC8*
5,1,8,0,0,1.08239X$1,22.5*
%
%ADD10C,0.0030*%
%ADD11R,0.0240X0.0010*%
%ADD12R,0.0550X0.0010*%
%ADD13R,0.0710X0.0010*%
%ADD14R,0.0860X0.0010*%
%ADD15R,0.1010X0.0010*%
%ADD16R,0.0450X0.0010*%
%ADD17R,0.0340X0.0010*%
%ADD18R,0.0300X0.0010*%
%ADD19R,0.0310X0.0010*%
%ADD20R,0.0270X0.0010*%
%ADD21R,0.0250X0.0010*%
%ADD22R,0.0540X0.0010*%
%ADD23R,0.0210X0.0010*%
%ADD24R,0.0690X0.0010*%
%ADD25R,0.0170X0.0010*%
%ADD26R,0.0830X0.0010*%
%ADD27R,0.0180X0.0010*%
%ADD28R,0.0150X0.0010*%
%ADD29R,0.0970X0.0010*%
%ADD30R,0.0160X0.0010*%
%ADD31R,0.1100X0.0010*%
%ADD32R,0.1230X0.0010*%
%ADD33R,0.0140X0.0010*%
%ADD34R,0.1330X0.0010*%
%ADD35R,0.1390X0.0010*%
%ADD36R,0.0130X0.0010*%
%ADD37R,0.1470X0.0010*%
%ADD38R,0.0120X0.0010*%
%ADD39R,0.1560X0.0010*%
%ADD40R,0.0110X0.0010*%
%ADD41R,0.1610X0.0010*%
%ADD42R,0.0100X0.0010*%
%ADD43R,0.1670X0.0010*%
%ADD44R,0.1720X0.0010*%
%ADD45R,0.1770X0.0010*%
%ADD46R,0.0090X0.0010*%
%ADD47R,0.1810X0.0010*%
%ADD48R,0.0080X0.0010*%
%ADD49R,0.0260X0.0010*%
%ADD50R,0.0400X0.0010*%
%ADD51R,0.0230X0.0010*%
%ADD52R,0.0050X0.0010*%
%ADD53R,0.0070X0.0010*%
%ADD54R,0.0320X0.0010*%
%ADD55R,0.0010X0.0010*%
%ADD56R,0.0040X0.0010*%
%ADD57R,0.0330X0.0010*%
%ADD58R,0.0020X0.0010*%
%ADD59R,0.0200X0.0010*%
%ADD60R,0.0030X0.0010*%
%ADD61R,0.0410X0.0010*%
%ADD62R,0.0060X0.0010*%
%ADD63R,0.0420X0.0010*%
%ADD64R,0.0360X0.0010*%
%ADD65R,0.0370X0.0010*%
%ADD66R,0.0380X0.0010*%
%ADD67R,0.0430X0.0010*%
%ADD68R,0.0390X0.0010*%
%ADD69R,0.0440X0.0010*%
%ADD70R,0.0190X0.0010*%
%ADD71R,0.0560X0.0010*%
%ADD72R,0.0220X0.0010*%
%ADD73R,0.0460X0.0010*%
%ADD74R,0.0470X0.0010*%
%ADD75R,0.0490X0.0010*%
%ADD76R,0.0500X0.0010*%
%ADD77R,0.0510X0.0010*%
%ADD78R,0.0520X0.0010*%
%ADD79R,0.0530X0.0010*%
%ADD80R,0.0750X0.0010*%
%ADD81R,0.0740X0.0010*%
%ADD82R,0.0730X0.0010*%
%ADD83R,0.0840X0.0010*%
%ADD84R,0.0670X0.0010*%
%ADD85R,0.0650X0.0010*%
%ADD86R,0.0480X0.0010*%
%ADD87R,0.0620X0.0010*%
%ADD88R,0.0700X0.0010*%
%ADD89R,0.0610X0.0010*%
%ADD90R,0.0590X0.0010*%
%ADD91R,0.0580X0.0010*%
%ADD92R,0.1140X0.0010*%
%ADD93R,0.1130X0.0010*%
%ADD94R,0.1200X0.0010*%
%ADD95R,0.0780X0.0010*%
%ADD96R,0.0290X0.0010*%
%ADD97R,0.0640X0.0010*%
%ADD98R,0.0570X0.0010*%
%ADD99R,0.0280X0.0010*%
%ADD100R,0.0350X0.0010*%
%ADD101R,0.0850X0.0010*%
%ADD102R,0.0880X0.0010*%
%ADD103R,0.0900X0.0010*%
%ADD104R,0.1240X0.0010*%
%ADD105R,0.1110X0.0010*%
%ADD106R,0.0870X0.0010*%
%ADD107R,0.0720X0.0010*%
%ADD108C,0.0160*%
%ADD109R,0.0280X0.0160*%
%ADD110C,0.0080*%
%ADD111C,0.0060*%
%ADD112R,0.0340X0.0300*%
%ADD113C,0.0050*%
D10*
X004184Y003358D02*
X004184Y003454D01*
X004232Y003503D01*
X004281Y003503D01*
X004329Y003454D01*
X004377Y003503D01*
X004426Y003503D01*
X004474Y003454D01*
X004474Y003358D01*
X004426Y003309D01*
X004329Y003406D02*
X004329Y003454D01*
X004281Y003604D02*
X004474Y003797D01*
X004426Y003899D02*
X004474Y003947D01*
X004474Y004044D01*
X004426Y004092D01*
X004329Y004092D01*
X004281Y004044D01*
X004281Y003995D01*
X004329Y003899D01*
X004184Y003899D01*
X004184Y004092D01*
X004281Y004193D02*
X004184Y004290D01*
X004474Y004290D01*
X004474Y004193D02*
X004474Y004387D01*
X004474Y004488D02*
X004474Y004536D01*
X004377Y004536D01*
X004329Y004488D01*
X004232Y004488D01*
X004184Y004536D01*
X004184Y004633D01*
X004232Y004681D01*
X004329Y004681D01*
X004377Y004633D01*
X004474Y004633D01*
X004474Y004681D01*
X004281Y003797D02*
X004474Y003604D01*
X004184Y003358D02*
X004232Y003309D01*
X003206Y004663D02*
X003254Y004711D01*
X003254Y004808D01*
X003206Y004856D01*
X003157Y004856D01*
X003109Y004808D01*
X003109Y004711D01*
X003061Y004663D01*
X003012Y004663D01*
X002964Y004711D01*
X002964Y004808D01*
X003012Y004856D01*
X002964Y004957D02*
X003254Y004957D01*
X003254Y005151D01*
X003254Y005252D02*
X002964Y005252D01*
X002964Y005397D01*
X003012Y005446D01*
X003109Y005446D01*
X003157Y005397D01*
X003157Y005252D01*
X003157Y005349D02*
X003254Y005446D01*
X003254Y005547D02*
X003254Y005644D01*
X003254Y005595D02*
X002964Y005595D01*
X002964Y005547D02*
X002964Y005644D01*
X003061Y005743D02*
X002964Y005840D01*
X003061Y005937D01*
X003254Y005937D01*
X003254Y006038D02*
X003254Y006231D01*
X003254Y006038D02*
X002964Y006038D01*
X003109Y005937D02*
X003109Y005743D01*
X003061Y005743D02*
X003254Y005743D01*
X002964Y005151D02*
X002964Y004957D01*
X003109Y004957D02*
X003109Y005054D01*
X002524Y005770D02*
X002234Y005770D01*
X002234Y005915D01*
X002282Y005963D01*
X002379Y005963D01*
X002427Y005915D01*
X002427Y005770D01*
X002427Y005867D02*
X002524Y005963D01*
X002476Y006065D02*
X002282Y006065D01*
X002234Y006113D01*
X002234Y006210D01*
X002282Y006258D01*
X002379Y006258D02*
X002379Y006161D01*
X002379Y006258D02*
X002476Y006258D01*
X002524Y006210D01*
X002524Y006113D01*
X002476Y006065D01*
X002524Y006359D02*
X002234Y006359D01*
X002234Y006504D01*
X002282Y006553D01*
X002331Y006553D01*
X002379Y006504D01*
X002379Y006359D01*
X002524Y006359D02*
X002524Y006504D01*
X002476Y006553D01*
X002427Y006553D01*
X002379Y006504D01*
X002234Y006949D02*
X002524Y006949D01*
X002524Y007142D01*
X002524Y007243D02*
X002524Y007437D01*
X002524Y007538D02*
X002524Y007683D01*
X002476Y007731D01*
X002282Y007731D01*
X002234Y007683D01*
X002234Y007538D01*
X002524Y007538D01*
X002379Y007340D02*
X002379Y007243D01*
X002234Y007243D02*
X002524Y007243D01*
X002234Y007243D02*
X002234Y007437D01*
X003484Y007633D02*
X003484Y007923D01*
X003629Y007923D01*
X003678Y007874D01*
X003678Y007778D01*
X003629Y007729D01*
X003484Y007729D01*
X003581Y007729D02*
X003678Y007633D01*
X003779Y007681D02*
X003827Y007633D01*
X003924Y007633D01*
X003972Y007681D01*
X004073Y007729D02*
X004267Y007923D01*
X004122Y007778D02*
X004267Y007633D01*
X004073Y007633D02*
X004073Y007923D01*
X003972Y007874D02*
X003924Y007923D01*
X003827Y007923D01*
X003779Y007874D01*
X003779Y007681D01*
X003844Y008614D02*
X003844Y008819D01*
X003775Y008819D02*
X004049Y008819D01*
X003912Y008956D02*
X003707Y008751D01*
X003670Y008857D02*
X003601Y008857D01*
X003533Y008925D01*
X003533Y008993D01*
X003670Y009130D01*
X003738Y009130D01*
X003806Y009062D01*
X003806Y008993D01*
X003598Y009202D02*
X003598Y009270D01*
X003530Y009339D01*
X003461Y009339D01*
X003427Y009304D01*
X003427Y009236D01*
X003495Y009168D01*
X003495Y009099D01*
X003461Y009065D01*
X003393Y009065D01*
X003324Y009133D01*
X003324Y009202D01*
X003751Y009657D02*
X003820Y009657D01*
X003751Y009657D02*
X003683Y009725D01*
X003683Y009793D01*
X003820Y009930D01*
X003888Y009930D01*
X003956Y009862D01*
X003956Y009793D01*
X004028Y009722D02*
X003891Y009585D01*
X003891Y009517D01*
X003960Y009448D01*
X004028Y009448D01*
X004165Y009585D02*
X004165Y009653D01*
X004096Y009722D01*
X004028Y009722D01*
X003782Y010036D02*
X003645Y009899D01*
X003509Y009899D01*
X003509Y010036D01*
X003645Y010173D01*
X003960Y010598D02*
X003857Y010701D01*
X004062Y010906D01*
X004165Y010803D01*
X004165Y010735D01*
X004028Y010598D01*
X003960Y010598D01*
X003785Y010772D02*
X003991Y010978D01*
X003854Y011114D02*
X003785Y010772D01*
X003649Y010909D02*
X003854Y011114D01*
X003748Y011152D02*
X003748Y011220D01*
X003680Y011289D01*
X003611Y011289D01*
X003474Y011152D01*
X003474Y011083D01*
X003543Y011015D01*
X003611Y011015D01*
X003680Y011083D01*
X003611Y011152D01*
X002776Y011364D02*
X002639Y011500D01*
X002639Y011364D02*
X002776Y011500D01*
X002465Y011395D02*
X002328Y011258D01*
X002396Y011326D02*
X002601Y011121D01*
X002427Y011015D02*
X002256Y011186D01*
X002119Y011050D02*
X002290Y010879D01*
X002359Y010879D01*
X002427Y010947D01*
X002427Y011015D01*
X002150Y010875D02*
X002150Y010807D01*
X002048Y010704D01*
X002116Y010636D02*
X001911Y010841D01*
X002014Y010944D01*
X002082Y010944D01*
X002150Y010875D01*
X001840Y010770D02*
X002045Y010564D01*
X001703Y010633D01*
X001908Y010428D01*
X001837Y010357D02*
X001769Y010289D01*
X001803Y010323D02*
X001598Y010528D01*
X001564Y010494D02*
X001632Y010562D01*
X006032Y006131D02*
X006129Y006131D01*
X006177Y006083D01*
X006274Y006083D01*
X006274Y006131D01*
X006274Y005986D02*
X006177Y005986D01*
X006129Y005938D01*
X006032Y005938D01*
X005984Y005986D01*
X005984Y006083D01*
X006032Y006131D01*
X006032Y005837D02*
X006226Y005643D01*
X006274Y005692D01*
X006274Y005788D01*
X006226Y005837D01*
X006032Y005837D01*
X005984Y005788D01*
X005984Y005692D01*
X006032Y005643D01*
X006226Y005643D01*
X006226Y005542D02*
X006032Y005542D01*
X006226Y005349D01*
X006274Y005397D01*
X006274Y005494D01*
X006226Y005542D01*
X006226Y005349D02*
X006032Y005349D01*
X005984Y005397D01*
X005984Y005494D01*
X006032Y005542D01*
X006274Y005247D02*
X006274Y005054D01*
X006274Y005151D02*
X005984Y005151D01*
X006081Y005054D01*
X006081Y004953D02*
X006274Y004759D01*
X006226Y004658D02*
X006274Y004610D01*
X006274Y004513D01*
X006226Y004465D01*
X006129Y004561D02*
X006129Y004610D01*
X006177Y004658D01*
X006226Y004658D01*
X006129Y004610D02*
X006081Y004658D01*
X006032Y004658D01*
X005984Y004610D01*
X005984Y004513D01*
X006032Y004465D01*
X006081Y004759D02*
X006274Y004953D01*
X006274Y005938D02*
X006274Y005986D01*
X008034Y006036D02*
X008034Y006133D01*
X008082Y006181D01*
X008179Y006181D01*
X008227Y006133D01*
X008324Y006133D01*
X008324Y006181D01*
X008324Y006036D02*
X008227Y006036D01*
X008179Y005988D01*
X008082Y005988D01*
X008034Y006036D01*
X008082Y005887D02*
X008034Y005838D01*
X008034Y005742D01*
X008082Y005693D01*
X008276Y005693D01*
X008082Y005887D01*
X008276Y005887D01*
X008324Y005838D01*
X008324Y005742D01*
X008276Y005693D01*
X008276Y005592D02*
X008082Y005592D01*
X008276Y005399D01*
X008324Y005447D01*
X008324Y005544D01*
X008276Y005592D01*
X008276Y005399D02*
X008082Y005399D01*
X008034Y005447D01*
X008034Y005544D01*
X008082Y005592D01*
X008324Y005297D02*
X008324Y005104D01*
X008324Y005201D02*
X008034Y005201D01*
X008131Y005104D01*
X008131Y005003D02*
X008324Y004809D01*
X008276Y004708D02*
X008324Y004660D01*
X008324Y004563D01*
X008276Y004515D01*
X008179Y004611D02*
X008179Y004660D01*
X008227Y004708D01*
X008276Y004708D01*
X008179Y004660D02*
X008131Y004708D01*
X008082Y004708D01*
X008034Y004660D01*
X008034Y004563D01*
X008082Y004515D01*
X008131Y004809D02*
X008324Y005003D01*
X008324Y005988D02*
X008324Y006036D01*
X011184Y004753D02*
X011184Y004463D01*
X011184Y004559D02*
X011329Y004559D01*
X011378Y004608D01*
X011378Y004704D01*
X011329Y004753D01*
X011184Y004753D01*
X011281Y004559D02*
X011378Y004463D01*
X011479Y004511D02*
X011479Y004704D01*
X011527Y004753D01*
X011624Y004753D01*
X011672Y004704D01*
X011672Y004608D02*
X011575Y004608D01*
X011672Y004608D02*
X011672Y004511D01*
X011624Y004463D01*
X011527Y004463D01*
X011479Y004511D01*
X011479Y004273D02*
X011479Y003983D01*
X011672Y003983D01*
X011773Y003983D02*
X011918Y003983D01*
X011967Y004031D01*
X011967Y004224D01*
X011918Y004273D01*
X011773Y004273D01*
X011773Y003983D01*
X011575Y004128D02*
X011479Y004128D01*
X011479Y004273D02*
X011672Y004273D01*
X011773Y004463D02*
X011918Y004463D01*
X011967Y004511D01*
X011967Y004559D01*
X011918Y004608D01*
X011773Y004608D01*
X011773Y004463D02*
X011773Y004753D01*
X011918Y004753D01*
X011967Y004704D01*
X011967Y004656D01*
X011918Y004608D01*
X011378Y003983D02*
X011184Y003983D01*
X011184Y004273D01*
X013607Y006801D02*
X013710Y006698D01*
X013778Y006698D01*
X013915Y006835D01*
X013915Y006903D01*
X013812Y007006D01*
X013607Y006801D01*
X013535Y006872D02*
X013741Y007078D01*
X013604Y007214D02*
X013535Y006872D01*
X013399Y007009D02*
X013604Y007214D01*
X013498Y007252D02*
X013498Y007320D01*
X013430Y007389D01*
X013361Y007389D01*
X013224Y007252D01*
X013224Y007183D01*
X013293Y007115D01*
X013361Y007115D01*
X013430Y007183D01*
X013361Y007252D01*
X013710Y007698D02*
X013641Y007767D01*
X013641Y007835D01*
X013570Y007907D02*
X013501Y007907D01*
X013433Y007975D01*
X013433Y008043D01*
X013604Y008214D01*
X013532Y008286D02*
X013395Y008149D01*
X013259Y008149D01*
X013259Y008286D01*
X013395Y008423D01*
X013707Y008751D02*
X013775Y008682D01*
X013741Y008717D02*
X013946Y008922D01*
X013912Y008956D02*
X013981Y008888D01*
X013841Y009028D02*
X013499Y008959D01*
X013427Y009031D02*
X013427Y009168D01*
X013461Y009133D02*
X013359Y009236D01*
X013290Y009168D02*
X013495Y009373D01*
X013598Y009270D01*
X013598Y009202D01*
X013530Y009133D01*
X013461Y009133D01*
X013704Y009164D02*
X013635Y008822D01*
X013741Y008078D02*
X013570Y007907D01*
X013744Y007938D02*
X013744Y007869D01*
X013812Y007801D01*
X013812Y007732D01*
X013778Y007698D01*
X013710Y007698D01*
X013815Y007592D02*
X013918Y007490D01*
X013986Y007490D01*
X014021Y007524D01*
X014021Y007592D01*
X013918Y007695D01*
X013915Y007835D02*
X013915Y007903D01*
X013846Y007972D01*
X013778Y007972D01*
X013744Y007938D01*
X014021Y007798D02*
X013815Y007592D01*
X014021Y007592D02*
X014089Y007592D01*
X014123Y007627D01*
X014123Y007695D01*
X014021Y007798D01*
X013828Y009648D02*
X013760Y009648D01*
X013691Y009717D01*
X013691Y009785D01*
X013828Y009922D01*
X013896Y009922D01*
X013965Y009853D01*
X013965Y009785D01*
X013828Y009648D01*
X013585Y009822D02*
X013654Y010164D01*
X013582Y010236D02*
X013445Y010373D01*
X013514Y010304D02*
X013309Y010099D01*
X013449Y009959D02*
X013791Y010028D01*
X013912Y010382D02*
X013912Y010519D01*
X013946Y010485D02*
X013843Y010587D01*
X013775Y010519D02*
X013980Y010724D01*
X014083Y010621D01*
X014083Y010553D01*
X014014Y010485D01*
X013946Y010485D01*
X013909Y010796D02*
X013772Y010932D01*
X013840Y010864D02*
X013635Y010659D01*
X013529Y010833D02*
X013461Y010833D01*
X013358Y010936D01*
X013563Y011141D01*
X013666Y011038D01*
X013666Y010970D01*
X013529Y010833D01*
X012433Y012503D02*
X012288Y012503D01*
X012288Y012793D01*
X012433Y012793D01*
X012481Y012744D01*
X012481Y012551D01*
X012433Y012503D01*
X012187Y012503D02*
X011993Y012503D01*
X011993Y012793D01*
X012187Y012793D01*
X012090Y012648D02*
X011993Y012648D01*
X011892Y012503D02*
X011699Y012503D01*
X011699Y012793D01*
X011747Y012983D02*
X011844Y012983D01*
X011892Y013031D01*
X011892Y013128D01*
X011795Y013128D01*
X011699Y013224D02*
X011699Y013031D01*
X011747Y012983D01*
X011598Y012983D02*
X011501Y013079D01*
X011549Y013079D02*
X011404Y013079D01*
X011404Y012983D02*
X011404Y013273D01*
X011549Y013273D01*
X011598Y013224D01*
X011598Y013128D01*
X011549Y013079D01*
X011699Y013224D02*
X011747Y013273D01*
X011844Y013273D01*
X011892Y013224D01*
X011993Y013273D02*
X012138Y013273D01*
X012187Y013224D01*
X012187Y013176D01*
X012138Y013128D01*
X011993Y013128D01*
X011993Y012983D02*
X011993Y013273D01*
X012138Y013128D02*
X012187Y013079D01*
X012187Y013031D01*
X012138Y012983D01*
X011993Y012983D01*
X010424Y011031D02*
X010327Y010935D01*
X010327Y010983D02*
X010327Y010838D01*
X010424Y010838D02*
X010134Y010838D01*
X010134Y010983D01*
X010182Y011031D01*
X010279Y011031D01*
X010327Y010983D01*
X010424Y010737D02*
X010134Y010737D01*
X010134Y010543D02*
X010424Y010543D01*
X010327Y010640D01*
X010424Y010737D01*
X010279Y010442D02*
X010327Y010394D01*
X010327Y010249D01*
X010424Y010249D02*
X010134Y010249D01*
X010134Y010394D01*
X010182Y010442D01*
X010279Y010442D01*
X007917Y010023D02*
X007723Y010023D01*
X007820Y010023D02*
X007820Y009733D01*
X007622Y009781D02*
X007622Y010023D01*
X007622Y009781D02*
X007574Y009733D01*
X007477Y009733D01*
X007429Y009781D01*
X007429Y010023D01*
X007328Y009974D02*
X007328Y009926D01*
X007279Y009878D01*
X007134Y009878D01*
X007134Y009733D02*
X007134Y010023D01*
X007279Y010023D01*
X007328Y009974D01*
X007279Y009878D02*
X007328Y009829D01*
X007328Y009781D01*
X007279Y009733D01*
X007134Y009733D01*
D11*
X007054Y002178D03*
X007044Y002168D03*
X007554Y001728D03*
D12*
X007549Y001738D03*
X007549Y002588D03*
X008439Y002188D03*
X008439Y002178D03*
X008429Y002158D03*
D13*
X007549Y001748D03*
D14*
X007554Y001758D03*
D15*
X007549Y001768D03*
X007549Y002638D03*
D16*
X008129Y002488D03*
X008459Y002298D03*
X008449Y002098D03*
X007899Y001778D03*
X007209Y001778D03*
X006629Y002138D03*
X006779Y002408D03*
D17*
X006984Y002508D03*
X006694Y002018D03*
X007104Y001788D03*
X008004Y001788D03*
D18*
X007194Y001968D03*
X007044Y001798D03*
X007224Y002428D03*
X007234Y002438D03*
D19*
X006779Y001968D03*
X006759Y001978D03*
X008059Y001798D03*
D20*
X008119Y001808D03*
X006989Y001808D03*
D21*
X006929Y001818D03*
X007189Y001978D03*
X007549Y002678D03*
X008179Y001818D03*
D22*
X008444Y002198D03*
X008174Y002458D03*
X007554Y001818D03*
X006724Y002328D03*
X006654Y002218D03*
D23*
X006879Y001828D03*
X007019Y002128D03*
X007079Y002198D03*
X007089Y002208D03*
X007089Y002218D03*
X007199Y001988D03*
X007749Y001988D03*
X007749Y001998D03*
X008229Y001828D03*
X008159Y002598D03*
X006949Y002598D03*
D24*
X007549Y002578D03*
X007829Y002338D03*
X007829Y002328D03*
X007819Y002318D03*
X007819Y002308D03*
X008189Y002418D03*
X007549Y001828D03*
D25*
X007749Y002028D03*
X007749Y002038D03*
X007739Y002478D03*
X008279Y002568D03*
X006999Y002088D03*
X006829Y001838D03*
X006829Y002568D03*
D26*
X007549Y002568D03*
X007549Y001838D03*
D27*
X007744Y002018D03*
X008274Y001838D03*
D28*
X008349Y001858D03*
X007979Y002108D03*
X008349Y002548D03*
X007489Y002418D03*
X007359Y002258D03*
X006789Y002558D03*
X006759Y002548D03*
X006729Y002538D03*
X006699Y002528D03*
X006699Y001878D03*
X006729Y001868D03*
X006759Y001858D03*
X006789Y001848D03*
D29*
X007549Y001848D03*
X007549Y002558D03*
D30*
X007754Y002048D03*
X008314Y001848D03*
X008314Y002558D03*
D31*
X007554Y001858D03*
D32*
X007549Y001868D03*
D33*
X007484Y001968D03*
X007414Y002088D03*
X007424Y002098D03*
X007424Y002108D03*
X007424Y002118D03*
X007344Y002228D03*
X006994Y002078D03*
X006674Y001888D03*
X006654Y001898D03*
X007964Y002078D03*
X007974Y002098D03*
X007984Y002118D03*
X007984Y002128D03*
X008374Y001868D03*
X008404Y001878D03*
X008404Y002528D03*
X008374Y002538D03*
D34*
X007549Y002528D03*
X007549Y001878D03*
D35*
X007549Y001888D03*
D36*
X007499Y001978D03*
X007409Y002068D03*
X007409Y002078D03*
X007429Y002128D03*
X007439Y002138D03*
X007439Y002148D03*
X007329Y002218D03*
X007159Y001998D03*
X006669Y002518D03*
X007899Y002228D03*
X007989Y002138D03*
X007969Y002088D03*
X007959Y002068D03*
X008429Y001888D03*
X008449Y001898D03*
D37*
X007549Y001898D03*
D38*
X007404Y002058D03*
X007444Y002158D03*
X007314Y002208D03*
X007214Y002058D03*
X007164Y002008D03*
X006984Y002068D03*
X007124Y002378D03*
X007124Y002388D03*
X007124Y002398D03*
X007274Y002398D03*
X007804Y002138D03*
X007954Y002058D03*
X007994Y002148D03*
X008004Y002158D03*
X008474Y001908D03*
X008494Y001918D03*
X008434Y002518D03*
X006634Y001908D03*
D39*
X007554Y001908D03*
D40*
X007509Y001988D03*
X007519Y001998D03*
X007399Y002048D03*
X007249Y002118D03*
X007239Y002098D03*
X007229Y002088D03*
X007219Y002068D03*
X007209Y002048D03*
X007199Y002038D03*
X007309Y002198D03*
X007209Y002298D03*
X007259Y002368D03*
X007269Y002388D03*
X007119Y002368D03*
X007479Y002428D03*
X007569Y002228D03*
X007799Y002128D03*
X007949Y002048D03*
X006609Y001918D03*
X006639Y002508D03*
D41*
X007549Y001918D03*
D42*
X007394Y002038D03*
X007444Y002168D03*
X007294Y002188D03*
X007284Y002178D03*
X007274Y002158D03*
X007254Y002128D03*
X007244Y002108D03*
X007224Y002078D03*
X007184Y002028D03*
X007174Y002018D03*
X006984Y002058D03*
X007224Y002318D03*
X007234Y002328D03*
X007244Y002338D03*
X007254Y002348D03*
X007254Y002358D03*
X007264Y002378D03*
X007794Y002118D03*
X007894Y002218D03*
X008004Y002168D03*
X007984Y001968D03*
X008464Y002508D03*
X008484Y002498D03*
X008504Y002488D03*
X008524Y002478D03*
X008544Y002468D03*
X008564Y002458D03*
X008584Y002448D03*
X008534Y001938D03*
X008514Y001928D03*
X006584Y001928D03*
X006564Y001938D03*
X006544Y001948D03*
X006514Y002448D03*
X006534Y002458D03*
X006614Y002498D03*
D43*
X007549Y001928D03*
D44*
X007554Y001938D03*
D45*
X007549Y001948D03*
D46*
X007529Y002008D03*
X007539Y002018D03*
X007549Y002028D03*
X007549Y002038D03*
X007559Y002048D03*
X007569Y002218D03*
X007279Y002168D03*
X007269Y002148D03*
X007259Y002138D03*
X007219Y002308D03*
X007109Y002358D03*
X006599Y002488D03*
X006579Y002478D03*
X006559Y002468D03*
X006499Y002438D03*
X006509Y001968D03*
X006529Y001958D03*
X007939Y002038D03*
X008009Y002178D03*
X008559Y001948D03*
D47*
X007549Y001958D03*
D48*
X007564Y002058D03*
X007574Y002068D03*
X007584Y002078D03*
X007584Y002088D03*
X007594Y002098D03*
X007454Y002178D03*
X007364Y002308D03*
X007174Y002288D03*
X007104Y002348D03*
X007394Y002028D03*
X007894Y002208D03*
X007934Y002028D03*
X008144Y002078D03*
X008144Y002088D03*
X008154Y002098D03*
X008574Y001958D03*
X008594Y001968D03*
X008644Y001998D03*
X008624Y002428D03*
X008604Y002438D03*
X006484Y002428D03*
X006464Y001998D03*
X006474Y001988D03*
X006494Y001978D03*
D49*
X007064Y002618D03*
X007524Y002398D03*
X007764Y001968D03*
D50*
X008284Y001968D03*
X008304Y001978D03*
X008324Y001988D03*
X008344Y001998D03*
X008454Y002328D03*
D51*
X008099Y002608D03*
X007749Y001978D03*
X007069Y002188D03*
X007039Y002158D03*
X007009Y002608D03*
D52*
X007129Y002268D03*
X007389Y002358D03*
X007399Y002368D03*
X007559Y002188D03*
X007629Y002158D03*
X007619Y002138D03*
X007709Y002068D03*
X007869Y002168D03*
X007879Y002178D03*
X007999Y001978D03*
X008749Y002098D03*
X008759Y002118D03*
X008769Y002138D03*
X008769Y002148D03*
X008779Y002168D03*
X008779Y002178D03*
X008779Y002188D03*
X008779Y002198D03*
X008779Y002208D03*
X008779Y002218D03*
X008779Y002228D03*
X008779Y002238D03*
X008769Y002258D03*
X008769Y002268D03*
X008759Y002288D03*
X008749Y002308D03*
X006359Y002308D03*
X006349Y002288D03*
X006339Y002268D03*
X006339Y002258D03*
X006329Y002238D03*
X006329Y002228D03*
X006329Y002188D03*
X006329Y002178D03*
X006329Y002168D03*
X006339Y002148D03*
X006339Y002138D03*
X006349Y002118D03*
X006359Y002098D03*
D53*
X006439Y002018D03*
X006449Y002008D03*
X006469Y002418D03*
X007369Y002318D03*
X007389Y002268D03*
X007569Y002208D03*
X007609Y002118D03*
X007599Y002108D03*
X007719Y002058D03*
X007789Y002108D03*
X007889Y002198D03*
X008129Y002068D03*
X008609Y001978D03*
X008629Y001988D03*
X008659Y002008D03*
X008669Y002018D03*
X008639Y002418D03*
X007479Y002438D03*
D54*
X007714Y002488D03*
X006744Y001988D03*
X006724Y001998D03*
D55*
X007289Y002018D03*
X007479Y002208D03*
X007479Y002218D03*
X007549Y002158D03*
X007729Y002198D03*
X007759Y002168D03*
X008009Y001988D03*
X008089Y002188D03*
X008089Y002198D03*
X007329Y002298D03*
D56*
X007444Y002318D03*
X007444Y002328D03*
X007444Y002338D03*
X007474Y002448D03*
X007274Y002488D03*
X007094Y002338D03*
X007204Y002248D03*
X007274Y001998D03*
X006974Y002048D03*
X006324Y002198D03*
X006324Y002208D03*
X006324Y002218D03*
X007644Y002168D03*
X007854Y002148D03*
X007864Y002158D03*
X008084Y002218D03*
X008104Y002028D03*
D57*
X006709Y002008D03*
D58*
X007284Y002008D03*
X007554Y002168D03*
X007704Y002088D03*
X007754Y002158D03*
X007734Y002208D03*
X007824Y002058D03*
X007454Y002358D03*
D59*
X007744Y002008D03*
X007014Y002108D03*
X007014Y002118D03*
X006904Y002588D03*
X008204Y002588D03*
D60*
X008089Y002208D03*
X008089Y002018D03*
X007929Y002008D03*
X007789Y002098D03*
X007759Y002148D03*
X007739Y002218D03*
X007649Y002178D03*
X007559Y002178D03*
X007469Y002198D03*
X007479Y002228D03*
X007439Y002308D03*
X007449Y002348D03*
X007709Y002078D03*
D61*
X008359Y002008D03*
X006819Y002438D03*
X006639Y002088D03*
D62*
X006424Y002028D03*
X006414Y002038D03*
X006404Y002048D03*
X006394Y002058D03*
X006384Y002068D03*
X006374Y002078D03*
X006364Y002088D03*
X006354Y002108D03*
X006344Y002128D03*
X006334Y002158D03*
X006334Y002248D03*
X006344Y002278D03*
X006354Y002298D03*
X006364Y002318D03*
X006374Y002328D03*
X006384Y002338D03*
X006394Y002348D03*
X006404Y002358D03*
X006414Y002368D03*
X006424Y002378D03*
X006434Y002388D03*
X006444Y002398D03*
X006454Y002408D03*
X007154Y002278D03*
X007184Y002238D03*
X007174Y002228D03*
X007374Y002328D03*
X007374Y002338D03*
X007384Y002348D03*
X007404Y002378D03*
X007464Y002188D03*
X007564Y002198D03*
X007624Y002148D03*
X007614Y002128D03*
X007734Y002228D03*
X007884Y002188D03*
X008014Y002188D03*
X008084Y002228D03*
X008124Y002058D03*
X008114Y002048D03*
X008114Y002038D03*
X007934Y002018D03*
X007394Y002018D03*
X008654Y002408D03*
X008664Y002398D03*
X008674Y002388D03*
X008684Y002378D03*
X008694Y002368D03*
X008704Y002358D03*
X008714Y002348D03*
X008724Y002338D03*
X008734Y002328D03*
X008744Y002318D03*
X008754Y002298D03*
X008764Y002278D03*
X008774Y002248D03*
X008774Y002158D03*
X008764Y002128D03*
X008754Y002108D03*
X008744Y002088D03*
X008734Y002078D03*
X008724Y002068D03*
X008714Y002058D03*
X008704Y002048D03*
X008694Y002038D03*
X008684Y002028D03*
D63*
X008404Y002038D03*
X008384Y002028D03*
X008374Y002018D03*
X008454Y002318D03*
X006804Y002428D03*
X006634Y002108D03*
X006634Y002098D03*
D64*
X006684Y002028D03*
X006874Y002468D03*
X007034Y002518D03*
X007944Y002628D03*
D65*
X008449Y002348D03*
X007159Y002628D03*
X006669Y002038D03*
D66*
X006664Y002048D03*
X006654Y002058D03*
X006654Y002068D03*
X006854Y002458D03*
X007464Y002238D03*
D67*
X007909Y002238D03*
X008409Y002048D03*
X008419Y002058D03*
X008429Y002068D03*
X008459Y002308D03*
X006629Y002118D03*
D68*
X006649Y002078D03*
X006839Y002448D03*
X008449Y002338D03*
D69*
X008444Y002088D03*
X008434Y002078D03*
X006794Y002418D03*
X006634Y002128D03*
D70*
X007009Y002098D03*
X007259Y002478D03*
X006869Y002578D03*
X008239Y002578D03*
D71*
X008434Y002168D03*
X008424Y002148D03*
X008414Y002138D03*
X008414Y002128D03*
X008404Y002118D03*
X008404Y002108D03*
X006714Y002318D03*
D72*
X007024Y002138D03*
X007034Y002148D03*
X007514Y002408D03*
D73*
X006764Y002398D03*
X006624Y002148D03*
X008454Y002288D03*
D74*
X008459Y002278D03*
X006629Y002158D03*
D75*
X006629Y002168D03*
X006749Y002378D03*
X008459Y002258D03*
D76*
X008454Y002248D03*
X006634Y002178D03*
D77*
X006639Y002188D03*
X006739Y002368D03*
X008159Y002468D03*
D78*
X008454Y002238D03*
X008454Y002228D03*
X006734Y002358D03*
X006644Y002198D03*
D79*
X006649Y002208D03*
X006729Y002338D03*
X006729Y002348D03*
X008449Y002218D03*
X008449Y002208D03*
D80*
X006769Y002258D03*
X006759Y002228D03*
D81*
X006754Y002238D03*
D82*
X006759Y002248D03*
X008189Y002408D03*
D83*
X007704Y002248D03*
D84*
X007799Y002258D03*
X007799Y002268D03*
D85*
X006729Y002268D03*
D86*
X006754Y002388D03*
X008144Y002478D03*
X008454Y002268D03*
D87*
X006724Y002278D03*
D88*
X007794Y002278D03*
X007794Y002288D03*
X007804Y002298D03*
X007834Y002348D03*
D89*
X008179Y002438D03*
X006719Y002288D03*
D90*
X006719Y002298D03*
D91*
X006714Y002308D03*
D92*
X008054Y002358D03*
D93*
X008049Y002368D03*
X008029Y002378D03*
D94*
X007984Y002388D03*
D95*
X008174Y002398D03*
D96*
X007249Y002448D03*
X007219Y002418D03*
X007209Y002408D03*
D97*
X008184Y002428D03*
D98*
X008179Y002448D03*
X007549Y002668D03*
D99*
X007284Y002468D03*
X007264Y002458D03*
D100*
X006949Y002498D03*
X006919Y002488D03*
X006889Y002478D03*
D101*
X007909Y002498D03*
D102*
X007854Y002508D03*
D103*
X007794Y002518D03*
D104*
X007554Y002538D03*
D105*
X007549Y002548D03*
D106*
X007549Y002648D03*
D107*
X007554Y002658D03*
D108*
X006183Y002912D02*
X006183Y003632D01*
X005911Y009959D02*
X005928Y009976D01*
X009657Y009968D02*
X009681Y009968D01*
X011469Y011756D02*
X011469Y011780D01*
X009828Y012359D02*
X009811Y012376D01*
D109*
X009169Y009968D03*
X010619Y009368D03*
X003869Y007168D03*
D110*
X005080Y007419D02*
X005395Y007419D01*
X005395Y007182D01*
X005395Y007616D02*
X005080Y007616D01*
X005395Y007616D02*
X005395Y007853D01*
X005395Y008482D02*
X005395Y008719D01*
X005080Y008719D01*
X005080Y008916D02*
X005395Y008916D01*
X005395Y009153D01*
X005395Y009782D02*
X005395Y010019D01*
X005080Y010019D01*
X006593Y009148D02*
X006593Y007935D01*
X007105Y007542D02*
X008081Y007542D01*
X008593Y007935D02*
X008593Y009148D01*
X008697Y009094D02*
X008697Y008661D01*
X008697Y009094D02*
X008854Y009252D01*
X009484Y009252D01*
X009641Y009094D01*
X009641Y008661D01*
X009641Y007874D02*
X009641Y007283D01*
X008697Y007283D01*
X008697Y007874D01*
X009729Y007868D02*
X012309Y007868D01*
X012309Y005508D01*
X010647Y004369D02*
X010706Y004267D01*
X010647Y004369D02*
X009761Y003857D01*
X009820Y003755D01*
X009973Y003253D02*
X009905Y003213D01*
X010332Y002868D02*
X010391Y002766D01*
X011277Y003278D01*
X011218Y003380D01*
X009370Y003407D02*
X009370Y003092D01*
X009134Y003092D01*
X008504Y003092D02*
X008268Y003092D01*
X008268Y003407D01*
X009729Y005508D02*
X009729Y007868D01*
X011297Y009491D02*
X011454Y009333D01*
X012084Y009333D01*
X012241Y009491D01*
X012241Y009924D01*
X012241Y010711D02*
X012241Y011302D01*
X011297Y011302D01*
X011297Y010711D01*
X010850Y010684D02*
X010669Y010684D01*
X010761Y010562D01*
X010669Y010684D02*
X010488Y010684D01*
X010583Y010562D02*
X010659Y010678D01*
X011297Y009924D02*
X011297Y009491D01*
X010547Y012766D02*
X009661Y013278D01*
X009720Y013380D01*
X009873Y013882D02*
X009805Y013922D01*
X009387Y014167D02*
X009520Y014661D01*
X010232Y014267D02*
X010291Y014369D01*
X011177Y013857D01*
X011118Y013755D01*
X010606Y012868D02*
X010547Y012766D01*
X008018Y014534D02*
X008151Y015028D01*
X004204Y012912D02*
X003981Y013135D01*
X004204Y012912D02*
X004037Y012745D01*
X003591Y012300D02*
X003424Y012133D01*
X003201Y012356D01*
X002449Y009079D02*
X002331Y009079D01*
X002449Y009079D02*
X002449Y008056D01*
X002331Y008056D01*
X001819Y007938D02*
X001819Y007859D01*
X001307Y008056D02*
X001189Y008056D01*
X001189Y009079D01*
X001307Y009079D01*
X005080Y006316D02*
X005395Y006316D01*
X005395Y006553D01*
X007093Y008542D02*
X007095Y008586D01*
X007101Y008630D01*
X007111Y008673D01*
X007124Y008715D01*
X007141Y008756D01*
X007162Y008795D01*
X007186Y008832D01*
X007213Y008867D01*
X007243Y008899D01*
X007276Y008929D01*
X007312Y008955D01*
X007349Y008979D01*
X007389Y008998D01*
X007430Y009015D01*
X007473Y009027D01*
X007516Y009036D01*
X007560Y009041D01*
X007604Y009042D01*
X007648Y009039D01*
X007692Y009032D01*
X007735Y009021D01*
X007777Y009007D01*
X007817Y008989D01*
X007856Y008967D01*
X007892Y008943D01*
X007926Y008915D01*
X007958Y008884D01*
X007987Y008850D01*
X008013Y008814D01*
X008035Y008776D01*
X008054Y008736D01*
X008069Y008694D01*
X008081Y008652D01*
X008089Y008608D01*
X008093Y008564D01*
X008093Y008520D01*
X008089Y008476D01*
X008081Y008432D01*
X008069Y008390D01*
X008054Y008348D01*
X008035Y008308D01*
X008013Y008270D01*
X007987Y008234D01*
X007958Y008200D01*
X007926Y008169D01*
X007892Y008141D01*
X007856Y008117D01*
X007817Y008095D01*
X007777Y008077D01*
X007735Y008063D01*
X007692Y008052D01*
X007648Y008045D01*
X007604Y008042D01*
X007560Y008043D01*
X007516Y008048D01*
X007473Y008057D01*
X007430Y008069D01*
X007389Y008086D01*
X007349Y008105D01*
X007312Y008129D01*
X007276Y008155D01*
X007243Y008185D01*
X007213Y008217D01*
X007186Y008252D01*
X007162Y008289D01*
X007141Y008328D01*
X007124Y008369D01*
X007111Y008411D01*
X007101Y008454D01*
X007095Y008498D01*
X007093Y008542D01*
X007105Y009542D02*
X008093Y009542D01*
D111*
X006969Y010366D02*
X008822Y012219D01*
X008822Y012416D01*
X006969Y014269D01*
X005018Y012318D01*
X006969Y010366D01*
X008355Y012318D02*
X008357Y012341D01*
X008363Y012364D01*
X008372Y012385D01*
X008385Y012405D01*
X008401Y012422D01*
X008419Y012436D01*
X008439Y012447D01*
X008461Y012455D01*
X008484Y012459D01*
X008508Y012459D01*
X008531Y012455D01*
X008553Y012447D01*
X008573Y012436D01*
X008591Y012422D01*
X008607Y012405D01*
X008620Y012385D01*
X008629Y012364D01*
X008635Y012341D01*
X008637Y012318D01*
X008635Y012295D01*
X008629Y012272D01*
X008620Y012251D01*
X008607Y012231D01*
X008591Y012214D01*
X008573Y012200D01*
X008553Y012189D01*
X008531Y012181D01*
X008508Y012177D01*
X008484Y012177D01*
X008461Y012181D01*
X008439Y012189D01*
X008419Y012200D01*
X008401Y012214D01*
X008385Y012231D01*
X008372Y012251D01*
X008363Y012272D01*
X008357Y012295D01*
X008355Y012318D01*
X008751Y006404D02*
X008987Y006404D01*
X008987Y005931D02*
X008751Y005931D01*
X008751Y005704D02*
X008987Y005704D01*
X008987Y005231D02*
X008751Y005231D01*
X008751Y005004D02*
X008987Y005004D01*
X008987Y004531D02*
X008751Y004531D01*
X006937Y004531D02*
X006701Y004531D01*
X006701Y005004D02*
X006937Y005004D01*
X006937Y005231D02*
X006701Y005231D01*
X006701Y005704D02*
X006937Y005704D01*
X006937Y005931D02*
X006701Y005931D01*
X006701Y006404D02*
X006937Y006404D01*
X005237Y006104D02*
X005001Y006104D01*
X005001Y005631D02*
X005237Y005631D01*
X005237Y005404D02*
X005001Y005404D01*
X005001Y004931D02*
X005237Y004931D01*
X005237Y004704D02*
X005001Y004704D01*
X005001Y004231D02*
X005237Y004231D01*
D112*
X011019Y008058D03*
D113*
X009569Y008418D02*
X008769Y008418D01*
X011369Y010168D02*
X012169Y010168D01*
M02*
