G75*
G70*
%OFA0B0*%
%FSLAX24Y24*%
%IPPOS*%
%LPD*%
%AMOC8*
5,1,8,0,0,1.08239X$1,22.5*
%
%ADD10C,0.0030*%
%ADD11R,0.0240X0.0010*%
%ADD12R,0.0550X0.0010*%
%ADD13R,0.0710X0.0010*%
%ADD14R,0.0860X0.0010*%
%ADD15R,0.1010X0.0010*%
%ADD16R,0.0450X0.0010*%
%ADD17R,0.0340X0.0010*%
%ADD18R,0.0300X0.0010*%
%ADD19R,0.0310X0.0010*%
%ADD20R,0.0270X0.0010*%
%ADD21R,0.0250X0.0010*%
%ADD22R,0.0540X0.0010*%
%ADD23R,0.0210X0.0010*%
%ADD24R,0.0690X0.0010*%
%ADD25R,0.0170X0.0010*%
%ADD26R,0.0830X0.0010*%
%ADD27R,0.0180X0.0010*%
%ADD28R,0.0150X0.0010*%
%ADD29R,0.0970X0.0010*%
%ADD30R,0.0160X0.0010*%
%ADD31R,0.1100X0.0010*%
%ADD32R,0.1230X0.0010*%
%ADD33R,0.0140X0.0010*%
%ADD34R,0.1330X0.0010*%
%ADD35R,0.1390X0.0010*%
%ADD36R,0.0130X0.0010*%
%ADD37R,0.1470X0.0010*%
%ADD38R,0.0120X0.0010*%
%ADD39R,0.1560X0.0010*%
%ADD40R,0.0110X0.0010*%
%ADD41R,0.1610X0.0010*%
%ADD42R,0.0100X0.0010*%
%ADD43R,0.1670X0.0010*%
%ADD44R,0.1720X0.0010*%
%ADD45R,0.1770X0.0010*%
%ADD46R,0.0090X0.0010*%
%ADD47R,0.1810X0.0010*%
%ADD48R,0.0080X0.0010*%
%ADD49R,0.0260X0.0010*%
%ADD50R,0.0400X0.0010*%
%ADD51R,0.0230X0.0010*%
%ADD52R,0.0050X0.0010*%
%ADD53R,0.0070X0.0010*%
%ADD54R,0.0320X0.0010*%
%ADD55R,0.0010X0.0010*%
%ADD56R,0.0040X0.0010*%
%ADD57R,0.0330X0.0010*%
%ADD58R,0.0020X0.0010*%
%ADD59R,0.0200X0.0010*%
%ADD60R,0.0030X0.0010*%
%ADD61R,0.0410X0.0010*%
%ADD62R,0.0060X0.0010*%
%ADD63R,0.0420X0.0010*%
%ADD64R,0.0360X0.0010*%
%ADD65R,0.0370X0.0010*%
%ADD66R,0.0380X0.0010*%
%ADD67R,0.0430X0.0010*%
%ADD68R,0.0390X0.0010*%
%ADD69R,0.0440X0.0010*%
%ADD70R,0.0190X0.0010*%
%ADD71R,0.0560X0.0010*%
%ADD72R,0.0220X0.0010*%
%ADD73R,0.0460X0.0010*%
%ADD74R,0.0470X0.0010*%
%ADD75R,0.0490X0.0010*%
%ADD76R,0.0500X0.0010*%
%ADD77R,0.0510X0.0010*%
%ADD78R,0.0520X0.0010*%
%ADD79R,0.0530X0.0010*%
%ADD80R,0.0750X0.0010*%
%ADD81R,0.0740X0.0010*%
%ADD82R,0.0730X0.0010*%
%ADD83R,0.0840X0.0010*%
%ADD84R,0.0670X0.0010*%
%ADD85R,0.0650X0.0010*%
%ADD86R,0.0480X0.0010*%
%ADD87R,0.0620X0.0010*%
%ADD88R,0.0700X0.0010*%
%ADD89R,0.0610X0.0010*%
%ADD90R,0.0590X0.0010*%
%ADD91R,0.0580X0.0010*%
%ADD92R,0.1140X0.0010*%
%ADD93R,0.1130X0.0010*%
%ADD94R,0.1200X0.0010*%
%ADD95R,0.0780X0.0010*%
%ADD96R,0.0290X0.0010*%
%ADD97R,0.0640X0.0010*%
%ADD98R,0.0570X0.0010*%
%ADD99R,0.0280X0.0010*%
%ADD100R,0.0350X0.0010*%
%ADD101R,0.0850X0.0010*%
%ADD102R,0.0880X0.0010*%
%ADD103R,0.0900X0.0010*%
%ADD104R,0.1240X0.0010*%
%ADD105R,0.1110X0.0010*%
%ADD106R,0.0870X0.0010*%
%ADD107R,0.0720X0.0010*%
%ADD108C,0.0160*%
%ADD109R,0.0280X0.0160*%
%ADD110C,0.0080*%
%ADD111C,0.0060*%
%ADD112R,0.0340X0.0300*%
%ADD113C,0.0050*%
D10*
X003002Y003704D02*
X003051Y003704D01*
X003099Y003753D01*
X003099Y003849D01*
X003147Y003898D01*
X003196Y003898D01*
X003244Y003849D01*
X003244Y003753D01*
X003196Y003704D01*
X003002Y003704D02*
X002954Y003753D01*
X002954Y003849D01*
X003002Y003898D01*
X002954Y003999D02*
X003244Y003999D01*
X003244Y004192D01*
X003244Y004294D02*
X002954Y004294D01*
X002954Y004439D01*
X003002Y004487D01*
X003099Y004487D01*
X003147Y004439D01*
X003147Y004294D01*
X003147Y004390D02*
X003244Y004487D01*
X003244Y004588D02*
X003244Y004685D01*
X003244Y004637D02*
X002954Y004637D01*
X002954Y004685D02*
X002954Y004588D01*
X003051Y004785D02*
X002954Y004881D01*
X003051Y004978D01*
X003244Y004978D01*
X003244Y005079D02*
X003244Y005273D01*
X003244Y005079D02*
X002954Y005079D01*
X003099Y004978D02*
X003099Y004785D01*
X003051Y004785D02*
X003244Y004785D01*
X002954Y004192D02*
X002954Y003999D01*
X003099Y003999D02*
X003099Y004096D01*
X002514Y004811D02*
X002224Y004811D01*
X002224Y004957D01*
X002272Y005005D01*
X002369Y005005D01*
X002417Y004957D01*
X002417Y004811D01*
X002417Y004908D02*
X002514Y005005D01*
X002466Y005106D02*
X002514Y005154D01*
X002514Y005251D01*
X002466Y005300D01*
X002369Y005300D01*
X002369Y005203D01*
X002272Y005300D02*
X002224Y005251D01*
X002224Y005154D01*
X002272Y005106D01*
X002466Y005106D01*
X002514Y005401D02*
X002224Y005401D01*
X002224Y005546D01*
X002272Y005594D01*
X002321Y005594D01*
X002369Y005546D01*
X002369Y005401D01*
X002369Y005546D02*
X002417Y005594D01*
X002466Y005594D01*
X002514Y005546D01*
X002514Y005401D01*
X002514Y005990D02*
X002224Y005990D01*
X002514Y005990D02*
X002514Y006184D01*
X002514Y006285D02*
X002514Y006478D01*
X002514Y006579D02*
X002514Y006724D01*
X002466Y006773D01*
X002272Y006773D01*
X002224Y006724D01*
X002224Y006579D01*
X002514Y006579D01*
X002369Y006381D02*
X002369Y006285D01*
X002224Y006285D02*
X002514Y006285D01*
X002224Y006285D02*
X002224Y006478D01*
X003474Y006674D02*
X003474Y006964D01*
X003619Y006964D01*
X003668Y006916D01*
X003668Y006819D01*
X003619Y006771D01*
X003474Y006771D01*
X003571Y006771D02*
X003668Y006674D01*
X003769Y006722D02*
X003817Y006674D01*
X003914Y006674D01*
X003962Y006722D01*
X004063Y006674D02*
X004063Y006964D01*
X003962Y006916D02*
X003914Y006964D01*
X003817Y006964D01*
X003769Y006916D01*
X003769Y006722D01*
X004063Y006771D02*
X004257Y006964D01*
X004112Y006819D02*
X004257Y006674D01*
X003834Y007655D02*
X003834Y007861D01*
X003765Y007861D02*
X004039Y007861D01*
X003902Y007998D02*
X003697Y007792D01*
X003660Y007898D02*
X003591Y007898D01*
X003523Y007966D01*
X003523Y008035D01*
X003660Y008172D01*
X003728Y008172D01*
X003796Y008103D01*
X003796Y008035D01*
X003588Y008243D02*
X003588Y008312D01*
X003520Y008380D01*
X003451Y008380D01*
X003417Y008346D01*
X003417Y008277D01*
X003485Y008209D01*
X003485Y008141D01*
X003451Y008106D01*
X003383Y008106D01*
X003314Y008175D01*
X003314Y008243D01*
X003741Y008698D02*
X003673Y008766D01*
X003673Y008835D01*
X003810Y008972D01*
X003878Y008972D01*
X003946Y008903D01*
X003946Y008835D01*
X004018Y008763D02*
X003881Y008627D01*
X003881Y008558D01*
X003950Y008490D01*
X004018Y008490D01*
X004155Y008627D02*
X004155Y008695D01*
X004086Y008763D01*
X004018Y008763D01*
X003810Y008698D02*
X003741Y008698D01*
X003635Y008941D02*
X003772Y009077D01*
X003635Y008941D02*
X003499Y008941D01*
X003499Y009077D01*
X003635Y009214D01*
X003950Y009640D02*
X003847Y009742D01*
X004052Y009948D01*
X004155Y009845D01*
X004155Y009777D01*
X004018Y009640D01*
X003950Y009640D01*
X003775Y009814D02*
X003981Y010019D01*
X003844Y010156D02*
X003775Y009814D01*
X003639Y009951D02*
X003844Y010156D01*
X003738Y010193D02*
X003738Y010262D01*
X003670Y010330D01*
X003601Y010330D01*
X003464Y010193D01*
X003464Y010125D01*
X003533Y010056D01*
X003601Y010056D01*
X003670Y010125D01*
X003601Y010193D01*
X002766Y010405D02*
X002629Y010542D01*
X002629Y010405D02*
X002766Y010542D01*
X002455Y010436D02*
X002318Y010299D01*
X002386Y010368D02*
X002591Y010163D01*
X002417Y010057D02*
X002417Y009988D01*
X002349Y009920D01*
X002280Y009920D01*
X002109Y010091D01*
X002072Y009985D02*
X002140Y009917D01*
X002140Y009849D01*
X002038Y009746D01*
X002106Y009677D02*
X001901Y009883D01*
X002004Y009985D01*
X002072Y009985D01*
X001830Y009811D02*
X002035Y009606D01*
X001693Y009674D01*
X001898Y009469D01*
X001827Y009399D02*
X001759Y009330D01*
X001793Y009364D02*
X001588Y009570D01*
X001554Y009535D02*
X001622Y009604D01*
X002246Y010228D02*
X002417Y010057D01*
X006022Y005173D02*
X006119Y005173D01*
X006167Y005124D01*
X006264Y005124D01*
X006264Y005173D01*
X006264Y005028D02*
X006167Y005028D01*
X006119Y004979D01*
X006022Y004979D01*
X005974Y005028D01*
X005974Y005124D01*
X006022Y005173D01*
X006264Y005028D02*
X006264Y004979D01*
X006216Y004878D02*
X006264Y004830D01*
X006264Y004733D01*
X006216Y004685D01*
X006022Y004878D01*
X006216Y004878D01*
X006216Y004685D02*
X006022Y004685D01*
X005974Y004733D01*
X005974Y004830D01*
X006022Y004878D01*
X006022Y004584D02*
X006216Y004390D01*
X006264Y004438D01*
X006264Y004535D01*
X006216Y004584D01*
X006022Y004584D01*
X005974Y004535D01*
X005974Y004438D01*
X006022Y004390D01*
X006216Y004390D01*
X006264Y004289D02*
X006264Y004095D01*
X006264Y004192D02*
X005974Y004192D01*
X006071Y004095D01*
X006071Y003994D02*
X006264Y003801D01*
X006216Y003700D02*
X006264Y003651D01*
X006264Y003554D01*
X006216Y003506D01*
X006119Y003603D02*
X006119Y003651D01*
X006167Y003700D01*
X006216Y003700D01*
X006119Y003651D02*
X006071Y003700D01*
X006022Y003700D01*
X005974Y003651D01*
X005974Y003554D01*
X006022Y003506D01*
X006071Y003801D02*
X006264Y003994D01*
X008024Y004242D02*
X008314Y004242D01*
X008314Y004145D02*
X008314Y004339D01*
X008266Y004440D02*
X008072Y004440D01*
X008024Y004488D01*
X008024Y004585D01*
X008072Y004634D01*
X008266Y004440D01*
X008314Y004488D01*
X008314Y004585D01*
X008266Y004634D01*
X008072Y004634D01*
X008072Y004735D02*
X008024Y004783D01*
X008024Y004880D01*
X008072Y004928D01*
X008266Y004735D01*
X008314Y004783D01*
X008314Y004880D01*
X008266Y004928D01*
X008072Y004928D01*
X008072Y005029D02*
X008024Y005078D01*
X008024Y005174D01*
X008072Y005223D01*
X008169Y005223D01*
X008217Y005174D01*
X008314Y005174D01*
X008314Y005223D01*
X008314Y005078D02*
X008217Y005078D01*
X008169Y005029D01*
X008072Y005029D01*
X008314Y005029D02*
X008314Y005078D01*
X008266Y004735D02*
X008072Y004735D01*
X008024Y004242D02*
X008121Y004145D01*
X008121Y004044D02*
X008314Y003851D01*
X008266Y003750D02*
X008314Y003701D01*
X008314Y003604D01*
X008266Y003556D01*
X008169Y003653D02*
X008169Y003701D01*
X008217Y003750D01*
X008266Y003750D01*
X008169Y003701D02*
X008121Y003750D01*
X008072Y003750D01*
X008024Y003701D01*
X008024Y003604D01*
X008072Y003556D01*
X008121Y003851D02*
X008314Y004044D01*
X011174Y003794D02*
X011174Y003504D01*
X011174Y003601D02*
X011319Y003601D01*
X011368Y003649D01*
X011368Y003746D01*
X011319Y003794D01*
X011174Y003794D01*
X011271Y003601D02*
X011368Y003504D01*
X011469Y003552D02*
X011517Y003504D01*
X011614Y003504D01*
X011662Y003552D01*
X011662Y003649D01*
X011565Y003649D01*
X011469Y003746D02*
X011469Y003552D01*
X011469Y003746D02*
X011517Y003794D01*
X011614Y003794D01*
X011662Y003746D01*
X011763Y003794D02*
X011908Y003794D01*
X011957Y003746D01*
X011957Y003698D01*
X011908Y003649D01*
X011763Y003649D01*
X011763Y003504D02*
X011908Y003504D01*
X011957Y003552D01*
X011957Y003601D01*
X011908Y003649D01*
X011763Y003504D02*
X011763Y003794D01*
X011763Y003314D02*
X011908Y003314D01*
X011957Y003266D01*
X011957Y003072D01*
X011908Y003024D01*
X011763Y003024D01*
X011763Y003314D01*
X011662Y003314D02*
X011469Y003314D01*
X011469Y003024D01*
X011662Y003024D01*
X011565Y003169D02*
X011469Y003169D01*
X011368Y003024D02*
X011174Y003024D01*
X011174Y003314D01*
X013597Y005842D02*
X013700Y005740D01*
X013768Y005740D01*
X013905Y005877D01*
X013905Y005945D01*
X013802Y006048D01*
X013597Y005842D01*
X013525Y005914D02*
X013731Y006119D01*
X013594Y006256D02*
X013525Y005914D01*
X013389Y006051D02*
X013594Y006256D01*
X013488Y006293D02*
X013488Y006362D01*
X013420Y006430D01*
X013351Y006430D01*
X013214Y006293D01*
X013214Y006225D01*
X013283Y006156D01*
X013351Y006156D01*
X013420Y006225D01*
X013351Y006293D01*
X013700Y006740D02*
X013631Y006808D01*
X013631Y006877D01*
X013560Y006948D02*
X013491Y006948D01*
X013423Y007016D01*
X013423Y007085D01*
X013594Y007256D01*
X013522Y007327D02*
X013385Y007191D01*
X013249Y007191D01*
X013249Y007327D01*
X013385Y007464D01*
X013697Y007792D02*
X013765Y007724D01*
X013731Y007758D02*
X013936Y007963D01*
X013902Y007998D02*
X013971Y007929D01*
X013831Y008069D02*
X013489Y008001D01*
X013417Y008072D02*
X013417Y008209D01*
X013451Y008175D02*
X013349Y008277D01*
X013280Y008209D02*
X013485Y008414D01*
X013588Y008312D01*
X013588Y008243D01*
X013520Y008175D01*
X013451Y008175D01*
X013694Y008206D02*
X013625Y007864D01*
X013731Y007119D02*
X013560Y006948D01*
X013734Y006979D02*
X013734Y006911D01*
X013802Y006842D01*
X013802Y006774D01*
X013768Y006740D01*
X013700Y006740D01*
X013805Y006634D02*
X013908Y006531D01*
X013976Y006531D01*
X014011Y006566D01*
X014011Y006634D01*
X013908Y006737D01*
X013905Y006877D02*
X013905Y006945D01*
X013836Y007013D01*
X013768Y007013D01*
X013734Y006979D01*
X014011Y006839D02*
X013805Y006634D01*
X014011Y006634D02*
X014079Y006634D01*
X014113Y006668D01*
X014113Y006737D01*
X014011Y006839D01*
X013818Y008690D02*
X013750Y008690D01*
X013681Y008758D01*
X013681Y008827D01*
X013818Y008963D01*
X013886Y008963D01*
X013955Y008895D01*
X013955Y008827D01*
X013818Y008690D01*
X013575Y008864D02*
X013644Y009206D01*
X013572Y009277D02*
X013435Y009414D01*
X013504Y009346D02*
X013299Y009141D01*
X013439Y009001D02*
X013781Y009069D01*
X013902Y009424D02*
X013902Y009560D01*
X013936Y009526D02*
X013833Y009629D01*
X013765Y009560D02*
X013970Y009766D01*
X014073Y009663D01*
X014073Y009595D01*
X014004Y009526D01*
X013936Y009526D01*
X013899Y009837D02*
X013762Y009974D01*
X013830Y009906D02*
X013625Y009700D01*
X013519Y009874D02*
X013451Y009874D01*
X013348Y009977D01*
X013553Y010182D01*
X013656Y010080D01*
X013656Y010011D01*
X013519Y009874D01*
X012423Y011544D02*
X012278Y011544D01*
X012278Y011834D01*
X012423Y011834D01*
X012471Y011786D01*
X012471Y011592D01*
X012423Y011544D01*
X012177Y011544D02*
X011983Y011544D01*
X011983Y011834D01*
X012177Y011834D01*
X012080Y011689D02*
X011983Y011689D01*
X011882Y011544D02*
X011689Y011544D01*
X011689Y011834D01*
X011737Y012024D02*
X011834Y012024D01*
X011882Y012072D01*
X011882Y012169D01*
X011785Y012169D01*
X011689Y012072D02*
X011737Y012024D01*
X011689Y012072D02*
X011689Y012266D01*
X011737Y012314D01*
X011834Y012314D01*
X011882Y012266D01*
X011983Y012314D02*
X012128Y012314D01*
X012177Y012266D01*
X012177Y012218D01*
X012128Y012169D01*
X011983Y012169D01*
X011983Y012024D02*
X012128Y012024D01*
X012177Y012072D01*
X012177Y012121D01*
X012128Y012169D01*
X011983Y012024D02*
X011983Y012314D01*
X011588Y012266D02*
X011588Y012169D01*
X011539Y012121D01*
X011394Y012121D01*
X011491Y012121D02*
X011588Y012024D01*
X011394Y012024D02*
X011394Y012314D01*
X011539Y012314D01*
X011588Y012266D01*
X010414Y010073D02*
X010317Y009976D01*
X010317Y010024D02*
X010317Y009879D01*
X010414Y009879D02*
X010124Y009879D01*
X010124Y010024D01*
X010172Y010073D01*
X010269Y010073D01*
X010317Y010024D01*
X010414Y009778D02*
X010124Y009778D01*
X010124Y009585D02*
X010414Y009585D01*
X010317Y009681D01*
X010414Y009778D01*
X010269Y009484D02*
X010317Y009435D01*
X010317Y009290D01*
X010414Y009290D02*
X010124Y009290D01*
X010124Y009435D01*
X010172Y009484D01*
X010269Y009484D01*
X007907Y009064D02*
X007713Y009064D01*
X007810Y009064D02*
X007810Y008774D01*
X007612Y008822D02*
X007612Y009064D01*
X007419Y009064D02*
X007419Y008822D01*
X007467Y008774D01*
X007564Y008774D01*
X007612Y008822D01*
X007318Y008822D02*
X007269Y008774D01*
X007124Y008774D01*
X007124Y009064D01*
X007269Y009064D01*
X007318Y009016D01*
X007318Y008968D01*
X007269Y008919D01*
X007124Y008919D01*
X007269Y008919D02*
X007318Y008871D01*
X007318Y008822D01*
X004464Y003723D02*
X004464Y003674D01*
X004367Y003674D01*
X004319Y003723D01*
X004222Y003723D01*
X004174Y003674D01*
X004174Y003578D01*
X004222Y003529D01*
X004319Y003529D01*
X004367Y003578D01*
X004464Y003578D01*
X004464Y003529D01*
X004464Y003428D02*
X004464Y003235D01*
X004464Y003331D02*
X004174Y003331D01*
X004271Y003235D01*
X004319Y003134D02*
X004416Y003134D01*
X004464Y003085D01*
X004464Y002988D01*
X004416Y002940D01*
X004319Y002940D02*
X004271Y003037D01*
X004271Y003085D01*
X004319Y003134D01*
X004174Y003134D02*
X004174Y002940D01*
X004319Y002940D01*
X004271Y002839D02*
X004464Y002645D01*
X004416Y002544D02*
X004367Y002544D01*
X004319Y002496D01*
X004319Y002448D01*
X004319Y002496D02*
X004271Y002544D01*
X004222Y002544D01*
X004174Y002496D01*
X004174Y002399D01*
X004222Y002351D01*
X004416Y002351D02*
X004464Y002399D01*
X004464Y002496D01*
X004416Y002544D01*
X004271Y002645D02*
X004464Y002839D01*
D11*
X007034Y001209D03*
X007044Y001219D03*
X007544Y000769D03*
D12*
X007539Y000779D03*
X007539Y001629D03*
X008429Y001229D03*
X008429Y001219D03*
X008419Y001199D03*
D13*
X007539Y000789D03*
D14*
X007544Y000799D03*
D15*
X007539Y000809D03*
X007539Y001679D03*
D16*
X008119Y001529D03*
X008449Y001339D03*
X008439Y001139D03*
X007889Y000819D03*
X007199Y000819D03*
X006769Y001449D03*
X006619Y001179D03*
D17*
X006684Y001059D03*
X007094Y000829D03*
X006974Y001549D03*
X007994Y000829D03*
D18*
X007184Y001009D03*
X007034Y000839D03*
X007214Y001469D03*
X007224Y001479D03*
D19*
X006769Y001009D03*
X006749Y001019D03*
X008049Y000839D03*
D20*
X008109Y000849D03*
X006979Y000849D03*
D21*
X006919Y000859D03*
X007179Y001019D03*
X007539Y001719D03*
X008169Y000859D03*
D22*
X008434Y001239D03*
X008164Y001499D03*
X007544Y000859D03*
X006714Y001369D03*
X006644Y001259D03*
D23*
X006869Y000869D03*
X007009Y001169D03*
X007069Y001239D03*
X007079Y001249D03*
X007079Y001259D03*
X007189Y001029D03*
X007739Y001029D03*
X007739Y001039D03*
X008219Y000869D03*
X008149Y001639D03*
X006939Y001639D03*
D24*
X007539Y001619D03*
X007819Y001379D03*
X007819Y001369D03*
X007809Y001359D03*
X007809Y001349D03*
X008179Y001459D03*
X007539Y000869D03*
D25*
X007739Y001069D03*
X007739Y001079D03*
X007729Y001519D03*
X008269Y001609D03*
X006989Y001129D03*
X006819Y000879D03*
X006819Y001609D03*
D26*
X007539Y001609D03*
X007539Y000879D03*
D27*
X007734Y001059D03*
X008264Y000879D03*
D28*
X008339Y000899D03*
X007969Y001149D03*
X008339Y001589D03*
X007479Y001459D03*
X007349Y001299D03*
X006779Y001599D03*
X006749Y001589D03*
X006719Y001579D03*
X006689Y001569D03*
X006689Y000919D03*
X006719Y000909D03*
X006749Y000899D03*
X006779Y000889D03*
D29*
X007539Y000889D03*
X007539Y001599D03*
D30*
X007744Y001089D03*
X008304Y000889D03*
X008304Y001599D03*
D31*
X007544Y000899D03*
D32*
X007539Y000909D03*
D33*
X007474Y001009D03*
X007404Y001129D03*
X007414Y001139D03*
X007414Y001149D03*
X007414Y001159D03*
X007334Y001269D03*
X006984Y001119D03*
X006664Y000929D03*
X006644Y000939D03*
X007954Y001119D03*
X007964Y001139D03*
X007974Y001159D03*
X007974Y001169D03*
X008364Y000909D03*
X008394Y000919D03*
X008394Y001569D03*
X008364Y001579D03*
D34*
X007539Y001569D03*
X007539Y000919D03*
D35*
X007539Y000929D03*
D36*
X007489Y001019D03*
X007399Y001109D03*
X007399Y001119D03*
X007419Y001169D03*
X007429Y001179D03*
X007429Y001189D03*
X007319Y001259D03*
X007149Y001039D03*
X006659Y001559D03*
X007889Y001269D03*
X007979Y001179D03*
X007959Y001129D03*
X007949Y001109D03*
X008419Y000929D03*
X008439Y000939D03*
D37*
X007539Y000939D03*
D38*
X007394Y001099D03*
X007434Y001199D03*
X007304Y001249D03*
X007204Y001099D03*
X007154Y001049D03*
X006974Y001109D03*
X007114Y001419D03*
X007114Y001429D03*
X007114Y001439D03*
X007264Y001439D03*
X007794Y001179D03*
X007944Y001099D03*
X007984Y001189D03*
X007994Y001199D03*
X008464Y000949D03*
X008484Y000959D03*
X008424Y001559D03*
X006624Y000949D03*
D39*
X007544Y000949D03*
D40*
X007499Y001029D03*
X007509Y001039D03*
X007389Y001089D03*
X007239Y001159D03*
X007229Y001139D03*
X007219Y001129D03*
X007209Y001109D03*
X007199Y001089D03*
X007189Y001079D03*
X007299Y001239D03*
X007199Y001339D03*
X007249Y001409D03*
X007259Y001429D03*
X007109Y001409D03*
X007469Y001469D03*
X007559Y001269D03*
X007789Y001169D03*
X007939Y001089D03*
X006599Y000959D03*
X006629Y001549D03*
D41*
X007539Y000959D03*
D42*
X007384Y001079D03*
X007434Y001209D03*
X007284Y001229D03*
X007274Y001219D03*
X007264Y001199D03*
X007244Y001169D03*
X007234Y001149D03*
X007214Y001119D03*
X007174Y001069D03*
X007164Y001059D03*
X006974Y001099D03*
X007214Y001359D03*
X007224Y001369D03*
X007234Y001379D03*
X007244Y001389D03*
X007244Y001399D03*
X007254Y001419D03*
X007784Y001159D03*
X007884Y001259D03*
X007994Y001209D03*
X007974Y001009D03*
X008454Y001549D03*
X008474Y001539D03*
X008494Y001529D03*
X008514Y001519D03*
X008534Y001509D03*
X008554Y001499D03*
X008574Y001489D03*
X008524Y000979D03*
X008504Y000969D03*
X006574Y000969D03*
X006554Y000979D03*
X006534Y000989D03*
X006504Y001489D03*
X006524Y001499D03*
X006604Y001539D03*
D43*
X007539Y000969D03*
D44*
X007544Y000979D03*
D45*
X007539Y000989D03*
D46*
X007519Y001049D03*
X007529Y001059D03*
X007539Y001069D03*
X007539Y001079D03*
X007549Y001089D03*
X007559Y001259D03*
X007269Y001209D03*
X007259Y001189D03*
X007249Y001179D03*
X007209Y001349D03*
X007099Y001399D03*
X006589Y001529D03*
X006569Y001519D03*
X006549Y001509D03*
X006489Y001479D03*
X006499Y001009D03*
X006519Y000999D03*
X007929Y001079D03*
X007999Y001219D03*
X008549Y000989D03*
D47*
X007539Y000999D03*
D48*
X007554Y001099D03*
X007564Y001109D03*
X007574Y001119D03*
X007574Y001129D03*
X007584Y001139D03*
X007444Y001219D03*
X007354Y001349D03*
X007164Y001329D03*
X007094Y001389D03*
X007384Y001069D03*
X007884Y001249D03*
X007924Y001069D03*
X008134Y001119D03*
X008134Y001129D03*
X008144Y001139D03*
X008564Y000999D03*
X008584Y001009D03*
X008634Y001039D03*
X008614Y001469D03*
X008594Y001479D03*
X006474Y001469D03*
X006454Y001039D03*
X006464Y001029D03*
X006484Y001019D03*
D49*
X007054Y001659D03*
X007514Y001439D03*
X007754Y001009D03*
D50*
X008274Y001009D03*
X008294Y001019D03*
X008314Y001029D03*
X008334Y001039D03*
X008444Y001369D03*
D51*
X008089Y001649D03*
X007739Y001019D03*
X007059Y001229D03*
X007029Y001199D03*
X006999Y001649D03*
D52*
X007119Y001309D03*
X007379Y001399D03*
X007389Y001409D03*
X007549Y001229D03*
X007619Y001199D03*
X007609Y001179D03*
X007699Y001109D03*
X007859Y001209D03*
X007869Y001219D03*
X007989Y001019D03*
X008739Y001139D03*
X008749Y001159D03*
X008759Y001179D03*
X008759Y001189D03*
X008769Y001209D03*
X008769Y001219D03*
X008769Y001229D03*
X008769Y001239D03*
X008769Y001249D03*
X008769Y001259D03*
X008769Y001269D03*
X008769Y001279D03*
X008759Y001299D03*
X008759Y001309D03*
X008749Y001329D03*
X008739Y001349D03*
X006349Y001349D03*
X006339Y001329D03*
X006329Y001309D03*
X006329Y001299D03*
X006319Y001279D03*
X006319Y001269D03*
X006319Y001229D03*
X006319Y001219D03*
X006319Y001209D03*
X006329Y001189D03*
X006329Y001179D03*
X006339Y001159D03*
X006349Y001139D03*
D53*
X006429Y001059D03*
X006439Y001049D03*
X006459Y001459D03*
X007359Y001359D03*
X007379Y001309D03*
X007559Y001249D03*
X007599Y001159D03*
X007589Y001149D03*
X007709Y001099D03*
X007779Y001149D03*
X007879Y001239D03*
X008119Y001109D03*
X008599Y001019D03*
X008619Y001029D03*
X008649Y001049D03*
X008659Y001059D03*
X008629Y001459D03*
X007469Y001479D03*
D54*
X007704Y001529D03*
X006734Y001029D03*
X006714Y001039D03*
D55*
X007279Y001059D03*
X007469Y001249D03*
X007469Y001259D03*
X007539Y001199D03*
X007719Y001239D03*
X007749Y001209D03*
X007999Y001029D03*
X008079Y001229D03*
X008079Y001239D03*
X007319Y001339D03*
D56*
X007434Y001359D03*
X007434Y001369D03*
X007434Y001379D03*
X007464Y001489D03*
X007264Y001529D03*
X007084Y001379D03*
X007194Y001289D03*
X007264Y001039D03*
X006964Y001089D03*
X006314Y001239D03*
X006314Y001249D03*
X006314Y001259D03*
X007634Y001209D03*
X007844Y001189D03*
X007854Y001199D03*
X008074Y001259D03*
X008094Y001069D03*
D57*
X006699Y001049D03*
D58*
X007274Y001049D03*
X007544Y001209D03*
X007694Y001129D03*
X007744Y001199D03*
X007724Y001249D03*
X007814Y001099D03*
X007444Y001399D03*
D59*
X007734Y001049D03*
X007004Y001149D03*
X007004Y001159D03*
X006894Y001629D03*
X008194Y001629D03*
D60*
X008079Y001249D03*
X008079Y001059D03*
X007919Y001049D03*
X007779Y001139D03*
X007749Y001189D03*
X007729Y001259D03*
X007639Y001219D03*
X007549Y001219D03*
X007459Y001239D03*
X007469Y001269D03*
X007429Y001349D03*
X007439Y001389D03*
X007699Y001119D03*
D61*
X008349Y001049D03*
X006809Y001479D03*
X006629Y001129D03*
D62*
X006414Y001069D03*
X006404Y001079D03*
X006394Y001089D03*
X006384Y001099D03*
X006374Y001109D03*
X006364Y001119D03*
X006354Y001129D03*
X006344Y001149D03*
X006334Y001169D03*
X006324Y001199D03*
X006324Y001289D03*
X006334Y001319D03*
X006344Y001339D03*
X006354Y001359D03*
X006364Y001369D03*
X006374Y001379D03*
X006384Y001389D03*
X006394Y001399D03*
X006404Y001409D03*
X006414Y001419D03*
X006424Y001429D03*
X006434Y001439D03*
X006444Y001449D03*
X007144Y001319D03*
X007174Y001279D03*
X007164Y001269D03*
X007364Y001369D03*
X007364Y001379D03*
X007374Y001389D03*
X007394Y001419D03*
X007454Y001229D03*
X007554Y001239D03*
X007614Y001189D03*
X007604Y001169D03*
X007724Y001269D03*
X007874Y001229D03*
X008004Y001229D03*
X008074Y001269D03*
X008114Y001099D03*
X008104Y001089D03*
X008104Y001079D03*
X007924Y001059D03*
X007384Y001059D03*
X008644Y001449D03*
X008654Y001439D03*
X008664Y001429D03*
X008674Y001419D03*
X008684Y001409D03*
X008694Y001399D03*
X008704Y001389D03*
X008714Y001379D03*
X008724Y001369D03*
X008734Y001359D03*
X008744Y001339D03*
X008754Y001319D03*
X008764Y001289D03*
X008764Y001199D03*
X008754Y001169D03*
X008744Y001149D03*
X008734Y001129D03*
X008724Y001119D03*
X008714Y001109D03*
X008704Y001099D03*
X008694Y001089D03*
X008684Y001079D03*
X008674Y001069D03*
D63*
X008394Y001079D03*
X008374Y001069D03*
X008364Y001059D03*
X008444Y001359D03*
X006794Y001469D03*
X006624Y001149D03*
X006624Y001139D03*
D64*
X006674Y001069D03*
X006864Y001509D03*
X007024Y001559D03*
X007934Y001669D03*
D65*
X008439Y001389D03*
X007149Y001669D03*
X006659Y001079D03*
D66*
X006654Y001089D03*
X006644Y001099D03*
X006644Y001109D03*
X006844Y001499D03*
X007454Y001279D03*
D67*
X007899Y001279D03*
X008399Y001089D03*
X008409Y001099D03*
X008419Y001109D03*
X008449Y001349D03*
X006619Y001159D03*
D68*
X006639Y001119D03*
X006829Y001489D03*
X008439Y001379D03*
D69*
X008434Y001129D03*
X008424Y001119D03*
X006784Y001459D03*
X006624Y001169D03*
D70*
X006999Y001139D03*
X007249Y001519D03*
X006859Y001619D03*
X008229Y001619D03*
D71*
X008424Y001209D03*
X008414Y001189D03*
X008404Y001179D03*
X008404Y001169D03*
X008394Y001159D03*
X008394Y001149D03*
X006704Y001359D03*
D72*
X007014Y001179D03*
X007024Y001189D03*
X007504Y001449D03*
D73*
X006754Y001439D03*
X006614Y001189D03*
X008444Y001329D03*
D74*
X008449Y001319D03*
X006619Y001199D03*
D75*
X006619Y001209D03*
X006739Y001419D03*
X008449Y001299D03*
D76*
X008444Y001289D03*
X006624Y001219D03*
D77*
X006629Y001229D03*
X006729Y001409D03*
X008149Y001509D03*
D78*
X008444Y001279D03*
X008444Y001269D03*
X006724Y001399D03*
X006634Y001239D03*
D79*
X006639Y001249D03*
X006719Y001379D03*
X006719Y001389D03*
X008439Y001259D03*
X008439Y001249D03*
D80*
X006759Y001299D03*
X006749Y001269D03*
D81*
X006744Y001279D03*
D82*
X006749Y001289D03*
X008179Y001449D03*
D83*
X007694Y001289D03*
D84*
X007789Y001299D03*
X007789Y001309D03*
D85*
X006719Y001309D03*
D86*
X006744Y001429D03*
X008134Y001519D03*
X008444Y001309D03*
D87*
X006714Y001319D03*
D88*
X007784Y001319D03*
X007784Y001329D03*
X007794Y001339D03*
X007824Y001389D03*
D89*
X008169Y001479D03*
X006709Y001329D03*
D90*
X006709Y001339D03*
D91*
X006704Y001349D03*
D92*
X008044Y001399D03*
D93*
X008039Y001409D03*
X008019Y001419D03*
D94*
X007974Y001429D03*
D95*
X008164Y001439D03*
D96*
X007239Y001489D03*
X007209Y001459D03*
X007199Y001449D03*
D97*
X008174Y001469D03*
D98*
X008169Y001489D03*
X007539Y001709D03*
D99*
X007274Y001509D03*
X007254Y001499D03*
D100*
X006939Y001539D03*
X006909Y001529D03*
X006879Y001519D03*
D101*
X007899Y001539D03*
D102*
X007844Y001549D03*
D103*
X007784Y001559D03*
D104*
X007544Y001579D03*
D105*
X007539Y001589D03*
D106*
X007539Y001689D03*
D107*
X007544Y001699D03*
D108*
X006173Y001953D02*
X006173Y002673D01*
X005901Y009001D02*
X005918Y009018D01*
X009647Y009009D02*
X009671Y009009D01*
X011459Y010797D02*
X011459Y010821D01*
X009818Y011401D02*
X009801Y011418D01*
D109*
X009159Y009009D03*
X010609Y008409D03*
D110*
X011287Y008532D02*
X011444Y008375D01*
X012074Y008375D01*
X012231Y008532D01*
X012231Y008965D01*
X012231Y009753D02*
X012231Y010343D01*
X011287Y010343D01*
X011287Y009753D01*
X010840Y009726D02*
X010659Y009726D01*
X010751Y009604D01*
X010659Y009726D02*
X010478Y009726D01*
X010573Y009604D02*
X010649Y009720D01*
X011287Y008965D02*
X011287Y008532D01*
X012299Y006909D02*
X009719Y006909D01*
X009719Y004549D01*
X010637Y003410D02*
X009751Y002899D01*
X009810Y002796D01*
X009963Y002294D02*
X009895Y002255D01*
X010322Y001910D02*
X010381Y001808D01*
X011267Y002319D01*
X011208Y002422D01*
X010696Y003308D02*
X010637Y003410D01*
X009360Y002448D02*
X009360Y002133D01*
X009124Y002133D01*
X008494Y002133D02*
X008258Y002133D01*
X008258Y002448D01*
X005385Y005358D02*
X005385Y005594D01*
X005385Y005358D02*
X005070Y005358D01*
X005385Y006224D02*
X005385Y006460D01*
X005070Y006460D01*
X005070Y006658D02*
X005385Y006658D01*
X005385Y006894D01*
X005385Y007524D02*
X005385Y007760D01*
X005070Y007760D01*
X005070Y007958D02*
X005385Y007958D01*
X005385Y008194D01*
X005385Y008824D02*
X005385Y009060D01*
X005070Y009060D01*
X006583Y008189D02*
X006583Y006977D01*
X007095Y006583D02*
X008071Y006583D01*
X008583Y006977D02*
X008583Y008189D01*
X008687Y008136D02*
X008687Y007703D01*
X008687Y008136D02*
X008844Y008293D01*
X009474Y008293D01*
X009631Y008136D01*
X009631Y007703D01*
X009631Y006915D02*
X009631Y006325D01*
X008687Y006325D01*
X008687Y006915D01*
X007083Y007583D02*
X007085Y007627D01*
X007091Y007671D01*
X007101Y007714D01*
X007114Y007756D01*
X007131Y007797D01*
X007152Y007836D01*
X007176Y007873D01*
X007203Y007908D01*
X007233Y007940D01*
X007266Y007970D01*
X007302Y007996D01*
X007339Y008020D01*
X007379Y008039D01*
X007420Y008056D01*
X007463Y008068D01*
X007506Y008077D01*
X007550Y008082D01*
X007594Y008083D01*
X007638Y008080D01*
X007682Y008073D01*
X007725Y008062D01*
X007767Y008048D01*
X007807Y008030D01*
X007846Y008008D01*
X007882Y007984D01*
X007916Y007956D01*
X007948Y007925D01*
X007977Y007891D01*
X008003Y007855D01*
X008025Y007817D01*
X008044Y007777D01*
X008059Y007735D01*
X008071Y007693D01*
X008079Y007649D01*
X008083Y007605D01*
X008083Y007561D01*
X008079Y007517D01*
X008071Y007473D01*
X008059Y007431D01*
X008044Y007389D01*
X008025Y007349D01*
X008003Y007311D01*
X007977Y007275D01*
X007948Y007241D01*
X007916Y007210D01*
X007882Y007182D01*
X007846Y007158D01*
X007807Y007136D01*
X007767Y007118D01*
X007725Y007104D01*
X007682Y007093D01*
X007638Y007086D01*
X007594Y007083D01*
X007550Y007084D01*
X007506Y007089D01*
X007463Y007098D01*
X007420Y007110D01*
X007379Y007127D01*
X007339Y007146D01*
X007302Y007170D01*
X007266Y007196D01*
X007233Y007226D01*
X007203Y007258D01*
X007176Y007293D01*
X007152Y007330D01*
X007131Y007369D01*
X007114Y007410D01*
X007101Y007452D01*
X007091Y007495D01*
X007085Y007539D01*
X007083Y007583D01*
X007095Y008583D02*
X008083Y008583D01*
X009651Y012319D02*
X010537Y011808D01*
X010596Y011910D01*
X009710Y012422D02*
X009651Y012319D01*
X009863Y012924D02*
X009795Y012963D01*
X009377Y013208D02*
X009510Y013703D01*
X010222Y013308D02*
X010281Y013410D01*
X011167Y012899D01*
X011108Y012796D01*
X008008Y013575D02*
X008141Y014070D01*
X004194Y011954D02*
X003971Y012177D01*
X004194Y011954D02*
X004027Y011787D01*
X003581Y011341D02*
X003414Y011174D01*
X003191Y011397D01*
X002439Y008121D02*
X002321Y008121D01*
X002439Y008121D02*
X002439Y007097D01*
X002321Y007097D01*
X001809Y006979D02*
X001809Y006900D01*
X001297Y007097D02*
X001179Y007097D01*
X001179Y008121D01*
X001297Y008121D01*
X012299Y006909D02*
X012299Y004549D01*
D111*
X008977Y004745D02*
X008741Y004745D01*
X008741Y004973D02*
X008977Y004973D01*
X008977Y005445D02*
X008741Y005445D01*
X008741Y004273D02*
X008977Y004273D01*
X008977Y004045D02*
X008741Y004045D01*
X008741Y003573D02*
X008977Y003573D01*
X006927Y003573D02*
X006691Y003573D01*
X006691Y004045D02*
X006927Y004045D01*
X006927Y004273D02*
X006691Y004273D01*
X006691Y004745D02*
X006927Y004745D01*
X006927Y004973D02*
X006691Y004973D01*
X006691Y005445D02*
X006927Y005445D01*
X005227Y005145D02*
X004991Y005145D01*
X004991Y004673D02*
X005227Y004673D01*
X005227Y004445D02*
X004991Y004445D01*
X004991Y003973D02*
X005227Y003973D01*
X005227Y003745D02*
X004991Y003745D01*
X004991Y003273D02*
X005227Y003273D01*
X006959Y009408D02*
X008812Y011260D01*
X008812Y011458D01*
X006959Y013311D01*
X005008Y011359D01*
X006959Y009408D01*
X008345Y011359D02*
X008347Y011382D01*
X008353Y011405D01*
X008362Y011426D01*
X008375Y011446D01*
X008391Y011463D01*
X008409Y011477D01*
X008429Y011488D01*
X008451Y011496D01*
X008474Y011500D01*
X008498Y011500D01*
X008521Y011496D01*
X008543Y011488D01*
X008563Y011477D01*
X008581Y011463D01*
X008597Y011446D01*
X008610Y011426D01*
X008619Y011405D01*
X008625Y011382D01*
X008627Y011359D01*
X008625Y011336D01*
X008619Y011313D01*
X008610Y011292D01*
X008597Y011272D01*
X008581Y011255D01*
X008563Y011241D01*
X008543Y011230D01*
X008521Y011222D01*
X008498Y011218D01*
X008474Y011218D01*
X008451Y011222D01*
X008429Y011230D01*
X008409Y011241D01*
X008391Y011255D01*
X008375Y011272D01*
X008362Y011292D01*
X008353Y011313D01*
X008347Y011336D01*
X008345Y011359D01*
D112*
X011009Y007099D03*
D113*
X009559Y007459D02*
X008759Y007459D01*
X011359Y009209D02*
X012159Y009209D01*
M02*
