G75*
G70*
%OFA0B0*%
%FSLAX24Y24*%
%IPPOS*%
%LPD*%
%AMOC8*
5,1,8,0,0,1.08239X$1,22.5*
%
%ADD10C,0.0100*%
%ADD11C,0.0740*%
%ADD12R,0.0354X0.0276*%
%ADD13R,0.0300X0.0600*%
%ADD14R,0.0276X0.0354*%
%ADD15R,0.0276X0.0669*%
%ADD16R,0.0500X0.0220*%
%ADD17R,0.0220X0.0500*%
%ADD18R,0.0276X0.0472*%
%ADD19R,0.2126X0.2441*%
%ADD20R,0.0394X0.0630*%
%ADD21R,0.0630X0.0551*%
%ADD22R,0.0315X0.0315*%
%ADD23R,0.0315X0.0472*%
%ADD24R,0.0315X0.0354*%
%ADD25R,0.0551X0.0551*%
%ADD26R,0.0354X0.0315*%
%ADD27C,0.0240*%
%ADD28C,0.0160*%
%ADD29C,0.0357*%
%ADD30C,0.0120*%
%ADD31C,0.0320*%
%ADD32C,0.0396*%
D10*
X002804Y002826D02*
X005260Y002826D01*
X005279Y002873D02*
X005235Y002766D01*
X005235Y002620D01*
X005267Y002543D01*
X005233Y002543D01*
X005133Y002443D01*
X005133Y001751D01*
X005233Y001651D01*
X005925Y001651D01*
X006025Y001751D01*
X006025Y002443D01*
X005935Y002533D01*
X005971Y002620D01*
X005971Y002766D01*
X005927Y002873D01*
X006300Y002873D01*
X006346Y002828D01*
X006474Y002775D01*
X006612Y002775D01*
X006718Y002819D01*
X006815Y002722D01*
X006944Y002593D01*
X007462Y002593D01*
X007456Y002586D01*
X007336Y002543D01*
X006729Y002543D01*
X006629Y002443D01*
X006629Y001751D01*
X006729Y001651D01*
X007421Y001651D01*
X007521Y001751D01*
X007521Y001908D01*
X007651Y001955D01*
X007786Y001955D01*
X007922Y002011D01*
X008025Y002115D01*
X008036Y002140D01*
X008036Y001726D01*
X008135Y001626D01*
X008591Y001626D01*
X008691Y001726D01*
X008691Y002221D01*
X008591Y002321D01*
X008583Y002321D01*
X008583Y002384D01*
X008514Y002453D01*
X008965Y002453D01*
X009065Y002553D01*
X009065Y002661D01*
X009327Y002923D01*
X009458Y002923D01*
X009550Y002885D01*
X009696Y002885D01*
X009832Y002941D01*
X009935Y003045D01*
X009991Y003180D01*
X009991Y003230D01*
X010099Y003122D01*
X010082Y003114D01*
X009984Y003016D01*
X009963Y002968D01*
X009440Y002666D01*
X009404Y002530D01*
X009612Y002169D01*
X009704Y002144D01*
X009679Y002052D01*
X009888Y001692D01*
X010024Y001655D01*
X010179Y001745D01*
X010223Y001745D01*
X010286Y001744D01*
X010288Y001745D01*
X010291Y001745D01*
X010349Y001769D01*
X010408Y001793D01*
X010410Y001794D01*
X010412Y001795D01*
X010457Y001840D01*
X010718Y002094D01*
X010766Y002114D01*
X010864Y002212D01*
X010901Y002299D01*
X010911Y002282D01*
X011047Y002246D01*
X011578Y002552D01*
X011614Y002688D01*
X011548Y002802D01*
X011550Y002804D01*
X011539Y002883D01*
X011539Y003178D01*
X011556Y003240D01*
X011539Y003270D01*
X011539Y003304D01*
X011493Y003350D01*
X011339Y003620D01*
X011339Y003654D01*
X011293Y003700D01*
X011291Y003704D01*
X012092Y003704D01*
X012130Y003715D01*
X012164Y003734D01*
X012192Y003762D01*
X012212Y003796D01*
X012222Y003835D01*
X012222Y005025D01*
X011059Y005025D01*
X011059Y005125D01*
X010959Y005125D01*
X010959Y006445D01*
X009926Y006445D01*
X009888Y006435D01*
X009854Y006415D01*
X009826Y006387D01*
X009806Y006353D01*
X009796Y006315D01*
X009796Y005125D01*
X010959Y005125D01*
X010959Y005025D01*
X009796Y005025D01*
X009796Y004252D01*
X009541Y004507D01*
X009541Y004816D01*
X009497Y004859D01*
X009541Y004902D01*
X009541Y005516D01*
X009441Y005615D01*
X009439Y005615D01*
X009439Y005704D01*
X009189Y005954D01*
X009054Y006089D01*
X008872Y006089D01*
X008806Y006154D01*
X008678Y006207D01*
X008613Y006207D01*
X008623Y006225D01*
X008633Y006263D01*
X008633Y006558D01*
X008358Y006558D01*
X008358Y006133D01*
X008390Y006133D01*
X008314Y006056D01*
X008269Y005948D01*
X008246Y005971D01*
X008107Y006110D01*
X008116Y006114D01*
X008142Y006139D01*
X008163Y006133D01*
X008308Y006133D01*
X008308Y006558D01*
X008358Y006558D01*
X008358Y006608D01*
X008308Y006608D01*
X008308Y007033D01*
X008163Y007033D01*
X008125Y007023D01*
X008091Y007003D01*
X008063Y006975D01*
X008043Y006941D01*
X008033Y006903D01*
X008033Y006739D01*
X007988Y006757D01*
X007850Y006757D01*
X007722Y006704D01*
X007656Y006639D01*
X007522Y006639D01*
X007456Y006704D01*
X007328Y006757D01*
X007190Y006757D01*
X007153Y006742D01*
X007153Y006953D01*
X007053Y007053D01*
X006653Y007053D01*
X006653Y008113D01*
X007053Y008113D01*
X007153Y008213D01*
X007153Y008953D01*
X007084Y009023D01*
X007173Y009112D01*
X007173Y009190D01*
X007403Y008960D01*
X007544Y008960D01*
X007767Y009183D01*
X007989Y009405D01*
X008212Y009628D01*
X008435Y009851D01*
X008441Y009857D01*
X008585Y009744D01*
X008589Y009741D01*
X008589Y008989D01*
X008575Y009003D01*
X008541Y009023D01*
X008503Y009033D01*
X008358Y009033D01*
X008358Y008608D01*
X008633Y008608D01*
X008633Y008774D01*
X008718Y008689D01*
X008812Y008595D01*
X008812Y008545D01*
X008911Y008445D01*
X009407Y008445D01*
X009434Y008473D01*
X009462Y008465D01*
X009640Y008465D01*
X009640Y008734D01*
X009678Y008734D01*
X009678Y008465D01*
X009856Y008465D01*
X009860Y008466D01*
X009860Y008434D01*
X009844Y008434D01*
X009745Y008334D01*
X009745Y008150D01*
X009644Y008150D01*
X009644Y008206D01*
X009544Y008306D01*
X008774Y008306D01*
X008674Y008206D01*
X008674Y008118D01*
X008646Y008106D01*
X008564Y008024D01*
X008489Y007949D01*
X007511Y007950D01*
X007506Y007954D01*
X007378Y008007D01*
X007240Y008007D01*
X007112Y007954D01*
X007014Y007856D01*
X006961Y007728D01*
X006961Y007590D01*
X007014Y007462D01*
X007112Y007364D01*
X007240Y007311D01*
X007378Y007311D01*
X007506Y007364D01*
X007513Y007370D01*
X008551Y007369D01*
X008551Y007369D01*
X008609Y007369D01*
X008666Y007369D01*
X008667Y007369D01*
X008720Y007391D01*
X008773Y007413D01*
X008773Y007413D01*
X008773Y007413D01*
X008775Y007415D01*
X009544Y007415D01*
X009644Y007514D01*
X009644Y007570D01*
X009745Y007570D01*
X009745Y007563D01*
X009813Y007495D01*
X009813Y007124D01*
X009791Y007102D01*
X009735Y006966D01*
X009735Y006820D01*
X009791Y006685D01*
X009895Y006581D01*
X010030Y006525D01*
X010176Y006525D01*
X010312Y006581D01*
X010415Y006685D01*
X010471Y006820D01*
X010471Y006966D01*
X010415Y007102D01*
X010393Y007124D01*
X010393Y007478D01*
X010478Y007563D01*
X010478Y007845D01*
X010857Y007845D01*
X010956Y007945D01*
X010956Y008361D01*
X010908Y008409D01*
X010956Y008457D01*
X010956Y008873D01*
X010903Y008926D01*
X010905Y009054D01*
X010986Y009136D01*
X010986Y009592D01*
X010904Y009674D01*
X010909Y009677D01*
X010937Y009705D01*
X010956Y009739D01*
X010966Y009777D01*
X010966Y009926D01*
X010688Y009926D01*
X010688Y009983D01*
X010966Y009983D01*
X010966Y010132D01*
X010956Y010170D01*
X010937Y010204D01*
X010909Y010232D01*
X010874Y010252D01*
X010851Y010258D01*
X010904Y010312D01*
X010957Y010440D01*
X010957Y010499D01*
X010995Y010462D01*
X011411Y010462D01*
X011459Y010510D01*
X011507Y010462D01*
X011923Y010462D01*
X012023Y010561D01*
X012023Y010589D01*
X012418Y010589D01*
X012522Y010485D01*
X012376Y010340D01*
X012294Y010141D01*
X012294Y009927D01*
X012376Y009728D01*
X012528Y009576D01*
X012630Y009534D01*
X012528Y009492D01*
X012376Y009340D01*
X012294Y009141D01*
X012294Y008927D01*
X012376Y008728D01*
X012528Y008576D01*
X012630Y008534D01*
X012528Y008492D01*
X012376Y008340D01*
X012294Y008141D01*
X012294Y007927D01*
X012376Y007728D01*
X012528Y007576D01*
X012630Y007534D01*
X012528Y007492D01*
X012376Y007340D01*
X012294Y007141D01*
X012294Y006927D01*
X012376Y006728D01*
X012528Y006576D01*
X012656Y006523D01*
X012634Y006516D01*
X012561Y006479D01*
X012495Y006431D01*
X012437Y006373D01*
X012389Y006307D01*
X012352Y006234D01*
X012327Y006156D01*
X012315Y006084D01*
X012784Y006084D01*
X012784Y005984D01*
X012315Y005984D01*
X012327Y005912D01*
X012352Y005834D01*
X012389Y005761D01*
X012437Y005695D01*
X012495Y005637D01*
X012561Y005589D01*
X012634Y005552D01*
X012690Y005534D01*
X012634Y005516D01*
X012561Y005479D01*
X012495Y005431D01*
X012437Y005373D01*
X012389Y005307D01*
X012352Y005234D01*
X012327Y005156D01*
X012315Y005084D01*
X012784Y005084D01*
X012784Y004984D01*
X012884Y004984D01*
X012884Y004515D01*
X012956Y004527D01*
X013034Y004552D01*
X013107Y004589D01*
X013173Y004637D01*
X013231Y004695D01*
X013279Y004761D01*
X013316Y004834D01*
X013341Y004912D01*
X013353Y004984D01*
X012884Y004984D01*
X012884Y005084D01*
X013353Y005084D01*
X013341Y005156D01*
X013316Y005234D01*
X013279Y005307D01*
X013231Y005373D01*
X013173Y005431D01*
X013107Y005479D01*
X013034Y005516D01*
X012978Y005534D01*
X013034Y005552D01*
X013107Y005589D01*
X013173Y005637D01*
X013231Y005695D01*
X013279Y005761D01*
X013316Y005834D01*
X013341Y005912D01*
X013353Y005984D01*
X012884Y005984D01*
X012884Y005084D01*
X012784Y005084D01*
X012784Y005553D01*
X012784Y005984D01*
X012884Y005984D01*
X012884Y006084D01*
X013353Y006084D01*
X013341Y006156D01*
X013316Y006234D01*
X013279Y006307D01*
X013231Y006373D01*
X013173Y006431D01*
X013107Y006479D01*
X013034Y006516D01*
X013012Y006523D01*
X013140Y006576D01*
X013292Y006728D01*
X013374Y006927D01*
X013374Y007141D01*
X013292Y007340D01*
X013140Y007492D01*
X013038Y007534D01*
X013140Y007576D01*
X013292Y007728D01*
X013374Y007927D01*
X013374Y008141D01*
X013292Y008340D01*
X013140Y008492D01*
X013038Y008534D01*
X013140Y008576D01*
X013292Y008728D01*
X013374Y008927D01*
X013374Y009141D01*
X013292Y009340D01*
X013140Y009492D01*
X013038Y009534D01*
X013140Y009576D01*
X013292Y009728D01*
X013374Y009927D01*
X013374Y010141D01*
X013292Y010340D01*
X013140Y010492D01*
X013054Y010527D01*
X013054Y010575D01*
X012729Y010900D01*
X012600Y011029D01*
X012023Y011029D01*
X012023Y011057D01*
X011923Y011156D01*
X011507Y011156D01*
X011459Y011108D01*
X011411Y011156D01*
X010995Y011156D01*
X010895Y011057D01*
X010895Y011033D01*
X010849Y011029D01*
X010768Y011029D01*
X010760Y011021D01*
X010748Y011020D01*
X010696Y010958D01*
X010639Y010900D01*
X010639Y010889D01*
X010613Y010857D01*
X010540Y010857D01*
X010412Y010804D01*
X010364Y010757D01*
X010359Y010763D01*
X010359Y011044D01*
X010440Y011011D01*
X010578Y011011D01*
X010706Y011064D01*
X010804Y011162D01*
X010857Y011290D01*
X010857Y011382D01*
X010904Y011429D01*
X010977Y011501D01*
X011014Y011412D01*
X011112Y011314D01*
X011240Y011261D01*
X011378Y011261D01*
X011506Y011314D01*
X011604Y011412D01*
X011657Y011540D01*
X011657Y011678D01*
X011604Y011806D01*
X011539Y011872D01*
X011539Y012397D01*
X011475Y012461D01*
X011514Y012530D01*
X011478Y012666D01*
X010947Y012972D01*
X010811Y012936D01*
X010705Y012754D01*
X010704Y012756D01*
X010639Y012821D01*
X010639Y012828D01*
X010639Y012915D01*
X010632Y012921D01*
X010632Y012931D01*
X010566Y012988D01*
X010504Y013049D01*
X010495Y013049D01*
X010465Y013075D01*
X010491Y013120D01*
X010455Y013256D01*
X009924Y013563D01*
X009788Y013526D01*
X009579Y013166D01*
X009604Y013074D01*
X009581Y013068D01*
X009574Y013130D01*
X009557Y013144D01*
X009492Y013360D01*
X009618Y013828D01*
X009547Y013950D01*
X009145Y014058D01*
X009091Y014027D01*
X009071Y014047D01*
X009037Y014066D01*
X008903Y014102D01*
X008782Y013652D01*
X008746Y013662D01*
X008866Y014112D01*
X008732Y014148D01*
X008693Y014148D01*
X008666Y014141D01*
X008634Y014195D01*
X008248Y014298D01*
X008823Y014218D01*
X009430Y014075D01*
X010021Y013877D01*
X010592Y013625D01*
X011136Y013322D01*
X011651Y012970D01*
X012130Y012571D01*
X012571Y012130D01*
X012970Y011651D01*
X013322Y011136D01*
X013625Y010592D01*
X013877Y010021D01*
X014075Y009430D01*
X014218Y008823D01*
X014304Y008206D01*
X014333Y007583D01*
X014304Y006960D01*
X014218Y006343D01*
X014075Y005736D01*
X013877Y005145D01*
X013625Y004574D01*
X013322Y004030D01*
X012970Y003515D01*
X012571Y003036D01*
X012130Y002595D01*
X011651Y002196D01*
X011136Y001844D01*
X010592Y001541D01*
X010021Y001289D01*
X009430Y001091D01*
X008823Y000948D01*
X008206Y000862D01*
X007583Y000833D01*
X006960Y000862D01*
X006343Y000948D01*
X005736Y001091D01*
X005145Y001289D01*
X004574Y001541D01*
X004030Y001844D01*
X003515Y002196D01*
X003036Y002595D01*
X002595Y003036D01*
X002196Y003515D01*
X001844Y004030D01*
X001541Y004574D01*
X001289Y005145D01*
X001091Y005736D01*
X000948Y006343D01*
X000862Y006960D01*
X000833Y007583D01*
X000862Y008206D01*
X000948Y008823D01*
X001091Y009430D01*
X001289Y010021D01*
X001541Y010592D01*
X001844Y011136D01*
X002196Y011651D01*
X002595Y012130D01*
X003036Y012571D01*
X003515Y012970D01*
X004030Y013322D01*
X004574Y013625D01*
X005145Y013877D01*
X005736Y014075D01*
X006343Y014218D01*
X006960Y014304D01*
X007583Y014333D01*
X008206Y014304D01*
X008229Y014301D01*
X008110Y014232D01*
X008044Y013985D01*
X007901Y013988D01*
X007900Y013989D01*
X007811Y013989D01*
X007721Y013990D01*
X007720Y013989D01*
X007718Y013989D01*
X007655Y013926D01*
X007590Y013864D01*
X007590Y013861D01*
X007487Y013758D01*
X007403Y013758D01*
X006967Y013322D01*
X006950Y013338D01*
X006935Y013338D01*
X006515Y013758D01*
X006374Y013758D01*
X006179Y013563D01*
X006170Y013573D01*
X005062Y013573D01*
X003703Y012214D01*
X003417Y012500D01*
X003276Y012500D01*
X002954Y012178D01*
X002954Y012097D01*
X002895Y012037D01*
X002895Y012037D01*
X002813Y011956D01*
X002769Y011849D01*
X002769Y011273D01*
X002753Y011267D01*
X002601Y011115D01*
X002519Y010916D01*
X002519Y010702D01*
X002601Y010503D01*
X002753Y010351D01*
X002881Y010298D01*
X002859Y010291D01*
X002786Y010254D01*
X002720Y010206D01*
X002662Y010148D01*
X002614Y010082D01*
X002577Y010009D01*
X002552Y009931D01*
X002540Y009859D01*
X003009Y009859D01*
X003009Y009759D01*
X002540Y009759D01*
X002552Y009687D01*
X002577Y009609D01*
X002614Y009536D01*
X002662Y009470D01*
X002720Y009412D01*
X002786Y009364D01*
X002859Y009327D01*
X002881Y009320D01*
X002753Y009267D01*
X002601Y009115D01*
X002519Y008916D01*
X002519Y008702D01*
X002524Y008689D01*
X002353Y008546D01*
X002315Y008584D01*
X002315Y008694D01*
X002333Y008746D01*
X002315Y008786D01*
X002315Y008830D01*
X002276Y008869D01*
X002228Y008970D01*
X002257Y009040D01*
X002257Y009178D01*
X002204Y009306D01*
X002106Y009404D01*
X001978Y009457D01*
X001840Y009457D01*
X001712Y009404D01*
X001614Y009306D01*
X001561Y009178D01*
X001561Y009107D01*
X001520Y009107D01*
X001392Y009054D01*
X001294Y008956D01*
X001241Y008828D01*
X001241Y008690D01*
X001290Y008571D01*
X001226Y008506D01*
X001226Y007893D01*
X001325Y007793D01*
X001742Y007793D01*
X001809Y007861D01*
X001876Y007793D01*
X002040Y007793D01*
X001873Y007626D01*
X001835Y007534D01*
X001835Y007383D01*
X001809Y007357D01*
X001742Y007425D01*
X001325Y007425D01*
X001226Y007325D01*
X001226Y006712D01*
X001325Y006612D01*
X001329Y006612D01*
X001329Y006164D01*
X001464Y006029D01*
X001581Y005912D01*
X001562Y005904D01*
X001464Y005806D01*
X001411Y005678D01*
X001411Y005540D01*
X001464Y005412D01*
X001562Y005314D01*
X001690Y005261D01*
X001828Y005261D01*
X001831Y005262D01*
X002379Y004714D01*
X002514Y004579D01*
X003214Y004579D01*
X003229Y004564D01*
X003229Y004311D01*
X003227Y004219D01*
X003229Y004217D01*
X003229Y004214D01*
X003295Y004148D01*
X003463Y003973D01*
X003463Y003708D01*
X003598Y003573D01*
X004298Y002873D01*
X005279Y002873D01*
X005235Y002728D02*
X002903Y002728D01*
X003001Y002629D02*
X005235Y002629D01*
X005221Y002531D02*
X003113Y002531D01*
X003231Y002432D02*
X005133Y002432D01*
X005133Y002334D02*
X003350Y002334D01*
X003469Y002235D02*
X005133Y002235D01*
X005133Y002137D02*
X003603Y002137D01*
X003746Y002038D02*
X005133Y002038D01*
X005133Y001940D02*
X003890Y001940D01*
X004035Y001841D02*
X005133Y001841D01*
X005142Y001743D02*
X004212Y001743D01*
X004389Y001644D02*
X008117Y001644D01*
X008036Y001743D02*
X007512Y001743D01*
X007521Y001841D02*
X008036Y001841D01*
X008036Y001940D02*
X007609Y001940D01*
X007949Y002038D02*
X008036Y002038D01*
X008034Y002137D02*
X008036Y002137D01*
X008363Y002293D02*
X008363Y001973D01*
X008363Y002293D02*
X007843Y002813D01*
X007035Y002813D01*
X006859Y002989D01*
X006859Y003309D01*
X006999Y003449D01*
X007549Y003449D01*
X007899Y003799D01*
X007899Y005369D01*
X007709Y005559D01*
X008141Y006077D02*
X008334Y006077D01*
X008358Y006175D02*
X008308Y006175D01*
X008308Y006274D02*
X008358Y006274D01*
X008358Y006372D02*
X008308Y006372D01*
X008308Y006471D02*
X008358Y006471D01*
X008358Y006569D02*
X008694Y006569D01*
X008633Y006608D02*
X008633Y006903D01*
X008623Y006941D01*
X008603Y006975D01*
X008575Y007003D01*
X008541Y007023D01*
X008503Y007033D01*
X008358Y007033D01*
X008358Y006608D01*
X008633Y006608D01*
X008633Y006668D02*
X008694Y006668D01*
X008694Y006708D02*
X008694Y006462D01*
X008704Y006424D01*
X008724Y006390D01*
X008752Y006362D01*
X008786Y006342D01*
X008824Y006332D01*
X009109Y006332D01*
X009109Y006708D01*
X008694Y006708D01*
X008633Y006766D02*
X009109Y006766D01*
X009109Y006808D02*
X009109Y006708D01*
X009209Y006708D01*
X009209Y006808D01*
X009109Y006808D01*
X009109Y007183D01*
X008824Y007183D01*
X008786Y007173D01*
X008752Y007153D01*
X008724Y007126D01*
X008704Y007091D01*
X008694Y007053D01*
X008694Y006808D01*
X009109Y006808D01*
X009109Y006865D02*
X009209Y006865D01*
X009209Y006808D02*
X009209Y007183D01*
X009494Y007183D01*
X009532Y007173D01*
X009566Y007153D01*
X009594Y007126D01*
X009614Y007091D01*
X009624Y007053D01*
X009624Y006808D01*
X009209Y006808D01*
X009209Y006766D02*
X009757Y006766D01*
X009735Y006865D02*
X009624Y006865D01*
X009624Y006963D02*
X009735Y006963D01*
X009774Y007062D02*
X009622Y007062D01*
X009555Y007160D02*
X009813Y007160D01*
X009813Y007259D02*
X006653Y007259D01*
X006653Y007357D02*
X007128Y007357D01*
X007020Y007456D02*
X006653Y007456D01*
X006653Y007554D02*
X006975Y007554D01*
X006961Y007653D02*
X006653Y007653D01*
X006653Y007751D02*
X006970Y007751D01*
X007011Y007850D02*
X006653Y007850D01*
X006653Y007948D02*
X007105Y007948D01*
X007085Y008145D02*
X008122Y008145D01*
X008125Y008143D02*
X008163Y008133D01*
X008308Y008133D01*
X008308Y008558D01*
X008358Y008558D01*
X008358Y008133D01*
X008503Y008133D01*
X008541Y008143D01*
X008575Y008163D01*
X008603Y008191D01*
X008623Y008225D01*
X008633Y008263D01*
X008633Y008558D01*
X008358Y008558D01*
X008358Y008608D01*
X008308Y008608D01*
X008308Y008558D01*
X008033Y008558D01*
X008033Y008263D01*
X008043Y008225D01*
X008063Y008191D01*
X008091Y008163D01*
X008125Y008143D01*
X008038Y008244D02*
X007153Y008244D01*
X007153Y008342D02*
X008033Y008342D01*
X008033Y008441D02*
X007153Y008441D01*
X007153Y008539D02*
X008033Y008539D01*
X008033Y008608D02*
X008308Y008608D01*
X008308Y009033D01*
X008163Y009033D01*
X008125Y009023D01*
X008091Y009003D01*
X008063Y008975D01*
X008043Y008941D01*
X008033Y008903D01*
X008033Y008608D01*
X008033Y008638D02*
X007153Y008638D01*
X007153Y008736D02*
X008033Y008736D01*
X008033Y008835D02*
X007153Y008835D01*
X007153Y008933D02*
X008041Y008933D01*
X008158Y009032D02*
X007616Y009032D01*
X007714Y009130D02*
X008589Y009130D01*
X008589Y009032D02*
X008508Y009032D01*
X008358Y009032D02*
X008308Y009032D01*
X008308Y008933D02*
X008358Y008933D01*
X008358Y008835D02*
X008308Y008835D01*
X008308Y008736D02*
X008358Y008736D01*
X008358Y008638D02*
X008308Y008638D01*
X008308Y008539D02*
X008358Y008539D01*
X008358Y008441D02*
X008308Y008441D01*
X008308Y008342D02*
X008358Y008342D01*
X008358Y008244D02*
X008308Y008244D01*
X008308Y008145D02*
X008358Y008145D01*
X008544Y008145D02*
X008674Y008145D01*
X008711Y008244D02*
X008628Y008244D01*
X008633Y008342D02*
X009752Y008342D01*
X009745Y008244D02*
X009607Y008244D01*
X009640Y008539D02*
X009678Y008539D01*
X009678Y008638D02*
X009640Y008638D01*
X009860Y008441D02*
X008633Y008441D01*
X008633Y008539D02*
X008818Y008539D01*
X008769Y008638D02*
X008633Y008638D01*
X008633Y008736D02*
X008671Y008736D01*
X008809Y008909D02*
X008809Y009709D01*
X009009Y009909D01*
X009209Y009909D01*
X009009Y009909D02*
X008732Y009909D01*
X008265Y010275D01*
X008488Y010498D02*
X008877Y010209D01*
X009419Y010209D01*
X009809Y009809D01*
X009909Y010259D02*
X009759Y010409D01*
X009123Y010409D01*
X008711Y010721D01*
X008923Y010943D02*
X008934Y010943D01*
X008923Y010943D02*
X008613Y011253D01*
X008273Y011253D01*
X006953Y009933D01*
X006953Y009203D01*
X006833Y009083D01*
X006833Y008583D01*
X006683Y008583D01*
X006433Y008333D01*
X006433Y006833D01*
X006683Y006583D01*
X006833Y006583D01*
X007153Y006766D02*
X008033Y006766D01*
X008033Y006865D02*
X007153Y006865D01*
X007143Y006963D02*
X008056Y006963D01*
X008308Y006963D02*
X008358Y006963D01*
X008358Y006865D02*
X008308Y006865D01*
X008308Y006766D02*
X008358Y006766D01*
X008358Y006668D02*
X008308Y006668D01*
X008633Y006865D02*
X008694Y006865D01*
X008694Y006963D02*
X008610Y006963D01*
X008696Y007062D02*
X006653Y007062D01*
X006653Y007160D02*
X008763Y007160D01*
X008667Y007369D02*
X008667Y007369D01*
X009109Y007160D02*
X009209Y007160D01*
X009209Y007062D02*
X009109Y007062D01*
X009109Y006963D02*
X009209Y006963D01*
X009209Y006708D02*
X009624Y006708D01*
X009624Y006462D01*
X009614Y006424D01*
X009594Y006390D01*
X009566Y006362D01*
X009532Y006342D01*
X009494Y006332D01*
X009209Y006332D01*
X009209Y006708D01*
X009209Y006668D02*
X009109Y006668D01*
X009109Y006569D02*
X009209Y006569D01*
X009209Y006471D02*
X009109Y006471D01*
X009109Y006372D02*
X009209Y006372D01*
X009067Y006077D02*
X009796Y006077D01*
X009796Y006175D02*
X008757Y006175D01*
X008633Y006274D02*
X009796Y006274D01*
X009817Y006372D02*
X009576Y006372D01*
X009624Y006471D02*
X012550Y006471D01*
X012545Y006569D02*
X010283Y006569D01*
X010398Y006668D02*
X010788Y006668D01*
X010805Y006651D02*
X010940Y006595D01*
X011086Y006595D01*
X011222Y006651D01*
X011325Y006755D01*
X011363Y006847D01*
X011981Y007464D01*
X012174Y007464D01*
X012274Y007563D01*
X012274Y008334D01*
X012200Y008407D01*
X012199Y008417D01*
X012244Y008462D01*
X012244Y009154D01*
X012144Y009253D01*
X011374Y009253D01*
X011274Y009154D01*
X011274Y008462D01*
X011374Y008362D01*
X011530Y008362D01*
X011540Y008307D01*
X011540Y007956D01*
X010897Y007313D01*
X010805Y007275D01*
X010701Y007172D01*
X010645Y007036D01*
X010645Y006890D01*
X010701Y006755D01*
X010805Y006651D01*
X010696Y006766D02*
X010449Y006766D01*
X010471Y006865D02*
X010655Y006865D01*
X010645Y006963D02*
X010471Y006963D01*
X010432Y007062D02*
X010655Y007062D01*
X010696Y007160D02*
X010393Y007160D01*
X010393Y007259D02*
X010788Y007259D01*
X010940Y007357D02*
X010393Y007357D01*
X010393Y007456D02*
X011039Y007456D01*
X011137Y007554D02*
X010469Y007554D01*
X010478Y007653D02*
X011236Y007653D01*
X011334Y007751D02*
X010478Y007751D01*
X010861Y007850D02*
X011433Y007850D01*
X011531Y007948D02*
X010956Y007948D01*
X010956Y008047D02*
X011540Y008047D01*
X011540Y008145D02*
X010956Y008145D01*
X010956Y008244D02*
X011540Y008244D01*
X011534Y008342D02*
X010956Y008342D01*
X010940Y008441D02*
X011295Y008441D01*
X011274Y008539D02*
X010956Y008539D01*
X010956Y008638D02*
X011274Y008638D01*
X011274Y008736D02*
X010956Y008736D01*
X010956Y008835D02*
X011274Y008835D01*
X011274Y008933D02*
X010903Y008933D01*
X010905Y009032D02*
X011274Y009032D01*
X011274Y009130D02*
X010981Y009130D01*
X010986Y009229D02*
X011349Y009229D01*
X011424Y009485D02*
X011709Y009485D01*
X011709Y009860D01*
X011809Y009860D01*
X011809Y009485D01*
X012094Y009485D01*
X012132Y009495D01*
X012166Y009515D01*
X012194Y009543D01*
X012214Y009577D01*
X012224Y009615D01*
X012224Y009860D01*
X011809Y009860D01*
X011809Y009960D01*
X012224Y009960D01*
X012224Y010206D01*
X012214Y010244D01*
X012194Y010278D01*
X012166Y010306D01*
X012132Y010326D01*
X012094Y010336D01*
X011809Y010336D01*
X011809Y009960D01*
X011709Y009960D01*
X011709Y009860D01*
X011294Y009860D01*
X011294Y009615D01*
X011304Y009577D01*
X011324Y009543D01*
X011352Y009515D01*
X011386Y009495D01*
X011424Y009485D01*
X011342Y009524D02*
X010986Y009524D01*
X010986Y009426D02*
X012462Y009426D01*
X012371Y009327D02*
X010986Y009327D01*
X010956Y009623D02*
X011294Y009623D01*
X011294Y009721D02*
X010946Y009721D01*
X010966Y009820D02*
X011294Y009820D01*
X011294Y009960D02*
X011709Y009960D01*
X011709Y010336D01*
X011424Y010336D01*
X011386Y010326D01*
X011352Y010306D01*
X011324Y010278D01*
X011304Y010244D01*
X011294Y010206D01*
X011294Y009960D01*
X011294Y010017D02*
X010966Y010017D01*
X010966Y010115D02*
X011294Y010115D01*
X011296Y010214D02*
X010927Y010214D01*
X010905Y010312D02*
X011363Y010312D01*
X011459Y010509D02*
X011460Y010509D01*
X011709Y010312D02*
X011809Y010312D01*
X011809Y010214D02*
X011709Y010214D01*
X011709Y010115D02*
X011809Y010115D01*
X011809Y010017D02*
X011709Y010017D01*
X011709Y009918D02*
X010966Y009918D01*
X010945Y010411D02*
X012447Y010411D01*
X012498Y010509D02*
X011970Y010509D01*
X012155Y010312D02*
X012365Y010312D01*
X012324Y010214D02*
X012222Y010214D01*
X012224Y010115D02*
X012294Y010115D01*
X012294Y010017D02*
X012224Y010017D01*
X012298Y009918D02*
X011809Y009918D01*
X011809Y009820D02*
X011709Y009820D01*
X011709Y009721D02*
X011809Y009721D01*
X011809Y009623D02*
X011709Y009623D01*
X011709Y009524D02*
X011809Y009524D01*
X012176Y009524D02*
X012606Y009524D01*
X012482Y009623D02*
X012224Y009623D01*
X012224Y009721D02*
X012383Y009721D01*
X012338Y009820D02*
X012224Y009820D01*
X012169Y009229D02*
X012330Y009229D01*
X012294Y009130D02*
X012244Y009130D01*
X012244Y009032D02*
X012294Y009032D01*
X012294Y008933D02*
X012244Y008933D01*
X012244Y008835D02*
X012332Y008835D01*
X012373Y008736D02*
X012244Y008736D01*
X012244Y008638D02*
X012467Y008638D01*
X012618Y008539D02*
X012244Y008539D01*
X012223Y008441D02*
X012477Y008441D01*
X012378Y008342D02*
X012266Y008342D01*
X012274Y008244D02*
X012336Y008244D01*
X012296Y008145D02*
X012274Y008145D01*
X012274Y008047D02*
X012294Y008047D01*
X012294Y007948D02*
X012274Y007948D01*
X012274Y007850D02*
X012326Y007850D01*
X012367Y007751D02*
X012274Y007751D01*
X012274Y007653D02*
X012452Y007653D01*
X012582Y007554D02*
X012264Y007554D01*
X012393Y007357D02*
X011874Y007357D01*
X011972Y007456D02*
X012492Y007456D01*
X012343Y007259D02*
X011775Y007259D01*
X011677Y007160D02*
X012302Y007160D01*
X012294Y007062D02*
X011578Y007062D01*
X011480Y006963D02*
X012294Y006963D01*
X012320Y006865D02*
X011381Y006865D01*
X011330Y006766D02*
X012361Y006766D01*
X012437Y006668D02*
X011238Y006668D01*
X011059Y006445D02*
X011059Y005125D01*
X012222Y005125D01*
X012222Y006315D01*
X012212Y006353D01*
X012192Y006387D01*
X012164Y006415D01*
X012130Y006435D01*
X012092Y006445D01*
X011059Y006445D01*
X011059Y006372D02*
X010959Y006372D01*
X010959Y006274D02*
X011059Y006274D01*
X011059Y006175D02*
X010959Y006175D01*
X010959Y006077D02*
X011059Y006077D01*
X011059Y005978D02*
X010959Y005978D01*
X010959Y005880D02*
X011059Y005880D01*
X011059Y005781D02*
X010959Y005781D01*
X010959Y005683D02*
X011059Y005683D01*
X011059Y005584D02*
X010959Y005584D01*
X010959Y005486D02*
X011059Y005486D01*
X011059Y005387D02*
X010959Y005387D01*
X010959Y005289D02*
X011059Y005289D01*
X011059Y005190D02*
X010959Y005190D01*
X010959Y005092D02*
X009541Y005092D01*
X009541Y005190D02*
X009796Y005190D01*
X009796Y005289D02*
X009541Y005289D01*
X009541Y005387D02*
X009796Y005387D01*
X009796Y005486D02*
X009541Y005486D01*
X009472Y005584D02*
X009796Y005584D01*
X009796Y005683D02*
X009439Y005683D01*
X009362Y005781D02*
X009796Y005781D01*
X009796Y005880D02*
X009264Y005880D01*
X009165Y005978D02*
X009796Y005978D01*
X009923Y006569D02*
X009624Y006569D01*
X009624Y006668D02*
X009808Y006668D01*
X009813Y007357D02*
X007490Y007357D01*
X005083Y014583D02*
X004745Y014453D01*
X004415Y014307D01*
X004091Y014145D01*
X003776Y013967D01*
X003470Y013774D01*
X003174Y013567D01*
X002888Y013345D01*
X002613Y013110D01*
X002350Y012862D01*
X002099Y012601D01*
X001862Y012328D01*
X001638Y012044D01*
X001428Y011750D01*
X001232Y011445D01*
X001052Y011132D01*
X000887Y010810D01*
X000738Y010480D01*
X000605Y010144D01*
X000489Y009801D01*
X000389Y009453D01*
X000307Y009101D01*
X000241Y008745D01*
X000194Y008387D01*
X000163Y008026D01*
X000150Y007665D01*
X000155Y007303D01*
X000178Y006942D01*
X000218Y006583D01*
X000275Y006225D01*
X000350Y005871D01*
X000442Y005522D01*
X000550Y005177D01*
X000676Y004837D01*
X000817Y004504D01*
X000975Y004179D01*
X001149Y003862D01*
X001337Y003553D01*
X001541Y003254D01*
X001759Y002965D01*
X001990Y002687D01*
X002235Y002421D01*
X002493Y002167D01*
X002762Y001925D01*
X003043Y001698D01*
X003335Y001484D01*
X003636Y001284D01*
X003948Y001100D01*
X004267Y000930D01*
X004595Y000777D01*
X004930Y000640D01*
X005271Y000519D01*
X005617Y000415D01*
X005968Y000328D01*
X006323Y000258D01*
X006681Y000205D01*
X007041Y000170D01*
X007402Y000152D01*
X007764Y000152D01*
X008125Y000170D01*
X008485Y000205D01*
X008843Y000258D01*
X009198Y000328D01*
X009549Y000415D01*
X009895Y000519D01*
X010236Y000640D01*
X010571Y000777D01*
X010899Y000930D01*
X011218Y001100D01*
X011530Y001284D01*
X011831Y001484D01*
X012123Y001698D01*
X012404Y001925D01*
X012673Y002167D01*
X012931Y002421D01*
X013176Y002687D01*
X013407Y002965D01*
X013625Y003254D01*
X013829Y003553D01*
X014017Y003862D01*
X014191Y004179D01*
X014349Y004504D01*
X014490Y004837D01*
X014616Y005177D01*
X014724Y005522D01*
X014816Y005871D01*
X014891Y006225D01*
X014948Y006583D01*
X014988Y006942D01*
X015011Y007303D01*
X015016Y007665D01*
X015003Y008026D01*
X014972Y008387D01*
X014925Y008745D01*
X014859Y009101D01*
X014777Y009453D01*
X014677Y009801D01*
X014561Y010144D01*
X014428Y010480D01*
X014279Y010810D01*
X014114Y011132D01*
X013934Y011445D01*
X013738Y011750D01*
X013528Y012044D01*
X013304Y012328D01*
X013067Y012601D01*
X012816Y012862D01*
X012553Y013110D01*
X012278Y013345D01*
X011992Y013567D01*
X011696Y013774D01*
X011390Y013967D01*
X011075Y014145D01*
X010751Y014307D01*
X010421Y014453D01*
X010083Y014583D01*
X010083Y015583D01*
X009491Y014055D02*
X009156Y014055D01*
X009140Y014055D02*
X009056Y014055D01*
X009098Y014154D02*
X008658Y014154D01*
X008580Y014252D02*
X008421Y014252D01*
X008145Y014252D02*
X006586Y014252D01*
X006068Y014154D02*
X008089Y014154D01*
X008063Y014055D02*
X005675Y014055D01*
X005381Y013957D02*
X007685Y013957D01*
X007587Y013858D02*
X005101Y013858D01*
X004878Y013760D02*
X007489Y013760D01*
X007306Y013661D02*
X006612Y013661D01*
X006710Y013563D02*
X007208Y013563D01*
X007109Y013464D02*
X006809Y013464D01*
X006907Y013366D02*
X007011Y013366D01*
X006859Y013118D02*
X006543Y013334D01*
X006321Y013111D02*
X006079Y013353D01*
X005153Y013353D01*
X003681Y011881D01*
X003681Y011244D01*
X003920Y010992D02*
X003920Y010730D01*
X003863Y010673D01*
X003819Y010567D01*
X003819Y009879D01*
X003532Y009592D01*
X003541Y009609D01*
X003566Y009687D01*
X003578Y009759D01*
X003109Y009759D01*
X003109Y009859D01*
X003578Y009859D01*
X003566Y009931D01*
X003541Y010009D01*
X003504Y010082D01*
X003456Y010148D01*
X003398Y010206D01*
X003332Y010254D01*
X003259Y010291D01*
X003237Y010298D01*
X003365Y010351D01*
X003517Y010503D01*
X003599Y010702D01*
X003599Y010863D01*
X003624Y010838D01*
X003765Y010838D01*
X003920Y010992D01*
X003920Y010903D02*
X003831Y010903D01*
X003920Y010805D02*
X003599Y010805D01*
X003599Y010706D02*
X003896Y010706D01*
X003836Y010608D02*
X003560Y010608D01*
X003519Y010509D02*
X003819Y010509D01*
X003819Y010411D02*
X003424Y010411D01*
X003270Y010312D02*
X003819Y010312D01*
X003819Y010214D02*
X003387Y010214D01*
X003479Y010115D02*
X003819Y010115D01*
X003819Y010017D02*
X003537Y010017D01*
X003568Y009918D02*
X003819Y009918D01*
X003759Y009820D02*
X003109Y009820D01*
X003009Y009820D02*
X001221Y009820D01*
X001254Y009918D02*
X002550Y009918D01*
X002581Y010017D02*
X001287Y010017D01*
X001330Y010115D02*
X002639Y010115D01*
X002731Y010214D02*
X001374Y010214D01*
X001417Y010312D02*
X002848Y010312D01*
X002694Y010411D02*
X001461Y010411D01*
X001504Y010509D02*
X002599Y010509D01*
X002558Y010608D02*
X001549Y010608D01*
X001604Y010706D02*
X002519Y010706D01*
X002519Y010805D02*
X001659Y010805D01*
X001714Y010903D02*
X002519Y010903D01*
X002554Y011002D02*
X001769Y011002D01*
X001824Y011100D02*
X002595Y011100D01*
X002685Y011199D02*
X001887Y011199D01*
X001954Y011297D02*
X002769Y011297D01*
X002769Y011396D02*
X002022Y011396D01*
X002089Y011494D02*
X002769Y011494D01*
X002769Y011593D02*
X002157Y011593D01*
X002230Y011691D02*
X002769Y011691D01*
X002769Y011790D02*
X002312Y011790D01*
X002393Y011888D02*
X002785Y011888D01*
X002844Y011987D02*
X002475Y011987D01*
X002557Y012085D02*
X002942Y012085D01*
X002960Y012184D02*
X002648Y012184D01*
X002746Y012282D02*
X003059Y012282D01*
X003157Y012381D02*
X002845Y012381D01*
X002943Y012479D02*
X003256Y012479D01*
X003438Y012479D02*
X003968Y012479D01*
X003869Y012381D02*
X003537Y012381D01*
X003635Y012282D02*
X003771Y012282D01*
X004066Y012578D02*
X003043Y012578D01*
X003162Y012676D02*
X004165Y012676D01*
X004263Y012775D02*
X003280Y012775D01*
X003399Y012873D02*
X004362Y012873D01*
X004460Y012972D02*
X003518Y012972D01*
X003662Y013070D02*
X004559Y013070D01*
X004657Y013169D02*
X003806Y013169D01*
X003949Y013267D02*
X004756Y013267D01*
X004854Y013366D02*
X004108Y013366D01*
X004285Y013464D02*
X004953Y013464D01*
X005051Y013563D02*
X004462Y013563D01*
X004655Y013661D02*
X006277Y013661D01*
X006859Y013118D02*
X006859Y012459D01*
X007195Y012361D02*
X007278Y012361D01*
X007382Y012404D01*
X007397Y012367D01*
X007647Y012117D01*
X007717Y012047D01*
X007809Y012009D01*
X008109Y012009D01*
X008126Y012016D01*
X008202Y011941D01*
X008481Y012220D01*
X008488Y012213D01*
X008209Y011934D01*
X008272Y011870D01*
X007170Y010768D01*
X007130Y010731D01*
X007106Y010754D01*
X006978Y010807D01*
X006840Y010807D01*
X006712Y010754D01*
X006614Y010656D01*
X006561Y010528D01*
X006561Y010390D01*
X006614Y010262D01*
X006712Y010164D01*
X006825Y010117D01*
X006733Y010024D01*
X006733Y009789D01*
X006713Y009809D01*
X006490Y010032D01*
X006267Y010254D01*
X006239Y010254D01*
X006162Y010332D01*
X005882Y010053D01*
X005875Y010060D01*
X006155Y010339D01*
X006077Y010416D01*
X006077Y010445D01*
X005822Y010700D01*
X005599Y010923D01*
X005377Y011145D01*
X005163Y011359D01*
X005409Y011605D01*
X005632Y011828D01*
X005681Y011877D01*
X005661Y011828D01*
X005661Y011690D01*
X005714Y011562D01*
X005812Y011464D01*
X005841Y011452D01*
X005811Y011378D01*
X005811Y011240D01*
X005864Y011112D01*
X005962Y011014D01*
X006090Y010961D01*
X006228Y010961D01*
X006356Y011014D01*
X006454Y011112D01*
X006507Y011240D01*
X006507Y011346D01*
X006579Y011418D01*
X006579Y012246D01*
X006662Y012164D01*
X006790Y012111D01*
X006928Y012111D01*
X007056Y012164D01*
X007154Y012262D01*
X007195Y012361D01*
X007163Y012282D02*
X007482Y012282D01*
X007392Y012381D02*
X007327Y012381D01*
X007076Y012184D02*
X007581Y012184D01*
X007679Y012085D02*
X006579Y012085D01*
X006579Y011987D02*
X008156Y011987D01*
X008248Y011987D02*
X008262Y011987D01*
X008254Y011888D02*
X006579Y011888D01*
X006579Y011790D02*
X008192Y011790D01*
X008093Y011691D02*
X006579Y011691D01*
X006579Y011593D02*
X007995Y011593D01*
X007896Y011494D02*
X006579Y011494D01*
X006557Y011396D02*
X007798Y011396D01*
X007699Y011297D02*
X006507Y011297D01*
X006490Y011199D02*
X007601Y011199D01*
X007502Y011100D02*
X006443Y011100D01*
X006327Y011002D02*
X007404Y011002D01*
X007305Y010903D02*
X005619Y010903D01*
X005717Y010805D02*
X006833Y010805D01*
X006985Y010805D02*
X007207Y010805D01*
X007323Y010609D02*
X008711Y011997D01*
X008459Y012184D02*
X008445Y012184D01*
X008360Y012085D02*
X008346Y012085D01*
X008050Y012665D02*
X008043Y012672D01*
X008322Y012952D01*
X008245Y013029D01*
X008245Y013058D01*
X008022Y013280D01*
X008022Y013280D01*
X007976Y013327D01*
X008373Y013220D01*
X008427Y013251D01*
X008447Y013231D01*
X008481Y013212D01*
X008615Y013176D01*
X008736Y013626D01*
X008772Y013616D01*
X008652Y013166D01*
X008786Y013130D01*
X008825Y013130D01*
X008852Y013137D01*
X008884Y013083D01*
X008973Y013059D01*
X008962Y013054D01*
X008864Y012956D01*
X008823Y012859D01*
X008793Y012871D01*
X008749Y012889D01*
X008747Y012889D01*
X008745Y012890D01*
X008697Y012889D01*
X008475Y012889D01*
X008428Y012890D01*
X008425Y012889D01*
X008422Y012889D01*
X008396Y012878D01*
X008329Y012945D01*
X008050Y012665D01*
X008043Y012665D02*
X008159Y012732D01*
X008449Y013049D01*
X008609Y012909D01*
X008809Y013109D01*
X008933Y013070D02*
X008232Y013070D01*
X008302Y012972D02*
X008879Y012972D01*
X008829Y012873D02*
X008787Y012873D01*
X008653Y013169D02*
X008133Y013169D01*
X008197Y013267D02*
X008035Y013267D01*
X007597Y013111D02*
X007245Y012759D01*
X007209Y012709D01*
X007375Y013334D02*
X007809Y013769D01*
X008303Y013761D01*
X008750Y013661D02*
X008784Y013661D01*
X008772Y013760D02*
X008811Y013760D01*
X008798Y013858D02*
X008837Y013858D01*
X008825Y013957D02*
X008864Y013957D01*
X008851Y014055D02*
X008890Y014055D01*
X008758Y013563D02*
X008719Y013563D01*
X008732Y013464D02*
X008693Y013464D01*
X008705Y013366D02*
X008666Y013366D01*
X008679Y013267D02*
X008640Y013267D01*
X008257Y012873D02*
X008243Y012873D01*
X008159Y012775D02*
X008145Y012775D01*
X008060Y012676D02*
X008046Y012676D01*
X009159Y012759D02*
X009365Y013015D01*
X009215Y013517D01*
X009520Y013464D02*
X009752Y013464D01*
X009695Y013366D02*
X009494Y013366D01*
X009520Y013267D02*
X009638Y013267D01*
X009581Y013169D02*
X009549Y013169D01*
X009581Y013070D02*
X009591Y013070D01*
X009546Y013563D02*
X009923Y013563D01*
X009924Y013563D02*
X010705Y013563D01*
X010881Y013464D02*
X010095Y013464D01*
X010265Y013366D02*
X011058Y013366D01*
X011217Y013267D02*
X010436Y013267D01*
X010478Y013169D02*
X011360Y013169D01*
X011504Y013070D02*
X010471Y013070D01*
X010585Y012972D02*
X010944Y012972D01*
X010948Y012972D02*
X011648Y012972D01*
X011767Y012873D02*
X011118Y012873D01*
X011289Y012775D02*
X011886Y012775D01*
X012004Y012676D02*
X011460Y012676D01*
X011501Y012578D02*
X012123Y012578D01*
X012223Y012479D02*
X011485Y012479D01*
X011539Y012381D02*
X012321Y012381D01*
X012420Y012282D02*
X011539Y012282D01*
X011539Y012184D02*
X012518Y012184D01*
X012609Y012085D02*
X011539Y012085D01*
X011539Y011987D02*
X012691Y011987D01*
X012773Y011888D02*
X011539Y011888D01*
X011611Y011790D02*
X012854Y011790D01*
X012936Y011691D02*
X011652Y011691D01*
X011657Y011593D02*
X013010Y011593D01*
X013077Y011494D02*
X011639Y011494D01*
X011588Y011396D02*
X013145Y011396D01*
X013212Y011297D02*
X011466Y011297D01*
X011152Y011297D02*
X010857Y011297D01*
X010871Y011396D02*
X011030Y011396D01*
X010980Y011494D02*
X010969Y011494D01*
X010820Y011199D02*
X013279Y011199D01*
X013342Y011100D02*
X011979Y011100D01*
X011715Y010809D02*
X012509Y010809D01*
X012834Y010484D01*
X012834Y010034D01*
X013330Y009820D02*
X013945Y009820D01*
X013912Y009918D02*
X013370Y009918D01*
X013374Y010017D02*
X013879Y010017D01*
X013836Y010115D02*
X013374Y010115D01*
X013344Y010214D02*
X013792Y010214D01*
X013749Y010312D02*
X013303Y010312D01*
X013221Y010411D02*
X013705Y010411D01*
X013662Y010509D02*
X013098Y010509D01*
X013022Y010608D02*
X013617Y010608D01*
X013562Y010706D02*
X012923Y010706D01*
X012825Y010805D02*
X013507Y010805D01*
X013452Y010903D02*
X012726Y010903D01*
X012628Y011002D02*
X013397Y011002D01*
X013285Y009721D02*
X013978Y009721D01*
X014011Y009623D02*
X013186Y009623D01*
X013062Y009524D02*
X014044Y009524D01*
X014076Y009426D02*
X013206Y009426D01*
X013297Y009327D02*
X014100Y009327D01*
X014123Y009229D02*
X013338Y009229D01*
X013374Y009130D02*
X014146Y009130D01*
X014169Y009032D02*
X013374Y009032D01*
X013374Y008933D02*
X014192Y008933D01*
X014215Y008835D02*
X013336Y008835D01*
X013295Y008736D02*
X014230Y008736D01*
X014244Y008638D02*
X013201Y008638D01*
X013050Y008539D02*
X014258Y008539D01*
X014271Y008441D02*
X013191Y008441D01*
X013290Y008342D02*
X014285Y008342D01*
X014299Y008244D02*
X013332Y008244D01*
X013373Y008145D02*
X014307Y008145D01*
X014312Y008047D02*
X013374Y008047D01*
X013374Y007948D02*
X014316Y007948D01*
X014321Y007850D02*
X013342Y007850D01*
X013301Y007751D02*
X014325Y007751D01*
X014330Y007653D02*
X013216Y007653D01*
X013086Y007554D02*
X014332Y007554D01*
X014327Y007456D02*
X013176Y007456D01*
X013275Y007357D02*
X014323Y007357D01*
X014318Y007259D02*
X013326Y007259D01*
X013366Y007160D02*
X014313Y007160D01*
X014309Y007062D02*
X013374Y007062D01*
X013374Y006963D02*
X014304Y006963D01*
X014291Y006865D02*
X013348Y006865D01*
X013308Y006766D02*
X014277Y006766D01*
X014263Y006668D02*
X013231Y006668D01*
X013123Y006569D02*
X014250Y006569D01*
X014236Y006471D02*
X013118Y006471D01*
X013231Y006372D02*
X014222Y006372D01*
X014202Y006274D02*
X013296Y006274D01*
X013335Y006175D02*
X014179Y006175D01*
X014156Y006077D02*
X012884Y006077D01*
X012884Y005978D02*
X012784Y005978D01*
X012784Y005880D02*
X012884Y005880D01*
X012884Y005781D02*
X012784Y005781D01*
X012784Y005683D02*
X012884Y005683D01*
X012884Y005584D02*
X012784Y005584D01*
X012784Y005486D02*
X012884Y005486D01*
X012884Y005387D02*
X012784Y005387D01*
X012784Y005289D02*
X012884Y005289D01*
X012884Y005190D02*
X012784Y005190D01*
X012784Y005092D02*
X012884Y005092D01*
X012884Y004993D02*
X013810Y004993D01*
X013767Y004895D02*
X013335Y004895D01*
X013296Y004796D02*
X013723Y004796D01*
X013680Y004698D02*
X013232Y004698D01*
X013120Y004599D02*
X013636Y004599D01*
X013584Y004501D02*
X012222Y004501D01*
X012222Y004599D02*
X012548Y004599D01*
X012561Y004589D02*
X012634Y004552D01*
X012712Y004527D01*
X012784Y004515D01*
X012784Y004984D01*
X012315Y004984D01*
X012327Y004912D01*
X012352Y004834D01*
X012389Y004761D01*
X012437Y004695D01*
X012495Y004637D01*
X012561Y004589D01*
X012436Y004698D02*
X012222Y004698D01*
X012222Y004796D02*
X012372Y004796D01*
X012333Y004895D02*
X012222Y004895D01*
X012222Y004993D02*
X012784Y004993D01*
X012784Y004895D02*
X012884Y004895D01*
X012884Y004796D02*
X012784Y004796D01*
X012784Y004698D02*
X012884Y004698D01*
X012884Y004599D02*
X012784Y004599D01*
X012317Y005092D02*
X011059Y005092D01*
X012222Y005190D02*
X012338Y005190D01*
X012380Y005289D02*
X012222Y005289D01*
X012222Y005387D02*
X012452Y005387D01*
X012575Y005486D02*
X012222Y005486D01*
X012222Y005584D02*
X012572Y005584D01*
X012450Y005683D02*
X012222Y005683D01*
X012222Y005781D02*
X012379Y005781D01*
X012337Y005880D02*
X012222Y005880D01*
X012222Y005978D02*
X012316Y005978D01*
X012222Y006077D02*
X012784Y006077D01*
X012437Y006372D02*
X012201Y006372D01*
X012222Y006274D02*
X012372Y006274D01*
X012333Y006175D02*
X012222Y006175D01*
X013096Y005584D02*
X014024Y005584D01*
X013991Y005486D02*
X013093Y005486D01*
X013216Y005387D02*
X013958Y005387D01*
X013925Y005289D02*
X013288Y005289D01*
X013330Y005190D02*
X013892Y005190D01*
X013854Y005092D02*
X013351Y005092D01*
X013218Y005683D02*
X014058Y005683D01*
X014086Y005781D02*
X013289Y005781D01*
X013331Y005880D02*
X014109Y005880D01*
X014132Y005978D02*
X013352Y005978D01*
X013529Y004402D02*
X012222Y004402D01*
X012222Y004304D02*
X013475Y004304D01*
X013420Y004205D02*
X012222Y004205D01*
X012222Y004107D02*
X013365Y004107D01*
X013307Y004008D02*
X012222Y004008D01*
X012222Y003910D02*
X013240Y003910D01*
X013172Y003811D02*
X012216Y003811D01*
X012123Y003713D02*
X013105Y003713D01*
X013037Y003614D02*
X011342Y003614D01*
X011399Y003516D02*
X012970Y003516D01*
X012888Y003417D02*
X011455Y003417D01*
X011525Y003319D02*
X012806Y003319D01*
X012725Y003220D02*
X011550Y003220D01*
X011539Y003122D02*
X012643Y003122D01*
X012559Y003023D02*
X011539Y003023D01*
X011539Y002925D02*
X012460Y002925D01*
X012362Y002826D02*
X011547Y002826D01*
X011592Y002728D02*
X012263Y002728D01*
X012165Y002629D02*
X011598Y002629D01*
X011540Y002531D02*
X012053Y002531D01*
X011935Y002432D02*
X011369Y002432D01*
X011199Y002334D02*
X011816Y002334D01*
X011697Y002235D02*
X010874Y002235D01*
X010789Y002137D02*
X011563Y002137D01*
X011420Y002038D02*
X010661Y002038D01*
X010559Y001940D02*
X011276Y001940D01*
X011131Y001841D02*
X010458Y001841D01*
X010175Y001743D02*
X010954Y001743D01*
X010777Y001644D02*
X008609Y001644D01*
X008691Y001743D02*
X008813Y001743D01*
X008814Y001738D02*
X008834Y001704D01*
X008861Y001676D01*
X008896Y001656D01*
X008934Y001646D01*
X009082Y001646D01*
X009082Y001945D01*
X008804Y001945D01*
X008804Y001776D01*
X008814Y001738D01*
X008804Y001841D02*
X008691Y001841D01*
X008691Y001940D02*
X008804Y001940D01*
X008804Y002002D02*
X009082Y002002D01*
X009082Y001945D01*
X009140Y001945D01*
X009140Y002002D01*
X009419Y002002D01*
X009419Y002170D01*
X009408Y002208D01*
X009389Y002243D01*
X009361Y002271D01*
X009326Y002290D01*
X009288Y002301D01*
X009140Y002301D01*
X009140Y002002D01*
X009082Y002002D01*
X009082Y002301D01*
X008934Y002301D01*
X008896Y002290D01*
X008861Y002271D01*
X008834Y002243D01*
X008814Y002208D01*
X008804Y002170D01*
X008804Y002002D01*
X008804Y002038D02*
X008691Y002038D01*
X008691Y002137D02*
X008804Y002137D01*
X008829Y002235D02*
X008676Y002235D01*
X008583Y002334D02*
X009517Y002334D01*
X009460Y002432D02*
X008535Y002432D01*
X009043Y002531D02*
X009404Y002531D01*
X009431Y002629D02*
X009065Y002629D01*
X009131Y002728D02*
X009548Y002728D01*
X009718Y002826D02*
X009230Y002826D01*
X009792Y002925D02*
X009889Y002925D01*
X009914Y003023D02*
X009990Y003023D01*
X009967Y003122D02*
X010099Y003122D01*
X010001Y003220D02*
X009991Y003220D01*
X009574Y002235D02*
X009393Y002235D01*
X009419Y002137D02*
X009702Y002137D01*
X009688Y002038D02*
X009419Y002038D01*
X009419Y001945D02*
X009140Y001945D01*
X009140Y001646D01*
X009288Y001646D01*
X009326Y001656D01*
X009361Y001676D01*
X009389Y001704D01*
X009408Y001738D01*
X009419Y001776D01*
X009419Y001945D01*
X009419Y001940D02*
X009745Y001940D01*
X009801Y001841D02*
X009419Y001841D01*
X009409Y001743D02*
X009858Y001743D01*
X010157Y001349D02*
X005009Y001349D01*
X005260Y001250D02*
X009906Y001250D01*
X009612Y001152D02*
X005554Y001152D01*
X005896Y001053D02*
X009270Y001053D01*
X008851Y000955D02*
X006315Y000955D01*
X007085Y000856D02*
X008081Y000856D01*
X009082Y001743D02*
X009140Y001743D01*
X009140Y001841D02*
X009082Y001841D01*
X009082Y001940D02*
X009140Y001940D01*
X009140Y002038D02*
X009082Y002038D01*
X009082Y002137D02*
X009140Y002137D01*
X009140Y002235D02*
X009082Y002235D01*
X010380Y001447D02*
X004786Y001447D01*
X004566Y001546D02*
X010600Y001546D01*
X009796Y004304D02*
X009744Y004304D01*
X009796Y004402D02*
X009646Y004402D01*
X009547Y004501D02*
X009796Y004501D01*
X009796Y004599D02*
X009541Y004599D01*
X009541Y004698D02*
X009796Y004698D01*
X009796Y004796D02*
X009541Y004796D01*
X009533Y004895D02*
X009796Y004895D01*
X009796Y004993D02*
X009541Y004993D01*
X008281Y005978D02*
X008239Y005978D01*
X008633Y006372D02*
X008742Y006372D01*
X008694Y006471D02*
X008633Y006471D01*
X007685Y006668D02*
X007493Y006668D01*
X005083Y015583D02*
X005458Y015691D01*
X005838Y015781D01*
X006222Y015854D01*
X006609Y015908D01*
X006998Y015945D01*
X007388Y015963D01*
X007778Y015963D01*
X008168Y015945D01*
X008557Y015908D01*
X008944Y015854D01*
X009328Y015781D01*
X009708Y015691D01*
X010083Y015583D01*
X009785Y013957D02*
X009524Y013957D01*
X009600Y013858D02*
X010065Y013858D01*
X010288Y013760D02*
X009599Y013760D01*
X009573Y013661D02*
X010511Y013661D01*
X010639Y012873D02*
X010774Y012873D01*
X010717Y012775D02*
X010686Y012775D01*
X009740Y012175D02*
X009740Y011831D01*
X009597Y011688D01*
X009597Y011601D01*
X009580Y011601D01*
X009542Y011591D01*
X009508Y011571D01*
X009410Y011473D01*
X009628Y011255D01*
X009601Y011228D01*
X009628Y011201D01*
X009438Y011011D01*
X009564Y010885D01*
X009598Y010866D01*
X009636Y010855D01*
X009676Y010855D01*
X009714Y010866D01*
X009748Y010885D01*
X009846Y010983D01*
X009628Y011201D01*
X009655Y011228D01*
X009859Y011024D01*
X009859Y010620D01*
X009850Y010629D01*
X009213Y010629D01*
X009358Y010774D01*
X009358Y010915D01*
X008914Y011359D01*
X009358Y011803D01*
X009358Y011944D01*
X009253Y012049D01*
X009443Y012049D01*
X009535Y012087D01*
X009681Y012233D01*
X009707Y012204D01*
X009713Y012202D01*
X009740Y012175D01*
X009731Y012184D02*
X009631Y012184D01*
X009530Y012085D02*
X009740Y012085D01*
X009740Y011987D02*
X009315Y011987D01*
X009358Y011888D02*
X009740Y011888D01*
X009699Y011790D02*
X009345Y011790D01*
X009246Y011691D02*
X009600Y011691D01*
X009550Y011593D02*
X009148Y011593D01*
X009049Y011494D02*
X009431Y011494D01*
X009383Y011446D02*
X009285Y011348D01*
X009266Y011314D01*
X009255Y011276D01*
X009255Y011236D01*
X009266Y011198D01*
X009285Y011164D01*
X009411Y011038D01*
X009601Y011228D01*
X009383Y011446D01*
X009333Y011396D02*
X008951Y011396D01*
X008976Y011297D02*
X009261Y011297D01*
X009265Y011199D02*
X009074Y011199D01*
X009173Y011100D02*
X009349Y011100D01*
X009473Y011100D02*
X009527Y011100D01*
X009572Y011199D02*
X009625Y011199D01*
X009631Y011199D02*
X009684Y011199D01*
X009729Y011100D02*
X009783Y011100D01*
X009828Y011002D02*
X009859Y011002D01*
X009859Y010903D02*
X009766Y010903D01*
X009859Y010805D02*
X009358Y010805D01*
X009358Y010903D02*
X009546Y010903D01*
X009448Y011002D02*
X009271Y011002D01*
X009290Y010706D02*
X009859Y010706D01*
X010359Y010805D02*
X010412Y010805D01*
X010359Y010903D02*
X010642Y010903D01*
X010733Y011002D02*
X010359Y011002D01*
X010743Y011100D02*
X010939Y011100D01*
X010859Y010809D02*
X011203Y010809D01*
X010859Y010809D02*
X010609Y010509D01*
X009586Y011297D02*
X009532Y011297D01*
X009487Y011396D02*
X009434Y011396D01*
X008489Y009820D02*
X008404Y009820D01*
X008305Y009721D02*
X008589Y009721D01*
X008589Y009623D02*
X008207Y009623D01*
X008108Y009524D02*
X008589Y009524D01*
X008589Y009426D02*
X008010Y009426D01*
X007911Y009327D02*
X008589Y009327D01*
X008589Y009229D02*
X007813Y009229D01*
X007332Y009032D02*
X007093Y009032D01*
X007173Y009130D02*
X007233Y009130D01*
X006863Y008583D02*
X006833Y008583D01*
X006513Y008724D02*
X006342Y008553D01*
X006213Y008424D01*
X006213Y006742D01*
X006463Y006492D01*
X006513Y006442D01*
X006513Y006409D01*
X006209Y006713D01*
X006209Y007609D01*
X006171Y007701D01*
X006001Y007871D01*
X005909Y007909D01*
X005859Y007909D01*
X005859Y008251D01*
X005889Y008281D01*
X005889Y008566D01*
X005970Y008485D01*
X006004Y008466D01*
X006042Y008455D01*
X006082Y008455D01*
X006120Y008466D01*
X006154Y008485D01*
X006280Y008611D01*
X006090Y008801D01*
X006117Y008828D01*
X006307Y008638D01*
X006433Y008764D01*
X006452Y008798D01*
X006463Y008836D01*
X006463Y008876D01*
X006452Y008914D01*
X006433Y008948D01*
X006421Y008960D01*
X006515Y008960D01*
X006613Y009058D01*
X006613Y009053D01*
X006613Y009053D01*
X006513Y008953D01*
X006513Y008724D01*
X006513Y008736D02*
X006405Y008736D01*
X006426Y008638D02*
X006254Y008638D01*
X006209Y008736D02*
X006155Y008736D01*
X006090Y008828D02*
X006090Y009278D01*
X005709Y009659D01*
X005709Y009886D01*
X005875Y010053D01*
X005868Y010053D02*
X005679Y009863D01*
X005679Y009849D01*
X005875Y010046D01*
X005868Y010053D01*
X005846Y010017D02*
X005832Y010017D01*
X005748Y009918D02*
X005734Y009918D01*
X005931Y010115D02*
X005945Y010115D01*
X006029Y010214D02*
X006043Y010214D01*
X006128Y010312D02*
X006142Y010312D01*
X006182Y010312D02*
X006593Y010312D01*
X006561Y010411D02*
X006083Y010411D01*
X006013Y010509D02*
X006561Y010509D01*
X006593Y010608D02*
X005914Y010608D01*
X005816Y010706D02*
X006663Y010706D01*
X006909Y010459D02*
X007159Y010459D01*
X007323Y010609D01*
X006824Y010115D02*
X006407Y010115D01*
X006505Y010017D02*
X006733Y010017D01*
X006733Y009918D02*
X006604Y009918D01*
X006702Y009820D02*
X006733Y009820D01*
X006662Y010214D02*
X006308Y010214D01*
X005653Y010275D02*
X005459Y010082D01*
X005459Y009459D01*
X005728Y009190D01*
X005109Y009684D02*
X005109Y006459D01*
X004933Y006283D01*
X004715Y006283D01*
X004985Y005978D02*
X005195Y005978D01*
X005195Y005880D02*
X003599Y005880D01*
X003599Y005916D02*
X003517Y006115D01*
X003365Y006267D01*
X003263Y006309D01*
X003365Y006351D01*
X003517Y006503D01*
X003599Y006702D01*
X003599Y006916D01*
X003517Y007115D01*
X003365Y007267D01*
X003263Y007309D01*
X003365Y007351D01*
X003434Y007421D01*
X003442Y007408D01*
X003470Y007388D01*
X003495Y007363D01*
X003516Y007354D01*
X003821Y007132D01*
X003639Y006950D01*
X003639Y006768D01*
X003768Y006639D01*
X003950Y006639D01*
X004172Y006861D01*
X004278Y006861D01*
X004388Y006906D01*
X004388Y006864D01*
X004687Y006864D01*
X004687Y007142D01*
X004557Y007142D01*
X004557Y007256D01*
X004889Y007256D01*
X004889Y007142D01*
X004744Y007142D01*
X004744Y006864D01*
X004687Y006864D01*
X004687Y006806D01*
X004388Y006806D01*
X004388Y006658D01*
X004398Y006620D01*
X004418Y006585D01*
X004430Y006573D01*
X004368Y006511D01*
X004368Y006055D01*
X004468Y005956D01*
X004963Y005956D01*
X005062Y006055D01*
X005062Y006101D01*
X005200Y006239D01*
X005292Y006331D01*
X005292Y006326D01*
X005329Y006236D01*
X005295Y006236D01*
X005195Y006137D01*
X005195Y005681D01*
X005295Y005582D01*
X005509Y005582D01*
X005509Y005315D01*
X005235Y005315D01*
X005136Y005216D01*
X005136Y004602D01*
X005179Y004559D01*
X005136Y004516D01*
X005136Y003902D01*
X005179Y003859D01*
X005136Y003816D01*
X005136Y003333D01*
X005082Y003333D01*
X005082Y003816D01*
X005039Y003859D01*
X005082Y003902D01*
X005082Y004516D01*
X005039Y004559D01*
X005082Y004602D01*
X005082Y005216D01*
X005012Y005285D01*
X005013Y005285D01*
X005032Y005320D01*
X005042Y005358D01*
X005042Y005506D01*
X004744Y005506D01*
X004744Y005564D01*
X004687Y005564D01*
X004687Y005842D01*
X004518Y005842D01*
X004480Y005832D01*
X004446Y005813D01*
X004418Y005785D01*
X004398Y005750D01*
X004388Y005712D01*
X004388Y005564D01*
X004687Y005564D01*
X004687Y005506D01*
X004388Y005506D01*
X004388Y005358D01*
X004398Y005320D01*
X004418Y005285D01*
X004446Y005257D01*
X004461Y005249D01*
X004460Y005248D01*
X004388Y005277D01*
X004250Y005277D01*
X004122Y005224D01*
X004024Y005126D01*
X003992Y005051D01*
X003604Y005439D01*
X003453Y005439D01*
X003517Y005503D01*
X003599Y005702D01*
X003599Y005916D01*
X003573Y005978D02*
X004445Y005978D01*
X004368Y006077D02*
X003533Y006077D01*
X003457Y006175D02*
X004368Y006175D01*
X004368Y006274D02*
X003349Y006274D01*
X003386Y006372D02*
X004368Y006372D01*
X004368Y006471D02*
X003484Y006471D01*
X003544Y006569D02*
X004426Y006569D01*
X004388Y006668D02*
X003979Y006668D01*
X004077Y006766D02*
X004388Y006766D01*
X004388Y006865D02*
X004288Y006865D01*
X004209Y007209D02*
X003859Y006859D01*
X003739Y006668D02*
X003585Y006668D01*
X003599Y006766D02*
X003641Y006766D01*
X003639Y006865D02*
X003599Y006865D01*
X003580Y006963D02*
X003652Y006963D01*
X003750Y007062D02*
X003539Y007062D01*
X003472Y007160D02*
X003783Y007160D01*
X003648Y007259D02*
X003373Y007259D01*
X003371Y007357D02*
X003510Y007357D01*
X004409Y007583D02*
X004409Y007959D01*
X003959Y008409D01*
X003959Y009209D01*
X004159Y009409D01*
X004409Y009409D01*
X004368Y009061D02*
X004368Y008655D01*
X004468Y008556D01*
X004889Y008556D01*
X004889Y008442D01*
X004744Y008442D01*
X004744Y008164D01*
X004687Y008164D01*
X004687Y008442D01*
X004518Y008442D01*
X004480Y008432D01*
X004446Y008413D01*
X004418Y008385D01*
X004398Y008350D01*
X004388Y008312D01*
X004388Y008291D01*
X004179Y008500D01*
X004179Y009118D01*
X004193Y009132D01*
X004212Y009114D01*
X004340Y009061D01*
X004368Y009061D01*
X004368Y009032D02*
X004179Y009032D01*
X004191Y009130D02*
X004195Y009130D01*
X004179Y008933D02*
X004368Y008933D01*
X004368Y008835D02*
X004179Y008835D01*
X004179Y008736D02*
X004368Y008736D01*
X004386Y008638D02*
X004179Y008638D01*
X004259Y008591D02*
X004259Y008909D01*
X004179Y008539D02*
X004889Y008539D01*
X004744Y008441D02*
X004687Y008441D01*
X004687Y008342D02*
X004744Y008342D01*
X004744Y008244D02*
X004687Y008244D01*
X004511Y008441D02*
X004239Y008441D01*
X004337Y008342D02*
X004396Y008342D01*
X004715Y008883D02*
X004709Y008939D01*
X004709Y010159D01*
X005520Y011002D02*
X005991Y011002D01*
X005875Y011100D02*
X005422Y011100D01*
X005323Y011199D02*
X005828Y011199D01*
X005811Y011297D02*
X005225Y011297D01*
X005200Y011396D02*
X005818Y011396D01*
X005781Y011494D02*
X005298Y011494D01*
X005397Y011593D02*
X005701Y011593D01*
X005661Y011691D02*
X005495Y011691D01*
X005594Y011790D02*
X005661Y011790D01*
X006009Y011759D02*
X006163Y011893D01*
X006169Y012352D01*
X005875Y012665D01*
X005653Y012443D02*
X005259Y012859D01*
X005109Y012559D02*
X005430Y012220D01*
X005207Y011997D02*
X005009Y012209D01*
X004459Y012209D01*
X004809Y012559D02*
X005109Y012559D01*
X006098Y012888D02*
X006359Y012727D01*
X006359Y011509D01*
X006159Y011309D01*
X006579Y012184D02*
X006642Y012184D01*
X005083Y014583D02*
X005083Y015583D01*
X003661Y009721D02*
X003572Y009721D01*
X003562Y009623D02*
X003545Y009623D01*
X002860Y009327D02*
X002184Y009327D01*
X002237Y009229D02*
X002715Y009229D01*
X002616Y009130D02*
X002257Y009130D01*
X002254Y009032D02*
X002567Y009032D01*
X002526Y008933D02*
X002246Y008933D01*
X002310Y008835D02*
X002519Y008835D01*
X002519Y008736D02*
X002330Y008736D01*
X002315Y008638D02*
X002463Y008638D01*
X002707Y009426D02*
X002055Y009426D01*
X001763Y009426D02*
X001090Y009426D01*
X001066Y009327D02*
X001634Y009327D01*
X001581Y009229D02*
X001043Y009229D01*
X001020Y009130D02*
X001561Y009130D01*
X001369Y009032D02*
X000997Y009032D01*
X000974Y008933D02*
X001284Y008933D01*
X001243Y008835D02*
X000951Y008835D01*
X000936Y008736D02*
X001241Y008736D01*
X001262Y008638D02*
X000922Y008638D01*
X000908Y008539D02*
X001258Y008539D01*
X001226Y008441D02*
X000895Y008441D01*
X000881Y008342D02*
X001226Y008342D01*
X001226Y008244D02*
X000867Y008244D01*
X000859Y008145D02*
X001226Y008145D01*
X001226Y008047D02*
X000854Y008047D01*
X000850Y007948D02*
X001226Y007948D01*
X001269Y007850D02*
X000845Y007850D01*
X000841Y007751D02*
X001998Y007751D01*
X001899Y007653D02*
X000836Y007653D01*
X000834Y007554D02*
X001843Y007554D01*
X001835Y007456D02*
X000839Y007456D01*
X000843Y007357D02*
X001258Y007357D01*
X001226Y007259D02*
X000848Y007259D01*
X000853Y007160D02*
X001226Y007160D01*
X001226Y007062D02*
X000857Y007062D01*
X000862Y006963D02*
X001226Y006963D01*
X001226Y006865D02*
X000875Y006865D01*
X000889Y006766D02*
X001226Y006766D01*
X001270Y006668D02*
X000903Y006668D01*
X000916Y006569D02*
X001329Y006569D01*
X001329Y006471D02*
X000930Y006471D01*
X000944Y006372D02*
X001329Y006372D01*
X001329Y006274D02*
X000964Y006274D01*
X000987Y006175D02*
X001329Y006175D01*
X001416Y006077D02*
X001011Y006077D01*
X001034Y005978D02*
X001515Y005978D01*
X001537Y005880D02*
X001057Y005880D01*
X001080Y005781D02*
X001453Y005781D01*
X001412Y005683D02*
X001109Y005683D01*
X001142Y005584D02*
X001411Y005584D01*
X001433Y005486D02*
X001175Y005486D01*
X001208Y005387D02*
X001488Y005387D01*
X001622Y005289D02*
X001241Y005289D01*
X001274Y005190D02*
X001903Y005190D01*
X002001Y005092D02*
X001312Y005092D01*
X001356Y004993D02*
X002100Y004993D01*
X002198Y004895D02*
X001399Y004895D01*
X001443Y004796D02*
X002297Y004796D01*
X002395Y004698D02*
X001486Y004698D01*
X001530Y004599D02*
X002494Y004599D01*
X001859Y004008D02*
X003429Y004008D01*
X003463Y003910D02*
X001926Y003910D01*
X001994Y003811D02*
X003463Y003811D01*
X003463Y003713D02*
X002061Y003713D01*
X002129Y003614D02*
X003557Y003614D01*
X003655Y003516D02*
X002196Y003516D01*
X002278Y003417D02*
X003754Y003417D01*
X003852Y003319D02*
X002360Y003319D01*
X002442Y003220D02*
X003951Y003220D01*
X004049Y003122D02*
X002523Y003122D01*
X002607Y003023D02*
X004148Y003023D01*
X004246Y002925D02*
X002706Y002925D01*
X003335Y004107D02*
X001801Y004107D01*
X001746Y004205D02*
X003238Y004205D01*
X003229Y004304D02*
X001691Y004304D01*
X001637Y004402D02*
X003229Y004402D01*
X003229Y004501D02*
X001582Y004501D01*
X003499Y005486D02*
X004388Y005486D01*
X004388Y005584D02*
X003550Y005584D01*
X003591Y005683D02*
X004388Y005683D01*
X004416Y005781D02*
X003599Y005781D01*
X003656Y005387D02*
X004388Y005387D01*
X004416Y005289D02*
X003755Y005289D01*
X003853Y005190D02*
X004087Y005190D01*
X004009Y005092D02*
X003952Y005092D01*
X004687Y005584D02*
X004744Y005584D01*
X004744Y005564D02*
X004744Y005842D01*
X004912Y005842D01*
X004950Y005832D01*
X004985Y005813D01*
X005013Y005785D01*
X005032Y005750D01*
X005042Y005712D01*
X005042Y005564D01*
X004744Y005564D01*
X004744Y005683D02*
X004687Y005683D01*
X004687Y005781D02*
X004744Y005781D01*
X005015Y005781D02*
X005195Y005781D01*
X005195Y005683D02*
X005042Y005683D01*
X005042Y005584D02*
X005292Y005584D01*
X005509Y005486D02*
X005042Y005486D01*
X005042Y005387D02*
X005509Y005387D01*
X005209Y005289D02*
X005014Y005289D01*
X005082Y005190D02*
X005136Y005190D01*
X005136Y005092D02*
X005082Y005092D01*
X005082Y004993D02*
X005136Y004993D01*
X005136Y004895D02*
X005082Y004895D01*
X005082Y004796D02*
X005136Y004796D01*
X005136Y004698D02*
X005082Y004698D01*
X005079Y004599D02*
X005139Y004599D01*
X005136Y004501D02*
X005082Y004501D01*
X005082Y004402D02*
X005136Y004402D01*
X005136Y004304D02*
X005082Y004304D01*
X005082Y004205D02*
X005136Y004205D01*
X005136Y004107D02*
X005082Y004107D01*
X005082Y004008D02*
X005136Y004008D01*
X005136Y003910D02*
X005082Y003910D01*
X005082Y003811D02*
X005136Y003811D01*
X005136Y003713D02*
X005082Y003713D01*
X005082Y003614D02*
X005136Y003614D01*
X005136Y003516D02*
X005082Y003516D01*
X005082Y003417D02*
X005136Y003417D01*
X005946Y002826D02*
X006350Y002826D01*
X005971Y002728D02*
X006809Y002728D01*
X006908Y002629D02*
X005971Y002629D01*
X005937Y002531D02*
X006717Y002531D01*
X006629Y002432D02*
X006025Y002432D01*
X006025Y002334D02*
X006629Y002334D01*
X006629Y002235D02*
X006025Y002235D01*
X006025Y002137D02*
X006629Y002137D01*
X006629Y002038D02*
X006025Y002038D01*
X006025Y001940D02*
X006629Y001940D01*
X006629Y001841D02*
X006025Y001841D01*
X006016Y001743D02*
X006638Y001743D01*
X007213Y003859D02*
X007599Y004245D01*
X007599Y004409D01*
X006484Y006471D02*
X006451Y006471D01*
X006386Y006569D02*
X006353Y006569D01*
X006287Y006668D02*
X006254Y006668D01*
X006213Y006766D02*
X006209Y006766D01*
X006209Y006865D02*
X006213Y006865D01*
X006209Y006963D02*
X006213Y006963D01*
X006209Y007062D02*
X006213Y007062D01*
X006209Y007160D02*
X006213Y007160D01*
X006209Y007259D02*
X006213Y007259D01*
X006209Y007357D02*
X006213Y007357D01*
X006209Y007456D02*
X006213Y007456D01*
X006209Y007554D02*
X006213Y007554D01*
X006213Y007653D02*
X006191Y007653D01*
X006213Y007751D02*
X006121Y007751D01*
X006213Y007850D02*
X006022Y007850D01*
X005859Y007948D02*
X006213Y007948D01*
X006213Y008047D02*
X005859Y008047D01*
X005859Y008145D02*
X006213Y008145D01*
X006213Y008244D02*
X005859Y008244D01*
X005889Y008342D02*
X006213Y008342D01*
X006229Y008441D02*
X005889Y008441D01*
X005889Y008539D02*
X005916Y008539D01*
X006208Y008539D02*
X006328Y008539D01*
X006462Y008835D02*
X006513Y008835D01*
X006513Y008933D02*
X006441Y008933D01*
X006587Y009032D02*
X006591Y009032D01*
X006653Y008047D02*
X008586Y008047D01*
X008965Y008753D02*
X008809Y008909D01*
X008965Y008753D02*
X009159Y008753D01*
X009159Y009265D02*
X009659Y009265D01*
X009644Y007554D02*
X009754Y007554D01*
X009813Y007456D02*
X009585Y007456D01*
X005314Y006274D02*
X005235Y006274D01*
X005233Y006175D02*
X005136Y006175D01*
X005195Y006077D02*
X005062Y006077D01*
X004744Y006865D02*
X004687Y006865D01*
X004687Y006963D02*
X004744Y006963D01*
X004744Y007062D02*
X004687Y007062D01*
X004557Y007160D02*
X004889Y007160D01*
X004715Y007583D02*
X004409Y007583D01*
X002623Y009524D02*
X001122Y009524D01*
X001155Y009623D02*
X002573Y009623D01*
X002546Y009721D02*
X001188Y009721D01*
X001798Y007850D02*
X001820Y007850D01*
D11*
X003059Y007809D03*
X003059Y006809D03*
X003059Y005809D03*
X003059Y008809D03*
X003059Y009809D03*
X003059Y010809D03*
X012834Y010034D03*
X012834Y009034D03*
X012834Y008034D03*
X012834Y007034D03*
X012834Y006034D03*
X012834Y005034D03*
D12*
X010609Y008153D03*
X010609Y008665D03*
X009659Y008753D03*
X009159Y008753D03*
X009159Y009265D03*
X009659Y009265D03*
D13*
X008333Y008583D03*
X006833Y008583D03*
X006833Y006583D03*
X008333Y006583D03*
D14*
G36*
X006117Y009050D02*
X006312Y008855D01*
X006063Y008606D01*
X005868Y008801D01*
X006117Y009050D01*
G37*
G36*
X005755Y009412D02*
X005950Y009217D01*
X005701Y008968D01*
X005506Y009163D01*
X005755Y009412D01*
G37*
G36*
X009850Y011201D02*
X009655Y011006D01*
X009406Y011255D01*
X009601Y011450D01*
X009850Y011201D01*
G37*
G36*
X010212Y011563D02*
X010017Y011368D01*
X009768Y011617D01*
X009963Y011812D01*
X010212Y011563D01*
G37*
X011203Y010809D03*
X011715Y010809D03*
D15*
G36*
X009261Y013159D02*
X008996Y013231D01*
X009169Y013875D01*
X009434Y013803D01*
X009261Y013159D01*
G37*
G36*
X008805Y013281D02*
X008540Y013353D01*
X008713Y013997D01*
X008978Y013925D01*
X008805Y013281D01*
G37*
G36*
X008349Y013403D02*
X008084Y013475D01*
X008257Y014119D01*
X008522Y014047D01*
X008349Y013403D01*
G37*
D16*
G36*
X007566Y012790D02*
X007918Y013142D01*
X008074Y012986D01*
X007722Y012634D01*
X007566Y012790D01*
G37*
G36*
X007343Y013013D02*
X007695Y013365D01*
X007851Y013209D01*
X007499Y012857D01*
X007343Y013013D01*
G37*
G36*
X007121Y013236D02*
X007473Y013588D01*
X007629Y013432D01*
X007277Y013080D01*
X007121Y013236D01*
G37*
G36*
X007789Y012567D02*
X008141Y012919D01*
X008297Y012763D01*
X007945Y012411D01*
X007789Y012567D01*
G37*
G36*
X008011Y012345D02*
X008363Y012697D01*
X008519Y012541D01*
X008167Y012189D01*
X008011Y012345D01*
G37*
G36*
X008234Y012122D02*
X008586Y012474D01*
X008742Y012318D01*
X008390Y011966D01*
X008234Y012122D01*
G37*
G36*
X008457Y011899D02*
X008809Y012251D01*
X008965Y012095D01*
X008613Y011743D01*
X008457Y011899D01*
G37*
G36*
X008680Y011677D02*
X009032Y012029D01*
X009188Y011873D01*
X008836Y011521D01*
X008680Y011677D01*
G37*
G36*
X006289Y009287D02*
X006641Y009639D01*
X006797Y009483D01*
X006445Y009131D01*
X006289Y009287D01*
G37*
G36*
X006067Y009509D02*
X006419Y009861D01*
X006575Y009705D01*
X006223Y009353D01*
X006067Y009509D01*
G37*
G36*
X005844Y009732D02*
X006196Y010084D01*
X006352Y009928D01*
X006000Y009576D01*
X005844Y009732D01*
G37*
G36*
X005621Y009955D02*
X005973Y010307D01*
X006129Y010151D01*
X005777Y009799D01*
X005621Y009955D01*
G37*
G36*
X005399Y010177D02*
X005751Y010529D01*
X005907Y010373D01*
X005555Y010021D01*
X005399Y010177D01*
G37*
G36*
X005176Y010400D02*
X005528Y010752D01*
X005684Y010596D01*
X005332Y010244D01*
X005176Y010400D01*
G37*
G36*
X004953Y010623D02*
X005305Y010975D01*
X005461Y010819D01*
X005109Y010467D01*
X004953Y010623D01*
G37*
G36*
X004731Y010845D02*
X005083Y011197D01*
X005239Y011041D01*
X004887Y010689D01*
X004731Y010845D01*
G37*
D17*
G36*
X004731Y011873D02*
X004887Y012029D01*
X005239Y011677D01*
X005083Y011521D01*
X004731Y011873D01*
G37*
G36*
X004953Y012095D02*
X005109Y012251D01*
X005461Y011899D01*
X005305Y011743D01*
X004953Y012095D01*
G37*
G36*
X005176Y012318D02*
X005332Y012474D01*
X005684Y012122D01*
X005528Y011966D01*
X005176Y012318D01*
G37*
G36*
X005399Y012541D02*
X005555Y012697D01*
X005907Y012345D01*
X005751Y012189D01*
X005399Y012541D01*
G37*
G36*
X005621Y012763D02*
X005777Y012919D01*
X006129Y012567D01*
X005973Y012411D01*
X005621Y012763D01*
G37*
G36*
X005844Y012986D02*
X006000Y013142D01*
X006352Y012790D01*
X006196Y012634D01*
X005844Y012986D01*
G37*
G36*
X006067Y013209D02*
X006223Y013365D01*
X006575Y013013D01*
X006419Y012857D01*
X006067Y013209D01*
G37*
G36*
X006289Y013432D02*
X006445Y013588D01*
X006797Y013236D01*
X006641Y013080D01*
X006289Y013432D01*
G37*
G36*
X008680Y011041D02*
X008836Y011197D01*
X009188Y010845D01*
X009032Y010689D01*
X008680Y011041D01*
G37*
G36*
X008457Y010819D02*
X008613Y010975D01*
X008965Y010623D01*
X008809Y010467D01*
X008457Y010819D01*
G37*
G36*
X008234Y010596D02*
X008390Y010752D01*
X008742Y010400D01*
X008586Y010244D01*
X008234Y010596D01*
G37*
G36*
X008011Y010373D02*
X008167Y010529D01*
X008519Y010177D01*
X008363Y010021D01*
X008011Y010373D01*
G37*
G36*
X007789Y010151D02*
X007945Y010307D01*
X008297Y009955D01*
X008141Y009799D01*
X007789Y010151D01*
G37*
G36*
X007566Y009928D02*
X007722Y010084D01*
X008074Y009732D01*
X007918Y009576D01*
X007566Y009928D01*
G37*
G36*
X007343Y009705D02*
X007499Y009861D01*
X007851Y009509D01*
X007695Y009353D01*
X007343Y009705D01*
G37*
G36*
X007121Y009483D02*
X007277Y009639D01*
X007629Y009287D01*
X007473Y009131D01*
X007121Y009483D01*
G37*
D18*
G36*
X009487Y012665D02*
X009625Y012903D01*
X010033Y012667D01*
X009895Y012429D01*
X009487Y012665D01*
G37*
G36*
X009762Y013142D02*
X009900Y013380D01*
X010308Y013144D01*
X010170Y012906D01*
X009762Y013142D01*
G37*
G36*
X010510Y012074D02*
X010648Y012312D01*
X011056Y012076D01*
X010918Y011838D01*
X010510Y012074D01*
G37*
G36*
X010785Y012551D02*
X010923Y012789D01*
X011331Y012553D01*
X011193Y012315D01*
X010785Y012551D01*
G37*
G36*
X010748Y002906D02*
X010610Y003144D01*
X011018Y003380D01*
X011156Y003142D01*
X010748Y002906D01*
G37*
G36*
X011023Y002429D02*
X010885Y002667D01*
X011293Y002903D01*
X011431Y002665D01*
X011023Y002429D01*
G37*
G36*
X010000Y001838D02*
X009862Y002076D01*
X010270Y002312D01*
X010408Y002074D01*
X010000Y001838D01*
G37*
G36*
X009725Y002315D02*
X009587Y002553D01*
X009995Y002789D01*
X010133Y002551D01*
X009725Y002315D01*
G37*
X002085Y007018D03*
X001533Y007018D03*
X001533Y008200D03*
X002085Y008200D03*
D19*
X011009Y005075D03*
D20*
X010111Y007949D03*
X011907Y007949D03*
D21*
X011759Y008808D03*
X011759Y009910D03*
X009159Y007860D03*
X009159Y006758D03*
D22*
X010659Y009364D03*
X010659Y009954D03*
D23*
X009213Y005209D03*
X008505Y005209D03*
X008505Y004509D03*
X008505Y003809D03*
X009213Y003809D03*
X009213Y004509D03*
X007163Y004509D03*
X007163Y003809D03*
X006455Y003809D03*
X006455Y004509D03*
X006455Y005209D03*
X007163Y005209D03*
X005463Y004909D03*
X005463Y004209D03*
X005463Y003509D03*
X004755Y003509D03*
X004755Y004209D03*
X004755Y004909D03*
D24*
X008363Y001973D03*
X009111Y001973D03*
X008737Y002800D03*
G36*
X003917Y011230D02*
X003695Y011008D01*
X003445Y011258D01*
X003667Y011480D01*
X003917Y011230D01*
G37*
G36*
X004446Y011759D02*
X004224Y011537D01*
X003974Y011787D01*
X004196Y012009D01*
X004446Y011759D01*
G37*
G36*
X003597Y012079D02*
X003375Y011857D01*
X003125Y012107D01*
X003347Y012329D01*
X003597Y012079D01*
G37*
D25*
X005579Y002097D03*
X007075Y002097D03*
D26*
X004715Y005535D03*
X004715Y006283D03*
X004715Y006835D03*
X004715Y007583D03*
X004715Y008135D03*
X004715Y008883D03*
X005542Y008509D03*
X005542Y007209D03*
X005542Y005909D03*
D27*
X004209Y007209D02*
X003659Y007609D01*
X003659Y008833D01*
X003083Y008833D01*
X003059Y008809D01*
X003659Y008833D02*
X003659Y009309D01*
X004109Y009759D01*
X004109Y010509D01*
X004210Y010610D01*
X004210Y011773D01*
X003361Y012093D02*
X003059Y011791D01*
X003059Y010809D01*
X007309Y007659D02*
X007410Y007660D01*
X008609Y007659D01*
X008810Y007860D01*
X009159Y007860D01*
X010111Y007860D01*
X010111Y007949D01*
X010103Y007940D01*
X010103Y006893D01*
X010909Y006209D02*
X011009Y005075D01*
X012793Y005075D01*
X012834Y005034D01*
X012834Y006034D01*
X011209Y006549D02*
X010909Y006209D01*
X010059Y007899D02*
X010111Y007949D01*
D28*
X010115Y008159D01*
X010609Y008153D01*
X010650Y008655D02*
X010609Y008665D01*
X010650Y008655D02*
X010659Y009364D01*
X010259Y009809D02*
X010109Y009659D01*
X010109Y009309D01*
X010065Y009265D01*
X009659Y009265D01*
X010109Y009309D02*
X010109Y008659D01*
X010111Y007949D01*
X010259Y009809D02*
X010259Y010509D01*
X010109Y010659D01*
X010109Y011321D01*
X009990Y011590D01*
X009990Y012278D01*
X009859Y012409D01*
X009690Y012596D01*
X009760Y012666D01*
X009393Y012299D01*
X009049Y012299D01*
X008699Y012639D01*
X008472Y012639D01*
X008265Y012443D01*
X008059Y012259D02*
X007859Y012259D01*
X007609Y012509D01*
X007609Y012677D01*
X005207Y010721D02*
X004995Y010509D01*
X004109Y010509D01*
X003059Y008809D02*
X002459Y008309D01*
X002459Y007859D01*
X002085Y007485D01*
X002085Y007018D01*
X002185Y007185D01*
X004309Y006710D02*
X004309Y005984D01*
X004434Y005859D01*
X005069Y005899D01*
X005079Y005535D01*
X004715Y005535D01*
X005542Y005909D02*
X005759Y005909D01*
X005759Y004909D01*
X005759Y004209D01*
X005759Y003509D01*
X006259Y003809D02*
X006009Y004059D01*
X006009Y004509D01*
X006009Y005209D01*
X006009Y006159D01*
X005909Y006259D01*
X005659Y006259D01*
X005542Y006376D01*
X005542Y007209D01*
X005709Y007659D02*
X005609Y007759D01*
X005609Y008342D01*
X005615Y008361D01*
X005618Y008381D01*
X005619Y008401D01*
X005616Y008420D01*
X005610Y008439D01*
X005601Y008457D01*
X005590Y008473D01*
X005576Y008488D01*
X005560Y008500D01*
X005542Y008509D01*
X005709Y007659D02*
X005859Y007659D01*
X005959Y007559D01*
X005959Y006609D01*
X006539Y006029D01*
X007835Y006029D01*
X008105Y005759D01*
X008105Y005209D01*
X008105Y004509D01*
X008105Y003809D01*
X008505Y003809D01*
X008505Y004509D02*
X008105Y004509D01*
X008105Y005209D02*
X008505Y005209D01*
X006455Y005209D02*
X006009Y005209D01*
X006009Y004509D02*
X006455Y004509D01*
X006455Y003809D02*
X006259Y003809D01*
X004309Y006710D02*
X004434Y006835D01*
X004715Y006835D01*
D29*
X004209Y007209D03*
X005069Y005899D03*
X004319Y004929D03*
X004059Y004559D03*
X004309Y004209D03*
X003549Y003139D03*
X003939Y002789D03*
X003479Y002659D03*
X001759Y005609D03*
X001909Y006509D03*
X001589Y008759D03*
X001909Y009109D03*
X004259Y008909D03*
X004409Y009409D03*
X005109Y009684D03*
X004709Y010159D03*
X006159Y011309D03*
X006009Y011759D03*
X006509Y010859D03*
X006909Y010459D03*
X007359Y012009D03*
X006859Y012459D03*
X007209Y012709D03*
X008449Y013049D03*
X009159Y012759D03*
X009409Y011659D03*
X010409Y012559D03*
X011309Y011609D03*
X010509Y011359D03*
X010609Y010509D03*
X009909Y010259D03*
X009809Y009809D03*
X009209Y009909D03*
X007259Y008559D03*
X007259Y008159D03*
X007309Y007659D03*
X007209Y007059D03*
X006809Y007209D03*
X007259Y006409D03*
X007159Y005699D03*
X007709Y005559D03*
X007579Y005099D03*
X007599Y004409D03*
X007243Y003133D03*
X006543Y003123D03*
X008609Y005859D03*
X007919Y006409D03*
X006109Y008359D03*
X004459Y012209D03*
X004809Y012559D03*
X005259Y012859D03*
X010509Y003559D03*
X010279Y002819D03*
X010569Y002409D03*
D30*
X010279Y002819D02*
X009903Y002509D01*
X009860Y002552D01*
X010403Y003143D02*
X009759Y003787D01*
X009759Y003963D01*
X009213Y004509D01*
X009213Y003809D02*
X008537Y003133D01*
X007243Y003133D01*
X007163Y003809D02*
X007213Y003859D01*
X007163Y004509D02*
X007163Y004563D01*
X007559Y004959D01*
X007579Y005099D01*
X007163Y005209D02*
X007159Y005699D01*
X007259Y006409D02*
X007919Y006409D01*
X008609Y005859D02*
X008959Y005859D01*
X009209Y005609D01*
X009209Y005259D01*
X009213Y005255D01*
X009213Y005209D01*
X010509Y003559D02*
X011109Y003559D01*
X011309Y003209D01*
X011309Y002866D01*
X011158Y002666D01*
X010883Y003143D02*
X010403Y003143D01*
X006543Y003123D02*
X006523Y003103D01*
X004393Y003103D01*
X003693Y003803D01*
X003693Y004065D01*
X003459Y004309D01*
X003459Y004659D01*
X003309Y004809D01*
X002609Y004809D01*
X001809Y005609D01*
X001759Y005609D01*
X002159Y005559D02*
X002159Y005909D01*
X001959Y006109D01*
X001709Y006109D01*
X001559Y006259D01*
X001559Y006993D01*
X001533Y007018D01*
X001909Y006509D02*
X001959Y006509D01*
X002359Y006109D01*
X002359Y005659D01*
X002809Y005209D01*
X003509Y005209D01*
X003989Y004729D01*
X004059Y004559D01*
X003959Y004209D02*
X003959Y003909D01*
X004359Y003509D01*
X004755Y003509D01*
X004755Y004209D02*
X004309Y004209D01*
X003959Y004209D02*
X003709Y004459D01*
X003709Y004709D01*
X003409Y005009D01*
X002709Y005009D01*
X002159Y005559D01*
X004319Y004929D02*
X004755Y004909D01*
X005463Y004909D02*
X005759Y004909D01*
X005759Y004209D02*
X005463Y004209D01*
X005463Y003509D02*
X005759Y003509D01*
X002085Y008200D02*
X002085Y008735D01*
X001909Y009109D01*
X001589Y008759D02*
X001509Y008375D01*
X001533Y008200D01*
X007359Y012009D02*
X008277Y012009D01*
X008488Y012220D01*
X008697Y012047D02*
X008711Y011997D01*
X008265Y012443D02*
X008293Y012493D01*
X008059Y012259D01*
X007609Y012677D02*
X007820Y012888D01*
X010035Y013143D02*
X010409Y012819D01*
X010409Y012559D01*
X010783Y012075D02*
X010809Y012049D01*
X010809Y011659D01*
X010509Y011359D01*
X011309Y011609D02*
X011309Y012302D01*
X011058Y012552D01*
D31*
X011907Y007949D02*
X011907Y007857D01*
X011013Y006963D01*
X010111Y007949D02*
X010109Y007951D01*
X011907Y007949D02*
X011904Y008074D01*
X011895Y008199D01*
X011880Y008323D01*
X011858Y008446D01*
X011831Y008568D01*
X011798Y008689D01*
X011759Y008808D01*
X009623Y003253D02*
X009190Y003253D01*
X008737Y002800D01*
X007713Y002323D02*
X007709Y002327D01*
X007075Y002097D01*
X005603Y002331D02*
X005579Y002097D01*
X005603Y002331D02*
X005603Y002693D01*
X010135Y002075D02*
X010225Y002075D01*
X010569Y002409D01*
D32*
X009623Y003253D03*
X007713Y002323D03*
X005603Y002693D03*
X010103Y006893D03*
X011013Y006963D03*
M02*
