G75*
G70*
%OFA0B0*%
%FSLAX24Y24*%
%IPPOS*%
%LPD*%
%AMOC8*
5,1,8,0,0,1.08239X$1,22.5*
%
%ADD10C,0.0800*%
%ADD11R,0.0414X0.0336*%
%ADD12R,0.0360X0.0660*%
%ADD13R,0.0336X0.0414*%
%ADD14R,0.0336X0.0729*%
%ADD15R,0.0560X0.0280*%
%ADD16R,0.0280X0.0560*%
%ADD17R,0.0336X0.0532*%
%ADD18R,0.2186X0.2501*%
%ADD19R,0.0454X0.0690*%
%ADD20R,0.0690X0.0611*%
%ADD21R,0.0375X0.0375*%
%ADD22R,0.0375X0.0532*%
%ADD23R,0.0375X0.0414*%
%ADD24R,0.0611X0.0611*%
%ADD25R,0.0414X0.0375*%
%ADD26C,0.0417*%
%ADD27C,0.0456*%
D10*
X003069Y005819D03*
X003069Y006819D03*
X003069Y007819D03*
X003069Y008819D03*
X003069Y009819D03*
X003069Y010819D03*
X012844Y010044D03*
X012844Y009044D03*
X012844Y008044D03*
X012844Y007044D03*
X012844Y006044D03*
X012844Y005044D03*
D11*
X010619Y008163D03*
X010619Y008675D03*
X009669Y008763D03*
X009169Y008763D03*
X009169Y009275D03*
X009669Y009275D03*
X003869Y006475D03*
X003869Y005963D03*
D12*
X006843Y006593D03*
X008343Y006593D03*
X008343Y008593D03*
X006843Y008593D03*
D13*
G36*
X006127Y009103D02*
X006365Y008865D01*
X006073Y008573D01*
X005835Y008811D01*
X006127Y009103D01*
G37*
G36*
X005765Y009465D02*
X006003Y009227D01*
X005711Y008935D01*
X005473Y009173D01*
X005765Y009465D01*
G37*
G36*
X009903Y011211D02*
X009665Y010973D01*
X009373Y011265D01*
X009611Y011503D01*
X009903Y011211D01*
G37*
G36*
X010265Y011573D02*
X010027Y011335D01*
X009735Y011627D01*
X009973Y011865D01*
X010265Y011573D01*
G37*
X011213Y010819D03*
X011725Y010819D03*
D14*
G36*
X009293Y013132D02*
X008969Y013219D01*
X009157Y013922D01*
X009481Y013835D01*
X009293Y013132D01*
G37*
G36*
X008837Y013254D02*
X008513Y013341D01*
X008701Y014044D01*
X009025Y013957D01*
X008837Y013254D01*
G37*
G36*
X008381Y013376D02*
X008057Y013463D01*
X008245Y014166D01*
X008569Y014079D01*
X008381Y013376D01*
G37*
D15*
G36*
X007534Y012800D02*
X007928Y013194D01*
X008126Y012996D01*
X007732Y012602D01*
X007534Y012800D01*
G37*
G36*
X007311Y013023D02*
X007705Y013417D01*
X007903Y013219D01*
X007509Y012825D01*
X007311Y013023D01*
G37*
G36*
X007089Y013246D02*
X007483Y013640D01*
X007681Y013442D01*
X007287Y013048D01*
X007089Y013246D01*
G37*
G36*
X007757Y012577D02*
X008151Y012971D01*
X008349Y012773D01*
X007955Y012379D01*
X007757Y012577D01*
G37*
G36*
X007979Y012355D02*
X008373Y012749D01*
X008571Y012551D01*
X008177Y012157D01*
X007979Y012355D01*
G37*
G36*
X008202Y012132D02*
X008596Y012526D01*
X008794Y012328D01*
X008400Y011934D01*
X008202Y012132D01*
G37*
G36*
X008425Y011909D02*
X008819Y012303D01*
X009017Y012105D01*
X008623Y011711D01*
X008425Y011909D01*
G37*
G36*
X008648Y011687D02*
X009042Y012081D01*
X009240Y011883D01*
X008846Y011489D01*
X008648Y011687D01*
G37*
G36*
X006257Y009297D02*
X006651Y009691D01*
X006849Y009493D01*
X006455Y009099D01*
X006257Y009297D01*
G37*
G36*
X006035Y009519D02*
X006429Y009913D01*
X006627Y009715D01*
X006233Y009321D01*
X006035Y009519D01*
G37*
G36*
X005812Y009742D02*
X006206Y010136D01*
X006404Y009938D01*
X006010Y009544D01*
X005812Y009742D01*
G37*
G36*
X005589Y009965D02*
X005983Y010359D01*
X006181Y010161D01*
X005787Y009767D01*
X005589Y009965D01*
G37*
G36*
X005367Y010187D02*
X005761Y010581D01*
X005959Y010383D01*
X005565Y009989D01*
X005367Y010187D01*
G37*
G36*
X005144Y010410D02*
X005538Y010804D01*
X005736Y010606D01*
X005342Y010212D01*
X005144Y010410D01*
G37*
G36*
X004921Y010633D02*
X005315Y011027D01*
X005513Y010829D01*
X005119Y010435D01*
X004921Y010633D01*
G37*
G36*
X004699Y010855D02*
X005093Y011249D01*
X005291Y011051D01*
X004897Y010657D01*
X004699Y010855D01*
G37*
D16*
G36*
X004699Y011883D02*
X004897Y012081D01*
X005291Y011687D01*
X005093Y011489D01*
X004699Y011883D01*
G37*
G36*
X004921Y012105D02*
X005119Y012303D01*
X005513Y011909D01*
X005315Y011711D01*
X004921Y012105D01*
G37*
G36*
X005144Y012328D02*
X005342Y012526D01*
X005736Y012132D01*
X005538Y011934D01*
X005144Y012328D01*
G37*
G36*
X005367Y012551D02*
X005565Y012749D01*
X005959Y012355D01*
X005761Y012157D01*
X005367Y012551D01*
G37*
G36*
X005589Y012773D02*
X005787Y012971D01*
X006181Y012577D01*
X005983Y012379D01*
X005589Y012773D01*
G37*
G36*
X005812Y012996D02*
X006010Y013194D01*
X006404Y012800D01*
X006206Y012602D01*
X005812Y012996D01*
G37*
G36*
X006035Y013219D02*
X006233Y013417D01*
X006627Y013023D01*
X006429Y012825D01*
X006035Y013219D01*
G37*
G36*
X006257Y013442D02*
X006455Y013640D01*
X006849Y013246D01*
X006651Y013048D01*
X006257Y013442D01*
G37*
G36*
X008648Y011051D02*
X008846Y011249D01*
X009240Y010855D01*
X009042Y010657D01*
X008648Y011051D01*
G37*
G36*
X008425Y010829D02*
X008623Y011027D01*
X009017Y010633D01*
X008819Y010435D01*
X008425Y010829D01*
G37*
G36*
X008202Y010606D02*
X008400Y010804D01*
X008794Y010410D01*
X008596Y010212D01*
X008202Y010606D01*
G37*
G36*
X007979Y010383D02*
X008177Y010581D01*
X008571Y010187D01*
X008373Y009989D01*
X007979Y010383D01*
G37*
G36*
X007757Y010161D02*
X007955Y010359D01*
X008349Y009965D01*
X008151Y009767D01*
X007757Y010161D01*
G37*
G36*
X007534Y009938D02*
X007732Y010136D01*
X008126Y009742D01*
X007928Y009544D01*
X007534Y009938D01*
G37*
G36*
X007311Y009715D02*
X007509Y009913D01*
X007903Y009519D01*
X007705Y009321D01*
X007311Y009715D01*
G37*
G36*
X007089Y009493D02*
X007287Y009691D01*
X007681Y009297D01*
X007483Y009099D01*
X007089Y009493D01*
G37*
D17*
G36*
X009456Y012664D02*
X009624Y012954D01*
X010084Y012688D01*
X009916Y012398D01*
X009456Y012664D01*
G37*
G36*
X009731Y013141D02*
X009899Y013431D01*
X010359Y013165D01*
X010191Y012875D01*
X009731Y013141D01*
G37*
G36*
X010479Y012073D02*
X010647Y012363D01*
X011107Y012097D01*
X010939Y011807D01*
X010479Y012073D01*
G37*
G36*
X010754Y012550D02*
X010922Y012840D01*
X011382Y012574D01*
X011214Y012284D01*
X010754Y012550D01*
G37*
X002095Y008210D03*
X001543Y008210D03*
X001543Y007028D03*
X002095Y007028D03*
G36*
X009724Y002284D02*
X009556Y002574D01*
X010016Y002840D01*
X010184Y002550D01*
X009724Y002284D01*
G37*
G36*
X009999Y001807D02*
X009831Y002097D01*
X010291Y002363D01*
X010459Y002073D01*
X009999Y001807D01*
G37*
G36*
X011022Y002398D02*
X010854Y002688D01*
X011314Y002954D01*
X011482Y002664D01*
X011022Y002398D01*
G37*
G36*
X010747Y002875D02*
X010579Y003165D01*
X011039Y003431D01*
X011207Y003141D01*
X010747Y002875D01*
G37*
D18*
X011019Y005085D03*
D19*
X010121Y007959D03*
X011917Y007959D03*
D20*
X011769Y008818D03*
X011769Y009920D03*
X009169Y007870D03*
X009169Y006768D03*
D21*
X010669Y009374D03*
X010669Y009964D03*
D22*
X009223Y005219D03*
X009223Y004519D03*
X008515Y004519D03*
X008515Y005219D03*
X007173Y005219D03*
X007173Y004519D03*
X007173Y003819D03*
X006465Y003819D03*
X006465Y004519D03*
X006465Y005219D03*
X005473Y004919D03*
X005473Y004219D03*
X005473Y003519D03*
X004765Y003519D03*
X004765Y004219D03*
X004765Y004919D03*
X008515Y003819D03*
X009223Y003819D03*
D23*
X009193Y002813D03*
X008445Y002813D03*
X008819Y001986D03*
G36*
X003647Y011477D02*
X003911Y011741D01*
X004203Y011449D01*
X003939Y011185D01*
X003647Y011477D01*
G37*
G36*
X002798Y011797D02*
X003062Y012061D01*
X003354Y011769D01*
X003090Y011505D01*
X002798Y011797D01*
G37*
G36*
X003327Y012326D02*
X003591Y012590D01*
X003883Y012298D01*
X003619Y012034D01*
X003327Y012326D01*
G37*
D24*
X004849Y002337D03*
X006345Y002337D03*
D25*
X004725Y005545D03*
X004725Y006293D03*
X004725Y006845D03*
X004725Y007593D03*
X004725Y008145D03*
X004725Y008893D03*
X005552Y008519D03*
X005552Y007219D03*
X005552Y005919D03*
D26*
X003619Y004069D03*
X004069Y004569D03*
X004319Y004219D03*
X004369Y004919D03*
X004219Y005469D03*
X005079Y005909D03*
X004219Y007219D03*
X004269Y008919D03*
X004419Y009419D03*
X005119Y009694D03*
X004719Y010169D03*
X006169Y011319D03*
X006019Y011769D03*
X006519Y010869D03*
X006919Y010469D03*
X007369Y012019D03*
X006869Y012469D03*
X007219Y012719D03*
X008459Y013059D03*
X009169Y012769D03*
X009419Y011669D03*
X010419Y012569D03*
X011319Y011619D03*
X010519Y011369D03*
X010619Y010519D03*
X009919Y010269D03*
X009819Y009819D03*
X009219Y009919D03*
X007269Y008569D03*
X007269Y008169D03*
X007319Y007669D03*
X007219Y007069D03*
X006819Y007219D03*
X006429Y006699D03*
X007269Y006419D03*
X007169Y005699D03*
X007719Y005569D03*
X007589Y005109D03*
X007609Y004419D03*
X007169Y003169D03*
X008119Y002069D03*
X010289Y002829D03*
X010579Y002419D03*
X010519Y003569D03*
X008619Y005869D03*
X007929Y006419D03*
X006119Y008369D03*
X004469Y012219D03*
X004819Y012569D03*
X005269Y012869D03*
X001919Y009119D03*
X001619Y008769D03*
X001919Y006519D03*
X001769Y005619D03*
X005459Y002389D03*
X005739Y002739D03*
X005379Y001839D03*
D27*
X010113Y006903D03*
X011023Y006973D03*
M02*
