G75*
G70*
%OFA0B0*%
%FSLAX24Y24*%
%IPPOS*%
%LPD*%
%AMOC8*
5,1,8,0,0,1.08239X$1,22.5*
%
%ADD10C,0.0060*%
%ADD11R,0.0010X0.0240*%
%ADD12R,0.0010X0.0550*%
%ADD13R,0.0010X0.0710*%
%ADD14R,0.0010X0.0860*%
%ADD15R,0.0010X0.1010*%
%ADD16R,0.0010X0.0450*%
%ADD17R,0.0010X0.0340*%
%ADD18R,0.0010X0.0300*%
%ADD19R,0.0010X0.0310*%
%ADD20R,0.0010X0.0270*%
%ADD21R,0.0010X0.0250*%
%ADD22R,0.0010X0.0540*%
%ADD23R,0.0010X0.0210*%
%ADD24R,0.0010X0.0690*%
%ADD25R,0.0010X0.0170*%
%ADD26R,0.0010X0.0830*%
%ADD27R,0.0010X0.0180*%
%ADD28R,0.0010X0.0150*%
%ADD29R,0.0010X0.0970*%
%ADD30R,0.0010X0.0160*%
%ADD31R,0.0010X0.1100*%
%ADD32R,0.0010X0.1230*%
%ADD33R,0.0010X0.0140*%
%ADD34R,0.0010X0.1330*%
%ADD35R,0.0010X0.1390*%
%ADD36R,0.0010X0.0130*%
%ADD37R,0.0010X0.1470*%
%ADD38R,0.0010X0.0120*%
%ADD39R,0.0010X0.1560*%
%ADD40R,0.0010X0.0110*%
%ADD41R,0.0010X0.1610*%
%ADD42R,0.0010X0.0100*%
%ADD43R,0.0010X0.1670*%
%ADD44R,0.0010X0.1720*%
%ADD45R,0.0010X0.1770*%
%ADD46R,0.0010X0.0090*%
%ADD47R,0.0010X0.1810*%
%ADD48R,0.0010X0.0080*%
%ADD49R,0.0010X0.0260*%
%ADD50R,0.0010X0.0400*%
%ADD51R,0.0010X0.0230*%
%ADD52R,0.0010X0.0050*%
%ADD53R,0.0010X0.0070*%
%ADD54R,0.0010X0.0320*%
%ADD55R,0.0010X0.0010*%
%ADD56R,0.0010X0.0040*%
%ADD57R,0.0010X0.0330*%
%ADD58R,0.0010X0.0020*%
%ADD59R,0.0010X0.0200*%
%ADD60R,0.0010X0.0030*%
%ADD61R,0.0010X0.0410*%
%ADD62R,0.0010X0.0060*%
%ADD63R,0.0010X0.0420*%
%ADD64R,0.0010X0.0360*%
%ADD65R,0.0010X0.0370*%
%ADD66R,0.0010X0.0380*%
%ADD67R,0.0010X0.0430*%
%ADD68R,0.0010X0.0390*%
%ADD69R,0.0010X0.0440*%
%ADD70R,0.0010X0.0190*%
%ADD71R,0.0010X0.0560*%
%ADD72R,0.0010X0.0220*%
%ADD73R,0.0010X0.0460*%
%ADD74R,0.0010X0.0470*%
%ADD75R,0.0010X0.0490*%
%ADD76R,0.0010X0.0500*%
%ADD77R,0.0010X0.0510*%
%ADD78R,0.0010X0.0520*%
%ADD79R,0.0010X0.0530*%
%ADD80R,0.0010X0.0750*%
%ADD81R,0.0010X0.0740*%
%ADD82R,0.0010X0.0730*%
%ADD83R,0.0010X0.0840*%
%ADD84R,0.0010X0.0670*%
%ADD85R,0.0010X0.0650*%
%ADD86R,0.0010X0.0480*%
%ADD87R,0.0010X0.0620*%
%ADD88R,0.0010X0.0700*%
%ADD89R,0.0010X0.0610*%
%ADD90R,0.0010X0.0590*%
%ADD91R,0.0010X0.0580*%
%ADD92R,0.0010X0.1140*%
%ADD93R,0.0010X0.1130*%
%ADD94R,0.0010X0.1200*%
%ADD95R,0.0010X0.0780*%
%ADD96R,0.0010X0.0290*%
%ADD97R,0.0010X0.0640*%
%ADD98R,0.0010X0.0570*%
%ADD99R,0.0010X0.0280*%
%ADD100R,0.0010X0.0350*%
%ADD101R,0.0010X0.0850*%
%ADD102R,0.0010X0.0880*%
%ADD103R,0.0010X0.0900*%
%ADD104R,0.0010X0.1240*%
%ADD105R,0.0010X0.1110*%
%ADD106R,0.0010X0.0870*%
%ADD107R,0.0010X0.0720*%
%ADD108C,0.0160*%
%ADD109C,0.0010*%
%ADD110C,0.0059*%
%ADD111C,0.0080*%
D10*
X005619Y004168D02*
X005619Y004595D01*
X005619Y004381D02*
X006260Y004381D01*
X006046Y004168D01*
X005939Y004812D02*
X005939Y005239D01*
X006153Y005457D02*
X006260Y005563D01*
X006260Y005777D01*
X006153Y005884D01*
X006046Y005884D01*
X005619Y005457D01*
X005619Y005884D01*
X005726Y006101D02*
X005833Y006101D01*
X005939Y006208D01*
X005939Y006421D01*
X005833Y006528D01*
X005726Y006528D01*
X005619Y006421D01*
X005619Y006208D01*
X005726Y006101D01*
X005939Y006208D02*
X006046Y006101D01*
X006153Y006101D01*
X006260Y006208D01*
X006260Y006421D01*
X006153Y006528D01*
X006046Y006528D01*
X005939Y006421D01*
X005939Y006746D02*
X005939Y007173D01*
X006046Y007390D02*
X006260Y007604D01*
X005619Y007604D01*
X005619Y007817D02*
X005619Y007390D01*
X005726Y008035D02*
X005619Y008142D01*
X005619Y008355D01*
X005726Y008462D01*
X005833Y008462D01*
X005939Y008355D01*
X005939Y008248D01*
X005939Y008355D02*
X006046Y008462D01*
X006153Y008462D01*
X006260Y008355D01*
X006260Y008142D01*
X006153Y008035D01*
X007799Y008245D02*
X007799Y007818D01*
X007906Y007818D01*
X008333Y008245D01*
X008440Y008245D01*
X008440Y007818D01*
X008440Y008462D02*
X007799Y008462D01*
X007799Y008889D02*
X008440Y008889D01*
X008440Y009107D02*
X007799Y009107D01*
X007799Y009534D01*
X007799Y009751D02*
X007799Y010178D01*
X007906Y010396D02*
X007799Y010502D01*
X007799Y010716D01*
X007906Y010823D01*
X008013Y010823D01*
X008119Y010716D01*
X008119Y010502D01*
X008226Y010396D01*
X008333Y010396D01*
X008440Y010502D01*
X008440Y010716D01*
X008333Y010823D01*
X008333Y011040D02*
X007906Y011040D01*
X007799Y011147D01*
X007799Y011361D01*
X007906Y011467D01*
X008333Y011467D01*
X008440Y011361D01*
X008440Y011147D01*
X008333Y011040D01*
X008440Y011685D02*
X007799Y011685D01*
X007799Y012112D02*
X008440Y012112D01*
X008226Y012329D02*
X008440Y012543D01*
X007799Y012543D01*
X007799Y012756D02*
X007799Y012329D01*
X007799Y012112D02*
X008440Y011685D01*
X008440Y009751D02*
X007799Y009751D01*
X008119Y009320D02*
X008119Y009107D01*
X008440Y009107D02*
X008440Y009534D01*
X007799Y008889D02*
X008440Y008462D01*
D11*
X004929Y008353D03*
X004919Y008343D03*
X004479Y008853D03*
D12*
X004489Y008848D03*
X004909Y009728D03*
X004929Y009738D03*
X004939Y009738D03*
X005339Y008848D03*
D13*
X004499Y008848D03*
D14*
X004509Y008853D03*
D15*
X004519Y008848D03*
X005389Y008848D03*
D16*
X005239Y009428D03*
X005049Y009758D03*
X004849Y009748D03*
X004529Y009198D03*
X004529Y008508D03*
X004889Y007928D03*
X005159Y008078D03*
D17*
X005259Y008283D03*
X004769Y007993D03*
X004539Y008403D03*
X004539Y009303D03*
D18*
X004719Y008493D03*
X004549Y008343D03*
X005179Y008523D03*
X005189Y008533D03*
D19*
X004719Y008078D03*
X004729Y008058D03*
X004549Y009358D03*
D20*
X004559Y009418D03*
X004559Y008288D03*
D21*
X004569Y008228D03*
X004729Y008488D03*
X005429Y008848D03*
X004569Y009478D03*
D22*
X004949Y009743D03*
X005209Y009473D03*
X004569Y008853D03*
X005079Y008023D03*
X004969Y007953D03*
D23*
X004879Y008318D03*
X004949Y008378D03*
X004959Y008388D03*
X004969Y008388D03*
X004739Y008498D03*
X004579Y008178D03*
X005349Y008248D03*
X004749Y009048D03*
X004739Y009048D03*
X004579Y009528D03*
X005349Y009458D03*
D24*
X005169Y009488D03*
X005089Y009128D03*
X005079Y009128D03*
X005069Y009118D03*
X005059Y009118D03*
X005329Y008848D03*
X004579Y008848D03*
D25*
X004779Y009048D03*
X004789Y009048D03*
X005229Y009038D03*
X005319Y009578D03*
X004839Y008298D03*
X004589Y008128D03*
X005319Y008128D03*
D26*
X005319Y008848D03*
X004589Y008848D03*
D27*
X004769Y009043D03*
X004589Y009573D03*
D28*
X004609Y009648D03*
X004859Y009278D03*
X005299Y009648D03*
X005169Y008788D03*
X005009Y008658D03*
X005309Y008088D03*
X005299Y008058D03*
X005289Y008028D03*
X005279Y007998D03*
X004629Y007998D03*
X004619Y008028D03*
X004609Y008058D03*
X004599Y008088D03*
D29*
X004599Y008848D03*
X005309Y008848D03*
D30*
X004799Y009053D03*
X004599Y009613D03*
X005309Y009613D03*
D31*
X004609Y008853D03*
D32*
X004619Y008848D03*
D33*
X004719Y008783D03*
X004839Y008713D03*
X004849Y008723D03*
X004859Y008723D03*
X004869Y008723D03*
X004979Y008643D03*
X004829Y008293D03*
X004639Y007973D03*
X004649Y007953D03*
X004829Y009263D03*
X004849Y009273D03*
X004869Y009283D03*
X004879Y009283D03*
X004619Y009673D03*
X004629Y009703D03*
X005279Y009703D03*
X005289Y009673D03*
D34*
X005279Y008848D03*
X004629Y008848D03*
D35*
X004639Y008848D03*
D36*
X004729Y008798D03*
X004819Y008708D03*
X004829Y008708D03*
X004879Y008728D03*
X004889Y008738D03*
X004899Y008738D03*
X004969Y008628D03*
X004749Y008458D03*
X005269Y007968D03*
X004979Y009198D03*
X004889Y009288D03*
X004839Y009268D03*
X004819Y009258D03*
X004639Y009728D03*
X004649Y009748D03*
D37*
X004649Y008848D03*
D38*
X004809Y008703D03*
X004909Y008743D03*
X004959Y008613D03*
X004809Y008513D03*
X004759Y008463D03*
X004819Y008283D03*
X005129Y008423D03*
X005139Y008423D03*
X005149Y008423D03*
X005149Y008573D03*
X004889Y009103D03*
X004809Y009253D03*
X004899Y009293D03*
X004909Y009303D03*
X005269Y009733D03*
X004669Y009793D03*
X004659Y009773D03*
X004659Y007933D03*
D39*
X004659Y008853D03*
D40*
X004739Y008808D03*
X004749Y008818D03*
X004799Y008698D03*
X004869Y008548D03*
X004849Y008538D03*
X004839Y008528D03*
X004819Y008518D03*
X004799Y008508D03*
X004789Y008498D03*
X004949Y008608D03*
X005049Y008508D03*
X005119Y008558D03*
X005139Y008568D03*
X005119Y008418D03*
X005179Y008778D03*
X004979Y008868D03*
X004879Y009098D03*
X004799Y009248D03*
X004669Y007908D03*
X005259Y007938D03*
D41*
X004669Y008848D03*
D42*
X004789Y008693D03*
X004919Y008743D03*
X004939Y008593D03*
X004929Y008583D03*
X004909Y008573D03*
X004879Y008553D03*
X004859Y008543D03*
X004829Y008523D03*
X004779Y008483D03*
X004769Y008473D03*
X004809Y008283D03*
X005069Y008523D03*
X005079Y008533D03*
X005089Y008543D03*
X005099Y008553D03*
X005109Y008553D03*
X005129Y008563D03*
X004869Y009093D03*
X004969Y009193D03*
X004919Y009303D03*
X004719Y009283D03*
X004679Y009813D03*
X004689Y009833D03*
X005199Y009883D03*
X005209Y009863D03*
X005219Y009843D03*
X005229Y009823D03*
X005239Y009803D03*
X005249Y009783D03*
X005259Y009763D03*
X005249Y007913D03*
X005209Y007833D03*
X005199Y007813D03*
X004699Y007843D03*
X004689Y007863D03*
X004679Y007883D03*
D43*
X004679Y008848D03*
D44*
X004689Y008853D03*
D45*
X004699Y008848D03*
D46*
X004759Y008828D03*
X004769Y008838D03*
X004779Y008848D03*
X004789Y008848D03*
X004799Y008858D03*
X004969Y008868D03*
X004919Y008578D03*
X004899Y008568D03*
X004889Y008558D03*
X005059Y008518D03*
X005109Y008408D03*
X005239Y007898D03*
X005229Y007878D03*
X005219Y007858D03*
X005189Y007798D03*
X004719Y007808D03*
X004709Y007828D03*
X004789Y009238D03*
X004929Y009308D03*
X004699Y009858D03*
D47*
X004709Y008848D03*
D48*
X004809Y008863D03*
X004819Y008873D03*
X004829Y008883D03*
X004839Y008883D03*
X004849Y008893D03*
X004929Y008753D03*
X005059Y008663D03*
X005039Y008473D03*
X005099Y008403D03*
X004779Y008693D03*
X004959Y009193D03*
X004779Y009233D03*
X004829Y009443D03*
X004839Y009443D03*
X004849Y009453D03*
X004709Y009873D03*
X004719Y009893D03*
X004749Y009943D03*
X005179Y009923D03*
X005189Y009903D03*
X005179Y007783D03*
X004749Y007763D03*
X004739Y007773D03*
X004729Y007793D03*
D49*
X005369Y008363D03*
X005149Y008823D03*
X004719Y009063D03*
X005369Y009343D03*
D50*
X005079Y009753D03*
X004749Y009643D03*
X004739Y009623D03*
X004729Y009603D03*
X004719Y009583D03*
D51*
X004729Y009048D03*
X004939Y008368D03*
X004909Y008338D03*
X005359Y008308D03*
X005359Y009398D03*
D52*
X004929Y009178D03*
X004919Y009168D03*
X004819Y009008D03*
X004889Y008918D03*
X004909Y008928D03*
X004939Y008858D03*
X005109Y008688D03*
X005119Y008698D03*
X005019Y008428D03*
X005059Y007658D03*
X005039Y007648D03*
X005019Y007638D03*
X005009Y007638D03*
X004989Y007628D03*
X004979Y007628D03*
X004939Y007628D03*
X004929Y007628D03*
X004919Y007628D03*
X004899Y007638D03*
X004889Y007638D03*
X004869Y007648D03*
X004849Y007658D03*
X004729Y009298D03*
X004849Y010048D03*
X004869Y010058D03*
X004889Y010068D03*
X004899Y010068D03*
X004919Y010078D03*
X004929Y010078D03*
X004939Y010078D03*
X004949Y010078D03*
X004959Y010078D03*
X004969Y010078D03*
X004979Y010078D03*
X004989Y010078D03*
X005009Y010068D03*
X005019Y010068D03*
X005039Y010058D03*
X005059Y010048D03*
D53*
X005169Y009938D03*
X004769Y009968D03*
X004759Y009958D03*
X004739Y009928D03*
X004729Y009908D03*
X004819Y009428D03*
X004949Y009188D03*
X004859Y009088D03*
X004809Y009018D03*
X004869Y008908D03*
X004859Y008898D03*
X004959Y008868D03*
X005019Y008688D03*
X005069Y008668D03*
X005189Y008778D03*
X005169Y007768D03*
X004769Y007738D03*
X004759Y007748D03*
D54*
X004749Y008023D03*
X004739Y008043D03*
X005239Y009013D03*
D55*
X004949Y009028D03*
X004919Y009058D03*
X004739Y009308D03*
X004939Y009388D03*
X004949Y009388D03*
X004909Y008848D03*
X004959Y008778D03*
X004969Y008778D03*
X005049Y008628D03*
X004769Y008588D03*
D56*
X004749Y008573D03*
X004999Y008503D03*
X005089Y008393D03*
X005239Y008573D03*
X005199Y008773D03*
X005089Y008743D03*
X005079Y008743D03*
X005069Y008743D03*
X004919Y008943D03*
X004899Y009153D03*
X004909Y009163D03*
X004969Y009383D03*
X004779Y009403D03*
X004799Y008273D03*
X004949Y007623D03*
X004959Y007623D03*
X004969Y007623D03*
D57*
X004759Y008008D03*
D58*
X004759Y008583D03*
X004919Y008853D03*
X004839Y009003D03*
X004909Y009053D03*
X004959Y009033D03*
X004809Y009123D03*
X005109Y008753D03*
D59*
X004759Y009043D03*
X004859Y008313D03*
X004869Y008313D03*
X005339Y008203D03*
X005339Y009503D03*
D60*
X004959Y009388D03*
X004769Y009388D03*
X004759Y009228D03*
X004849Y009088D03*
X004899Y009058D03*
X004969Y009038D03*
X004929Y008948D03*
X004929Y008858D03*
X004949Y008768D03*
X004979Y008778D03*
X005059Y008738D03*
X005099Y008748D03*
X004829Y009008D03*
D61*
X004759Y009658D03*
X005189Y008118D03*
X004839Y007938D03*
D62*
X004779Y007723D03*
X004789Y007713D03*
X004799Y007703D03*
X004809Y007693D03*
X004819Y007683D03*
X004829Y007673D03*
X004839Y007663D03*
X004859Y007653D03*
X004879Y007643D03*
X004909Y007633D03*
X004999Y007633D03*
X005029Y007643D03*
X005049Y007653D03*
X005069Y007663D03*
X005079Y007673D03*
X005089Y007683D03*
X005099Y007693D03*
X005109Y007703D03*
X005119Y007713D03*
X005129Y007723D03*
X005139Y007733D03*
X005149Y007743D03*
X005159Y007753D03*
X005029Y008453D03*
X004989Y008483D03*
X004979Y008473D03*
X005079Y008673D03*
X005089Y008673D03*
X005099Y008683D03*
X005129Y008703D03*
X004939Y008763D03*
X004949Y008863D03*
X004899Y008923D03*
X004879Y008913D03*
X004979Y009033D03*
X004939Y009183D03*
X004939Y009313D03*
X004979Y009383D03*
X004809Y009423D03*
X004799Y009413D03*
X004789Y009413D03*
X004769Y009233D03*
X004769Y008693D03*
X004779Y009983D03*
X004789Y009993D03*
X004799Y010003D03*
X004809Y010013D03*
X004819Y010023D03*
X004829Y010033D03*
X004839Y010043D03*
X004859Y010053D03*
X004879Y010063D03*
X004909Y010073D03*
X004999Y010073D03*
X005029Y010063D03*
X005049Y010053D03*
X005069Y010043D03*
X005079Y010033D03*
X005089Y010023D03*
X005099Y010013D03*
X005109Y010003D03*
X005119Y009993D03*
X005129Y009983D03*
X005139Y009973D03*
X005149Y009963D03*
X005159Y009953D03*
D63*
X005069Y009753D03*
X004789Y009703D03*
X004779Y009683D03*
X004769Y009673D03*
X005179Y008103D03*
X004859Y007933D03*
X004849Y007933D03*
D64*
X004779Y007983D03*
X005219Y008173D03*
X005269Y008333D03*
X005379Y009243D03*
D65*
X005099Y009748D03*
X005379Y008458D03*
X004789Y007968D03*
D66*
X004799Y007963D03*
X004809Y007953D03*
X004819Y007953D03*
X005209Y008153D03*
X004989Y008763D03*
D67*
X004989Y009208D03*
X004799Y009708D03*
X004809Y009718D03*
X004819Y009728D03*
X005059Y009758D03*
X004869Y007928D03*
D68*
X004829Y007948D03*
X005199Y008138D03*
X005089Y009748D03*
D69*
X004839Y009743D03*
X004829Y009733D03*
X005169Y008093D03*
X004879Y007933D03*
D70*
X004849Y008308D03*
X005229Y008558D03*
X005329Y008168D03*
X005329Y009538D03*
D71*
X004919Y009733D03*
X004899Y009723D03*
X004889Y009713D03*
X004879Y009713D03*
X004869Y009703D03*
X004859Y009703D03*
X005069Y008013D03*
D72*
X004889Y008323D03*
X004899Y008333D03*
X005159Y008813D03*
D73*
X005149Y008063D03*
X004899Y007923D03*
X005039Y009753D03*
D74*
X005029Y009758D03*
X004909Y007928D03*
D75*
X004919Y007928D03*
X005129Y008048D03*
X005009Y009758D03*
D76*
X004999Y009753D03*
X004929Y007933D03*
D77*
X004939Y007938D03*
X005119Y008038D03*
X005219Y009458D03*
D78*
X004989Y009753D03*
X004979Y009753D03*
X005109Y008033D03*
X004949Y007943D03*
D79*
X004959Y007948D03*
X005089Y008028D03*
X005099Y008028D03*
X004969Y009748D03*
X004959Y009748D03*
D80*
X005009Y008068D03*
X004979Y008058D03*
D81*
X004989Y008053D03*
D82*
X004999Y008058D03*
X005159Y009488D03*
D83*
X004999Y009003D03*
D84*
X005009Y009098D03*
X005019Y009098D03*
D85*
X005019Y008028D03*
D86*
X005139Y008053D03*
X005229Y009443D03*
X005019Y009753D03*
D87*
X005029Y008023D03*
D88*
X005029Y009093D03*
X005039Y009093D03*
X005049Y009103D03*
X005099Y009133D03*
D89*
X005189Y009478D03*
X005039Y008018D03*
D90*
X005049Y008018D03*
D91*
X005059Y008013D03*
D92*
X005109Y009353D03*
D93*
X005119Y009348D03*
X005129Y009328D03*
D94*
X005139Y009283D03*
D95*
X005149Y009473D03*
D96*
X005199Y008548D03*
X005169Y008518D03*
X005159Y008508D03*
D97*
X005179Y009483D03*
D98*
X005199Y009478D03*
X005419Y008848D03*
D99*
X005219Y008583D03*
X005209Y008563D03*
D100*
X005249Y008248D03*
X005239Y008218D03*
X005229Y008188D03*
D101*
X005249Y009208D03*
D102*
X005259Y009153D03*
D103*
X005269Y009093D03*
D104*
X005289Y008853D03*
D105*
X005299Y008848D03*
D106*
X005399Y008848D03*
D107*
X005409Y008853D03*
D108*
X010983Y005502D02*
X011953Y005502D01*
D109*
X006735Y010446D02*
X006558Y010446D01*
X006570Y010437D02*
X006726Y010437D01*
X006728Y010439D02*
X006704Y010422D01*
X006677Y010411D01*
X006648Y010408D01*
X006619Y010412D01*
X006592Y010423D01*
X006523Y010469D01*
X006462Y010527D01*
X006444Y010542D01*
X006423Y010552D01*
X006400Y010556D01*
X006377Y010554D01*
X006355Y010546D01*
X006336Y010533D01*
X006321Y010516D01*
X006309Y010493D01*
X006301Y010469D01*
X006297Y010445D01*
X006298Y010415D01*
X006307Y010388D01*
X006322Y010363D01*
X006336Y010349D01*
X006353Y010341D01*
X006371Y010337D01*
X006389Y010337D01*
X006406Y010341D01*
X006413Y010344D01*
X006418Y010350D01*
X006442Y010383D01*
X006445Y010389D01*
X006447Y010396D01*
X006446Y010403D01*
X006449Y010384D01*
X006452Y010347D01*
X006449Y010310D01*
X005838Y010310D01*
X005847Y010318D02*
X006450Y010318D01*
X006449Y010310D02*
X006442Y010282D01*
X006429Y010256D01*
X006412Y010234D01*
X006390Y010216D01*
X006361Y010200D01*
X006330Y010190D01*
X006297Y010188D01*
X005700Y010188D01*
X005916Y010380D01*
X005947Y010414D01*
X005971Y010454D01*
X006299Y010454D01*
X006297Y010446D02*
X005966Y010446D01*
X005971Y010454D02*
X005976Y010468D01*
X005979Y010484D01*
X005979Y010574D01*
X005984Y010627D01*
X005998Y010679D01*
X006022Y010728D01*
X006054Y010773D01*
X006092Y010814D01*
X006136Y010849D01*
X006202Y010886D01*
X006274Y010911D01*
X006349Y010922D01*
X006425Y010920D01*
X006466Y010911D01*
X006505Y010897D01*
X006542Y010878D01*
X006587Y010842D01*
X006623Y010798D01*
X006588Y010798D01*
X006582Y010797D01*
X006577Y010795D01*
X006563Y010783D01*
X006552Y010768D01*
X006549Y010760D01*
X006045Y010760D01*
X006039Y010752D02*
X006548Y010752D01*
X006549Y010760D02*
X006547Y010737D01*
X006551Y010715D01*
X006561Y010695D01*
X006587Y010659D01*
X006601Y010642D01*
X006618Y010628D01*
X006637Y010616D01*
X005983Y010616D01*
X005984Y010624D02*
X006623Y010624D01*
X006612Y010633D02*
X005985Y010633D01*
X005988Y010641D02*
X006602Y010641D01*
X006594Y010650D02*
X005990Y010650D01*
X005993Y010658D02*
X006587Y010658D01*
X006581Y010667D02*
X005995Y010667D01*
X005997Y010675D02*
X006575Y010675D01*
X006569Y010684D02*
X006001Y010684D01*
X006005Y010692D02*
X006563Y010692D01*
X006558Y010701D02*
X006009Y010701D01*
X006013Y010709D02*
X006553Y010709D01*
X006550Y010718D02*
X006017Y010718D01*
X006021Y010726D02*
X006549Y010726D01*
X006547Y010735D02*
X006027Y010735D01*
X006033Y010743D02*
X006547Y010743D01*
X006553Y010769D02*
X006051Y010769D01*
X006058Y010777D02*
X006559Y010777D01*
X006566Y010786D02*
X006066Y010786D01*
X006074Y010794D02*
X006577Y010794D01*
X006605Y010820D02*
X006100Y010820D01*
X006090Y010811D02*
X006612Y010811D01*
X006619Y010803D02*
X006082Y010803D01*
X006111Y010828D02*
X006598Y010828D01*
X006591Y010837D02*
X006121Y010837D01*
X006132Y010845D02*
X006582Y010845D01*
X006572Y010854D02*
X006145Y010854D01*
X006161Y010862D02*
X006561Y010862D01*
X006550Y010871D02*
X006176Y010871D01*
X006191Y010879D02*
X006539Y010879D01*
X006523Y010888D02*
X006208Y010888D01*
X006233Y010896D02*
X006507Y010896D01*
X006484Y010905D02*
X006257Y010905D01*
X006293Y010913D02*
X006456Y010913D01*
X006351Y010922D02*
X006349Y010922D01*
X006360Y010548D02*
X005979Y010548D01*
X005979Y010556D02*
X006799Y010556D01*
X006800Y010560D02*
X006791Y010527D01*
X006776Y010497D01*
X006494Y010497D01*
X006503Y010488D02*
X006770Y010488D01*
X006764Y010480D02*
X006512Y010480D01*
X006521Y010471D02*
X006758Y010471D01*
X006754Y010466D02*
X006728Y010439D01*
X006714Y010429D02*
X006583Y010429D01*
X006597Y010420D02*
X006701Y010420D01*
X006679Y010412D02*
X006618Y010412D01*
X006545Y010454D02*
X006743Y010454D01*
X006751Y010463D02*
X006532Y010463D01*
X006485Y010505D02*
X006780Y010505D01*
X006776Y010497D02*
X006754Y010466D01*
X006785Y010514D02*
X006475Y010514D01*
X006466Y010522D02*
X006789Y010522D01*
X006792Y010531D02*
X006457Y010531D01*
X006447Y010539D02*
X006795Y010539D01*
X006797Y010548D02*
X006431Y010548D01*
X006345Y010539D02*
X005979Y010539D01*
X005979Y010531D02*
X006334Y010531D01*
X006327Y010522D02*
X005979Y010522D01*
X005979Y010514D02*
X006320Y010514D01*
X006316Y010505D02*
X005979Y010505D01*
X005979Y010497D02*
X006311Y010497D01*
X006307Y010488D02*
X005979Y010488D01*
X005978Y010480D02*
X006304Y010480D01*
X006302Y010471D02*
X005977Y010471D01*
X005974Y010463D02*
X006300Y010463D01*
X006297Y010437D02*
X005961Y010437D01*
X005956Y010429D02*
X006298Y010429D01*
X006298Y010420D02*
X005951Y010420D01*
X005946Y010412D02*
X006300Y010412D01*
X006302Y010403D02*
X005938Y010403D01*
X005930Y010395D02*
X006305Y010395D01*
X006308Y010386D02*
X005922Y010386D01*
X005914Y010378D02*
X006313Y010378D01*
X006318Y010369D02*
X005905Y010369D01*
X005895Y010361D02*
X006324Y010361D01*
X006333Y010352D02*
X005885Y010352D01*
X005876Y010344D02*
X006347Y010344D01*
X006412Y010344D02*
X006452Y010344D01*
X006451Y010352D02*
X006420Y010352D01*
X006426Y010361D02*
X006451Y010361D01*
X006450Y010369D02*
X006432Y010369D01*
X006439Y010378D02*
X006449Y010378D01*
X006449Y010386D02*
X006444Y010386D01*
X006447Y010395D02*
X006447Y010395D01*
X006451Y010335D02*
X005866Y010335D01*
X005857Y010327D02*
X006450Y010327D01*
X006447Y010301D02*
X005828Y010301D01*
X005818Y010293D02*
X006445Y010293D01*
X006442Y010284D02*
X005809Y010284D01*
X005799Y010276D02*
X006439Y010276D01*
X006435Y010267D02*
X005790Y010267D01*
X005780Y010259D02*
X006430Y010259D01*
X006424Y010250D02*
X005771Y010250D01*
X005761Y010242D02*
X006418Y010242D01*
X006411Y010233D02*
X005752Y010233D01*
X005742Y010225D02*
X006401Y010225D01*
X006391Y010216D02*
X005732Y010216D01*
X005723Y010208D02*
X006376Y010208D01*
X006360Y010199D02*
X005713Y010199D01*
X005704Y010191D02*
X006332Y010191D01*
X005979Y010565D02*
X006801Y010565D01*
X006800Y010560D02*
X006803Y010595D01*
X006800Y010630D01*
X006791Y010665D01*
X006787Y010674D01*
X006781Y010688D01*
X006772Y010707D01*
X006759Y010725D01*
X006758Y010726D01*
X006758Y010726D01*
X006758Y010702D01*
X006756Y010681D01*
X006750Y010661D01*
X006739Y010641D01*
X006724Y010624D01*
X006705Y010612D01*
X006683Y010606D01*
X006670Y010605D01*
X006657Y010608D01*
X006637Y010616D01*
X006658Y010607D02*
X005982Y010607D01*
X005981Y010599D02*
X006803Y010599D01*
X006802Y010607D02*
X006689Y010607D01*
X006711Y010616D02*
X006801Y010616D01*
X006800Y010624D02*
X006724Y010624D01*
X006732Y010633D02*
X006799Y010633D01*
X006797Y010641D02*
X006740Y010641D01*
X006744Y010650D02*
X006795Y010650D01*
X006793Y010658D02*
X006749Y010658D01*
X006752Y010667D02*
X006790Y010667D01*
X006786Y010675D02*
X006754Y010675D01*
X006756Y010684D02*
X006783Y010684D01*
X006779Y010692D02*
X006757Y010692D01*
X006758Y010701D02*
X006775Y010701D01*
X006771Y010709D02*
X006758Y010709D01*
X006758Y010718D02*
X006764Y010718D01*
X006803Y010590D02*
X005981Y010590D01*
X005980Y010582D02*
X006802Y010582D01*
X006801Y010573D02*
X005979Y010573D01*
D110*
X006047Y009904D02*
X006191Y009904D01*
X006210Y009713D01*
X006274Y009693D01*
X006334Y009662D01*
X006483Y009783D01*
X006584Y009681D01*
X006463Y009533D01*
X006494Y009473D01*
X006515Y009409D01*
X006705Y009389D01*
X006705Y009246D01*
X006515Y009226D01*
X006494Y009162D01*
X006463Y009102D01*
X006584Y008954D01*
X006483Y008852D01*
X006334Y008973D01*
X006274Y008942D01*
X006210Y008922D01*
X006191Y008731D01*
X006047Y008731D01*
X006028Y008922D01*
X005964Y008942D01*
X005904Y008973D01*
X005755Y008852D01*
X005654Y008954D01*
X005775Y009102D01*
X005744Y009162D01*
X005949Y009247D01*
X005970Y009209D01*
X005999Y009177D01*
X006035Y009153D01*
X006076Y009138D01*
X006119Y009133D01*
X006163Y009138D01*
X006204Y009154D01*
X006241Y009179D01*
X006270Y009212D01*
X006291Y009251D01*
X006302Y009293D01*
X006302Y009338D01*
X006292Y009381D01*
X006272Y009420D01*
X006244Y009454D01*
X006208Y009479D01*
X006167Y009496D01*
X006123Y009502D01*
X006079Y009498D01*
X006037Y009483D01*
X006000Y009459D01*
X005970Y009427D01*
X005949Y009388D01*
X005744Y009473D01*
X005775Y009533D01*
X005654Y009681D01*
X005755Y009783D01*
X005904Y009662D01*
X005964Y009693D01*
X006028Y009713D01*
X006047Y009904D01*
X006045Y009883D02*
X006193Y009883D01*
X006199Y009826D02*
X006039Y009826D01*
X006033Y009768D02*
X006205Y009768D01*
X006218Y009711D02*
X006020Y009711D01*
X005844Y009711D02*
X005683Y009711D01*
X005676Y009653D02*
X006562Y009653D01*
X006555Y009711D02*
X006394Y009711D01*
X006465Y009768D02*
X006497Y009768D01*
X006515Y009596D02*
X005723Y009596D01*
X005770Y009538D02*
X006468Y009538D01*
X006490Y009481D02*
X006204Y009481D01*
X006270Y009423D02*
X006510Y009423D01*
X006705Y009365D02*
X006296Y009365D01*
X006302Y009308D02*
X006705Y009308D01*
X006705Y009250D02*
X006291Y009250D01*
X006253Y009193D02*
X006504Y009193D01*
X006480Y009135D02*
X006138Y009135D01*
X006099Y009135D02*
X005758Y009135D01*
X005755Y009078D02*
X006483Y009078D01*
X006530Y009020D02*
X005708Y009020D01*
X005661Y008963D02*
X005891Y008963D01*
X005924Y008963D02*
X006314Y008963D01*
X006347Y008963D02*
X006577Y008963D01*
X006535Y008905D02*
X006418Y008905D01*
X006209Y008905D02*
X006029Y008905D01*
X006035Y008847D02*
X006203Y008847D01*
X006197Y008790D02*
X006041Y008790D01*
X006047Y008732D02*
X006191Y008732D01*
X005820Y008905D02*
X005703Y008905D01*
X005818Y009193D02*
X005985Y009193D01*
X005968Y009423D02*
X005864Y009423D01*
X005748Y009481D02*
X006034Y009481D01*
X005773Y009768D02*
X005741Y009768D01*
D111*
X009042Y009507D02*
X009042Y008129D01*
X009357Y008523D02*
X009830Y008523D01*
X009357Y008523D02*
X009357Y009507D01*
X009042Y009507D01*
X011404Y008523D02*
X011877Y008523D01*
X011877Y009507D01*
X012192Y009507D01*
X012192Y008129D01*
X011404Y006554D02*
X009830Y006554D01*
X008771Y005812D02*
X008771Y005497D01*
X007786Y005497D01*
X007786Y005025D01*
X007393Y005812D02*
X008771Y005812D01*
X007786Y003450D02*
X007786Y002978D01*
X008771Y002978D01*
X008771Y002663D01*
X007393Y002663D01*
X005818Y003450D02*
X005818Y005025D01*
M02*
