G75*
G70*
%OFA0B0*%
%FSLAX24Y24*%
%IPPOS*%
%LPD*%
%AMOC8*
5,1,8,0,0,1.08239X$1,22.5*
%
%ADD10C,0.0100*%
%ADD11C,0.0740*%
%ADD12R,0.0800X0.0260*%
%ADD13R,0.0354X0.0276*%
%ADD14R,0.0512X0.0315*%
%ADD15C,0.0240*%
%ADD16C,0.0160*%
%ADD17C,0.0396*%
%ADD18C,0.0120*%
D10*
X000150Y006665D02*
X000158Y006984D01*
X000181Y007302D01*
X000220Y007618D01*
X000275Y007932D01*
X000345Y008243D01*
X000430Y008551D01*
X000530Y008853D01*
X000644Y009151D01*
X000774Y009442D01*
X000917Y009727D01*
X001074Y010005D01*
X001245Y010274D01*
X001428Y010535D01*
X001625Y010786D01*
X001833Y011027D01*
X002053Y011258D01*
X002284Y011478D01*
X002525Y011686D01*
X002776Y011883D01*
X003037Y012066D01*
X003306Y012237D01*
X003584Y012394D01*
X003869Y012537D01*
X004160Y012667D01*
X004458Y012781D01*
X004760Y012881D01*
X005068Y012966D01*
X005379Y013036D01*
X005693Y013091D01*
X006009Y013130D01*
X006327Y013153D01*
X006646Y013161D01*
X006965Y013153D01*
X007283Y013130D01*
X007599Y013091D01*
X007913Y013036D01*
X008224Y012966D01*
X008532Y012881D01*
X008834Y012781D01*
X009132Y012667D01*
X009423Y012537D01*
X009708Y012394D01*
X009986Y012237D01*
X010255Y012066D01*
X010516Y011883D01*
X010767Y011686D01*
X011008Y011478D01*
X011239Y011258D01*
X011459Y011027D01*
X011667Y010786D01*
X011864Y010535D01*
X012047Y010274D01*
X012218Y010005D01*
X012375Y009727D01*
X012518Y009442D01*
X012648Y009151D01*
X012762Y008853D01*
X012862Y008551D01*
X012947Y008243D01*
X013017Y007932D01*
X013072Y007618D01*
X013111Y007302D01*
X013134Y006984D01*
X013142Y006665D01*
X013134Y006346D01*
X013111Y006028D01*
X013072Y005712D01*
X013017Y005398D01*
X012947Y005087D01*
X012862Y004779D01*
X012762Y004477D01*
X012648Y004179D01*
X012518Y003888D01*
X012375Y003603D01*
X012218Y003325D01*
X012047Y003056D01*
X011864Y002795D01*
X011667Y002544D01*
X011459Y002303D01*
X011239Y002072D01*
X011008Y001852D01*
X010767Y001644D01*
X010516Y001447D01*
X010255Y001264D01*
X009986Y001093D01*
X009708Y000936D01*
X009423Y000793D01*
X009132Y000663D01*
X008834Y000549D01*
X008532Y000449D01*
X008224Y000364D01*
X007913Y000294D01*
X007599Y000239D01*
X007283Y000200D01*
X006965Y000177D01*
X006646Y000169D01*
X006327Y000177D01*
X006009Y000200D01*
X005693Y000239D01*
X005379Y000294D01*
X005068Y000364D01*
X004760Y000449D01*
X004458Y000549D01*
X004160Y000663D01*
X003869Y000793D01*
X003584Y000936D01*
X003306Y001093D01*
X003037Y001264D01*
X002776Y001447D01*
X002525Y001644D01*
X002284Y001852D01*
X002053Y002072D01*
X001833Y002303D01*
X001625Y002544D01*
X001428Y002795D01*
X001245Y003056D01*
X001074Y003325D01*
X000917Y003603D01*
X000774Y003888D01*
X000644Y004179D01*
X000530Y004477D01*
X000430Y004779D01*
X000345Y005087D01*
X000275Y005398D01*
X000220Y005712D01*
X000181Y006028D01*
X000158Y006346D01*
X000150Y006665D01*
X008221Y007215D02*
X008271Y007265D01*
X008221Y007715D02*
X008271Y007765D01*
X008221Y008215D02*
X008271Y008265D01*
X009471Y008215D02*
X009571Y008265D01*
X009571Y007765D02*
X009471Y007715D01*
X009571Y007265D02*
X009471Y007215D01*
X009571Y006765D02*
X009471Y006715D01*
D11*
X008646Y010665D03*
X007646Y010665D03*
X006646Y010665D03*
X005646Y010665D03*
X004646Y010665D03*
X002146Y009165D03*
X002146Y008165D03*
X002146Y007165D03*
X002146Y006165D03*
X002146Y005165D03*
X002146Y004165D03*
X004646Y002665D03*
X005646Y002665D03*
X006646Y002665D03*
X007646Y002665D03*
X008646Y002665D03*
D12*
X006856Y004915D03*
X006856Y005415D03*
X006856Y005915D03*
X006856Y006415D03*
X006856Y006915D03*
X006856Y007415D03*
X006856Y007915D03*
X006856Y008415D03*
X004436Y008415D03*
X004436Y007915D03*
X004436Y007415D03*
X004436Y006915D03*
X004436Y006415D03*
X004436Y005915D03*
X004436Y005415D03*
X004436Y004915D03*
D13*
X001146Y006409D03*
X001146Y006921D03*
D14*
X008221Y006715D03*
X008221Y007215D03*
X008221Y007715D03*
X008221Y008215D03*
X009471Y008215D03*
X009471Y007715D03*
X009471Y007215D03*
X009471Y006715D03*
X009471Y005915D03*
X009471Y005415D03*
X009471Y004915D03*
X009471Y004415D03*
X008221Y004415D03*
X008221Y004915D03*
X008221Y005415D03*
X008221Y005915D03*
D15*
X002826Y001941D02*
X002388Y002337D01*
X001992Y002775D01*
X001641Y003249D01*
X001339Y003756D01*
X001089Y004291D01*
X000893Y004847D01*
X000753Y005421D01*
X000670Y006005D01*
X000646Y006595D01*
X000667Y007189D01*
X000746Y007778D01*
X000882Y008356D01*
X001074Y008918D01*
X001321Y009459D01*
X001619Y009973D01*
X001967Y010455D01*
X002359Y010901D01*
X002794Y011306D01*
X003266Y011667D01*
X003772Y011980D01*
X004305Y012241D01*
X004862Y012449D01*
X005436Y012602D01*
X006023Y012697D01*
X006616Y012735D01*
X006756Y012715D01*
X007337Y012682D01*
X007912Y012593D01*
X008476Y012448D01*
X009022Y012248D01*
X009547Y011996D01*
X010044Y011693D01*
X010509Y011343D01*
X010937Y010950D01*
X011325Y010516D01*
X011669Y010046D01*
X011965Y009545D01*
X012210Y009017D01*
X012402Y008468D01*
X012540Y007902D01*
X012621Y007326D01*
X012646Y006745D01*
X012624Y006149D01*
X012544Y005558D01*
X012406Y004978D01*
X012212Y004414D01*
X011964Y003872D01*
X011664Y003357D01*
X011315Y002874D01*
X010920Y002427D01*
X010483Y002021D01*
X010009Y001660D01*
X009501Y001347D01*
X008965Y001086D01*
X008406Y000878D01*
X007830Y000726D01*
X007241Y000631D01*
X006646Y000595D01*
X006056Y000619D01*
X005472Y000701D01*
X004899Y000841D01*
X004342Y001038D01*
X003808Y001288D01*
X003300Y001590D01*
X002826Y001941D01*
X002706Y002050D02*
X004432Y002050D01*
X004517Y002015D02*
X004278Y002114D01*
X004095Y002296D01*
X003996Y002535D01*
X003996Y002794D01*
X004095Y003033D01*
X004278Y003216D01*
X004306Y003227D01*
X004306Y003782D01*
X004358Y003907D01*
X004508Y004057D01*
X004575Y004125D01*
X003928Y004125D01*
X003803Y004176D01*
X003708Y004272D01*
X003496Y004484D01*
X002889Y003876D01*
X002764Y003825D01*
X002709Y003825D01*
X002697Y003796D01*
X002514Y003614D01*
X002275Y003515D01*
X002017Y003515D01*
X001778Y003614D01*
X001595Y003796D01*
X001496Y004035D01*
X001496Y004294D01*
X001595Y004533D01*
X001727Y004665D01*
X001595Y004796D01*
X001583Y004825D01*
X001578Y004825D01*
X001453Y004876D01*
X000953Y005376D01*
X000953Y005376D01*
X000858Y005472D01*
X000806Y005597D01*
X000806Y006038D01*
X000732Y006112D01*
X000689Y006215D01*
X000689Y006602D01*
X000732Y006705D01*
X000756Y006729D01*
X000749Y006754D01*
X000749Y006921D01*
X001146Y006921D01*
X001146Y007278D01*
X000940Y007278D01*
X000884Y007263D01*
X000834Y007234D01*
X000793Y007193D01*
X000764Y007143D01*
X000749Y007087D01*
X000749Y006921D01*
X001146Y006921D01*
X001146Y006921D01*
X001146Y007278D01*
X001352Y007278D01*
X001408Y007263D01*
X001458Y007234D01*
X001496Y007197D01*
X001496Y007294D01*
X001595Y007533D01*
X001770Y007708D01*
X001762Y007715D01*
X001696Y007780D01*
X001641Y007855D01*
X001599Y007938D01*
X001571Y008027D01*
X001556Y008118D01*
X001556Y008165D01*
X002146Y008165D01*
X002146Y008165D01*
X002736Y008165D01*
X002736Y008211D01*
X002722Y008303D01*
X002693Y008391D01*
X002651Y008474D01*
X002596Y008549D01*
X002530Y008615D01*
X002522Y008621D01*
X002697Y008796D01*
X002796Y009035D01*
X002796Y009294D01*
X002697Y009533D01*
X002546Y009684D01*
X002546Y009699D01*
X003812Y010965D01*
X004067Y010965D01*
X003996Y010794D01*
X003996Y010535D01*
X004095Y010296D01*
X004278Y010114D01*
X004306Y010102D01*
X004306Y009747D01*
X004358Y009622D01*
X004453Y009526D01*
X005053Y008926D01*
X005178Y008875D01*
X009655Y008875D01*
X009706Y008824D01*
X009706Y008656D01*
X009703Y008652D01*
X009159Y008652D01*
X009057Y008610D01*
X008978Y008531D01*
X008935Y008428D01*
X008935Y008002D01*
X008950Y007965D01*
X008935Y007928D01*
X008935Y007502D01*
X008950Y007465D01*
X008935Y007428D01*
X008935Y007002D01*
X008950Y006965D01*
X008935Y006928D01*
X008935Y006502D01*
X008978Y006399D01*
X009057Y006320D01*
X009069Y006315D01*
X009057Y006310D01*
X008978Y006231D01*
X008935Y006128D01*
X008935Y005702D01*
X008950Y005665D01*
X008935Y005628D01*
X008935Y005202D01*
X008950Y005165D01*
X008935Y005128D01*
X008935Y004702D01*
X008950Y004665D01*
X008935Y004628D01*
X008935Y004205D01*
X008757Y004205D01*
X008757Y004628D01*
X008742Y004665D01*
X008757Y004702D01*
X008757Y005128D01*
X008742Y005165D01*
X008757Y005202D01*
X008757Y005628D01*
X008742Y005665D01*
X008757Y005702D01*
X008757Y006128D01*
X008714Y006231D01*
X008636Y006310D01*
X008623Y006315D01*
X008636Y006320D01*
X008714Y006399D01*
X008757Y006502D01*
X008757Y006928D01*
X008742Y006965D01*
X008757Y007002D01*
X008757Y007428D01*
X008742Y007465D01*
X008757Y007502D01*
X008757Y007928D01*
X008742Y007965D01*
X008757Y008002D01*
X008757Y008428D01*
X008714Y008531D01*
X008636Y008610D01*
X008533Y008652D01*
X007909Y008652D01*
X007807Y008610D01*
X007802Y008605D01*
X007678Y008605D01*
X007553Y008553D01*
X007476Y008476D01*
X007476Y008574D01*
X007461Y008630D01*
X007432Y008680D01*
X007391Y008721D01*
X007341Y008750D01*
X007285Y008765D01*
X006856Y008765D01*
X006427Y008765D01*
X006371Y008750D01*
X006321Y008721D01*
X006280Y008680D01*
X006251Y008630D01*
X006236Y008574D01*
X006236Y008415D01*
X006856Y008415D01*
X006856Y008765D01*
X006856Y008415D01*
X006856Y008415D01*
X006856Y008415D01*
X006236Y008415D01*
X006236Y008256D01*
X006243Y008228D01*
X006219Y008203D01*
X006176Y008100D01*
X006176Y007729D01*
X006203Y007665D01*
X006176Y007600D01*
X006176Y007229D01*
X006203Y007165D01*
X006176Y007100D01*
X006176Y006729D01*
X006203Y006665D01*
X006176Y006600D01*
X006176Y006229D01*
X006203Y006165D01*
X006176Y006100D01*
X006176Y005729D01*
X006203Y005665D01*
X006176Y005600D01*
X006176Y005229D01*
X006203Y005165D01*
X006176Y005100D01*
X006176Y004805D01*
X005395Y004805D01*
X005650Y005059D01*
X005751Y005161D01*
X005806Y005293D01*
X005806Y007636D01*
X005751Y007769D01*
X005401Y008119D01*
X005300Y008220D01*
X005168Y008275D01*
X005116Y008275D01*
X005116Y008600D01*
X005073Y008703D01*
X004995Y008782D01*
X004892Y008825D01*
X003980Y008825D01*
X003877Y008782D01*
X003799Y008703D01*
X003756Y008600D01*
X003756Y008229D01*
X003758Y008225D01*
X003274Y008225D01*
X003142Y008170D01*
X003041Y008069D01*
X002601Y007629D01*
X002522Y007708D01*
X002530Y007715D01*
X002596Y007780D01*
X002651Y007855D01*
X002693Y007938D01*
X002722Y008027D01*
X002736Y008118D01*
X002736Y008165D01*
X002146Y008165D01*
X002146Y008165D01*
X001556Y008165D01*
X001556Y008211D01*
X001571Y008303D01*
X001599Y008391D01*
X001641Y008474D01*
X001696Y008549D01*
X001762Y008615D01*
X001770Y008621D01*
X001595Y008796D01*
X001496Y009035D01*
X001496Y009294D01*
X001595Y009533D01*
X001746Y009684D01*
X001746Y009944D01*
X001807Y010091D01*
X003307Y011591D01*
X003419Y011704D01*
X003566Y011765D01*
X006026Y011765D01*
X006173Y011704D01*
X006285Y011591D01*
X006285Y011591D01*
X006562Y011315D01*
X006775Y011315D01*
X007014Y011216D01*
X007146Y011084D01*
X007278Y011216D01*
X007517Y011315D01*
X007775Y011315D01*
X008014Y011216D01*
X008146Y011084D01*
X008278Y011216D01*
X008517Y011315D01*
X008775Y011315D01*
X009014Y011216D01*
X009197Y011033D01*
X009296Y010794D01*
X009296Y010535D01*
X009283Y010505D01*
X010764Y010505D01*
X010889Y010453D01*
X011139Y010203D01*
X011139Y010203D01*
X011234Y010107D01*
X011286Y009982D01*
X011286Y006947D01*
X011234Y006822D01*
X010984Y006572D01*
X010889Y006476D01*
X010764Y006425D01*
X009975Y006425D01*
X009964Y006399D01*
X009886Y006320D01*
X009873Y006315D01*
X009886Y006310D01*
X009940Y006255D01*
X010664Y006255D01*
X010789Y006203D01*
X011039Y005953D01*
X011134Y005857D01*
X011186Y005732D01*
X011186Y002847D01*
X011134Y002722D01*
X010884Y002472D01*
X010789Y002376D01*
X010664Y002325D01*
X009209Y002325D01*
X009197Y002296D01*
X009014Y002114D01*
X008775Y002015D01*
X008517Y002015D01*
X008278Y002114D01*
X008146Y002245D01*
X008014Y002114D01*
X007775Y002015D01*
X007517Y002015D01*
X007278Y002114D01*
X007146Y002245D01*
X007014Y002114D01*
X006775Y002015D01*
X006517Y002015D01*
X006278Y002114D01*
X006146Y002245D01*
X006014Y002114D01*
X005775Y002015D01*
X005517Y002015D01*
X005278Y002114D01*
X005146Y002245D01*
X005014Y002114D01*
X004775Y002015D01*
X004517Y002015D01*
X004860Y002050D02*
X005432Y002050D01*
X005860Y002050D02*
X006432Y002050D01*
X006860Y002050D02*
X007432Y002050D01*
X007860Y002050D02*
X008432Y002050D01*
X008860Y002050D02*
X010514Y002050D01*
X010770Y002288D02*
X009189Y002288D01*
X009867Y001573D02*
X003330Y001573D01*
X003001Y001811D02*
X010207Y001811D01*
X009474Y001334D02*
X003730Y001334D01*
X004218Y001096D02*
X008985Y001096D01*
X008327Y000857D02*
X004854Y000857D01*
X006062Y000619D02*
X007036Y000619D01*
X004103Y002288D02*
X002442Y002288D01*
X002217Y002527D02*
X004000Y002527D01*
X003996Y002765D02*
X002001Y002765D01*
X001823Y003004D02*
X004083Y003004D01*
X004306Y003242D02*
X001647Y003242D01*
X001503Y003481D02*
X004306Y003481D01*
X004306Y003719D02*
X002620Y003719D01*
X002970Y003958D02*
X004408Y003958D01*
X003784Y004196D02*
X003208Y004196D01*
X003447Y004435D02*
X003545Y004435D01*
X001718Y004673D02*
X000954Y004673D01*
X000877Y004912D02*
X001418Y004912D01*
X001180Y005150D02*
X000819Y005150D01*
X000761Y005389D02*
X000941Y005389D01*
X000806Y005627D02*
X000724Y005627D01*
X000690Y005866D02*
X000806Y005866D01*
X000740Y006104D02*
X000666Y006104D01*
X000656Y006343D02*
X000689Y006343D01*
X000689Y006581D02*
X000647Y006581D01*
X000654Y006820D02*
X000749Y006820D01*
X000749Y007058D02*
X000662Y007058D01*
X000681Y007297D02*
X001497Y007297D01*
X001597Y007535D02*
X000713Y007535D01*
X000745Y007774D02*
X001703Y007774D01*
X001575Y008012D02*
X000801Y008012D01*
X000857Y008251D02*
X001562Y008251D01*
X001653Y008489D02*
X000928Y008489D01*
X001009Y008728D02*
X001664Y008728D01*
X001525Y008966D02*
X001096Y008966D01*
X001205Y009205D02*
X001496Y009205D01*
X001558Y009443D02*
X001314Y009443D01*
X001450Y009682D02*
X001744Y009682D01*
X001746Y009920D02*
X001589Y009920D01*
X001753Y010159D02*
X001874Y010159D01*
X001925Y010397D02*
X002113Y010397D01*
X002126Y010636D02*
X002351Y010636D01*
X002336Y010874D02*
X002590Y010874D01*
X002586Y011113D02*
X002828Y011113D01*
X002853Y011351D02*
X003067Y011351D01*
X003165Y011590D02*
X003305Y011590D01*
X003527Y011828D02*
X009822Y011828D01*
X010181Y011590D02*
X006287Y011590D01*
X006525Y011351D02*
X010498Y011351D01*
X010760Y011113D02*
X009117Y011113D01*
X009263Y010874D02*
X011005Y010874D01*
X011218Y010636D02*
X009296Y010636D01*
X008175Y011113D02*
X008117Y011113D01*
X007175Y011113D02*
X007117Y011113D01*
X006646Y010665D02*
X005946Y011365D01*
X003646Y011365D01*
X002146Y009865D01*
X002146Y009165D01*
X002734Y009443D02*
X004537Y009443D01*
X004775Y009205D02*
X002796Y009205D01*
X002767Y008966D02*
X005014Y008966D01*
X005049Y008728D02*
X006333Y008728D01*
X006236Y008489D02*
X005116Y008489D01*
X005226Y008251D02*
X006237Y008251D01*
X006176Y008012D02*
X005508Y008012D01*
X005401Y008119D02*
X005401Y008119D01*
X005746Y007774D02*
X006176Y007774D01*
X006176Y007535D02*
X005806Y007535D01*
X005806Y007297D02*
X006176Y007297D01*
X006176Y007058D02*
X005806Y007058D01*
X005806Y006820D02*
X006176Y006820D01*
X006176Y006581D02*
X005806Y006581D01*
X005806Y006343D02*
X006176Y006343D01*
X006178Y006104D02*
X005806Y006104D01*
X005806Y005866D02*
X006176Y005866D01*
X006187Y005627D02*
X005806Y005627D01*
X005806Y005389D02*
X006176Y005389D01*
X006197Y005150D02*
X005741Y005150D01*
X005650Y005059D02*
X005650Y005059D01*
X005502Y004912D02*
X006176Y004912D01*
X005086Y006173D02*
X005073Y006203D01*
X005049Y006228D01*
X005056Y006256D01*
X005056Y006415D01*
X005056Y006574D01*
X005049Y006601D01*
X005073Y006626D01*
X005086Y006657D01*
X005086Y006173D01*
X005086Y006343D02*
X005056Y006343D01*
X005056Y006415D02*
X004436Y006415D01*
X004436Y006415D01*
X003816Y006415D01*
X003816Y006525D01*
X003587Y006525D01*
X003386Y006324D01*
X003386Y006136D01*
X003453Y006203D01*
X003578Y006255D01*
X003816Y006255D01*
X003816Y006256D01*
X003816Y006415D01*
X004436Y006415D01*
X005056Y006415D01*
X005054Y006581D02*
X005086Y006581D01*
X004436Y006415D02*
X004436Y006415D01*
X003816Y006343D02*
X003405Y006343D01*
X001727Y006665D02*
X001603Y006541D01*
X001603Y006602D01*
X001561Y006705D01*
X001537Y006729D01*
X001543Y006754D01*
X001543Y006921D01*
X001146Y006921D01*
X001146Y006921D01*
X001146Y006921D01*
X001543Y006921D01*
X001543Y006922D01*
X001595Y006796D01*
X001727Y006665D01*
X001643Y006581D02*
X001603Y006581D01*
X001585Y006820D02*
X001543Y006820D01*
X001146Y007058D02*
X001146Y007058D01*
X002589Y007774D02*
X002746Y007774D01*
X002717Y008012D02*
X002984Y008012D01*
X002730Y008251D02*
X003756Y008251D01*
X003756Y008489D02*
X002640Y008489D01*
X002628Y008728D02*
X003823Y008728D01*
X004333Y009682D02*
X002548Y009682D01*
X002767Y009920D02*
X004306Y009920D01*
X004233Y010159D02*
X003006Y010159D01*
X003244Y010397D02*
X004053Y010397D01*
X003996Y010636D02*
X003483Y010636D01*
X003721Y010874D02*
X004029Y010874D01*
X003949Y012067D02*
X009399Y012067D01*
X008866Y012305D02*
X004477Y012305D01*
X005218Y012544D02*
X008103Y012544D01*
X010944Y010397D02*
X011412Y010397D01*
X011586Y010159D02*
X011183Y010159D01*
X011286Y009920D02*
X011743Y009920D01*
X011884Y009682D02*
X011286Y009682D01*
X011286Y009443D02*
X012012Y009443D01*
X012123Y009205D02*
X011286Y009205D01*
X011286Y008966D02*
X012228Y008966D01*
X012311Y008728D02*
X011286Y008728D01*
X011286Y008489D02*
X012395Y008489D01*
X012455Y008251D02*
X011286Y008251D01*
X011286Y008012D02*
X012513Y008012D01*
X012558Y007774D02*
X011286Y007774D01*
X011286Y007535D02*
X012592Y007535D01*
X012623Y007297D02*
X011286Y007297D01*
X011286Y007058D02*
X012633Y007058D01*
X012643Y006820D02*
X011232Y006820D01*
X010993Y006581D02*
X012640Y006581D01*
X012631Y006343D02*
X009908Y006343D01*
X009034Y006343D02*
X008658Y006343D01*
X008757Y006581D02*
X008935Y006581D01*
X008935Y006820D02*
X008757Y006820D01*
X008757Y007058D02*
X008935Y007058D01*
X008935Y007297D02*
X008757Y007297D01*
X008757Y007535D02*
X008935Y007535D01*
X008935Y007774D02*
X008757Y007774D01*
X008757Y008012D02*
X008935Y008012D01*
X008935Y008251D02*
X008757Y008251D01*
X008732Y008489D02*
X008961Y008489D01*
X009706Y008728D02*
X007379Y008728D01*
X007476Y008489D02*
X007490Y008489D01*
X006856Y008489D02*
X006856Y008489D01*
X006856Y008728D02*
X006856Y008728D01*
X008757Y006104D02*
X008935Y006104D01*
X008935Y005866D02*
X008757Y005866D01*
X008757Y005627D02*
X008935Y005627D01*
X008935Y005389D02*
X008757Y005389D01*
X008748Y005150D02*
X008944Y005150D01*
X008935Y004912D02*
X008757Y004912D01*
X008745Y004673D02*
X008947Y004673D01*
X008935Y004435D02*
X008757Y004435D01*
X010887Y006104D02*
X012618Y006104D01*
X012586Y005866D02*
X011126Y005866D01*
X011186Y005627D02*
X012553Y005627D01*
X012504Y005389D02*
X011186Y005389D01*
X011186Y005150D02*
X012447Y005150D01*
X012383Y004912D02*
X011186Y004912D01*
X011186Y004673D02*
X012301Y004673D01*
X012219Y004435D02*
X011186Y004435D01*
X011186Y004196D02*
X012113Y004196D01*
X012003Y003958D02*
X011186Y003958D01*
X011186Y003719D02*
X011875Y003719D01*
X011736Y003481D02*
X011186Y003481D01*
X011186Y003242D02*
X011581Y003242D01*
X011409Y003004D02*
X011186Y003004D01*
X011152Y002765D02*
X011219Y002765D01*
X011008Y002527D02*
X010939Y002527D01*
X001672Y003719D02*
X001361Y003719D01*
X001245Y003958D02*
X001528Y003958D01*
X001496Y004196D02*
X001133Y004196D01*
X001038Y004435D02*
X001554Y004435D01*
D16*
X002146Y006165D02*
X002446Y006165D01*
X002646Y007165D02*
X002146Y007165D01*
X002646Y007165D02*
X003346Y007865D01*
X004386Y007865D01*
X004436Y007915D01*
X005096Y007915D01*
X005446Y007565D01*
X005446Y005365D01*
X004996Y004915D01*
X004436Y004915D01*
X004436Y006415D02*
X003636Y006415D01*
X004386Y006865D02*
X004436Y006915D01*
X004436Y007415D02*
X004386Y007465D01*
X008221Y006715D02*
X008271Y006765D01*
D17*
X003636Y006415D03*
D18*
X003446Y006865D02*
X004386Y006865D01*
X004386Y007465D02*
X003546Y007465D01*
X002646Y006565D01*
X002646Y006365D01*
X002446Y006165D01*
X003046Y006465D02*
X003446Y006865D01*
X003046Y006465D02*
X003046Y005415D01*
X002796Y005165D01*
X002146Y005165D01*
X001646Y005165D01*
X001146Y005665D01*
X001146Y006409D01*
X003396Y005665D02*
X003396Y004865D01*
X002696Y004165D01*
X002146Y004165D01*
X003746Y004715D02*
X003996Y004465D01*
X008271Y004465D01*
X008221Y004415D01*
X008221Y004915D02*
X006856Y004915D01*
X006856Y005415D02*
X008221Y005415D01*
X008221Y005915D02*
X008271Y005965D01*
X008221Y005915D02*
X006856Y005915D01*
X006856Y006415D02*
X007396Y006415D01*
X007746Y006765D01*
X008271Y006765D01*
X008271Y007265D02*
X007746Y007265D01*
X007396Y006915D01*
X006856Y006915D01*
X006856Y007415D02*
X007396Y007415D01*
X007746Y007765D01*
X008271Y007765D01*
X008271Y008265D02*
X007746Y008265D01*
X007396Y007915D01*
X006856Y007915D01*
X005246Y009215D02*
X004646Y009815D01*
X004646Y010665D01*
X005646Y010665D02*
X005646Y009915D01*
X006046Y009515D01*
X010096Y009515D01*
X010346Y009265D01*
X010346Y008015D01*
X010096Y007765D01*
X009571Y007765D01*
X009571Y008265D02*
X009796Y008265D01*
X010046Y008515D01*
X010046Y008965D01*
X009796Y009215D01*
X005246Y009215D01*
X007646Y010065D02*
X007646Y010665D01*
X007646Y010065D02*
X007896Y009815D01*
X010396Y009815D01*
X010646Y009565D01*
X010646Y007515D01*
X010396Y007265D01*
X009571Y007265D01*
X009571Y006765D02*
X010696Y006765D01*
X010946Y007015D01*
X010946Y009915D01*
X010696Y010165D01*
X008896Y010165D01*
X008646Y010415D01*
X008646Y010665D01*
X009471Y005915D02*
X010596Y005915D01*
X010846Y005665D01*
X010846Y002915D01*
X010596Y002665D01*
X008646Y002665D01*
X007796Y003265D02*
X010296Y003265D01*
X010546Y003515D01*
X010546Y005115D01*
X010296Y005365D01*
X009471Y005365D01*
X009471Y005415D01*
X009471Y004915D02*
X009571Y004865D01*
X009996Y004865D01*
X010246Y004615D01*
X010246Y003815D01*
X009996Y003565D01*
X005796Y003565D01*
X005646Y003415D01*
X005646Y002665D01*
X004646Y002665D02*
X004646Y003715D01*
X004796Y003865D01*
X009846Y003865D01*
X009946Y003965D01*
X009946Y004265D01*
X009846Y004365D01*
X009571Y004365D01*
X009471Y004415D01*
X007796Y003265D02*
X007646Y003115D01*
X007646Y002665D01*
X004436Y005415D02*
X003896Y005415D01*
X003746Y005265D01*
X003746Y004715D01*
X003396Y005665D02*
X003646Y005915D01*
X004436Y005915D01*
M02*
