G75*
G70*
%OFA0B0*%
%FSLAX24Y24*%
%IPPOS*%
%LPD*%
%AMOC8*
5,1,8,0,0,1.08239X$1,22.5*
%
%ADD10C,0.0080*%
%ADD11C,0.0740*%
%ADD12R,0.0800X0.0260*%
%ADD13R,0.0354X0.0276*%
%ADD14R,0.0512X0.0315*%
%ADD15C,0.0240*%
%ADD16C,0.0160*%
%ADD17C,0.0396*%
%ADD18C,0.0120*%
%ADD19C,0.0100*%
D10*
X000140Y006665D02*
X000148Y006984D01*
X000171Y007302D01*
X000210Y007618D01*
X000265Y007932D01*
X000335Y008243D01*
X000420Y008551D01*
X000520Y008853D01*
X000634Y009151D01*
X000764Y009442D01*
X000907Y009727D01*
X001064Y010005D01*
X001235Y010274D01*
X001418Y010535D01*
X001615Y010786D01*
X001823Y011027D01*
X002043Y011258D01*
X002274Y011478D01*
X002515Y011686D01*
X002766Y011883D01*
X003027Y012066D01*
X003296Y012237D01*
X003574Y012394D01*
X003859Y012537D01*
X004150Y012667D01*
X004448Y012781D01*
X004750Y012881D01*
X005058Y012966D01*
X005369Y013036D01*
X005683Y013091D01*
X005999Y013130D01*
X006317Y013153D01*
X006636Y013161D01*
X006955Y013153D01*
X007273Y013130D01*
X007589Y013091D01*
X007903Y013036D01*
X008214Y012966D01*
X008522Y012881D01*
X008824Y012781D01*
X009122Y012667D01*
X009413Y012537D01*
X009698Y012394D01*
X009976Y012237D01*
X010245Y012066D01*
X010506Y011883D01*
X010757Y011686D01*
X010998Y011478D01*
X011229Y011258D01*
X011449Y011027D01*
X011657Y010786D01*
X011854Y010535D01*
X012037Y010274D01*
X012208Y010005D01*
X012365Y009727D01*
X012508Y009442D01*
X012638Y009151D01*
X012752Y008853D01*
X012852Y008551D01*
X012937Y008243D01*
X013007Y007932D01*
X013062Y007618D01*
X013101Y007302D01*
X013124Y006984D01*
X013132Y006665D01*
X013124Y006346D01*
X013101Y006028D01*
X013062Y005712D01*
X013007Y005398D01*
X012937Y005087D01*
X012852Y004779D01*
X012752Y004477D01*
X012638Y004179D01*
X012508Y003888D01*
X012365Y003603D01*
X012208Y003325D01*
X012037Y003056D01*
X011854Y002795D01*
X011657Y002544D01*
X011449Y002303D01*
X011229Y002072D01*
X010998Y001852D01*
X010757Y001644D01*
X010506Y001447D01*
X010245Y001264D01*
X009976Y001093D01*
X009698Y000936D01*
X009413Y000793D01*
X009122Y000663D01*
X008824Y000549D01*
X008522Y000449D01*
X008214Y000364D01*
X007903Y000294D01*
X007589Y000239D01*
X007273Y000200D01*
X006955Y000177D01*
X006636Y000169D01*
X006317Y000177D01*
X005999Y000200D01*
X005683Y000239D01*
X005369Y000294D01*
X005058Y000364D01*
X004750Y000449D01*
X004448Y000549D01*
X004150Y000663D01*
X003859Y000793D01*
X003574Y000936D01*
X003296Y001093D01*
X003027Y001264D01*
X002766Y001447D01*
X002515Y001644D01*
X002274Y001852D01*
X002043Y002072D01*
X001823Y002303D01*
X001615Y002544D01*
X001418Y002795D01*
X001235Y003056D01*
X001064Y003325D01*
X000907Y003603D01*
X000764Y003888D01*
X000634Y004179D01*
X000520Y004477D01*
X000420Y004779D01*
X000335Y005087D01*
X000265Y005398D01*
X000210Y005712D01*
X000171Y006028D01*
X000148Y006346D01*
X000140Y006665D01*
D11*
X002136Y007165D03*
X002136Y006165D03*
X002136Y005165D03*
X002136Y004165D03*
X004636Y002665D03*
X005636Y002665D03*
X006636Y002665D03*
X007636Y002665D03*
X008636Y002665D03*
X002136Y008165D03*
X002136Y009165D03*
X004636Y010665D03*
X005636Y010665D03*
X006636Y010665D03*
X007636Y010665D03*
X008636Y010665D03*
D12*
X006846Y008415D03*
X006846Y007915D03*
X006846Y007415D03*
X006846Y006915D03*
X006846Y006415D03*
X006846Y005915D03*
X006846Y005415D03*
X006846Y004915D03*
X004426Y004915D03*
X004426Y005415D03*
X004426Y005915D03*
X004426Y006415D03*
X004426Y006915D03*
X004426Y007415D03*
X004426Y007915D03*
X004426Y008415D03*
D13*
X001136Y006921D03*
X001136Y006409D03*
D14*
X008211Y006715D03*
X008211Y007215D03*
X008211Y007715D03*
X008211Y008215D03*
X009461Y008215D03*
X009461Y007715D03*
X009461Y007215D03*
X009461Y006715D03*
X009461Y005915D03*
X009461Y005415D03*
X009461Y004915D03*
X009461Y004415D03*
X008211Y004415D03*
X008211Y004915D03*
X008211Y005415D03*
X008211Y005915D03*
D15*
X002816Y001941D02*
X002378Y002337D01*
X001982Y002775D01*
X001631Y003249D01*
X001329Y003756D01*
X001079Y004291D01*
X000883Y004847D01*
X000743Y005421D01*
X000660Y006005D01*
X000636Y006595D01*
X000657Y007189D01*
X000736Y007778D01*
X000872Y008356D01*
X001064Y008918D01*
X001311Y009459D01*
X001609Y009973D01*
X001957Y010455D01*
X002349Y010901D01*
X002784Y011306D01*
X003256Y011667D01*
X003762Y011980D01*
X004295Y012241D01*
X004852Y012449D01*
X005426Y012602D01*
X006013Y012697D01*
X006606Y012735D01*
X006746Y012715D01*
X007327Y012682D01*
X007902Y012593D01*
X008466Y012448D01*
X009012Y012248D01*
X009537Y011996D01*
X010034Y011693D01*
X010499Y011343D01*
X010927Y010950D01*
X011315Y010516D01*
X011659Y010046D01*
X011955Y009545D01*
X012200Y009017D01*
X012392Y008468D01*
X012530Y007902D01*
X012611Y007326D01*
X012636Y006745D01*
X012614Y006149D01*
X012534Y005558D01*
X012396Y004978D01*
X012202Y004414D01*
X011954Y003872D01*
X011654Y003357D01*
X011305Y002874D01*
X010910Y002427D01*
X010473Y002021D01*
X009999Y001660D01*
X009491Y001347D01*
X008955Y001086D01*
X008396Y000878D01*
X007820Y000726D01*
X007231Y000631D01*
X006636Y000595D01*
X006046Y000619D01*
X005462Y000701D01*
X004889Y000841D01*
X004332Y001038D01*
X003798Y001288D01*
X003290Y001590D01*
X002816Y001941D01*
X002696Y002050D02*
X004422Y002050D01*
X004507Y002015D02*
X004268Y002114D01*
X004085Y002296D01*
X003986Y002535D01*
X003986Y002794D01*
X004085Y003033D01*
X004268Y003216D01*
X004296Y003227D01*
X004296Y003782D01*
X004348Y003907D01*
X004498Y004057D01*
X004565Y004125D01*
X003918Y004125D01*
X003793Y004176D01*
X003698Y004272D01*
X003486Y004484D01*
X002879Y003876D01*
X002754Y003825D01*
X002699Y003825D01*
X002687Y003796D01*
X002504Y003614D01*
X002265Y003515D01*
X002007Y003515D01*
X001768Y003614D01*
X001585Y003796D01*
X001486Y004035D01*
X001486Y004294D01*
X001585Y004533D01*
X001717Y004665D01*
X001585Y004796D01*
X001573Y004825D01*
X001568Y004825D01*
X001443Y004876D01*
X000943Y005376D01*
X000943Y005376D01*
X000848Y005472D01*
X000796Y005597D01*
X000796Y006038D01*
X000722Y006112D01*
X000679Y006215D01*
X000679Y006602D01*
X000722Y006705D01*
X000746Y006729D01*
X000739Y006754D01*
X000739Y006921D01*
X001136Y006921D01*
X001136Y007278D01*
X000930Y007278D01*
X000874Y007263D01*
X000824Y007234D01*
X000783Y007193D01*
X000754Y007143D01*
X000739Y007087D01*
X000739Y006921D01*
X001136Y006921D01*
X001136Y006921D01*
X001136Y007278D01*
X001342Y007278D01*
X001398Y007263D01*
X001448Y007234D01*
X001486Y007197D01*
X001486Y007294D01*
X001585Y007533D01*
X001760Y007708D01*
X001752Y007715D01*
X001686Y007780D01*
X001631Y007855D01*
X001589Y007938D01*
X001561Y008027D01*
X001546Y008118D01*
X001546Y008165D01*
X002136Y008165D01*
X002136Y008165D01*
X002726Y008165D01*
X002726Y008211D01*
X002712Y008303D01*
X002683Y008391D01*
X002641Y008474D01*
X002586Y008549D01*
X002520Y008615D01*
X002512Y008621D01*
X002687Y008796D01*
X002786Y009035D01*
X002786Y009294D01*
X002687Y009533D01*
X002536Y009684D01*
X002536Y009699D01*
X003802Y010965D01*
X004057Y010965D01*
X003986Y010794D01*
X003986Y010535D01*
X004085Y010296D01*
X004268Y010114D01*
X004296Y010102D01*
X004296Y009747D01*
X004348Y009622D01*
X004443Y009526D01*
X005043Y008926D01*
X005168Y008875D01*
X009645Y008875D01*
X009696Y008824D01*
X009696Y008656D01*
X009693Y008652D01*
X009149Y008652D01*
X009047Y008610D01*
X008968Y008531D01*
X008925Y008428D01*
X008925Y008002D01*
X008940Y007965D01*
X008925Y007928D01*
X008925Y007502D01*
X008940Y007465D01*
X008925Y007428D01*
X008925Y007002D01*
X008940Y006965D01*
X008925Y006928D01*
X008925Y006502D01*
X008968Y006399D01*
X009047Y006320D01*
X009059Y006315D01*
X009047Y006310D01*
X008968Y006231D01*
X008925Y006128D01*
X008925Y005702D01*
X008940Y005665D01*
X008925Y005628D01*
X008925Y005202D01*
X008940Y005165D01*
X008925Y005128D01*
X008925Y004702D01*
X008940Y004665D01*
X008925Y004628D01*
X008925Y004205D01*
X008747Y004205D01*
X008747Y004628D01*
X008732Y004665D01*
X008747Y004702D01*
X008747Y005128D01*
X008732Y005165D01*
X008747Y005202D01*
X008747Y005628D01*
X008732Y005665D01*
X008747Y005702D01*
X008747Y006128D01*
X008704Y006231D01*
X008626Y006310D01*
X008613Y006315D01*
X008626Y006320D01*
X008704Y006399D01*
X008747Y006502D01*
X008747Y006928D01*
X008732Y006965D01*
X008747Y007002D01*
X008747Y007428D01*
X008732Y007465D01*
X008747Y007502D01*
X008747Y007928D01*
X008732Y007965D01*
X008747Y008002D01*
X008747Y008428D01*
X008704Y008531D01*
X008626Y008610D01*
X008523Y008652D01*
X007899Y008652D01*
X007797Y008610D01*
X007792Y008605D01*
X007668Y008605D01*
X007543Y008553D01*
X007466Y008476D01*
X007466Y008574D01*
X007451Y008630D01*
X007422Y008680D01*
X007381Y008721D01*
X007331Y008750D01*
X007275Y008765D01*
X006846Y008765D01*
X006417Y008765D01*
X006361Y008750D01*
X006311Y008721D01*
X006270Y008680D01*
X006241Y008630D01*
X006226Y008574D01*
X006226Y008415D01*
X006846Y008415D01*
X006846Y008765D01*
X006846Y008415D01*
X006846Y008415D01*
X006846Y008415D01*
X006226Y008415D01*
X006226Y008256D01*
X006233Y008228D01*
X006209Y008203D01*
X006166Y008100D01*
X006166Y007729D01*
X006193Y007665D01*
X006166Y007600D01*
X006166Y007229D01*
X006193Y007165D01*
X006166Y007100D01*
X006166Y006729D01*
X006193Y006665D01*
X006166Y006600D01*
X006166Y006229D01*
X006193Y006165D01*
X006166Y006100D01*
X006166Y005729D01*
X006193Y005665D01*
X006166Y005600D01*
X006166Y005229D01*
X006193Y005165D01*
X006166Y005100D01*
X006166Y004805D01*
X005385Y004805D01*
X005640Y005059D01*
X005741Y005161D01*
X005796Y005293D01*
X005796Y007636D01*
X005741Y007769D01*
X005391Y008119D01*
X005290Y008220D01*
X005158Y008275D01*
X005106Y008275D01*
X005106Y008600D01*
X005063Y008703D01*
X004985Y008782D01*
X004882Y008825D01*
X003970Y008825D01*
X003867Y008782D01*
X003789Y008703D01*
X003746Y008600D01*
X003746Y008229D01*
X003748Y008225D01*
X003264Y008225D01*
X003132Y008170D01*
X003031Y008069D01*
X002591Y007629D01*
X002512Y007708D01*
X002520Y007715D01*
X002586Y007780D01*
X002641Y007855D01*
X002683Y007938D01*
X002712Y008027D01*
X002726Y008118D01*
X002726Y008165D01*
X002136Y008165D01*
X002136Y008165D01*
X001546Y008165D01*
X001546Y008211D01*
X001561Y008303D01*
X001589Y008391D01*
X001631Y008474D01*
X001686Y008549D01*
X001752Y008615D01*
X001760Y008621D01*
X001585Y008796D01*
X001486Y009035D01*
X001486Y009294D01*
X001585Y009533D01*
X001736Y009684D01*
X001736Y009944D01*
X001797Y010091D01*
X003297Y011591D01*
X003409Y011704D01*
X003556Y011765D01*
X006016Y011765D01*
X006163Y011704D01*
X006275Y011591D01*
X006275Y011591D01*
X006552Y011315D01*
X006765Y011315D01*
X007004Y011216D01*
X007136Y011084D01*
X007268Y011216D01*
X007507Y011315D01*
X007765Y011315D01*
X008004Y011216D01*
X008136Y011084D01*
X008268Y011216D01*
X008507Y011315D01*
X008765Y011315D01*
X009004Y011216D01*
X009187Y011033D01*
X009286Y010794D01*
X009286Y010535D01*
X009273Y010505D01*
X010754Y010505D01*
X010879Y010453D01*
X011129Y010203D01*
X011129Y010203D01*
X011224Y010107D01*
X011276Y009982D01*
X011276Y006947D01*
X011224Y006822D01*
X010974Y006572D01*
X010879Y006476D01*
X010754Y006425D01*
X009965Y006425D01*
X009954Y006399D01*
X009876Y006320D01*
X009863Y006315D01*
X009876Y006310D01*
X009930Y006255D01*
X010654Y006255D01*
X010779Y006203D01*
X011029Y005953D01*
X011124Y005857D01*
X011176Y005732D01*
X011176Y002847D01*
X011124Y002722D01*
X010874Y002472D01*
X010779Y002376D01*
X010654Y002325D01*
X009199Y002325D01*
X009187Y002296D01*
X009004Y002114D01*
X008765Y002015D01*
X008507Y002015D01*
X008268Y002114D01*
X008136Y002245D01*
X008004Y002114D01*
X007765Y002015D01*
X007507Y002015D01*
X007268Y002114D01*
X007136Y002245D01*
X007004Y002114D01*
X006765Y002015D01*
X006507Y002015D01*
X006268Y002114D01*
X006136Y002245D01*
X006004Y002114D01*
X005765Y002015D01*
X005507Y002015D01*
X005268Y002114D01*
X005136Y002245D01*
X005004Y002114D01*
X004765Y002015D01*
X004507Y002015D01*
X004850Y002050D02*
X005422Y002050D01*
X005850Y002050D02*
X006422Y002050D01*
X006850Y002050D02*
X007422Y002050D01*
X007850Y002050D02*
X008422Y002050D01*
X008850Y002050D02*
X010504Y002050D01*
X010760Y002288D02*
X009179Y002288D01*
X009857Y001573D02*
X003320Y001573D01*
X002991Y001811D02*
X010197Y001811D01*
X009464Y001334D02*
X003720Y001334D01*
X004208Y001096D02*
X008975Y001096D01*
X008317Y000857D02*
X004844Y000857D01*
X006052Y000619D02*
X007026Y000619D01*
X004093Y002288D02*
X002432Y002288D01*
X002207Y002527D02*
X003990Y002527D01*
X003986Y002765D02*
X001991Y002765D01*
X001813Y003004D02*
X004073Y003004D01*
X004296Y003242D02*
X001637Y003242D01*
X001493Y003481D02*
X004296Y003481D01*
X004296Y003719D02*
X002610Y003719D01*
X002960Y003958D02*
X004398Y003958D01*
X003774Y004196D02*
X003198Y004196D01*
X003437Y004435D02*
X003535Y004435D01*
X001708Y004673D02*
X000944Y004673D01*
X000867Y004912D02*
X001408Y004912D01*
X001170Y005150D02*
X000809Y005150D01*
X000751Y005389D02*
X000931Y005389D01*
X000796Y005627D02*
X000714Y005627D01*
X000680Y005866D02*
X000796Y005866D01*
X000730Y006104D02*
X000656Y006104D01*
X000646Y006343D02*
X000679Y006343D01*
X000679Y006581D02*
X000637Y006581D01*
X000644Y006820D02*
X000739Y006820D01*
X000739Y007058D02*
X000652Y007058D01*
X000671Y007297D02*
X001487Y007297D01*
X001587Y007535D02*
X000703Y007535D01*
X000735Y007774D02*
X001693Y007774D01*
X001565Y008012D02*
X000791Y008012D01*
X000847Y008251D02*
X001552Y008251D01*
X001643Y008489D02*
X000918Y008489D01*
X000999Y008728D02*
X001654Y008728D01*
X001515Y008966D02*
X001086Y008966D01*
X001195Y009205D02*
X001486Y009205D01*
X001548Y009443D02*
X001304Y009443D01*
X001440Y009682D02*
X001734Y009682D01*
X001736Y009920D02*
X001579Y009920D01*
X001743Y010159D02*
X001864Y010159D01*
X001915Y010397D02*
X002103Y010397D01*
X002116Y010636D02*
X002341Y010636D01*
X002326Y010874D02*
X002580Y010874D01*
X002576Y011113D02*
X002818Y011113D01*
X002843Y011351D02*
X003057Y011351D01*
X003155Y011590D02*
X003295Y011590D01*
X003517Y011828D02*
X009812Y011828D01*
X010171Y011590D02*
X006277Y011590D01*
X006515Y011351D02*
X010488Y011351D01*
X010750Y011113D02*
X009107Y011113D01*
X009253Y010874D02*
X010995Y010874D01*
X011208Y010636D02*
X009286Y010636D01*
X008165Y011113D02*
X008107Y011113D01*
X007165Y011113D02*
X007107Y011113D01*
X006636Y010665D02*
X005936Y011365D01*
X003636Y011365D01*
X002136Y009865D01*
X002136Y009165D01*
X002618Y008728D02*
X003813Y008728D01*
X003746Y008489D02*
X002630Y008489D01*
X002720Y008251D02*
X003746Y008251D01*
X002974Y008012D02*
X002707Y008012D01*
X002736Y007774D02*
X002579Y007774D01*
X001533Y006922D02*
X001585Y006796D01*
X001717Y006665D01*
X001593Y006541D01*
X001593Y006602D01*
X001551Y006705D01*
X001527Y006729D01*
X001533Y006754D01*
X001533Y006921D01*
X001136Y006921D01*
X001136Y006921D01*
X001136Y006921D01*
X001533Y006921D01*
X001533Y006922D01*
X001533Y006820D02*
X001575Y006820D01*
X001593Y006581D02*
X001633Y006581D01*
X001136Y007058D02*
X001136Y007058D01*
X003376Y006324D02*
X003376Y006136D01*
X003443Y006203D01*
X003568Y006255D01*
X003806Y006255D01*
X003806Y006256D01*
X003806Y006415D01*
X003806Y006525D01*
X003577Y006525D01*
X003376Y006324D01*
X003395Y006343D02*
X003806Y006343D01*
X003806Y006415D02*
X004426Y006415D01*
X004426Y006415D01*
X003806Y006415D01*
X004426Y006415D02*
X005046Y006415D01*
X005046Y006574D01*
X005039Y006601D01*
X005063Y006626D01*
X005076Y006657D01*
X005076Y006173D01*
X005063Y006203D01*
X005039Y006228D01*
X005046Y006256D01*
X005046Y006415D01*
X004426Y006415D01*
X004426Y006415D01*
X005046Y006343D02*
X005076Y006343D01*
X005076Y006581D02*
X005044Y006581D01*
X005796Y006581D02*
X006166Y006581D01*
X006166Y006343D02*
X005796Y006343D01*
X005796Y006104D02*
X006168Y006104D01*
X006166Y005866D02*
X005796Y005866D01*
X005796Y005627D02*
X006177Y005627D01*
X006166Y005389D02*
X005796Y005389D01*
X005731Y005150D02*
X006187Y005150D01*
X006166Y004912D02*
X005492Y004912D01*
X005640Y005059D02*
X005640Y005059D01*
X005796Y006820D02*
X006166Y006820D01*
X006166Y007058D02*
X005796Y007058D01*
X005796Y007297D02*
X006166Y007297D01*
X006166Y007535D02*
X005796Y007535D01*
X005736Y007774D02*
X006166Y007774D01*
X006166Y008012D02*
X005498Y008012D01*
X005391Y008119D02*
X005391Y008119D01*
X005216Y008251D02*
X006227Y008251D01*
X006226Y008489D02*
X005106Y008489D01*
X005039Y008728D02*
X006323Y008728D01*
X006846Y008728D02*
X006846Y008728D01*
X006846Y008489D02*
X006846Y008489D01*
X007369Y008728D02*
X009696Y008728D01*
X008951Y008489D02*
X008722Y008489D01*
X008747Y008251D02*
X008925Y008251D01*
X008925Y008012D02*
X008747Y008012D01*
X008747Y007774D02*
X008925Y007774D01*
X008925Y007535D02*
X008747Y007535D01*
X008747Y007297D02*
X008925Y007297D01*
X008925Y007058D02*
X008747Y007058D01*
X008747Y006820D02*
X008925Y006820D01*
X008925Y006581D02*
X008747Y006581D01*
X008648Y006343D02*
X009024Y006343D01*
X008925Y006104D02*
X008747Y006104D01*
X008747Y005866D02*
X008925Y005866D01*
X008925Y005627D02*
X008747Y005627D01*
X008747Y005389D02*
X008925Y005389D01*
X008934Y005150D02*
X008738Y005150D01*
X008747Y004912D02*
X008925Y004912D01*
X008937Y004673D02*
X008735Y004673D01*
X008747Y004435D02*
X008925Y004435D01*
X011176Y004435D02*
X012209Y004435D01*
X012291Y004673D02*
X011176Y004673D01*
X011176Y004912D02*
X012373Y004912D01*
X012437Y005150D02*
X011176Y005150D01*
X011176Y005389D02*
X012494Y005389D01*
X012543Y005627D02*
X011176Y005627D01*
X011116Y005866D02*
X012576Y005866D01*
X012608Y006104D02*
X010877Y006104D01*
X010983Y006581D02*
X012630Y006581D01*
X012621Y006343D02*
X009898Y006343D01*
X011222Y006820D02*
X012633Y006820D01*
X012623Y007058D02*
X011276Y007058D01*
X011276Y007297D02*
X012613Y007297D01*
X012582Y007535D02*
X011276Y007535D01*
X011276Y007774D02*
X012548Y007774D01*
X012503Y008012D02*
X011276Y008012D01*
X011276Y008251D02*
X012445Y008251D01*
X012385Y008489D02*
X011276Y008489D01*
X011276Y008728D02*
X012301Y008728D01*
X012218Y008966D02*
X011276Y008966D01*
X011276Y009205D02*
X012113Y009205D01*
X012002Y009443D02*
X011276Y009443D01*
X011276Y009682D02*
X011874Y009682D01*
X011733Y009920D02*
X011276Y009920D01*
X011173Y010159D02*
X011576Y010159D01*
X011402Y010397D02*
X010934Y010397D01*
X009389Y012067D02*
X003939Y012067D01*
X004467Y012305D02*
X008856Y012305D01*
X008093Y012544D02*
X005208Y012544D01*
X004019Y010874D02*
X003711Y010874D01*
X003473Y010636D02*
X003986Y010636D01*
X004043Y010397D02*
X003234Y010397D01*
X002996Y010159D02*
X004223Y010159D01*
X004296Y009920D02*
X002757Y009920D01*
X002538Y009682D02*
X004323Y009682D01*
X004527Y009443D02*
X002724Y009443D01*
X002786Y009205D02*
X004765Y009205D01*
X005004Y008966D02*
X002757Y008966D01*
X007466Y008489D02*
X007480Y008489D01*
X011176Y004196D02*
X012103Y004196D01*
X011993Y003958D02*
X011176Y003958D01*
X011176Y003719D02*
X011865Y003719D01*
X011726Y003481D02*
X011176Y003481D01*
X011176Y003242D02*
X011571Y003242D01*
X011399Y003004D02*
X011176Y003004D01*
X011142Y002765D02*
X011209Y002765D01*
X010998Y002527D02*
X010929Y002527D01*
X001662Y003719D02*
X001351Y003719D01*
X001235Y003958D02*
X001518Y003958D01*
X001486Y004196D02*
X001123Y004196D01*
X001028Y004435D02*
X001544Y004435D01*
D16*
X002136Y006165D02*
X002436Y006165D01*
X002636Y007165D02*
X002136Y007165D01*
X002636Y007165D02*
X003336Y007865D01*
X004376Y007865D01*
X004426Y007915D01*
X005086Y007915D01*
X005436Y007565D01*
X005436Y005365D01*
X004986Y004915D01*
X004426Y004915D01*
X004426Y006415D02*
X003626Y006415D01*
X004376Y006865D02*
X004426Y006915D01*
X004426Y007415D02*
X004376Y007465D01*
X008211Y006715D02*
X008261Y006765D01*
D17*
X003626Y006415D03*
D18*
X003436Y006865D02*
X004376Y006865D01*
X004376Y007465D02*
X003536Y007465D01*
X002636Y006565D01*
X002636Y006365D01*
X002436Y006165D01*
X003036Y006465D02*
X003436Y006865D01*
X003036Y006465D02*
X003036Y005415D01*
X002786Y005165D01*
X002136Y005165D01*
X001636Y005165D01*
X001136Y005665D01*
X001136Y006409D01*
X003386Y005665D02*
X003386Y004865D01*
X002686Y004165D01*
X002136Y004165D01*
X003736Y004715D02*
X003986Y004465D01*
X008261Y004465D01*
X008211Y004415D01*
X008211Y004915D02*
X006846Y004915D01*
X006846Y005415D02*
X008211Y005415D01*
X008211Y005915D02*
X008261Y005965D01*
X008211Y005915D02*
X006846Y005915D01*
X006846Y006415D02*
X007386Y006415D01*
X007736Y006765D01*
X008261Y006765D01*
X008261Y007265D02*
X007736Y007265D01*
X007386Y006915D01*
X006846Y006915D01*
X006846Y007415D02*
X007386Y007415D01*
X007736Y007765D01*
X008261Y007765D01*
X008261Y008265D02*
X007736Y008265D01*
X007386Y007915D01*
X006846Y007915D01*
X005236Y009215D02*
X004636Y009815D01*
X004636Y010665D01*
X005636Y010665D02*
X005636Y009915D01*
X006036Y009515D01*
X010086Y009515D01*
X010336Y009265D01*
X010336Y008015D01*
X010086Y007765D01*
X009561Y007765D01*
X009561Y008265D02*
X009786Y008265D01*
X010036Y008515D01*
X010036Y008965D01*
X009786Y009215D01*
X005236Y009215D01*
X007636Y010065D02*
X007636Y010665D01*
X007636Y010065D02*
X007886Y009815D01*
X010386Y009815D01*
X010636Y009565D01*
X010636Y007515D01*
X010386Y007265D01*
X009561Y007265D01*
X009561Y006765D02*
X010686Y006765D01*
X010936Y007015D01*
X010936Y009915D01*
X010686Y010165D01*
X008886Y010165D01*
X008636Y010415D01*
X008636Y010665D01*
X009461Y005915D02*
X010586Y005915D01*
X010836Y005665D01*
X010836Y002915D01*
X010586Y002665D01*
X008636Y002665D01*
X007786Y003265D02*
X010286Y003265D01*
X010536Y003515D01*
X010536Y005115D01*
X010286Y005365D01*
X009461Y005365D01*
X009461Y005415D01*
X009461Y004915D02*
X009561Y004865D01*
X009986Y004865D01*
X010236Y004615D01*
X010236Y003815D01*
X009986Y003565D01*
X005786Y003565D01*
X005636Y003415D01*
X005636Y002665D01*
X004636Y002665D02*
X004636Y003715D01*
X004786Y003865D01*
X009836Y003865D01*
X009936Y003965D01*
X009936Y004265D01*
X009836Y004365D01*
X009561Y004365D01*
X009461Y004415D01*
X007786Y003265D02*
X007636Y003115D01*
X007636Y002665D01*
X004426Y005415D02*
X003886Y005415D01*
X003736Y005265D01*
X003736Y004715D01*
X003386Y005665D02*
X003636Y005915D01*
X004426Y005915D01*
D19*
X008211Y007215D02*
X008261Y007265D01*
X008211Y007715D02*
X008261Y007765D01*
X008211Y008215D02*
X008261Y008265D01*
X009461Y008215D02*
X009561Y008265D01*
X009561Y007765D02*
X009461Y007715D01*
X009561Y007265D02*
X009461Y007215D01*
X009561Y006765D02*
X009461Y006715D01*
M02*
