G75*
G70*
%OFA0B0*%
%FSLAX24Y24*%
%IPPOS*%
%LPD*%
%AMOC8*
5,1,8,0,0,1.08239X$1,22.5*
%
%ADD10C,0.0800*%
%ADD11R,0.0860X0.0320*%
%ADD12R,0.0414X0.0336*%
%ADD13R,0.0572X0.0375*%
%ADD14C,0.0456*%
D10*
X004646Y002665D03*
X005646Y002665D03*
X006646Y002665D03*
X007646Y002665D03*
X008646Y002665D03*
X002146Y004165D03*
X002146Y005165D03*
X002146Y006165D03*
X002146Y007165D03*
X002146Y008165D03*
X002146Y009165D03*
X004646Y010665D03*
X005646Y010665D03*
X006646Y010665D03*
X007646Y010665D03*
X008646Y010665D03*
D11*
X006856Y008415D03*
X006856Y007915D03*
X006856Y007415D03*
X006856Y006915D03*
X006856Y006415D03*
X006856Y005915D03*
X006856Y005415D03*
X006856Y004915D03*
X004436Y004915D03*
X004436Y005415D03*
X004436Y005915D03*
X004436Y006415D03*
X004436Y006915D03*
X004436Y007415D03*
X004436Y007915D03*
X004436Y008415D03*
D12*
X001146Y006921D03*
X001146Y006409D03*
D13*
X008221Y006715D03*
X008221Y007215D03*
X008221Y007715D03*
X008221Y008215D03*
X009471Y008215D03*
X009471Y007715D03*
X009471Y007215D03*
X009471Y006715D03*
X009471Y005915D03*
X009471Y005415D03*
X009471Y004915D03*
X009471Y004415D03*
X008221Y004415D03*
X008221Y004915D03*
X008221Y005415D03*
X008221Y005915D03*
D14*
X003636Y006415D03*
M02*
