G75*
G70*
%OFA0B0*%
%FSLAX24Y24*%
%IPPOS*%
%LPD*%
%AMOC8*
5,1,8,0,0,1.08239X$1,22.5*
%
%ADD10C,0.0060*%
%ADD11R,0.0010X0.0240*%
%ADD12R,0.0010X0.0550*%
%ADD13R,0.0010X0.0710*%
%ADD14R,0.0010X0.0860*%
%ADD15R,0.0010X0.1010*%
%ADD16R,0.0010X0.0450*%
%ADD17R,0.0010X0.0340*%
%ADD18R,0.0010X0.0300*%
%ADD19R,0.0010X0.0310*%
%ADD20R,0.0010X0.0270*%
%ADD21R,0.0010X0.0250*%
%ADD22R,0.0010X0.0540*%
%ADD23R,0.0010X0.0210*%
%ADD24R,0.0010X0.0690*%
%ADD25R,0.0010X0.0170*%
%ADD26R,0.0010X0.0830*%
%ADD27R,0.0010X0.0180*%
%ADD28R,0.0010X0.0150*%
%ADD29R,0.0010X0.0970*%
%ADD30R,0.0010X0.0160*%
%ADD31R,0.0010X0.1100*%
%ADD32R,0.0010X0.1230*%
%ADD33R,0.0010X0.0140*%
%ADD34R,0.0010X0.1330*%
%ADD35R,0.0010X0.1390*%
%ADD36R,0.0010X0.0130*%
%ADD37R,0.0010X0.1470*%
%ADD38R,0.0010X0.0120*%
%ADD39R,0.0010X0.1560*%
%ADD40R,0.0010X0.0110*%
%ADD41R,0.0010X0.1610*%
%ADD42R,0.0010X0.0100*%
%ADD43R,0.0010X0.1670*%
%ADD44R,0.0010X0.1720*%
%ADD45R,0.0010X0.1770*%
%ADD46R,0.0010X0.0090*%
%ADD47R,0.0010X0.1810*%
%ADD48R,0.0010X0.0080*%
%ADD49R,0.0010X0.0260*%
%ADD50R,0.0010X0.0400*%
%ADD51R,0.0010X0.0230*%
%ADD52R,0.0010X0.0050*%
%ADD53R,0.0010X0.0070*%
%ADD54R,0.0010X0.0320*%
%ADD55R,0.0010X0.0010*%
%ADD56R,0.0010X0.0040*%
%ADD57R,0.0010X0.0330*%
%ADD58R,0.0010X0.0020*%
%ADD59R,0.0010X0.0200*%
%ADD60R,0.0010X0.0030*%
%ADD61R,0.0010X0.0410*%
%ADD62R,0.0010X0.0060*%
%ADD63R,0.0010X0.0420*%
%ADD64R,0.0010X0.0360*%
%ADD65R,0.0010X0.0370*%
%ADD66R,0.0010X0.0380*%
%ADD67R,0.0010X0.0430*%
%ADD68R,0.0010X0.0390*%
%ADD69R,0.0010X0.0440*%
%ADD70R,0.0010X0.0190*%
%ADD71R,0.0010X0.0560*%
%ADD72R,0.0010X0.0220*%
%ADD73R,0.0010X0.0460*%
%ADD74R,0.0010X0.0470*%
%ADD75R,0.0010X0.0490*%
%ADD76R,0.0010X0.0500*%
%ADD77R,0.0010X0.0510*%
%ADD78R,0.0010X0.0520*%
%ADD79R,0.0010X0.0530*%
%ADD80R,0.0010X0.0750*%
%ADD81R,0.0010X0.0740*%
%ADD82R,0.0010X0.0730*%
%ADD83R,0.0010X0.0840*%
%ADD84R,0.0010X0.0670*%
%ADD85R,0.0010X0.0650*%
%ADD86R,0.0010X0.0480*%
%ADD87R,0.0010X0.0620*%
%ADD88R,0.0010X0.0700*%
%ADD89R,0.0010X0.0610*%
%ADD90R,0.0010X0.0590*%
%ADD91R,0.0010X0.0580*%
%ADD92R,0.0010X0.1140*%
%ADD93R,0.0010X0.1130*%
%ADD94R,0.0010X0.1200*%
%ADD95R,0.0010X0.0780*%
%ADD96R,0.0010X0.0290*%
%ADD97R,0.0010X0.0640*%
%ADD98R,0.0010X0.0570*%
%ADD99R,0.0010X0.0280*%
%ADD100R,0.0010X0.0350*%
%ADD101R,0.0010X0.0850*%
%ADD102R,0.0010X0.0880*%
%ADD103R,0.0010X0.0900*%
%ADD104R,0.0010X0.1240*%
%ADD105R,0.0010X0.1110*%
%ADD106R,0.0010X0.0870*%
%ADD107R,0.0010X0.0720*%
%ADD108C,0.0059*%
D10*
X009606Y002955D02*
X009713Y002848D01*
X010140Y003275D01*
X009713Y003275D01*
X009606Y003169D01*
X009606Y002955D01*
X009713Y002848D02*
X010140Y002848D01*
X010247Y002955D01*
X010247Y003169D01*
X010140Y003275D01*
X010033Y003493D02*
X010247Y003706D01*
X009606Y003706D01*
X009606Y003493D02*
X009606Y003920D01*
X009926Y004137D02*
X009926Y004564D01*
X010140Y004782D02*
X010247Y004889D01*
X010247Y005102D01*
X010140Y005209D01*
X010033Y005209D01*
X009606Y004782D01*
X009606Y005209D01*
X009713Y005426D02*
X009820Y005426D01*
X009926Y005533D01*
X009926Y005747D01*
X009820Y005854D01*
X009713Y005854D01*
X009606Y005747D01*
X009606Y005533D01*
X009713Y005426D01*
X009926Y005533D02*
X010033Y005426D01*
X010140Y005426D01*
X010247Y005533D01*
X010247Y005747D01*
X010140Y005854D01*
X010033Y005854D01*
X009926Y005747D01*
X009926Y006071D02*
X009926Y006498D01*
X010033Y006716D02*
X010247Y006929D01*
X009606Y006929D01*
X009606Y006716D02*
X009606Y007143D01*
X009713Y007360D02*
X009606Y007467D01*
X009606Y007680D01*
X009713Y007787D01*
X009820Y007787D01*
X009926Y007680D01*
X009926Y007574D01*
X009926Y007680D02*
X010033Y007787D01*
X010140Y007787D01*
X010247Y007680D01*
X010247Y007467D01*
X010140Y007360D01*
X010756Y007350D02*
X010756Y007777D01*
X010756Y007564D02*
X011397Y007564D01*
X011183Y007350D01*
X011076Y007133D02*
X010756Y007133D01*
X011076Y007133D02*
X011183Y007026D01*
X011183Y006706D01*
X010756Y006706D01*
X010863Y006488D02*
X011076Y006488D01*
X011183Y006381D01*
X011183Y006168D01*
X011076Y006061D01*
X010863Y006061D01*
X010756Y006168D01*
X010756Y006381D01*
X010863Y006488D01*
X010863Y005844D02*
X010970Y005737D01*
X010970Y005523D01*
X011076Y005416D01*
X011183Y005523D01*
X011183Y005844D01*
X010863Y005844D02*
X010756Y005737D01*
X010756Y005416D01*
X010756Y005200D02*
X010756Y004987D01*
X010756Y005094D02*
X011397Y005094D01*
X011397Y004987D01*
X011076Y004769D02*
X010970Y004769D01*
X010970Y004342D01*
X011076Y004342D02*
X011183Y004449D01*
X011183Y004662D01*
X011076Y004769D01*
X010756Y004662D02*
X010756Y004449D01*
X010863Y004342D01*
X011076Y004342D01*
X011076Y004125D02*
X010756Y004125D01*
X011076Y004125D02*
X011183Y004018D01*
X011183Y003698D01*
X010756Y003698D01*
X010756Y003480D02*
X010756Y003053D01*
X011183Y003480D01*
X011183Y003053D01*
D11*
X011326Y008610D03*
X011336Y008620D03*
X010886Y009120D03*
D12*
X010896Y009115D03*
X011746Y009115D03*
X011346Y010005D03*
X011336Y010005D03*
X011316Y009995D03*
D13*
X010906Y009115D03*
D14*
X010916Y009120D03*
D15*
X010926Y009115D03*
X011796Y009115D03*
D16*
X011646Y009695D03*
X011456Y010025D03*
X011256Y010015D03*
X010936Y009465D03*
X010936Y008775D03*
X011566Y008345D03*
X011296Y008195D03*
D17*
X011176Y008260D03*
X010946Y008670D03*
X011666Y008550D03*
X010946Y009570D03*
D18*
X011596Y008800D03*
X011586Y008790D03*
X011126Y008760D03*
X010956Y008610D03*
D19*
X011126Y008345D03*
X011136Y008325D03*
X010956Y009625D03*
D20*
X010966Y009685D03*
X010966Y008555D03*
D21*
X010976Y008495D03*
X011136Y008755D03*
X011836Y009115D03*
X010976Y009745D03*
D22*
X011356Y010010D03*
X011616Y009740D03*
X010976Y009120D03*
X011486Y008290D03*
X011376Y008220D03*
D23*
X010986Y008445D03*
X011286Y008585D03*
X011356Y008645D03*
X011366Y008655D03*
X011376Y008655D03*
X011146Y008765D03*
X011756Y008515D03*
X011156Y009315D03*
X011146Y009315D03*
X010986Y009795D03*
X011756Y009725D03*
D24*
X011576Y009755D03*
X011496Y009395D03*
X011486Y009395D03*
X011476Y009385D03*
X011466Y009385D03*
X011736Y009115D03*
X010986Y009115D03*
D25*
X011186Y009315D03*
X011196Y009315D03*
X011636Y009305D03*
X011726Y009845D03*
X011246Y008565D03*
X010996Y008395D03*
X011726Y008395D03*
D26*
X011726Y009115D03*
X010996Y009115D03*
D27*
X011176Y009310D03*
X010996Y009840D03*
D28*
X011016Y009915D03*
X011266Y009545D03*
X011706Y009915D03*
X011576Y009055D03*
X011416Y008925D03*
X011716Y008355D03*
X011706Y008325D03*
X011696Y008295D03*
X011686Y008265D03*
X011036Y008265D03*
X011026Y008295D03*
X011016Y008325D03*
X011006Y008355D03*
D29*
X011006Y009115D03*
X011716Y009115D03*
D30*
X011206Y009320D03*
X011006Y009880D03*
X011716Y009880D03*
D31*
X011016Y009120D03*
D32*
X011026Y009115D03*
D33*
X011126Y009050D03*
X011246Y008980D03*
X011256Y008990D03*
X011266Y008990D03*
X011276Y008990D03*
X011386Y008910D03*
X011236Y008560D03*
X011046Y008240D03*
X011056Y008220D03*
X011236Y009530D03*
X011256Y009540D03*
X011276Y009550D03*
X011286Y009550D03*
X011026Y009940D03*
X011036Y009970D03*
X011686Y009970D03*
X011696Y009940D03*
D34*
X011686Y009115D03*
X011036Y009115D03*
D35*
X011046Y009115D03*
D36*
X011136Y009065D03*
X011226Y008975D03*
X011236Y008975D03*
X011286Y008995D03*
X011296Y009005D03*
X011306Y009005D03*
X011376Y008895D03*
X011156Y008725D03*
X011676Y008235D03*
X011386Y009465D03*
X011296Y009555D03*
X011246Y009535D03*
X011226Y009525D03*
X011046Y009995D03*
X011056Y010015D03*
D37*
X011056Y009115D03*
D38*
X011216Y008970D03*
X011316Y009010D03*
X011366Y008880D03*
X011216Y008780D03*
X011166Y008730D03*
X011226Y008550D03*
X011536Y008690D03*
X011546Y008690D03*
X011556Y008690D03*
X011556Y008840D03*
X011296Y009370D03*
X011216Y009520D03*
X011306Y009560D03*
X011316Y009570D03*
X011066Y010040D03*
X011076Y010060D03*
X011676Y010000D03*
X011066Y008200D03*
D39*
X011066Y009120D03*
D40*
X011146Y009075D03*
X011156Y009085D03*
X011206Y008965D03*
X011276Y008815D03*
X011256Y008805D03*
X011246Y008795D03*
X011226Y008785D03*
X011206Y008775D03*
X011196Y008765D03*
X011356Y008875D03*
X011456Y008775D03*
X011526Y008825D03*
X011546Y008835D03*
X011526Y008685D03*
X011586Y009045D03*
X011386Y009135D03*
X011286Y009365D03*
X011206Y009515D03*
X011076Y008175D03*
X011666Y008205D03*
D41*
X011076Y009115D03*
D42*
X011196Y008960D03*
X011326Y009010D03*
X011346Y008860D03*
X011336Y008850D03*
X011316Y008840D03*
X011286Y008820D03*
X011266Y008810D03*
X011236Y008790D03*
X011186Y008750D03*
X011176Y008740D03*
X011216Y008550D03*
X011476Y008790D03*
X011486Y008800D03*
X011496Y008810D03*
X011506Y008820D03*
X011516Y008820D03*
X011536Y008830D03*
X011276Y009360D03*
X011376Y009460D03*
X011326Y009570D03*
X011126Y009550D03*
X011086Y010080D03*
X011096Y010100D03*
X011606Y010150D03*
X011616Y010130D03*
X011626Y010110D03*
X011636Y010090D03*
X011646Y010070D03*
X011656Y010050D03*
X011666Y010030D03*
X011656Y008180D03*
X011616Y008100D03*
X011606Y008080D03*
X011106Y008110D03*
X011096Y008130D03*
X011086Y008150D03*
D43*
X011086Y009115D03*
D44*
X011096Y009120D03*
D45*
X011106Y009115D03*
D46*
X011166Y009095D03*
X011176Y009105D03*
X011186Y009115D03*
X011196Y009115D03*
X011206Y009125D03*
X011376Y009135D03*
X011326Y008845D03*
X011306Y008835D03*
X011296Y008825D03*
X011466Y008785D03*
X011516Y008675D03*
X011646Y008165D03*
X011636Y008145D03*
X011626Y008125D03*
X011596Y008065D03*
X011126Y008075D03*
X011116Y008095D03*
X011196Y009505D03*
X011336Y009575D03*
X011106Y010125D03*
D47*
X011116Y009115D03*
D48*
X011216Y009130D03*
X011226Y009140D03*
X011236Y009150D03*
X011246Y009150D03*
X011256Y009160D03*
X011336Y009020D03*
X011466Y008930D03*
X011446Y008740D03*
X011506Y008670D03*
X011186Y008960D03*
X011366Y009460D03*
X011186Y009500D03*
X011236Y009710D03*
X011246Y009710D03*
X011256Y009720D03*
X011116Y010140D03*
X011126Y010160D03*
X011156Y010210D03*
X011586Y010190D03*
X011596Y010170D03*
X011586Y008050D03*
X011156Y008030D03*
X011146Y008040D03*
X011136Y008060D03*
D49*
X011776Y008630D03*
X011556Y009090D03*
X011126Y009330D03*
X011776Y009610D03*
D50*
X011486Y010020D03*
X011156Y009910D03*
X011146Y009890D03*
X011136Y009870D03*
X011126Y009850D03*
D51*
X011766Y009665D03*
X011136Y009315D03*
X011346Y008635D03*
X011316Y008605D03*
X011766Y008575D03*
D52*
X011426Y008695D03*
X011516Y008955D03*
X011526Y008965D03*
X011346Y009125D03*
X011316Y009195D03*
X011296Y009185D03*
X011226Y009275D03*
X011326Y009435D03*
X011336Y009445D03*
X011136Y009565D03*
X011256Y010315D03*
X011276Y010325D03*
X011296Y010335D03*
X011306Y010335D03*
X011326Y010345D03*
X011336Y010345D03*
X011346Y010345D03*
X011356Y010345D03*
X011366Y010345D03*
X011376Y010345D03*
X011386Y010345D03*
X011396Y010345D03*
X011416Y010335D03*
X011426Y010335D03*
X011446Y010325D03*
X011466Y010315D03*
X011466Y007925D03*
X011446Y007915D03*
X011426Y007905D03*
X011416Y007905D03*
X011396Y007895D03*
X011386Y007895D03*
X011346Y007895D03*
X011336Y007895D03*
X011326Y007895D03*
X011306Y007905D03*
X011296Y007905D03*
X011276Y007915D03*
X011256Y007925D03*
D53*
X011176Y008005D03*
X011166Y008015D03*
X011576Y008035D03*
X011476Y008935D03*
X011426Y008955D03*
X011366Y009135D03*
X011276Y009175D03*
X011266Y009165D03*
X011216Y009285D03*
X011266Y009355D03*
X011356Y009455D03*
X011226Y009695D03*
X011136Y010175D03*
X011146Y010195D03*
X011166Y010225D03*
X011176Y010235D03*
X011576Y010205D03*
X011596Y009045D03*
D54*
X011646Y009280D03*
X011146Y008310D03*
X011156Y008290D03*
D55*
X011176Y008855D03*
X011366Y009045D03*
X011376Y009045D03*
X011316Y009115D03*
X011356Y009295D03*
X011326Y009325D03*
X011146Y009575D03*
X011346Y009655D03*
X011356Y009655D03*
X011456Y008895D03*
D56*
X011476Y009010D03*
X011486Y009010D03*
X011496Y009010D03*
X011606Y009040D03*
X011646Y008840D03*
X011496Y008660D03*
X011406Y008770D03*
X011156Y008840D03*
X011206Y008540D03*
X011356Y007890D03*
X011366Y007890D03*
X011376Y007890D03*
X011326Y009210D03*
X011306Y009420D03*
X011316Y009430D03*
X011376Y009650D03*
X011186Y009670D03*
D57*
X011166Y008275D03*
D58*
X011166Y008850D03*
X011326Y009120D03*
X011246Y009270D03*
X011316Y009320D03*
X011366Y009300D03*
X011216Y009390D03*
X011516Y009020D03*
D59*
X011166Y009310D03*
X011746Y009770D03*
X011276Y008580D03*
X011266Y008580D03*
X011746Y008470D03*
D60*
X011506Y009015D03*
X011466Y009005D03*
X011386Y009045D03*
X011356Y009035D03*
X011336Y009125D03*
X011336Y009215D03*
X011376Y009305D03*
X011306Y009325D03*
X011256Y009355D03*
X011236Y009275D03*
X011166Y009495D03*
X011176Y009655D03*
X011366Y009655D03*
D61*
X011166Y009925D03*
X011596Y008385D03*
X011246Y008205D03*
D62*
X011186Y007990D03*
X011196Y007980D03*
X011206Y007970D03*
X011216Y007960D03*
X011226Y007950D03*
X011236Y007940D03*
X011246Y007930D03*
X011266Y007920D03*
X011286Y007910D03*
X011316Y007900D03*
X011406Y007900D03*
X011436Y007910D03*
X011456Y007920D03*
X011476Y007930D03*
X011486Y007940D03*
X011496Y007950D03*
X011506Y007960D03*
X011516Y007970D03*
X011526Y007980D03*
X011536Y007990D03*
X011546Y008000D03*
X011556Y008010D03*
X011566Y008020D03*
X011436Y008720D03*
X011396Y008750D03*
X011386Y008740D03*
X011486Y008940D03*
X011496Y008940D03*
X011506Y008950D03*
X011536Y008970D03*
X011346Y009030D03*
X011356Y009130D03*
X011306Y009190D03*
X011286Y009180D03*
X011386Y009300D03*
X011346Y009450D03*
X011346Y009580D03*
X011386Y009650D03*
X011216Y009690D03*
X011206Y009680D03*
X011196Y009680D03*
X011176Y009500D03*
X011176Y008960D03*
X011566Y010220D03*
X011556Y010230D03*
X011546Y010240D03*
X011536Y010250D03*
X011526Y010260D03*
X011516Y010270D03*
X011506Y010280D03*
X011496Y010290D03*
X011486Y010300D03*
X011476Y010310D03*
X011456Y010320D03*
X011436Y010330D03*
X011406Y010340D03*
X011316Y010340D03*
X011286Y010330D03*
X011266Y010320D03*
X011246Y010310D03*
X011236Y010300D03*
X011226Y010290D03*
X011216Y010280D03*
X011206Y010270D03*
X011196Y010260D03*
X011186Y010250D03*
D63*
X011476Y010020D03*
X011196Y009970D03*
X011186Y009950D03*
X011176Y009940D03*
X011586Y008370D03*
X011266Y008200D03*
X011256Y008200D03*
D64*
X011186Y008250D03*
X011626Y008440D03*
X011676Y008600D03*
X011786Y009510D03*
D65*
X011506Y010015D03*
X011786Y008725D03*
X011196Y008235D03*
D66*
X011206Y008230D03*
X011216Y008220D03*
X011226Y008220D03*
X011616Y008420D03*
X011396Y009030D03*
D67*
X011396Y009475D03*
X011206Y009975D03*
X011216Y009985D03*
X011226Y009995D03*
X011466Y010025D03*
X011276Y008195D03*
D68*
X011236Y008215D03*
X011606Y008405D03*
X011496Y010015D03*
D69*
X011246Y010010D03*
X011236Y010000D03*
X011576Y008360D03*
X011286Y008200D03*
D70*
X011736Y008435D03*
X011256Y008575D03*
X011636Y008825D03*
X011736Y009805D03*
D71*
X011326Y010000D03*
X011306Y009990D03*
X011296Y009980D03*
X011286Y009980D03*
X011276Y009970D03*
X011266Y009970D03*
X011476Y008280D03*
D72*
X011296Y008590D03*
X011306Y008600D03*
X011566Y009080D03*
D73*
X011556Y008330D03*
X011306Y008190D03*
X011446Y010020D03*
D74*
X011436Y010025D03*
X011316Y008195D03*
D75*
X011326Y008195D03*
X011536Y008315D03*
X011416Y010025D03*
D76*
X011406Y010020D03*
X011336Y008200D03*
D77*
X011346Y008205D03*
X011526Y008305D03*
X011626Y009725D03*
D78*
X011396Y010020D03*
X011386Y010020D03*
X011516Y008300D03*
X011356Y008210D03*
D79*
X011366Y008215D03*
X011496Y008295D03*
X011506Y008295D03*
X011376Y010015D03*
X011366Y010015D03*
D80*
X011416Y008335D03*
X011386Y008325D03*
D81*
X011396Y008320D03*
D82*
X011406Y008325D03*
X011566Y009755D03*
D83*
X011406Y009270D03*
D84*
X011416Y009365D03*
X011426Y009365D03*
D85*
X011426Y008295D03*
D86*
X011546Y008320D03*
X011636Y009710D03*
X011426Y010020D03*
D87*
X011436Y008290D03*
D88*
X011436Y009360D03*
X011446Y009360D03*
X011456Y009370D03*
X011506Y009400D03*
D89*
X011596Y009745D03*
X011446Y008285D03*
D90*
X011456Y008285D03*
D91*
X011466Y008280D03*
D92*
X011516Y009620D03*
D93*
X011526Y009615D03*
X011536Y009595D03*
D94*
X011546Y009550D03*
D95*
X011556Y009740D03*
D96*
X011606Y008815D03*
X011576Y008785D03*
X011566Y008775D03*
D97*
X011586Y009750D03*
D98*
X011606Y009745D03*
X011826Y009115D03*
D99*
X011626Y008850D03*
X011616Y008830D03*
D100*
X011656Y008515D03*
X011646Y008485D03*
X011636Y008455D03*
D101*
X011656Y009475D03*
D102*
X011666Y009420D03*
D103*
X011676Y009360D03*
D104*
X011696Y009120D03*
D105*
X011706Y009115D03*
D106*
X011806Y009115D03*
D107*
X011816Y009120D03*
D108*
X010352Y008737D02*
X010352Y008593D01*
X010162Y008573D01*
X010141Y008509D01*
X010110Y008450D01*
X010231Y008301D01*
X010130Y008199D01*
X009981Y008320D01*
X009921Y008290D01*
X009857Y008269D01*
X009838Y008079D01*
X009694Y008079D01*
X009675Y008269D01*
X009611Y008290D01*
X009551Y008320D01*
X009402Y008199D01*
X009301Y008301D01*
X009422Y008450D01*
X009391Y008509D01*
X009596Y008594D01*
X009617Y008556D01*
X009646Y008524D01*
X009682Y008500D01*
X009723Y008485D01*
X009766Y008480D01*
X009810Y008485D01*
X009851Y008501D01*
X009888Y008526D01*
X009917Y008559D01*
X009938Y008598D01*
X009949Y008641D01*
X009949Y008685D01*
X009939Y008728D01*
X009919Y008767D01*
X009891Y008801D01*
X009855Y008826D01*
X009814Y008843D01*
X009770Y008849D01*
X009726Y008845D01*
X009684Y008830D01*
X009647Y008806D01*
X009617Y008774D01*
X009596Y008735D01*
X009391Y008820D01*
X009422Y008880D01*
X009301Y009028D01*
X009402Y009130D01*
X009551Y009009D01*
X009611Y009040D01*
X009675Y009060D01*
X009694Y009251D01*
X009838Y009251D01*
X009857Y009060D01*
X009921Y009040D01*
X009981Y009009D01*
X010130Y009130D01*
X010231Y009028D01*
X010110Y008880D01*
X010141Y008820D01*
X010162Y008756D01*
X010352Y008737D01*
X010352Y008701D02*
X009946Y008701D01*
X009949Y008643D02*
X010352Y008643D01*
X010284Y008586D02*
X009932Y008586D01*
X009890Y008528D02*
X010147Y008528D01*
X010121Y008471D02*
X009411Y008471D01*
X009392Y008413D02*
X010140Y008413D01*
X010187Y008356D02*
X009345Y008356D01*
X009304Y008298D02*
X009523Y008298D01*
X009594Y008298D02*
X009938Y008298D01*
X010009Y008298D02*
X010228Y008298D01*
X010171Y008240D02*
X010079Y008240D01*
X009854Y008240D02*
X009678Y008240D01*
X009683Y008183D02*
X009849Y008183D01*
X009843Y008125D02*
X009689Y008125D01*
X009453Y008240D02*
X009361Y008240D01*
X009437Y008528D02*
X009643Y008528D01*
X009600Y008586D02*
X009576Y008586D01*
X009540Y008758D02*
X009609Y008758D01*
X009663Y008816D02*
X009401Y008816D01*
X009418Y008874D02*
X010114Y008874D01*
X010142Y008816D02*
X009869Y008816D01*
X009924Y008758D02*
X010161Y008758D01*
X010152Y008931D02*
X009380Y008931D01*
X009333Y008989D02*
X010199Y008989D01*
X010213Y009046D02*
X010027Y009046D01*
X010097Y009104D02*
X010156Y009104D01*
X009901Y009046D02*
X009631Y009046D01*
X009679Y009104D02*
X009853Y009104D01*
X009847Y009161D02*
X009685Y009161D01*
X009691Y009219D02*
X009841Y009219D01*
X009505Y009046D02*
X009319Y009046D01*
X009376Y009104D02*
X009435Y009104D01*
M02*
