G75*
G70*
%OFA0B0*%
%FSLAX24Y24*%
%IPPOS*%
%LPD*%
%AMOC8*
5,1,8,0,0,1.08239X$1,22.5*
%
%ADD10C,0.0050*%
%ADD11R,0.0010X0.0240*%
%ADD12R,0.0010X0.0550*%
%ADD13R,0.0010X0.0710*%
%ADD14R,0.0010X0.0860*%
%ADD15R,0.0010X0.1010*%
%ADD16R,0.0010X0.0450*%
%ADD17R,0.0010X0.0340*%
%ADD18R,0.0010X0.0300*%
%ADD19R,0.0010X0.0310*%
%ADD20R,0.0010X0.0270*%
%ADD21R,0.0010X0.0250*%
%ADD22R,0.0010X0.0540*%
%ADD23R,0.0010X0.0210*%
%ADD24R,0.0010X0.0690*%
%ADD25R,0.0010X0.0170*%
%ADD26R,0.0010X0.0830*%
%ADD27R,0.0010X0.0180*%
%ADD28R,0.0010X0.0150*%
%ADD29R,0.0010X0.0970*%
%ADD30R,0.0010X0.0160*%
%ADD31R,0.0010X0.1100*%
%ADD32R,0.0010X0.1230*%
%ADD33R,0.0010X0.0140*%
%ADD34R,0.0010X0.1330*%
%ADD35R,0.0010X0.1390*%
%ADD36R,0.0010X0.0130*%
%ADD37R,0.0010X0.1470*%
%ADD38R,0.0010X0.0120*%
%ADD39R,0.0010X0.1560*%
%ADD40R,0.0010X0.0110*%
%ADD41R,0.0010X0.1610*%
%ADD42R,0.0010X0.0100*%
%ADD43R,0.0010X0.1670*%
%ADD44R,0.0010X0.1720*%
%ADD45R,0.0010X0.1770*%
%ADD46R,0.0010X0.0090*%
%ADD47R,0.0010X0.1810*%
%ADD48R,0.0010X0.0080*%
%ADD49R,0.0010X0.0260*%
%ADD50R,0.0010X0.0400*%
%ADD51R,0.0010X0.0230*%
%ADD52R,0.0010X0.0050*%
%ADD53R,0.0010X0.0070*%
%ADD54R,0.0010X0.0320*%
%ADD55R,0.0010X0.0010*%
%ADD56R,0.0010X0.0040*%
%ADD57R,0.0010X0.0330*%
%ADD58R,0.0010X0.0020*%
%ADD59R,0.0010X0.0200*%
%ADD60R,0.0010X0.0030*%
%ADD61R,0.0010X0.0410*%
%ADD62R,0.0010X0.0060*%
%ADD63R,0.0010X0.0420*%
%ADD64R,0.0010X0.0360*%
%ADD65R,0.0010X0.0370*%
%ADD66R,0.0010X0.0380*%
%ADD67R,0.0010X0.0430*%
%ADD68R,0.0010X0.0390*%
%ADD69R,0.0010X0.0440*%
%ADD70R,0.0010X0.0190*%
%ADD71R,0.0010X0.0560*%
%ADD72R,0.0010X0.0220*%
%ADD73R,0.0010X0.0460*%
%ADD74R,0.0010X0.0470*%
%ADD75R,0.0010X0.0490*%
%ADD76R,0.0010X0.0500*%
%ADD77R,0.0010X0.0510*%
%ADD78R,0.0010X0.0520*%
%ADD79R,0.0010X0.0530*%
%ADD80R,0.0010X0.0750*%
%ADD81R,0.0010X0.0740*%
%ADD82R,0.0010X0.0730*%
%ADD83R,0.0010X0.0840*%
%ADD84R,0.0010X0.0670*%
%ADD85R,0.0010X0.0650*%
%ADD86R,0.0010X0.0480*%
%ADD87R,0.0010X0.0620*%
%ADD88R,0.0010X0.0700*%
%ADD89R,0.0010X0.0610*%
%ADD90R,0.0010X0.0590*%
%ADD91R,0.0010X0.0580*%
%ADD92R,0.0010X0.1140*%
%ADD93R,0.0010X0.1130*%
%ADD94R,0.0010X0.1200*%
%ADD95R,0.0010X0.0780*%
%ADD96R,0.0010X0.0290*%
%ADD97R,0.0010X0.0640*%
%ADD98R,0.0010X0.0570*%
%ADD99R,0.0010X0.0280*%
%ADD100R,0.0010X0.0350*%
%ADD101R,0.0010X0.0850*%
%ADD102R,0.0010X0.0880*%
%ADD103R,0.0010X0.0900*%
%ADD104R,0.0010X0.1240*%
%ADD105R,0.0010X0.1110*%
%ADD106R,0.0010X0.0870*%
%ADD107R,0.0010X0.0720*%
%ADD108C,0.0030*%
%ADD109C,0.0100*%
%ADD110C,0.0080*%
%ADD111C,0.0060*%
%ADD112C,0.0020*%
%ADD113C,0.0160*%
%ADD114C,0.0250*%
%ADD115C,0.0059*%
D10*
X010311Y004844D02*
X010311Y004945D01*
X010921Y004945D01*
X010921Y004844D02*
X010921Y005047D01*
X010921Y005249D02*
X010921Y005554D01*
X010819Y005656D01*
X010718Y005554D01*
X010718Y005351D01*
X010616Y005249D01*
X010514Y005351D01*
X010514Y005656D01*
X010616Y005857D02*
X010819Y005857D01*
X010921Y005958D01*
X010921Y006162D01*
X010819Y006264D01*
X010616Y006264D01*
X010514Y006162D01*
X010514Y005958D01*
X010616Y005857D01*
X011231Y005844D02*
X011231Y005641D01*
X011332Y005539D01*
X011434Y005539D01*
X011536Y005641D01*
X011536Y005844D01*
X011638Y005946D01*
X011739Y005946D01*
X011841Y005844D01*
X011841Y005641D01*
X011739Y005539D01*
X011638Y005539D01*
X011536Y005641D01*
X011536Y005844D02*
X011434Y005946D01*
X011332Y005946D01*
X011231Y005844D01*
X011536Y006147D02*
X011536Y006554D01*
X011434Y006754D02*
X011231Y006958D01*
X011841Y006958D01*
X011841Y007161D02*
X011841Y006754D01*
X011739Y007362D02*
X011841Y007464D01*
X011841Y007667D01*
X011739Y007769D01*
X011638Y007769D01*
X011536Y007667D01*
X011536Y007565D01*
X011536Y007667D02*
X011434Y007769D01*
X011332Y007769D01*
X011231Y007667D01*
X011231Y007464D01*
X011332Y007362D01*
X010921Y007275D02*
X010311Y007275D01*
X010514Y007072D01*
X010616Y006871D02*
X010921Y006871D01*
X010921Y007072D02*
X010921Y007479D01*
X010616Y006871D02*
X010514Y006770D01*
X010514Y006464D01*
X010921Y006464D01*
X011332Y005338D02*
X011231Y005236D01*
X011231Y005033D01*
X011332Y004931D01*
X011536Y004730D02*
X011536Y004323D01*
X011841Y004123D02*
X011841Y003716D01*
X011739Y003515D02*
X011841Y003413D01*
X011841Y003210D01*
X011739Y003108D01*
X011332Y003515D01*
X011739Y003515D01*
X011434Y003716D02*
X011231Y003919D01*
X011841Y003919D01*
X011332Y003515D02*
X011231Y003413D01*
X011231Y003210D01*
X011332Y003108D01*
X011739Y003108D01*
X010921Y003021D02*
X010921Y003428D01*
X010921Y003628D02*
X010514Y003628D01*
X010514Y003933D01*
X010616Y004035D01*
X010921Y004035D01*
X010819Y004236D02*
X010616Y004236D01*
X010514Y004338D01*
X010514Y004541D01*
X010616Y004643D01*
X010718Y004643D01*
X010718Y004236D01*
X010819Y004236D02*
X010921Y004338D01*
X010921Y004541D01*
X011434Y005338D02*
X011841Y004931D01*
X011841Y005338D01*
X011434Y005338D02*
X011332Y005338D01*
X010514Y003428D02*
X010921Y003021D01*
X010514Y003021D02*
X010514Y003428D01*
D11*
X010846Y008430D03*
X010836Y008440D03*
X011286Y008940D03*
D12*
X011276Y008935D03*
X010426Y008935D03*
X010826Y009825D03*
X010836Y009825D03*
X010856Y009815D03*
D13*
X011266Y008935D03*
D14*
X011256Y008940D03*
D15*
X011246Y008935D03*
X010376Y008935D03*
D16*
X010526Y009515D03*
X010916Y009835D03*
X010716Y009845D03*
X011236Y009285D03*
X011236Y008595D03*
X010876Y008015D03*
X010606Y008165D03*
D17*
X010506Y008370D03*
X010996Y008080D03*
X011226Y008490D03*
X011226Y009390D03*
D18*
X011046Y008580D03*
X011216Y008430D03*
X010586Y008610D03*
X010576Y008620D03*
D19*
X011046Y008165D03*
X011036Y008145D03*
X011216Y009445D03*
D20*
X011206Y009505D03*
X011206Y008375D03*
D21*
X011196Y008315D03*
X011036Y008575D03*
X010336Y008935D03*
X011196Y009565D03*
D22*
X010816Y009830D03*
X010556Y009560D03*
X011196Y008940D03*
X010686Y008110D03*
X010796Y008040D03*
D23*
X011186Y008265D03*
X010886Y008405D03*
X010816Y008465D03*
X010806Y008475D03*
X010796Y008475D03*
X011026Y008585D03*
X010416Y008335D03*
X011016Y009135D03*
X011026Y009135D03*
X010416Y009545D03*
X011186Y009615D03*
D24*
X010596Y009575D03*
X010676Y009215D03*
X010686Y009215D03*
X010696Y009205D03*
X010706Y009205D03*
X010436Y008935D03*
X011186Y008935D03*
D25*
X010986Y009135D03*
X010976Y009135D03*
X010536Y009125D03*
X010446Y009665D03*
X010926Y008385D03*
X011176Y008215D03*
X010446Y008215D03*
D26*
X010446Y008935D03*
X011176Y008935D03*
D27*
X010996Y009130D03*
X011176Y009660D03*
D28*
X011156Y009735D03*
X010906Y009365D03*
X010466Y009735D03*
X010596Y008875D03*
X010756Y008745D03*
X010456Y008175D03*
X010466Y008145D03*
X010476Y008115D03*
X010486Y008085D03*
X011136Y008085D03*
X011146Y008115D03*
X011156Y008145D03*
X011166Y008175D03*
D29*
X011166Y008935D03*
X010456Y008935D03*
D30*
X010966Y009140D03*
X011166Y009700D03*
X010456Y009700D03*
D31*
X011156Y008940D03*
D32*
X011146Y008935D03*
D33*
X011046Y008870D03*
X010926Y008800D03*
X010916Y008810D03*
X010906Y008810D03*
X010896Y008810D03*
X010786Y008730D03*
X010936Y008380D03*
X011126Y008060D03*
X011116Y008040D03*
X010936Y009350D03*
X010916Y009360D03*
X010896Y009370D03*
X010886Y009370D03*
X011146Y009760D03*
X011136Y009790D03*
X010486Y009790D03*
X010476Y009760D03*
D34*
X010486Y008935D03*
X011136Y008935D03*
D35*
X011126Y008935D03*
D36*
X011036Y008885D03*
X010946Y008795D03*
X010936Y008795D03*
X010886Y008815D03*
X010876Y008825D03*
X010866Y008825D03*
X010796Y008715D03*
X011016Y008545D03*
X010496Y008055D03*
X010786Y009285D03*
X010876Y009375D03*
X010926Y009355D03*
X010946Y009345D03*
X011126Y009815D03*
X011116Y009835D03*
D37*
X011116Y008935D03*
D38*
X010956Y008790D03*
X010856Y008830D03*
X010806Y008700D03*
X010956Y008600D03*
X011006Y008550D03*
X010946Y008370D03*
X010636Y008510D03*
X010626Y008510D03*
X010616Y008510D03*
X010616Y008660D03*
X010876Y009190D03*
X010956Y009340D03*
X010866Y009380D03*
X010856Y009390D03*
X010496Y009820D03*
X011096Y009880D03*
X011106Y009860D03*
X011106Y008020D03*
D39*
X011106Y008940D03*
D40*
X011026Y008895D03*
X011016Y008905D03*
X010966Y008785D03*
X010816Y008695D03*
X010896Y008635D03*
X010916Y008625D03*
X010926Y008615D03*
X010946Y008605D03*
X010966Y008595D03*
X010976Y008585D03*
X010716Y008595D03*
X010646Y008645D03*
X010626Y008655D03*
X010586Y008865D03*
X010786Y008955D03*
X010886Y009185D03*
X010966Y009335D03*
X010646Y008505D03*
X010506Y008025D03*
X011096Y007995D03*
D41*
X011096Y008935D03*
D42*
X010976Y008780D03*
X010846Y008830D03*
X010826Y008680D03*
X010836Y008670D03*
X010856Y008660D03*
X010886Y008640D03*
X010906Y008630D03*
X010936Y008610D03*
X010986Y008570D03*
X010996Y008560D03*
X010696Y008610D03*
X010686Y008620D03*
X010676Y008630D03*
X010666Y008640D03*
X010656Y008640D03*
X010636Y008650D03*
X010956Y008370D03*
X010516Y008000D03*
X010556Y007920D03*
X010566Y007900D03*
X011066Y007930D03*
X011076Y007950D03*
X011086Y007970D03*
X010896Y009180D03*
X010796Y009280D03*
X010846Y009390D03*
X011046Y009370D03*
X011086Y009900D03*
X011076Y009920D03*
X010566Y009970D03*
X010556Y009950D03*
X010546Y009930D03*
X010536Y009910D03*
X010526Y009890D03*
X010516Y009870D03*
X010506Y009850D03*
D43*
X011086Y008935D03*
D44*
X011076Y008940D03*
D45*
X011066Y008935D03*
D46*
X011006Y008915D03*
X010996Y008925D03*
X010986Y008935D03*
X010976Y008935D03*
X010966Y008945D03*
X010796Y008955D03*
X010846Y008665D03*
X010866Y008655D03*
X010876Y008645D03*
X010706Y008605D03*
X010656Y008495D03*
X010526Y007985D03*
X010536Y007965D03*
X010546Y007945D03*
X010576Y007885D03*
X011046Y007895D03*
X011056Y007915D03*
X010976Y009325D03*
X010836Y009395D03*
X011066Y009945D03*
D47*
X011056Y008935D03*
D48*
X010956Y008950D03*
X010946Y008960D03*
X010936Y008970D03*
X010926Y008970D03*
X010916Y008980D03*
X010836Y008840D03*
X010706Y008750D03*
X010726Y008560D03*
X010666Y008490D03*
X010986Y008780D03*
X010806Y009280D03*
X010986Y009320D03*
X010936Y009530D03*
X010926Y009530D03*
X010916Y009540D03*
X011056Y009960D03*
X011046Y009980D03*
X011016Y010030D03*
X010586Y010010D03*
X010576Y009990D03*
X010586Y007870D03*
X011016Y007850D03*
X011026Y007860D03*
X011036Y007880D03*
D49*
X010396Y008450D03*
X010616Y008910D03*
X011046Y009150D03*
X010396Y009430D03*
D50*
X010686Y009840D03*
X011016Y009730D03*
X011026Y009710D03*
X011036Y009690D03*
X011046Y009670D03*
D51*
X011036Y009135D03*
X010406Y009485D03*
X010406Y008395D03*
X010826Y008455D03*
X010856Y008425D03*
D52*
X010746Y008515D03*
X010656Y008775D03*
X010646Y008785D03*
X010826Y008945D03*
X010856Y009015D03*
X010876Y009005D03*
X010946Y009095D03*
X010846Y009255D03*
X010836Y009265D03*
X011036Y009385D03*
X010916Y010135D03*
X010896Y010145D03*
X010876Y010155D03*
X010866Y010155D03*
X010846Y010165D03*
X010836Y010165D03*
X010826Y010165D03*
X010816Y010165D03*
X010806Y010165D03*
X010796Y010165D03*
X010786Y010165D03*
X010776Y010165D03*
X010756Y010155D03*
X010746Y010155D03*
X010726Y010145D03*
X010706Y010135D03*
X010706Y007745D03*
X010726Y007735D03*
X010746Y007725D03*
X010756Y007725D03*
X010776Y007715D03*
X010786Y007715D03*
X010826Y007715D03*
X010836Y007715D03*
X010846Y007715D03*
X010866Y007725D03*
X010876Y007725D03*
X010896Y007735D03*
X010916Y007745D03*
D53*
X010996Y007825D03*
X011006Y007835D03*
X010596Y007855D03*
X010696Y008755D03*
X010746Y008775D03*
X010576Y008865D03*
X010806Y008955D03*
X010896Y008995D03*
X010906Y008985D03*
X010956Y009105D03*
X010906Y009175D03*
X010816Y009275D03*
X010946Y009515D03*
X011036Y009995D03*
X011026Y010015D03*
X011006Y010045D03*
X010996Y010055D03*
X010596Y010025D03*
D54*
X010526Y009100D03*
X011026Y008130D03*
X011016Y008110D03*
D55*
X010996Y008675D03*
X010806Y008865D03*
X010796Y008865D03*
X010856Y008935D03*
X010816Y009115D03*
X010846Y009145D03*
X011026Y009395D03*
X010826Y009475D03*
X010816Y009475D03*
X010716Y008715D03*
D56*
X010696Y008830D03*
X010686Y008830D03*
X010676Y008830D03*
X010566Y008860D03*
X010526Y008660D03*
X010766Y008590D03*
X010676Y008480D03*
X010966Y008360D03*
X011016Y008660D03*
X010846Y009030D03*
X010866Y009240D03*
X010856Y009250D03*
X010796Y009470D03*
X010986Y009490D03*
X010816Y007710D03*
X010806Y007710D03*
X010796Y007710D03*
D57*
X011006Y008095D03*
D58*
X011006Y008670D03*
X010846Y008940D03*
X010926Y009090D03*
X010856Y009140D03*
X010806Y009120D03*
X010956Y009210D03*
X010656Y008840D03*
D59*
X011006Y009130D03*
X010426Y009590D03*
X010896Y008400D03*
X010906Y008400D03*
X010426Y008290D03*
D60*
X010666Y008835D03*
X010706Y008825D03*
X010786Y008865D03*
X010816Y008855D03*
X010836Y008945D03*
X010836Y009035D03*
X010796Y009125D03*
X010866Y009145D03*
X010916Y009175D03*
X010936Y009095D03*
X011006Y009315D03*
X010996Y009475D03*
X010806Y009475D03*
D61*
X011006Y009745D03*
X010576Y008205D03*
X010926Y008025D03*
D62*
X010986Y007810D03*
X010976Y007800D03*
X010966Y007790D03*
X010956Y007780D03*
X010946Y007770D03*
X010936Y007760D03*
X010926Y007750D03*
X010906Y007740D03*
X010886Y007730D03*
X010856Y007720D03*
X010766Y007720D03*
X010736Y007730D03*
X010716Y007740D03*
X010696Y007750D03*
X010686Y007760D03*
X010676Y007770D03*
X010666Y007780D03*
X010656Y007790D03*
X010646Y007800D03*
X010636Y007810D03*
X010626Y007820D03*
X010616Y007830D03*
X010606Y007840D03*
X010736Y008540D03*
X010776Y008570D03*
X010786Y008560D03*
X010686Y008760D03*
X010676Y008760D03*
X010666Y008770D03*
X010636Y008790D03*
X010826Y008850D03*
X010816Y008950D03*
X010866Y009010D03*
X010886Y009000D03*
X010786Y009120D03*
X010826Y009270D03*
X010826Y009400D03*
X010786Y009470D03*
X010956Y009510D03*
X010966Y009500D03*
X010976Y009500D03*
X010996Y009320D03*
X010996Y008780D03*
X010986Y010070D03*
X010976Y010080D03*
X010966Y010090D03*
X010956Y010100D03*
X010946Y010110D03*
X010936Y010120D03*
X010926Y010130D03*
X010906Y010140D03*
X010886Y010150D03*
X010856Y010160D03*
X010766Y010160D03*
X010736Y010150D03*
X010716Y010140D03*
X010696Y010130D03*
X010686Y010120D03*
X010676Y010110D03*
X010666Y010100D03*
X010656Y010090D03*
X010646Y010080D03*
X010636Y010070D03*
X010626Y010060D03*
X010616Y010050D03*
X010606Y010040D03*
D63*
X010696Y009840D03*
X010976Y009790D03*
X010986Y009770D03*
X010996Y009760D03*
X010586Y008190D03*
X010906Y008020D03*
X010916Y008020D03*
D64*
X010986Y008070D03*
X010546Y008260D03*
X010496Y008420D03*
X010386Y009330D03*
D65*
X010666Y009835D03*
X010386Y008545D03*
X010976Y008055D03*
D66*
X010966Y008050D03*
X010956Y008040D03*
X010946Y008040D03*
X010556Y008240D03*
X010776Y008850D03*
D67*
X010776Y009295D03*
X010966Y009795D03*
X010956Y009805D03*
X010946Y009815D03*
X010706Y009845D03*
X010896Y008015D03*
D68*
X010936Y008035D03*
X010566Y008225D03*
X010676Y009835D03*
D69*
X010926Y009830D03*
X010936Y009820D03*
X010596Y008180D03*
X010886Y008020D03*
D70*
X010916Y008395D03*
X010536Y008645D03*
X010436Y008255D03*
X010436Y009625D03*
D71*
X010846Y009820D03*
X010866Y009810D03*
X010876Y009800D03*
X010886Y009800D03*
X010896Y009790D03*
X010906Y009790D03*
X010696Y008100D03*
D72*
X010876Y008410D03*
X010866Y008420D03*
X010606Y008900D03*
D73*
X010616Y008150D03*
X010866Y008010D03*
X010726Y009840D03*
D74*
X010736Y009845D03*
X010856Y008015D03*
D75*
X010846Y008015D03*
X010636Y008135D03*
X010756Y009845D03*
D76*
X010766Y009840D03*
X010836Y008020D03*
D77*
X010826Y008025D03*
X010646Y008125D03*
X010546Y009545D03*
D78*
X010776Y009840D03*
X010786Y009840D03*
X010656Y008120D03*
X010816Y008030D03*
D79*
X010806Y008035D03*
X010676Y008115D03*
X010666Y008115D03*
X010796Y009835D03*
X010806Y009835D03*
D80*
X010756Y008155D03*
X010786Y008145D03*
D81*
X010776Y008140D03*
D82*
X010766Y008145D03*
X010606Y009575D03*
D83*
X010766Y009090D03*
D84*
X010756Y009185D03*
X010746Y009185D03*
D85*
X010746Y008115D03*
D86*
X010626Y008140D03*
X010536Y009530D03*
X010746Y009840D03*
D87*
X010736Y008110D03*
D88*
X010736Y009180D03*
X010726Y009180D03*
X010716Y009190D03*
X010666Y009220D03*
D89*
X010576Y009565D03*
X010726Y008105D03*
D90*
X010716Y008105D03*
D91*
X010706Y008100D03*
D92*
X010656Y009440D03*
D93*
X010646Y009435D03*
X010636Y009415D03*
D94*
X010626Y009370D03*
D95*
X010616Y009560D03*
D96*
X010566Y008635D03*
X010596Y008605D03*
X010606Y008595D03*
D97*
X010586Y009570D03*
D98*
X010566Y009565D03*
X010346Y008935D03*
D99*
X010546Y008670D03*
X010556Y008650D03*
D100*
X010516Y008335D03*
X010526Y008305D03*
X010536Y008275D03*
D101*
X010516Y009295D03*
D102*
X010506Y009240D03*
D103*
X010496Y009180D03*
D104*
X010476Y008940D03*
D105*
X010466Y008935D03*
D106*
X010366Y008935D03*
D107*
X010356Y008940D03*
D108*
X009708Y008680D02*
X009514Y008680D01*
X009611Y008680D02*
X009611Y008970D01*
X009514Y008873D01*
X009413Y008922D02*
X009413Y008970D01*
X009413Y008922D02*
X009316Y008825D01*
X009316Y008680D01*
X009316Y008825D02*
X009220Y008922D01*
X009220Y008970D01*
X009119Y008873D02*
X009119Y008680D01*
X009119Y008825D02*
X008925Y008825D01*
X008925Y008873D02*
X009022Y008970D01*
X009119Y008873D01*
X008925Y008873D02*
X008925Y008680D01*
X008824Y008680D02*
X008727Y008776D01*
X008775Y008776D02*
X008630Y008776D01*
X008630Y008680D02*
X008630Y008970D01*
X008775Y008970D01*
X008824Y008922D01*
X008824Y008825D01*
X008775Y008776D01*
X008529Y008825D02*
X008529Y008922D01*
X008481Y008970D01*
X008336Y008970D01*
X008336Y008680D01*
X008336Y008776D02*
X008481Y008776D01*
X008529Y008825D01*
X008432Y008776D02*
X008529Y008680D01*
X008235Y008680D02*
X008235Y008873D01*
X008138Y008970D01*
X008041Y008873D01*
X008041Y008680D01*
X008041Y008825D02*
X008235Y008825D01*
X007651Y007797D02*
X007651Y007749D01*
X007554Y007749D01*
X007506Y007797D01*
X007409Y007797D01*
X007361Y007749D01*
X007361Y007652D01*
X007409Y007604D01*
X007506Y007604D01*
X007554Y007652D01*
X007651Y007652D01*
X007651Y007604D01*
X007603Y007502D02*
X007409Y007502D01*
X007603Y007309D01*
X007651Y007357D01*
X007651Y007454D01*
X007603Y007502D01*
X007409Y007502D02*
X007361Y007454D01*
X007361Y007357D01*
X007409Y007309D01*
X007603Y007309D01*
X007651Y007208D02*
X007651Y007014D01*
X007458Y007208D01*
X007409Y007208D01*
X007361Y007159D01*
X007361Y007063D01*
X007409Y007014D01*
X007409Y006913D02*
X007361Y006865D01*
X007361Y006768D01*
X007409Y006720D01*
X007409Y006913D02*
X007458Y006913D01*
X007651Y006720D01*
X007651Y006913D01*
X007651Y005477D02*
X007651Y005429D01*
X007554Y005429D01*
X007506Y005477D01*
X007409Y005477D01*
X007361Y005429D01*
X007361Y005332D01*
X007409Y005284D01*
X007506Y005284D01*
X007554Y005332D01*
X007651Y005332D01*
X007651Y005284D01*
X007603Y005182D02*
X007409Y005182D01*
X007603Y004989D01*
X007651Y005037D01*
X007651Y005134D01*
X007603Y005182D01*
X007603Y004989D02*
X007409Y004989D01*
X007361Y005037D01*
X007361Y005134D01*
X007409Y005182D01*
X007409Y004888D02*
X007361Y004839D01*
X007361Y004743D01*
X007409Y004694D01*
X007409Y004593D02*
X007361Y004545D01*
X007361Y004448D01*
X007409Y004400D01*
X007409Y004593D02*
X007458Y004593D01*
X007651Y004400D01*
X007651Y004593D01*
X007651Y004694D02*
X007458Y004888D01*
X007409Y004888D01*
X007651Y004888D02*
X007651Y004694D01*
X008138Y003990D02*
X008235Y003893D01*
X008235Y003700D01*
X008336Y003700D02*
X008336Y003990D01*
X008481Y003990D01*
X008529Y003942D01*
X008529Y003845D01*
X008481Y003796D01*
X008336Y003796D01*
X008432Y003796D02*
X008529Y003700D01*
X008630Y003700D02*
X008630Y003990D01*
X008775Y003990D01*
X008824Y003942D01*
X008824Y003845D01*
X008775Y003796D01*
X008630Y003796D01*
X008727Y003796D02*
X008824Y003700D01*
X008925Y003700D02*
X008925Y003893D01*
X009022Y003990D01*
X009119Y003893D01*
X009119Y003700D01*
X009119Y003845D02*
X008925Y003845D01*
X009220Y003942D02*
X009316Y003845D01*
X009316Y003700D01*
X009316Y003845D02*
X009413Y003942D01*
X009413Y003990D01*
X009514Y003942D02*
X009563Y003990D01*
X009659Y003990D01*
X009708Y003942D01*
X009708Y003893D01*
X009514Y003700D01*
X009708Y003700D01*
X009220Y003942D02*
X009220Y003990D01*
X008235Y003845D02*
X008041Y003845D01*
X008041Y003893D02*
X008041Y003700D01*
X008041Y003893D02*
X008138Y003990D01*
X006480Y004240D02*
X006286Y004240D01*
X006383Y004240D02*
X006383Y004530D01*
X006286Y004433D01*
X006185Y004530D02*
X005991Y004530D01*
X006088Y004530D02*
X006088Y004240D01*
X005794Y004385D02*
X005697Y004385D01*
X005697Y004240D02*
X005697Y004530D01*
X005890Y004530D01*
X005597Y004530D02*
X005500Y004530D01*
X005549Y004530D02*
X005549Y004240D01*
X005597Y004240D02*
X005500Y004240D01*
X005399Y004240D02*
X005399Y004530D01*
X005206Y004530D02*
X005206Y004240D01*
X005105Y004288D02*
X005056Y004240D01*
X004959Y004240D01*
X004911Y004288D01*
X004959Y004385D02*
X005056Y004385D01*
X005105Y004336D01*
X005105Y004288D01*
X005206Y004385D02*
X005399Y004385D01*
X005105Y004482D02*
X005056Y004530D01*
X004959Y004530D01*
X004911Y004482D01*
X004911Y004433D01*
X004959Y004385D01*
X001865Y005485D02*
X001591Y005485D01*
X001659Y005485D02*
X001659Y005280D01*
X001523Y005417D02*
X001728Y005622D01*
X001622Y005659D02*
X001622Y005728D01*
X001554Y005796D01*
X001485Y005796D01*
X001349Y005659D01*
X001349Y005591D01*
X001417Y005522D01*
X001485Y005522D01*
X001243Y005697D02*
X001243Y005833D01*
X001277Y005799D02*
X001174Y005902D01*
X001106Y005833D02*
X001311Y006039D01*
X001414Y005936D01*
X001414Y005868D01*
X001345Y005799D01*
X001277Y005799D01*
X000868Y005452D02*
X000800Y005520D01*
X000731Y005520D01*
X000697Y005486D01*
X000697Y005417D01*
X000766Y005349D01*
X000766Y005281D01*
X000731Y005246D01*
X000663Y005246D01*
X000595Y005315D01*
X000595Y005383D01*
X000868Y005383D02*
X000868Y005452D01*
X000974Y005346D02*
X000769Y005141D01*
X000906Y005004D01*
X000977Y004932D02*
X001182Y005138D01*
X001285Y005035D01*
X001285Y004967D01*
X001216Y004898D01*
X001148Y004898D01*
X001045Y005001D01*
X001114Y004932D02*
X001114Y004796D01*
X001185Y004724D02*
X001254Y004656D01*
X001220Y004690D02*
X001425Y004895D01*
X001391Y004929D02*
X001459Y004861D01*
X001461Y004722D02*
X001598Y004722D01*
X001598Y004585D01*
X001461Y004448D01*
X001533Y004377D02*
X001669Y004240D01*
X001533Y004377D02*
X001738Y004582D01*
X001564Y004551D02*
X001427Y004688D01*
X001461Y004722D02*
X001324Y004585D01*
X000940Y005175D02*
X000871Y005243D01*
X000974Y005346D02*
X001111Y005209D01*
X001749Y006320D02*
X001749Y006525D01*
X001681Y006525D02*
X001955Y006525D01*
X001818Y006662D02*
X001613Y006457D01*
X001575Y006562D02*
X001507Y006562D01*
X001439Y006631D01*
X001439Y006699D01*
X001575Y006836D01*
X001644Y006836D01*
X001712Y006768D01*
X001712Y006699D01*
X001504Y006908D02*
X001504Y006976D01*
X001435Y007044D01*
X001367Y007044D01*
X001333Y007010D01*
X001333Y006942D01*
X001401Y006873D01*
X001401Y006805D01*
X001367Y006771D01*
X001299Y006771D01*
X001230Y006839D01*
X001230Y006908D01*
X000861Y006918D02*
X000861Y006724D01*
X000861Y006821D02*
X000571Y006821D01*
X000668Y006724D01*
X000619Y006623D02*
X000571Y006575D01*
X000571Y006478D01*
X000619Y006430D01*
X000813Y006430D01*
X000861Y006478D01*
X000861Y006575D01*
X000813Y006623D01*
X001645Y007474D02*
X001577Y007543D01*
X001577Y007611D01*
X001714Y007748D01*
X001782Y007748D01*
X001851Y007679D01*
X001851Y007611D01*
X001714Y007474D02*
X001645Y007474D01*
X001505Y007682D02*
X001437Y007682D01*
X001369Y007751D01*
X001369Y007819D01*
X001505Y007956D01*
X001574Y007956D01*
X001642Y007888D01*
X001642Y007819D01*
X001468Y008062D02*
X001331Y007925D01*
X001194Y007925D01*
X001194Y008062D01*
X001331Y008199D01*
X001615Y008504D02*
X001684Y008504D01*
X001821Y008641D01*
X001821Y008709D01*
X001718Y008812D01*
X001513Y008607D01*
X001615Y008504D01*
X001441Y008678D02*
X001646Y008884D01*
X001510Y009020D02*
X001441Y008678D01*
X001304Y008815D02*
X001510Y009020D01*
X001404Y009058D02*
X001404Y009126D01*
X001335Y009194D01*
X001267Y009194D01*
X001130Y009058D01*
X001130Y008989D01*
X001199Y008921D01*
X001267Y008921D01*
X001335Y008989D01*
X001267Y009058D01*
X001846Y009496D02*
X001914Y009564D01*
X001880Y009530D02*
X001675Y009735D01*
X001641Y009701D02*
X001709Y009770D01*
X001780Y009840D02*
X002122Y009772D01*
X001917Y009977D01*
X001988Y010048D02*
X002091Y010151D01*
X002159Y010151D01*
X002228Y010083D01*
X002228Y010014D01*
X002125Y009912D01*
X002193Y009843D02*
X001988Y010048D01*
X001780Y009840D02*
X001985Y009635D01*
X002367Y010086D02*
X002436Y010086D01*
X002504Y010154D01*
X002504Y010223D01*
X002333Y010394D01*
X002405Y010465D02*
X002542Y010602D01*
X002473Y010533D02*
X002678Y010328D01*
X002716Y010571D02*
X002853Y010708D01*
X002716Y010708D02*
X002853Y010571D01*
X002367Y010086D02*
X002196Y010257D01*
X005591Y001440D02*
X005785Y001440D01*
X005785Y001392D01*
X005591Y001198D01*
X005591Y001150D01*
X005886Y001198D02*
X005934Y001150D01*
X006031Y001150D01*
X006079Y001198D01*
X006079Y001246D01*
X006031Y001295D01*
X005934Y001295D01*
X005886Y001343D01*
X005886Y001392D01*
X005934Y001440D01*
X006031Y001440D01*
X006079Y001392D01*
X006180Y001440D02*
X006180Y001150D01*
X006374Y001150D01*
X006475Y001198D02*
X006523Y001150D01*
X006620Y001150D01*
X006669Y001198D01*
X006669Y001295D01*
X006572Y001295D01*
X006669Y001392D02*
X006620Y001440D01*
X006523Y001440D01*
X006475Y001392D01*
X006475Y001198D01*
X006277Y001295D02*
X006180Y001295D01*
X006180Y001440D02*
X006374Y001440D01*
X006770Y001440D02*
X006770Y001150D01*
X006963Y001150D02*
X006963Y001440D01*
X006866Y001343D01*
X006770Y001440D01*
X007064Y001440D02*
X007064Y001150D01*
X007258Y001150D01*
X007359Y001150D02*
X007359Y001440D01*
X007552Y001150D01*
X007552Y001440D01*
X007654Y001440D02*
X007847Y001440D01*
X007750Y001440D02*
X007750Y001150D01*
X007258Y001440D02*
X007064Y001440D01*
X007064Y001295D02*
X007161Y001295D01*
D109*
X009589Y001743D02*
X003093Y001743D01*
X003093Y011586D01*
X010179Y011586D01*
X010179Y002334D01*
X009589Y001743D01*
D110*
X009156Y003515D02*
X009158Y003545D01*
X009164Y003575D01*
X009173Y003604D01*
X009186Y003631D01*
X009203Y003656D01*
X009222Y003679D01*
X009245Y003700D01*
X009270Y003717D01*
X009296Y003731D01*
X009325Y003741D01*
X009354Y003748D01*
X009384Y003751D01*
X009415Y003750D01*
X009445Y003745D01*
X009474Y003736D01*
X009501Y003724D01*
X009527Y003709D01*
X009551Y003690D01*
X009572Y003668D01*
X009590Y003644D01*
X009605Y003617D01*
X009616Y003589D01*
X009624Y003560D01*
X009628Y003530D01*
X009628Y003500D01*
X009624Y003470D01*
X009616Y003441D01*
X009605Y003413D01*
X009590Y003386D01*
X009572Y003362D01*
X009551Y003340D01*
X009527Y003321D01*
X009501Y003306D01*
X009474Y003294D01*
X009445Y003285D01*
X009415Y003280D01*
X009384Y003279D01*
X009354Y003282D01*
X009325Y003289D01*
X009296Y003299D01*
X009270Y003313D01*
X009245Y003330D01*
X009222Y003351D01*
X009203Y003374D01*
X009186Y003399D01*
X009173Y003426D01*
X009164Y003455D01*
X009158Y003485D01*
X009156Y003515D01*
X009844Y004125D02*
X007828Y004125D01*
X007828Y006204D01*
X009844Y006204D01*
X009844Y004125D01*
X009844Y006425D02*
X007828Y006425D01*
X007828Y008504D01*
X009844Y008504D01*
X009844Y006425D01*
D111*
X006406Y004815D02*
X006404Y004792D01*
X006399Y004769D01*
X006390Y004747D01*
X006377Y004727D01*
X006362Y004709D01*
X006344Y004694D01*
X006324Y004681D01*
X006302Y004672D01*
X006279Y004667D01*
X006256Y004665D01*
X005836Y004665D01*
X005436Y004665D01*
X005016Y004665D01*
X004993Y004667D01*
X004970Y004672D01*
X004948Y004681D01*
X004928Y004694D01*
X004910Y004709D01*
X004895Y004727D01*
X004882Y004747D01*
X004873Y004769D01*
X004868Y004792D01*
X004866Y004815D01*
X005436Y004665D02*
X005438Y004692D01*
X005443Y004719D01*
X005453Y004745D01*
X005465Y004769D01*
X005481Y004791D01*
X005499Y004811D01*
X005521Y004828D01*
X005544Y004843D01*
X005569Y004853D01*
X005595Y004861D01*
X005622Y004865D01*
X005650Y004865D01*
X005677Y004861D01*
X005703Y004853D01*
X005728Y004843D01*
X005751Y004828D01*
X005773Y004811D01*
X005791Y004791D01*
X005807Y004769D01*
X005819Y004745D01*
X005829Y004719D01*
X005834Y004692D01*
X005836Y004665D01*
X006406Y008515D02*
X006404Y008538D01*
X006399Y008561D01*
X006390Y008583D01*
X006377Y008603D01*
X006362Y008621D01*
X006344Y008636D01*
X006324Y008649D01*
X006302Y008658D01*
X006279Y008663D01*
X006256Y008665D01*
X005016Y008665D01*
X004993Y008663D01*
X004970Y008658D01*
X004948Y008649D01*
X004928Y008636D01*
X004910Y008621D01*
X004895Y008603D01*
X004882Y008583D01*
X004873Y008561D01*
X004868Y008538D01*
X004866Y008515D01*
D112*
X006266Y008665D02*
X006266Y004665D01*
D113*
X001148Y006665D02*
X001124Y006665D01*
D114*
X008649Y005915D03*
X008649Y008215D03*
D115*
X011470Y008363D02*
X011660Y008343D01*
X011681Y008279D01*
X011712Y008220D01*
X011591Y008071D01*
X011692Y007969D01*
X011841Y008090D01*
X011901Y008060D01*
X011965Y008039D01*
X011984Y007849D01*
X012128Y007849D01*
X012147Y008039D01*
X012211Y008060D01*
X012271Y008090D01*
X012420Y007969D01*
X012521Y008071D01*
X012400Y008220D01*
X012431Y008279D01*
X012227Y008364D01*
X012205Y008326D01*
X012176Y008294D01*
X012140Y008270D01*
X012099Y008255D01*
X012056Y008250D01*
X012012Y008255D01*
X011971Y008271D01*
X011934Y008296D01*
X011905Y008329D01*
X011884Y008368D01*
X011873Y008411D01*
X011873Y008455D01*
X011883Y008498D01*
X011903Y008537D01*
X011931Y008571D01*
X011967Y008596D01*
X012008Y008613D01*
X012052Y008619D01*
X012096Y008615D01*
X012138Y008600D01*
X012175Y008576D01*
X012205Y008544D01*
X012227Y008505D01*
X012431Y008590D01*
X012400Y008650D01*
X012521Y008798D01*
X012420Y008900D01*
X012271Y008779D01*
X012211Y008810D01*
X012147Y008830D01*
X012128Y009021D01*
X011984Y009021D01*
X011965Y008830D01*
X011901Y008810D01*
X011841Y008779D01*
X011692Y008900D01*
X011591Y008798D01*
X011712Y008650D01*
X011681Y008590D01*
X011660Y008526D01*
X011470Y008507D01*
X011470Y008363D01*
X011470Y008413D02*
X011873Y008413D01*
X011876Y008471D02*
X011470Y008471D01*
X011540Y008356D02*
X011891Y008356D01*
X011933Y008298D02*
X011675Y008298D01*
X011701Y008240D02*
X012411Y008240D01*
X012430Y008183D02*
X011682Y008183D01*
X011635Y008125D02*
X012477Y008125D01*
X012518Y008068D02*
X012299Y008068D01*
X012227Y008068D02*
X011885Y008068D01*
X011813Y008068D02*
X011594Y008068D01*
X011652Y008010D02*
X011743Y008010D01*
X011968Y008010D02*
X012144Y008010D01*
X012139Y007953D02*
X011974Y007953D01*
X011979Y007895D02*
X012133Y007895D01*
X012370Y008010D02*
X012461Y008010D01*
X012386Y008298D02*
X012179Y008298D01*
X012222Y008356D02*
X012247Y008356D01*
X012214Y008528D02*
X012282Y008528D01*
X012160Y008586D02*
X012421Y008586D01*
X012404Y008643D02*
X011708Y008643D01*
X011680Y008586D02*
X011952Y008586D01*
X011898Y008528D02*
X011661Y008528D01*
X011670Y008701D02*
X012442Y008701D01*
X012489Y008758D02*
X011623Y008758D01*
X011608Y008816D02*
X011796Y008816D01*
X011725Y008874D02*
X011666Y008874D01*
X011920Y008816D02*
X012192Y008816D01*
X012143Y008874D02*
X011969Y008874D01*
X011975Y008931D02*
X012137Y008931D01*
X012131Y008989D02*
X011981Y008989D01*
X012317Y008816D02*
X012504Y008816D01*
X012446Y008874D02*
X012387Y008874D01*
M02*
