G75*
G70*
%OFA0B0*%
%FSLAX24Y24*%
%IPPOS*%
%LPD*%
%AMOC8*
5,1,8,0,0,1.08239X$1,22.5*
%
%ADD10C,0.0800*%
%ADD11R,0.0860X0.0320*%
%ADD12R,0.0414X0.0336*%
%ADD13R,0.0572X0.0375*%
%ADD14C,0.0456*%
D10*
X004636Y002665D03*
X005636Y002665D03*
X006636Y002665D03*
X007636Y002665D03*
X008636Y002665D03*
X002136Y004165D03*
X002136Y005165D03*
X002136Y006165D03*
X002136Y007165D03*
X002136Y008165D03*
X002136Y009165D03*
X004636Y010665D03*
X005636Y010665D03*
X006636Y010665D03*
X007636Y010665D03*
X008636Y010665D03*
D11*
X006846Y008415D03*
X006846Y007915D03*
X006846Y007415D03*
X006846Y006915D03*
X006846Y006415D03*
X006846Y005915D03*
X006846Y005415D03*
X006846Y004915D03*
X004426Y004915D03*
X004426Y005415D03*
X004426Y005915D03*
X004426Y006415D03*
X004426Y006915D03*
X004426Y007415D03*
X004426Y007915D03*
X004426Y008415D03*
D12*
X001136Y006921D03*
X001136Y006409D03*
D13*
X008211Y006715D03*
X008211Y007215D03*
X008211Y007715D03*
X008211Y008215D03*
X009461Y008215D03*
X009461Y007715D03*
X009461Y007215D03*
X009461Y006715D03*
X009461Y005915D03*
X009461Y005415D03*
X009461Y004915D03*
X009461Y004415D03*
X008211Y004415D03*
X008211Y004915D03*
X008211Y005415D03*
X008211Y005915D03*
D14*
X003626Y006415D03*
M02*
