G75*
G70*
%OFA0B0*%
%FSLAX24Y24*%
%IPPOS*%
%LPD*%
%AMOC8*
5,1,8,0,0,1.08239X$1,22.5*
%
%ADD10C,0.0060*%
%ADD11R,0.0010X0.0240*%
%ADD12R,0.0010X0.0550*%
%ADD13R,0.0010X0.0710*%
%ADD14R,0.0010X0.0860*%
%ADD15R,0.0010X0.1010*%
%ADD16R,0.0010X0.0450*%
%ADD17R,0.0010X0.0340*%
%ADD18R,0.0010X0.0300*%
%ADD19R,0.0010X0.0310*%
%ADD20R,0.0010X0.0270*%
%ADD21R,0.0010X0.0250*%
%ADD22R,0.0010X0.0540*%
%ADD23R,0.0010X0.0210*%
%ADD24R,0.0010X0.0690*%
%ADD25R,0.0010X0.0170*%
%ADD26R,0.0010X0.0830*%
%ADD27R,0.0010X0.0180*%
%ADD28R,0.0010X0.0150*%
%ADD29R,0.0010X0.0970*%
%ADD30R,0.0010X0.0160*%
%ADD31R,0.0010X0.1100*%
%ADD32R,0.0010X0.1230*%
%ADD33R,0.0010X0.0140*%
%ADD34R,0.0010X0.1330*%
%ADD35R,0.0010X0.1390*%
%ADD36R,0.0010X0.0130*%
%ADD37R,0.0010X0.1470*%
%ADD38R,0.0010X0.0120*%
%ADD39R,0.0010X0.1560*%
%ADD40R,0.0010X0.0110*%
%ADD41R,0.0010X0.1610*%
%ADD42R,0.0010X0.0100*%
%ADD43R,0.0010X0.1670*%
%ADD44R,0.0010X0.1720*%
%ADD45R,0.0010X0.1770*%
%ADD46R,0.0010X0.0090*%
%ADD47R,0.0010X0.1810*%
%ADD48R,0.0010X0.0080*%
%ADD49R,0.0010X0.0260*%
%ADD50R,0.0010X0.0400*%
%ADD51R,0.0010X0.0230*%
%ADD52R,0.0010X0.0050*%
%ADD53R,0.0010X0.0070*%
%ADD54R,0.0010X0.0320*%
%ADD55R,0.0010X0.0010*%
%ADD56R,0.0010X0.0040*%
%ADD57R,0.0010X0.0330*%
%ADD58R,0.0010X0.0020*%
%ADD59R,0.0010X0.0200*%
%ADD60R,0.0010X0.0030*%
%ADD61R,0.0010X0.0410*%
%ADD62R,0.0010X0.0060*%
%ADD63R,0.0010X0.0420*%
%ADD64R,0.0010X0.0360*%
%ADD65R,0.0010X0.0370*%
%ADD66R,0.0010X0.0380*%
%ADD67R,0.0010X0.0430*%
%ADD68R,0.0010X0.0390*%
%ADD69R,0.0010X0.0440*%
%ADD70R,0.0010X0.0190*%
%ADD71R,0.0010X0.0560*%
%ADD72R,0.0010X0.0220*%
%ADD73R,0.0010X0.0460*%
%ADD74R,0.0010X0.0470*%
%ADD75R,0.0010X0.0490*%
%ADD76R,0.0010X0.0500*%
%ADD77R,0.0010X0.0510*%
%ADD78R,0.0010X0.0520*%
%ADD79R,0.0010X0.0530*%
%ADD80R,0.0010X0.0750*%
%ADD81R,0.0010X0.0740*%
%ADD82R,0.0010X0.0730*%
%ADD83R,0.0010X0.0840*%
%ADD84R,0.0010X0.0670*%
%ADD85R,0.0010X0.0650*%
%ADD86R,0.0010X0.0480*%
%ADD87R,0.0010X0.0620*%
%ADD88R,0.0010X0.0700*%
%ADD89R,0.0010X0.0610*%
%ADD90R,0.0010X0.0590*%
%ADD91R,0.0010X0.0580*%
%ADD92R,0.0010X0.1140*%
%ADD93R,0.0010X0.1130*%
%ADD94R,0.0010X0.1200*%
%ADD95R,0.0010X0.0780*%
%ADD96R,0.0010X0.0290*%
%ADD97R,0.0010X0.0640*%
%ADD98R,0.0010X0.0570*%
%ADD99R,0.0010X0.0280*%
%ADD100R,0.0010X0.0350*%
%ADD101R,0.0010X0.0850*%
%ADD102R,0.0010X0.0880*%
%ADD103R,0.0010X0.0900*%
%ADD104R,0.0010X0.1240*%
%ADD105R,0.0010X0.1110*%
%ADD106R,0.0010X0.0870*%
%ADD107R,0.0010X0.0720*%
%ADD108C,0.0059*%
D10*
X009596Y002955D02*
X009703Y002848D01*
X010130Y003275D01*
X009703Y003275D01*
X009596Y003169D01*
X009596Y002955D01*
X009703Y002848D02*
X010130Y002848D01*
X010237Y002955D01*
X010237Y003169D01*
X010130Y003275D01*
X010023Y003493D02*
X010237Y003706D01*
X009596Y003706D01*
X009596Y003493D02*
X009596Y003920D01*
X009916Y004137D02*
X009916Y004564D01*
X010130Y004782D02*
X010237Y004889D01*
X010237Y005102D01*
X010130Y005209D01*
X010023Y005209D01*
X009596Y004782D01*
X009596Y005209D01*
X009703Y005426D02*
X009810Y005426D01*
X009916Y005533D01*
X009916Y005747D01*
X009810Y005854D01*
X009703Y005854D01*
X009596Y005747D01*
X009596Y005533D01*
X009703Y005426D01*
X009916Y005533D02*
X010023Y005426D01*
X010130Y005426D01*
X010237Y005533D01*
X010237Y005747D01*
X010130Y005854D01*
X010023Y005854D01*
X009916Y005747D01*
X009916Y006071D02*
X009916Y006498D01*
X010023Y006716D02*
X010237Y006929D01*
X009596Y006929D01*
X009596Y006716D02*
X009596Y007143D01*
X009703Y007360D02*
X009596Y007467D01*
X009596Y007680D01*
X009703Y007787D01*
X009810Y007787D01*
X009916Y007680D01*
X009916Y007574D01*
X009916Y007680D02*
X010023Y007787D01*
X010130Y007787D01*
X010237Y007680D01*
X010237Y007467D01*
X010130Y007360D01*
X010746Y007350D02*
X010746Y007777D01*
X010746Y007564D02*
X011387Y007564D01*
X011173Y007350D01*
X011066Y007133D02*
X010746Y007133D01*
X011066Y007133D02*
X011173Y007026D01*
X011173Y006706D01*
X010746Y006706D01*
X010853Y006488D02*
X011066Y006488D01*
X011173Y006381D01*
X011173Y006168D01*
X011066Y006061D01*
X010853Y006061D01*
X010746Y006168D01*
X010746Y006381D01*
X010853Y006488D01*
X010853Y005844D02*
X010960Y005737D01*
X010960Y005523D01*
X011066Y005416D01*
X011173Y005523D01*
X011173Y005844D01*
X010853Y005844D02*
X010746Y005737D01*
X010746Y005416D01*
X010746Y005200D02*
X010746Y004987D01*
X010746Y005094D02*
X011387Y005094D01*
X011387Y004987D01*
X011066Y004769D02*
X010960Y004769D01*
X010960Y004342D01*
X011066Y004342D02*
X011173Y004449D01*
X011173Y004662D01*
X011066Y004769D01*
X010746Y004662D02*
X010746Y004449D01*
X010853Y004342D01*
X011066Y004342D01*
X011066Y004125D02*
X010746Y004125D01*
X011066Y004125D02*
X011173Y004018D01*
X011173Y003698D01*
X010746Y003698D01*
X010746Y003480D02*
X010746Y003053D01*
X011173Y003480D01*
X011173Y003053D01*
D11*
X011316Y008610D03*
X011326Y008620D03*
X010876Y009120D03*
D12*
X010886Y009115D03*
X011736Y009115D03*
X011336Y010005D03*
X011326Y010005D03*
X011306Y009995D03*
D13*
X010896Y009115D03*
D14*
X010906Y009120D03*
D15*
X010916Y009115D03*
X011786Y009115D03*
D16*
X011636Y009695D03*
X011446Y010025D03*
X011246Y010015D03*
X010926Y009465D03*
X010926Y008775D03*
X011556Y008345D03*
X011286Y008195D03*
D17*
X011166Y008260D03*
X010936Y008670D03*
X011656Y008550D03*
X010936Y009570D03*
D18*
X011586Y008800D03*
X011576Y008790D03*
X011116Y008760D03*
X010946Y008610D03*
D19*
X011116Y008345D03*
X011126Y008325D03*
X010946Y009625D03*
D20*
X010956Y009685D03*
X010956Y008555D03*
D21*
X010966Y008495D03*
X011126Y008755D03*
X011826Y009115D03*
X010966Y009745D03*
D22*
X011346Y010010D03*
X011606Y009740D03*
X010966Y009120D03*
X011476Y008290D03*
X011366Y008220D03*
D23*
X010976Y008445D03*
X011276Y008585D03*
X011346Y008645D03*
X011356Y008655D03*
X011366Y008655D03*
X011136Y008765D03*
X011746Y008515D03*
X011146Y009315D03*
X011136Y009315D03*
X010976Y009795D03*
X011746Y009725D03*
D24*
X011566Y009755D03*
X011486Y009395D03*
X011476Y009395D03*
X011466Y009385D03*
X011456Y009385D03*
X011726Y009115D03*
X010976Y009115D03*
D25*
X011176Y009315D03*
X011186Y009315D03*
X011626Y009305D03*
X011716Y009845D03*
X011236Y008565D03*
X010986Y008395D03*
X011716Y008395D03*
D26*
X011716Y009115D03*
X010986Y009115D03*
D27*
X011166Y009310D03*
X010986Y009840D03*
D28*
X011006Y009915D03*
X011256Y009545D03*
X011696Y009915D03*
X011566Y009055D03*
X011406Y008925D03*
X011706Y008355D03*
X011696Y008325D03*
X011686Y008295D03*
X011676Y008265D03*
X011026Y008265D03*
X011016Y008295D03*
X011006Y008325D03*
X010996Y008355D03*
D29*
X010996Y009115D03*
X011706Y009115D03*
D30*
X011196Y009320D03*
X010996Y009880D03*
X011706Y009880D03*
D31*
X011006Y009120D03*
D32*
X011016Y009115D03*
D33*
X011116Y009050D03*
X011236Y008980D03*
X011246Y008990D03*
X011256Y008990D03*
X011266Y008990D03*
X011376Y008910D03*
X011226Y008560D03*
X011036Y008240D03*
X011046Y008220D03*
X011226Y009530D03*
X011246Y009540D03*
X011266Y009550D03*
X011276Y009550D03*
X011016Y009940D03*
X011026Y009970D03*
X011676Y009970D03*
X011686Y009940D03*
D34*
X011676Y009115D03*
X011026Y009115D03*
D35*
X011036Y009115D03*
D36*
X011126Y009065D03*
X011216Y008975D03*
X011226Y008975D03*
X011276Y008995D03*
X011286Y009005D03*
X011296Y009005D03*
X011366Y008895D03*
X011146Y008725D03*
X011666Y008235D03*
X011376Y009465D03*
X011286Y009555D03*
X011236Y009535D03*
X011216Y009525D03*
X011036Y009995D03*
X011046Y010015D03*
D37*
X011046Y009115D03*
D38*
X011206Y008970D03*
X011306Y009010D03*
X011356Y008880D03*
X011206Y008780D03*
X011156Y008730D03*
X011216Y008550D03*
X011526Y008690D03*
X011536Y008690D03*
X011546Y008690D03*
X011546Y008840D03*
X011286Y009370D03*
X011206Y009520D03*
X011296Y009560D03*
X011306Y009570D03*
X011056Y010040D03*
X011066Y010060D03*
X011666Y010000D03*
X011056Y008200D03*
D39*
X011056Y009120D03*
D40*
X011136Y009075D03*
X011146Y009085D03*
X011196Y008965D03*
X011266Y008815D03*
X011246Y008805D03*
X011236Y008795D03*
X011216Y008785D03*
X011196Y008775D03*
X011186Y008765D03*
X011346Y008875D03*
X011446Y008775D03*
X011516Y008825D03*
X011536Y008835D03*
X011516Y008685D03*
X011576Y009045D03*
X011376Y009135D03*
X011276Y009365D03*
X011196Y009515D03*
X011066Y008175D03*
X011656Y008205D03*
D41*
X011066Y009115D03*
D42*
X011186Y008960D03*
X011316Y009010D03*
X011336Y008860D03*
X011326Y008850D03*
X011306Y008840D03*
X011276Y008820D03*
X011256Y008810D03*
X011226Y008790D03*
X011176Y008750D03*
X011166Y008740D03*
X011206Y008550D03*
X011466Y008790D03*
X011476Y008800D03*
X011486Y008810D03*
X011496Y008820D03*
X011506Y008820D03*
X011526Y008830D03*
X011266Y009360D03*
X011366Y009460D03*
X011316Y009570D03*
X011116Y009550D03*
X011076Y010080D03*
X011086Y010100D03*
X011596Y010150D03*
X011606Y010130D03*
X011616Y010110D03*
X011626Y010090D03*
X011636Y010070D03*
X011646Y010050D03*
X011656Y010030D03*
X011646Y008180D03*
X011606Y008100D03*
X011596Y008080D03*
X011096Y008110D03*
X011086Y008130D03*
X011076Y008150D03*
D43*
X011076Y009115D03*
D44*
X011086Y009120D03*
D45*
X011096Y009115D03*
D46*
X011156Y009095D03*
X011166Y009105D03*
X011176Y009115D03*
X011186Y009115D03*
X011196Y009125D03*
X011366Y009135D03*
X011316Y008845D03*
X011296Y008835D03*
X011286Y008825D03*
X011456Y008785D03*
X011506Y008675D03*
X011636Y008165D03*
X011626Y008145D03*
X011616Y008125D03*
X011586Y008065D03*
X011116Y008075D03*
X011106Y008095D03*
X011186Y009505D03*
X011326Y009575D03*
X011096Y010125D03*
D47*
X011106Y009115D03*
D48*
X011206Y009130D03*
X011216Y009140D03*
X011226Y009150D03*
X011236Y009150D03*
X011246Y009160D03*
X011326Y009020D03*
X011456Y008930D03*
X011436Y008740D03*
X011496Y008670D03*
X011176Y008960D03*
X011356Y009460D03*
X011176Y009500D03*
X011226Y009710D03*
X011236Y009710D03*
X011246Y009720D03*
X011106Y010140D03*
X011116Y010160D03*
X011146Y010210D03*
X011576Y010190D03*
X011586Y010170D03*
X011576Y008050D03*
X011146Y008030D03*
X011136Y008040D03*
X011126Y008060D03*
D49*
X011766Y008630D03*
X011546Y009090D03*
X011116Y009330D03*
X011766Y009610D03*
D50*
X011476Y010020D03*
X011146Y009910D03*
X011136Y009890D03*
X011126Y009870D03*
X011116Y009850D03*
D51*
X011126Y009315D03*
X011756Y009665D03*
X011756Y008575D03*
X011336Y008635D03*
X011306Y008605D03*
D52*
X011416Y008695D03*
X011506Y008955D03*
X011516Y008965D03*
X011336Y009125D03*
X011306Y009195D03*
X011286Y009185D03*
X011216Y009275D03*
X011316Y009435D03*
X011326Y009445D03*
X011126Y009565D03*
X011246Y010315D03*
X011266Y010325D03*
X011286Y010335D03*
X011296Y010335D03*
X011316Y010345D03*
X011326Y010345D03*
X011336Y010345D03*
X011346Y010345D03*
X011356Y010345D03*
X011366Y010345D03*
X011376Y010345D03*
X011386Y010345D03*
X011406Y010335D03*
X011416Y010335D03*
X011436Y010325D03*
X011456Y010315D03*
X011456Y007925D03*
X011436Y007915D03*
X011416Y007905D03*
X011406Y007905D03*
X011386Y007895D03*
X011376Y007895D03*
X011336Y007895D03*
X011326Y007895D03*
X011316Y007895D03*
X011296Y007905D03*
X011286Y007905D03*
X011266Y007915D03*
X011246Y007925D03*
D53*
X011166Y008005D03*
X011156Y008015D03*
X011566Y008035D03*
X011466Y008935D03*
X011416Y008955D03*
X011356Y009135D03*
X011266Y009175D03*
X011256Y009165D03*
X011206Y009285D03*
X011256Y009355D03*
X011346Y009455D03*
X011216Y009695D03*
X011126Y010175D03*
X011136Y010195D03*
X011156Y010225D03*
X011166Y010235D03*
X011566Y010205D03*
X011586Y009045D03*
D54*
X011636Y009280D03*
X011136Y008310D03*
X011146Y008290D03*
D55*
X011166Y008855D03*
X011356Y009045D03*
X011366Y009045D03*
X011306Y009115D03*
X011346Y009295D03*
X011316Y009325D03*
X011136Y009575D03*
X011336Y009655D03*
X011346Y009655D03*
X011446Y008895D03*
D56*
X011466Y009010D03*
X011476Y009010D03*
X011486Y009010D03*
X011596Y009040D03*
X011636Y008840D03*
X011486Y008660D03*
X011396Y008770D03*
X011146Y008840D03*
X011196Y008540D03*
X011346Y007890D03*
X011356Y007890D03*
X011366Y007890D03*
X011316Y009210D03*
X011296Y009420D03*
X011306Y009430D03*
X011366Y009650D03*
X011176Y009670D03*
D57*
X011156Y008275D03*
D58*
X011156Y008850D03*
X011316Y009120D03*
X011236Y009270D03*
X011306Y009320D03*
X011356Y009300D03*
X011206Y009390D03*
X011506Y009020D03*
D59*
X011156Y009310D03*
X011736Y009770D03*
X011266Y008580D03*
X011256Y008580D03*
X011736Y008470D03*
D60*
X011496Y009015D03*
X011456Y009005D03*
X011376Y009045D03*
X011346Y009035D03*
X011326Y009125D03*
X011326Y009215D03*
X011366Y009305D03*
X011296Y009325D03*
X011246Y009355D03*
X011226Y009275D03*
X011156Y009495D03*
X011166Y009655D03*
X011356Y009655D03*
D61*
X011156Y009925D03*
X011586Y008385D03*
X011236Y008205D03*
D62*
X011176Y007990D03*
X011186Y007980D03*
X011196Y007970D03*
X011206Y007960D03*
X011216Y007950D03*
X011226Y007940D03*
X011236Y007930D03*
X011256Y007920D03*
X011276Y007910D03*
X011306Y007900D03*
X011396Y007900D03*
X011426Y007910D03*
X011446Y007920D03*
X011466Y007930D03*
X011476Y007940D03*
X011486Y007950D03*
X011496Y007960D03*
X011506Y007970D03*
X011516Y007980D03*
X011526Y007990D03*
X011536Y008000D03*
X011546Y008010D03*
X011556Y008020D03*
X011426Y008720D03*
X011386Y008750D03*
X011376Y008740D03*
X011476Y008940D03*
X011486Y008940D03*
X011496Y008950D03*
X011526Y008970D03*
X011336Y009030D03*
X011346Y009130D03*
X011296Y009190D03*
X011276Y009180D03*
X011376Y009300D03*
X011336Y009450D03*
X011336Y009580D03*
X011376Y009650D03*
X011206Y009690D03*
X011196Y009680D03*
X011186Y009680D03*
X011166Y009500D03*
X011166Y008960D03*
X011556Y010220D03*
X011546Y010230D03*
X011536Y010240D03*
X011526Y010250D03*
X011516Y010260D03*
X011506Y010270D03*
X011496Y010280D03*
X011486Y010290D03*
X011476Y010300D03*
X011466Y010310D03*
X011446Y010320D03*
X011426Y010330D03*
X011396Y010340D03*
X011306Y010340D03*
X011276Y010330D03*
X011256Y010320D03*
X011236Y010310D03*
X011226Y010300D03*
X011216Y010290D03*
X011206Y010280D03*
X011196Y010270D03*
X011186Y010260D03*
X011176Y010250D03*
D63*
X011466Y010020D03*
X011186Y009970D03*
X011176Y009950D03*
X011166Y009940D03*
X011576Y008370D03*
X011256Y008200D03*
X011246Y008200D03*
D64*
X011176Y008250D03*
X011616Y008440D03*
X011666Y008600D03*
X011776Y009510D03*
D65*
X011496Y010015D03*
X011776Y008725D03*
X011186Y008235D03*
D66*
X011196Y008230D03*
X011206Y008220D03*
X011216Y008220D03*
X011606Y008420D03*
X011386Y009030D03*
D67*
X011386Y009475D03*
X011196Y009975D03*
X011206Y009985D03*
X011216Y009995D03*
X011456Y010025D03*
X011266Y008195D03*
D68*
X011226Y008215D03*
X011596Y008405D03*
X011486Y010015D03*
D69*
X011236Y010010D03*
X011226Y010000D03*
X011566Y008360D03*
X011276Y008200D03*
D70*
X011726Y008435D03*
X011246Y008575D03*
X011626Y008825D03*
X011726Y009805D03*
D71*
X011316Y010000D03*
X011296Y009990D03*
X011286Y009980D03*
X011276Y009980D03*
X011266Y009970D03*
X011256Y009970D03*
X011466Y008280D03*
D72*
X011286Y008590D03*
X011296Y008600D03*
X011556Y009080D03*
D73*
X011546Y008330D03*
X011296Y008190D03*
X011436Y010020D03*
D74*
X011426Y010025D03*
X011306Y008195D03*
D75*
X011316Y008195D03*
X011526Y008315D03*
X011406Y010025D03*
D76*
X011396Y010020D03*
X011326Y008200D03*
D77*
X011336Y008205D03*
X011516Y008305D03*
X011616Y009725D03*
D78*
X011386Y010020D03*
X011376Y010020D03*
X011506Y008300D03*
X011346Y008210D03*
D79*
X011356Y008215D03*
X011486Y008295D03*
X011496Y008295D03*
X011366Y010015D03*
X011356Y010015D03*
D80*
X011406Y008335D03*
X011376Y008325D03*
D81*
X011386Y008320D03*
D82*
X011396Y008325D03*
X011556Y009755D03*
D83*
X011396Y009270D03*
D84*
X011406Y009365D03*
X011416Y009365D03*
D85*
X011416Y008295D03*
D86*
X011536Y008320D03*
X011626Y009710D03*
X011416Y010020D03*
D87*
X011426Y008290D03*
D88*
X011426Y009360D03*
X011436Y009360D03*
X011446Y009370D03*
X011496Y009400D03*
D89*
X011586Y009745D03*
X011436Y008285D03*
D90*
X011446Y008285D03*
D91*
X011456Y008280D03*
D92*
X011506Y009620D03*
D93*
X011516Y009615D03*
X011526Y009595D03*
D94*
X011536Y009550D03*
D95*
X011546Y009740D03*
D96*
X011596Y008815D03*
X011566Y008785D03*
X011556Y008775D03*
D97*
X011576Y009750D03*
D98*
X011596Y009745D03*
X011816Y009115D03*
D99*
X011616Y008850D03*
X011606Y008830D03*
D100*
X011646Y008515D03*
X011636Y008485D03*
X011626Y008455D03*
D101*
X011646Y009475D03*
D102*
X011656Y009420D03*
D103*
X011666Y009360D03*
D104*
X011686Y009120D03*
D105*
X011696Y009115D03*
D106*
X011796Y009115D03*
D107*
X011806Y009120D03*
D108*
X010342Y008737D02*
X010342Y008593D01*
X010152Y008573D01*
X010131Y008509D01*
X010100Y008450D01*
X010221Y008301D01*
X010120Y008199D01*
X009971Y008320D01*
X009911Y008290D01*
X009847Y008269D01*
X009828Y008079D01*
X009684Y008079D01*
X009665Y008269D01*
X009601Y008290D01*
X009541Y008320D01*
X009392Y008199D01*
X009291Y008301D01*
X009412Y008450D01*
X009381Y008509D01*
X009586Y008594D01*
X009607Y008556D01*
X009636Y008524D01*
X009672Y008500D01*
X009713Y008485D01*
X009756Y008480D01*
X009800Y008485D01*
X009841Y008501D01*
X009878Y008526D01*
X009907Y008559D01*
X009928Y008598D01*
X009939Y008641D01*
X009939Y008685D01*
X009929Y008728D01*
X009909Y008767D01*
X009881Y008801D01*
X009845Y008826D01*
X009804Y008843D01*
X009760Y008849D01*
X009716Y008845D01*
X009674Y008830D01*
X009637Y008806D01*
X009607Y008774D01*
X009586Y008735D01*
X009381Y008820D01*
X009412Y008880D01*
X009291Y009028D01*
X009392Y009130D01*
X009541Y009009D01*
X009601Y009040D01*
X009665Y009060D01*
X009684Y009251D01*
X009828Y009251D01*
X009847Y009060D01*
X009911Y009040D01*
X009971Y009009D01*
X010120Y009130D01*
X010221Y009028D01*
X010100Y008880D01*
X010131Y008820D01*
X010152Y008756D01*
X010342Y008737D01*
X010342Y008701D02*
X009936Y008701D01*
X009939Y008643D02*
X010342Y008643D01*
X010274Y008586D02*
X009922Y008586D01*
X009880Y008528D02*
X010137Y008528D01*
X010111Y008471D02*
X009401Y008471D01*
X009382Y008413D02*
X010130Y008413D01*
X010177Y008356D02*
X009335Y008356D01*
X009294Y008298D02*
X009513Y008298D01*
X009584Y008298D02*
X009928Y008298D01*
X009999Y008298D02*
X010218Y008298D01*
X010161Y008240D02*
X010069Y008240D01*
X009844Y008240D02*
X009668Y008240D01*
X009673Y008183D02*
X009839Y008183D01*
X009833Y008125D02*
X009679Y008125D01*
X009443Y008240D02*
X009351Y008240D01*
X009427Y008528D02*
X009633Y008528D01*
X009590Y008586D02*
X009566Y008586D01*
X009530Y008758D02*
X009599Y008758D01*
X009653Y008816D02*
X009391Y008816D01*
X009408Y008874D02*
X010104Y008874D01*
X010132Y008816D02*
X009859Y008816D01*
X009914Y008758D02*
X010151Y008758D01*
X010142Y008931D02*
X009370Y008931D01*
X009323Y008989D02*
X010189Y008989D01*
X010203Y009046D02*
X010017Y009046D01*
X010087Y009104D02*
X010146Y009104D01*
X009891Y009046D02*
X009621Y009046D01*
X009669Y009104D02*
X009843Y009104D01*
X009837Y009161D02*
X009675Y009161D01*
X009681Y009219D02*
X009831Y009219D01*
X009495Y009046D02*
X009309Y009046D01*
X009366Y009104D02*
X009425Y009104D01*
M02*
