%
M48
M72
T01C0.0200
T02C0.0236
T03C0.0400
T04C0.0787
T05C0.1000
%
T01
X26300Y21850
X25450Y22200
X25300Y23150
X24800Y23150
X27350Y25000
X27850Y23700
X28600Y22300
X28950Y21650
X29500Y21800
X31750Y22900
X32150Y23250
X33250Y25250
X33650Y25600
X34150Y26050
X34550Y28150
X34550Y28650
X32900Y29400
X32450Y29150
X33550Y30500
X33900Y30950
X32550Y31200
X32750Y31700
X31550Y31650
X31300Y31200
X31400Y32150
X31750Y33350
X31500Y33900
X30200Y35050
X29700Y34900
X29300Y34600
X29300Y35350
X25800Y34950
X24650Y34800
X23150Y33700
X22450Y32800
X22500Y31000
X22050Y30800
X22450Y30450
X23700Y30300
X24050Y30700
X23400Y29400
X23900Y28200
X24250Y27850
X23800Y27600
X24100Y26600
X23150Y26550
X22539Y27839
X21500Y27700
X21150Y28900
X25450Y28200
X25500Y26650
X25913Y26300
X27000Y27550
X27650Y27900
X28800Y28850
X29200Y28350
X30050Y28550
X30550Y28550
X30300Y27600
X30250Y26150
X30100Y25250
X28900Y25350
X31350Y26150
X27900Y29950
X28250Y30350
X27200Y29950
X26400Y29850
X26550Y30650
T02
X29896Y30440
X30604Y30755
X29896Y31070
X29896Y31700
X30604Y31385
X32000Y31950
X31150Y23500
T03
X29000Y23000
X28000Y23000
X27000Y23000
X26000Y23000
X24821Y24143
X24114Y23436
X23407Y24143
X22700Y24850
X23407Y25557
X24114Y24850
X21300Y25900
X21300Y26900
X26000Y34000
X27000Y34000
X28000Y34000
X29000Y34000
T04
X30250Y32724
X30250Y29416
T05
X33110Y28500
X21890Y28500
M30
