G75*
G70*
%OFA0B0*%
%FSLAX24Y24*%
%IPPOS*%
%LPD*%
%AMOC8*
5,1,8,0,0,1.08239X$1,22.5*
%
%ADD10C,0.0030*%
%ADD11R,0.0240X0.0010*%
%ADD12R,0.0550X0.0010*%
%ADD13R,0.0710X0.0010*%
%ADD14R,0.0860X0.0010*%
%ADD15R,0.1010X0.0010*%
%ADD16R,0.0450X0.0010*%
%ADD17R,0.0340X0.0010*%
%ADD18R,0.0300X0.0010*%
%ADD19R,0.0310X0.0010*%
%ADD20R,0.0270X0.0010*%
%ADD21R,0.0250X0.0010*%
%ADD22R,0.0540X0.0010*%
%ADD23R,0.0210X0.0010*%
%ADD24R,0.0690X0.0010*%
%ADD25R,0.0170X0.0010*%
%ADD26R,0.0830X0.0010*%
%ADD27R,0.0180X0.0010*%
%ADD28R,0.0150X0.0010*%
%ADD29R,0.0970X0.0010*%
%ADD30R,0.0160X0.0010*%
%ADD31R,0.1100X0.0010*%
%ADD32R,0.1230X0.0010*%
%ADD33R,0.0140X0.0010*%
%ADD34R,0.1330X0.0010*%
%ADD35R,0.1390X0.0010*%
%ADD36R,0.0130X0.0010*%
%ADD37R,0.1470X0.0010*%
%ADD38R,0.0120X0.0010*%
%ADD39R,0.1560X0.0010*%
%ADD40R,0.0110X0.0010*%
%ADD41R,0.1610X0.0010*%
%ADD42R,0.0100X0.0010*%
%ADD43R,0.1670X0.0010*%
%ADD44R,0.1720X0.0010*%
%ADD45R,0.1770X0.0010*%
%ADD46R,0.0090X0.0010*%
%ADD47R,0.1810X0.0010*%
%ADD48R,0.0080X0.0010*%
%ADD49R,0.0260X0.0010*%
%ADD50R,0.0400X0.0010*%
%ADD51R,0.0230X0.0010*%
%ADD52R,0.0050X0.0010*%
%ADD53R,0.0070X0.0010*%
%ADD54R,0.0320X0.0010*%
%ADD55R,0.0010X0.0010*%
%ADD56R,0.0040X0.0010*%
%ADD57R,0.0330X0.0010*%
%ADD58R,0.0020X0.0010*%
%ADD59R,0.0200X0.0010*%
%ADD60R,0.0030X0.0010*%
%ADD61R,0.0410X0.0010*%
%ADD62R,0.0060X0.0010*%
%ADD63R,0.0420X0.0010*%
%ADD64R,0.0360X0.0010*%
%ADD65R,0.0370X0.0010*%
%ADD66R,0.0380X0.0010*%
%ADD67R,0.0430X0.0010*%
%ADD68R,0.0390X0.0010*%
%ADD69R,0.0440X0.0010*%
%ADD70R,0.0190X0.0010*%
%ADD71R,0.0560X0.0010*%
%ADD72R,0.0220X0.0010*%
%ADD73R,0.0460X0.0010*%
%ADD74R,0.0470X0.0010*%
%ADD75R,0.0490X0.0010*%
%ADD76R,0.0500X0.0010*%
%ADD77R,0.0510X0.0010*%
%ADD78R,0.0520X0.0010*%
%ADD79R,0.0530X0.0010*%
%ADD80R,0.0750X0.0010*%
%ADD81R,0.0740X0.0010*%
%ADD82R,0.0730X0.0010*%
%ADD83R,0.0840X0.0010*%
%ADD84R,0.0670X0.0010*%
%ADD85R,0.0650X0.0010*%
%ADD86R,0.0480X0.0010*%
%ADD87R,0.0620X0.0010*%
%ADD88R,0.0700X0.0010*%
%ADD89R,0.0610X0.0010*%
%ADD90R,0.0590X0.0010*%
%ADD91R,0.0580X0.0010*%
%ADD92R,0.1140X0.0010*%
%ADD93R,0.1130X0.0010*%
%ADD94R,0.1200X0.0010*%
%ADD95R,0.0780X0.0010*%
%ADD96R,0.0290X0.0010*%
%ADD97R,0.0640X0.0010*%
%ADD98R,0.0570X0.0010*%
%ADD99R,0.0280X0.0010*%
%ADD100R,0.0350X0.0010*%
%ADD101R,0.0850X0.0010*%
%ADD102R,0.0880X0.0010*%
%ADD103R,0.0900X0.0010*%
%ADD104R,0.1240X0.0010*%
%ADD105R,0.1110X0.0010*%
%ADD106R,0.0870X0.0010*%
%ADD107R,0.0720X0.0010*%
%ADD108C,0.0040*%
%ADD109R,0.0160X0.0280*%
%ADD110C,0.0160*%
%ADD111C,0.0080*%
%ADD112C,0.0060*%
%ADD113C,0.0050*%
%ADD114C,0.0120*%
%ADD115R,0.0280X0.0160*%
D10*
X025739Y022141D02*
X025691Y022189D01*
X025739Y022141D02*
X025836Y022141D01*
X025884Y022189D01*
X025884Y022238D01*
X025836Y022286D01*
X025739Y022286D01*
X025691Y022334D01*
X025691Y022383D01*
X025739Y022431D01*
X025836Y022431D01*
X025884Y022383D01*
X025986Y022383D02*
X025986Y022189D01*
X026034Y022141D01*
X026131Y022141D01*
X026179Y022189D01*
X026280Y022141D02*
X026280Y022431D01*
X026179Y022383D02*
X026131Y022431D01*
X026034Y022431D01*
X025986Y022383D01*
X026280Y022238D02*
X026474Y022431D01*
X026641Y022431D02*
X026786Y022431D01*
X026834Y022383D01*
X026834Y022286D01*
X026786Y022238D01*
X026641Y022238D01*
X026738Y022238D02*
X026834Y022141D01*
X026936Y022189D02*
X026984Y022141D01*
X027081Y022141D01*
X027129Y022189D01*
X027230Y022141D02*
X027230Y022431D01*
X027129Y022383D02*
X027081Y022431D01*
X026984Y022431D01*
X026936Y022383D01*
X026936Y022189D01*
X027230Y022238D02*
X027424Y022431D01*
X027589Y022363D02*
X027589Y022314D01*
X027637Y022266D01*
X027734Y022266D01*
X027783Y022218D01*
X027783Y022169D01*
X027734Y022121D01*
X027637Y022121D01*
X027589Y022169D01*
X027424Y022141D02*
X027279Y022286D01*
X027589Y022363D02*
X027637Y022411D01*
X027734Y022411D01*
X027783Y022363D01*
X027884Y022411D02*
X027884Y022121D01*
X028077Y022121D01*
X028178Y022121D02*
X028178Y022411D01*
X028323Y022411D01*
X028372Y022363D01*
X028372Y022266D01*
X028323Y022218D01*
X028178Y022218D01*
X028275Y022218D02*
X028372Y022121D01*
X028077Y022411D02*
X027884Y022411D01*
X027884Y022266D02*
X027980Y022266D01*
X026641Y022141D02*
X026641Y022431D01*
X026474Y022141D02*
X026329Y022286D01*
X030819Y028391D02*
X030819Y028536D01*
X030867Y028584D01*
X030964Y028584D01*
X031012Y028536D01*
X031012Y028391D01*
X031012Y028488D02*
X031109Y028584D01*
X031109Y028686D02*
X030819Y028879D01*
X030819Y028686D02*
X031109Y028879D01*
X031109Y028391D02*
X030819Y028391D01*
X032219Y028391D02*
X032219Y028584D01*
X032219Y028488D02*
X032509Y028488D01*
X032509Y028686D02*
X032219Y028879D01*
X032219Y028686D02*
X032509Y028879D01*
X027941Y034669D02*
X027941Y034863D01*
X027844Y034766D02*
X028038Y034766D01*
X027745Y034621D02*
X027648Y034621D01*
X027696Y034621D02*
X027696Y034911D01*
X027648Y034911D02*
X027745Y034911D01*
X025559Y034884D02*
X025511Y034836D01*
X025317Y034836D01*
X025269Y034884D01*
X025269Y034981D01*
X025317Y035029D01*
X025317Y035130D02*
X025511Y035130D01*
X025559Y035179D01*
X025559Y035275D01*
X025511Y035324D01*
X025317Y035324D02*
X025269Y035275D01*
X025269Y035179D01*
X025317Y035130D01*
X025511Y035029D02*
X025559Y034981D01*
X025559Y034884D01*
X025462Y034734D02*
X025269Y034734D01*
X025269Y034541D02*
X025462Y034541D01*
X025559Y034638D01*
X025462Y034734D01*
D11*
X026961Y032936D03*
X026951Y032926D03*
X027461Y032486D03*
D12*
X027456Y032496D03*
X027456Y033346D03*
X028346Y032946D03*
X028346Y032936D03*
X028336Y032916D03*
D13*
X027456Y032506D03*
D14*
X027461Y032516D03*
D15*
X027456Y032526D03*
X027456Y033396D03*
D16*
X028036Y033246D03*
X028366Y033056D03*
X028356Y032856D03*
X027806Y032536D03*
X027116Y032536D03*
X026536Y032896D03*
X026686Y033166D03*
D17*
X026891Y033266D03*
X026601Y032776D03*
X027011Y032546D03*
X027911Y032546D03*
D18*
X027101Y032726D03*
X026951Y032556D03*
X027131Y033186D03*
X027141Y033196D03*
D19*
X026686Y032726D03*
X026666Y032736D03*
X027966Y032556D03*
D20*
X028026Y032566D03*
X026896Y032566D03*
D21*
X026836Y032576D03*
X027096Y032736D03*
X027456Y033436D03*
X028086Y032576D03*
D22*
X028351Y032956D03*
X028081Y033216D03*
X027461Y032576D03*
X026631Y033086D03*
X026561Y032976D03*
D23*
X026926Y032886D03*
X026986Y032956D03*
X026996Y032966D03*
X026996Y032976D03*
X027106Y032746D03*
X026786Y032586D03*
X026856Y033356D03*
X027656Y032756D03*
X027656Y032746D03*
X028136Y032586D03*
X028066Y033356D03*
D24*
X028096Y033176D03*
X027736Y033096D03*
X027736Y033086D03*
X027726Y033076D03*
X027726Y033066D03*
X027456Y033336D03*
X027456Y032586D03*
D25*
X027656Y032786D03*
X027656Y032796D03*
X027646Y033236D03*
X028186Y033326D03*
X026906Y032846D03*
X026736Y032596D03*
X026736Y033326D03*
D26*
X027456Y033326D03*
X027456Y032596D03*
D27*
X027651Y032776D03*
X028181Y032596D03*
D28*
X028256Y032616D03*
X027886Y032866D03*
X028256Y033306D03*
X027396Y033176D03*
X027266Y033016D03*
X026696Y033316D03*
X026666Y033306D03*
X026636Y033296D03*
X026606Y033286D03*
X026606Y032636D03*
X026636Y032626D03*
X026666Y032616D03*
X026696Y032606D03*
D29*
X027456Y032606D03*
X027456Y033316D03*
D30*
X027661Y032806D03*
X028221Y032606D03*
X028221Y033316D03*
D31*
X027461Y032616D03*
D32*
X027456Y032626D03*
D33*
X027391Y032726D03*
X027321Y032846D03*
X027331Y032856D03*
X027331Y032866D03*
X027331Y032876D03*
X027251Y032986D03*
X026901Y032836D03*
X026581Y032646D03*
X026561Y032656D03*
X027871Y032836D03*
X027881Y032856D03*
X027891Y032876D03*
X027891Y032886D03*
X028281Y032626D03*
X028311Y032636D03*
X028311Y033286D03*
X028281Y033296D03*
D34*
X027456Y033286D03*
X027456Y032636D03*
D35*
X027456Y032646D03*
D36*
X027406Y032736D03*
X027316Y032826D03*
X027316Y032836D03*
X027336Y032886D03*
X027346Y032896D03*
X027346Y032906D03*
X027236Y032976D03*
X027066Y032756D03*
X026576Y033276D03*
X027806Y032986D03*
X027896Y032896D03*
X027876Y032846D03*
X027866Y032826D03*
X028336Y032646D03*
X028356Y032656D03*
D37*
X027456Y032656D03*
D38*
X027311Y032816D03*
X027351Y032916D03*
X027221Y032966D03*
X027121Y032816D03*
X027071Y032766D03*
X026891Y032826D03*
X027031Y033136D03*
X027031Y033146D03*
X027031Y033156D03*
X027181Y033156D03*
X027711Y032896D03*
X027861Y032816D03*
X027901Y032906D03*
X027911Y032916D03*
X028381Y032666D03*
X028401Y032676D03*
X028341Y033276D03*
X026541Y032666D03*
D39*
X027461Y032666D03*
D40*
X027416Y032746D03*
X027426Y032756D03*
X027306Y032806D03*
X027156Y032876D03*
X027146Y032856D03*
X027136Y032846D03*
X027126Y032826D03*
X027116Y032806D03*
X027106Y032796D03*
X027216Y032956D03*
X027116Y033056D03*
X027166Y033126D03*
X027176Y033146D03*
X027026Y033126D03*
X027386Y033186D03*
X027476Y032986D03*
X027706Y032886D03*
X027856Y032806D03*
X026516Y032676D03*
X026546Y033266D03*
D41*
X027456Y032676D03*
D42*
X027301Y032796D03*
X027351Y032926D03*
X027201Y032946D03*
X027191Y032936D03*
X027181Y032916D03*
X027161Y032886D03*
X027151Y032866D03*
X027131Y032836D03*
X027091Y032786D03*
X027081Y032776D03*
X026891Y032816D03*
X027131Y033076D03*
X027141Y033086D03*
X027151Y033096D03*
X027161Y033106D03*
X027161Y033116D03*
X027171Y033136D03*
X027701Y032876D03*
X027801Y032976D03*
X027911Y032926D03*
X027891Y032726D03*
X028421Y032686D03*
X028441Y032696D03*
X028491Y033206D03*
X028471Y033216D03*
X028451Y033226D03*
X028431Y033236D03*
X028411Y033246D03*
X028391Y033256D03*
X028371Y033266D03*
X026521Y033256D03*
X026441Y033216D03*
X026421Y033206D03*
X026451Y032706D03*
X026471Y032696D03*
X026491Y032686D03*
D43*
X027456Y032686D03*
D44*
X027461Y032696D03*
D45*
X027456Y032706D03*
D46*
X027436Y032766D03*
X027446Y032776D03*
X027456Y032786D03*
X027456Y032796D03*
X027466Y032806D03*
X027476Y032976D03*
X027186Y032926D03*
X027176Y032906D03*
X027166Y032896D03*
X027126Y033066D03*
X027016Y033116D03*
X026506Y033246D03*
X026486Y033236D03*
X026466Y033226D03*
X026406Y033196D03*
X026416Y032726D03*
X026436Y032716D03*
X027846Y032796D03*
X027916Y032936D03*
X028466Y032706D03*
D47*
X027456Y032716D03*
D48*
X027471Y032816D03*
X027481Y032826D03*
X027491Y032836D03*
X027491Y032846D03*
X027501Y032856D03*
X027361Y032936D03*
X027271Y033066D03*
X027081Y033046D03*
X027011Y033106D03*
X027301Y032786D03*
X027801Y032966D03*
X027841Y032786D03*
X028051Y032836D03*
X028051Y032846D03*
X028061Y032856D03*
X028481Y032716D03*
X028501Y032726D03*
X028551Y032756D03*
X028531Y033186D03*
X028511Y033196D03*
X026391Y033186D03*
X026371Y032756D03*
X026381Y032746D03*
X026401Y032736D03*
D49*
X026971Y033376D03*
X027431Y033156D03*
X027671Y032726D03*
D50*
X028191Y032726D03*
X028211Y032736D03*
X028231Y032746D03*
X028251Y032756D03*
X028361Y033086D03*
D51*
X028006Y033366D03*
X027656Y032736D03*
X026976Y032946D03*
X026946Y032916D03*
X026916Y033366D03*
D52*
X027036Y033026D03*
X027296Y033116D03*
X027306Y033126D03*
X027466Y032946D03*
X027536Y032916D03*
X027526Y032896D03*
X027616Y032826D03*
X027776Y032926D03*
X027786Y032936D03*
X027906Y032736D03*
X028656Y032856D03*
X028666Y032876D03*
X028676Y032896D03*
X028676Y032906D03*
X028686Y032926D03*
X028686Y032936D03*
X028686Y032946D03*
X028686Y032956D03*
X028686Y032966D03*
X028686Y032976D03*
X028686Y032986D03*
X028686Y032996D03*
X028676Y033016D03*
X028676Y033026D03*
X028666Y033046D03*
X028656Y033066D03*
X026266Y033066D03*
X026256Y033046D03*
X026246Y033026D03*
X026246Y033016D03*
X026236Y032996D03*
X026236Y032986D03*
X026236Y032946D03*
X026236Y032936D03*
X026236Y032926D03*
X026246Y032906D03*
X026246Y032896D03*
X026256Y032876D03*
X026266Y032856D03*
D53*
X026346Y032776D03*
X026356Y032766D03*
X026376Y033176D03*
X027276Y033076D03*
X027296Y033026D03*
X027476Y032966D03*
X027516Y032876D03*
X027506Y032866D03*
X027626Y032816D03*
X027696Y032866D03*
X027796Y032956D03*
X028036Y032826D03*
X028516Y032736D03*
X028536Y032746D03*
X028566Y032766D03*
X028576Y032776D03*
X028546Y033176D03*
X027386Y033196D03*
D54*
X027621Y033246D03*
X026651Y032746D03*
X026631Y032756D03*
D55*
X027196Y032776D03*
X027386Y032966D03*
X027386Y032976D03*
X027456Y032916D03*
X027636Y032956D03*
X027666Y032926D03*
X027916Y032746D03*
X027996Y032946D03*
X027996Y032956D03*
X027236Y033056D03*
D56*
X027351Y033076D03*
X027351Y033086D03*
X027351Y033096D03*
X027381Y033206D03*
X027181Y033246D03*
X027001Y033096D03*
X027111Y033006D03*
X027181Y032756D03*
X026881Y032806D03*
X027551Y032926D03*
X027761Y032906D03*
X027771Y032916D03*
X027991Y032976D03*
X028011Y032786D03*
X026231Y032956D03*
X026231Y032966D03*
X026231Y032976D03*
D57*
X026616Y032766D03*
D58*
X027191Y032766D03*
X027461Y032926D03*
X027611Y032846D03*
X027661Y032916D03*
X027641Y032966D03*
X027731Y032816D03*
X027361Y033116D03*
D59*
X027651Y032766D03*
X026921Y032866D03*
X026921Y032876D03*
X026811Y033346D03*
X028111Y033346D03*
D60*
X027996Y032966D03*
X027996Y032776D03*
X027836Y032766D03*
X027696Y032856D03*
X027666Y032906D03*
X027646Y032976D03*
X027556Y032936D03*
X027466Y032936D03*
X027376Y032956D03*
X027386Y032986D03*
X027346Y033066D03*
X027356Y033106D03*
X027616Y032836D03*
D61*
X028266Y032766D03*
X026726Y033196D03*
X026546Y032846D03*
D62*
X026331Y032786D03*
X026321Y032796D03*
X026311Y032806D03*
X026301Y032816D03*
X026291Y032826D03*
X026281Y032836D03*
X026271Y032846D03*
X026261Y032866D03*
X026251Y032886D03*
X026241Y032916D03*
X026241Y033006D03*
X026251Y033036D03*
X026261Y033056D03*
X026271Y033076D03*
X026281Y033086D03*
X026291Y033096D03*
X026301Y033106D03*
X026311Y033116D03*
X026321Y033126D03*
X026331Y033136D03*
X026341Y033146D03*
X026351Y033156D03*
X026361Y033166D03*
X027061Y033036D03*
X027091Y032996D03*
X027081Y032986D03*
X027281Y033086D03*
X027281Y033096D03*
X027291Y033106D03*
X027311Y033136D03*
X027371Y032946D03*
X027471Y032956D03*
X027531Y032906D03*
X027521Y032886D03*
X027641Y032986D03*
X027791Y032946D03*
X027921Y032946D03*
X027991Y032986D03*
X028031Y032816D03*
X028021Y032806D03*
X028021Y032796D03*
X027841Y032776D03*
X027301Y032776D03*
X028591Y032786D03*
X028601Y032796D03*
X028611Y032806D03*
X028621Y032816D03*
X028631Y032826D03*
X028641Y032836D03*
X028651Y032846D03*
X028661Y032866D03*
X028671Y032886D03*
X028681Y032916D03*
X028681Y033006D03*
X028671Y033036D03*
X028661Y033056D03*
X028651Y033076D03*
X028641Y033086D03*
X028631Y033096D03*
X028621Y033106D03*
X028611Y033116D03*
X028601Y033126D03*
X028591Y033136D03*
X028581Y033146D03*
X028571Y033156D03*
X028561Y033166D03*
D63*
X028361Y033076D03*
X028311Y032796D03*
X028291Y032786D03*
X028281Y032776D03*
X026711Y033186D03*
X026541Y032866D03*
X026541Y032856D03*
D64*
X026591Y032786D03*
X026781Y033226D03*
X026941Y033276D03*
X027851Y033386D03*
D65*
X028356Y033106D03*
X027066Y033386D03*
X026576Y032796D03*
D66*
X026571Y032806D03*
X026561Y032816D03*
X026561Y032826D03*
X026761Y033216D03*
X027371Y032996D03*
D67*
X027816Y032996D03*
X028316Y032806D03*
X028326Y032816D03*
X028336Y032826D03*
X028366Y033066D03*
X026536Y032876D03*
D68*
X026556Y032836D03*
X026746Y033206D03*
X028356Y033096D03*
D69*
X028351Y032846D03*
X028341Y032836D03*
X026701Y033176D03*
X026541Y032886D03*
D70*
X026916Y032856D03*
X027166Y033236D03*
X026776Y033336D03*
X028146Y033336D03*
D71*
X028341Y032926D03*
X028331Y032906D03*
X028321Y032896D03*
X028321Y032886D03*
X028311Y032876D03*
X028311Y032866D03*
X026621Y033076D03*
D72*
X026931Y032896D03*
X026941Y032906D03*
X027421Y033166D03*
D73*
X026671Y033156D03*
X026531Y032906D03*
X028361Y033046D03*
D74*
X028366Y033036D03*
X026536Y032916D03*
D75*
X026536Y032926D03*
X026656Y033136D03*
X028366Y033016D03*
D76*
X028361Y033006D03*
X026541Y032936D03*
D77*
X026546Y032946D03*
X026646Y033126D03*
X028066Y033226D03*
D78*
X028361Y032996D03*
X028361Y032986D03*
X026641Y033116D03*
X026551Y032956D03*
D79*
X026556Y032966D03*
X026636Y033096D03*
X026636Y033106D03*
X028356Y032976D03*
X028356Y032966D03*
D80*
X026676Y033016D03*
X026666Y032986D03*
D81*
X026661Y032996D03*
D82*
X026666Y033006D03*
X028096Y033166D03*
D83*
X027611Y033006D03*
D84*
X027706Y033016D03*
X027706Y033026D03*
D85*
X026636Y033026D03*
D86*
X026661Y033146D03*
X028051Y033236D03*
X028361Y033026D03*
D87*
X026631Y033036D03*
D88*
X027701Y033036D03*
X027701Y033046D03*
X027711Y033056D03*
X027741Y033106D03*
D89*
X028086Y033196D03*
X026626Y033046D03*
D90*
X026626Y033056D03*
D91*
X026621Y033066D03*
D92*
X027961Y033116D03*
D93*
X027956Y033126D03*
X027936Y033136D03*
D94*
X027891Y033146D03*
D95*
X028081Y033156D03*
D96*
X027156Y033206D03*
X027126Y033176D03*
X027116Y033166D03*
D97*
X028091Y033186D03*
D98*
X028086Y033206D03*
X027456Y033426D03*
D99*
X027191Y033226D03*
X027171Y033216D03*
D100*
X026856Y033256D03*
X026826Y033246D03*
X026796Y033236D03*
D101*
X027816Y033256D03*
D102*
X027761Y033266D03*
D103*
X027701Y033276D03*
D104*
X027461Y033296D03*
D105*
X027456Y033306D03*
D106*
X027456Y033406D03*
D107*
X027461Y033416D03*
D108*
X025157Y033860D02*
X024970Y033860D01*
X025110Y034000D01*
X025110Y033720D01*
X024762Y031300D02*
X024809Y031254D01*
X024809Y031207D01*
X024762Y031160D01*
X024809Y031113D01*
X024809Y031067D01*
X024762Y031020D01*
X024669Y031020D01*
X024622Y031067D01*
X024715Y031160D02*
X024762Y031160D01*
X024762Y031300D02*
X024669Y031300D01*
X024622Y031254D01*
X023899Y031250D02*
X023852Y031297D01*
X023759Y031297D01*
X023712Y031250D01*
X023899Y031250D02*
X023899Y031203D01*
X023712Y031016D01*
X023899Y031016D01*
X023048Y031020D02*
X022861Y031020D01*
X022954Y031020D02*
X022954Y031300D01*
X022861Y031207D01*
X020827Y028548D02*
X020520Y028548D01*
X020827Y028548D02*
X020980Y028394D01*
X020827Y028241D01*
X020520Y028241D01*
X020596Y028087D02*
X020520Y028011D01*
X020520Y027857D01*
X020596Y027780D01*
X020596Y028087D02*
X020673Y028087D01*
X020980Y027780D01*
X020980Y028087D01*
X020980Y027627D02*
X020980Y027320D01*
X020980Y027473D02*
X020520Y027473D01*
X020673Y027320D01*
D109*
X027750Y024500D03*
D110*
X028250Y024988D02*
X028250Y025012D01*
X026462Y024550D02*
X026438Y024550D01*
X025812Y024550D02*
X025788Y024550D01*
X033500Y026438D02*
X033500Y026462D01*
X026562Y031550D02*
X026538Y031550D01*
D111*
X026978Y031794D02*
X026978Y032227D01*
X027135Y032384D01*
X027765Y032384D01*
X027922Y032227D01*
X027922Y031794D01*
X027922Y031006D02*
X027922Y030416D01*
X026978Y030416D01*
X026978Y031006D01*
X028299Y029926D02*
X028299Y029611D01*
X028299Y029926D02*
X028535Y029926D01*
X029165Y029926D02*
X029401Y029926D01*
X029401Y029611D01*
X031219Y028583D02*
X031400Y028583D01*
X031308Y028705D01*
X031400Y028583D02*
X031581Y028583D01*
X031486Y028705D02*
X031410Y028589D01*
X031769Y028583D02*
X031950Y028583D01*
X031858Y028705D01*
X031950Y028583D02*
X032131Y028583D01*
X032036Y028705D02*
X031960Y028589D01*
X032666Y027822D02*
X033256Y027822D01*
X032666Y027822D02*
X032666Y026878D01*
X033256Y026878D01*
X034044Y026878D02*
X034477Y026878D01*
X034634Y027035D01*
X034634Y027665D01*
X034477Y027822D01*
X034044Y027822D01*
X030576Y023601D02*
X030261Y023601D01*
X030576Y023601D02*
X030576Y023365D01*
X030576Y022735D02*
X030576Y022499D01*
X030261Y022499D01*
X029500Y022750D02*
X029250Y022500D01*
X028750Y022500D01*
X028500Y022750D01*
X028250Y022500D01*
X027750Y022500D01*
X027500Y022750D01*
X027250Y022500D01*
X026750Y022500D01*
X026500Y022750D01*
X026250Y022500D01*
X025750Y022500D01*
X025500Y022750D01*
X025500Y023250D01*
X025750Y023500D01*
X026250Y023500D01*
X026500Y023250D01*
X026750Y023500D01*
X027250Y023500D01*
X027500Y023250D01*
X027750Y023500D01*
X028250Y023500D01*
X028500Y023250D01*
X028750Y023500D01*
X029250Y023500D01*
X029500Y023250D01*
X029500Y022750D01*
X025352Y023966D02*
X024291Y022905D01*
X023937Y022905D01*
X023584Y023259D01*
X023584Y023613D01*
X024645Y024673D01*
X024998Y024673D01*
X025352Y024320D01*
X025352Y023966D01*
X024645Y024673D02*
X024645Y025027D01*
X024291Y025380D01*
X023937Y025380D01*
X022877Y024320D01*
X022877Y023966D01*
X023230Y023613D01*
X023584Y023613D01*
X022877Y024320D02*
X022523Y024320D01*
X022170Y024673D01*
X022170Y025027D01*
X023230Y026087D01*
X023584Y026087D01*
X023937Y025734D01*
X023937Y025380D01*
X022430Y024226D02*
X022076Y024580D01*
X022374Y026849D02*
X022689Y026849D01*
X022374Y026849D02*
X022374Y027085D01*
X022374Y027715D02*
X022374Y027951D01*
X022689Y027951D01*
X024244Y028991D02*
X024756Y028991D01*
X024756Y030409D02*
X024244Y030409D01*
X025490Y032000D02*
X022910Y032000D01*
X022910Y033400D01*
X025490Y033400D01*
X025490Y032000D01*
X025750Y033500D02*
X026250Y033500D01*
X026500Y033750D01*
X026750Y033500D01*
X027250Y033500D01*
X027500Y033750D01*
X027750Y033500D01*
X028250Y033500D01*
X028500Y033750D01*
X028750Y033500D01*
X029250Y033500D01*
X029500Y033750D01*
X029500Y034250D01*
X029250Y034500D01*
X028750Y034500D01*
X028500Y034250D01*
X028250Y034500D01*
X027750Y034500D01*
X027500Y034250D01*
X027250Y034500D01*
X026750Y034500D01*
X026500Y034250D01*
X026250Y034500D01*
X025750Y034500D01*
X025500Y034250D01*
X025500Y033750D01*
X025750Y033500D01*
X029974Y033799D02*
X030289Y033799D01*
X029974Y033799D02*
X029974Y034035D01*
X029974Y034665D02*
X029974Y034901D01*
X030289Y034901D01*
X021851Y030276D02*
X021851Y029961D01*
X021851Y030276D02*
X021615Y030276D01*
X020985Y030276D02*
X020749Y030276D01*
X020749Y029961D01*
D112*
X025220Y028780D02*
X027840Y028780D01*
X027980Y028640D01*
X027980Y026020D01*
X025220Y026020D01*
X025220Y028780D01*
X027539Y028480D02*
X027541Y028503D01*
X027547Y028526D01*
X027556Y028547D01*
X027569Y028567D01*
X027585Y028584D01*
X027603Y028598D01*
X027623Y028609D01*
X027645Y028617D01*
X027668Y028621D01*
X027692Y028621D01*
X027715Y028617D01*
X027737Y028609D01*
X027757Y028598D01*
X027775Y028584D01*
X027791Y028567D01*
X027804Y028547D01*
X027813Y028526D01*
X027819Y028503D01*
X027821Y028480D01*
X027819Y028457D01*
X027813Y028434D01*
X027804Y028413D01*
X027791Y028393D01*
X027775Y028376D01*
X027757Y028362D01*
X027737Y028351D01*
X027715Y028343D01*
X027692Y028339D01*
X027668Y028339D01*
X027645Y028343D01*
X027623Y028351D01*
X027603Y028362D01*
X027585Y028376D01*
X027569Y028393D01*
X027556Y028413D01*
X027547Y028434D01*
X027541Y028457D01*
X027539Y028480D01*
X029748Y027997D02*
X032052Y027997D01*
X032052Y023903D01*
X029748Y023903D01*
X029748Y027997D01*
X029951Y027613D02*
X029953Y027639D01*
X029959Y027665D01*
X029968Y027690D01*
X029981Y027713D01*
X029997Y027734D01*
X030016Y027752D01*
X030038Y027768D01*
X030061Y027780D01*
X030086Y027788D01*
X030112Y027793D01*
X030139Y027794D01*
X030165Y027791D01*
X030190Y027784D01*
X030215Y027774D01*
X030237Y027760D01*
X030258Y027743D01*
X030275Y027724D01*
X030290Y027702D01*
X030301Y027678D01*
X030309Y027652D01*
X030313Y027626D01*
X030313Y027600D01*
X030309Y027574D01*
X030301Y027548D01*
X030290Y027524D01*
X030275Y027502D01*
X030258Y027483D01*
X030237Y027466D01*
X030215Y027452D01*
X030190Y027442D01*
X030165Y027435D01*
X030139Y027432D01*
X030112Y027433D01*
X030086Y027438D01*
X030061Y027446D01*
X030038Y027458D01*
X030016Y027474D01*
X029997Y027492D01*
X029981Y027513D01*
X029968Y027536D01*
X029959Y027561D01*
X029953Y027587D01*
X029951Y027613D01*
D113*
X027815Y021406D02*
X027165Y021406D01*
X027142Y021410D01*
X027120Y021417D01*
X027099Y021427D01*
X027080Y021440D01*
X027064Y021457D01*
X027050Y021475D01*
X027039Y021496D01*
X027032Y021518D01*
X027028Y021541D01*
X027027Y021564D01*
X027815Y021406D02*
X027838Y021407D01*
X027861Y021411D01*
X027883Y021418D01*
X027904Y021429D01*
X027922Y021443D01*
X027939Y021459D01*
X027952Y021478D01*
X027962Y021499D01*
X027969Y021521D01*
X027973Y021544D01*
X028299Y021737D02*
X028299Y021863D01*
X033800Y026950D02*
X033800Y027750D01*
X033740Y031559D02*
X033760Y031571D01*
X033778Y031586D01*
X033793Y031603D01*
X033806Y031623D01*
X033815Y031644D01*
X033821Y031667D01*
X033823Y031690D01*
X033821Y031713D01*
X033816Y031736D01*
X033808Y031757D01*
X033483Y032320D01*
X033484Y032319D02*
X033472Y032339D01*
X033457Y032357D01*
X033440Y032372D01*
X033420Y032385D01*
X033399Y032394D01*
X033376Y032400D01*
X033353Y032402D01*
X033330Y032400D01*
X033307Y032395D01*
X033286Y032387D01*
X032955Y032574D02*
X032846Y032511D01*
X029035Y035328D02*
X029035Y035761D01*
X027850Y031550D02*
X027050Y031550D01*
X021781Y032327D02*
X021761Y032338D01*
X021739Y032346D01*
X021717Y032351D01*
X021693Y032352D01*
X021670Y032349D01*
X021648Y032343D01*
X021627Y032333D01*
X021608Y032320D01*
X021590Y032305D01*
X021576Y032286D01*
X021576Y032287D02*
X021252Y031724D01*
X021241Y031704D01*
X021233Y031682D01*
X021228Y031660D01*
X021227Y031636D01*
X021230Y031613D01*
X021236Y031591D01*
X021246Y031570D01*
X021259Y031551D01*
X021274Y031533D01*
X021293Y031519D01*
X021296Y031139D02*
X021405Y031076D01*
D114*
X028700Y031800D02*
X029500Y031800D01*
D115*
X031400Y029700D03*
X031950Y029700D03*
M02*
