G75*
G70*
%OFA0B0*%
%FSLAX24Y24*%
%IPPOS*%
%LPD*%
%AMOC8*
5,1,8,0,0,1.08239X$1,22.5*
%
%ADD10C,0.1080*%
%ADD11C,0.0820*%
%ADD12R,0.1891X0.0474*%
%ADD13R,0.1419X0.0710*%
%ADD14R,0.0631X0.0631*%
%ADD15C,0.0164*%
%ADD16C,0.0456*%
%ADD17C,0.1261*%
%ADD18R,0.0513X0.0375*%
%ADD19R,0.0375X0.0513*%
%ADD20R,0.0820X0.0820*%
%ADD21C,0.0420*%
D10*
X021890Y028500D03*
X033110Y028500D03*
D11*
X028000Y023000D03*
X027000Y023000D03*
X026000Y023000D03*
X021300Y025900D03*
X021300Y026900D03*
X027000Y034000D03*
X028000Y034000D03*
X029000Y034000D03*
D12*
X031307Y025644D03*
X031307Y024856D03*
D13*
X029259Y023911D03*
X029259Y026589D03*
D14*
X032700Y026348D03*
X032700Y024852D03*
D15*
X024875Y023898D02*
X024957Y023816D01*
X024685Y023816D01*
X024494Y024007D01*
X024494Y024279D01*
X024685Y024470D01*
X024957Y024470D01*
X025148Y024279D01*
X025148Y024007D01*
X024957Y023816D01*
X024906Y023939D01*
X024736Y023939D01*
X024617Y024058D01*
X024617Y024228D01*
X024736Y024347D01*
X024906Y024347D01*
X025025Y024228D01*
X025025Y024058D01*
X024906Y023939D01*
X024855Y024062D01*
X024787Y024062D01*
X024740Y024109D01*
X024740Y024177D01*
X024787Y024224D01*
X024855Y024224D01*
X024902Y024177D01*
X024902Y024109D01*
X024855Y024062D01*
X024168Y023191D02*
X024250Y023109D01*
X023978Y023109D01*
X023787Y023300D01*
X023787Y023572D01*
X023978Y023763D01*
X024250Y023763D01*
X024441Y023572D01*
X024441Y023300D01*
X024250Y023109D01*
X024199Y023232D01*
X024029Y023232D01*
X023910Y023351D01*
X023910Y023521D01*
X024029Y023640D01*
X024199Y023640D01*
X024318Y023521D01*
X024318Y023351D01*
X024199Y023232D01*
X024148Y023355D01*
X024080Y023355D01*
X024033Y023402D01*
X024033Y023470D01*
X024080Y023517D01*
X024148Y023517D01*
X024195Y023470D01*
X024195Y023402D01*
X024148Y023355D01*
X023461Y023898D02*
X023543Y023816D01*
X023271Y023816D01*
X023080Y024007D01*
X023080Y024279D01*
X023271Y024470D01*
X023543Y024470D01*
X023734Y024279D01*
X023734Y024007D01*
X023543Y023816D01*
X023492Y023939D01*
X023322Y023939D01*
X023203Y024058D01*
X023203Y024228D01*
X023322Y024347D01*
X023492Y024347D01*
X023611Y024228D01*
X023611Y024058D01*
X023492Y023939D01*
X023441Y024062D01*
X023373Y024062D01*
X023326Y024109D01*
X023326Y024177D01*
X023373Y024224D01*
X023441Y024224D01*
X023488Y024177D01*
X023488Y024109D01*
X023441Y024062D01*
X024168Y024605D02*
X024250Y024523D01*
X023978Y024523D01*
X023787Y024714D01*
X023787Y024986D01*
X023978Y025177D01*
X024250Y025177D01*
X024441Y024986D01*
X024441Y024714D01*
X024250Y024523D01*
X024199Y024646D01*
X024029Y024646D01*
X023910Y024765D01*
X023910Y024935D01*
X024029Y025054D01*
X024199Y025054D01*
X024318Y024935D01*
X024318Y024765D01*
X024199Y024646D01*
X024148Y024769D01*
X024080Y024769D01*
X024033Y024816D01*
X024033Y024884D01*
X024080Y024931D01*
X024148Y024931D01*
X024195Y024884D01*
X024195Y024816D01*
X024148Y024769D01*
X023461Y025312D02*
X023543Y025230D01*
X023271Y025230D01*
X023080Y025421D01*
X023080Y025693D01*
X023271Y025884D01*
X023543Y025884D01*
X023734Y025693D01*
X023734Y025421D01*
X023543Y025230D01*
X023492Y025353D01*
X023322Y025353D01*
X023203Y025472D01*
X023203Y025642D01*
X023322Y025761D01*
X023492Y025761D01*
X023611Y025642D01*
X023611Y025472D01*
X023492Y025353D01*
X023441Y025476D01*
X023373Y025476D01*
X023326Y025523D01*
X023326Y025591D01*
X023373Y025638D01*
X023441Y025638D01*
X023488Y025591D01*
X023488Y025523D01*
X023441Y025476D01*
X022754Y024605D02*
X022836Y024523D01*
X022564Y024523D01*
X022373Y024714D01*
X022373Y024986D01*
X022564Y025177D01*
X022836Y025177D01*
X023027Y024986D01*
X023027Y024714D01*
X022836Y024523D01*
X022785Y024646D01*
X022615Y024646D01*
X022496Y024765D01*
X022496Y024935D01*
X022615Y025054D01*
X022785Y025054D01*
X022904Y024935D01*
X022904Y024765D01*
X022785Y024646D01*
X022734Y024769D01*
X022666Y024769D01*
X022619Y024816D01*
X022619Y024884D01*
X022666Y024931D01*
X022734Y024931D01*
X022781Y024884D01*
X022781Y024816D01*
X022734Y024769D01*
D16*
X029896Y030440D03*
X030604Y030755D03*
X029896Y031070D03*
X029896Y031700D03*
X030604Y031385D03*
X032000Y031950D03*
X031150Y023500D03*
D17*
X030250Y029416D03*
X030250Y032724D03*
D18*
X028721Y032350D03*
X028721Y031850D03*
X028721Y031350D03*
X027879Y031350D03*
X027879Y031850D03*
X027879Y032350D03*
X026021Y032050D03*
X026021Y031550D03*
X026021Y031050D03*
X026021Y030550D03*
X025179Y030550D03*
X025179Y031050D03*
X025179Y031550D03*
X025179Y032050D03*
X027879Y030850D03*
X028721Y030850D03*
D19*
X024650Y031979D03*
X024150Y031979D03*
X023650Y031979D03*
X023150Y031979D03*
X023150Y032821D03*
X023650Y032821D03*
X024150Y032821D03*
X024650Y032821D03*
D20*
X026000Y034000D03*
X029000Y023000D03*
D21*
X026300Y021850D03*
X025450Y022200D03*
X025300Y023150D03*
X024800Y023150D03*
X027350Y025000D03*
X027850Y023700D03*
X028600Y022300D03*
X028950Y021650D03*
X029500Y021800D03*
X031750Y022900D03*
X032150Y023250D03*
X033250Y025250D03*
X033650Y025600D03*
X034150Y026050D03*
X034550Y028150D03*
X034550Y028650D03*
X032900Y029400D03*
X032450Y029150D03*
X033550Y030500D03*
X033900Y030950D03*
X032550Y031200D03*
X032750Y031700D03*
X031550Y031650D03*
X031300Y031200D03*
X031400Y032150D03*
X031750Y033350D03*
X031500Y033900D03*
X030200Y035050D03*
X029700Y034900D03*
X029300Y034600D03*
X029300Y035350D03*
X025800Y034950D03*
X024650Y034800D03*
X023150Y033700D03*
X022450Y032800D03*
X022500Y031000D03*
X022050Y030800D03*
X022450Y030450D03*
X023700Y030300D03*
X024050Y030700D03*
X023400Y029400D03*
X023900Y028200D03*
X024250Y027850D03*
X023800Y027600D03*
X024100Y026600D03*
X023150Y026550D03*
X022539Y027839D03*
X021500Y027700D03*
X021150Y028900D03*
X025450Y028200D03*
X025500Y026650D03*
X025913Y026300D03*
X027000Y027550D03*
X027650Y027900D03*
X028800Y028850D03*
X029200Y028350D03*
X030050Y028550D03*
X030550Y028550D03*
X030300Y027600D03*
X030250Y026150D03*
X030100Y025250D03*
X028900Y025350D03*
X031350Y026150D03*
X027900Y029950D03*
X028250Y030350D03*
X027200Y029950D03*
X026400Y029850D03*
X026550Y030650D03*
M02*
