G75*
G70*
%OFA0B0*%
%FSLAX24Y24*%
%IPPOS*%
%LPD*%
%AMOC8*
5,1,8,0,0,1.08239X$1,22.5*
%
%ADD10C,0.1080*%
%ADD11R,0.0356X0.0434*%
%ADD12R,0.0434X0.0356*%
%ADD13R,0.0749X0.0356*%
%ADD14R,0.0300X0.0580*%
%ADD15R,0.0580X0.0300*%
%ADD16C,0.0820*%
%ADD17R,0.0257X0.0277*%
%ADD18R,0.0415X0.0434*%
%ADD19R,0.0277X0.0257*%
%ADD20R,0.0434X0.0415*%
%ADD21R,0.0560X0.0960*%
%ADD22R,0.1497X0.0946*%
%ADD23R,0.0710X0.0631*%
%ADD24R,0.0434X0.0395*%
%ADD25R,0.0395X0.0434*%
%ADD26R,0.0631X0.0631*%
%ADD27C,0.0164*%
%ADD28R,0.0630X0.0217*%
%ADD29C,0.0556*%
%ADD30C,0.1261*%
%ADD31R,0.0395X0.0395*%
%ADD32R,0.0631X0.0710*%
%ADD33R,0.0651X0.0493*%
%ADD34R,0.0316X0.0395*%
%ADD35R,0.0820X0.0820*%
D10*
X021890Y028500D03*
X033110Y028500D03*
D11*
X033244Y026450D03*
X033756Y026450D03*
X028506Y025000D03*
X027994Y025000D03*
X028006Y024500D03*
X027494Y024500D03*
D12*
X026450Y024294D03*
X026450Y024806D03*
X025800Y024806D03*
X025800Y024294D03*
X031400Y029444D03*
X031400Y029956D03*
X031950Y029956D03*
X031950Y029444D03*
X026550Y031294D03*
X026550Y031806D03*
D13*
X024500Y030172D03*
X024500Y029700D03*
X024500Y029228D03*
D14*
X025498Y029090D03*
X025813Y029090D03*
X026128Y029090D03*
X026443Y029090D03*
X026757Y029090D03*
X027072Y029090D03*
X027387Y029090D03*
X027702Y029090D03*
X027702Y025710D03*
X027387Y025710D03*
X027072Y025710D03*
X026757Y025710D03*
X026443Y025710D03*
X026128Y025710D03*
X025813Y025710D03*
X025498Y025710D03*
D15*
X024910Y026298D03*
X024910Y026613D03*
X024910Y026928D03*
X024910Y027243D03*
X024910Y027557D03*
X024910Y027872D03*
X024910Y028187D03*
X024910Y028502D03*
X028290Y028502D03*
X028290Y028187D03*
X028290Y027872D03*
X028290Y027557D03*
X028290Y027243D03*
X028290Y026928D03*
X028290Y026613D03*
X028290Y026298D03*
D16*
X028000Y023000D03*
X027000Y023000D03*
X026000Y023000D03*
X021300Y025900D03*
X021300Y026900D03*
X027000Y034000D03*
X028000Y034000D03*
X029000Y034000D03*
D17*
X027669Y021938D03*
X027331Y021938D03*
D18*
X026972Y021800D03*
X028020Y021800D03*
D19*
G36*
X033448Y031593D02*
X033210Y031455D01*
X033082Y031675D01*
X033320Y031813D01*
X033448Y031593D01*
G37*
G36*
X033279Y031887D02*
X033041Y031749D01*
X032913Y031969D01*
X033151Y032107D01*
X033279Y031887D01*
G37*
G36*
X021899Y032057D02*
X022137Y031919D01*
X022009Y031699D01*
X021771Y031837D01*
X021899Y032057D01*
G37*
G36*
X021730Y031763D02*
X021968Y031625D01*
X021840Y031405D01*
X021602Y031543D01*
X021730Y031763D01*
G37*
D20*
G36*
X021406Y031637D02*
X021781Y031420D01*
X021574Y031063D01*
X021199Y031280D01*
X021406Y031637D01*
G37*
G36*
X021930Y032544D02*
X022305Y032327D01*
X022098Y031970D01*
X021723Y032187D01*
X021930Y032544D01*
G37*
G36*
X033331Y032230D02*
X032956Y032013D01*
X032749Y032370D01*
X033124Y032587D01*
X033331Y032230D01*
G37*
G36*
X033855Y031323D02*
X033480Y031106D01*
X033273Y031463D01*
X033648Y031680D01*
X033855Y031323D01*
G37*
D21*
X025110Y031480D03*
X024200Y031480D03*
X023290Y031480D03*
D22*
X024200Y033920D03*
D23*
X027450Y031951D03*
X027450Y030849D03*
D24*
X023044Y027774D03*
X023044Y027026D03*
X022217Y027400D03*
X029906Y023424D03*
X029906Y022676D03*
X030733Y023050D03*
X030644Y033976D03*
X030644Y034724D03*
X029817Y034350D03*
D25*
X028850Y030083D03*
X028476Y029256D03*
X029224Y029256D03*
X021674Y029606D03*
X020926Y029606D03*
X021300Y030433D03*
D26*
X029100Y030752D03*
X029100Y032248D03*
D27*
X023461Y025312D02*
X023543Y025230D01*
X023271Y025230D01*
X023080Y025421D01*
X023080Y025693D01*
X023271Y025884D01*
X023543Y025884D01*
X023734Y025693D01*
X023734Y025421D01*
X023543Y025230D01*
X023492Y025353D01*
X023322Y025353D01*
X023203Y025472D01*
X023203Y025642D01*
X023322Y025761D01*
X023492Y025761D01*
X023611Y025642D01*
X023611Y025472D01*
X023492Y025353D01*
X023441Y025476D01*
X023373Y025476D01*
X023326Y025523D01*
X023326Y025591D01*
X023373Y025638D01*
X023441Y025638D01*
X023488Y025591D01*
X023488Y025523D01*
X023441Y025476D01*
X024168Y024605D02*
X024250Y024523D01*
X023978Y024523D01*
X023787Y024714D01*
X023787Y024986D01*
X023978Y025177D01*
X024250Y025177D01*
X024441Y024986D01*
X024441Y024714D01*
X024250Y024523D01*
X024199Y024646D01*
X024029Y024646D01*
X023910Y024765D01*
X023910Y024935D01*
X024029Y025054D01*
X024199Y025054D01*
X024318Y024935D01*
X024318Y024765D01*
X024199Y024646D01*
X024148Y024769D01*
X024080Y024769D01*
X024033Y024816D01*
X024033Y024884D01*
X024080Y024931D01*
X024148Y024931D01*
X024195Y024884D01*
X024195Y024816D01*
X024148Y024769D01*
X024875Y023898D02*
X024957Y023816D01*
X024685Y023816D01*
X024494Y024007D01*
X024494Y024279D01*
X024685Y024470D01*
X024957Y024470D01*
X025148Y024279D01*
X025148Y024007D01*
X024957Y023816D01*
X024906Y023939D01*
X024736Y023939D01*
X024617Y024058D01*
X024617Y024228D01*
X024736Y024347D01*
X024906Y024347D01*
X025025Y024228D01*
X025025Y024058D01*
X024906Y023939D01*
X024855Y024062D01*
X024787Y024062D01*
X024740Y024109D01*
X024740Y024177D01*
X024787Y024224D01*
X024855Y024224D01*
X024902Y024177D01*
X024902Y024109D01*
X024855Y024062D01*
X024168Y023191D02*
X024250Y023109D01*
X023978Y023109D01*
X023787Y023300D01*
X023787Y023572D01*
X023978Y023763D01*
X024250Y023763D01*
X024441Y023572D01*
X024441Y023300D01*
X024250Y023109D01*
X024199Y023232D01*
X024029Y023232D01*
X023910Y023351D01*
X023910Y023521D01*
X024029Y023640D01*
X024199Y023640D01*
X024318Y023521D01*
X024318Y023351D01*
X024199Y023232D01*
X024148Y023355D01*
X024080Y023355D01*
X024033Y023402D01*
X024033Y023470D01*
X024080Y023517D01*
X024148Y023517D01*
X024195Y023470D01*
X024195Y023402D01*
X024148Y023355D01*
X023461Y023898D02*
X023543Y023816D01*
X023271Y023816D01*
X023080Y024007D01*
X023080Y024279D01*
X023271Y024470D01*
X023543Y024470D01*
X023734Y024279D01*
X023734Y024007D01*
X023543Y023816D01*
X023492Y023939D01*
X023322Y023939D01*
X023203Y024058D01*
X023203Y024228D01*
X023322Y024347D01*
X023492Y024347D01*
X023611Y024228D01*
X023611Y024058D01*
X023492Y023939D01*
X023441Y024062D01*
X023373Y024062D01*
X023326Y024109D01*
X023326Y024177D01*
X023373Y024224D01*
X023441Y024224D01*
X023488Y024177D01*
X023488Y024109D01*
X023441Y024062D01*
X022754Y024605D02*
X022836Y024523D01*
X022564Y024523D01*
X022373Y024714D01*
X022373Y024986D01*
X022564Y025177D01*
X022836Y025177D01*
X023027Y024986D01*
X023027Y024714D01*
X022836Y024523D01*
X022785Y024646D01*
X022615Y024646D01*
X022496Y024765D01*
X022496Y024935D01*
X022615Y025054D01*
X022785Y025054D01*
X022904Y024935D01*
X022904Y024765D01*
X022785Y024646D01*
X022734Y024769D01*
X022666Y024769D01*
X022619Y024816D01*
X022619Y024884D01*
X022666Y024931D01*
X022734Y024931D01*
X022781Y024884D01*
X022781Y024816D01*
X022734Y024769D01*
D28*
X029461Y024798D03*
X029461Y024543D03*
X029461Y024287D03*
X029461Y025054D03*
X029461Y025310D03*
X029461Y025566D03*
X029461Y025822D03*
X029461Y026078D03*
X029461Y026334D03*
X029461Y026590D03*
X029461Y026846D03*
X029461Y027102D03*
X029461Y027357D03*
X029461Y027613D03*
X032339Y027613D03*
X032339Y027357D03*
X032339Y027102D03*
X032339Y026846D03*
X032339Y026590D03*
X032339Y026334D03*
X032339Y026078D03*
X032339Y025822D03*
X032339Y025566D03*
X032339Y025310D03*
X032339Y025054D03*
X032339Y024798D03*
X032339Y024543D03*
X032339Y024287D03*
D29*
X029896Y030440D03*
X030604Y030755D03*
X029896Y031070D03*
X029896Y031700D03*
X030604Y031385D03*
D30*
X030250Y032724D03*
X030250Y029416D03*
D31*
X031400Y028945D03*
X031950Y028945D03*
X031950Y028355D03*
X031400Y028355D03*
D32*
X033099Y027350D03*
X034201Y027350D03*
D33*
X028396Y034906D03*
X026604Y034906D03*
D34*
X026201Y035544D03*
X028799Y035544D03*
D35*
X026000Y034000D03*
X029000Y023000D03*
M02*
