G75*
G70*
%OFA0B0*%
%FSLAX24Y24*%
%IPPOS*%
%LPD*%
%AMOC8*
5,1,8,0,0,1.08239X$1,22.5*
%
%ADD10C,0.0800*%
%ADD11R,0.0414X0.0336*%
%ADD12R,0.0360X0.0660*%
%ADD13R,0.0336X0.0414*%
%ADD14R,0.0336X0.0729*%
%ADD15R,0.0560X0.0280*%
%ADD16R,0.0280X0.0560*%
%ADD17R,0.0336X0.0532*%
%ADD18R,0.2186X0.2501*%
%ADD19R,0.0454X0.0690*%
%ADD20R,0.0690X0.0611*%
%ADD21R,0.0375X0.0375*%
%ADD22R,0.0375X0.0532*%
%ADD23R,0.0375X0.0414*%
%ADD24R,0.0611X0.0611*%
%ADD25R,0.0414X0.0375*%
%ADD26C,0.0417*%
%ADD27C,0.0456*%
D10*
X003059Y005809D03*
X003059Y006809D03*
X003059Y007809D03*
X003059Y008809D03*
X003059Y009809D03*
X003059Y010809D03*
X012834Y010034D03*
X012834Y009034D03*
X012834Y008034D03*
X012834Y007034D03*
X012834Y006034D03*
X012834Y005034D03*
D11*
X010609Y008153D03*
X010609Y008665D03*
X009659Y008753D03*
X009159Y008753D03*
X009159Y009265D03*
X009659Y009265D03*
D12*
X008333Y008583D03*
X006833Y008583D03*
X006833Y006583D03*
X008333Y006583D03*
D13*
G36*
X006117Y009093D02*
X006355Y008855D01*
X006063Y008563D01*
X005825Y008801D01*
X006117Y009093D01*
G37*
G36*
X005755Y009455D02*
X005993Y009217D01*
X005701Y008925D01*
X005463Y009163D01*
X005755Y009455D01*
G37*
G36*
X009893Y011201D02*
X009655Y010963D01*
X009363Y011255D01*
X009601Y011493D01*
X009893Y011201D01*
G37*
G36*
X010255Y011563D02*
X010017Y011325D01*
X009725Y011617D01*
X009963Y011855D01*
X010255Y011563D01*
G37*
X011203Y010809D03*
X011715Y010809D03*
D14*
G36*
X009283Y013122D02*
X008959Y013209D01*
X009147Y013912D01*
X009471Y013825D01*
X009283Y013122D01*
G37*
G36*
X008827Y013244D02*
X008503Y013331D01*
X008691Y014034D01*
X009015Y013947D01*
X008827Y013244D01*
G37*
G36*
X008371Y013366D02*
X008047Y013453D01*
X008235Y014156D01*
X008559Y014069D01*
X008371Y013366D01*
G37*
D15*
G36*
X007524Y012790D02*
X007918Y013184D01*
X008116Y012986D01*
X007722Y012592D01*
X007524Y012790D01*
G37*
G36*
X007301Y013013D02*
X007695Y013407D01*
X007893Y013209D01*
X007499Y012815D01*
X007301Y013013D01*
G37*
G36*
X007079Y013236D02*
X007473Y013630D01*
X007671Y013432D01*
X007277Y013038D01*
X007079Y013236D01*
G37*
G36*
X007747Y012567D02*
X008141Y012961D01*
X008339Y012763D01*
X007945Y012369D01*
X007747Y012567D01*
G37*
G36*
X007969Y012345D02*
X008363Y012739D01*
X008561Y012541D01*
X008167Y012147D01*
X007969Y012345D01*
G37*
G36*
X008192Y012122D02*
X008586Y012516D01*
X008784Y012318D01*
X008390Y011924D01*
X008192Y012122D01*
G37*
G36*
X008415Y011899D02*
X008809Y012293D01*
X009007Y012095D01*
X008613Y011701D01*
X008415Y011899D01*
G37*
G36*
X008638Y011677D02*
X009032Y012071D01*
X009230Y011873D01*
X008836Y011479D01*
X008638Y011677D01*
G37*
G36*
X006247Y009287D02*
X006641Y009681D01*
X006839Y009483D01*
X006445Y009089D01*
X006247Y009287D01*
G37*
G36*
X006025Y009509D02*
X006419Y009903D01*
X006617Y009705D01*
X006223Y009311D01*
X006025Y009509D01*
G37*
G36*
X005802Y009732D02*
X006196Y010126D01*
X006394Y009928D01*
X006000Y009534D01*
X005802Y009732D01*
G37*
G36*
X005579Y009955D02*
X005973Y010349D01*
X006171Y010151D01*
X005777Y009757D01*
X005579Y009955D01*
G37*
G36*
X005357Y010177D02*
X005751Y010571D01*
X005949Y010373D01*
X005555Y009979D01*
X005357Y010177D01*
G37*
G36*
X005134Y010400D02*
X005528Y010794D01*
X005726Y010596D01*
X005332Y010202D01*
X005134Y010400D01*
G37*
G36*
X004911Y010623D02*
X005305Y011017D01*
X005503Y010819D01*
X005109Y010425D01*
X004911Y010623D01*
G37*
G36*
X004689Y010845D02*
X005083Y011239D01*
X005281Y011041D01*
X004887Y010647D01*
X004689Y010845D01*
G37*
D16*
G36*
X004689Y011873D02*
X004887Y012071D01*
X005281Y011677D01*
X005083Y011479D01*
X004689Y011873D01*
G37*
G36*
X004911Y012095D02*
X005109Y012293D01*
X005503Y011899D01*
X005305Y011701D01*
X004911Y012095D01*
G37*
G36*
X005134Y012318D02*
X005332Y012516D01*
X005726Y012122D01*
X005528Y011924D01*
X005134Y012318D01*
G37*
G36*
X005357Y012541D02*
X005555Y012739D01*
X005949Y012345D01*
X005751Y012147D01*
X005357Y012541D01*
G37*
G36*
X005579Y012763D02*
X005777Y012961D01*
X006171Y012567D01*
X005973Y012369D01*
X005579Y012763D01*
G37*
G36*
X005802Y012986D02*
X006000Y013184D01*
X006394Y012790D01*
X006196Y012592D01*
X005802Y012986D01*
G37*
G36*
X006025Y013209D02*
X006223Y013407D01*
X006617Y013013D01*
X006419Y012815D01*
X006025Y013209D01*
G37*
G36*
X006247Y013432D02*
X006445Y013630D01*
X006839Y013236D01*
X006641Y013038D01*
X006247Y013432D01*
G37*
G36*
X008638Y011041D02*
X008836Y011239D01*
X009230Y010845D01*
X009032Y010647D01*
X008638Y011041D01*
G37*
G36*
X008415Y010819D02*
X008613Y011017D01*
X009007Y010623D01*
X008809Y010425D01*
X008415Y010819D01*
G37*
G36*
X008192Y010596D02*
X008390Y010794D01*
X008784Y010400D01*
X008586Y010202D01*
X008192Y010596D01*
G37*
G36*
X007969Y010373D02*
X008167Y010571D01*
X008561Y010177D01*
X008363Y009979D01*
X007969Y010373D01*
G37*
G36*
X007747Y010151D02*
X007945Y010349D01*
X008339Y009955D01*
X008141Y009757D01*
X007747Y010151D01*
G37*
G36*
X007524Y009928D02*
X007722Y010126D01*
X008116Y009732D01*
X007918Y009534D01*
X007524Y009928D01*
G37*
G36*
X007301Y009705D02*
X007499Y009903D01*
X007893Y009509D01*
X007695Y009311D01*
X007301Y009705D01*
G37*
G36*
X007079Y009483D02*
X007277Y009681D01*
X007671Y009287D01*
X007473Y009089D01*
X007079Y009483D01*
G37*
D17*
G36*
X009446Y012654D02*
X009614Y012944D01*
X010074Y012678D01*
X009906Y012388D01*
X009446Y012654D01*
G37*
G36*
X009721Y013131D02*
X009889Y013421D01*
X010349Y013155D01*
X010181Y012865D01*
X009721Y013131D01*
G37*
G36*
X010469Y012063D02*
X010637Y012353D01*
X011097Y012087D01*
X010929Y011797D01*
X010469Y012063D01*
G37*
G36*
X010744Y012540D02*
X010912Y012830D01*
X011372Y012564D01*
X011204Y012274D01*
X010744Y012540D01*
G37*
X002085Y008200D03*
X001533Y008200D03*
X001533Y007018D03*
X002085Y007018D03*
G36*
X009714Y002274D02*
X009546Y002564D01*
X010006Y002830D01*
X010174Y002540D01*
X009714Y002274D01*
G37*
G36*
X009989Y001797D02*
X009821Y002087D01*
X010281Y002353D01*
X010449Y002063D01*
X009989Y001797D01*
G37*
G36*
X011012Y002388D02*
X010844Y002678D01*
X011304Y002944D01*
X011472Y002654D01*
X011012Y002388D01*
G37*
G36*
X010737Y002865D02*
X010569Y003155D01*
X011029Y003421D01*
X011197Y003131D01*
X010737Y002865D01*
G37*
D18*
X011009Y005075D03*
D19*
X010111Y007949D03*
X011907Y007949D03*
D20*
X011759Y008808D03*
X011759Y009910D03*
X009159Y007860D03*
X009159Y006758D03*
D21*
X010659Y009364D03*
X010659Y009954D03*
D22*
X009213Y005209D03*
X008505Y005209D03*
X008505Y004509D03*
X008505Y003809D03*
X009213Y003809D03*
X009213Y004509D03*
X007163Y004509D03*
X007163Y003809D03*
X006455Y003809D03*
X006455Y004509D03*
X006455Y005209D03*
X007163Y005209D03*
X005463Y004909D03*
X005463Y004209D03*
X005463Y003509D03*
X004755Y003509D03*
X004755Y004209D03*
X004755Y004909D03*
D23*
X008363Y001973D03*
X009111Y001973D03*
X008737Y002800D03*
G36*
X003959Y011230D02*
X003695Y010966D01*
X003403Y011258D01*
X003667Y011522D01*
X003959Y011230D01*
G37*
G36*
X004488Y011759D02*
X004224Y011495D01*
X003932Y011787D01*
X004196Y012051D01*
X004488Y011759D01*
G37*
G36*
X003639Y012079D02*
X003375Y011815D01*
X003083Y012107D01*
X003347Y012371D01*
X003639Y012079D01*
G37*
D24*
X005579Y002097D03*
X007075Y002097D03*
D25*
X004715Y005535D03*
X004715Y006283D03*
X004715Y006835D03*
X004715Y007583D03*
X004715Y008135D03*
X004715Y008883D03*
X005542Y008509D03*
X005542Y007209D03*
X005542Y005909D03*
D26*
X003479Y002659D03*
X003939Y002789D03*
X003549Y003139D03*
X004309Y004209D03*
X004059Y004559D03*
X004319Y004929D03*
X005069Y005899D03*
X004209Y007209D03*
X004259Y008909D03*
X004409Y009409D03*
X005109Y009684D03*
X004709Y010159D03*
X006159Y011309D03*
X006009Y011759D03*
X006509Y010859D03*
X006909Y010459D03*
X007359Y012009D03*
X006859Y012459D03*
X007209Y012709D03*
X008449Y013049D03*
X009159Y012759D03*
X009409Y011659D03*
X010409Y012559D03*
X011309Y011609D03*
X010509Y011359D03*
X010609Y010509D03*
X009909Y010259D03*
X009809Y009809D03*
X009209Y009909D03*
X007259Y008559D03*
X007259Y008159D03*
X007309Y007659D03*
X007209Y007059D03*
X006809Y007209D03*
X007259Y006409D03*
X007159Y005699D03*
X007709Y005559D03*
X007579Y005099D03*
X007599Y004409D03*
X007243Y003133D03*
X006543Y003123D03*
X008609Y005859D03*
X007919Y006409D03*
X006109Y008359D03*
X004459Y012209D03*
X004809Y012559D03*
X005259Y012859D03*
X001909Y009109D03*
X001589Y008759D03*
X001909Y006509D03*
X001759Y005609D03*
X010279Y002819D03*
X010569Y002409D03*
X010509Y003559D03*
D27*
X009623Y003253D03*
X007713Y002323D03*
X005603Y002693D03*
X010103Y006893D03*
X011013Y006963D03*
M02*
