G75*
G70*
%OFA0B0*%
%FSLAX24Y24*%
%IPPOS*%
%LPD*%
%AMOC8*
5,1,8,0,0,1.08239X$1,22.5*
%
%ADD10C,0.0740*%
%ADD11R,0.1811X0.0394*%
%ADD12R,0.1339X0.0630*%
%ADD13R,0.0551X0.0551*%
%ADD14C,0.0148*%
%ADD15C,0.0376*%
%ADD16C,0.1181*%
%ADD17R,0.0433X0.0295*%
%ADD18R,0.0295X0.0433*%
%ADD19R,0.0740X0.0740*%
%ADD20C,0.0340*%
%ADD21C,0.0160*%
%ADD22C,0.0082*%
%ADD23C,0.0100*%
%ADD24C,0.0240*%
%ADD25C,0.0320*%
%ADD26C,0.0120*%
D10*
X026000Y023000D03*
X027000Y023000D03*
X028000Y023000D03*
X021300Y025900D03*
X021300Y026900D03*
X027000Y034000D03*
X028000Y034000D03*
X029000Y034000D03*
D11*
X031307Y025644D03*
X031307Y024856D03*
D12*
X029259Y023911D03*
X029259Y026589D03*
D13*
X032700Y026348D03*
X032700Y024852D03*
D14*
X024870Y023922D02*
X024944Y023848D01*
X024698Y023848D01*
X024526Y024020D01*
X024526Y024266D01*
X024698Y024438D01*
X024944Y024438D01*
X025116Y024266D01*
X025116Y024020D01*
X024944Y023848D01*
X024898Y023959D01*
X024744Y023959D01*
X024637Y024066D01*
X024637Y024220D01*
X024744Y024327D01*
X024898Y024327D01*
X025005Y024220D01*
X025005Y024066D01*
X024898Y023959D01*
X024852Y024070D01*
X024790Y024070D01*
X024748Y024112D01*
X024748Y024174D01*
X024790Y024216D01*
X024852Y024216D01*
X024894Y024174D01*
X024894Y024112D01*
X024852Y024070D01*
X024163Y023215D02*
X024237Y023141D01*
X023991Y023141D01*
X023819Y023313D01*
X023819Y023559D01*
X023991Y023731D01*
X024237Y023731D01*
X024409Y023559D01*
X024409Y023313D01*
X024237Y023141D01*
X024191Y023252D01*
X024037Y023252D01*
X023930Y023359D01*
X023930Y023513D01*
X024037Y023620D01*
X024191Y023620D01*
X024298Y023513D01*
X024298Y023359D01*
X024191Y023252D01*
X024145Y023363D01*
X024083Y023363D01*
X024041Y023405D01*
X024041Y023467D01*
X024083Y023509D01*
X024145Y023509D01*
X024187Y023467D01*
X024187Y023405D01*
X024145Y023363D01*
X023456Y023922D02*
X023530Y023848D01*
X023284Y023848D01*
X023112Y024020D01*
X023112Y024266D01*
X023284Y024438D01*
X023530Y024438D01*
X023702Y024266D01*
X023702Y024020D01*
X023530Y023848D01*
X023484Y023959D01*
X023330Y023959D01*
X023223Y024066D01*
X023223Y024220D01*
X023330Y024327D01*
X023484Y024327D01*
X023591Y024220D01*
X023591Y024066D01*
X023484Y023959D01*
X023438Y024070D01*
X023376Y024070D01*
X023334Y024112D01*
X023334Y024174D01*
X023376Y024216D01*
X023438Y024216D01*
X023480Y024174D01*
X023480Y024112D01*
X023438Y024070D01*
X024163Y024629D02*
X024237Y024555D01*
X023991Y024555D01*
X023819Y024727D01*
X023819Y024973D01*
X023991Y025145D01*
X024237Y025145D01*
X024409Y024973D01*
X024409Y024727D01*
X024237Y024555D01*
X024191Y024666D01*
X024037Y024666D01*
X023930Y024773D01*
X023930Y024927D01*
X024037Y025034D01*
X024191Y025034D01*
X024298Y024927D01*
X024298Y024773D01*
X024191Y024666D01*
X024145Y024777D01*
X024083Y024777D01*
X024041Y024819D01*
X024041Y024881D01*
X024083Y024923D01*
X024145Y024923D01*
X024187Y024881D01*
X024187Y024819D01*
X024145Y024777D01*
X023456Y025336D02*
X023530Y025262D01*
X023284Y025262D01*
X023112Y025434D01*
X023112Y025680D01*
X023284Y025852D01*
X023530Y025852D01*
X023702Y025680D01*
X023702Y025434D01*
X023530Y025262D01*
X023484Y025373D01*
X023330Y025373D01*
X023223Y025480D01*
X023223Y025634D01*
X023330Y025741D01*
X023484Y025741D01*
X023591Y025634D01*
X023591Y025480D01*
X023484Y025373D01*
X023438Y025484D01*
X023376Y025484D01*
X023334Y025526D01*
X023334Y025588D01*
X023376Y025630D01*
X023438Y025630D01*
X023480Y025588D01*
X023480Y025526D01*
X023438Y025484D01*
X022749Y024629D02*
X022823Y024555D01*
X022577Y024555D01*
X022405Y024727D01*
X022405Y024973D01*
X022577Y025145D01*
X022823Y025145D01*
X022995Y024973D01*
X022995Y024727D01*
X022823Y024555D01*
X022777Y024666D01*
X022623Y024666D01*
X022516Y024773D01*
X022516Y024927D01*
X022623Y025034D01*
X022777Y025034D01*
X022884Y024927D01*
X022884Y024773D01*
X022777Y024666D01*
X022731Y024777D01*
X022669Y024777D01*
X022627Y024819D01*
X022627Y024881D01*
X022669Y024923D01*
X022731Y024923D01*
X022773Y024881D01*
X022773Y024819D01*
X022731Y024777D01*
D15*
X029896Y030440D03*
X030604Y030755D03*
X029896Y031070D03*
X029896Y031700D03*
X030604Y031385D03*
X032000Y031950D03*
X031150Y023500D03*
D16*
X030250Y029416D03*
X030250Y032724D03*
D17*
X028721Y032350D03*
X028721Y031850D03*
X028721Y031350D03*
X027879Y031350D03*
X027879Y031850D03*
X027879Y032350D03*
X026021Y032050D03*
X026021Y031550D03*
X026021Y031050D03*
X026021Y030550D03*
X025179Y030550D03*
X025179Y031050D03*
X025179Y031550D03*
X025179Y032050D03*
X027879Y030850D03*
X028721Y030850D03*
D18*
X024650Y031979D03*
X024150Y031979D03*
X023650Y031979D03*
X023150Y031979D03*
X023150Y032821D03*
X023650Y032821D03*
X024150Y032821D03*
X024650Y032821D03*
D19*
X026000Y034000D03*
X029000Y023000D03*
D20*
X028600Y022300D03*
X028950Y021650D03*
X029500Y021800D03*
X031750Y022900D03*
X032150Y023250D03*
X033250Y025250D03*
X033650Y025600D03*
X034150Y026050D03*
X034550Y028150D03*
X034550Y028650D03*
X032900Y029400D03*
X032450Y029150D03*
X033550Y030500D03*
X033900Y030950D03*
X032550Y031200D03*
X032750Y031700D03*
X031550Y031650D03*
X031300Y031200D03*
X031400Y032150D03*
X031750Y033350D03*
X031500Y033900D03*
X030200Y035050D03*
X029700Y034900D03*
X029300Y034600D03*
X029300Y035350D03*
X025800Y034950D03*
X024650Y034800D03*
X023150Y033700D03*
X022450Y032800D03*
X022500Y031000D03*
X022050Y030800D03*
X022450Y030450D03*
X023700Y030300D03*
X024050Y030700D03*
X023400Y029400D03*
X023900Y028200D03*
X024250Y027850D03*
X023800Y027600D03*
X024100Y026600D03*
X023150Y026550D03*
X022539Y027839D03*
X021500Y027700D03*
X021150Y028900D03*
X025450Y028200D03*
X025500Y026650D03*
X025913Y026300D03*
X027000Y027550D03*
X027650Y027900D03*
X028800Y028850D03*
X029200Y028350D03*
X030050Y028550D03*
X030550Y028550D03*
X030300Y027600D03*
X030250Y026150D03*
X030100Y025250D03*
X028900Y025350D03*
X027350Y025000D03*
X027850Y023700D03*
X026300Y021850D03*
X025450Y022200D03*
X025300Y023150D03*
X024800Y023150D03*
X031350Y026150D03*
X027900Y029950D03*
X028250Y030350D03*
X027200Y029950D03*
X026400Y029850D03*
X026550Y030650D03*
D21*
X026021Y030550D02*
X026021Y030350D01*
X025179Y030550D02*
X025179Y031050D01*
X024200Y030850D01*
X024050Y030700D01*
X025179Y031050D02*
X025179Y031550D01*
X024150Y032821D02*
X023650Y032821D01*
X023150Y032821D01*
X023150Y032700D01*
X021650Y030900D01*
X021650Y030600D01*
X022700Y029550D01*
X022700Y028000D01*
X022539Y027839D01*
X027879Y030721D02*
X027879Y030850D01*
X027879Y031350D01*
X027879Y031850D01*
X027879Y030721D02*
X028250Y030350D01*
X023400Y034000D02*
X023150Y033750D01*
X023150Y033700D01*
X023400Y034000D02*
X026000Y034000D01*
X026000Y034250D01*
X026650Y034900D01*
X028850Y034900D01*
X029250Y035350D01*
X029850Y035300D01*
X030200Y035050D01*
X029300Y034600D02*
X028600Y034600D01*
X028000Y034000D01*
X032000Y026348D02*
X032000Y025644D01*
X032700Y026250D02*
X032700Y026348D01*
X032700Y026250D02*
X033650Y025600D01*
D22*
X033770Y025313D02*
X034005Y025313D01*
X033964Y025233D02*
X033070Y025233D01*
X033034Y025269D02*
X032366Y025269D01*
X032283Y025186D01*
X032283Y025181D01*
X032271Y025194D01*
X030343Y025194D01*
X030260Y025112D01*
X030260Y024601D01*
X030343Y024518D01*
X030889Y024518D01*
X030889Y023704D01*
X030871Y023686D01*
X030821Y023565D01*
X030821Y023435D01*
X030871Y023314D01*
X030964Y023221D01*
X031085Y023171D01*
X031215Y023171D01*
X031336Y023221D01*
X031429Y023314D01*
X031479Y023435D01*
X031479Y023565D01*
X031429Y023686D01*
X031411Y023704D01*
X031411Y024518D01*
X032271Y024518D01*
X032283Y024531D01*
X032283Y024518D01*
X032366Y024435D01*
X033034Y024435D01*
X033117Y024518D01*
X033117Y025186D01*
X033034Y025269D01*
X033117Y025152D02*
X033922Y025152D01*
X033881Y025072D02*
X033117Y025072D01*
X033117Y024991D02*
X033839Y024991D01*
X033798Y024911D02*
X033117Y024911D01*
X033117Y024830D02*
X033756Y024830D01*
X033715Y024750D02*
X033117Y024750D01*
X033117Y024669D02*
X033659Y024669D01*
X033714Y024748D02*
X033143Y023936D01*
X032466Y023208D01*
X031696Y022580D01*
X030848Y022063D01*
X029937Y021667D01*
X028981Y021398D01*
X027997Y021262D01*
X027902Y021262D01*
X027946Y021312D01*
X028001Y021367D01*
X028001Y021373D01*
X028396Y021812D01*
X028573Y021989D01*
X028662Y021989D01*
X028776Y022036D01*
X028864Y022124D01*
X028911Y022238D01*
X028911Y022362D01*
X028864Y022476D01*
X028851Y022489D01*
X028959Y022489D01*
X028959Y022959D01*
X029041Y022959D01*
X029041Y023041D01*
X029511Y023041D01*
X029511Y023389D01*
X029501Y023424D01*
X029483Y023455D01*
X029987Y023455D01*
X030070Y023538D01*
X030070Y024285D01*
X029987Y024367D01*
X028532Y024367D01*
X028449Y024285D01*
X028449Y023538D01*
X028524Y023463D01*
X028517Y023457D01*
X028499Y023424D01*
X028489Y023389D01*
X028489Y023155D01*
X028433Y023289D01*
X028398Y023324D01*
X028431Y023350D01*
X028432Y023362D01*
X028441Y023371D01*
X028441Y023439D01*
X028449Y023508D01*
X028441Y023517D01*
X028441Y027429D01*
X028241Y027629D01*
X028161Y027709D01*
X028571Y027709D01*
X028871Y027409D01*
X030051Y027409D01*
X030124Y027336D01*
X030238Y027289D01*
X030362Y027289D01*
X030476Y027336D01*
X030564Y027424D01*
X030611Y027538D01*
X030611Y027662D01*
X030564Y027776D01*
X030531Y027809D01*
X031179Y027809D01*
X031729Y028359D01*
X031739Y028369D01*
X031739Y026504D01*
X031699Y026408D01*
X031699Y026288D01*
X031739Y026192D01*
X031739Y025982D01*
X031617Y025982D01*
X031661Y026088D01*
X031661Y026212D01*
X031614Y026326D01*
X031526Y026414D01*
X031412Y026461D01*
X031288Y026461D01*
X031174Y026414D01*
X031111Y026351D01*
X030489Y026351D01*
X030426Y026414D01*
X030312Y026461D01*
X030188Y026461D01*
X030074Y026414D01*
X030070Y026410D01*
X030070Y026962D01*
X029987Y027045D01*
X028532Y027045D01*
X028449Y026962D01*
X028449Y026215D01*
X028532Y026133D01*
X029939Y026133D01*
X029939Y026088D01*
X029986Y025974D01*
X030074Y025886D01*
X030188Y025839D01*
X030260Y025839D01*
X030260Y025388D01*
X030343Y025306D01*
X032271Y025306D01*
X032353Y025388D01*
X032353Y025899D01*
X032271Y025982D01*
X032261Y025982D01*
X032261Y026047D01*
X032283Y026047D01*
X032283Y026014D01*
X032366Y025931D01*
X032774Y025931D01*
X033339Y025545D01*
X033339Y025538D01*
X033386Y025424D01*
X033474Y025336D01*
X033588Y025289D01*
X033712Y025289D01*
X033826Y025336D01*
X033914Y025424D01*
X033961Y025538D01*
X033961Y025662D01*
X033914Y025776D01*
X033826Y025864D01*
X033712Y025911D01*
X033588Y025911D01*
X033587Y025911D01*
X033117Y026233D01*
X033117Y026682D01*
X033034Y026765D01*
X032366Y026765D01*
X032283Y026682D01*
X032283Y026649D01*
X032261Y026649D01*
X032261Y031085D01*
X032286Y031024D01*
X032374Y030936D01*
X032488Y030889D01*
X032612Y030889D01*
X032726Y030936D01*
X032814Y031024D01*
X032861Y031138D01*
X032861Y031262D01*
X032814Y031376D01*
X032801Y031389D01*
X032812Y031389D01*
X032926Y031436D01*
X032959Y031469D01*
X032959Y030864D01*
X032950Y030851D01*
X032959Y030786D01*
X032959Y030721D01*
X032970Y030710D01*
X032972Y030695D01*
X033025Y030655D01*
X033071Y030609D01*
X033086Y030609D01*
X033239Y030494D01*
X033239Y030438D01*
X033286Y030324D01*
X033374Y030236D01*
X033488Y030189D01*
X033612Y030189D01*
X033726Y030236D01*
X033814Y030324D01*
X033861Y030438D01*
X033861Y030562D01*
X033827Y030644D01*
X033838Y030639D01*
X033962Y030639D01*
X034076Y030686D01*
X034164Y030774D01*
X034211Y030888D01*
X034211Y031012D01*
X034164Y031126D01*
X034076Y031214D01*
X033962Y031261D01*
X033842Y031261D01*
X033541Y031534D01*
X033541Y032519D01*
X033689Y032311D01*
X034150Y031430D01*
X034487Y030496D01*
X034692Y029524D01*
X034764Y028533D01*
X034699Y027542D01*
X034500Y026568D01*
X034169Y025631D01*
X033714Y024748D01*
X033602Y024589D02*
X033117Y024589D01*
X033107Y024508D02*
X033545Y024508D01*
X033489Y024428D02*
X031411Y024428D01*
X031411Y024508D02*
X032293Y024508D01*
X031411Y024347D02*
X033432Y024347D01*
X033376Y024267D02*
X031411Y024267D01*
X031411Y024186D02*
X033319Y024186D01*
X033262Y024106D02*
X031411Y024106D01*
X031411Y024025D02*
X033206Y024025D01*
X033149Y023945D02*
X031411Y023945D01*
X031411Y023864D02*
X033076Y023864D01*
X033001Y023784D02*
X031411Y023784D01*
X031412Y023703D02*
X032927Y023703D01*
X032852Y023623D02*
X031455Y023623D01*
X031479Y023542D02*
X032777Y023542D01*
X032702Y023462D02*
X031479Y023462D01*
X031457Y023381D02*
X032627Y023381D01*
X032552Y023301D02*
X031416Y023301D01*
X031334Y023220D02*
X032477Y023220D01*
X032382Y023140D02*
X029511Y023140D01*
X029511Y023220D02*
X030966Y023220D01*
X030884Y023301D02*
X029511Y023301D01*
X029511Y023381D02*
X030843Y023381D01*
X030821Y023462D02*
X029993Y023462D01*
X030070Y023542D02*
X030821Y023542D01*
X030845Y023623D02*
X030070Y023623D01*
X030070Y023703D02*
X030888Y023703D01*
X030889Y023784D02*
X030070Y023784D01*
X030070Y023864D02*
X030889Y023864D01*
X030889Y023945D02*
X030070Y023945D01*
X030070Y024025D02*
X030889Y024025D01*
X030889Y024106D02*
X030070Y024106D01*
X030070Y024186D02*
X030889Y024186D01*
X030889Y024267D02*
X030070Y024267D01*
X030007Y024347D02*
X030889Y024347D01*
X030889Y024428D02*
X028441Y024428D01*
X028441Y024508D02*
X030889Y024508D01*
X030273Y024589D02*
X028441Y024589D01*
X028441Y024669D02*
X030260Y024669D01*
X030260Y024750D02*
X028441Y024750D01*
X028441Y024830D02*
X030260Y024830D01*
X030260Y024911D02*
X028441Y024911D01*
X028441Y024991D02*
X030260Y024991D01*
X030260Y025072D02*
X028441Y025072D01*
X028441Y025152D02*
X030301Y025152D01*
X030336Y025313D02*
X028441Y025313D01*
X028441Y025233D02*
X032330Y025233D01*
X032278Y025313D02*
X033530Y025313D01*
X033417Y025394D02*
X032353Y025394D01*
X032353Y025474D02*
X033366Y025474D01*
X033325Y025555D02*
X032353Y025555D01*
X032353Y025635D02*
X033207Y025635D01*
X033090Y025716D02*
X032353Y025716D01*
X032353Y025796D02*
X032972Y025796D01*
X032854Y025877D02*
X032353Y025877D01*
X032340Y025957D02*
X032295Y025957D01*
X032283Y026038D02*
X032261Y026038D01*
X031739Y026038D02*
X031640Y026038D01*
X031661Y026118D02*
X031739Y026118D01*
X031736Y026199D02*
X031661Y026199D01*
X031633Y026279D02*
X031703Y026279D01*
X031699Y026360D02*
X031580Y026360D01*
X031462Y026440D02*
X031712Y026440D01*
X031739Y026521D02*
X030070Y026521D01*
X030070Y026601D02*
X031739Y026601D01*
X031739Y026682D02*
X030070Y026682D01*
X030070Y026762D02*
X031739Y026762D01*
X031739Y026843D02*
X030070Y026843D01*
X030070Y026923D02*
X031739Y026923D01*
X031739Y027004D02*
X030028Y027004D01*
X030150Y027326D02*
X028441Y027326D01*
X028441Y027406D02*
X030054Y027406D01*
X030450Y027326D02*
X031739Y027326D01*
X031739Y027406D02*
X030546Y027406D01*
X030590Y027487D02*
X031739Y027487D01*
X031739Y027567D02*
X030611Y027567D01*
X030611Y027648D02*
X031739Y027648D01*
X031739Y027728D02*
X030584Y027728D01*
X030531Y027809D02*
X031739Y027809D01*
X031739Y027889D02*
X031259Y027889D01*
X031340Y027970D02*
X031739Y027970D01*
X031739Y028050D02*
X031420Y028050D01*
X031501Y028131D02*
X031739Y028131D01*
X031739Y028211D02*
X031581Y028211D01*
X031662Y028292D02*
X031739Y028292D01*
X032261Y028292D02*
X032448Y028292D01*
X032419Y028363D02*
X032524Y028109D01*
X032719Y027914D01*
X032973Y027809D01*
X033247Y027809D01*
X033501Y027914D01*
X033696Y028109D01*
X033801Y028363D01*
X033801Y028637D01*
X033696Y028891D01*
X033501Y029086D01*
X033247Y029191D01*
X032973Y029191D01*
X032719Y029086D01*
X032524Y028891D01*
X032419Y028637D01*
X032419Y028363D01*
X032419Y028372D02*
X032261Y028372D01*
X032261Y028453D02*
X032419Y028453D01*
X032419Y028533D02*
X032261Y028533D01*
X032261Y028614D02*
X032419Y028614D01*
X032442Y028694D02*
X032261Y028694D01*
X032261Y028775D02*
X032476Y028775D01*
X032509Y028855D02*
X032261Y028855D01*
X032261Y028936D02*
X032568Y028936D01*
X032649Y029016D02*
X032261Y029016D01*
X032261Y029097D02*
X032745Y029097D01*
X032939Y029177D02*
X032261Y029177D01*
X032261Y029258D02*
X034711Y029258D01*
X034706Y029338D02*
X032261Y029338D01*
X032261Y029419D02*
X034700Y029419D01*
X034694Y029499D02*
X032261Y029499D01*
X032261Y029580D02*
X034681Y029580D01*
X034664Y029660D02*
X032261Y029660D01*
X032261Y029741D02*
X034646Y029741D01*
X034629Y029821D02*
X032261Y029821D01*
X032261Y029902D02*
X034612Y029902D01*
X034595Y029982D02*
X032261Y029982D01*
X032261Y030063D02*
X034578Y030063D01*
X034561Y030143D02*
X032261Y030143D01*
X032261Y030224D02*
X033405Y030224D01*
X033306Y030304D02*
X032261Y030304D01*
X032261Y030385D02*
X033261Y030385D01*
X033239Y030465D02*
X032261Y030465D01*
X032261Y030546D02*
X033171Y030546D01*
X033054Y030626D02*
X032261Y030626D01*
X032261Y030707D02*
X032970Y030707D01*
X032959Y030787D02*
X032261Y030787D01*
X032261Y030868D02*
X032959Y030868D01*
X032959Y030948D02*
X032738Y030948D01*
X032816Y031029D02*
X032959Y031029D01*
X032959Y031109D02*
X032849Y031109D01*
X032861Y031190D02*
X032959Y031190D01*
X032959Y031270D02*
X032858Y031270D01*
X032824Y031351D02*
X032959Y031351D01*
X032959Y031431D02*
X032914Y031431D01*
X033541Y031592D02*
X034066Y031592D01*
X034108Y031512D02*
X033566Y031512D01*
X033655Y031431D02*
X034150Y031431D01*
X034179Y031351D02*
X033743Y031351D01*
X033832Y031270D02*
X034208Y031270D01*
X034237Y031190D02*
X034100Y031190D01*
X034171Y031109D02*
X034266Y031109D01*
X034295Y031029D02*
X034204Y031029D01*
X034211Y030948D02*
X034324Y030948D01*
X034353Y030868D02*
X034202Y030868D01*
X034169Y030787D02*
X034382Y030787D01*
X034411Y030707D02*
X034096Y030707D01*
X033834Y030626D02*
X034440Y030626D01*
X034469Y030546D02*
X033861Y030546D01*
X033861Y030465D02*
X034493Y030465D01*
X034510Y030385D02*
X033839Y030385D01*
X033794Y030304D02*
X034527Y030304D01*
X034544Y030224D02*
X033695Y030224D01*
X033281Y029177D02*
X034717Y029177D01*
X034723Y029097D02*
X033475Y029097D01*
X033571Y029016D02*
X034729Y029016D01*
X034735Y028936D02*
X033652Y028936D01*
X033711Y028855D02*
X034740Y028855D01*
X034746Y028775D02*
X033744Y028775D01*
X033778Y028694D02*
X034752Y028694D01*
X034758Y028614D02*
X033801Y028614D01*
X033801Y028533D02*
X034764Y028533D01*
X034758Y028453D02*
X033801Y028453D01*
X033801Y028372D02*
X034753Y028372D01*
X034748Y028292D02*
X033772Y028292D01*
X033738Y028211D02*
X034743Y028211D01*
X034737Y028131D02*
X033705Y028131D01*
X033637Y028050D02*
X034732Y028050D01*
X034727Y027970D02*
X033557Y027970D01*
X033441Y027889D02*
X034722Y027889D01*
X034716Y027809D02*
X032261Y027809D01*
X032261Y027889D02*
X032779Y027889D01*
X032663Y027970D02*
X032261Y027970D01*
X032261Y028050D02*
X032583Y028050D01*
X032515Y028131D02*
X032261Y028131D01*
X032261Y028211D02*
X032482Y028211D01*
X032261Y027728D02*
X034711Y027728D01*
X034706Y027648D02*
X032261Y027648D01*
X032261Y027567D02*
X034701Y027567D01*
X034699Y027542D02*
X034699Y027542D01*
X034688Y027487D02*
X032261Y027487D01*
X032261Y027406D02*
X034671Y027406D01*
X034655Y027326D02*
X032261Y027326D01*
X032261Y027245D02*
X034638Y027245D01*
X034622Y027165D02*
X032261Y027165D01*
X032261Y027084D02*
X034605Y027084D01*
X034589Y027004D02*
X032261Y027004D01*
X032261Y026923D02*
X034572Y026923D01*
X034556Y026843D02*
X032261Y026843D01*
X032261Y026762D02*
X032363Y026762D01*
X032283Y026682D02*
X032261Y026682D01*
X031739Y027084D02*
X028441Y027084D01*
X028441Y027004D02*
X028491Y027004D01*
X028449Y026923D02*
X028441Y026923D01*
X028441Y026843D02*
X028449Y026843D01*
X028441Y026762D02*
X028449Y026762D01*
X028441Y026682D02*
X028449Y026682D01*
X028441Y026601D02*
X028449Y026601D01*
X028441Y026521D02*
X028449Y026521D01*
X028441Y026440D02*
X028449Y026440D01*
X028441Y026360D02*
X028449Y026360D01*
X028441Y026279D02*
X028449Y026279D01*
X028441Y026199D02*
X028466Y026199D01*
X028441Y026118D02*
X029939Y026118D01*
X029960Y026038D02*
X028441Y026038D01*
X028441Y025957D02*
X030003Y025957D01*
X030097Y025877D02*
X028441Y025877D01*
X028441Y025796D02*
X030260Y025796D01*
X030260Y025716D02*
X028441Y025716D01*
X028441Y025635D02*
X030260Y025635D01*
X030260Y025555D02*
X028441Y025555D01*
X028441Y025474D02*
X030260Y025474D01*
X030260Y025394D02*
X028441Y025394D01*
X028441Y024347D02*
X028511Y024347D01*
X028449Y024267D02*
X028441Y024267D01*
X028441Y024186D02*
X028449Y024186D01*
X028441Y024106D02*
X028449Y024106D01*
X028441Y024025D02*
X028449Y024025D01*
X028441Y023945D02*
X028449Y023945D01*
X028441Y023864D02*
X028449Y023864D01*
X028441Y023784D02*
X028449Y023784D01*
X028441Y023703D02*
X028449Y023703D01*
X028441Y023623D02*
X028449Y023623D01*
X028441Y023542D02*
X028449Y023542D01*
X028443Y023462D02*
X028522Y023462D01*
X028489Y023381D02*
X028441Y023381D01*
X028422Y023301D02*
X028489Y023301D01*
X028489Y023220D02*
X028462Y023220D01*
X028959Y022898D02*
X029041Y022898D01*
X029041Y022959D02*
X029041Y022489D01*
X029389Y022489D01*
X029424Y022499D01*
X029457Y022517D01*
X029483Y022543D01*
X029501Y022576D01*
X029502Y022576D02*
X031689Y022576D01*
X031790Y022657D02*
X029511Y022657D01*
X029511Y022611D02*
X029511Y022959D01*
X029041Y022959D01*
X029041Y022979D02*
X032184Y022979D01*
X032086Y022898D02*
X029511Y022898D01*
X029511Y022818D02*
X031987Y022818D01*
X031889Y022737D02*
X029511Y022737D01*
X029511Y022611D02*
X029501Y022576D01*
X029413Y022496D02*
X031557Y022496D01*
X031425Y022415D02*
X028889Y022415D01*
X028911Y022335D02*
X031293Y022335D01*
X031161Y022254D02*
X028911Y022254D01*
X028884Y022174D02*
X031029Y022174D01*
X030897Y022093D02*
X028833Y022093D01*
X028719Y022013D02*
X030732Y022013D01*
X030547Y021932D02*
X028516Y021932D01*
X028436Y021852D02*
X030362Y021852D01*
X030177Y021771D02*
X028359Y021771D01*
X028287Y021691D02*
X029992Y021691D01*
X029736Y021610D02*
X028214Y021610D01*
X028142Y021530D02*
X029449Y021530D01*
X029163Y021449D02*
X028070Y021449D01*
X028001Y021369D02*
X028767Y021369D01*
X028182Y021288D02*
X027925Y021288D01*
X028959Y022496D02*
X029041Y022496D01*
X029041Y022576D02*
X028959Y022576D01*
X028959Y022657D02*
X029041Y022657D01*
X029041Y022737D02*
X028959Y022737D01*
X028959Y022818D02*
X029041Y022818D01*
X029511Y023059D02*
X032283Y023059D01*
X033883Y025394D02*
X034047Y025394D01*
X034088Y025474D02*
X033934Y025474D01*
X033961Y025555D02*
X034130Y025555D01*
X034171Y025635D02*
X033961Y025635D01*
X033939Y025716D02*
X034199Y025716D01*
X034227Y025796D02*
X033894Y025796D01*
X033795Y025877D02*
X034256Y025877D01*
X034284Y025957D02*
X033520Y025957D01*
X033402Y026038D02*
X034312Y026038D01*
X034341Y026118D02*
X033284Y026118D01*
X033167Y026199D02*
X034369Y026199D01*
X034398Y026279D02*
X033117Y026279D01*
X033117Y026360D02*
X034426Y026360D01*
X034454Y026440D02*
X033117Y026440D01*
X033117Y026521D02*
X034483Y026521D01*
X034506Y026601D02*
X033117Y026601D01*
X033117Y026682D02*
X034523Y026682D01*
X034539Y026762D02*
X033037Y026762D01*
X031739Y027165D02*
X028441Y027165D01*
X028441Y027245D02*
X031739Y027245D01*
X031238Y026440D02*
X030362Y026440D01*
X030480Y026360D02*
X031120Y026360D01*
X030138Y026440D02*
X030070Y026440D01*
X028793Y027487D02*
X028384Y027487D01*
X028303Y027567D02*
X028713Y027567D01*
X028632Y027648D02*
X028223Y027648D01*
X029522Y029262D02*
X029501Y029283D01*
X029501Y030254D01*
X029577Y030349D01*
X029617Y030254D01*
X029709Y030161D01*
X029830Y030111D01*
X029961Y030111D01*
X030082Y030161D01*
X030175Y030254D01*
X030225Y030375D01*
X030225Y030506D01*
X030175Y030627D01*
X030082Y030719D01*
X029995Y030755D01*
X030082Y030791D01*
X030175Y030884D01*
X030225Y031005D01*
X030225Y031135D01*
X030175Y031256D01*
X030082Y031349D01*
X029995Y031385D01*
X030052Y031408D01*
X030105Y031444D01*
X030151Y031490D01*
X030187Y031544D01*
X030212Y031604D01*
X030225Y031668D01*
X030225Y031682D01*
X029914Y031682D01*
X029914Y031718D01*
X030225Y031718D01*
X030225Y031732D01*
X030212Y031796D01*
X030187Y031856D01*
X030151Y031910D01*
X030105Y031956D01*
X030052Y031992D01*
X029992Y032016D01*
X029928Y032029D01*
X029914Y032029D01*
X029914Y031718D01*
X029878Y031718D01*
X029878Y032029D01*
X029863Y032029D01*
X029800Y032016D01*
X029740Y031992D01*
X029686Y031956D01*
X029640Y031910D01*
X029604Y031856D01*
X029579Y031796D01*
X029567Y031732D01*
X029567Y031718D01*
X029878Y031718D01*
X029878Y031682D01*
X029567Y031682D01*
X029567Y031668D01*
X029579Y031604D01*
X029604Y031544D01*
X029640Y031490D01*
X029686Y031444D01*
X029740Y031408D01*
X029796Y031385D01*
X029709Y031349D01*
X029617Y031256D01*
X029567Y031135D01*
X029567Y031005D01*
X029573Y030988D01*
X029391Y030760D01*
X029391Y031007D01*
X029401Y031017D01*
X029401Y031183D01*
X029151Y031433D01*
X029079Y031505D01*
X029079Y031556D01*
X029035Y031600D01*
X029079Y031644D01*
X029079Y031649D01*
X029133Y031649D01*
X029283Y031799D01*
X029401Y031917D01*
X029401Y032667D01*
X029518Y032784D01*
X029518Y032578D01*
X029630Y032309D01*
X029836Y032103D01*
X030104Y031992D01*
X030396Y031992D01*
X030664Y032103D01*
X030870Y032309D01*
X030982Y032578D01*
X030982Y032869D01*
X030935Y032980D01*
X031349Y032567D01*
X031467Y032449D01*
X031967Y032449D01*
X032199Y032217D01*
X032199Y032216D01*
X032186Y032229D01*
X032065Y032279D01*
X031935Y032279D01*
X031814Y032229D01*
X031721Y032136D01*
X031671Y032015D01*
X031671Y031937D01*
X031612Y031961D01*
X031488Y031961D01*
X031374Y031914D01*
X031286Y031826D01*
X031239Y031712D01*
X031239Y031588D01*
X031271Y031511D01*
X031238Y031511D01*
X031124Y031464D01*
X031036Y031376D01*
X030989Y031262D01*
X030989Y031138D01*
X031036Y031024D01*
X031109Y030951D01*
X031109Y030535D01*
X030933Y030710D01*
X030933Y030821D01*
X030883Y030941D01*
X030791Y031034D01*
X030704Y031070D01*
X030791Y031106D01*
X030883Y031199D01*
X030933Y031319D01*
X030933Y031450D01*
X030883Y031571D01*
X030791Y031664D01*
X030670Y031714D01*
X030539Y031714D01*
X030418Y031664D01*
X030325Y031571D01*
X030275Y031450D01*
X030275Y031319D01*
X030325Y031199D01*
X030418Y031106D01*
X030505Y031070D01*
X030418Y031034D01*
X030325Y030941D01*
X030275Y030821D01*
X030275Y030690D01*
X030325Y030569D01*
X030418Y030476D01*
X030539Y030426D01*
X030649Y030426D01*
X030849Y030226D01*
X030849Y029852D01*
X030664Y030037D01*
X030396Y030148D01*
X030104Y030148D01*
X029836Y030037D01*
X029630Y029831D01*
X029518Y029562D01*
X029518Y029271D01*
X029522Y029262D01*
X029518Y029338D02*
X029501Y029338D01*
X029501Y029419D02*
X029518Y029419D01*
X029518Y029499D02*
X029501Y029499D01*
X029501Y029580D02*
X029526Y029580D01*
X029501Y029660D02*
X029559Y029660D01*
X029592Y029741D02*
X029501Y029741D01*
X029501Y029821D02*
X029626Y029821D01*
X029701Y029902D02*
X029501Y029902D01*
X029501Y029982D02*
X029781Y029982D01*
X029898Y030063D02*
X029501Y030063D01*
X029501Y030143D02*
X029753Y030143D01*
X029647Y030224D02*
X029501Y030224D01*
X029541Y030304D02*
X029596Y030304D01*
X030039Y030143D02*
X030093Y030143D01*
X030145Y030224D02*
X030849Y030224D01*
X030849Y030143D02*
X030407Y030143D01*
X030602Y030063D02*
X030849Y030063D01*
X030849Y029982D02*
X030719Y029982D01*
X030799Y029902D02*
X030849Y029902D01*
X030771Y030304D02*
X030196Y030304D01*
X030225Y030385D02*
X030691Y030385D01*
X030444Y030465D02*
X030225Y030465D01*
X030208Y030546D02*
X030348Y030546D01*
X030302Y030626D02*
X030175Y030626D01*
X030095Y030707D02*
X030275Y030707D01*
X030275Y030787D02*
X030073Y030787D01*
X030159Y030868D02*
X030295Y030868D01*
X030332Y030948D02*
X030201Y030948D01*
X030225Y031029D02*
X030412Y031029D01*
X030415Y031109D02*
X030225Y031109D01*
X030202Y031190D02*
X030334Y031190D01*
X030296Y031270D02*
X030161Y031270D01*
X030078Y031351D02*
X030275Y031351D01*
X030275Y031431D02*
X030086Y031431D01*
X030166Y031512D02*
X030301Y031512D01*
X030346Y031592D02*
X030207Y031592D01*
X030225Y031673D02*
X030439Y031673D01*
X030221Y031753D02*
X031256Y031753D01*
X031239Y031673D02*
X030770Y031673D01*
X030863Y031592D02*
X031239Y031592D01*
X031271Y031512D02*
X030908Y031512D01*
X030933Y031431D02*
X031091Y031431D01*
X031026Y031351D02*
X030933Y031351D01*
X030913Y031270D02*
X030992Y031270D01*
X030989Y031190D02*
X030874Y031190D01*
X030794Y031109D02*
X031001Y031109D01*
X031034Y031029D02*
X030796Y031029D01*
X030877Y030948D02*
X031109Y030948D01*
X031109Y030868D02*
X030914Y030868D01*
X030933Y030787D02*
X031109Y030787D01*
X031109Y030707D02*
X030937Y030707D01*
X031018Y030626D02*
X031109Y030626D01*
X031098Y030546D02*
X031109Y030546D01*
X032261Y030948D02*
X032362Y030948D01*
X032284Y031029D02*
X032261Y031029D01*
X031671Y031995D02*
X030402Y031995D01*
X030596Y032075D02*
X031696Y032075D01*
X031740Y032156D02*
X030717Y032156D01*
X030797Y032236D02*
X031831Y032236D01*
X032019Y032397D02*
X030907Y032397D01*
X030940Y032478D02*
X031438Y032478D01*
X031358Y032558D02*
X030973Y032558D01*
X030982Y032639D02*
X031277Y032639D01*
X031197Y032719D02*
X030982Y032719D01*
X030982Y032800D02*
X031116Y032800D01*
X031036Y032880D02*
X030977Y032880D01*
X030955Y032961D02*
X030944Y032961D01*
X030873Y032317D02*
X032099Y032317D01*
X032169Y032236D02*
X032180Y032236D01*
X031375Y031914D02*
X030147Y031914D01*
X030098Y031995D02*
X030044Y031995D01*
X029914Y031995D02*
X029878Y031995D01*
X029878Y031914D02*
X029914Y031914D01*
X029914Y031834D02*
X029878Y031834D01*
X029878Y031753D02*
X029914Y031753D01*
X029747Y031995D02*
X029401Y031995D01*
X029401Y032075D02*
X029904Y032075D01*
X029783Y032156D02*
X029401Y032156D01*
X029401Y032236D02*
X029703Y032236D01*
X029627Y032317D02*
X029401Y032317D01*
X029401Y032397D02*
X029593Y032397D01*
X029560Y032478D02*
X029401Y032478D01*
X029401Y032558D02*
X029527Y032558D01*
X029518Y032639D02*
X029401Y032639D01*
X029453Y032719D02*
X029518Y032719D01*
X028967Y033451D02*
X025117Y033451D01*
X024845Y033179D01*
X024444Y033179D01*
X024400Y033135D01*
X024356Y033179D01*
X023944Y033179D01*
X023900Y033135D01*
X023856Y033179D01*
X023444Y033179D01*
X023400Y033135D01*
X023356Y033179D01*
X022944Y033179D01*
X022861Y033096D01*
X022861Y032699D01*
X021706Y031313D01*
X021821Y031534D01*
X022354Y032257D01*
X022608Y032529D01*
X022626Y032536D01*
X022714Y032624D01*
X022761Y032738D01*
X022761Y032862D01*
X022714Y032976D01*
X022626Y033064D01*
X022512Y033111D01*
X022388Y033111D01*
X022274Y033064D01*
X022186Y032976D01*
X022177Y032953D01*
X021884Y032664D01*
X021293Y031862D01*
X020835Y030978D01*
X020519Y030033D01*
X020354Y029051D01*
X020350Y028611D01*
X020349Y028610D01*
X020349Y028552D01*
X020348Y028493D01*
X020349Y028492D01*
X020349Y027932D01*
X020343Y027904D01*
X020349Y027872D01*
X020349Y027840D01*
X020360Y027814D01*
X020365Y027786D01*
X020383Y027759D01*
X020395Y027729D01*
X020415Y027709D01*
X020822Y027082D01*
X020789Y027002D01*
X020789Y026798D01*
X020867Y026611D01*
X021011Y026467D01*
X021178Y026398D01*
X021104Y026374D01*
X021032Y026337D01*
X020967Y026290D01*
X020910Y026233D01*
X020863Y026168D01*
X020826Y026096D01*
X020802Y026020D01*
X020789Y025941D01*
X021259Y025941D01*
X021259Y025859D01*
X021341Y025859D01*
X021341Y025389D01*
X021420Y025402D01*
X021496Y025426D01*
X021568Y025463D01*
X021633Y025510D01*
X021690Y025567D01*
X021737Y025632D01*
X021774Y025704D01*
X021798Y025780D01*
X021799Y025784D01*
X021799Y025633D01*
X021499Y025333D01*
X021499Y024445D01*
X021286Y024748D01*
X020831Y025631D01*
X020500Y026568D01*
X020301Y027542D01*
X020236Y028533D01*
X020308Y029524D01*
X020513Y030496D01*
X020850Y031430D01*
X021311Y032311D01*
X021887Y033120D01*
X022569Y033842D01*
X023343Y034465D01*
X024194Y034977D01*
X025108Y035367D01*
X026066Y035630D01*
X026284Y035666D01*
X026284Y035227D01*
X026321Y035138D01*
X026388Y035071D01*
X026473Y035036D01*
X025948Y034511D01*
X025572Y034511D01*
X025489Y034428D01*
X025489Y034221D01*
X023308Y034221D01*
X023179Y034092D01*
X023179Y034092D01*
X023098Y034011D01*
X023088Y034011D01*
X022974Y033964D01*
X022886Y033876D01*
X022839Y033762D01*
X022839Y033638D01*
X022886Y033524D01*
X022269Y033524D01*
X022345Y033605D02*
X022853Y033605D01*
X022839Y033685D02*
X022421Y033685D01*
X022497Y033766D02*
X022841Y033766D01*
X022874Y033846D02*
X022574Y033846D01*
X022674Y033927D02*
X022937Y033927D01*
X023079Y034007D02*
X022774Y034007D01*
X022874Y034088D02*
X023175Y034088D01*
X023256Y034168D02*
X022974Y034168D01*
X023074Y034249D02*
X025489Y034249D01*
X025489Y034329D02*
X023174Y034329D01*
X023274Y034410D02*
X025489Y034410D01*
X025551Y034490D02*
X023384Y034490D01*
X023518Y034571D02*
X026008Y034571D01*
X026089Y034651D02*
X023652Y034651D01*
X023786Y034732D02*
X026169Y034732D01*
X026250Y034812D02*
X023920Y034812D01*
X024054Y034893D02*
X026330Y034893D01*
X026411Y034973D02*
X024188Y034973D01*
X024374Y035054D02*
X026430Y035054D01*
X026325Y035134D02*
X024562Y035134D01*
X024751Y035215D02*
X026289Y035215D01*
X026284Y035295D02*
X024939Y035295D01*
X025138Y035376D02*
X026284Y035376D01*
X026284Y035456D02*
X025432Y035456D01*
X025726Y035537D02*
X026284Y035537D01*
X026284Y035617D02*
X026020Y035617D01*
X026742Y034679D02*
X028366Y034679D01*
X028170Y034483D01*
X028102Y034511D01*
X027898Y034511D01*
X027711Y034433D01*
X027567Y034289D01*
X027498Y034122D01*
X027474Y034196D01*
X027437Y034268D01*
X027390Y034333D01*
X027333Y034390D01*
X027268Y034437D01*
X027196Y034474D01*
X027120Y034498D01*
X027041Y034511D01*
X027041Y034041D01*
X026959Y034041D01*
X026959Y034511D01*
X026880Y034498D01*
X026804Y034474D01*
X026732Y034437D01*
X026667Y034390D01*
X026610Y034333D01*
X026563Y034268D01*
X026526Y034196D01*
X026511Y034149D01*
X026511Y034428D01*
X026501Y034438D01*
X026742Y034679D01*
X026714Y034651D02*
X028339Y034651D01*
X028258Y034571D02*
X026633Y034571D01*
X026553Y034490D02*
X026855Y034490D01*
X026959Y034490D02*
X027041Y034490D01*
X027041Y034410D02*
X026959Y034410D01*
X026959Y034329D02*
X027041Y034329D01*
X027041Y034249D02*
X026959Y034249D01*
X026959Y034168D02*
X027041Y034168D01*
X027041Y034088D02*
X026959Y034088D01*
X026959Y033959D02*
X027041Y033959D01*
X027041Y033489D01*
X027120Y033502D01*
X027196Y033526D01*
X027268Y033563D01*
X027333Y033610D01*
X027390Y033667D01*
X027437Y033732D01*
X027474Y033804D01*
X027498Y033878D01*
X027567Y033711D01*
X027711Y033567D01*
X027898Y033489D01*
X028102Y033489D01*
X028289Y033567D01*
X028433Y033711D01*
X028502Y033878D01*
X028526Y033804D01*
X028563Y033732D01*
X028610Y033667D01*
X028667Y033610D01*
X028732Y033563D01*
X028804Y033526D01*
X028880Y033502D01*
X028959Y033489D01*
X028959Y033959D01*
X029041Y033959D01*
X029041Y034041D01*
X029511Y034041D01*
X029498Y034120D01*
X029474Y034196D01*
X029437Y034268D01*
X029408Y034308D01*
X029476Y034336D01*
X029564Y034424D01*
X029611Y034538D01*
X029611Y034600D01*
X029638Y034589D01*
X029762Y034589D01*
X029784Y034598D01*
X029980Y034452D01*
X030323Y034151D01*
X029667Y034151D01*
X029549Y034033D01*
X029475Y033959D01*
X029041Y033959D01*
X029041Y033525D01*
X028967Y033451D01*
X028959Y033524D02*
X029040Y033524D01*
X029041Y033605D02*
X028959Y033605D01*
X028959Y033685D02*
X029041Y033685D01*
X029041Y033766D02*
X028959Y033766D01*
X028959Y033846D02*
X029041Y033846D01*
X029041Y033927D02*
X028959Y033927D01*
X029041Y034007D02*
X029523Y034007D01*
X029503Y034088D02*
X029603Y034088D01*
X029483Y034168D02*
X030304Y034168D01*
X030212Y034249D02*
X029447Y034249D01*
X029459Y034329D02*
X030120Y034329D01*
X030028Y034410D02*
X029549Y034410D01*
X029591Y034490D02*
X029928Y034490D01*
X029821Y034571D02*
X029611Y034571D01*
X028513Y033846D02*
X028489Y033846D01*
X028456Y033766D02*
X028546Y033766D01*
X028597Y033685D02*
X028408Y033685D01*
X028327Y033605D02*
X028675Y033605D01*
X028811Y033524D02*
X028186Y033524D01*
X027814Y033524D02*
X027189Y033524D01*
X027041Y033524D02*
X026959Y033524D01*
X026959Y033489D02*
X026959Y033959D01*
X026959Y033927D02*
X027041Y033927D01*
X027041Y033846D02*
X026959Y033846D01*
X026959Y033766D02*
X027041Y033766D01*
X027041Y033685D02*
X026959Y033685D01*
X026959Y033605D02*
X027041Y033605D01*
X026959Y033489D02*
X026880Y033502D01*
X026804Y033526D01*
X026732Y033563D01*
X026667Y033610D01*
X026610Y033667D01*
X026563Y033732D01*
X026526Y033804D01*
X026511Y033851D01*
X026511Y033572D01*
X026428Y033489D01*
X025572Y033489D01*
X025489Y033572D01*
X025489Y033779D01*
X023492Y033779D01*
X023461Y033748D01*
X023461Y033638D01*
X023414Y033524D01*
X025536Y033524D01*
X025489Y033605D02*
X023447Y033605D01*
X023461Y033685D02*
X025489Y033685D01*
X025489Y033766D02*
X023478Y033766D01*
X023414Y033524D02*
X023326Y033436D01*
X023212Y033389D01*
X023088Y033389D01*
X022974Y033436D01*
X022886Y033524D01*
X022967Y033444D02*
X022193Y033444D01*
X022117Y033363D02*
X025029Y033363D01*
X025109Y033444D02*
X023333Y033444D01*
X022887Y033122D02*
X021889Y033122D01*
X021831Y033041D02*
X022251Y033041D01*
X022180Y032961D02*
X021774Y032961D01*
X021717Y032880D02*
X022103Y032880D01*
X022021Y032800D02*
X021659Y032800D01*
X021602Y032719D02*
X021940Y032719D01*
X021884Y032664D02*
X021884Y032664D01*
X021866Y032639D02*
X021544Y032639D01*
X021487Y032558D02*
X021806Y032558D01*
X021747Y032478D02*
X021430Y032478D01*
X021372Y032397D02*
X021688Y032397D01*
X021628Y032317D02*
X021315Y032317D01*
X021272Y032236D02*
X021569Y032236D01*
X021510Y032156D02*
X021230Y032156D01*
X021187Y032075D02*
X021450Y032075D01*
X021391Y031995D02*
X021145Y031995D01*
X021103Y031914D02*
X021332Y031914D01*
X021293Y031862D02*
X021293Y031862D01*
X021279Y031834D02*
X021061Y031834D01*
X021019Y031753D02*
X021237Y031753D01*
X021195Y031673D02*
X020977Y031673D01*
X020934Y031592D02*
X021153Y031592D01*
X021111Y031512D02*
X020892Y031512D01*
X020850Y031431D02*
X021070Y031431D01*
X021028Y031351D02*
X020821Y031351D01*
X020792Y031270D02*
X020986Y031270D01*
X020944Y031190D02*
X020763Y031190D01*
X020734Y031109D02*
X020903Y031109D01*
X020861Y031029D02*
X020705Y031029D01*
X020676Y030948D02*
X020825Y030948D01*
X020835Y030978D02*
X020835Y030978D01*
X020798Y030868D02*
X020647Y030868D01*
X020618Y030787D02*
X020771Y030787D01*
X020744Y030707D02*
X020589Y030707D01*
X020560Y030626D02*
X020717Y030626D01*
X020690Y030546D02*
X020531Y030546D01*
X020507Y030465D02*
X020663Y030465D01*
X020636Y030385D02*
X020490Y030385D01*
X020473Y030304D02*
X020609Y030304D01*
X020582Y030224D02*
X020456Y030224D01*
X020439Y030143D02*
X020556Y030143D01*
X020529Y030063D02*
X020422Y030063D01*
X020405Y029982D02*
X020510Y029982D01*
X020519Y030033D02*
X020519Y030033D01*
X020497Y029902D02*
X020388Y029902D01*
X020371Y029821D02*
X020483Y029821D01*
X020470Y029741D02*
X020354Y029741D01*
X020336Y029660D02*
X020456Y029660D01*
X020443Y029580D02*
X020319Y029580D01*
X020306Y029499D02*
X020429Y029499D01*
X020416Y029419D02*
X020300Y029419D01*
X020294Y029338D02*
X020402Y029338D01*
X020389Y029258D02*
X020289Y029258D01*
X020283Y029177D02*
X020375Y029177D01*
X020362Y029097D02*
X020277Y029097D01*
X020271Y029016D02*
X020354Y029016D01*
X020354Y029051D02*
X020354Y029051D01*
X020353Y028936D02*
X020265Y028936D01*
X020260Y028855D02*
X020352Y028855D01*
X020351Y028775D02*
X020254Y028775D01*
X020248Y028694D02*
X020350Y028694D01*
X020350Y028614D02*
X020242Y028614D01*
X020236Y028533D02*
X020349Y028533D01*
X020349Y028453D02*
X020242Y028453D01*
X020247Y028372D02*
X020349Y028372D01*
X020349Y028292D02*
X020252Y028292D01*
X020257Y028211D02*
X020349Y028211D01*
X020349Y028131D02*
X020263Y028131D01*
X020268Y028050D02*
X020349Y028050D01*
X020349Y027970D02*
X020273Y027970D01*
X020278Y027889D02*
X020346Y027889D01*
X020361Y027809D02*
X020284Y027809D01*
X020289Y027728D02*
X020396Y027728D01*
X020455Y027648D02*
X020294Y027648D01*
X020299Y027567D02*
X020507Y027567D01*
X020560Y027487D02*
X020312Y027487D01*
X020329Y027406D02*
X020612Y027406D01*
X020664Y027326D02*
X020345Y027326D01*
X020362Y027245D02*
X020717Y027245D01*
X020769Y027165D02*
X020378Y027165D01*
X020395Y027084D02*
X020821Y027084D01*
X020790Y027004D02*
X020411Y027004D01*
X020428Y026923D02*
X020789Y026923D01*
X020789Y026843D02*
X020444Y026843D01*
X020461Y026762D02*
X020804Y026762D01*
X020837Y026682D02*
X020477Y026682D01*
X020494Y026601D02*
X020876Y026601D01*
X020957Y026521D02*
X020517Y026521D01*
X020546Y026440D02*
X021075Y026440D01*
X021076Y026360D02*
X020574Y026360D01*
X020602Y026279D02*
X020956Y026279D01*
X020885Y026199D02*
X020631Y026199D01*
X020659Y026118D02*
X020838Y026118D01*
X020807Y026038D02*
X020688Y026038D01*
X020716Y025957D02*
X020792Y025957D01*
X020744Y025877D02*
X021259Y025877D01*
X021259Y025859D02*
X020789Y025859D01*
X020802Y025780D01*
X020826Y025704D01*
X020863Y025632D01*
X020910Y025567D01*
X020967Y025510D01*
X021032Y025463D01*
X021104Y025426D01*
X021180Y025402D01*
X021259Y025389D01*
X021259Y025859D01*
X021259Y025796D02*
X021341Y025796D01*
X021341Y025716D02*
X021259Y025716D01*
X021259Y025635D02*
X021341Y025635D01*
X021341Y025555D02*
X021259Y025555D01*
X021259Y025474D02*
X021341Y025474D01*
X021341Y025394D02*
X021259Y025394D01*
X021231Y025394D02*
X020953Y025394D01*
X020912Y025474D02*
X021017Y025474D01*
X020923Y025555D02*
X020870Y025555D01*
X020861Y025635D02*
X020829Y025635D01*
X020823Y025716D02*
X020801Y025716D01*
X020799Y025796D02*
X020773Y025796D01*
X020995Y025313D02*
X021499Y025313D01*
X021499Y025233D02*
X021036Y025233D01*
X021078Y025152D02*
X021499Y025152D01*
X021499Y025072D02*
X021119Y025072D01*
X021161Y024991D02*
X021499Y024991D01*
X021499Y024911D02*
X021202Y024911D01*
X021244Y024830D02*
X021499Y024830D01*
X021499Y024750D02*
X021285Y024750D01*
X021341Y024669D02*
X021499Y024669D01*
X021499Y024589D02*
X021398Y024589D01*
X021455Y024508D02*
X021499Y024508D01*
X021559Y025394D02*
X021369Y025394D01*
X021583Y025474D02*
X021640Y025474D01*
X021677Y025555D02*
X021720Y025555D01*
X021739Y025635D02*
X021799Y025635D01*
X021799Y025716D02*
X021777Y025716D01*
X021799Y026016D02*
X021798Y026020D01*
X021774Y026096D01*
X021737Y026168D01*
X021690Y026233D01*
X021633Y026290D01*
X021568Y026337D01*
X021496Y026374D01*
X021422Y026398D01*
X021589Y026467D01*
X021733Y026611D01*
X021811Y026798D01*
X021811Y027002D01*
X021733Y027189D01*
X021589Y027333D01*
X021402Y027411D01*
X021327Y027411D01*
X020951Y027989D01*
X020951Y028547D01*
X020973Y028996D01*
X021122Y029883D01*
X021407Y030736D01*
X021429Y030778D01*
X021429Y030508D01*
X021558Y030379D01*
X022479Y029458D01*
X022479Y028884D01*
X022476Y028891D01*
X022281Y029086D01*
X022027Y029191D01*
X021753Y029191D01*
X021499Y029086D01*
X021304Y028891D01*
X021199Y028637D01*
X021199Y028363D01*
X021304Y028109D01*
X021499Y027914D01*
X021753Y027809D01*
X022027Y027809D01*
X022228Y027892D01*
X022228Y027778D01*
X022276Y027663D01*
X022363Y027576D01*
X022478Y027528D01*
X022601Y027528D01*
X022716Y027576D01*
X022749Y027609D01*
X022749Y027583D01*
X021799Y026633D01*
X021799Y026016D01*
X021793Y026038D02*
X021799Y026038D01*
X021799Y026118D02*
X021762Y026118D01*
X021799Y026199D02*
X021715Y026199D01*
X021644Y026279D02*
X021799Y026279D01*
X021799Y026360D02*
X021524Y026360D01*
X021525Y026440D02*
X021799Y026440D01*
X021799Y026521D02*
X021643Y026521D01*
X021724Y026601D02*
X021799Y026601D01*
X021763Y026682D02*
X021847Y026682D01*
X021796Y026762D02*
X021928Y026762D01*
X022008Y026843D02*
X021811Y026843D01*
X021811Y026923D02*
X022089Y026923D01*
X022169Y027004D02*
X021810Y027004D01*
X021777Y027084D02*
X022250Y027084D01*
X022330Y027165D02*
X021744Y027165D01*
X021678Y027245D02*
X022411Y027245D01*
X022491Y027326D02*
X021597Y027326D01*
X021414Y027406D02*
X022572Y027406D01*
X022652Y027487D02*
X021278Y027487D01*
X021225Y027567D02*
X022384Y027567D01*
X022291Y027648D02*
X021173Y027648D01*
X021121Y027728D02*
X022249Y027728D01*
X022228Y027809D02*
X021068Y027809D01*
X021016Y027889D02*
X021559Y027889D01*
X021443Y027970D02*
X020964Y027970D01*
X020951Y028050D02*
X021363Y028050D01*
X021295Y028131D02*
X020951Y028131D01*
X020951Y028211D02*
X021262Y028211D01*
X021228Y028292D02*
X020951Y028292D01*
X020951Y028372D02*
X021199Y028372D01*
X021199Y028453D02*
X020951Y028453D01*
X020951Y028533D02*
X021199Y028533D01*
X021199Y028614D02*
X020954Y028614D01*
X020958Y028694D02*
X021222Y028694D01*
X021256Y028775D02*
X020962Y028775D01*
X020966Y028855D02*
X021289Y028855D01*
X021348Y028936D02*
X020970Y028936D01*
X020976Y029016D02*
X021429Y029016D01*
X021525Y029097D02*
X020990Y029097D01*
X021003Y029177D02*
X021719Y029177D01*
X022061Y029177D02*
X022479Y029177D01*
X022479Y029097D02*
X022255Y029097D01*
X022351Y029016D02*
X022479Y029016D01*
X022479Y028936D02*
X022432Y028936D01*
X022479Y029258D02*
X021017Y029258D01*
X021030Y029338D02*
X022479Y029338D01*
X022479Y029419D02*
X021044Y029419D01*
X021057Y029499D02*
X022438Y029499D01*
X022358Y029580D02*
X021071Y029580D01*
X021084Y029660D02*
X022277Y029660D01*
X022197Y029741D02*
X021098Y029741D01*
X021111Y029821D02*
X022116Y029821D01*
X022036Y029902D02*
X021128Y029902D01*
X021155Y029982D02*
X021955Y029982D01*
X021875Y030063D02*
X021182Y030063D01*
X021209Y030143D02*
X021794Y030143D01*
X021714Y030224D02*
X021236Y030224D01*
X021263Y030304D02*
X021633Y030304D01*
X021553Y030385D02*
X021289Y030385D01*
X021316Y030465D02*
X021472Y030465D01*
X021429Y030546D02*
X021343Y030546D01*
X021370Y030626D02*
X021429Y030626D01*
X021429Y030707D02*
X021397Y030707D01*
X021726Y031351D02*
X021738Y031351D01*
X021768Y031431D02*
X021805Y031431D01*
X021810Y031512D02*
X021872Y031512D01*
X021864Y031592D02*
X021939Y031592D01*
X021923Y031673D02*
X022006Y031673D01*
X021983Y031753D02*
X022073Y031753D01*
X022042Y031834D02*
X022140Y031834D01*
X022101Y031914D02*
X022207Y031914D01*
X022161Y031995D02*
X022274Y031995D01*
X022220Y032075D02*
X022342Y032075D01*
X022279Y032156D02*
X022409Y032156D01*
X022476Y032236D02*
X022339Y032236D01*
X022410Y032317D02*
X022543Y032317D01*
X022485Y032397D02*
X022610Y032397D01*
X022560Y032478D02*
X022677Y032478D01*
X022648Y032558D02*
X022744Y032558D01*
X022720Y032639D02*
X022811Y032639D01*
X022861Y032719D02*
X022753Y032719D01*
X022761Y032800D02*
X022861Y032800D01*
X022861Y032880D02*
X022753Y032880D01*
X022720Y032961D02*
X022861Y032961D01*
X022861Y033041D02*
X022649Y033041D01*
X022041Y033283D02*
X024948Y033283D01*
X024868Y033202D02*
X021965Y033202D01*
X026464Y033524D02*
X026811Y033524D01*
X026675Y033605D02*
X026511Y033605D01*
X026511Y033685D02*
X026597Y033685D01*
X026546Y033766D02*
X026511Y033766D01*
X026511Y033846D02*
X026513Y033846D01*
X026511Y034168D02*
X026517Y034168D01*
X026511Y034249D02*
X026553Y034249D01*
X026511Y034329D02*
X026607Y034329D01*
X026694Y034410D02*
X026511Y034410D01*
X027145Y034490D02*
X027848Y034490D01*
X027687Y034410D02*
X027306Y034410D01*
X027393Y034329D02*
X027606Y034329D01*
X027550Y034249D02*
X027447Y034249D01*
X027483Y034168D02*
X027517Y034168D01*
X027511Y033846D02*
X027487Y033846D01*
X027454Y033766D02*
X027544Y033766D01*
X027592Y033685D02*
X027403Y033685D01*
X027325Y033605D02*
X027673Y033605D01*
X028152Y034490D02*
X028178Y034490D01*
X029398Y031914D02*
X029644Y031914D01*
X029595Y031834D02*
X029318Y031834D01*
X029237Y031753D02*
X029571Y031753D01*
X029567Y031673D02*
X029157Y031673D01*
X029043Y031592D02*
X029584Y031592D01*
X029626Y031512D02*
X029079Y031512D01*
X029153Y031431D02*
X029706Y031431D01*
X029713Y031351D02*
X029234Y031351D01*
X029314Y031270D02*
X029630Y031270D01*
X029589Y031190D02*
X029395Y031190D01*
X029401Y031109D02*
X029567Y031109D01*
X029567Y031029D02*
X029401Y031029D01*
X029391Y030948D02*
X029541Y030948D01*
X029477Y030868D02*
X029391Y030868D01*
X029391Y030787D02*
X029412Y030787D01*
X030197Y031834D02*
X031294Y031834D01*
X033541Y031834D02*
X033939Y031834D01*
X033897Y031914D02*
X033541Y031914D01*
X033541Y031995D02*
X033855Y031995D01*
X033813Y032075D02*
X033541Y032075D01*
X033541Y032156D02*
X033770Y032156D01*
X033728Y032236D02*
X033541Y032236D01*
X033541Y032317D02*
X033685Y032317D01*
X033628Y032397D02*
X033541Y032397D01*
X033541Y032478D02*
X033570Y032478D01*
X033541Y031753D02*
X033981Y031753D01*
X034023Y031673D02*
X033541Y031673D01*
X025809Y024171D02*
X024421Y025559D01*
X024309Y025671D01*
X024309Y026369D01*
X024291Y026351D01*
X024291Y025361D01*
X024326Y025361D01*
X024625Y025062D01*
X024625Y024654D01*
X025033Y024654D01*
X025154Y024533D01*
X024821Y024201D01*
X024879Y024143D01*
X025212Y024475D01*
X025332Y024355D01*
X025332Y023931D01*
X025212Y023811D01*
X024879Y024143D01*
X024821Y024085D01*
X025154Y023753D01*
X025033Y023632D01*
X024625Y023632D01*
X024625Y023224D01*
X024402Y023001D01*
X025433Y023001D01*
X025489Y022945D01*
X025489Y023102D01*
X025567Y023289D01*
X025711Y023433D01*
X025809Y023474D01*
X025809Y024171D01*
X025794Y024186D02*
X025332Y024186D01*
X025332Y024106D02*
X025809Y024106D01*
X025809Y024025D02*
X025332Y024025D01*
X025332Y023945D02*
X025809Y023945D01*
X025809Y023864D02*
X025265Y023864D01*
X025158Y023864D02*
X025042Y023864D01*
X025078Y023945D02*
X024962Y023945D01*
X024997Y024025D02*
X024881Y024025D01*
X024917Y024106D02*
X024842Y024106D01*
X024836Y024186D02*
X024922Y024186D01*
X024887Y024267D02*
X025003Y024267D01*
X024967Y024347D02*
X025083Y024347D01*
X025048Y024428D02*
X025164Y024428D01*
X025128Y024508D02*
X025472Y024508D01*
X025552Y024428D02*
X025259Y024428D01*
X025332Y024347D02*
X025633Y024347D01*
X025713Y024267D02*
X025332Y024267D01*
X025391Y024589D02*
X025098Y024589D01*
X025230Y024750D02*
X024625Y024750D01*
X024625Y024830D02*
X025150Y024830D01*
X025069Y024911D02*
X024625Y024911D01*
X024625Y024991D02*
X024989Y024991D01*
X024908Y025072D02*
X024615Y025072D01*
X024535Y025152D02*
X024828Y025152D01*
X024747Y025233D02*
X024454Y025233D01*
X024374Y025313D02*
X024667Y025313D01*
X024586Y025394D02*
X024291Y025394D01*
X024291Y025474D02*
X024506Y025474D01*
X024425Y025555D02*
X024291Y025555D01*
X024291Y025635D02*
X024345Y025635D01*
X024309Y025716D02*
X024291Y025716D01*
X024291Y025796D02*
X024309Y025796D01*
X024309Y025877D02*
X024291Y025877D01*
X024291Y025957D02*
X024309Y025957D01*
X024309Y026038D02*
X024291Y026038D01*
X024291Y026118D02*
X024309Y026118D01*
X024309Y026199D02*
X024291Y026199D01*
X024291Y026279D02*
X024309Y026279D01*
X024299Y026360D02*
X024309Y026360D01*
X022733Y027567D02*
X022695Y027567D01*
X022228Y027889D02*
X022221Y027889D01*
X024625Y024669D02*
X025311Y024669D01*
X025123Y023784D02*
X025809Y023784D01*
X025809Y023703D02*
X025104Y023703D01*
X024625Y023623D02*
X025809Y023623D01*
X025809Y023542D02*
X024625Y023542D01*
X024625Y023462D02*
X025779Y023462D01*
X025658Y023381D02*
X024625Y023381D01*
X024625Y023301D02*
X025578Y023301D01*
X025538Y023220D02*
X024621Y023220D01*
X024541Y023140D02*
X025505Y023140D01*
X025489Y023059D02*
X024460Y023059D01*
X025456Y022979D02*
X025489Y022979D01*
D23*
X026000Y023000D02*
X026000Y024250D01*
X024500Y025750D01*
X024500Y026950D01*
X023800Y027600D01*
X024250Y027850D02*
X024750Y027350D01*
X024750Y025850D01*
X027000Y023600D01*
X027000Y023000D01*
X027250Y023700D02*
X027850Y023700D01*
X028250Y023450D02*
X028000Y023250D01*
X028000Y023000D01*
X028250Y023450D02*
X028250Y027350D01*
X028050Y027550D01*
X027000Y027550D01*
X027650Y027900D02*
X028650Y027900D01*
X028950Y027600D01*
X030300Y027600D01*
X029800Y028000D02*
X031100Y028000D01*
X031650Y028550D01*
X031650Y031150D01*
X031550Y031650D01*
X031300Y031200D02*
X031300Y028550D01*
X030950Y028200D01*
X029900Y028200D01*
X028950Y029200D01*
X028600Y029200D01*
X028150Y028750D01*
X026000Y028750D01*
X025450Y028200D01*
X025500Y027700D02*
X026350Y028550D01*
X028500Y028550D01*
X028800Y028850D01*
X029200Y028350D02*
X029450Y028350D01*
X029800Y028000D01*
X028050Y029000D02*
X029050Y030000D01*
X029050Y030450D01*
X029200Y030600D01*
X029200Y031100D01*
X028050Y029000D02*
X027650Y029000D01*
X025500Y027700D02*
X025500Y026650D01*
X025913Y026300D02*
X025913Y025350D01*
X026263Y025000D01*
X027350Y025000D01*
X027250Y023700D02*
X025000Y025950D01*
X025000Y027600D01*
X024400Y028200D01*
X023900Y028200D01*
X024100Y026600D02*
X024100Y024864D01*
X024114Y024850D01*
X022700Y024850D02*
X022700Y026100D01*
X023150Y026550D01*
X033150Y030800D02*
X033150Y032500D01*
X031700Y033900D01*
X031500Y033900D01*
X031650Y034250D02*
X033350Y032600D01*
X033350Y031450D01*
X033900Y030950D01*
X033550Y030500D02*
X033150Y030800D01*
X031650Y034250D02*
X030500Y034250D01*
X030100Y034600D01*
X029700Y034900D01*
D24*
X032000Y031950D02*
X032000Y025644D01*
X031307Y025644D01*
X031307Y024856D02*
X032700Y024852D01*
X031307Y024856D02*
X031150Y024700D01*
X031150Y023500D01*
X026400Y029850D02*
X026425Y029900D01*
X026550Y030025D01*
X026550Y030650D01*
D25*
X022450Y032800D02*
X022245Y032587D01*
X022050Y032364D01*
X021867Y032132D01*
X021695Y031891D01*
X021535Y031642D01*
X021387Y031386D01*
X021252Y031122D01*
X021130Y030853D01*
X021021Y030578D01*
X020926Y030297D01*
X020845Y030013D01*
X020777Y029725D01*
X020724Y029434D01*
X020685Y029140D01*
X020660Y028845D01*
X020650Y028550D01*
X020650Y027900D01*
X021300Y026900D01*
X032000Y026348D02*
X032700Y026348D01*
D26*
X026150Y021450D02*
X025800Y021800D01*
X025300Y021800D01*
X024700Y022400D01*
X023700Y022400D01*
X021700Y024400D01*
X021700Y025250D01*
X022000Y025550D01*
X022000Y026550D01*
X022950Y027500D01*
X022950Y028900D01*
X023400Y029400D01*
X023350Y029750D02*
X022650Y030450D01*
X022450Y030450D01*
X022050Y030800D02*
X022050Y031000D01*
X022879Y031979D01*
X023150Y031979D01*
X023650Y031979D02*
X023650Y030400D01*
X023700Y030300D01*
X023550Y029950D02*
X022500Y031000D01*
X024150Y031979D02*
X024250Y032200D01*
X024450Y032400D01*
X024875Y032400D01*
X025000Y032525D01*
X025000Y033050D01*
X025200Y033250D01*
X029050Y033250D01*
X029750Y033950D01*
X030950Y033950D01*
X031550Y033350D01*
X031750Y033350D01*
X031650Y032900D02*
X030800Y033750D01*
X029850Y033750D01*
X029150Y033050D01*
X027150Y033050D01*
X026750Y032650D01*
X026750Y031750D01*
X026550Y031550D01*
X026021Y031550D01*
X026171Y031200D02*
X026021Y031050D01*
X026171Y031200D02*
X026850Y031200D01*
X027550Y030500D01*
X027550Y029750D01*
X026950Y029250D01*
X023800Y029250D01*
X023200Y028650D01*
X023200Y027450D01*
X022200Y026450D01*
X022200Y025450D01*
X021900Y025150D01*
X021900Y024500D01*
X023800Y022600D01*
X025050Y022600D01*
X025450Y022200D01*
X025350Y022800D02*
X026300Y021850D01*
X026150Y021450D02*
X027800Y021450D01*
X028250Y021950D01*
X028600Y022300D01*
X025350Y022800D02*
X023900Y022800D01*
X022100Y024600D01*
X022100Y025050D01*
X022400Y025350D01*
X022400Y026350D01*
X023450Y027400D01*
X023450Y028550D01*
X023900Y029000D01*
X027650Y029000D01*
X027900Y029950D02*
X028450Y029950D01*
X028721Y030221D01*
X028721Y030850D01*
X028700Y030850D01*
X029200Y031100D02*
X028950Y031350D01*
X028721Y031350D01*
X028721Y031850D02*
X029050Y031850D01*
X029200Y032000D01*
X029200Y032750D01*
X030000Y033550D01*
X030650Y033550D01*
X031550Y032650D01*
X032050Y032650D01*
X032400Y032300D01*
X032400Y031400D01*
X032550Y031200D01*
X032650Y031600D02*
X032750Y031700D01*
X032650Y031600D02*
X032650Y032400D01*
X032150Y032900D01*
X031650Y032900D01*
X029896Y031070D02*
X029300Y030324D01*
X029300Y029200D01*
X029950Y028550D01*
X030050Y028550D01*
X030550Y028550D02*
X031050Y029000D01*
X031050Y030309D01*
X030604Y030755D01*
X027200Y029950D02*
X026650Y029500D01*
X023850Y029500D01*
X023600Y029750D01*
X023350Y029750D01*
X023550Y029950D02*
X025671Y029950D01*
X026021Y030350D01*
X030250Y026150D02*
X031350Y026150D01*
M02*
