G75*
G70*
%OFA0B0*%
%FSLAX24Y24*%
%IPPOS*%
%LPD*%
%AMOC8*
5,1,8,0,0,1.08239X$1,22.5*
%
%ADD10C,0.0000*%
%ADD11C,0.0100*%
%ADD12R,0.0276X0.0354*%
%ADD13R,0.0354X0.0276*%
%ADD14R,0.0669X0.0276*%
%ADD15R,0.0220X0.0500*%
%ADD16R,0.0500X0.0220*%
%ADD17C,0.0740*%
%ADD18R,0.0177X0.0197*%
%ADD19R,0.0335X0.0354*%
%ADD20R,0.0197X0.0177*%
%ADD21R,0.0354X0.0335*%
%ADD22R,0.0480X0.0880*%
%ADD23R,0.1417X0.0866*%
%ADD24R,0.0630X0.0551*%
%ADD25R,0.0354X0.0315*%
%ADD26R,0.0315X0.0354*%
%ADD27R,0.0551X0.0551*%
%ADD28C,0.0148*%
%ADD29R,0.0550X0.0137*%
%ADD30C,0.0476*%
%ADD31C,0.1181*%
%ADD32R,0.0315X0.0315*%
%ADD33R,0.0551X0.0630*%
%ADD34R,0.0571X0.0413*%
%ADD35R,0.0236X0.0315*%
%ADD36R,0.0740X0.0740*%
%ADD37C,0.0120*%
%ADD38C,0.0160*%
%ADD39C,0.0400*%
%ADD40C,0.00811*%
%ADD41C,0.0240*%
%ADD42C,0.0320*%
%ADD43C,0.0436*%
D10*
X021390Y028500D02*
X021392Y028544D01*
X021398Y028588D01*
X021408Y028631D01*
X021421Y028673D01*
X021438Y028714D01*
X021459Y028753D01*
X021483Y028790D01*
X021510Y028825D01*
X021540Y028857D01*
X021573Y028887D01*
X021609Y028913D01*
X021646Y028937D01*
X021686Y028956D01*
X021727Y028973D01*
X021770Y028985D01*
X021813Y028994D01*
X021857Y028999D01*
X021901Y029000D01*
X021945Y028997D01*
X021989Y028990D01*
X022032Y028979D01*
X022074Y028965D01*
X022114Y028947D01*
X022153Y028925D01*
X022189Y028901D01*
X022223Y028873D01*
X022255Y028842D01*
X022284Y028808D01*
X022310Y028772D01*
X022332Y028734D01*
X022351Y028694D01*
X022366Y028652D01*
X022378Y028610D01*
X022386Y028566D01*
X022390Y028522D01*
X022390Y028478D01*
X022386Y028434D01*
X022378Y028390D01*
X022366Y028348D01*
X022351Y028306D01*
X022332Y028266D01*
X022310Y028228D01*
X022284Y028192D01*
X022255Y028158D01*
X022223Y028127D01*
X022189Y028099D01*
X022153Y028075D01*
X022114Y028053D01*
X022074Y028035D01*
X022032Y028021D01*
X021989Y028010D01*
X021945Y028003D01*
X021901Y028000D01*
X021857Y028001D01*
X021813Y028006D01*
X021770Y028015D01*
X021727Y028027D01*
X021686Y028044D01*
X021646Y028063D01*
X021609Y028087D01*
X021573Y028113D01*
X021540Y028143D01*
X021510Y028175D01*
X021483Y028210D01*
X021459Y028247D01*
X021438Y028286D01*
X021421Y028327D01*
X021408Y028369D01*
X021398Y028412D01*
X021392Y028456D01*
X021390Y028500D01*
X032610Y028500D02*
X032612Y028544D01*
X032618Y028588D01*
X032628Y028631D01*
X032641Y028673D01*
X032658Y028714D01*
X032679Y028753D01*
X032703Y028790D01*
X032730Y028825D01*
X032760Y028857D01*
X032793Y028887D01*
X032829Y028913D01*
X032866Y028937D01*
X032906Y028956D01*
X032947Y028973D01*
X032990Y028985D01*
X033033Y028994D01*
X033077Y028999D01*
X033121Y029000D01*
X033165Y028997D01*
X033209Y028990D01*
X033252Y028979D01*
X033294Y028965D01*
X033334Y028947D01*
X033373Y028925D01*
X033409Y028901D01*
X033443Y028873D01*
X033475Y028842D01*
X033504Y028808D01*
X033530Y028772D01*
X033552Y028734D01*
X033571Y028694D01*
X033586Y028652D01*
X033598Y028610D01*
X033606Y028566D01*
X033610Y028522D01*
X033610Y028478D01*
X033606Y028434D01*
X033598Y028390D01*
X033586Y028348D01*
X033571Y028306D01*
X033552Y028266D01*
X033530Y028228D01*
X033504Y028192D01*
X033475Y028158D01*
X033443Y028127D01*
X033409Y028099D01*
X033373Y028075D01*
X033334Y028053D01*
X033294Y028035D01*
X033252Y028021D01*
X033209Y028010D01*
X033165Y028003D01*
X033121Y028000D01*
X033077Y028001D01*
X033033Y028006D01*
X032990Y028015D01*
X032947Y028027D01*
X032906Y028044D01*
X032866Y028063D01*
X032829Y028087D01*
X032793Y028113D01*
X032760Y028143D01*
X032730Y028175D01*
X032703Y028210D01*
X032679Y028247D01*
X032658Y028286D01*
X032641Y028327D01*
X032628Y028369D01*
X032618Y028412D01*
X032612Y028456D01*
X032610Y028500D01*
D11*
X031950Y028355D02*
X031900Y028250D01*
X031900Y026450D01*
X032016Y026334D01*
X032306Y026300D02*
X032339Y026334D01*
X032339Y026078D02*
X032311Y026050D01*
X031950Y026050D01*
X031700Y026300D01*
X031700Y028005D01*
X031400Y028355D01*
X031400Y028945D02*
X031400Y029444D01*
X031950Y029444D02*
X031950Y028945D01*
X030550Y027500D02*
X030550Y024700D01*
X029750Y023900D01*
X029200Y023900D01*
X028950Y024150D01*
X028950Y024800D01*
X028750Y025000D01*
X028506Y025000D01*
X028550Y025500D02*
X028750Y025700D01*
X028750Y027400D01*
X028600Y027550D01*
X028297Y027550D01*
X028290Y027557D01*
X028290Y027872D02*
X028825Y027872D01*
X028950Y027747D01*
X028950Y026790D01*
X029150Y026590D01*
X029461Y026590D01*
X029461Y027357D02*
X029857Y027357D01*
X030150Y027650D01*
X030393Y027657D01*
X030550Y027500D01*
X029461Y027613D02*
X029387Y027613D01*
X028800Y028200D01*
X028303Y028200D01*
X028290Y028187D01*
X028290Y028502D02*
X029052Y028502D01*
X029550Y028000D01*
X028800Y028850D02*
X028800Y028982D01*
X028476Y029256D01*
X027400Y029103D02*
X027387Y029090D01*
X027400Y029077D01*
X027400Y027550D01*
X026480Y035945D02*
X026118Y035886D01*
X025759Y035810D01*
X025405Y035716D01*
X025055Y035604D01*
X024711Y035476D01*
X024374Y035332D01*
X024044Y035171D01*
X023723Y034994D01*
X023410Y034801D01*
X023107Y034594D01*
X022815Y034372D01*
X022534Y034136D01*
X022265Y033886D01*
X022009Y033624D01*
X021765Y033350D01*
X021535Y033063D01*
X021320Y032767D01*
X021119Y032459D01*
X020933Y032143D01*
X020763Y031818D01*
X020610Y031484D01*
X020472Y031144D01*
X020352Y030798D01*
X020248Y030445D01*
X020162Y030089D01*
X020093Y029728D01*
X020043Y029365D01*
X020009Y028999D01*
X019994Y028633D01*
X019997Y028266D01*
X020017Y027900D01*
X020056Y027535D01*
X020112Y027172D01*
X020186Y026813D01*
X020277Y026457D01*
X020386Y026107D01*
X020511Y025762D01*
X020654Y025424D01*
X020812Y025093D01*
X020987Y024770D01*
X021177Y024456D01*
X021382Y024152D01*
X021602Y023858D01*
X021836Y023575D01*
X022084Y023304D01*
X022344Y023046D01*
X022617Y022800D01*
X022901Y022569D01*
X023197Y022351D01*
X023502Y022148D01*
X023817Y021960D01*
X024141Y021788D01*
X024474Y021631D01*
X024813Y021492D01*
X025158Y021369D01*
X025510Y021263D01*
X025866Y021174D01*
X026226Y021103D01*
X026589Y021049D01*
X026954Y021013D01*
X027321Y020995D01*
X027687Y020995D01*
X028054Y021013D01*
X028419Y021049D01*
X028782Y021103D01*
X029142Y021174D01*
X029498Y021263D01*
X029850Y021369D01*
X030195Y021492D01*
X030534Y021631D01*
X030867Y021788D01*
X031191Y021960D01*
X031506Y022148D01*
X031811Y022351D01*
X032107Y022569D01*
X032391Y022800D01*
X032664Y023046D01*
X032924Y023304D01*
X033172Y023575D01*
X033406Y023858D01*
X033626Y024152D01*
X033831Y024456D01*
X034021Y024770D01*
X034196Y025093D01*
X034354Y025424D01*
X034497Y025762D01*
X034622Y026107D01*
X034731Y026457D01*
X034822Y026813D01*
X034896Y027172D01*
X034952Y027535D01*
X034991Y027900D01*
X035011Y028266D01*
X035014Y028633D01*
X034999Y028999D01*
X034965Y029365D01*
X034915Y029728D01*
X034846Y030089D01*
X034760Y030445D01*
X034656Y030798D01*
X034536Y031144D01*
X034398Y031484D01*
X034245Y031818D01*
X034075Y032143D01*
X033889Y032459D01*
X033688Y032767D01*
X033473Y033063D01*
X033243Y033350D01*
X032999Y033624D01*
X032743Y033886D01*
X032474Y034136D01*
X032193Y034372D01*
X031901Y034594D01*
X031598Y034801D01*
X031285Y034994D01*
X030964Y035171D01*
X030634Y035332D01*
X030297Y035476D01*
X029953Y035604D01*
X029603Y035716D01*
X029249Y035810D01*
X028890Y035886D01*
X028528Y035945D01*
X028528Y035276D01*
X026480Y035276D01*
X026480Y035945D01*
X028396Y034906D02*
X028600Y034900D01*
X028800Y034900D01*
X028900Y035000D01*
X029600Y035000D01*
X029700Y034900D01*
X030644Y033976D02*
X030770Y033900D01*
X031500Y033900D01*
X031550Y031650D02*
X032000Y031200D01*
X032000Y030925D01*
X032125Y030800D01*
X032750Y030800D01*
X032900Y030950D01*
X033900Y030950D01*
X033450Y030600D02*
X033550Y030500D01*
X033450Y030600D02*
X031900Y030600D01*
X031300Y031200D01*
X025800Y029400D02*
X025800Y029103D01*
X025813Y029090D01*
X025800Y029400D02*
X025650Y029550D01*
X025125Y029550D01*
X025000Y029675D01*
X025000Y029950D01*
X024778Y030172D01*
X024500Y030172D01*
X024500Y029228D02*
X025360Y029228D01*
X025498Y029090D01*
X024910Y028502D02*
X024598Y028502D01*
X024300Y028200D01*
X023900Y028200D01*
X024250Y027850D02*
X024888Y027850D01*
X024910Y027872D01*
X024910Y027557D02*
X024853Y027500D01*
X023900Y027500D01*
X023800Y027600D01*
X023450Y027450D02*
X023657Y027243D01*
X024910Y027243D01*
X024888Y026950D02*
X024910Y026928D01*
X024888Y026950D02*
X024550Y026950D01*
X024474Y027026D01*
X023044Y027026D01*
X023150Y026550D02*
X023500Y026550D01*
X023800Y026250D01*
X024862Y026250D01*
X024874Y026252D01*
X024886Y026256D01*
X024896Y026264D01*
X024904Y026274D01*
X024908Y026286D01*
X024910Y026298D01*
X024910Y026613D02*
X024113Y026613D01*
X024100Y026600D01*
X023600Y026150D02*
X023750Y026000D01*
X025200Y026000D01*
X025300Y025900D01*
X025488Y025700D01*
X025498Y025710D01*
X025813Y025710D02*
X025813Y025200D01*
X025813Y024819D01*
X025800Y024806D01*
X026443Y024813D02*
X026443Y025710D01*
X026443Y024813D02*
X026450Y024806D01*
X027350Y025000D02*
X027350Y024500D01*
X027494Y024500D01*
X028000Y024494D02*
X028000Y024350D01*
X027200Y023600D01*
X025100Y023600D01*
X024236Y023586D01*
X024114Y023436D01*
X023407Y024143D02*
X022607Y024143D01*
X022050Y024700D01*
X022050Y025050D01*
X023150Y026150D01*
X023600Y026150D01*
X024910Y026613D02*
X025463Y026613D01*
X025500Y026650D01*
X025437Y028187D02*
X024910Y028187D01*
X025437Y028187D02*
X025450Y028200D01*
X023450Y028500D02*
X023450Y027450D01*
X023450Y028500D02*
X022700Y029250D01*
X021220Y029250D01*
X020926Y029606D01*
X027844Y025144D02*
X028200Y025500D01*
X028550Y025500D01*
X027994Y025000D02*
X027844Y025144D01*
X027994Y025000D02*
X028006Y024500D01*
X028000Y024494D01*
X027850Y023700D02*
X028000Y023650D01*
X029680Y023650D01*
X029906Y023424D01*
X028600Y022300D02*
X028170Y021820D01*
X028020Y021800D01*
D12*
X028006Y024500D03*
X027994Y025000D03*
X028506Y025000D03*
X027494Y024500D03*
X033244Y026450D03*
X033756Y026450D03*
D13*
X031950Y029444D03*
X031950Y029956D03*
X031400Y029956D03*
X031400Y029444D03*
X026550Y031294D03*
X026550Y031806D03*
X026450Y024806D03*
X026450Y024294D03*
X025800Y024294D03*
X025800Y024806D03*
D14*
X024500Y029228D03*
X024500Y029700D03*
X024500Y030172D03*
D15*
X025498Y029090D03*
X025813Y029090D03*
X026128Y029090D03*
X026443Y029090D03*
X026757Y029090D03*
X027072Y029090D03*
X027387Y029090D03*
X027702Y029090D03*
X027702Y025710D03*
X027387Y025710D03*
X027072Y025710D03*
X026757Y025710D03*
X026443Y025710D03*
X026128Y025710D03*
X025813Y025710D03*
X025498Y025710D03*
D16*
X024910Y026298D03*
X024910Y026613D03*
X024910Y026928D03*
X024910Y027243D03*
X024910Y027557D03*
X024910Y027872D03*
X024910Y028187D03*
X024910Y028502D03*
X028290Y028502D03*
X028290Y028187D03*
X028290Y027872D03*
X028290Y027557D03*
X028290Y027243D03*
X028290Y026928D03*
X028290Y026613D03*
X028290Y026298D03*
D17*
X028000Y023000D03*
X027000Y023000D03*
X026000Y023000D03*
X021300Y025900D03*
X021300Y026900D03*
X027000Y034000D03*
X028000Y034000D03*
X029000Y034000D03*
D18*
X027669Y021938D03*
X027331Y021938D03*
D19*
X026972Y021800D03*
X028020Y021800D03*
D20*
G36*
X033393Y031607D02*
X033225Y031509D01*
X033137Y031661D01*
X033305Y031759D01*
X033393Y031607D01*
G37*
G36*
X033224Y031901D02*
X033056Y031803D01*
X032968Y031955D01*
X033136Y032053D01*
X033224Y031901D01*
G37*
G36*
X021914Y032003D02*
X022082Y031905D01*
X021994Y031753D01*
X021826Y031851D01*
X021914Y032003D01*
G37*
G36*
X021745Y031709D02*
X021913Y031611D01*
X021825Y031459D01*
X021657Y031557D01*
X021745Y031709D01*
G37*
D21*
G36*
X021421Y031583D02*
X021726Y031406D01*
X021559Y031117D01*
X021254Y031294D01*
X021421Y031583D01*
G37*
G36*
X021945Y032490D02*
X022250Y032313D01*
X022083Y032024D01*
X021778Y032201D01*
X021945Y032490D01*
G37*
G36*
X033276Y032244D02*
X032971Y032067D01*
X032804Y032356D01*
X033109Y032533D01*
X033276Y032244D01*
G37*
G36*
X033800Y031337D02*
X033495Y031160D01*
X033328Y031449D01*
X033633Y031626D01*
X033800Y031337D01*
G37*
D22*
X025110Y031480D03*
X024200Y031480D03*
X023290Y031480D03*
D23*
X024200Y033920D03*
D24*
X027450Y031951D03*
X027450Y030849D03*
D25*
X023044Y027774D03*
X023044Y027026D03*
X022217Y027400D03*
X029906Y023424D03*
X029906Y022676D03*
X030733Y023050D03*
X030644Y033976D03*
X030644Y034724D03*
X029817Y034350D03*
D26*
X028850Y030083D03*
X028476Y029256D03*
X029224Y029256D03*
X021674Y029606D03*
X020926Y029606D03*
X021300Y030433D03*
D27*
X029100Y030752D03*
X029100Y032248D03*
D28*
X023456Y025336D02*
X023530Y025262D01*
X023284Y025262D01*
X023112Y025434D01*
X023112Y025680D01*
X023284Y025852D01*
X023530Y025852D01*
X023702Y025680D01*
X023702Y025434D01*
X023530Y025262D01*
X023484Y025373D01*
X023330Y025373D01*
X023223Y025480D01*
X023223Y025634D01*
X023330Y025741D01*
X023484Y025741D01*
X023591Y025634D01*
X023591Y025480D01*
X023484Y025373D01*
X023438Y025484D01*
X023376Y025484D01*
X023334Y025526D01*
X023334Y025588D01*
X023376Y025630D01*
X023438Y025630D01*
X023480Y025588D01*
X023480Y025526D01*
X023438Y025484D01*
X024163Y024629D02*
X024237Y024555D01*
X023991Y024555D01*
X023819Y024727D01*
X023819Y024973D01*
X023991Y025145D01*
X024237Y025145D01*
X024409Y024973D01*
X024409Y024727D01*
X024237Y024555D01*
X024191Y024666D01*
X024037Y024666D01*
X023930Y024773D01*
X023930Y024927D01*
X024037Y025034D01*
X024191Y025034D01*
X024298Y024927D01*
X024298Y024773D01*
X024191Y024666D01*
X024145Y024777D01*
X024083Y024777D01*
X024041Y024819D01*
X024041Y024881D01*
X024083Y024923D01*
X024145Y024923D01*
X024187Y024881D01*
X024187Y024819D01*
X024145Y024777D01*
X024870Y023922D02*
X024944Y023848D01*
X024698Y023848D01*
X024526Y024020D01*
X024526Y024266D01*
X024698Y024438D01*
X024944Y024438D01*
X025116Y024266D01*
X025116Y024020D01*
X024944Y023848D01*
X024898Y023959D01*
X024744Y023959D01*
X024637Y024066D01*
X024637Y024220D01*
X024744Y024327D01*
X024898Y024327D01*
X025005Y024220D01*
X025005Y024066D01*
X024898Y023959D01*
X024852Y024070D01*
X024790Y024070D01*
X024748Y024112D01*
X024748Y024174D01*
X024790Y024216D01*
X024852Y024216D01*
X024894Y024174D01*
X024894Y024112D01*
X024852Y024070D01*
X024163Y023215D02*
X024237Y023141D01*
X023991Y023141D01*
X023819Y023313D01*
X023819Y023559D01*
X023991Y023731D01*
X024237Y023731D01*
X024409Y023559D01*
X024409Y023313D01*
X024237Y023141D01*
X024191Y023252D01*
X024037Y023252D01*
X023930Y023359D01*
X023930Y023513D01*
X024037Y023620D01*
X024191Y023620D01*
X024298Y023513D01*
X024298Y023359D01*
X024191Y023252D01*
X024145Y023363D01*
X024083Y023363D01*
X024041Y023405D01*
X024041Y023467D01*
X024083Y023509D01*
X024145Y023509D01*
X024187Y023467D01*
X024187Y023405D01*
X024145Y023363D01*
X023456Y023922D02*
X023530Y023848D01*
X023284Y023848D01*
X023112Y024020D01*
X023112Y024266D01*
X023284Y024438D01*
X023530Y024438D01*
X023702Y024266D01*
X023702Y024020D01*
X023530Y023848D01*
X023484Y023959D01*
X023330Y023959D01*
X023223Y024066D01*
X023223Y024220D01*
X023330Y024327D01*
X023484Y024327D01*
X023591Y024220D01*
X023591Y024066D01*
X023484Y023959D01*
X023438Y024070D01*
X023376Y024070D01*
X023334Y024112D01*
X023334Y024174D01*
X023376Y024216D01*
X023438Y024216D01*
X023480Y024174D01*
X023480Y024112D01*
X023438Y024070D01*
X022749Y024629D02*
X022823Y024555D01*
X022577Y024555D01*
X022405Y024727D01*
X022405Y024973D01*
X022577Y025145D01*
X022823Y025145D01*
X022995Y024973D01*
X022995Y024727D01*
X022823Y024555D01*
X022777Y024666D01*
X022623Y024666D01*
X022516Y024773D01*
X022516Y024927D01*
X022623Y025034D01*
X022777Y025034D01*
X022884Y024927D01*
X022884Y024773D01*
X022777Y024666D01*
X022731Y024777D01*
X022669Y024777D01*
X022627Y024819D01*
X022627Y024881D01*
X022669Y024923D01*
X022731Y024923D01*
X022773Y024881D01*
X022773Y024819D01*
X022731Y024777D01*
D29*
X029461Y024798D03*
X029461Y024543D03*
X029461Y024287D03*
X029461Y025054D03*
X029461Y025310D03*
X029461Y025566D03*
X029461Y025822D03*
X029461Y026078D03*
X029461Y026334D03*
X029461Y026590D03*
X029461Y026846D03*
X029461Y027102D03*
X029461Y027357D03*
X029461Y027613D03*
X032339Y027613D03*
X032339Y027357D03*
X032339Y027102D03*
X032339Y026846D03*
X032339Y026590D03*
X032339Y026334D03*
X032339Y026078D03*
X032339Y025822D03*
X032339Y025566D03*
X032339Y025310D03*
X032339Y025054D03*
X032339Y024798D03*
X032339Y024543D03*
X032339Y024287D03*
D30*
X029896Y030440D03*
X030604Y030755D03*
X029896Y031070D03*
X029896Y031700D03*
X030604Y031385D03*
D31*
X030250Y032724D03*
X030250Y029416D03*
D32*
X031400Y028945D03*
X031950Y028945D03*
X031950Y028355D03*
X031400Y028355D03*
D33*
X033099Y027350D03*
X034201Y027350D03*
D34*
X028396Y034906D03*
X026604Y034906D03*
D35*
X026201Y035544D03*
X028799Y035544D03*
D36*
X026000Y034000D03*
X029000Y023000D03*
D37*
X029100Y022300D02*
X030650Y022300D01*
X032100Y023750D01*
X032400Y023750D01*
X033650Y025150D01*
X033650Y025600D01*
X032339Y025566D02*
X032323Y025550D01*
X031700Y025550D01*
X031350Y025900D01*
X031350Y027200D01*
X030750Y027800D02*
X030050Y028550D01*
X030550Y028550D02*
X030850Y028200D01*
X031000Y028050D01*
X031000Y025050D01*
X031507Y024543D01*
X032339Y024543D01*
X032339Y024287D02*
X031213Y024287D01*
X030750Y024750D01*
X030750Y027800D01*
X030200Y027200D02*
X029854Y026846D01*
X029461Y026846D01*
X029465Y026850D01*
X032016Y026334D02*
X032339Y026334D01*
X027900Y029950D02*
X027200Y029950D01*
X026128Y028500D02*
X025913Y028285D01*
X025913Y026300D01*
X025813Y025710D01*
X025813Y025200D02*
X024900Y025200D01*
X024550Y025550D01*
X023414Y025550D01*
X023407Y025557D01*
X025450Y022200D02*
X027331Y022200D01*
X027331Y021938D01*
X027650Y021957D02*
X027650Y021650D01*
X027800Y021450D01*
X028250Y021450D01*
X029100Y022300D01*
X028020Y021800D02*
X027950Y021800D01*
X027669Y021938D02*
X027650Y021957D01*
X026972Y021800D02*
X026822Y021850D01*
X026300Y021850D01*
X023400Y029400D02*
X023550Y029900D01*
X023700Y030300D01*
X022850Y030850D02*
X022850Y031371D01*
X022014Y032257D01*
X021954Y031878D02*
X022500Y031332D01*
X022500Y031000D01*
X022850Y030850D02*
X022450Y030450D01*
X022050Y030800D02*
X022040Y031000D01*
X021490Y031350D01*
X029817Y034350D02*
X029800Y034400D01*
X031750Y033350D02*
X031750Y033100D01*
X032540Y032310D01*
X033040Y032300D01*
X032750Y031700D02*
X032881Y031600D01*
X033265Y031634D01*
X033564Y031393D02*
X033371Y031250D01*
X032550Y031200D01*
D38*
X033096Y031928D02*
X033550Y032200D01*
X033044Y029956D02*
X031950Y029956D01*
X031400Y029956D01*
X030956Y029950D01*
X030500Y030250D01*
X030210Y030440D01*
X029896Y030440D01*
X028850Y030083D02*
X028583Y030350D01*
X028250Y030350D01*
X031026Y034724D02*
X031306Y034553D01*
X031578Y034369D01*
X031841Y034173D01*
X032094Y033964D01*
X032337Y033743D01*
X032569Y033511D01*
X032790Y033268D01*
X032999Y033015D01*
X033195Y032752D01*
X033379Y032480D01*
X033550Y032200D01*
X033044Y029956D02*
X034150Y028900D01*
X034150Y027451D01*
X034201Y027350D01*
X034201Y026945D01*
X033756Y026450D01*
X033756Y026206D01*
X032966Y025566D01*
X032339Y025566D01*
X026750Y028500D02*
X026750Y029090D01*
X026757Y029090D01*
X026750Y028500D02*
X026128Y028500D01*
X026128Y029090D01*
X021400Y031950D02*
X021512Y032171D01*
X021634Y032386D01*
X021766Y032596D01*
X021909Y032799D01*
X022060Y032995D01*
X022221Y033183D01*
X022391Y033364D01*
X022569Y033536D01*
X022755Y033700D01*
X022949Y033854D01*
X023150Y034000D01*
X023200Y034000D01*
X021400Y031950D02*
X021385Y031865D01*
X021785Y031584D01*
X021300Y030433D02*
X021683Y030050D01*
X022650Y030050D01*
X023300Y030700D01*
X024050Y030700D01*
X022539Y027839D02*
X022500Y027683D01*
X022217Y027400D01*
X029300Y034600D02*
X029800Y034400D01*
X030200Y035050D02*
X030576Y034774D01*
X030644Y034724D01*
X031026Y034724D01*
X030200Y035050D02*
X029850Y035300D01*
X029300Y035350D01*
D39*
X029300Y035350D03*
X029700Y034900D03*
X029300Y034600D03*
X030200Y035050D03*
X031500Y033900D03*
X031750Y033350D03*
X031400Y032150D03*
X031550Y031650D03*
X031300Y031200D03*
X032550Y031200D03*
X032750Y031700D03*
X033900Y030950D03*
X033550Y030500D03*
X032900Y029400D03*
X032450Y029150D03*
X030550Y028550D03*
X030050Y028550D03*
X029550Y028000D03*
X030200Y027200D03*
X031350Y027200D03*
X033650Y025600D03*
X033250Y025250D03*
X034150Y026050D03*
X034550Y028150D03*
X034550Y028650D03*
X030100Y025250D03*
X028900Y025350D03*
X027350Y025000D03*
X027850Y023700D03*
X028600Y022300D03*
X028950Y021650D03*
X029500Y021800D03*
X031750Y022900D03*
X032150Y023250D03*
X026300Y021850D03*
X025450Y022200D03*
X025300Y023150D03*
X024800Y023150D03*
X025913Y026300D03*
X025500Y026650D03*
X024100Y026600D03*
X023150Y026550D03*
X023800Y027600D03*
X024250Y027850D03*
X023900Y028200D03*
X022539Y027839D03*
X021500Y027700D03*
X021150Y028900D03*
X022450Y030450D03*
X022050Y030800D03*
X022500Y031000D03*
X023700Y030300D03*
X024050Y030700D03*
X023400Y029400D03*
X025450Y028200D03*
X027400Y027550D03*
X028800Y028850D03*
X027900Y029950D03*
X028250Y030350D03*
X027200Y029950D03*
X026400Y029850D03*
X026550Y030650D03*
X026350Y032750D03*
X027250Y032650D03*
X024650Y034800D03*
X025800Y034950D03*
X023200Y034000D03*
X022450Y032800D03*
D40*
X024524Y021818D02*
X025484Y021468D01*
X026484Y021255D01*
X027504Y021183D01*
X028524Y021255D01*
X029524Y021468D01*
X030484Y021818D01*
X031387Y022298D01*
X032213Y022899D01*
X032948Y023610D01*
X033577Y024416D01*
X034087Y025302D01*
X034469Y026250D01*
X034469Y026250D01*
X034715Y027243D01*
X034820Y028259D01*
X034783Y029281D01*
X034604Y030287D01*
X034286Y031259D01*
X033836Y032177D01*
X033712Y032361D01*
X033740Y032312D01*
X033786Y032235D01*
X033786Y032233D01*
X033787Y032231D01*
X033763Y032145D01*
X033742Y032058D01*
X033740Y032057D01*
X033739Y032055D01*
X033662Y032010D01*
X033411Y031860D01*
X033497Y031710D01*
X033614Y031777D01*
X033726Y031747D01*
X033952Y031357D01*
X033934Y031290D01*
X033968Y031290D01*
X034093Y031239D01*
X034189Y031143D01*
X034240Y031018D01*
X034240Y030882D01*
X034189Y030757D01*
X034093Y030661D01*
X033968Y030610D01*
X033873Y030610D01*
X033890Y030568D01*
X033890Y030432D01*
X033839Y030307D01*
X033743Y030211D01*
X033618Y030160D01*
X033482Y030160D01*
X033357Y030211D01*
X033261Y030307D01*
X033219Y030410D01*
X031821Y030410D01*
X031710Y030521D01*
X031370Y030860D01*
X031368Y030860D01*
X031232Y030860D01*
X031107Y030911D01*
X031011Y031007D01*
X030960Y031132D01*
X030960Y031253D01*
X030925Y031170D01*
X030825Y031070D01*
X030925Y030970D01*
X030983Y030830D01*
X030983Y030680D01*
X030925Y030541D01*
X030819Y030434D01*
X030698Y030384D01*
X031021Y030171D01*
X031103Y030172D01*
X031165Y030234D01*
X031635Y030234D01*
X031675Y030195D01*
X031715Y030234D01*
X032185Y030234D01*
X032243Y030176D01*
X033042Y030176D01*
X033130Y030178D01*
X033132Y030176D01*
X033135Y030176D01*
X033198Y030114D01*
X034238Y029120D01*
X034241Y029120D01*
X034304Y029058D01*
X034368Y028996D01*
X034368Y028993D01*
X034370Y028991D01*
X034370Y028903D01*
X034373Y028814D01*
X034370Y028812D01*
X034370Y027805D01*
X034535Y027805D01*
X034617Y027723D01*
X034617Y026977D01*
X034535Y026895D01*
X034425Y026895D01*
X034426Y026866D01*
X034422Y026861D01*
X034422Y026854D01*
X034361Y026793D01*
X034034Y026430D01*
X034034Y026215D01*
X033976Y026157D01*
X033976Y026115D01*
X033967Y026105D01*
X033966Y026092D01*
X033904Y026042D01*
X034385Y026042D01*
X034353Y025963D02*
X033806Y025963D01*
X033834Y025985D02*
X033847Y025985D01*
X033904Y026042D01*
X033834Y025985D02*
X033758Y025924D01*
X033843Y025889D01*
X033939Y025793D01*
X033990Y025668D01*
X033990Y025532D01*
X033939Y025407D01*
X033850Y025319D01*
X033850Y025156D01*
X033855Y025078D01*
X033850Y025074D01*
X033850Y025067D01*
X033796Y025012D01*
X032600Y023674D01*
X032600Y023667D01*
X032546Y023612D01*
X032494Y023555D01*
X032488Y023554D01*
X032483Y023550D01*
X032406Y023550D01*
X032328Y023545D01*
X032324Y023550D01*
X032183Y023550D01*
X030733Y022100D01*
X029183Y022100D01*
X028333Y021250D01*
X027867Y021250D01*
X027854Y021240D01*
X027786Y021250D01*
X027717Y021250D01*
X027705Y021261D01*
X027689Y021263D01*
X027648Y021318D01*
X027600Y021367D01*
X027600Y021383D01*
X027498Y021518D01*
X027450Y021567D01*
X027450Y021583D01*
X027440Y021596D01*
X027450Y021664D01*
X027450Y021699D01*
X027280Y021699D01*
X027280Y021565D01*
X027198Y021482D01*
X026747Y021482D01*
X026665Y021565D01*
X026665Y021650D01*
X026581Y021650D01*
X026493Y021561D01*
X026368Y021510D01*
X026232Y021510D01*
X026107Y021561D01*
X026011Y021657D01*
X025960Y021782D01*
X025960Y021918D01*
X025993Y022000D01*
X025731Y022000D01*
X025643Y021911D01*
X025518Y021860D01*
X025382Y021860D01*
X025257Y021911D01*
X025161Y022007D01*
X025110Y022132D01*
X025110Y022268D01*
X025161Y022393D01*
X025257Y022489D01*
X025382Y022540D01*
X025518Y022540D01*
X025643Y022489D01*
X025731Y022400D01*
X027414Y022400D01*
X027531Y022283D01*
X027531Y022177D01*
X027816Y022177D01*
X027875Y022118D01*
X028181Y022118D01*
X028267Y022214D01*
X028260Y022232D01*
X028260Y022368D01*
X028311Y022493D01*
X028407Y022589D01*
X028490Y022623D01*
X028490Y022848D01*
X028433Y022711D01*
X028289Y022567D01*
X028102Y022490D01*
X027898Y022490D01*
X027711Y022567D01*
X027567Y022711D01*
X027500Y022873D01*
X027433Y022711D01*
X027289Y022567D01*
X027102Y022490D01*
X026898Y022490D01*
X026711Y022567D01*
X026567Y022711D01*
X026500Y022873D01*
X026433Y022711D01*
X026289Y022567D01*
X026102Y022490D01*
X025898Y022490D01*
X025711Y022567D01*
X025567Y022711D01*
X025490Y022898D01*
X025490Y023102D01*
X025567Y023289D01*
X025688Y023410D01*
X025102Y023410D01*
X024625Y023402D01*
X024625Y023224D01*
X024326Y022925D01*
X023903Y022925D01*
X023604Y023224D01*
X023604Y023632D01*
X023196Y023632D01*
X022897Y023931D01*
X022897Y023952D01*
X022528Y023952D01*
X021971Y024510D01*
X021860Y024621D01*
X021860Y025129D01*
X022960Y026229D01*
X022982Y026251D01*
X022957Y026261D01*
X022861Y026357D01*
X022810Y026482D01*
X022810Y026618D01*
X022855Y026728D01*
X022808Y026728D01*
X022726Y026810D01*
X022726Y027242D01*
X022808Y027324D01*
X023279Y027324D01*
X023361Y027242D01*
X023361Y027216D01*
X023414Y027216D01*
X023371Y027260D01*
X023260Y027371D01*
X023260Y027481D01*
X023239Y027476D01*
X023082Y027476D01*
X023082Y027736D01*
X023005Y027736D01*
X023005Y027476D01*
X022848Y027476D01*
X022812Y027486D01*
X022780Y027504D01*
X022754Y027530D01*
X022739Y027557D01*
X022732Y027551D01*
X022654Y027518D01*
X022637Y027508D01*
X022535Y027406D01*
X022535Y027184D01*
X022452Y027102D01*
X021982Y027102D01*
X021899Y027184D01*
X021899Y027616D01*
X021982Y027698D01*
X022203Y027698D01*
X022222Y027717D01*
X022199Y027772D01*
X022199Y027907D01*
X022213Y027940D01*
X022017Y027860D01*
X021763Y027860D01*
X021527Y027957D01*
X021347Y028137D01*
X021250Y028373D01*
X021250Y028627D01*
X021347Y028863D01*
X021527Y029043D01*
X021567Y029060D01*
X021288Y029060D01*
X021280Y029053D01*
X021211Y029060D01*
X021141Y029060D01*
X021133Y029067D01*
X021123Y029068D01*
X021079Y029122D01*
X021029Y029171D01*
X021029Y029182D01*
X020941Y029289D01*
X020710Y029289D01*
X020628Y029371D01*
X020628Y029842D01*
X020710Y029924D01*
X021142Y029924D01*
X021224Y029842D01*
X021224Y029544D01*
X021310Y029440D01*
X021376Y029440D01*
X021376Y029568D01*
X021636Y029568D01*
X021636Y029645D01*
X021376Y029645D01*
X021376Y029802D01*
X021386Y029838D01*
X021404Y029870D01*
X021430Y029896D01*
X021462Y029914D01*
X021497Y029924D01*
X021463Y029959D01*
X021306Y030115D01*
X021084Y030115D01*
X021002Y030198D01*
X021002Y030668D01*
X021084Y030751D01*
X021516Y030751D01*
X021598Y030668D01*
X021598Y030447D01*
X021774Y030270D01*
X022156Y030270D01*
X022110Y030382D01*
X022110Y030460D01*
X021982Y030460D01*
X021857Y030511D01*
X021761Y030607D01*
X021710Y030732D01*
X021710Y030868D01*
X021744Y030951D01*
X021658Y031005D01*
X021653Y030996D01*
X021540Y030966D01*
X021132Y031201D01*
X021102Y031313D01*
X021300Y031656D01*
X021298Y031657D01*
X021256Y031665D01*
X021226Y031707D01*
X021183Y031737D01*
X021176Y031779D01*
X021151Y031815D01*
X021161Y031866D01*
X021152Y031917D01*
X021169Y031942D01*
X021162Y031962D01*
X021188Y032018D01*
X021199Y032079D01*
X021226Y032098D01*
X021354Y032366D01*
X021741Y032963D01*
X021741Y032963D01*
X022203Y033504D01*
X022203Y033504D01*
X022732Y033980D01*
X022732Y033980D01*
X022860Y034068D01*
X022905Y034178D01*
X022431Y033782D01*
X021745Y033023D01*
X021172Y032177D01*
X020722Y031259D01*
X020404Y030287D01*
X020225Y029281D01*
X020187Y028259D01*
X020293Y027243D01*
X020539Y026250D01*
X020921Y025302D01*
X021431Y024416D01*
X022060Y023610D01*
X022795Y022899D01*
X023621Y022298D01*
X024524Y021818D01*
X024503Y021829D02*
X025960Y021829D01*
X025960Y021908D02*
X025635Y021908D01*
X025719Y021988D02*
X025988Y021988D01*
X025973Y021749D02*
X024712Y021749D01*
X024930Y021670D02*
X026006Y021670D01*
X026078Y021590D02*
X025148Y021590D01*
X025366Y021511D02*
X026230Y021511D01*
X026370Y021511D02*
X026719Y021511D01*
X026665Y021590D02*
X026522Y021590D01*
X026403Y021272D02*
X027683Y021272D01*
X027634Y021193D02*
X027374Y021193D01*
X027615Y021352D02*
X026030Y021352D01*
X025656Y021431D02*
X027564Y021431D01*
X027504Y021511D02*
X027226Y021511D01*
X027280Y021590D02*
X027444Y021590D01*
X027450Y021670D02*
X027280Y021670D01*
X027531Y022226D02*
X028262Y022226D01*
X028260Y022306D02*
X027509Y022306D01*
X027429Y022385D02*
X028267Y022385D01*
X028300Y022465D02*
X025667Y022465D01*
X025767Y022544D02*
X023283Y022544D01*
X023392Y022465D02*
X025233Y022465D01*
X025158Y022385D02*
X023502Y022385D01*
X023611Y022306D02*
X025125Y022306D01*
X025110Y022226D02*
X023756Y022226D01*
X023906Y022147D02*
X025110Y022147D01*
X025137Y022067D02*
X024055Y022067D01*
X024204Y021988D02*
X025181Y021988D01*
X025265Y021908D02*
X024354Y021908D01*
X024342Y022942D02*
X025490Y022942D01*
X025490Y023021D02*
X024421Y023021D01*
X024501Y023101D02*
X025490Y023101D01*
X025522Y023180D02*
X024580Y023180D01*
X024625Y023260D02*
X025555Y023260D01*
X025617Y023339D02*
X024625Y023339D01*
X025091Y023816D02*
X025205Y023816D01*
X025211Y023811D02*
X025332Y023931D01*
X025332Y024354D01*
X025211Y024475D01*
X024879Y024143D01*
X024821Y024200D01*
X025154Y024533D01*
X025033Y024653D01*
X024625Y024653D01*
X024625Y025061D01*
X024337Y025350D01*
X024467Y025350D01*
X024700Y025117D01*
X024817Y025000D01*
X025482Y025000D01*
X025482Y024610D01*
X025544Y024548D01*
X025537Y024544D01*
X025510Y024518D01*
X025492Y024486D01*
X025482Y024450D01*
X025482Y024322D01*
X025772Y024322D01*
X025772Y024266D01*
X025828Y024266D01*
X025828Y024016D01*
X025996Y024016D01*
X026031Y024025D01*
X026063Y024044D01*
X026090Y024070D01*
X026108Y024102D01*
X026118Y024138D01*
X026118Y024266D01*
X025828Y024266D01*
X025828Y024322D01*
X026118Y024322D01*
X026118Y024450D01*
X026108Y024486D01*
X026090Y024518D01*
X026063Y024544D01*
X026056Y024548D01*
X026118Y024610D01*
X026118Y025002D01*
X026035Y025084D01*
X026003Y025084D01*
X026003Y025107D01*
X026013Y025117D01*
X026013Y025283D01*
X026003Y025293D01*
X026003Y025320D01*
X026252Y025320D01*
X026252Y025084D01*
X026215Y025084D01*
X026132Y025002D01*
X026132Y024610D01*
X026194Y024548D01*
X026187Y024544D01*
X026160Y024518D01*
X026142Y024486D01*
X026132Y024450D01*
X026132Y024322D01*
X026422Y024322D01*
X026422Y024266D01*
X026478Y024266D01*
X026478Y024016D01*
X026646Y024016D01*
X026681Y024025D01*
X026713Y024044D01*
X026740Y024070D01*
X026758Y024102D01*
X026768Y024138D01*
X026768Y024266D01*
X026478Y024266D01*
X026478Y024322D01*
X026768Y024322D01*
X026768Y024450D01*
X026758Y024486D01*
X026740Y024518D01*
X026713Y024544D01*
X026706Y024548D01*
X026768Y024610D01*
X026768Y025002D01*
X026685Y025084D01*
X026633Y025084D01*
X026633Y025320D01*
X026743Y025320D01*
X026743Y025695D01*
X026772Y025695D01*
X026772Y025320D01*
X026886Y025320D01*
X026900Y025323D01*
X026904Y025320D01*
X027232Y025320D01*
X027157Y025289D01*
X027061Y025193D01*
X027010Y025068D01*
X027010Y024932D01*
X027061Y024807D01*
X027157Y024711D01*
X027160Y024710D01*
X027160Y024421D01*
X027216Y024365D01*
X027216Y024265D01*
X027298Y024182D01*
X027543Y024182D01*
X027125Y023790D01*
X025177Y023790D01*
X025176Y023792D01*
X025116Y023791D01*
X024821Y024086D01*
X024879Y024143D01*
X025211Y023811D01*
X025216Y023816D02*
X027152Y023816D01*
X027237Y023896D02*
X025296Y023896D01*
X025332Y023975D02*
X027321Y023975D01*
X027406Y024055D02*
X026724Y024055D01*
X026767Y024134D02*
X027491Y024134D01*
X027267Y024214D02*
X026768Y024214D01*
X026768Y024373D02*
X027208Y024373D01*
X027216Y024293D02*
X026478Y024293D01*
X026422Y024293D02*
X025828Y024293D01*
X025772Y024293D02*
X025332Y024293D01*
X025332Y024214D02*
X025482Y024214D01*
X025482Y024266D02*
X025482Y024138D01*
X025492Y024102D01*
X025510Y024070D01*
X025537Y024044D01*
X025569Y024025D01*
X025604Y024016D01*
X025772Y024016D01*
X025772Y024266D01*
X025482Y024266D01*
X025482Y024373D02*
X025314Y024373D01*
X025234Y024452D02*
X025483Y024452D01*
X025524Y024532D02*
X025153Y024532D01*
X025188Y024452D02*
X025073Y024452D01*
X025108Y024373D02*
X024994Y024373D01*
X025029Y024293D02*
X024914Y024293D01*
X024949Y024214D02*
X024835Y024214D01*
X024870Y024134D02*
X024887Y024134D01*
X024852Y024055D02*
X024967Y024055D01*
X024932Y023975D02*
X025046Y023975D01*
X025011Y023896D02*
X025126Y023896D01*
X025332Y024055D02*
X025526Y024055D01*
X025483Y024134D02*
X025332Y024134D01*
X025772Y024134D02*
X025828Y024134D01*
X025828Y024055D02*
X025772Y024055D01*
X025772Y024214D02*
X025828Y024214D01*
X026118Y024214D02*
X026132Y024214D01*
X026132Y024266D02*
X026132Y024138D01*
X026142Y024102D01*
X026160Y024070D01*
X026187Y024044D01*
X026219Y024025D01*
X026254Y024016D01*
X026422Y024016D01*
X026422Y024266D01*
X026132Y024266D01*
X026118Y024373D02*
X026132Y024373D01*
X026133Y024452D02*
X026117Y024452D01*
X026076Y024532D02*
X026174Y024532D01*
X026132Y024611D02*
X026118Y024611D01*
X026118Y024691D02*
X026132Y024691D01*
X026132Y024770D02*
X026118Y024770D01*
X026118Y024850D02*
X026132Y024850D01*
X026132Y024929D02*
X026118Y024929D01*
X026111Y025009D02*
X026139Y025009D01*
X026252Y025088D02*
X026003Y025088D01*
X026013Y025168D02*
X026252Y025168D01*
X026252Y025247D02*
X026013Y025247D01*
X025482Y024929D02*
X024625Y024929D01*
X024625Y024850D02*
X025482Y024850D01*
X025482Y024770D02*
X024625Y024770D01*
X024625Y024691D02*
X025482Y024691D01*
X025482Y024611D02*
X025075Y024611D01*
X024808Y025009D02*
X024625Y025009D01*
X024598Y025088D02*
X024728Y025088D01*
X024649Y025168D02*
X024519Y025168D01*
X024569Y025247D02*
X024439Y025247D01*
X024490Y025327D02*
X024360Y025327D01*
X026195Y026100D02*
X026201Y026107D01*
X026253Y026232D01*
X026253Y026368D01*
X026201Y026493D01*
X026113Y026581D01*
X026113Y028202D01*
X026191Y028280D01*
X026841Y028280D01*
X026970Y028409D01*
X026970Y028700D01*
X027058Y028700D01*
X027058Y029075D01*
X027087Y029075D01*
X027087Y028700D01*
X027201Y028700D01*
X027210Y028702D01*
X027210Y027840D01*
X027207Y027839D01*
X027111Y027743D01*
X027060Y027618D01*
X027060Y027482D01*
X027111Y027357D01*
X027207Y027261D01*
X027332Y027210D01*
X027468Y027210D01*
X027593Y027261D01*
X027689Y027357D01*
X027740Y027482D01*
X027740Y027618D01*
X027689Y027743D01*
X027593Y027839D01*
X027590Y027840D01*
X027590Y028700D01*
X027871Y028700D01*
X027953Y028782D01*
X027953Y029398D01*
X027871Y029480D01*
X027219Y029480D01*
X027215Y029477D01*
X027201Y029480D01*
X027087Y029480D01*
X027087Y029105D01*
X027058Y029105D01*
X027058Y029480D01*
X026944Y029480D01*
X026930Y029477D01*
X026926Y029480D01*
X026589Y029480D01*
X026585Y029477D01*
X026571Y029480D01*
X026457Y029480D01*
X026457Y029105D01*
X026428Y029105D01*
X026428Y029480D01*
X026388Y029480D01*
X026388Y029510D01*
X026468Y029510D01*
X026593Y029561D01*
X026689Y029657D01*
X026740Y029782D01*
X026740Y029918D01*
X026689Y030043D01*
X026593Y030139D01*
X026468Y030190D01*
X026332Y030190D01*
X026263Y030162D01*
X026244Y030160D01*
X026201Y030160D01*
X026193Y030157D01*
X026184Y030157D01*
X026145Y030137D01*
X026105Y030121D01*
X026099Y030115D01*
X026091Y030111D01*
X026062Y030078D01*
X025907Y029923D01*
X025867Y029827D01*
X025867Y029602D01*
X025729Y029740D01*
X025204Y029740D01*
X025190Y029754D01*
X025190Y030029D01*
X025079Y030140D01*
X024975Y030244D01*
X024975Y030368D01*
X024893Y030451D01*
X024282Y030451D01*
X024339Y030507D01*
X024390Y030632D01*
X024390Y030768D01*
X024339Y030893D01*
X024332Y030900D01*
X024458Y030900D01*
X024494Y030909D01*
X024526Y030928D01*
X024552Y030954D01*
X024571Y030986D01*
X024580Y031022D01*
X024580Y031440D01*
X024241Y031440D01*
X024241Y031520D01*
X024580Y031520D01*
X024580Y031938D01*
X024571Y031974D01*
X024552Y032006D01*
X024526Y032032D01*
X024494Y032051D01*
X024458Y032060D01*
X024240Y032060D01*
X024240Y031521D01*
X024160Y031521D01*
X024160Y032060D01*
X023942Y032060D01*
X023906Y032051D01*
X023874Y032032D01*
X023848Y032006D01*
X023829Y031974D01*
X023820Y031938D01*
X023820Y031520D01*
X024159Y031520D01*
X024159Y031440D01*
X023820Y031440D01*
X023820Y031022D01*
X023829Y030986D01*
X023838Y030970D01*
X023789Y030920D01*
X023609Y030920D01*
X023670Y030982D01*
X023670Y031978D01*
X023590Y032058D01*
X023590Y032520D01*
X023545Y032630D01*
X023460Y032715D01*
X023120Y033055D01*
X023010Y033100D01*
X022614Y033100D01*
X022518Y033140D01*
X022487Y033140D01*
X022528Y033188D01*
X023012Y033625D01*
X023086Y033679D01*
X023132Y033660D01*
X023268Y033660D01*
X023351Y033694D01*
X023351Y033469D01*
X023360Y033433D01*
X023379Y033401D01*
X023405Y033375D01*
X023437Y033356D01*
X022714Y033356D01*
X022626Y033277D02*
X025640Y033277D01*
X025640Y033356D02*
X024963Y033356D01*
X024995Y033375D01*
X025021Y033401D01*
X025040Y033433D01*
X025049Y033469D01*
X025049Y033880D01*
X024241Y033880D01*
X024241Y033961D01*
X025049Y033961D01*
X025049Y034372D01*
X025040Y034407D01*
X025021Y034439D01*
X024995Y034466D01*
X024963Y034484D01*
X024927Y034494D01*
X024240Y034494D01*
X024240Y033961D01*
X024160Y033961D01*
X024160Y034494D01*
X023473Y034494D01*
X023437Y034484D01*
X023405Y034466D01*
X023379Y034439D01*
X023360Y034407D01*
X023351Y034372D01*
X023351Y034306D01*
X023268Y034340D01*
X023132Y034340D01*
X023068Y034314D01*
X023216Y034437D01*
X024084Y034976D01*
X025019Y035390D01*
X025942Y035652D01*
X025942Y035328D01*
X026024Y035246D01*
X026273Y035246D01*
X026265Y035244D01*
X026233Y035225D01*
X026206Y035199D01*
X026188Y035167D01*
X026178Y035131D01*
X026178Y034947D01*
X026564Y034947D01*
X026564Y034866D01*
X026178Y034866D01*
X026178Y034681D01*
X026188Y034645D01*
X026206Y034613D01*
X026233Y034587D01*
X026265Y034569D01*
X026300Y034559D01*
X026564Y034559D01*
X026564Y034866D01*
X026645Y034866D01*
X026645Y034947D01*
X027030Y034947D01*
X027030Y035085D01*
X027970Y035085D01*
X027970Y034641D01*
X028052Y034559D01*
X028739Y034559D01*
X028822Y034641D01*
X028822Y034710D01*
X028879Y034710D01*
X028979Y034810D01*
X029028Y034810D01*
X029011Y034793D01*
X028960Y034668D01*
X028960Y034532D01*
X029011Y034407D01*
X029040Y034378D01*
X029040Y034041D01*
X028960Y034041D01*
X028960Y034510D01*
X028880Y034498D01*
X028804Y034473D01*
X028732Y034437D01*
X028667Y034389D01*
X028611Y034333D01*
X028563Y034268D01*
X028527Y034196D01*
X028502Y034121D01*
X028433Y034289D01*
X028289Y034433D01*
X028102Y034510D01*
X027898Y034510D01*
X027711Y034433D01*
X027567Y034289D01*
X027498Y034121D01*
X027473Y034196D01*
X027437Y034268D01*
X027389Y034333D01*
X027333Y034389D01*
X027268Y034437D01*
X027196Y034473D01*
X027120Y034498D01*
X027040Y034510D01*
X027040Y034041D01*
X026960Y034041D01*
X026960Y034510D01*
X026880Y034498D01*
X026804Y034473D01*
X026732Y034437D01*
X026667Y034389D01*
X026611Y034333D01*
X026563Y034268D01*
X026527Y034196D01*
X026510Y034145D01*
X026510Y034428D01*
X026428Y034510D01*
X025572Y034510D01*
X025490Y034428D01*
X025490Y033572D01*
X025572Y033490D01*
X025640Y033490D01*
X025640Y032066D01*
X025424Y032066D01*
X025413Y032070D01*
X025373Y032066D01*
X025332Y032066D01*
X025322Y032062D01*
X025310Y032061D01*
X025309Y032060D01*
X024812Y032060D01*
X024730Y031978D01*
X024730Y030982D01*
X024812Y030900D01*
X025408Y030900D01*
X025490Y030982D01*
X025490Y031274D01*
X025500Y031298D01*
X025500Y031402D01*
X025490Y031426D01*
X025490Y031528D01*
X025505Y031545D01*
X025690Y031545D01*
X025690Y030873D01*
X025729Y030777D01*
X026077Y030429D01*
X026173Y030390D01*
X026329Y030390D01*
X026357Y030361D01*
X026482Y030310D01*
X026618Y030310D01*
X026743Y030361D01*
X026839Y030457D01*
X026890Y030582D01*
X026890Y030718D01*
X026839Y030843D01*
X026743Y030939D01*
X026618Y030990D01*
X026482Y030990D01*
X026357Y030939D01*
X026331Y030912D01*
X026210Y031033D01*
X026210Y031545D01*
X026288Y031545D01*
X026287Y031544D01*
X026260Y031518D01*
X026242Y031486D01*
X026232Y031450D01*
X026232Y031322D01*
X026522Y031322D01*
X026522Y031266D01*
X026578Y031266D01*
X026578Y031016D01*
X026746Y031016D01*
X026781Y031025D01*
X026813Y031044D01*
X026840Y031070D01*
X026858Y031102D01*
X026868Y031138D01*
X026868Y031266D01*
X026578Y031266D01*
X026578Y031322D01*
X026868Y031322D01*
X026868Y031450D01*
X026858Y031486D01*
X026840Y031518D01*
X026813Y031544D01*
X026812Y031545D01*
X027067Y031545D01*
X027077Y031535D01*
X027823Y031535D01*
X027905Y031617D01*
X027905Y031651D01*
X028863Y031651D01*
X028973Y031696D01*
X029058Y031781D01*
X029109Y031832D01*
X029434Y031832D01*
X029516Y031914D01*
X029516Y032582D01*
X029434Y032664D01*
X029360Y032664D01*
X029360Y032842D01*
X029612Y033094D01*
X029519Y032869D01*
X029519Y032578D01*
X029630Y032309D01*
X029836Y032104D01*
X029914Y032071D01*
X029914Y031718D01*
X030274Y031718D01*
X030274Y031737D01*
X030260Y031810D01*
X030231Y031879D01*
X030190Y031941D01*
X030139Y031992D01*
X030395Y031992D01*
X030664Y032104D01*
X030870Y032309D01*
X030981Y032578D01*
X030981Y032869D01*
X030888Y033094D01*
X031740Y032242D01*
X031740Y032197D01*
X031696Y032153D01*
X031641Y032021D01*
X031641Y031981D01*
X031618Y031990D01*
X031482Y031990D01*
X031357Y031939D01*
X031261Y031843D01*
X031210Y031718D01*
X031210Y031582D01*
X031228Y031539D01*
X031107Y031489D01*
X031011Y031393D01*
X030983Y031324D01*
X030983Y031460D01*
X030925Y031599D01*
X030819Y031706D01*
X030680Y031764D01*
X030529Y031764D01*
X030390Y031706D01*
X030283Y031599D01*
X030226Y031460D01*
X030226Y031310D01*
X030283Y031170D01*
X030384Y031070D01*
X030283Y030970D01*
X030226Y030830D01*
X030226Y030680D01*
X030230Y030669D01*
X030207Y030665D01*
X030116Y030755D01*
X030217Y030856D01*
X030274Y030995D01*
X030274Y031145D01*
X030217Y031284D01*
X030112Y031389D01*
X030137Y031406D01*
X030190Y031459D01*
X030231Y031521D01*
X030260Y031589D01*
X030274Y031663D01*
X030274Y031681D01*
X029914Y031681D01*
X029914Y031718D01*
X029877Y031718D01*
X029877Y031681D01*
X029517Y031681D01*
X029517Y031663D01*
X029532Y031589D01*
X029560Y031521D01*
X029602Y031459D01*
X029654Y031406D01*
X029679Y031389D01*
X029575Y031284D01*
X029517Y031145D01*
X029517Y030995D01*
X029575Y030856D01*
X029591Y030839D01*
X029516Y030869D01*
X029516Y031086D01*
X029434Y031168D01*
X028766Y031168D01*
X028684Y031086D01*
X028684Y030561D01*
X028674Y030570D01*
X028511Y030570D01*
X028443Y030639D01*
X028318Y030690D01*
X028182Y030690D01*
X028057Y030639D01*
X027961Y030543D01*
X027910Y030418D01*
X027910Y030290D01*
X027832Y030290D01*
X027707Y030239D01*
X027619Y030150D01*
X027481Y030150D01*
X027393Y030239D01*
X027268Y030290D01*
X027132Y030290D01*
X027007Y030239D01*
X026911Y030143D01*
X026860Y030018D01*
X026860Y029882D01*
X026911Y029757D01*
X027007Y029661D01*
X027132Y029610D01*
X027268Y029610D01*
X027393Y029661D01*
X027481Y029750D01*
X027619Y029750D01*
X027707Y029661D01*
X027832Y029610D01*
X027968Y029610D01*
X028093Y029661D01*
X028189Y029757D01*
X028240Y029882D01*
X028240Y030010D01*
X028318Y030010D01*
X028443Y030061D01*
X028501Y030120D01*
X028552Y030069D01*
X028552Y029848D01*
X028634Y029765D01*
X029066Y029765D01*
X029148Y029848D01*
X029148Y030318D01*
X029131Y030336D01*
X029434Y030336D01*
X029438Y030340D01*
X029545Y030298D01*
X029575Y030226D01*
X029681Y030119D01*
X029820Y030061D01*
X029897Y030061D01*
X029836Y030036D01*
X029630Y029831D01*
X029519Y029562D01*
X029519Y029463D01*
X029512Y029488D01*
X029494Y029520D01*
X029468Y029546D01*
X029436Y029564D01*
X029400Y029574D01*
X029262Y029574D01*
X029262Y029295D01*
X029186Y029295D01*
X029186Y029574D01*
X029048Y029574D01*
X029012Y029564D01*
X028980Y029546D01*
X028954Y029520D01*
X028936Y029488D01*
X028926Y029452D01*
X028926Y029295D01*
X029186Y029295D01*
X029186Y029218D01*
X029262Y029218D01*
X029262Y028939D01*
X029400Y028939D01*
X029436Y028948D01*
X029468Y028967D01*
X029494Y028993D01*
X029512Y029025D01*
X029522Y029061D01*
X029522Y029218D01*
X029262Y029218D01*
X029262Y029295D01*
X029519Y029295D01*
X029519Y029271D01*
X029630Y029002D01*
X029826Y028807D01*
X029761Y028743D01*
X029710Y028618D01*
X029710Y028482D01*
X029761Y028357D01*
X029857Y028261D01*
X029982Y028210D01*
X030094Y028210D01*
X030430Y027849D01*
X030390Y027848D01*
X030314Y027848D01*
X030311Y027846D01*
X030147Y027840D01*
X030071Y027840D01*
X030069Y027838D01*
X030065Y027838D01*
X030013Y027783D01*
X029876Y027646D01*
X029876Y027740D01*
X029824Y027792D01*
X029839Y027807D01*
X029890Y027932D01*
X029890Y028068D01*
X029839Y028193D01*
X029743Y028289D01*
X029618Y028340D01*
X029482Y028340D01*
X029481Y028340D01*
X029243Y028581D01*
X029243Y028581D01*
X029187Y028637D01*
X029132Y028692D01*
X029132Y028692D01*
X029131Y028693D01*
X029103Y028693D01*
X029140Y028782D01*
X029140Y028918D01*
X029132Y028939D01*
X029186Y028939D01*
X029186Y029218D01*
X028926Y029218D01*
X028926Y029166D01*
X028868Y029190D01*
X028849Y029190D01*
X028774Y029254D01*
X028774Y029492D01*
X028692Y029574D01*
X028260Y029574D01*
X028178Y029492D01*
X028178Y029021D01*
X028260Y028939D01*
X028468Y028939D01*
X028460Y028918D01*
X028460Y028782D01*
X028472Y028753D01*
X027982Y028753D01*
X027900Y028671D01*
X027900Y026129D01*
X027982Y026047D01*
X028560Y026047D01*
X028560Y025779D01*
X028471Y025690D01*
X028121Y025690D01*
X028010Y025579D01*
X027953Y025522D01*
X027953Y026018D01*
X027871Y026100D01*
X026904Y026100D01*
X026900Y026097D01*
X026886Y026100D01*
X026772Y026100D01*
X026772Y025725D01*
X026743Y025725D01*
X026743Y026100D01*
X026629Y026100D01*
X026615Y026097D01*
X026611Y026100D01*
X026195Y026100D01*
X026207Y026122D02*
X027907Y026122D01*
X027900Y026201D02*
X026240Y026201D01*
X026253Y026281D02*
X027900Y026281D01*
X027900Y026360D02*
X026253Y026360D01*
X026223Y026440D02*
X027900Y026440D01*
X027900Y026519D02*
X026175Y026519D01*
X026113Y026599D02*
X027900Y026599D01*
X027900Y026678D02*
X026113Y026678D01*
X026113Y026758D02*
X027900Y026758D01*
X027900Y026837D02*
X026113Y026837D01*
X026113Y026917D02*
X027900Y026917D01*
X027900Y026996D02*
X026113Y026996D01*
X026113Y027076D02*
X027900Y027076D01*
X027900Y027155D02*
X026113Y027155D01*
X026113Y027235D02*
X027272Y027235D01*
X027154Y027314D02*
X026113Y027314D01*
X026113Y027394D02*
X027096Y027394D01*
X027063Y027473D02*
X026113Y027473D01*
X026113Y027553D02*
X027060Y027553D01*
X027065Y027632D02*
X026113Y027632D01*
X026113Y027712D02*
X027098Y027712D01*
X027160Y027791D02*
X026113Y027791D01*
X026113Y027871D02*
X027210Y027871D01*
X027210Y027950D02*
X026113Y027950D01*
X026113Y028030D02*
X027210Y028030D01*
X027210Y028109D02*
X026113Y028109D01*
X026113Y028189D02*
X027210Y028189D01*
X027210Y028268D02*
X026179Y028268D01*
X025907Y028563D02*
X025738Y028394D01*
X025643Y028489D01*
X025518Y028540D01*
X025382Y028540D01*
X025300Y028507D01*
X025300Y028671D01*
X025218Y028753D01*
X024602Y028753D01*
X024542Y028693D01*
X024519Y028693D01*
X024518Y028692D01*
X024517Y028692D01*
X024462Y028637D01*
X024407Y028581D01*
X024407Y028580D01*
X024220Y028390D01*
X024190Y028390D01*
X024189Y028393D01*
X024093Y028489D01*
X023968Y028540D01*
X023832Y028540D01*
X023707Y028489D01*
X023640Y028422D01*
X023640Y028579D01*
X022890Y029329D01*
X022779Y029440D01*
X021972Y029440D01*
X021972Y029568D01*
X021712Y029568D01*
X021712Y029645D01*
X021972Y029645D01*
X021972Y029802D01*
X021965Y029830D01*
X022741Y029830D01*
X023391Y030480D01*
X023406Y030480D01*
X023360Y030368D01*
X023360Y030232D01*
X023411Y030107D01*
X023413Y030106D01*
X023389Y030041D01*
X023382Y030037D01*
X023360Y029964D01*
X023333Y029893D01*
X023336Y029886D01*
X023287Y029722D01*
X023207Y029689D01*
X023111Y029593D01*
X023060Y029468D01*
X023060Y029332D01*
X023111Y029207D01*
X023207Y029111D01*
X023332Y029060D01*
X023468Y029060D01*
X023593Y029111D01*
X023689Y029207D01*
X023740Y029332D01*
X023740Y029468D01*
X023689Y029593D01*
X023672Y029609D01*
X023740Y029836D01*
X023790Y029969D01*
X023893Y030011D01*
X023989Y030107D01*
X024025Y030195D01*
X024025Y029976D01*
X024065Y029936D01*
X024053Y029924D01*
X024034Y029892D01*
X024025Y029856D01*
X024025Y029728D01*
X024472Y029728D01*
X024472Y029672D01*
X024025Y029672D01*
X024025Y029544D01*
X024034Y029508D01*
X024053Y029476D01*
X024065Y029464D01*
X024025Y029424D01*
X024025Y029032D01*
X024107Y028949D01*
X024893Y028949D01*
X024975Y029032D01*
X024975Y029037D01*
X025247Y029037D01*
X025247Y028782D01*
X025329Y028700D01*
X025907Y028700D01*
X025907Y028563D01*
X025907Y028586D02*
X025300Y028586D01*
X025300Y028666D02*
X025907Y028666D01*
X025851Y028507D02*
X025600Y028507D01*
X025704Y028427D02*
X025771Y028427D01*
X025284Y028745D02*
X025226Y028745D01*
X025247Y028825D02*
X023395Y028825D01*
X023315Y028904D02*
X025247Y028904D01*
X025247Y028984D02*
X024927Y028984D01*
X024594Y028745D02*
X023474Y028745D01*
X023554Y028666D02*
X024491Y028666D01*
X024412Y028586D02*
X023633Y028586D01*
X023640Y028507D02*
X023750Y028507D01*
X023646Y028427D02*
X023640Y028427D01*
X023260Y028421D02*
X022621Y029060D01*
X022213Y029060D01*
X022253Y029043D01*
X022433Y028863D01*
X022530Y028627D01*
X022530Y028373D01*
X022446Y028169D01*
X022472Y028180D01*
X022607Y028180D01*
X022732Y028128D01*
X022803Y028057D01*
X022812Y028062D01*
X022848Y028072D01*
X023005Y028072D01*
X023005Y027812D01*
X023082Y027812D01*
X023082Y028072D01*
X023239Y028072D01*
X023260Y028067D01*
X023260Y028421D01*
X023254Y028427D02*
X022530Y028427D01*
X022530Y028507D02*
X023174Y028507D01*
X023095Y028586D02*
X022530Y028586D01*
X022515Y028666D02*
X023015Y028666D01*
X022936Y028745D02*
X022482Y028745D01*
X022449Y028825D02*
X022856Y028825D01*
X022777Y028904D02*
X022392Y028904D01*
X022312Y028984D02*
X022697Y028984D01*
X022997Y029222D02*
X023105Y029222D01*
X023077Y029143D02*
X023176Y029143D01*
X023156Y029063D02*
X023324Y029063D01*
X023236Y028984D02*
X024073Y028984D01*
X024025Y029063D02*
X023476Y029063D01*
X023624Y029143D02*
X024025Y029143D01*
X024025Y029222D02*
X023695Y029222D01*
X023728Y029302D02*
X024025Y029302D01*
X024025Y029381D02*
X023740Y029381D01*
X023740Y029461D02*
X024062Y029461D01*
X024026Y029540D02*
X023711Y029540D01*
X023675Y029620D02*
X024025Y029620D01*
X024025Y029779D02*
X023723Y029779D01*
X023748Y029858D02*
X024025Y029858D01*
X024064Y029938D02*
X023778Y029938D01*
X023899Y030017D02*
X024025Y030017D01*
X024025Y030097D02*
X023978Y030097D01*
X024017Y030176D02*
X024025Y030176D01*
X024326Y030494D02*
X026013Y030494D01*
X025933Y030574D02*
X024366Y030574D01*
X024390Y030653D02*
X025854Y030653D01*
X025774Y030733D02*
X024390Y030733D01*
X024372Y030812D02*
X025715Y030812D01*
X025690Y030892D02*
X024339Y030892D01*
X024562Y030971D02*
X024740Y030971D01*
X024730Y031051D02*
X024580Y031051D01*
X024580Y031130D02*
X024730Y031130D01*
X024730Y031210D02*
X024580Y031210D01*
X024580Y031289D02*
X024730Y031289D01*
X024730Y031369D02*
X024580Y031369D01*
X024580Y031528D02*
X024730Y031528D01*
X024730Y031607D02*
X024580Y031607D01*
X024580Y031687D02*
X024730Y031687D01*
X024730Y031766D02*
X024580Y031766D01*
X024580Y031846D02*
X024730Y031846D01*
X024730Y031925D02*
X024580Y031925D01*
X024553Y032005D02*
X024756Y032005D01*
X024240Y032005D02*
X024160Y032005D01*
X024160Y031925D02*
X024240Y031925D01*
X024240Y031846D02*
X024160Y031846D01*
X024160Y031766D02*
X024240Y031766D01*
X024240Y031687D02*
X024160Y031687D01*
X024160Y031607D02*
X024240Y031607D01*
X024240Y031528D02*
X024160Y031528D01*
X024159Y031448D02*
X023670Y031448D01*
X023670Y031369D02*
X023820Y031369D01*
X023820Y031289D02*
X023670Y031289D01*
X023670Y031210D02*
X023820Y031210D01*
X023820Y031130D02*
X023670Y031130D01*
X023670Y031051D02*
X023820Y031051D01*
X023838Y030971D02*
X023660Y030971D01*
X023670Y031528D02*
X023820Y031528D01*
X023820Y031607D02*
X023670Y031607D01*
X023670Y031687D02*
X023820Y031687D01*
X023820Y031766D02*
X023670Y031766D01*
X023670Y031846D02*
X023820Y031846D01*
X023820Y031925D02*
X023670Y031925D01*
X023644Y032005D02*
X023847Y032005D01*
X023590Y032084D02*
X025640Y032084D01*
X025640Y032164D02*
X023590Y032164D01*
X023590Y032243D02*
X025640Y032243D01*
X025640Y032323D02*
X023590Y032323D01*
X023590Y032402D02*
X025640Y032402D01*
X025640Y032482D02*
X023590Y032482D01*
X023573Y032561D02*
X025640Y032561D01*
X025640Y032641D02*
X023534Y032641D01*
X023460Y032715D02*
X023460Y032715D01*
X023455Y032720D02*
X025640Y032720D01*
X025640Y032800D02*
X023375Y032800D01*
X023296Y032879D02*
X025640Y032879D01*
X025640Y032959D02*
X023216Y032959D01*
X023137Y033038D02*
X025640Y033038D01*
X025640Y033118D02*
X022573Y033118D01*
X022538Y033197D02*
X025640Y033197D01*
X025640Y033436D02*
X025040Y033436D01*
X025049Y033515D02*
X025546Y033515D01*
X025490Y033595D02*
X025049Y033595D01*
X025049Y033674D02*
X025490Y033674D01*
X025490Y033754D02*
X025049Y033754D01*
X025049Y033833D02*
X025490Y033833D01*
X025490Y033913D02*
X024241Y033913D01*
X024240Y033880D02*
X024240Y033347D01*
X024927Y033347D01*
X024963Y033356D01*
X024240Y033356D02*
X024160Y033356D01*
X024160Y033347D02*
X024160Y033880D01*
X024240Y033880D01*
X024240Y033833D02*
X024160Y033833D01*
X024160Y033754D02*
X024240Y033754D01*
X024240Y033674D02*
X024160Y033674D01*
X024160Y033595D02*
X024240Y033595D01*
X024240Y033515D02*
X024160Y033515D01*
X024160Y033436D02*
X024240Y033436D01*
X024160Y033347D02*
X023473Y033347D01*
X023437Y033356D01*
X023360Y033436D02*
X022802Y033436D01*
X022891Y033515D02*
X023351Y033515D01*
X023351Y033595D02*
X022979Y033595D01*
X023079Y033674D02*
X023097Y033674D01*
X023303Y033674D02*
X023351Y033674D01*
X022861Y034072D02*
X022778Y034072D01*
X022749Y033992D02*
X022683Y033992D01*
X022657Y033913D02*
X022588Y033913D01*
X022569Y033833D02*
X022492Y033833D01*
X022480Y033754D02*
X022405Y033754D01*
X022392Y033674D02*
X022334Y033674D01*
X022304Y033595D02*
X022262Y033595D01*
X022216Y033515D02*
X022190Y033515D01*
X022145Y033436D02*
X022118Y033436D01*
X022077Y033356D02*
X022046Y033356D01*
X022009Y033277D02*
X021974Y033277D01*
X021941Y033197D02*
X021902Y033197D01*
X021874Y033118D02*
X021830Y033118D01*
X021806Y033038D02*
X021758Y033038D01*
X021739Y032959D02*
X021701Y032959D01*
X021687Y032879D02*
X021647Y032879D01*
X021635Y032800D02*
X021593Y032800D01*
X021584Y032720D02*
X021540Y032720D01*
X021532Y032641D02*
X021486Y032641D01*
X021481Y032561D02*
X021432Y032561D01*
X021429Y032482D02*
X021378Y032482D01*
X021377Y032402D02*
X021324Y032402D01*
X021333Y032323D02*
X021270Y032323D01*
X021295Y032243D02*
X021216Y032243D01*
X021258Y032164D02*
X021165Y032164D01*
X021126Y032084D02*
X021206Y032084D01*
X021182Y032005D02*
X021087Y032005D01*
X021048Y031925D02*
X021157Y031925D01*
X021157Y031846D02*
X021009Y031846D01*
X020970Y031766D02*
X021178Y031766D01*
X021240Y031687D02*
X020931Y031687D01*
X020892Y031607D02*
X021272Y031607D01*
X021226Y031528D02*
X020853Y031528D01*
X020814Y031448D02*
X021180Y031448D01*
X021134Y031369D02*
X020775Y031369D01*
X020736Y031289D02*
X021109Y031289D01*
X021130Y031210D02*
X020705Y031210D01*
X020679Y031130D02*
X021255Y031130D01*
X021393Y031051D02*
X020653Y031051D01*
X020628Y030971D02*
X021531Y030971D01*
X021560Y030971D02*
X021712Y030971D01*
X021719Y030892D02*
X020602Y030892D01*
X020576Y030812D02*
X021710Y030812D01*
X021710Y030733D02*
X021534Y030733D01*
X021598Y030653D02*
X021742Y030653D01*
X021795Y030574D02*
X021598Y030574D01*
X021598Y030494D02*
X021899Y030494D01*
X022110Y030415D02*
X021630Y030415D01*
X021710Y030335D02*
X022129Y030335D01*
X021972Y029779D02*
X023304Y029779D01*
X023328Y029858D02*
X022770Y029858D01*
X022849Y029938D02*
X023350Y029938D01*
X023376Y030017D02*
X022929Y030017D01*
X023008Y030097D02*
X023410Y030097D01*
X023383Y030176D02*
X023088Y030176D01*
X023167Y030256D02*
X023360Y030256D01*
X023360Y030335D02*
X023247Y030335D01*
X023326Y030415D02*
X023379Y030415D01*
X023232Y029699D02*
X021972Y029699D01*
X021972Y029540D02*
X023089Y029540D01*
X023060Y029461D02*
X021972Y029461D01*
X021712Y029620D02*
X023138Y029620D01*
X023060Y029381D02*
X022838Y029381D01*
X022918Y029302D02*
X023072Y029302D01*
X023699Y029699D02*
X024472Y029699D01*
X025190Y029779D02*
X025867Y029779D01*
X025867Y029699D02*
X025770Y029699D01*
X025850Y029620D02*
X025867Y029620D01*
X025880Y029858D02*
X025190Y029858D01*
X025190Y029938D02*
X025922Y029938D01*
X026001Y030017D02*
X025190Y030017D01*
X025123Y030097D02*
X026078Y030097D01*
X026297Y030176D02*
X025043Y030176D01*
X024975Y030256D02*
X027048Y030256D01*
X026945Y030176D02*
X026503Y030176D01*
X026635Y030097D02*
X026892Y030097D01*
X026860Y030017D02*
X026699Y030017D01*
X026732Y029938D02*
X026860Y029938D01*
X026870Y029858D02*
X026740Y029858D01*
X026739Y029779D02*
X026902Y029779D01*
X026969Y029699D02*
X026706Y029699D01*
X026651Y029620D02*
X027108Y029620D01*
X027087Y029461D02*
X027058Y029461D01*
X027058Y029381D02*
X027087Y029381D01*
X027087Y029302D02*
X027058Y029302D01*
X027058Y029222D02*
X027087Y029222D01*
X027087Y029143D02*
X027058Y029143D01*
X027058Y029063D02*
X027087Y029063D01*
X027087Y028984D02*
X027058Y028984D01*
X027058Y028904D02*
X027087Y028904D01*
X027087Y028825D02*
X027058Y028825D01*
X027058Y028745D02*
X027087Y028745D01*
X026970Y028666D02*
X027210Y028666D01*
X027210Y028586D02*
X026970Y028586D01*
X026970Y028507D02*
X027210Y028507D01*
X027210Y028427D02*
X026970Y028427D01*
X026909Y028348D02*
X027210Y028348D01*
X027590Y028348D02*
X027900Y028348D01*
X027900Y028427D02*
X027590Y028427D01*
X027590Y028507D02*
X027900Y028507D01*
X027900Y028586D02*
X027590Y028586D01*
X027590Y028666D02*
X027900Y028666D01*
X027916Y028745D02*
X027974Y028745D01*
X027953Y028825D02*
X028460Y028825D01*
X028460Y028904D02*
X027953Y028904D01*
X027953Y028984D02*
X028215Y028984D01*
X028178Y029063D02*
X027953Y029063D01*
X027953Y029143D02*
X028178Y029143D01*
X028178Y029222D02*
X027953Y029222D01*
X027953Y029302D02*
X028178Y029302D01*
X028178Y029381D02*
X027953Y029381D01*
X027890Y029461D02*
X028178Y029461D01*
X028226Y029540D02*
X026542Y029540D01*
X026457Y029461D02*
X026428Y029461D01*
X026428Y029381D02*
X026457Y029381D01*
X026457Y029302D02*
X026428Y029302D01*
X026428Y029222D02*
X026457Y029222D01*
X026457Y029143D02*
X026428Y029143D01*
X027292Y029620D02*
X027808Y029620D01*
X027669Y029699D02*
X027431Y029699D01*
X027455Y030176D02*
X027645Y030176D01*
X027748Y030256D02*
X027352Y030256D01*
X027410Y030433D02*
X027117Y030433D01*
X027081Y030442D01*
X027049Y030461D01*
X027023Y030487D01*
X027004Y030519D01*
X026995Y030555D01*
X026995Y030808D01*
X027409Y030808D01*
X027409Y030889D01*
X026995Y030889D01*
X026995Y031143D01*
X027004Y031179D01*
X027023Y031211D01*
X027049Y031237D01*
X027081Y031255D01*
X027117Y031265D01*
X027410Y031265D01*
X027410Y030889D01*
X027490Y030889D01*
X027490Y031265D01*
X027783Y031265D01*
X027819Y031255D01*
X027851Y031237D01*
X027877Y031211D01*
X027896Y031179D01*
X027905Y031143D01*
X027905Y030889D01*
X027491Y030889D01*
X027491Y030808D01*
X027905Y030808D01*
X027905Y030555D01*
X027896Y030519D01*
X027877Y030487D01*
X027851Y030461D01*
X027819Y030442D01*
X027783Y030433D01*
X027490Y030433D01*
X027490Y030808D01*
X027410Y030808D01*
X027410Y030433D01*
X027410Y030494D02*
X027490Y030494D01*
X027490Y030574D02*
X027410Y030574D01*
X027410Y030653D02*
X027490Y030653D01*
X027490Y030733D02*
X027410Y030733D01*
X027409Y030812D02*
X026851Y030812D01*
X026884Y030733D02*
X026995Y030733D01*
X026995Y030653D02*
X026890Y030653D01*
X026887Y030574D02*
X026995Y030574D01*
X027019Y030494D02*
X026854Y030494D01*
X026796Y030415D02*
X027910Y030415D01*
X027910Y030335D02*
X026679Y030335D01*
X026421Y030335D02*
X024975Y030335D01*
X024929Y030415D02*
X026113Y030415D01*
X026272Y030971D02*
X026435Y030971D01*
X026354Y031016D02*
X026522Y031016D01*
X026522Y031266D01*
X026232Y031266D01*
X026232Y031138D01*
X026242Y031102D01*
X026260Y031070D01*
X026287Y031044D01*
X026319Y031025D01*
X026354Y031016D01*
X026280Y031051D02*
X026210Y031051D01*
X026210Y031130D02*
X026234Y031130D01*
X026232Y031210D02*
X026210Y031210D01*
X026210Y031289D02*
X026522Y031289D01*
X026578Y031289D02*
X029579Y031289D01*
X029544Y031210D02*
X027878Y031210D01*
X027905Y031130D02*
X028728Y031130D01*
X028684Y031051D02*
X027905Y031051D01*
X027905Y030971D02*
X028684Y030971D01*
X028684Y030892D02*
X027905Y030892D01*
X027905Y030733D02*
X028684Y030733D01*
X028684Y030812D02*
X027491Y030812D01*
X027490Y030892D02*
X027410Y030892D01*
X027410Y030971D02*
X027490Y030971D01*
X027490Y031051D02*
X027410Y031051D01*
X027410Y031130D02*
X027490Y031130D01*
X027490Y031210D02*
X027410Y031210D01*
X027022Y031210D02*
X026868Y031210D01*
X026866Y031130D02*
X026995Y031130D01*
X026995Y031051D02*
X026820Y031051D01*
X026790Y030892D02*
X026995Y030892D01*
X026995Y030971D02*
X026665Y030971D01*
X026578Y031051D02*
X026522Y031051D01*
X026522Y031130D02*
X026578Y031130D01*
X026578Y031210D02*
X026522Y031210D01*
X026232Y031369D02*
X026210Y031369D01*
X026210Y031448D02*
X026232Y031448D01*
X026210Y031528D02*
X026270Y031528D01*
X026297Y032066D02*
X026160Y032066D01*
X026160Y033490D01*
X026428Y033490D01*
X026510Y033572D01*
X026510Y033855D01*
X026527Y033804D01*
X026563Y033732D01*
X026611Y033667D01*
X026667Y033611D01*
X026732Y033563D01*
X026804Y033527D01*
X026880Y033502D01*
X026960Y033490D01*
X026960Y033959D01*
X027040Y033959D01*
X027040Y033490D01*
X027120Y033502D01*
X027196Y033527D01*
X027268Y033563D01*
X027333Y033611D01*
X027389Y033667D01*
X027437Y033732D01*
X027473Y033804D01*
X027498Y033879D01*
X027567Y033711D01*
X027711Y033567D01*
X027898Y033490D01*
X028102Y033490D01*
X028289Y033567D01*
X028433Y033711D01*
X028502Y033879D01*
X028527Y033804D01*
X028563Y033732D01*
X028611Y033667D01*
X028667Y033611D01*
X028732Y033563D01*
X028804Y033527D01*
X028880Y033502D01*
X028960Y033490D01*
X028960Y033959D01*
X029040Y033959D01*
X029040Y033490D01*
X029120Y033502D01*
X029196Y033527D01*
X029268Y033563D01*
X029333Y033611D01*
X029389Y033667D01*
X029437Y033732D01*
X029473Y033804D01*
X029498Y033880D01*
X029510Y033960D01*
X029041Y033960D01*
X029041Y034040D01*
X029510Y034040D01*
X029498Y034120D01*
X029473Y034196D01*
X029437Y034268D01*
X029425Y034283D01*
X029461Y034298D01*
X029499Y034283D01*
X029499Y034134D01*
X029582Y034052D01*
X030052Y034052D01*
X030135Y034134D01*
X030135Y034566D01*
X030052Y034648D01*
X029930Y034648D01*
X029989Y034707D01*
X030011Y034760D01*
X030132Y034710D01*
X030268Y034710D01*
X030283Y034716D01*
X030326Y034684D01*
X030326Y034508D01*
X030408Y034426D01*
X030879Y034426D01*
X030957Y034504D01*
X030963Y034504D01*
X031287Y034302D01*
X031390Y034223D01*
X031307Y034189D01*
X031211Y034093D01*
X031210Y034090D01*
X030961Y034090D01*
X030961Y034192D01*
X030879Y034274D01*
X030408Y034274D01*
X030326Y034192D01*
X030326Y033860D01*
X029698Y033860D01*
X029602Y033821D01*
X028952Y033171D01*
X028879Y033098D01*
X028840Y033002D01*
X028840Y032664D01*
X028766Y032664D01*
X028684Y032582D01*
X028684Y032257D01*
X028679Y032252D01*
X027905Y032252D01*
X027905Y032285D01*
X027823Y032367D01*
X027077Y032367D01*
X026995Y032285D01*
X026995Y032066D01*
X026803Y032066D01*
X026785Y032084D01*
X026315Y032084D01*
X026297Y032066D01*
X026315Y032084D02*
X026160Y032084D01*
X026160Y032164D02*
X026995Y032164D01*
X026995Y032243D02*
X026160Y032243D01*
X026160Y032323D02*
X027032Y032323D01*
X026995Y032084D02*
X026785Y032084D01*
X026830Y031528D02*
X029557Y031528D01*
X029528Y031607D02*
X027895Y031607D01*
X026868Y031448D02*
X029612Y031448D01*
X029659Y031369D02*
X026868Y031369D01*
X025690Y031369D02*
X025500Y031369D01*
X025490Y031448D02*
X025690Y031448D01*
X025690Y031528D02*
X025490Y031528D01*
X025497Y031289D02*
X025690Y031289D01*
X025690Y031210D02*
X025490Y031210D01*
X025490Y031130D02*
X025690Y031130D01*
X025690Y031051D02*
X025490Y031051D01*
X025480Y030971D02*
X025690Y030971D01*
X024730Y031448D02*
X024241Y031448D01*
X026160Y032402D02*
X028684Y032402D01*
X028684Y032323D02*
X027868Y032323D01*
X028684Y032482D02*
X026160Y032482D01*
X026160Y032561D02*
X028684Y032561D01*
X028743Y032641D02*
X026160Y032641D01*
X026160Y032720D02*
X028840Y032720D01*
X028840Y032800D02*
X026160Y032800D01*
X026160Y032879D02*
X028840Y032879D01*
X028840Y032959D02*
X026160Y032959D01*
X026160Y033038D02*
X028855Y033038D01*
X028899Y033118D02*
X026160Y033118D01*
X026160Y033197D02*
X028979Y033197D01*
X029058Y033277D02*
X026160Y033277D01*
X026160Y033356D02*
X029138Y033356D01*
X029217Y033436D02*
X026160Y033436D01*
X026454Y033515D02*
X026840Y033515D01*
X026960Y033515D02*
X027040Y033515D01*
X027040Y033595D02*
X026960Y033595D01*
X026960Y033674D02*
X027040Y033674D01*
X027040Y033754D02*
X026960Y033754D01*
X026960Y033833D02*
X027040Y033833D01*
X027040Y033913D02*
X026960Y033913D01*
X026960Y034072D02*
X027040Y034072D01*
X027040Y034151D02*
X026960Y034151D01*
X026960Y034231D02*
X027040Y034231D01*
X027040Y034310D02*
X026960Y034310D01*
X026960Y034390D02*
X027040Y034390D01*
X027040Y034469D02*
X026960Y034469D01*
X026944Y034569D02*
X026976Y034587D01*
X027002Y034613D01*
X027021Y034645D01*
X027030Y034681D01*
X027030Y034866D01*
X026645Y034866D01*
X026645Y034559D01*
X026908Y034559D01*
X026944Y034569D01*
X027011Y034628D02*
X027983Y034628D01*
X027970Y034708D02*
X027030Y034708D01*
X027030Y034787D02*
X027970Y034787D01*
X027970Y034867D02*
X026645Y034867D01*
X026645Y034946D02*
X027970Y034946D01*
X027970Y035026D02*
X027030Y035026D01*
X026645Y034787D02*
X026564Y034787D01*
X026564Y034708D02*
X026645Y034708D01*
X026645Y034628D02*
X026564Y034628D01*
X026470Y034469D02*
X026796Y034469D01*
X026668Y034390D02*
X026510Y034390D01*
X026510Y034310D02*
X026594Y034310D01*
X026545Y034231D02*
X026510Y034231D01*
X026510Y034151D02*
X026512Y034151D01*
X026510Y033833D02*
X026517Y033833D01*
X026510Y033754D02*
X026553Y033754D01*
X026510Y033674D02*
X026606Y033674D01*
X026689Y033595D02*
X026510Y033595D01*
X027160Y033515D02*
X027837Y033515D01*
X027683Y033595D02*
X027311Y033595D01*
X027394Y033674D02*
X027604Y033674D01*
X027550Y033754D02*
X027447Y033754D01*
X027483Y033833D02*
X027517Y033833D01*
X027510Y034151D02*
X027488Y034151D01*
X027455Y034231D02*
X027543Y034231D01*
X027588Y034310D02*
X027406Y034310D01*
X027332Y034390D02*
X027668Y034390D01*
X027798Y034469D02*
X027204Y034469D01*
X026564Y034867D02*
X023907Y034867D01*
X024035Y034946D02*
X026564Y034946D01*
X026178Y035026D02*
X024195Y035026D01*
X024375Y035105D02*
X026178Y035105D01*
X026198Y035185D02*
X024555Y035185D01*
X024735Y035264D02*
X026006Y035264D01*
X025942Y035344D02*
X024914Y035344D01*
X025136Y035423D02*
X025942Y035423D01*
X025942Y035503D02*
X025417Y035503D01*
X025697Y035582D02*
X025942Y035582D01*
X026178Y034787D02*
X023779Y034787D01*
X023651Y034708D02*
X026178Y034708D01*
X026198Y034628D02*
X023523Y034628D01*
X023395Y034549D02*
X028960Y034549D01*
X028960Y034628D02*
X028808Y034628D01*
X028822Y034708D02*
X028976Y034708D01*
X028956Y034787D02*
X029009Y034787D01*
X028986Y034469D02*
X028960Y034469D01*
X028960Y034390D02*
X029029Y034390D01*
X029040Y034310D02*
X028960Y034310D01*
X028960Y034231D02*
X029040Y034231D01*
X029040Y034151D02*
X028960Y034151D01*
X028960Y034072D02*
X029040Y034072D01*
X029041Y033992D02*
X030326Y033992D01*
X030326Y033913D02*
X029503Y033913D01*
X029483Y033833D02*
X029632Y033833D01*
X029535Y033754D02*
X029447Y033754D01*
X029456Y033674D02*
X029394Y033674D01*
X029376Y033595D02*
X029311Y033595D01*
X029297Y033515D02*
X029160Y033515D01*
X029040Y033515D02*
X028960Y033515D01*
X028960Y033595D02*
X029040Y033595D01*
X029040Y033674D02*
X028960Y033674D01*
X028960Y033754D02*
X029040Y033754D01*
X029040Y033833D02*
X028960Y033833D01*
X028960Y033913D02*
X029040Y033913D01*
X028840Y033515D02*
X028163Y033515D01*
X028317Y033595D02*
X028689Y033595D01*
X028606Y033674D02*
X028396Y033674D01*
X028450Y033754D02*
X028553Y033754D01*
X028517Y033833D02*
X028483Y033833D01*
X028490Y034151D02*
X028512Y034151D01*
X028545Y034231D02*
X028457Y034231D01*
X028412Y034310D02*
X028594Y034310D01*
X028668Y034390D02*
X028332Y034390D01*
X028202Y034469D02*
X028796Y034469D01*
X029455Y034231D02*
X029499Y034231D01*
X029488Y034151D02*
X029499Y034151D01*
X029506Y034072D02*
X029562Y034072D01*
X030072Y034072D02*
X030326Y034072D01*
X030326Y034151D02*
X030135Y034151D01*
X030135Y034231D02*
X030365Y034231D01*
X030365Y034469D02*
X030135Y034469D01*
X030135Y034390D02*
X031146Y034390D01*
X031019Y034469D02*
X030922Y034469D01*
X030922Y034231D02*
X031380Y034231D01*
X031274Y034310D02*
X030135Y034310D01*
X030135Y034549D02*
X030326Y034549D01*
X030326Y034628D02*
X030072Y034628D01*
X029989Y034708D02*
X030294Y034708D01*
X030961Y034151D02*
X031270Y034151D01*
X030944Y033038D02*
X030911Y033038D01*
X030944Y032959D02*
X031023Y032959D01*
X030977Y032879D02*
X031103Y032879D01*
X031182Y032800D02*
X030981Y032800D01*
X030981Y032720D02*
X031262Y032720D01*
X031341Y032641D02*
X030981Y032641D01*
X030974Y032561D02*
X031421Y032561D01*
X031500Y032482D02*
X030941Y032482D01*
X030908Y032402D02*
X031580Y032402D01*
X031659Y032323D02*
X030875Y032323D01*
X030803Y032243D02*
X031739Y032243D01*
X031706Y032164D02*
X030724Y032164D01*
X030617Y032084D02*
X031667Y032084D01*
X031641Y032005D02*
X030425Y032005D01*
X030201Y031925D02*
X031344Y031925D01*
X031264Y031846D02*
X030245Y031846D01*
X030269Y031766D02*
X031230Y031766D01*
X031210Y031687D02*
X030838Y031687D01*
X030918Y031607D02*
X031210Y031607D01*
X031201Y031528D02*
X030955Y031528D01*
X030983Y031448D02*
X031067Y031448D01*
X031001Y031369D02*
X030983Y031369D01*
X030960Y031210D02*
X030941Y031210D01*
X030960Y031130D02*
X030885Y031130D01*
X030844Y031051D02*
X030993Y031051D01*
X031047Y030971D02*
X030924Y030971D01*
X030958Y030892D02*
X031155Y030892D01*
X030983Y030812D02*
X031419Y030812D01*
X031498Y030733D02*
X030983Y030733D01*
X030972Y030653D02*
X031578Y030653D01*
X031657Y030574D02*
X030939Y030574D01*
X030879Y030494D02*
X031737Y030494D01*
X031816Y030415D02*
X030772Y030415D01*
X030772Y030335D02*
X033250Y030335D01*
X033313Y030256D02*
X030893Y030256D01*
X031013Y030176D02*
X031107Y030176D01*
X030226Y030733D02*
X030139Y030733D01*
X030173Y030812D02*
X030226Y030812D01*
X030232Y030892D02*
X030251Y030892D01*
X030264Y030971D02*
X030285Y030971D01*
X030274Y031051D02*
X030364Y031051D01*
X030324Y031130D02*
X030274Y031130D01*
X030267Y031210D02*
X030248Y031210D01*
X030234Y031289D02*
X030212Y031289D01*
X030226Y031369D02*
X030133Y031369D01*
X030179Y031448D02*
X030226Y031448D01*
X030234Y031528D02*
X030254Y031528D01*
X030263Y031607D02*
X030291Y031607D01*
X030371Y031687D02*
X029914Y031687D01*
X029877Y031687D02*
X028950Y031687D01*
X029043Y031766D02*
X029523Y031766D01*
X029517Y031737D02*
X029517Y031718D01*
X029877Y031718D01*
X029877Y032079D01*
X029858Y032079D01*
X029785Y032064D01*
X029716Y032035D01*
X029654Y031994D01*
X029602Y031941D01*
X029560Y031879D01*
X029532Y031810D01*
X029517Y031737D01*
X029546Y031846D02*
X029447Y031846D01*
X029516Y031925D02*
X029591Y031925D01*
X029516Y032005D02*
X029670Y032005D01*
X029516Y032084D02*
X029883Y032084D01*
X029877Y032005D02*
X029914Y032005D01*
X029914Y031925D02*
X029877Y031925D01*
X029877Y031846D02*
X029914Y031846D01*
X029914Y031766D02*
X029877Y031766D01*
X029776Y032164D02*
X029516Y032164D01*
X029516Y032243D02*
X029697Y032243D01*
X029625Y032323D02*
X029516Y032323D01*
X029516Y032402D02*
X029592Y032402D01*
X029559Y032482D02*
X029516Y032482D01*
X029516Y032561D02*
X029526Y032561D01*
X029519Y032641D02*
X029457Y032641D01*
X029519Y032720D02*
X029360Y032720D01*
X029360Y032800D02*
X029519Y032800D01*
X029523Y032879D02*
X029397Y032879D01*
X029477Y032959D02*
X029556Y032959D01*
X029556Y033038D02*
X029589Y033038D01*
X029517Y031130D02*
X029472Y031130D01*
X029516Y031051D02*
X029517Y031051D01*
X029516Y030971D02*
X029527Y030971D01*
X029516Y030892D02*
X029560Y030892D01*
X029450Y030335D02*
X029131Y030335D01*
X029148Y030256D02*
X029562Y030256D01*
X029624Y030176D02*
X029148Y030176D01*
X029148Y030097D02*
X029736Y030097D01*
X029817Y030017D02*
X029148Y030017D01*
X029148Y029938D02*
X029737Y029938D01*
X029658Y029858D02*
X029148Y029858D01*
X029079Y029779D02*
X029609Y029779D01*
X029576Y029699D02*
X028131Y029699D01*
X028198Y029779D02*
X028621Y029779D01*
X028552Y029858D02*
X028230Y029858D01*
X028240Y029938D02*
X028552Y029938D01*
X028552Y030017D02*
X028336Y030017D01*
X028478Y030097D02*
X028525Y030097D01*
X028508Y030574D02*
X028684Y030574D01*
X028684Y030653D02*
X028408Y030653D01*
X028092Y030653D02*
X027905Y030653D01*
X027905Y030574D02*
X027992Y030574D01*
X027941Y030494D02*
X027881Y030494D01*
X027992Y029620D02*
X029543Y029620D01*
X029519Y029540D02*
X029474Y029540D01*
X029262Y029540D02*
X029186Y029540D01*
X029186Y029461D02*
X029262Y029461D01*
X029262Y029381D02*
X029186Y029381D01*
X029186Y029302D02*
X029262Y029302D01*
X029262Y029222D02*
X029539Y029222D01*
X029522Y029143D02*
X029572Y029143D01*
X029605Y029063D02*
X029522Y029063D01*
X029485Y028984D02*
X029649Y028984D01*
X029729Y028904D02*
X029140Y028904D01*
X029140Y028825D02*
X029808Y028825D01*
X029764Y028745D02*
X029125Y028745D01*
X029159Y028666D02*
X029729Y028666D01*
X029710Y028586D02*
X029238Y028586D01*
X029316Y028507D02*
X029710Y028507D01*
X029732Y028427D02*
X029395Y028427D01*
X029474Y028348D02*
X029771Y028348D01*
X029763Y028268D02*
X029850Y028268D01*
X029840Y028189D02*
X030113Y028189D01*
X030187Y028109D02*
X029873Y028109D01*
X029890Y028030D02*
X030261Y028030D01*
X030336Y027950D02*
X029890Y027950D01*
X029865Y027871D02*
X030410Y027871D01*
X030021Y027791D02*
X029825Y027791D01*
X029876Y027712D02*
X029942Y027712D01*
X030148Y026860D02*
X030268Y026860D01*
X030360Y026898D01*
X030360Y024779D01*
X029876Y024296D01*
X029876Y024413D01*
X029875Y024415D01*
X029876Y024416D01*
X029876Y024669D01*
X029875Y024670D01*
X029876Y024672D01*
X029876Y024925D01*
X029875Y024926D01*
X029876Y024928D01*
X029876Y025181D01*
X029875Y025182D01*
X029876Y025184D01*
X029876Y025437D01*
X029875Y025438D01*
X029876Y025439D01*
X029876Y025693D01*
X029875Y025694D01*
X029876Y025695D01*
X029876Y025949D01*
X029867Y025958D01*
X029876Y025991D01*
X029876Y026078D01*
X029876Y026165D01*
X029867Y026198D01*
X029876Y026207D01*
X029876Y026461D01*
X029875Y026462D01*
X029876Y026463D01*
X029876Y026645D01*
X029937Y026645D01*
X029938Y026646D01*
X029940Y026646D01*
X029997Y026705D01*
X030055Y026763D01*
X030055Y026764D01*
X030148Y026860D01*
X030126Y026837D02*
X030360Y026837D01*
X030360Y026758D02*
X030050Y026758D01*
X029971Y026678D02*
X030360Y026678D01*
X030360Y026599D02*
X029876Y026599D01*
X029876Y026519D02*
X030360Y026519D01*
X030360Y026440D02*
X029876Y026440D01*
X029876Y026360D02*
X030360Y026360D01*
X030360Y026281D02*
X029876Y026281D01*
X029870Y026201D02*
X030360Y026201D01*
X030360Y026122D02*
X029876Y026122D01*
X029876Y026078D02*
X029461Y026078D01*
X029461Y026078D01*
X029876Y026078D01*
X029876Y026042D02*
X030360Y026042D01*
X030360Y025963D02*
X029869Y025963D01*
X029876Y025883D02*
X030360Y025883D01*
X030360Y025804D02*
X029876Y025804D01*
X029876Y025724D02*
X030360Y025724D01*
X030360Y025645D02*
X029876Y025645D01*
X029876Y025565D02*
X030360Y025565D01*
X030360Y025486D02*
X029876Y025486D01*
X029876Y025406D02*
X030360Y025406D01*
X030360Y025327D02*
X029876Y025327D01*
X029876Y025247D02*
X030360Y025247D01*
X030360Y025168D02*
X029876Y025168D01*
X029876Y025088D02*
X030360Y025088D01*
X030360Y025009D02*
X029876Y025009D01*
X029876Y024929D02*
X030360Y024929D01*
X030360Y024850D02*
X029876Y024850D01*
X029876Y024770D02*
X030351Y024770D01*
X030271Y024691D02*
X029876Y024691D01*
X029876Y024611D02*
X030192Y024611D01*
X030112Y024532D02*
X029876Y024532D01*
X029876Y024452D02*
X030033Y024452D01*
X029953Y024373D02*
X029876Y024373D01*
X030174Y024055D02*
X032403Y024055D01*
X032424Y024078D02*
X032310Y023950D01*
X032017Y023950D01*
X031900Y023833D01*
X031509Y023442D01*
X031509Y023571D01*
X031454Y023703D01*
X031353Y023804D01*
X031221Y023859D01*
X031079Y023859D01*
X030947Y023804D01*
X030846Y023703D01*
X030791Y023571D01*
X030791Y023510D01*
X030630Y023348D01*
X030498Y023348D01*
X030415Y023266D01*
X030415Y022834D01*
X030498Y022752D01*
X030818Y022752D01*
X030567Y022500D01*
X030224Y022500D01*
X030224Y022638D01*
X029945Y022638D01*
X029945Y022714D01*
X030224Y022714D01*
X030224Y022852D01*
X030214Y022888D01*
X030196Y022920D01*
X030170Y022946D01*
X030138Y022964D01*
X030102Y022974D01*
X029945Y022974D01*
X029945Y022714D01*
X029868Y022714D01*
X029868Y022638D01*
X029589Y022638D01*
X029589Y022500D01*
X029427Y022500D01*
X029456Y022518D01*
X029482Y022544D01*
X029501Y022576D01*
X029510Y022612D01*
X029510Y022960D01*
X029041Y022960D01*
X029041Y023040D01*
X029510Y023040D01*
X029510Y023388D01*
X029501Y023424D01*
X029482Y023456D01*
X029479Y023460D01*
X029589Y023460D01*
X029589Y023208D01*
X029671Y023126D01*
X030142Y023126D01*
X030224Y023208D01*
X030224Y023640D01*
X030142Y023722D01*
X029878Y023722D01*
X029860Y023740D01*
X030668Y024549D01*
X031130Y024086D01*
X031296Y024086D01*
X031998Y024086D01*
X032006Y024078D01*
X032424Y024078D01*
X032332Y023975D02*
X030094Y023975D01*
X030015Y023896D02*
X031962Y023896D01*
X031882Y023816D02*
X031324Y023816D01*
X031421Y023737D02*
X031803Y023737D01*
X031723Y023657D02*
X031473Y023657D01*
X031506Y023578D02*
X031644Y023578D01*
X031564Y023498D02*
X031509Y023498D01*
X031814Y023180D02*
X032504Y023180D01*
X032586Y023260D02*
X031893Y023260D01*
X031973Y023339D02*
X032668Y023339D01*
X032750Y023419D02*
X032052Y023419D01*
X032132Y023498D02*
X032832Y023498D01*
X032915Y023578D02*
X032515Y023578D01*
X032591Y023657D02*
X032985Y023657D01*
X033047Y023737D02*
X032657Y023737D01*
X032728Y023816D02*
X033109Y023816D01*
X033171Y023896D02*
X032799Y023896D01*
X032870Y023975D02*
X033233Y023975D01*
X033295Y024055D02*
X032941Y024055D01*
X033012Y024134D02*
X033357Y024134D01*
X033419Y024214D02*
X033083Y024214D01*
X033154Y024293D02*
X033481Y024293D01*
X033543Y024373D02*
X033225Y024373D01*
X033296Y024452D02*
X033597Y024452D01*
X033643Y024532D02*
X033367Y024532D01*
X033438Y024611D02*
X033689Y024611D01*
X033735Y024691D02*
X033509Y024691D01*
X033580Y024770D02*
X033781Y024770D01*
X033826Y024850D02*
X033651Y024850D01*
X033721Y024929D02*
X033872Y024929D01*
X033918Y025009D02*
X033792Y025009D01*
X033854Y025088D02*
X033964Y025088D01*
X034010Y025168D02*
X033850Y025168D01*
X033850Y025247D02*
X034055Y025247D01*
X034097Y025327D02*
X033858Y025327D01*
X033938Y025406D02*
X034129Y025406D01*
X034161Y025486D02*
X033971Y025486D01*
X033990Y025565D02*
X034193Y025565D01*
X034225Y025645D02*
X033990Y025645D01*
X033967Y025724D02*
X034257Y025724D01*
X034289Y025804D02*
X033928Y025804D01*
X033849Y025883D02*
X034321Y025883D01*
X034417Y026122D02*
X033976Y026122D01*
X034021Y026201D02*
X034449Y026201D01*
X034476Y026281D02*
X034034Y026281D01*
X034034Y026360D02*
X034496Y026360D01*
X034516Y026440D02*
X034043Y026440D01*
X034114Y026519D02*
X034536Y026519D01*
X034555Y026599D02*
X034186Y026599D01*
X034257Y026678D02*
X034575Y026678D01*
X034595Y026758D02*
X034329Y026758D01*
X034405Y026837D02*
X034614Y026837D01*
X034634Y026917D02*
X034557Y026917D01*
X034617Y026996D02*
X034654Y026996D01*
X034674Y027076D02*
X034617Y027076D01*
X034617Y027155D02*
X034693Y027155D01*
X034713Y027235D02*
X034617Y027235D01*
X034617Y027314D02*
X034722Y027314D01*
X034731Y027394D02*
X034617Y027394D01*
X034617Y027473D02*
X034739Y027473D01*
X034747Y027553D02*
X034617Y027553D01*
X034617Y027632D02*
X034755Y027632D01*
X034764Y027712D02*
X034617Y027712D01*
X034549Y027791D02*
X034772Y027791D01*
X034780Y027871D02*
X034370Y027871D01*
X034370Y027950D02*
X034788Y027950D01*
X034797Y028030D02*
X034370Y028030D01*
X034370Y028109D02*
X034805Y028109D01*
X034813Y028189D02*
X034370Y028189D01*
X034370Y028268D02*
X034820Y028268D01*
X034817Y028348D02*
X034370Y028348D01*
X034370Y028427D02*
X034814Y028427D01*
X034811Y028507D02*
X034370Y028507D01*
X034370Y028586D02*
X034808Y028586D01*
X034806Y028666D02*
X034370Y028666D01*
X034370Y028745D02*
X034803Y028745D01*
X034800Y028825D02*
X034372Y028825D01*
X034370Y028904D02*
X034797Y028904D01*
X034794Y028984D02*
X034370Y028984D01*
X034299Y029063D02*
X034791Y029063D01*
X034788Y029143D02*
X034215Y029143D01*
X034132Y029222D02*
X034785Y029222D01*
X034779Y029302D02*
X034049Y029302D01*
X033965Y029381D02*
X034765Y029381D01*
X034751Y029461D02*
X033882Y029461D01*
X033799Y029540D02*
X034737Y029540D01*
X034723Y029620D02*
X033716Y029620D01*
X033632Y029699D02*
X034709Y029699D01*
X034694Y029779D02*
X033549Y029779D01*
X033466Y029858D02*
X034680Y029858D01*
X034666Y029938D02*
X033383Y029938D01*
X033299Y030017D02*
X034652Y030017D01*
X034638Y030097D02*
X033216Y030097D01*
X033136Y030176D02*
X033442Y030176D01*
X033658Y030176D02*
X034624Y030176D01*
X034610Y030256D02*
X033787Y030256D01*
X033850Y030335D02*
X034588Y030335D01*
X034562Y030415D02*
X033883Y030415D01*
X033890Y030494D02*
X034536Y030494D01*
X034510Y030574D02*
X033888Y030574D01*
X034073Y030653D02*
X034484Y030653D01*
X034458Y030733D02*
X034164Y030733D01*
X034211Y030812D02*
X034432Y030812D01*
X034406Y030892D02*
X034240Y030892D01*
X034240Y030971D02*
X034380Y030971D01*
X034354Y031051D02*
X034227Y031051D01*
X034194Y031130D02*
X034328Y031130D01*
X034302Y031210D02*
X034122Y031210D01*
X034272Y031289D02*
X033971Y031289D01*
X033945Y031369D02*
X034233Y031369D01*
X034194Y031448D02*
X033899Y031448D01*
X033853Y031528D02*
X034155Y031528D01*
X034116Y031607D02*
X033807Y031607D01*
X033761Y031687D02*
X034077Y031687D01*
X034038Y031766D02*
X033656Y031766D01*
X033594Y031766D02*
X033465Y031766D01*
X033419Y031846D02*
X033999Y031846D01*
X033960Y031925D02*
X033520Y031925D01*
X033653Y032005D02*
X033921Y032005D01*
X033882Y032084D02*
X033748Y032084D01*
X033769Y032164D02*
X033843Y032164D01*
X033792Y032243D02*
X033781Y032243D01*
X033738Y032323D02*
X033734Y032323D01*
X032956Y029735D02*
X032243Y029735D01*
X032208Y029700D01*
X032268Y029640D01*
X032268Y029248D01*
X032214Y029195D01*
X032248Y029161D01*
X032248Y028730D01*
X032168Y028650D01*
X032248Y028570D01*
X032248Y028139D01*
X032166Y028057D01*
X032090Y028057D01*
X032090Y027822D01*
X032673Y027822D01*
X032727Y027768D01*
X032737Y027777D01*
X032769Y027796D01*
X032805Y027805D01*
X033058Y027805D01*
X033058Y027391D01*
X033139Y027391D01*
X033139Y027805D01*
X033393Y027805D01*
X033429Y027796D01*
X033461Y027777D01*
X033487Y027751D01*
X033505Y027719D01*
X033515Y027683D01*
X033515Y027390D01*
X033139Y027390D01*
X033139Y027310D01*
X033515Y027310D01*
X033515Y027017D01*
X033505Y026981D01*
X033487Y026949D01*
X033461Y026923D01*
X033429Y026904D01*
X033393Y026895D01*
X033139Y026895D01*
X033139Y027309D01*
X033058Y027309D01*
X033058Y026895D01*
X032805Y026895D01*
X032769Y026904D01*
X032755Y026912D01*
X032755Y026846D01*
X032339Y026846D01*
X032339Y027055D01*
X032339Y027102D01*
X032339Y027102D01*
X032339Y026846D01*
X032339Y026846D01*
X032339Y026846D01*
X032755Y026846D01*
X032755Y026759D01*
X032746Y026725D01*
X032755Y026716D01*
X032755Y026463D01*
X032754Y026462D01*
X032755Y026461D01*
X032755Y026207D01*
X032754Y026206D01*
X032755Y026205D01*
X032755Y025951D01*
X032746Y025942D01*
X032755Y025909D01*
X032755Y025822D01*
X032339Y025822D01*
X031924Y025822D01*
X031924Y025750D01*
X031783Y025750D01*
X031550Y025983D01*
X031550Y026180D01*
X031621Y026110D01*
X031871Y025860D01*
X031924Y025860D01*
X031924Y025822D01*
X032339Y025822D01*
X032339Y025822D01*
X032339Y025822D01*
X032755Y025822D01*
X032755Y025787D01*
X032888Y025787D01*
X033315Y026132D01*
X033272Y026132D01*
X033272Y026422D01*
X033216Y026422D01*
X032966Y026422D01*
X032966Y026254D01*
X032975Y026219D01*
X032994Y026187D01*
X033020Y026160D01*
X033052Y026142D01*
X033088Y026132D01*
X033216Y026132D01*
X033216Y026422D01*
X033216Y026478D01*
X032966Y026478D01*
X032966Y026646D01*
X032975Y026681D01*
X032994Y026713D01*
X033020Y026740D01*
X033052Y026758D01*
X033088Y026768D01*
X033216Y026768D01*
X033216Y026478D01*
X033272Y026478D01*
X033272Y026768D01*
X033400Y026768D01*
X033436Y026758D01*
X033468Y026740D01*
X033494Y026713D01*
X033498Y026706D01*
X033560Y026768D01*
X033745Y026768D01*
X033863Y026899D01*
X033785Y026977D01*
X033785Y027723D01*
X033867Y027805D01*
X033930Y027805D01*
X033930Y028806D01*
X032956Y029735D01*
X032994Y029699D02*
X032209Y029699D01*
X032268Y029620D02*
X033077Y029620D01*
X033160Y029540D02*
X032268Y029540D01*
X032268Y029461D02*
X033244Y029461D01*
X033327Y029381D02*
X032268Y029381D01*
X032268Y029302D02*
X033410Y029302D01*
X033493Y029222D02*
X032242Y029222D01*
X032248Y029143D02*
X033577Y029143D01*
X033660Y029063D02*
X033424Y029063D01*
X033473Y029043D02*
X033237Y029140D01*
X032983Y029140D01*
X032747Y029043D01*
X032567Y028863D01*
X032470Y028627D01*
X032470Y028373D01*
X032567Y028137D01*
X032747Y027957D01*
X032983Y027860D01*
X033237Y027860D01*
X033473Y027957D01*
X033653Y028137D01*
X033750Y028373D01*
X033750Y028627D01*
X033653Y028863D01*
X033473Y029043D01*
X033532Y028984D02*
X033743Y028984D01*
X033826Y028904D02*
X033612Y028904D01*
X033669Y028825D02*
X033910Y028825D01*
X033930Y028745D02*
X033702Y028745D01*
X033735Y028666D02*
X033930Y028666D01*
X033930Y028586D02*
X033750Y028586D01*
X033750Y028507D02*
X033930Y028507D01*
X033930Y028427D02*
X033750Y028427D01*
X033740Y028348D02*
X033930Y028348D01*
X033930Y028268D02*
X033707Y028268D01*
X033674Y028189D02*
X033930Y028189D01*
X033930Y028109D02*
X033625Y028109D01*
X033545Y028030D02*
X033930Y028030D01*
X033930Y027950D02*
X033456Y027950D01*
X033437Y027791D02*
X033853Y027791D01*
X033785Y027712D02*
X033507Y027712D01*
X033515Y027632D02*
X033785Y027632D01*
X033785Y027553D02*
X033515Y027553D01*
X033515Y027473D02*
X033785Y027473D01*
X033785Y027394D02*
X033515Y027394D01*
X033515Y027235D02*
X033785Y027235D01*
X033785Y027314D02*
X033139Y027314D01*
X033139Y027235D02*
X033058Y027235D01*
X033058Y027155D02*
X033139Y027155D01*
X033139Y027076D02*
X033058Y027076D01*
X033058Y026996D02*
X033139Y026996D01*
X033139Y026917D02*
X033058Y026917D01*
X033051Y026758D02*
X032755Y026758D01*
X032755Y026837D02*
X033807Y026837D01*
X033845Y026917D02*
X033450Y026917D01*
X033509Y026996D02*
X033785Y026996D01*
X033785Y027076D02*
X033515Y027076D01*
X033515Y027155D02*
X033785Y027155D01*
X033550Y026758D02*
X033437Y026758D01*
X033272Y026758D02*
X033216Y026758D01*
X033216Y026678D02*
X033272Y026678D01*
X033272Y026599D02*
X033216Y026599D01*
X033216Y026519D02*
X033272Y026519D01*
X033216Y026440D02*
X032755Y026440D01*
X032755Y026519D02*
X032966Y026519D01*
X032966Y026599D02*
X032755Y026599D01*
X032755Y026678D02*
X032974Y026678D01*
X032966Y026360D02*
X032755Y026360D01*
X032755Y026281D02*
X032966Y026281D01*
X032986Y026201D02*
X032755Y026201D01*
X032755Y026122D02*
X033301Y026122D01*
X033272Y026201D02*
X033216Y026201D01*
X033216Y026281D02*
X033272Y026281D01*
X033272Y026360D02*
X033216Y026360D01*
X033203Y026042D02*
X032755Y026042D01*
X032755Y025963D02*
X033105Y025963D01*
X033007Y025883D02*
X032755Y025883D01*
X032755Y025804D02*
X032909Y025804D01*
X033217Y025486D02*
X033329Y025486D01*
X033310Y025532D02*
X033310Y025561D01*
X033114Y025402D01*
X033057Y025346D01*
X033044Y025346D01*
X033034Y025337D01*
X032955Y025346D01*
X032755Y025346D01*
X032755Y025184D01*
X032746Y025175D01*
X032755Y025141D01*
X032755Y025054D01*
X032339Y025054D01*
X031924Y025054D01*
X031924Y024967D01*
X031933Y024934D01*
X031924Y024925D01*
X031924Y024743D01*
X031591Y024743D01*
X031200Y025133D01*
X031200Y025766D01*
X031267Y025700D01*
X031500Y025467D01*
X031617Y025350D01*
X031924Y025350D01*
X031924Y025184D01*
X031933Y025175D01*
X031924Y025141D01*
X031924Y025054D01*
X032339Y025054D01*
X032339Y025054D01*
X032339Y025054D01*
X032755Y025054D01*
X032755Y024967D01*
X032746Y024934D01*
X032755Y024925D01*
X032755Y024672D01*
X032754Y024670D01*
X032755Y024669D01*
X032755Y024448D01*
X033450Y025226D01*
X033450Y025319D01*
X033361Y025407D01*
X033310Y025532D01*
X033362Y025406D02*
X033119Y025406D01*
X033442Y025327D02*
X032755Y025327D01*
X032755Y025247D02*
X033450Y025247D01*
X033397Y025168D02*
X032748Y025168D01*
X032755Y025088D02*
X033326Y025088D01*
X033255Y025009D02*
X032755Y025009D01*
X032751Y024929D02*
X033184Y024929D01*
X033113Y024850D02*
X032755Y024850D01*
X032755Y024770D02*
X033042Y024770D01*
X032971Y024691D02*
X032755Y024691D01*
X032755Y024611D02*
X032900Y024611D01*
X032829Y024532D02*
X032755Y024532D01*
X032755Y024452D02*
X032758Y024452D01*
X031924Y024770D02*
X031564Y024770D01*
X031484Y024850D02*
X031924Y024850D01*
X031928Y024929D02*
X031405Y024929D01*
X031325Y025009D02*
X031924Y025009D01*
X031924Y025088D02*
X031246Y025088D01*
X031200Y025168D02*
X031931Y025168D01*
X031924Y025247D02*
X031200Y025247D01*
X031200Y025327D02*
X031924Y025327D01*
X031560Y025406D02*
X031200Y025406D01*
X031200Y025486D02*
X031481Y025486D01*
X031401Y025565D02*
X031200Y025565D01*
X031200Y025645D02*
X031322Y025645D01*
X031242Y025724D02*
X031200Y025724D01*
X031571Y025963D02*
X031768Y025963D01*
X031689Y026042D02*
X031550Y026042D01*
X031550Y026122D02*
X031609Y026122D01*
X031651Y025883D02*
X031848Y025883D01*
X031924Y025804D02*
X031730Y025804D01*
X032339Y026917D02*
X032339Y026917D01*
X032339Y026996D02*
X032339Y026996D01*
X032339Y027076D02*
X032339Y027076D01*
X033058Y027394D02*
X033139Y027394D01*
X033139Y027473D02*
X033058Y027473D01*
X033058Y027553D02*
X033139Y027553D01*
X033139Y027632D02*
X033058Y027632D01*
X033058Y027712D02*
X033139Y027712D01*
X033139Y027791D02*
X033058Y027791D01*
X032956Y027871D02*
X032090Y027871D01*
X032090Y027950D02*
X032764Y027950D01*
X032675Y028030D02*
X032090Y028030D01*
X032218Y028109D02*
X032595Y028109D01*
X032546Y028189D02*
X032248Y028189D01*
X032248Y028268D02*
X032513Y028268D01*
X032480Y028348D02*
X032248Y028348D01*
X032248Y028427D02*
X032470Y028427D01*
X032470Y028507D02*
X032248Y028507D01*
X032232Y028586D02*
X032470Y028586D01*
X032485Y028666D02*
X032184Y028666D01*
X032248Y028745D02*
X032518Y028745D01*
X032551Y028825D02*
X032248Y028825D01*
X032248Y028904D02*
X032608Y028904D01*
X032688Y028984D02*
X032248Y028984D01*
X032248Y029063D02*
X032796Y029063D01*
X033264Y027871D02*
X033930Y027871D01*
X032761Y027791D02*
X032704Y027791D01*
X029461Y026078D02*
X029461Y026078D01*
X029045Y026078D01*
X029045Y026165D01*
X029054Y026198D01*
X029045Y026207D01*
X029045Y026425D01*
X028960Y026511D01*
X028940Y026530D01*
X028940Y025621D01*
X028829Y025510D01*
X028637Y025318D01*
X028702Y025318D01*
X028784Y025235D01*
X028784Y025190D01*
X028829Y025190D01*
X029029Y024990D01*
X029045Y024974D01*
X029045Y025181D01*
X029046Y025182D01*
X029045Y025184D01*
X029045Y025437D01*
X029046Y025438D01*
X029045Y025439D01*
X029045Y025693D01*
X029046Y025694D01*
X029045Y025695D01*
X029045Y025949D01*
X029054Y025958D01*
X029045Y025991D01*
X029045Y026078D01*
X029461Y026078D01*
X029045Y026042D02*
X028940Y026042D01*
X028940Y025963D02*
X029053Y025963D01*
X029045Y025883D02*
X028940Y025883D01*
X028940Y025804D02*
X029045Y025804D01*
X029045Y025724D02*
X028940Y025724D01*
X028940Y025645D02*
X029045Y025645D01*
X029045Y025565D02*
X028884Y025565D01*
X028805Y025486D02*
X029045Y025486D01*
X029045Y025406D02*
X028725Y025406D01*
X028646Y025327D02*
X029045Y025327D01*
X029045Y025247D02*
X028773Y025247D01*
X028852Y025168D02*
X029045Y025168D01*
X029045Y025088D02*
X028931Y025088D01*
X029011Y025009D02*
X029045Y025009D01*
X028505Y025724D02*
X027953Y025724D01*
X027953Y025645D02*
X028075Y025645D01*
X027996Y025565D02*
X027953Y025565D01*
X027953Y025804D02*
X028560Y025804D01*
X028560Y025883D02*
X027953Y025883D01*
X027953Y025963D02*
X028560Y025963D01*
X028560Y026042D02*
X027929Y026042D01*
X028940Y026122D02*
X029045Y026122D01*
X029051Y026201D02*
X028940Y026201D01*
X028940Y026281D02*
X029045Y026281D01*
X029045Y026360D02*
X028940Y026360D01*
X028940Y026440D02*
X029031Y026440D01*
X028951Y026519D02*
X028940Y026519D01*
X027900Y027235D02*
X027528Y027235D01*
X027646Y027314D02*
X027900Y027314D01*
X027900Y027394D02*
X027704Y027394D01*
X027737Y027473D02*
X027900Y027473D01*
X027900Y027553D02*
X027740Y027553D01*
X027735Y027632D02*
X027900Y027632D01*
X027900Y027712D02*
X027702Y027712D01*
X027640Y027791D02*
X027900Y027791D01*
X027900Y027871D02*
X027590Y027871D01*
X027590Y027950D02*
X027900Y027950D01*
X027900Y028030D02*
X027590Y028030D01*
X027590Y028109D02*
X027900Y028109D01*
X027900Y028189D02*
X027590Y028189D01*
X027590Y028268D02*
X027900Y028268D01*
X028811Y029222D02*
X029186Y029222D01*
X029186Y029143D02*
X029262Y029143D01*
X029262Y029063D02*
X029186Y029063D01*
X029186Y028984D02*
X029262Y028984D01*
X028926Y029302D02*
X028774Y029302D01*
X028774Y029381D02*
X028926Y029381D01*
X028928Y029461D02*
X028774Y029461D01*
X028726Y029540D02*
X028974Y029540D01*
X026772Y026042D02*
X026743Y026042D01*
X026743Y025963D02*
X026772Y025963D01*
X026772Y025883D02*
X026743Y025883D01*
X026743Y025804D02*
X026772Y025804D01*
X026772Y025645D02*
X026743Y025645D01*
X026743Y025565D02*
X026772Y025565D01*
X026772Y025486D02*
X026743Y025486D01*
X026743Y025406D02*
X026772Y025406D01*
X026772Y025327D02*
X026743Y025327D01*
X026633Y025247D02*
X027115Y025247D01*
X027051Y025168D02*
X026633Y025168D01*
X026633Y025088D02*
X027018Y025088D01*
X027010Y025009D02*
X026761Y025009D01*
X026768Y024929D02*
X027011Y024929D01*
X027044Y024850D02*
X026768Y024850D01*
X026768Y024770D02*
X027098Y024770D01*
X027160Y024691D02*
X026768Y024691D01*
X026768Y024611D02*
X027160Y024611D01*
X027160Y024532D02*
X026726Y024532D01*
X026767Y024452D02*
X027160Y024452D01*
X026478Y024214D02*
X026422Y024214D01*
X026422Y024134D02*
X026478Y024134D01*
X026478Y024055D02*
X026422Y024055D01*
X026176Y024055D02*
X026074Y024055D01*
X026117Y024134D02*
X026133Y024134D01*
X026495Y022862D02*
X026505Y022862D01*
X026538Y022783D02*
X026462Y022783D01*
X026425Y022703D02*
X026575Y022703D01*
X026655Y022624D02*
X026345Y022624D01*
X026233Y022544D02*
X026767Y022544D01*
X027233Y022544D02*
X027767Y022544D01*
X027655Y022624D02*
X027345Y022624D01*
X027425Y022703D02*
X027575Y022703D01*
X027538Y022783D02*
X027462Y022783D01*
X027495Y022862D02*
X027505Y022862D01*
X027846Y022147D02*
X028207Y022147D01*
X028233Y022544D02*
X028362Y022544D01*
X028345Y022624D02*
X028490Y022624D01*
X028490Y022703D02*
X028425Y022703D01*
X028462Y022783D02*
X028490Y022783D01*
X028960Y022783D02*
X029040Y022783D01*
X029040Y022862D02*
X028960Y022862D01*
X028960Y022942D02*
X029040Y022942D01*
X029040Y022959D02*
X029040Y022500D01*
X029017Y022500D01*
X028924Y022408D01*
X028890Y022490D01*
X028960Y022490D01*
X028960Y022959D01*
X029040Y022959D01*
X029041Y023021D02*
X030415Y023021D01*
X030415Y022942D02*
X030174Y022942D01*
X030221Y022862D02*
X030415Y022862D01*
X030467Y022783D02*
X030224Y022783D01*
X030224Y022624D02*
X030690Y022624D01*
X030769Y022703D02*
X029945Y022703D01*
X029868Y022703D02*
X029510Y022703D01*
X029589Y022714D02*
X029868Y022714D01*
X029868Y022974D01*
X029711Y022974D01*
X029675Y022964D01*
X029643Y022946D01*
X029617Y022920D01*
X029598Y022888D01*
X029589Y022852D01*
X029589Y022714D01*
X029589Y022783D02*
X029510Y022783D01*
X029510Y022862D02*
X029591Y022862D01*
X029638Y022942D02*
X029510Y022942D01*
X029510Y023101D02*
X030415Y023101D01*
X030415Y023180D02*
X030196Y023180D01*
X030224Y023260D02*
X030415Y023260D01*
X030489Y023339D02*
X030224Y023339D01*
X030224Y023419D02*
X030700Y023419D01*
X030780Y023498D02*
X030224Y023498D01*
X030224Y023578D02*
X030794Y023578D01*
X030827Y023657D02*
X030207Y023657D01*
X029935Y023816D02*
X030976Y023816D01*
X030879Y023737D02*
X029863Y023737D01*
X029589Y023419D02*
X029502Y023419D01*
X029510Y023339D02*
X029589Y023339D01*
X029589Y023260D02*
X029510Y023260D01*
X029510Y023180D02*
X029617Y023180D01*
X029868Y022942D02*
X029945Y022942D01*
X029945Y022862D02*
X029868Y022862D01*
X029868Y022783D02*
X029945Y022783D01*
X030224Y022544D02*
X030610Y022544D01*
X030860Y022226D02*
X031252Y022226D01*
X031397Y022306D02*
X030939Y022306D01*
X031019Y022385D02*
X031506Y022385D01*
X031616Y022465D02*
X031098Y022465D01*
X031178Y022544D02*
X031725Y022544D01*
X031834Y022624D02*
X031257Y022624D01*
X031337Y022703D02*
X031943Y022703D01*
X032053Y022783D02*
X031416Y022783D01*
X031496Y022862D02*
X032162Y022862D01*
X032257Y022942D02*
X031575Y022942D01*
X031655Y023021D02*
X032339Y023021D01*
X032421Y023101D02*
X031734Y023101D01*
X031102Y022147D02*
X030780Y022147D01*
X030804Y021988D02*
X029071Y021988D01*
X029151Y022067D02*
X030953Y022067D01*
X030654Y021908D02*
X028992Y021908D01*
X028912Y021829D02*
X030505Y021829D01*
X030296Y021749D02*
X028833Y021749D01*
X028753Y021670D02*
X030078Y021670D01*
X029860Y021590D02*
X028674Y021590D01*
X028594Y021511D02*
X029642Y021511D01*
X029352Y021431D02*
X028515Y021431D01*
X028435Y021352D02*
X028978Y021352D01*
X028605Y021272D02*
X028356Y021272D01*
X028900Y022465D02*
X028981Y022465D01*
X028960Y022544D02*
X029040Y022544D01*
X029040Y022624D02*
X028960Y022624D01*
X028960Y022703D02*
X029040Y022703D01*
X029483Y022544D02*
X029589Y022544D01*
X029589Y022624D02*
X029510Y022624D01*
X030253Y024134D02*
X031082Y024134D01*
X031003Y024214D02*
X030333Y024214D01*
X030412Y024293D02*
X030923Y024293D01*
X030844Y024373D02*
X030492Y024373D01*
X030571Y024452D02*
X030764Y024452D01*
X030685Y024532D02*
X030651Y024532D01*
X025655Y022624D02*
X023174Y022624D01*
X023064Y022703D02*
X025575Y022703D01*
X025538Y022783D02*
X022955Y022783D01*
X022846Y022862D02*
X025505Y022862D01*
X023887Y022942D02*
X022751Y022942D01*
X022669Y023021D02*
X023807Y023021D01*
X023728Y023101D02*
X022587Y023101D01*
X022504Y023180D02*
X023648Y023180D01*
X023604Y023260D02*
X022422Y023260D01*
X022340Y023339D02*
X023604Y023339D01*
X023604Y023419D02*
X022258Y023419D01*
X022176Y023498D02*
X023604Y023498D01*
X023604Y023578D02*
X022093Y023578D01*
X022023Y023657D02*
X023171Y023657D01*
X023092Y023737D02*
X021961Y023737D01*
X021899Y023816D02*
X023012Y023816D01*
X022933Y023896D02*
X021837Y023896D01*
X021775Y023975D02*
X022506Y023975D01*
X022426Y024055D02*
X021713Y024055D01*
X021651Y024134D02*
X022347Y024134D01*
X022267Y024214D02*
X021589Y024214D01*
X021527Y024293D02*
X022188Y024293D01*
X022108Y024373D02*
X021465Y024373D01*
X021410Y024452D02*
X022029Y024452D01*
X021949Y024532D02*
X021365Y024532D01*
X021319Y024611D02*
X021870Y024611D01*
X021860Y024691D02*
X021273Y024691D01*
X021227Y024770D02*
X021860Y024770D01*
X021860Y024850D02*
X021181Y024850D01*
X021136Y024929D02*
X021860Y024929D01*
X021860Y025009D02*
X021090Y025009D01*
X021044Y025088D02*
X021860Y025088D01*
X021898Y025168D02*
X020998Y025168D01*
X020952Y025247D02*
X021978Y025247D01*
X022057Y025327D02*
X020911Y025327D01*
X020879Y025406D02*
X021168Y025406D01*
X021180Y025402D02*
X021104Y025427D01*
X021032Y025463D01*
X020967Y025511D01*
X020911Y025567D01*
X020863Y025632D01*
X020827Y025704D01*
X020802Y025780D01*
X020790Y025860D01*
X021259Y025860D01*
X021259Y025940D01*
X020790Y025940D01*
X020802Y026020D01*
X020827Y026096D01*
X020863Y026168D01*
X020911Y026233D01*
X020967Y026289D01*
X021032Y026337D01*
X021104Y026373D01*
X021179Y026398D01*
X021011Y026467D01*
X020867Y026611D01*
X020790Y026798D01*
X020790Y027002D01*
X020867Y027189D01*
X021011Y027333D01*
X021198Y027410D01*
X021402Y027410D01*
X021589Y027333D01*
X021733Y027189D01*
X021810Y027002D01*
X021810Y026798D01*
X021733Y026611D01*
X021589Y026467D01*
X021421Y026398D01*
X021496Y026373D01*
X021568Y026337D01*
X021633Y026289D01*
X021689Y026233D01*
X021737Y026168D01*
X021773Y026096D01*
X021798Y026020D01*
X021810Y025940D01*
X021341Y025940D01*
X021341Y025860D01*
X021810Y025860D01*
X021798Y025780D01*
X021773Y025704D01*
X021737Y025632D01*
X021689Y025567D01*
X021633Y025511D01*
X021568Y025463D01*
X021496Y025427D01*
X021420Y025402D01*
X021340Y025390D01*
X021340Y025859D01*
X021260Y025859D01*
X021260Y025390D01*
X021180Y025402D01*
X021260Y025406D02*
X021340Y025406D01*
X021340Y025486D02*
X021260Y025486D01*
X021260Y025565D02*
X021340Y025565D01*
X021340Y025645D02*
X021260Y025645D01*
X021260Y025724D02*
X021340Y025724D01*
X021340Y025804D02*
X021260Y025804D01*
X021259Y025883D02*
X020687Y025883D01*
X020719Y025804D02*
X020798Y025804D01*
X020820Y025724D02*
X020751Y025724D01*
X020783Y025645D02*
X020857Y025645D01*
X020815Y025565D02*
X020913Y025565D01*
X020847Y025486D02*
X021002Y025486D01*
X021432Y025406D02*
X022137Y025406D01*
X022216Y025486D02*
X021598Y025486D01*
X021687Y025565D02*
X022296Y025565D01*
X022375Y025645D02*
X021743Y025645D01*
X021780Y025724D02*
X022455Y025724D01*
X022534Y025804D02*
X021802Y025804D01*
X021807Y025963D02*
X022693Y025963D01*
X022773Y026042D02*
X021791Y026042D01*
X021760Y026122D02*
X022852Y026122D01*
X022932Y026201D02*
X021712Y026201D01*
X021641Y026281D02*
X022938Y026281D01*
X022860Y026360D02*
X021522Y026360D01*
X021522Y026440D02*
X022827Y026440D01*
X022810Y026519D02*
X021641Y026519D01*
X021720Y026599D02*
X022810Y026599D01*
X022834Y026678D02*
X021761Y026678D01*
X021794Y026758D02*
X022779Y026758D01*
X022726Y026837D02*
X021810Y026837D01*
X021810Y026917D02*
X022726Y026917D01*
X022726Y026996D02*
X021810Y026996D01*
X021780Y027076D02*
X022726Y027076D01*
X022726Y027155D02*
X022505Y027155D01*
X022535Y027235D02*
X022726Y027235D01*
X022798Y027314D02*
X022535Y027314D01*
X022535Y027394D02*
X023260Y027394D01*
X023260Y027473D02*
X022602Y027473D01*
X022734Y027553D02*
X022741Y027553D01*
X023005Y027553D02*
X023082Y027553D01*
X023082Y027632D02*
X023005Y027632D01*
X023005Y027712D02*
X023082Y027712D01*
X023082Y027871D02*
X023005Y027871D01*
X023005Y027950D02*
X023082Y027950D01*
X023082Y028030D02*
X023005Y028030D01*
X022751Y028109D02*
X023260Y028109D01*
X023260Y028189D02*
X022454Y028189D01*
X022487Y028268D02*
X023260Y028268D01*
X023260Y028348D02*
X022520Y028348D01*
X022199Y027871D02*
X022044Y027871D01*
X022199Y027791D02*
X020236Y027791D01*
X020244Y027712D02*
X022217Y027712D01*
X021916Y027632D02*
X020253Y027632D01*
X020261Y027553D02*
X021899Y027553D01*
X021899Y027473D02*
X020269Y027473D01*
X020277Y027394D02*
X021158Y027394D01*
X020992Y027314D02*
X020285Y027314D01*
X020295Y027235D02*
X020913Y027235D01*
X020853Y027155D02*
X020315Y027155D01*
X020334Y027076D02*
X020820Y027076D01*
X020790Y026996D02*
X020354Y026996D01*
X020374Y026917D02*
X020790Y026917D01*
X020790Y026837D02*
X020393Y026837D01*
X020413Y026758D02*
X020806Y026758D01*
X020839Y026678D02*
X020433Y026678D01*
X020453Y026599D02*
X020880Y026599D01*
X020959Y026519D02*
X020472Y026519D01*
X020492Y026440D02*
X021078Y026440D01*
X021078Y026360D02*
X020512Y026360D01*
X020531Y026281D02*
X020959Y026281D01*
X020888Y026201D02*
X020559Y026201D01*
X020591Y026122D02*
X020840Y026122D01*
X020809Y026042D02*
X020623Y026042D01*
X020655Y025963D02*
X020793Y025963D01*
X021341Y025883D02*
X022614Y025883D01*
X021929Y027155D02*
X021747Y027155D01*
X021687Y027235D02*
X021899Y027235D01*
X021899Y027314D02*
X021608Y027314D01*
X021442Y027394D02*
X021899Y027394D01*
X021736Y027871D02*
X020228Y027871D01*
X020220Y027950D02*
X021544Y027950D01*
X021455Y028030D02*
X020211Y028030D01*
X020203Y028109D02*
X021375Y028109D01*
X021326Y028189D02*
X020195Y028189D01*
X020188Y028268D02*
X021293Y028268D01*
X021260Y028348D02*
X020191Y028348D01*
X020194Y028427D02*
X021250Y028427D01*
X021250Y028507D02*
X020197Y028507D01*
X020199Y028586D02*
X021250Y028586D01*
X021265Y028666D02*
X020202Y028666D01*
X020205Y028745D02*
X021298Y028745D01*
X021331Y028825D02*
X020208Y028825D01*
X020211Y028904D02*
X021388Y028904D01*
X021468Y028984D02*
X020214Y028984D01*
X020217Y029063D02*
X021137Y029063D01*
X021058Y029143D02*
X020220Y029143D01*
X020223Y029222D02*
X020996Y029222D01*
X020697Y029302D02*
X020228Y029302D01*
X020243Y029381D02*
X020628Y029381D01*
X020628Y029461D02*
X020257Y029461D01*
X020271Y029540D02*
X020628Y029540D01*
X020628Y029620D02*
X020285Y029620D01*
X020299Y029699D02*
X020628Y029699D01*
X020628Y029779D02*
X020313Y029779D01*
X020328Y029858D02*
X020644Y029858D01*
X020342Y029938D02*
X021484Y029938D01*
X021404Y030017D02*
X020356Y030017D01*
X020370Y030097D02*
X021325Y030097D01*
X021397Y029858D02*
X021208Y029858D01*
X021224Y029779D02*
X021376Y029779D01*
X021376Y029699D02*
X021224Y029699D01*
X021224Y029620D02*
X021636Y029620D01*
X021376Y029540D02*
X021227Y029540D01*
X021293Y029461D02*
X021376Y029461D01*
X021024Y030176D02*
X020384Y030176D01*
X020398Y030256D02*
X021002Y030256D01*
X021002Y030335D02*
X020420Y030335D01*
X020446Y030415D02*
X021002Y030415D01*
X021002Y030494D02*
X020472Y030494D01*
X020498Y030574D02*
X021002Y030574D01*
X021002Y030653D02*
X020524Y030653D01*
X020550Y030733D02*
X021066Y030733D01*
X024050Y028507D02*
X024334Y028507D01*
X024256Y028427D02*
X024154Y028427D01*
X023317Y027314D02*
X023289Y027314D01*
X023361Y027235D02*
X023396Y027235D01*
X024160Y033992D02*
X024240Y033992D01*
X024240Y034072D02*
X024160Y034072D01*
X024160Y034151D02*
X024240Y034151D01*
X024240Y034231D02*
X024160Y034231D01*
X024160Y034310D02*
X024240Y034310D01*
X024240Y034390D02*
X024160Y034390D01*
X024160Y034469D02*
X024240Y034469D01*
X023411Y034469D02*
X023267Y034469D01*
X023356Y034390D02*
X023159Y034390D01*
X023341Y034310D02*
X023351Y034310D01*
X022894Y034151D02*
X022873Y034151D01*
X024989Y034469D02*
X025530Y034469D01*
X025490Y034390D02*
X025044Y034390D01*
X025049Y034310D02*
X025490Y034310D01*
X025490Y034231D02*
X025049Y034231D01*
X025049Y034151D02*
X025490Y034151D01*
X025490Y034072D02*
X025049Y034072D01*
X025049Y033992D02*
X025490Y033992D01*
D41*
X025900Y033800D02*
X025900Y031806D01*
X025950Y031806D01*
X025950Y030925D01*
X026225Y030650D01*
X026550Y030650D01*
X026253Y029900D02*
X026128Y029775D01*
X026128Y029090D01*
X026400Y029850D02*
X026253Y029900D01*
X025240Y031350D02*
X025110Y031480D01*
X025384Y031806D01*
X025900Y031806D01*
X025950Y031806D02*
X026550Y031806D01*
X027305Y031806D01*
X027328Y031808D01*
X027350Y031813D01*
X027371Y031822D01*
X027390Y031834D01*
X027408Y031848D01*
X027422Y031866D01*
X027434Y031885D01*
X027443Y031906D01*
X027448Y031928D01*
X027450Y031951D01*
X029100Y032248D02*
X029100Y032950D01*
X029750Y033600D01*
X030750Y033600D01*
X032000Y032350D01*
X032000Y031950D01*
X030200Y031700D02*
X029900Y031700D01*
X029900Y032000D01*
X029900Y031700D02*
X029550Y031700D01*
X029100Y030752D02*
X029896Y030440D01*
X025900Y033800D02*
X026000Y034000D01*
X031150Y023500D02*
X030733Y023083D01*
X030733Y023050D01*
D42*
X023290Y031480D02*
X023290Y032460D01*
X022950Y032800D01*
X022450Y032800D01*
X027450Y031951D02*
X028803Y031951D01*
X029100Y032248D01*
D43*
X032000Y031950D03*
X031150Y023500D03*
M02*
