G75*
G70*
%OFA0B0*%
%FSLAX24Y24*%
%IPPOS*%
%LPD*%
%AMOC8*
5,1,8,0,0,1.08239X$1,22.5*
%
%ADD10C,0.0740*%
%ADD11R,0.0800X0.0260*%
%ADD12R,0.0276X0.0354*%
%ADD13R,0.0512X0.0315*%
%ADD14R,0.0740X0.0740*%
%ADD15C,0.0100*%
%ADD16C,0.0160*%
%ADD17C,0.0400*%
%ADD18C,0.0436*%
%ADD19C,0.0240*%
%ADD20C,0.0120*%
D10*
X027000Y022500D03*
X028000Y022500D03*
X029000Y022500D03*
X028500Y024000D03*
X027500Y024000D03*
X026500Y024000D03*
X029500Y024000D03*
X030500Y024000D03*
X030500Y032000D03*
X029500Y032000D03*
X028500Y032000D03*
X027500Y032000D03*
X026500Y032000D03*
X027000Y033500D03*
X028000Y033500D03*
X029000Y033500D03*
D11*
X028710Y029750D03*
X028710Y029250D03*
X028710Y028750D03*
X028710Y028250D03*
X028710Y027750D03*
X028710Y027250D03*
X028710Y026750D03*
X028710Y026250D03*
X026290Y026250D03*
X026290Y026750D03*
X026290Y027250D03*
X026290Y027750D03*
X026290Y028250D03*
X026290Y028750D03*
X026290Y029250D03*
X026290Y029750D03*
D12*
X024656Y028200D03*
X024144Y028200D03*
D13*
X030075Y028050D03*
X030075Y028550D03*
X030075Y029050D03*
X030075Y029550D03*
X031325Y029550D03*
X031325Y029050D03*
X031325Y028550D03*
X031325Y028050D03*
X031325Y027250D03*
X031325Y026750D03*
X031325Y026250D03*
X031325Y025750D03*
X030075Y025750D03*
X030075Y026250D03*
X030075Y026750D03*
X030075Y027250D03*
D14*
X030000Y022500D03*
X030000Y033500D03*
D15*
X025661Y022623D02*
X026196Y022373D01*
X026464Y022279D01*
X026420Y022385D01*
X026420Y022615D01*
X026508Y022829D01*
X026671Y022992D01*
X026788Y023040D01*
X025948Y023040D01*
X025853Y023080D01*
X024953Y023980D01*
X024880Y024053D01*
X024840Y024148D01*
X024840Y027813D01*
X024431Y027813D01*
X024353Y027891D01*
X024340Y027883D01*
X024302Y027873D01*
X024163Y027873D01*
X024163Y028181D01*
X024125Y028181D01*
X023856Y028181D01*
X023856Y028003D01*
X023867Y027965D01*
X023886Y027931D01*
X023914Y027903D01*
X023948Y027883D01*
X023987Y027873D01*
X024125Y027873D01*
X024125Y028181D01*
X024125Y028219D01*
X023856Y028219D01*
X023856Y028397D01*
X023867Y028435D01*
X023886Y028469D01*
X023914Y028497D01*
X023948Y028517D01*
X023987Y028527D01*
X024125Y028527D01*
X024125Y028219D01*
X024163Y028219D01*
X024163Y028527D01*
X024302Y028527D01*
X024340Y028517D01*
X024353Y028509D01*
X024431Y028587D01*
X024525Y028587D01*
X024472Y028715D01*
X024472Y028885D01*
X024537Y029043D01*
X024657Y029163D01*
X024815Y029228D01*
X024985Y029228D01*
X025143Y029163D01*
X025245Y029060D01*
X025480Y029060D01*
X025254Y029286D01*
X025210Y029392D01*
X025210Y032558D01*
X025254Y032664D01*
X025336Y032746D01*
X026171Y033581D01*
X026159Y033577D01*
X025626Y033315D01*
X025120Y033002D01*
X024648Y032642D01*
X024213Y032236D01*
X023820Y031791D01*
X023473Y031308D01*
X023175Y030794D01*
X022928Y030254D01*
X022736Y029691D01*
X022600Y029113D01*
X022534Y028621D01*
X022749Y028710D01*
X023031Y028710D01*
X023292Y028602D01*
X023492Y028402D01*
X023600Y028141D01*
X023600Y027859D01*
X023492Y027598D01*
X023292Y027398D01*
X023031Y027290D01*
X022749Y027290D01*
X022522Y027384D01*
X022524Y027340D01*
X022607Y026756D01*
X022747Y026183D01*
X022943Y025626D01*
X023193Y025091D01*
X023495Y024584D01*
X023846Y024110D01*
X024242Y023672D01*
X024680Y023276D01*
X025154Y022925D01*
X025661Y022623D01*
X025613Y022652D02*
X026435Y022652D01*
X026420Y022554D02*
X025811Y022554D01*
X026021Y022455D02*
X026420Y022455D01*
X026432Y022357D02*
X026243Y022357D01*
X026476Y022751D02*
X025448Y022751D01*
X025283Y022849D02*
X026529Y022849D01*
X026627Y022948D02*
X025125Y022948D01*
X024991Y023046D02*
X025934Y023046D01*
X025788Y023145D02*
X024858Y023145D01*
X024725Y023243D02*
X025689Y023243D01*
X025591Y023342D02*
X024608Y023342D01*
X024499Y023440D02*
X025492Y023440D01*
X025394Y023539D02*
X024390Y023539D01*
X024281Y023637D02*
X025295Y023637D01*
X025197Y023736D02*
X024185Y023736D01*
X024096Y023834D02*
X025098Y023834D01*
X025000Y023933D02*
X024007Y023933D01*
X023918Y024031D02*
X024901Y024031D01*
X024848Y024130D02*
X023832Y024130D01*
X023759Y024228D02*
X024840Y024228D01*
X024840Y024327D02*
X023686Y024327D01*
X023613Y024425D02*
X024840Y024425D01*
X024840Y024524D02*
X023540Y024524D01*
X023473Y024622D02*
X024840Y024622D01*
X024840Y024721D02*
X023414Y024721D01*
X023356Y024819D02*
X024840Y024819D01*
X024840Y024918D02*
X023297Y024918D01*
X023238Y025016D02*
X024840Y025016D01*
X024840Y025115D02*
X023183Y025115D01*
X023136Y025213D02*
X024840Y025213D01*
X024840Y025312D02*
X023090Y025312D01*
X023044Y025410D02*
X024840Y025410D01*
X024840Y025509D02*
X022998Y025509D01*
X022952Y025607D02*
X024840Y025607D01*
X024840Y025706D02*
X022915Y025706D01*
X022880Y025804D02*
X024840Y025804D01*
X024840Y025903D02*
X022846Y025903D01*
X022811Y026001D02*
X024840Y026001D01*
X024840Y026100D02*
X022776Y026100D01*
X022743Y026198D02*
X024840Y026198D01*
X024840Y026297D02*
X022719Y026297D01*
X022695Y026395D02*
X024840Y026395D01*
X024840Y026494D02*
X022671Y026494D01*
X022647Y026592D02*
X024840Y026592D01*
X024840Y026691D02*
X022623Y026691D01*
X022602Y026789D02*
X024840Y026789D01*
X024840Y026888D02*
X022588Y026888D01*
X022574Y026986D02*
X024840Y026986D01*
X024840Y027085D02*
X022560Y027085D01*
X022546Y027183D02*
X024840Y027183D01*
X024840Y027282D02*
X022533Y027282D01*
X022523Y027380D02*
X022531Y027380D01*
X023249Y027380D02*
X024840Y027380D01*
X024840Y027479D02*
X023373Y027479D01*
X023471Y027577D02*
X024840Y027577D01*
X024840Y027676D02*
X023524Y027676D01*
X023565Y027774D02*
X024840Y027774D01*
X025100Y028100D02*
X025000Y028200D01*
X025100Y028250D02*
X025100Y028100D01*
X025200Y028200D01*
X025100Y028100D02*
X025100Y024200D01*
X026000Y023300D01*
X027200Y023300D01*
X028000Y022500D01*
X028471Y022849D02*
X028529Y022849D01*
X028508Y022829D02*
X028500Y022809D01*
X028492Y022829D01*
X028329Y022992D01*
X028115Y023080D01*
X027885Y023080D01*
X027816Y023052D01*
X027448Y023420D01*
X027615Y023420D01*
X027829Y023508D01*
X027992Y023671D01*
X028000Y023691D01*
X028008Y023671D01*
X028171Y023508D01*
X028385Y023420D01*
X028615Y023420D01*
X028829Y023508D01*
X028992Y023671D01*
X029000Y023691D01*
X029008Y023671D01*
X029171Y023508D01*
X029385Y023420D01*
X029615Y023420D01*
X029829Y023508D01*
X029992Y023671D01*
X030000Y023691D01*
X030008Y023671D01*
X030171Y023508D01*
X030385Y023420D01*
X030615Y023420D01*
X030829Y023508D01*
X030992Y023671D01*
X031016Y023730D01*
X032004Y023730D01*
X032103Y023771D01*
X032179Y023847D01*
X032929Y024597D01*
X032970Y024696D01*
X032970Y026554D01*
X032929Y026653D01*
X032853Y026729D01*
X032103Y027479D01*
X032004Y027520D01*
X031765Y027520D01*
X031668Y027617D01*
X030982Y027617D01*
X030859Y027494D01*
X030859Y027006D01*
X030865Y027000D01*
X030859Y026994D01*
X030859Y026506D01*
X030865Y026500D01*
X030859Y026494D01*
X030859Y026006D01*
X030865Y026000D01*
X030859Y025994D01*
X030859Y025506D01*
X030895Y025470D01*
X030505Y025470D01*
X030541Y025506D01*
X030541Y025994D01*
X030535Y026000D01*
X030541Y026006D01*
X030541Y026494D01*
X030535Y026500D01*
X030541Y026506D01*
X030541Y026994D01*
X030535Y027000D01*
X030541Y027006D01*
X030541Y027494D01*
X030418Y027617D01*
X029732Y027617D01*
X029635Y027520D01*
X029400Y027520D01*
X029403Y027521D01*
X029648Y027766D01*
X029732Y027683D01*
X030418Y027683D01*
X030541Y027806D01*
X030541Y028294D01*
X030535Y028300D01*
X030541Y028306D01*
X030541Y028794D01*
X030535Y028800D01*
X030541Y028806D01*
X030541Y029294D01*
X030535Y029300D01*
X030541Y029306D01*
X030541Y029794D01*
X030418Y029917D01*
X029732Y029917D01*
X029685Y029870D01*
X029546Y029870D01*
X029447Y029829D01*
X029371Y029753D01*
X029260Y029642D01*
X029260Y029735D01*
X028725Y029735D01*
X028725Y029765D01*
X028695Y029765D01*
X028695Y030030D01*
X028290Y030030D01*
X028252Y030020D01*
X028218Y030000D01*
X028190Y029972D01*
X028170Y029938D01*
X028160Y029900D01*
X028160Y029765D01*
X028695Y029765D01*
X028695Y029735D01*
X028160Y029735D01*
X028160Y029600D01*
X028170Y029562D01*
X028179Y029546D01*
X028100Y029467D01*
X028100Y029033D01*
X028133Y029000D01*
X028100Y028967D01*
X028100Y028533D01*
X028133Y028500D01*
X028100Y028467D01*
X028100Y028033D01*
X028133Y028000D01*
X028100Y027967D01*
X028100Y027533D01*
X028133Y027500D01*
X028100Y027467D01*
X028100Y027033D01*
X028133Y027000D01*
X028100Y026967D01*
X028100Y026533D01*
X028133Y026500D01*
X028100Y026467D01*
X028100Y026070D01*
X027080Y026070D01*
X027464Y026454D01*
X027546Y026536D01*
X027590Y026642D01*
X027590Y028958D01*
X027546Y029064D01*
X027196Y029414D01*
X027114Y029496D01*
X027008Y029540D01*
X026900Y029540D01*
X026900Y029967D01*
X026777Y030090D01*
X025803Y030090D01*
X025790Y030077D01*
X025790Y032380D01*
X026545Y033135D01*
X026671Y033008D01*
X026885Y032920D01*
X027115Y032920D01*
X027329Y033008D01*
X027492Y033171D01*
X027533Y033271D01*
X027555Y033227D01*
X027603Y033161D01*
X027661Y033103D01*
X027727Y033055D01*
X027800Y033018D01*
X027878Y032993D01*
X027950Y032981D01*
X027950Y033450D01*
X028050Y033450D01*
X028050Y032981D01*
X028122Y032993D01*
X028200Y033018D01*
X028273Y033055D01*
X028339Y033103D01*
X028397Y033161D01*
X028445Y033227D01*
X028467Y033271D01*
X028508Y033171D01*
X028657Y033023D01*
X028220Y032587D01*
X028183Y032496D01*
X028171Y032492D01*
X028008Y032329D01*
X028000Y032309D01*
X027992Y032329D01*
X027829Y032492D01*
X027615Y032580D01*
X027385Y032580D01*
X027171Y032492D01*
X027008Y032329D01*
X027000Y032309D01*
X026992Y032329D01*
X026829Y032492D01*
X026615Y032580D01*
X026385Y032580D01*
X026171Y032492D01*
X026008Y032329D01*
X025920Y032115D01*
X025920Y031885D01*
X026008Y031671D01*
X026171Y031508D01*
X026230Y031484D01*
X026230Y031396D01*
X026271Y031297D01*
X027247Y030321D01*
X027346Y030280D01*
X031538Y030280D01*
X031630Y030188D01*
X031630Y029962D01*
X031586Y029917D01*
X030982Y029917D01*
X030859Y029794D01*
X030859Y029306D01*
X030865Y029300D01*
X030859Y029294D01*
X030859Y028806D01*
X030865Y028800D01*
X030859Y028794D01*
X030859Y028306D01*
X030865Y028300D01*
X030859Y028294D01*
X030859Y027806D01*
X030982Y027683D01*
X031668Y027683D01*
X031791Y027806D01*
X031791Y027830D01*
X032604Y027830D01*
X032703Y027871D01*
X032779Y027947D01*
X033029Y028197D01*
X033070Y028296D01*
X033070Y031304D01*
X033029Y031403D01*
X032953Y031479D01*
X032703Y031729D01*
X032604Y031770D01*
X031033Y031770D01*
X031080Y031885D01*
X031080Y032115D01*
X030992Y032329D01*
X030829Y032492D01*
X030615Y032580D01*
X030385Y032580D01*
X030171Y032492D01*
X030008Y032329D01*
X030000Y032309D01*
X029992Y032329D01*
X029829Y032492D01*
X029615Y032580D01*
X029385Y032580D01*
X029171Y032492D01*
X029008Y032329D01*
X029000Y032309D01*
X028992Y032329D01*
X028943Y032377D01*
X029187Y032620D01*
X029280Y032713D01*
X029330Y032834D01*
X029330Y033010D01*
X029480Y033160D01*
X029480Y033110D01*
X029490Y033072D01*
X029510Y033038D01*
X029538Y033010D01*
X029572Y032990D01*
X029610Y032980D01*
X029950Y032980D01*
X029950Y033450D01*
X030050Y033450D01*
X030050Y033550D01*
X030520Y033550D01*
X030520Y033713D01*
X030876Y033583D01*
X031401Y033331D01*
X031898Y033028D01*
X032363Y032679D01*
X032791Y032285D01*
X033179Y031851D01*
X033523Y031381D01*
X033819Y030880D01*
X034064Y030352D01*
X034256Y029803D01*
X034394Y029238D01*
X034475Y028661D01*
X034477Y028616D01*
X034251Y028710D01*
X033969Y028710D01*
X033708Y028602D01*
X033508Y028402D01*
X033400Y028141D01*
X033400Y027859D01*
X033508Y027598D01*
X033708Y027398D01*
X033969Y027290D01*
X034251Y027290D01*
X034464Y027378D01*
X034398Y026893D01*
X034260Y026313D01*
X034066Y025749D01*
X033818Y025207D01*
X033518Y024692D01*
X033169Y024209D01*
X032774Y023762D01*
X032337Y023357D01*
X031862Y022995D01*
X031355Y022683D01*
X030819Y022421D01*
X030520Y022310D01*
X030520Y022450D01*
X030050Y022450D01*
X030050Y022550D01*
X029950Y022550D01*
X029950Y023020D01*
X029610Y023020D01*
X029572Y023010D01*
X029538Y022990D01*
X029510Y022962D01*
X029490Y022928D01*
X029480Y022890D01*
X029480Y022840D01*
X029329Y022992D01*
X029115Y023080D01*
X028885Y023080D01*
X028671Y022992D01*
X028508Y022829D01*
X028627Y022948D02*
X028373Y022948D01*
X028197Y023046D02*
X028803Y023046D01*
X029197Y023046D02*
X031929Y023046D01*
X032058Y023145D02*
X027723Y023145D01*
X027625Y023243D02*
X032188Y023243D01*
X032317Y023342D02*
X027526Y023342D01*
X027664Y023440D02*
X028336Y023440D01*
X028141Y023539D02*
X027859Y023539D01*
X027957Y023637D02*
X028043Y023637D01*
X028664Y023440D02*
X029336Y023440D01*
X029141Y023539D02*
X028859Y023539D01*
X028957Y023637D02*
X029043Y023637D01*
X029664Y023440D02*
X030336Y023440D01*
X030141Y023539D02*
X029859Y023539D01*
X029957Y023637D02*
X030043Y023637D01*
X030050Y023020D02*
X030050Y022550D01*
X030520Y022550D01*
X030520Y022890D01*
X030510Y022928D01*
X030490Y022962D01*
X030462Y022990D01*
X030428Y023010D01*
X030390Y023020D01*
X030050Y023020D01*
X030050Y022948D02*
X029950Y022948D01*
X029950Y022849D02*
X030050Y022849D01*
X030050Y022751D02*
X029950Y022751D01*
X029950Y022652D02*
X030050Y022652D01*
X030050Y022554D02*
X029950Y022554D01*
X030050Y022455D02*
X030888Y022455D01*
X031090Y022554D02*
X030520Y022554D01*
X030520Y022652D02*
X031292Y022652D01*
X031465Y022751D02*
X030520Y022751D01*
X030520Y022849D02*
X031625Y022849D01*
X031785Y022948D02*
X030498Y022948D01*
X030664Y023440D02*
X032427Y023440D01*
X032533Y023539D02*
X030859Y023539D01*
X030957Y023637D02*
X032639Y023637D01*
X032745Y023736D02*
X032017Y023736D01*
X032166Y023834D02*
X032837Y023834D01*
X032924Y023933D02*
X032264Y023933D01*
X032363Y024031D02*
X033011Y024031D01*
X033098Y024130D02*
X032461Y024130D01*
X032560Y024228D02*
X033182Y024228D01*
X033254Y024327D02*
X032658Y024327D01*
X032757Y024425D02*
X033325Y024425D01*
X033396Y024524D02*
X032855Y024524D01*
X032939Y024622D02*
X033467Y024622D01*
X033534Y024721D02*
X032970Y024721D01*
X032970Y024819D02*
X033592Y024819D01*
X033649Y024918D02*
X032970Y024918D01*
X032970Y025016D02*
X033706Y025016D01*
X033764Y025115D02*
X032970Y025115D01*
X032970Y025213D02*
X033821Y025213D01*
X033866Y025312D02*
X032970Y025312D01*
X032970Y025410D02*
X033911Y025410D01*
X033956Y025509D02*
X032970Y025509D01*
X032970Y025607D02*
X034001Y025607D01*
X034046Y025706D02*
X032970Y025706D01*
X032970Y025804D02*
X034085Y025804D01*
X034119Y025903D02*
X032970Y025903D01*
X032970Y026001D02*
X034153Y026001D01*
X034187Y026100D02*
X032970Y026100D01*
X032970Y026198D02*
X034221Y026198D01*
X034254Y026297D02*
X032970Y026297D01*
X032970Y026395D02*
X034280Y026395D01*
X034303Y026494D02*
X032970Y026494D01*
X032954Y026592D02*
X034326Y026592D01*
X034350Y026691D02*
X032891Y026691D01*
X032793Y026789D02*
X034373Y026789D01*
X034397Y026888D02*
X032694Y026888D01*
X032596Y026986D02*
X034410Y026986D01*
X034424Y027085D02*
X032497Y027085D01*
X032399Y027183D02*
X034437Y027183D01*
X034451Y027282D02*
X032300Y027282D01*
X032202Y027380D02*
X033751Y027380D01*
X033627Y027479D02*
X032103Y027479D01*
X031708Y027577D02*
X033529Y027577D01*
X033476Y027676D02*
X029557Y027676D01*
X029459Y027577D02*
X029692Y027577D01*
X030458Y027577D02*
X030942Y027577D01*
X030859Y027479D02*
X030541Y027479D01*
X030541Y027380D02*
X030859Y027380D01*
X030859Y027282D02*
X030541Y027282D01*
X030541Y027183D02*
X030859Y027183D01*
X030859Y027085D02*
X030541Y027085D01*
X030541Y026986D02*
X030859Y026986D01*
X030859Y026888D02*
X030541Y026888D01*
X030541Y026789D02*
X030859Y026789D01*
X030859Y026691D02*
X030541Y026691D01*
X030541Y026592D02*
X030859Y026592D01*
X030859Y026494D02*
X030541Y026494D01*
X030541Y026395D02*
X030859Y026395D01*
X030859Y026297D02*
X030541Y026297D01*
X030541Y026198D02*
X030859Y026198D01*
X030859Y026100D02*
X030541Y026100D01*
X030536Y026001D02*
X030864Y026001D01*
X030859Y025903D02*
X030541Y025903D01*
X030541Y025804D02*
X030859Y025804D01*
X030859Y025706D02*
X030541Y025706D01*
X030541Y025607D02*
X030859Y025607D01*
X030859Y025509D02*
X030541Y025509D01*
X028127Y026494D02*
X027504Y026494D01*
X027569Y026592D02*
X028100Y026592D01*
X028100Y026691D02*
X027590Y026691D01*
X027590Y026789D02*
X028100Y026789D01*
X028100Y026888D02*
X027590Y026888D01*
X027590Y026986D02*
X028119Y026986D01*
X028100Y027085D02*
X027590Y027085D01*
X027590Y027183D02*
X028100Y027183D01*
X028100Y027282D02*
X027590Y027282D01*
X027590Y027380D02*
X028100Y027380D01*
X028112Y027479D02*
X027590Y027479D01*
X027590Y027577D02*
X028100Y027577D01*
X028100Y027676D02*
X027590Y027676D01*
X027590Y027774D02*
X028100Y027774D01*
X028100Y027873D02*
X027590Y027873D01*
X027590Y027971D02*
X028104Y027971D01*
X028100Y028070D02*
X027590Y028070D01*
X027590Y028168D02*
X028100Y028168D01*
X028100Y028267D02*
X027590Y028267D01*
X027590Y028365D02*
X028100Y028365D01*
X028100Y028464D02*
X027590Y028464D01*
X027590Y028562D02*
X028100Y028562D01*
X028100Y028661D02*
X027590Y028661D01*
X027590Y028759D02*
X028100Y028759D01*
X028100Y028858D02*
X027590Y028858D01*
X027590Y028956D02*
X028100Y028956D01*
X028100Y029055D02*
X027550Y029055D01*
X027457Y029153D02*
X028100Y029153D01*
X028100Y029252D02*
X027359Y029252D01*
X027260Y029350D02*
X028100Y029350D01*
X028100Y029449D02*
X027162Y029449D01*
X026900Y029547D02*
X028179Y029547D01*
X028160Y029646D02*
X026900Y029646D01*
X026900Y029744D02*
X028695Y029744D01*
X028725Y029744D02*
X029362Y029744D01*
X029260Y029765D02*
X029260Y029900D01*
X029250Y029938D01*
X029230Y029972D01*
X029202Y030000D01*
X029168Y030020D01*
X029130Y030030D01*
X028725Y030030D01*
X028725Y029765D01*
X029260Y029765D01*
X029260Y029843D02*
X029480Y029843D01*
X029248Y029941D02*
X031609Y029941D01*
X031630Y030040D02*
X026827Y030040D01*
X026900Y029941D02*
X028172Y029941D01*
X028160Y029843D02*
X026900Y029843D01*
X027233Y030335D02*
X025790Y030335D01*
X025790Y030237D02*
X031582Y030237D01*
X031630Y030138D02*
X025790Y030138D01*
X025790Y030434D02*
X027135Y030434D01*
X027036Y030532D02*
X025790Y030532D01*
X025790Y030631D02*
X026938Y030631D01*
X026839Y030729D02*
X025790Y030729D01*
X025790Y030828D02*
X026741Y030828D01*
X026642Y030926D02*
X025790Y030926D01*
X025790Y031025D02*
X026544Y031025D01*
X026445Y031123D02*
X025790Y031123D01*
X025790Y031222D02*
X026347Y031222D01*
X026262Y031320D02*
X025790Y031320D01*
X025790Y031419D02*
X026230Y031419D01*
X026163Y031517D02*
X025790Y031517D01*
X025790Y031616D02*
X026064Y031616D01*
X025991Y031714D02*
X025790Y031714D01*
X025790Y031813D02*
X025950Y031813D01*
X025920Y031911D02*
X025790Y031911D01*
X025790Y032010D02*
X025920Y032010D01*
X025920Y032108D02*
X025790Y032108D01*
X025790Y032207D02*
X025958Y032207D01*
X025999Y032305D02*
X025790Y032305D01*
X025814Y032404D02*
X026083Y032404D01*
X026196Y032502D02*
X025912Y032502D01*
X026011Y032601D02*
X028234Y032601D01*
X028185Y032502D02*
X027804Y032502D01*
X027917Y032404D02*
X028083Y032404D01*
X028332Y032699D02*
X026109Y032699D01*
X026208Y032798D02*
X028431Y032798D01*
X028529Y032896D02*
X026306Y032896D01*
X026405Y032995D02*
X026705Y032995D01*
X026587Y033093D02*
X026503Y033093D01*
X026077Y033487D02*
X025977Y033487D01*
X025978Y033389D02*
X025776Y033389D01*
X025880Y033290D02*
X025585Y033290D01*
X025426Y033192D02*
X025781Y033192D01*
X025683Y033093D02*
X025267Y033093D01*
X025110Y032995D02*
X025584Y032995D01*
X025486Y032896D02*
X024981Y032896D01*
X024852Y032798D02*
X025387Y032798D01*
X025289Y032699D02*
X024723Y032699D01*
X024604Y032601D02*
X025228Y032601D01*
X025210Y032502D02*
X024498Y032502D01*
X024393Y032404D02*
X025210Y032404D01*
X025210Y032305D02*
X024287Y032305D01*
X024187Y032207D02*
X025210Y032207D01*
X025210Y032108D02*
X024100Y032108D01*
X024013Y032010D02*
X025210Y032010D01*
X025210Y031911D02*
X023927Y031911D01*
X023840Y031813D02*
X025210Y031813D01*
X025210Y031714D02*
X023765Y031714D01*
X023694Y031616D02*
X025210Y031616D01*
X025210Y031517D02*
X023624Y031517D01*
X023553Y031419D02*
X025210Y031419D01*
X025210Y031320D02*
X023482Y031320D01*
X023423Y031222D02*
X025210Y031222D01*
X025210Y031123D02*
X023366Y031123D01*
X023309Y031025D02*
X025210Y031025D01*
X025210Y030926D02*
X023251Y030926D01*
X023194Y030828D02*
X025210Y030828D01*
X025210Y030729D02*
X023145Y030729D01*
X023100Y030631D02*
X025210Y030631D01*
X025210Y030532D02*
X023055Y030532D01*
X023010Y030434D02*
X025210Y030434D01*
X025210Y030335D02*
X022965Y030335D01*
X022923Y030237D02*
X025210Y030237D01*
X025210Y030138D02*
X022889Y030138D01*
X022855Y030040D02*
X025210Y030040D01*
X025210Y029941D02*
X022821Y029941D01*
X022788Y029843D02*
X025210Y029843D01*
X025210Y029744D02*
X022754Y029744D01*
X022725Y029646D02*
X025210Y029646D01*
X025210Y029547D02*
X022702Y029547D01*
X022679Y029449D02*
X025210Y029449D01*
X025228Y029350D02*
X022656Y029350D01*
X022632Y029252D02*
X025288Y029252D01*
X025387Y029153D02*
X025152Y029153D01*
X024900Y028800D02*
X026240Y028800D01*
X026290Y028750D01*
X026900Y028759D02*
X027010Y028759D01*
X027010Y028780D02*
X027010Y026820D01*
X026900Y026710D01*
X026900Y026967D01*
X026867Y027000D01*
X026900Y027033D01*
X026900Y027467D01*
X026821Y027546D01*
X026830Y027562D01*
X026840Y027600D01*
X026840Y027735D01*
X026305Y027735D01*
X026305Y027765D01*
X026840Y027765D01*
X026840Y027900D01*
X026830Y027938D01*
X026821Y027954D01*
X026900Y028033D01*
X026900Y028467D01*
X026867Y028500D01*
X026900Y028533D01*
X026900Y028890D01*
X027010Y028780D01*
X026932Y028858D02*
X026900Y028858D01*
X026900Y028661D02*
X027010Y028661D01*
X027010Y028562D02*
X026900Y028562D01*
X026900Y028464D02*
X027010Y028464D01*
X027010Y028365D02*
X026900Y028365D01*
X026900Y028267D02*
X027010Y028267D01*
X027010Y028168D02*
X026900Y028168D01*
X026900Y028070D02*
X027010Y028070D01*
X027010Y027971D02*
X026838Y027971D01*
X026840Y027873D02*
X027010Y027873D01*
X027010Y027774D02*
X026840Y027774D01*
X026840Y027676D02*
X027010Y027676D01*
X027010Y027577D02*
X026834Y027577D01*
X026888Y027479D02*
X027010Y027479D01*
X027010Y027380D02*
X026900Y027380D01*
X026900Y027282D02*
X027010Y027282D01*
X027010Y027183D02*
X026900Y027183D01*
X026900Y027085D02*
X027010Y027085D01*
X027010Y026986D02*
X026881Y026986D01*
X026900Y026888D02*
X027010Y026888D01*
X026979Y026789D02*
X026900Y026789D01*
X027307Y026297D02*
X028100Y026297D01*
X028100Y026395D02*
X027405Y026395D01*
X027208Y026198D02*
X028100Y026198D01*
X028100Y026100D02*
X027110Y026100D01*
X026290Y027250D02*
X025550Y027250D01*
X025500Y027200D01*
X025661Y027577D02*
X025746Y027577D01*
X025750Y027562D02*
X025759Y027546D01*
X025746Y027533D01*
X025732Y027548D01*
X025582Y027610D01*
X025418Y027610D01*
X025360Y027586D01*
X025360Y027960D01*
X025753Y027960D01*
X025759Y027954D01*
X025750Y027938D01*
X025740Y027900D01*
X025740Y027765D01*
X026275Y027765D01*
X026275Y027735D01*
X025740Y027735D01*
X025740Y027600D01*
X025750Y027562D01*
X025740Y027676D02*
X025360Y027676D01*
X025360Y027774D02*
X025740Y027774D01*
X025740Y027873D02*
X025360Y027873D01*
X024706Y028250D02*
X024656Y028200D01*
X024600Y028144D01*
X024371Y027873D02*
X023600Y027873D01*
X023600Y027971D02*
X023865Y027971D01*
X023856Y028070D02*
X023600Y028070D01*
X023589Y028168D02*
X023856Y028168D01*
X023856Y028267D02*
X023548Y028267D01*
X023507Y028365D02*
X023856Y028365D01*
X023883Y028464D02*
X023431Y028464D01*
X023332Y028562D02*
X024406Y028562D01*
X024494Y028661D02*
X023151Y028661D01*
X022629Y028661D02*
X022539Y028661D01*
X022552Y028759D02*
X024472Y028759D01*
X024472Y028858D02*
X022566Y028858D01*
X022579Y028956D02*
X024501Y028956D01*
X024549Y029055D02*
X022592Y029055D01*
X022609Y029153D02*
X024648Y029153D01*
X024163Y028464D02*
X024125Y028464D01*
X024125Y028365D02*
X024163Y028365D01*
X024163Y028267D02*
X024125Y028267D01*
X024125Y028168D02*
X024163Y028168D01*
X024163Y028070D02*
X024125Y028070D01*
X024125Y027971D02*
X024163Y027971D01*
X028695Y029843D02*
X028725Y029843D01*
X028725Y029941D02*
X028695Y029941D01*
X029260Y029646D02*
X029264Y029646D01*
X030075Y029550D02*
X030125Y029600D01*
X030541Y029646D02*
X030859Y029646D01*
X030859Y029744D02*
X030541Y029744D01*
X030493Y029843D02*
X030907Y029843D01*
X030859Y029547D02*
X030541Y029547D01*
X030541Y029449D02*
X030859Y029449D01*
X030859Y029350D02*
X030541Y029350D01*
X030541Y029252D02*
X030859Y029252D01*
X030859Y029153D02*
X030541Y029153D01*
X030541Y029055D02*
X030859Y029055D01*
X030859Y028956D02*
X030541Y028956D01*
X030541Y028858D02*
X030859Y028858D01*
X030859Y028759D02*
X030541Y028759D01*
X030541Y028661D02*
X030859Y028661D01*
X030859Y028562D02*
X030541Y028562D01*
X030541Y028464D02*
X030859Y028464D01*
X030859Y028365D02*
X030541Y028365D01*
X030541Y028267D02*
X030859Y028267D01*
X030859Y028168D02*
X030541Y028168D01*
X030541Y028070D02*
X030859Y028070D01*
X030859Y027971D02*
X030541Y027971D01*
X030541Y027873D02*
X030859Y027873D01*
X030891Y027774D02*
X030509Y027774D01*
X031325Y028050D02*
X031425Y028100D01*
X031325Y028550D02*
X031425Y028600D01*
X031325Y029050D02*
X031425Y029100D01*
X031325Y029550D02*
X031425Y029600D01*
X030125Y029100D02*
X030075Y029050D01*
X030125Y028600D02*
X030075Y028550D01*
X031759Y027774D02*
X033435Y027774D01*
X033400Y027873D02*
X032704Y027873D01*
X032803Y027971D02*
X033400Y027971D01*
X033400Y028070D02*
X032901Y028070D01*
X033000Y028168D02*
X033411Y028168D01*
X033452Y028267D02*
X033058Y028267D01*
X033070Y028365D02*
X033493Y028365D01*
X033569Y028464D02*
X033070Y028464D01*
X033070Y028562D02*
X033668Y028562D01*
X033849Y028661D02*
X033070Y028661D01*
X033070Y028759D02*
X034462Y028759D01*
X034475Y028661D02*
X034371Y028661D01*
X034448Y028858D02*
X033070Y028858D01*
X033070Y028956D02*
X034434Y028956D01*
X034420Y029055D02*
X033070Y029055D01*
X033070Y029153D02*
X034406Y029153D01*
X034390Y029252D02*
X033070Y029252D01*
X033070Y029350D02*
X034367Y029350D01*
X034343Y029449D02*
X033070Y029449D01*
X033070Y029547D02*
X034319Y029547D01*
X034295Y029646D02*
X033070Y029646D01*
X033070Y029744D02*
X034271Y029744D01*
X034242Y029843D02*
X033070Y029843D01*
X033070Y029941D02*
X034208Y029941D01*
X034173Y030040D02*
X033070Y030040D01*
X033070Y030138D02*
X034139Y030138D01*
X034104Y030237D02*
X033070Y030237D01*
X033070Y030335D02*
X034070Y030335D01*
X034026Y030434D02*
X033070Y030434D01*
X033070Y030532D02*
X033980Y030532D01*
X033935Y030631D02*
X033070Y030631D01*
X033070Y030729D02*
X033889Y030729D01*
X033843Y030828D02*
X033070Y030828D01*
X033070Y030926D02*
X033792Y030926D01*
X033733Y031025D02*
X033070Y031025D01*
X033070Y031123D02*
X033675Y031123D01*
X033617Y031222D02*
X033070Y031222D01*
X033063Y031320D02*
X033559Y031320D01*
X033496Y031419D02*
X033013Y031419D01*
X032915Y031517D02*
X033424Y031517D01*
X033352Y031616D02*
X032816Y031616D01*
X032718Y031714D02*
X033280Y031714D01*
X033207Y031813D02*
X031050Y031813D01*
X031080Y031911D02*
X033126Y031911D01*
X033038Y032010D02*
X031080Y032010D01*
X031080Y032108D02*
X032950Y032108D01*
X032861Y032207D02*
X031042Y032207D01*
X031001Y032305D02*
X032769Y032305D01*
X032662Y032404D02*
X030917Y032404D01*
X030804Y032502D02*
X032555Y032502D01*
X032448Y032601D02*
X029167Y032601D01*
X029196Y032502D02*
X029069Y032502D01*
X029083Y032404D02*
X028970Y032404D01*
X029266Y032699D02*
X032336Y032699D01*
X032205Y032798D02*
X029315Y032798D01*
X029330Y032896D02*
X032074Y032896D01*
X031943Y032995D02*
X030435Y032995D01*
X030428Y032990D02*
X030462Y033010D01*
X030490Y033038D01*
X030510Y033072D01*
X030520Y033110D01*
X030520Y033450D01*
X030050Y033450D01*
X030050Y032980D01*
X030390Y032980D01*
X030428Y032990D01*
X030515Y033093D02*
X031792Y033093D01*
X031630Y033192D02*
X030520Y033192D01*
X030520Y033290D02*
X031468Y033290D01*
X031281Y033389D02*
X030520Y033389D01*
X030520Y033586D02*
X030870Y033586D01*
X031076Y033487D02*
X030050Y033487D01*
X030050Y033389D02*
X029950Y033389D01*
X029950Y033290D02*
X030050Y033290D01*
X030050Y033192D02*
X029950Y033192D01*
X029950Y033093D02*
X030050Y033093D01*
X030050Y032995D02*
X029950Y032995D01*
X029565Y032995D02*
X029330Y032995D01*
X029413Y033093D02*
X029485Y033093D01*
X030520Y033684D02*
X030601Y033684D01*
X028788Y034040D02*
X028671Y033992D01*
X028508Y033829D01*
X028467Y033729D01*
X028445Y033773D01*
X028397Y033839D01*
X028339Y033897D01*
X028273Y033945D01*
X028200Y033982D01*
X028122Y034007D01*
X028050Y034019D01*
X028050Y033550D01*
X027950Y033550D01*
X027950Y034019D01*
X027878Y034007D01*
X027800Y033982D01*
X027727Y033945D01*
X027661Y033897D01*
X027603Y033839D01*
X027555Y033773D01*
X027533Y033729D01*
X027492Y033829D01*
X027370Y033950D01*
X027877Y034033D01*
X028470Y034070D01*
X028610Y034050D01*
X028788Y034040D01*
X028659Y033980D02*
X028204Y033980D01*
X028050Y033980D02*
X027950Y033980D01*
X027950Y033881D02*
X028050Y033881D01*
X028050Y033783D02*
X027950Y033783D01*
X027950Y033684D02*
X028050Y033684D01*
X028050Y033586D02*
X027950Y033586D01*
X027950Y033389D02*
X028050Y033389D01*
X028050Y033290D02*
X027950Y033290D01*
X027950Y033192D02*
X028050Y033192D01*
X028050Y033093D02*
X027950Y033093D01*
X027950Y032995D02*
X028050Y032995D01*
X028127Y032995D02*
X028628Y032995D01*
X028587Y033093D02*
X028325Y033093D01*
X028419Y033192D02*
X028500Y033192D01*
X028489Y033783D02*
X028437Y033783D01*
X028354Y033881D02*
X028561Y033881D01*
X027796Y033980D02*
X027551Y033980D01*
X027646Y033881D02*
X027439Y033881D01*
X027511Y033783D02*
X027563Y033783D01*
X027581Y033192D02*
X027500Y033192D01*
X027413Y033093D02*
X027675Y033093D01*
X027873Y032995D02*
X027295Y032995D01*
X027196Y032502D02*
X026804Y032502D01*
X026917Y032404D02*
X027083Y032404D01*
X029804Y032502D02*
X030196Y032502D01*
X030083Y032404D02*
X029917Y032404D01*
X029502Y022948D02*
X029373Y022948D01*
X029471Y022849D02*
X029480Y022849D01*
X030520Y022357D02*
X030645Y022357D01*
D16*
X026850Y026250D02*
X027300Y026700D01*
X027300Y028900D01*
X026950Y029250D01*
X026290Y029250D01*
X026290Y029200D01*
X025750Y029200D01*
X025500Y029450D01*
X025500Y032500D01*
X026500Y033500D01*
X027000Y033500D01*
X026290Y028250D02*
X025100Y028250D01*
X024656Y028250D01*
X024656Y028200D01*
X025600Y027750D02*
X025600Y027700D01*
X025556Y027656D01*
X025600Y027750D02*
X026290Y027750D01*
X026290Y026250D02*
X026850Y026250D01*
X030075Y028050D02*
X030125Y028100D01*
D17*
X025600Y027700D03*
X025500Y027200D03*
D18*
X024900Y028800D03*
X024900Y029400D03*
D19*
X028500Y032000D02*
X028500Y032400D01*
X029000Y032900D01*
X029000Y033500D01*
D20*
X029500Y032000D02*
X029500Y031400D01*
X029750Y031150D01*
X032250Y031150D01*
X032500Y030900D01*
X032500Y028850D01*
X032250Y028600D01*
X031425Y028600D01*
X031425Y028100D02*
X032550Y028100D01*
X032800Y028350D01*
X032800Y031250D01*
X032550Y031500D01*
X030750Y031500D01*
X030500Y031750D01*
X030500Y032000D01*
X031650Y030550D02*
X031900Y030300D01*
X031900Y029850D01*
X031650Y029600D01*
X031425Y029600D01*
X031950Y029100D02*
X032200Y029350D01*
X032200Y030600D01*
X031950Y030850D01*
X028100Y030850D01*
X027500Y031450D01*
X027500Y032000D01*
X026500Y032000D02*
X026500Y031450D01*
X027400Y030550D01*
X031650Y030550D01*
X030125Y029600D02*
X029600Y029600D01*
X029250Y029250D01*
X028710Y029250D01*
X028710Y028750D02*
X029250Y028750D01*
X029600Y029100D01*
X030125Y029100D01*
X030125Y028600D02*
X029600Y028600D01*
X029250Y028250D01*
X028710Y028250D01*
X028710Y027750D02*
X029250Y027750D01*
X029600Y028100D01*
X030125Y028100D01*
X030125Y027300D02*
X030075Y027250D01*
X028710Y027250D01*
X028710Y026750D02*
X030075Y026750D01*
X030075Y026250D02*
X028710Y026250D01*
X027150Y025200D02*
X031700Y025200D01*
X031800Y025300D01*
X031800Y025600D01*
X031700Y025700D01*
X031425Y025700D01*
X031325Y025750D01*
X031425Y026200D02*
X031325Y026250D01*
X031425Y026200D02*
X031850Y026200D01*
X032100Y025950D01*
X032100Y025150D01*
X031850Y024900D01*
X027650Y024900D01*
X027500Y024750D01*
X027500Y024000D01*
X026500Y024000D02*
X026500Y024550D01*
X027150Y025200D01*
X025850Y025800D02*
X030125Y025800D01*
X030075Y025750D01*
X031325Y026700D02*
X031325Y026750D01*
X031325Y026700D02*
X031950Y026700D01*
X032400Y026250D01*
X032400Y024950D01*
X032050Y024600D01*
X029650Y024600D01*
X029500Y024450D01*
X029500Y024000D01*
X030500Y024000D02*
X031950Y024000D01*
X032700Y024750D01*
X032700Y026500D01*
X031950Y027250D01*
X031325Y027250D01*
X031425Y029100D02*
X031950Y029100D01*
X026290Y026750D02*
X025750Y026750D01*
X025600Y026600D01*
X025600Y026050D01*
X025850Y025800D01*
M02*
