G75*
G70*
%OFA0B0*%
%FSLAX24Y24*%
%IPPOS*%
%LPD*%
%AMOC8*
5,1,8,0,0,1.08239X$1,22.5*
%
%ADD10C,0.0100*%
%ADD11C,0.0740*%
%ADD12R,0.0800X0.0260*%
%ADD13R,0.0354X0.0276*%
%ADD14R,0.0512X0.0315*%
%ADD15C,0.0160*%
%ADD16C,0.0396*%
%ADD17C,0.0240*%
%ADD18C,0.0120*%
D10*
X002388Y002337D02*
X002826Y001941D01*
X003300Y001590D01*
X003808Y001288D01*
X004342Y001038D01*
X004899Y000841D01*
X005472Y000701D01*
X006056Y000619D01*
X006646Y000595D01*
X007241Y000631D01*
X007830Y000726D01*
X008406Y000878D01*
X008965Y001086D01*
X009501Y001347D01*
X010009Y001660D01*
X010483Y002021D01*
X010920Y002427D01*
X011315Y002874D01*
X011664Y003357D01*
X011964Y003872D01*
X012212Y004414D01*
X012406Y004978D01*
X012544Y005558D01*
X012624Y006149D01*
X012646Y006745D01*
X012621Y007326D01*
X012540Y007902D01*
X012402Y008468D01*
X012210Y009017D01*
X011965Y009545D01*
X011669Y010046D01*
X011325Y010516D01*
X010937Y010950D01*
X010509Y011343D01*
X010044Y011693D01*
X009547Y011996D01*
X009022Y012248D01*
X008476Y012448D01*
X007912Y012593D01*
X007337Y012682D01*
X006756Y012715D01*
X006616Y012735D01*
X006023Y012697D01*
X005436Y012602D01*
X004862Y012449D01*
X004305Y012241D01*
X003772Y011980D01*
X003266Y011667D01*
X002794Y011306D01*
X002359Y010901D01*
X001967Y010455D01*
X001619Y009973D01*
X001321Y009459D01*
X001074Y008918D01*
X000882Y008356D01*
X000746Y007778D01*
X000667Y007189D01*
X000646Y006595D01*
X000670Y006005D01*
X000753Y005421D01*
X000893Y004847D01*
X001089Y004291D01*
X001339Y003756D01*
X001641Y003249D01*
X001992Y002775D01*
X002388Y002337D01*
X002403Y002324D02*
X004166Y002324D01*
X004154Y002336D02*
X004318Y002173D01*
X004531Y002085D01*
X004761Y002085D01*
X004975Y002173D01*
X005138Y002336D01*
X005146Y002356D01*
X005154Y002336D01*
X005318Y002173D01*
X005531Y002085D01*
X005761Y002085D01*
X005975Y002173D01*
X006138Y002336D01*
X006146Y002356D01*
X006154Y002336D01*
X006318Y002173D01*
X006531Y002085D01*
X006761Y002085D01*
X006975Y002173D01*
X007138Y002336D01*
X007146Y002356D01*
X007154Y002336D01*
X007318Y002173D01*
X007531Y002085D01*
X007761Y002085D01*
X007975Y002173D01*
X008138Y002336D01*
X008146Y002356D01*
X008154Y002336D01*
X008318Y002173D01*
X008531Y002085D01*
X008761Y002085D01*
X008975Y002173D01*
X009138Y002336D01*
X009162Y002395D01*
X010650Y002395D01*
X010749Y002436D01*
X010825Y002512D01*
X011075Y002762D01*
X011116Y002861D01*
X011116Y005718D01*
X011075Y005818D01*
X010999Y005894D01*
X010749Y006144D01*
X010650Y006185D01*
X009911Y006185D01*
X009814Y006282D01*
X009128Y006282D01*
X009005Y006159D01*
X009005Y005670D01*
X009011Y005665D01*
X009005Y005659D01*
X009005Y005170D01*
X009011Y005165D01*
X009005Y005159D01*
X009005Y004670D01*
X009011Y004665D01*
X009005Y004659D01*
X009005Y004170D01*
X009041Y004135D01*
X008651Y004135D01*
X008687Y004170D01*
X008687Y004659D01*
X008681Y004665D01*
X008687Y004670D01*
X008687Y005159D01*
X008681Y005165D01*
X008687Y005170D01*
X008687Y005659D01*
X008681Y005665D01*
X008687Y005670D01*
X008687Y006159D01*
X008564Y006282D01*
X007878Y006282D01*
X007781Y006185D01*
X007546Y006185D01*
X007549Y006186D01*
X007794Y006431D01*
X007878Y006347D01*
X008564Y006347D01*
X008687Y006470D01*
X008687Y006959D01*
X008681Y006965D01*
X008687Y006970D01*
X008687Y007459D01*
X008681Y007465D01*
X008687Y007470D01*
X008687Y007959D01*
X008681Y007965D01*
X008687Y007970D01*
X008687Y008459D01*
X008564Y008582D01*
X007878Y008582D01*
X007831Y008535D01*
X007692Y008535D01*
X007593Y008494D01*
X007517Y008418D01*
X007406Y008307D01*
X007406Y008400D01*
X006871Y008400D01*
X006871Y008430D01*
X006841Y008430D01*
X006841Y008695D01*
X006436Y008695D01*
X006398Y008684D01*
X006364Y008665D01*
X006336Y008637D01*
X006316Y008603D01*
X006306Y008564D01*
X006306Y008430D01*
X006841Y008430D01*
X006841Y008400D01*
X006306Y008400D01*
X006306Y008265D01*
X006316Y008227D01*
X006325Y008211D01*
X006246Y008132D01*
X006246Y007698D01*
X006279Y007665D01*
X006246Y007632D01*
X006246Y007198D01*
X006279Y007165D01*
X006246Y007132D01*
X006246Y006698D01*
X006279Y006665D01*
X006246Y006632D01*
X006246Y006198D01*
X006279Y006165D01*
X006246Y006132D01*
X006246Y005698D01*
X006279Y005665D01*
X006246Y005632D01*
X006246Y005198D01*
X006279Y005165D01*
X006246Y005132D01*
X006246Y004735D01*
X005226Y004735D01*
X005242Y004750D01*
X005242Y004750D01*
X005610Y005119D01*
X005610Y005119D01*
X005692Y005200D01*
X005736Y005307D01*
X005736Y007622D01*
X005692Y007729D01*
X005342Y008079D01*
X005260Y008161D01*
X005154Y008205D01*
X005046Y008205D01*
X005046Y008632D01*
X004923Y008755D01*
X003949Y008755D01*
X003826Y008632D01*
X003826Y008198D01*
X003859Y008165D01*
X003849Y008155D01*
X003288Y008155D01*
X003182Y008111D01*
X003100Y008029D01*
X002601Y007530D01*
X002475Y007656D01*
X002375Y007698D01*
X002419Y007720D01*
X002485Y007768D01*
X002543Y007826D01*
X002591Y007892D01*
X002628Y007965D01*
X002653Y008043D01*
X002665Y008115D01*
X002196Y008115D01*
X002196Y008215D01*
X002665Y008215D01*
X002653Y008286D01*
X002628Y008364D01*
X002591Y008437D01*
X002543Y008503D01*
X002485Y008561D01*
X002419Y008609D01*
X002375Y008632D01*
X002475Y008673D01*
X002638Y008836D01*
X002726Y009049D01*
X002726Y009280D01*
X002638Y009493D01*
X002476Y009655D01*
X002476Y009728D01*
X003783Y011035D01*
X004196Y011035D01*
X004154Y010993D01*
X004066Y010780D01*
X004066Y010549D01*
X004154Y010336D01*
X004318Y010173D01*
X004376Y010149D01*
X004376Y009761D01*
X004417Y009662D01*
X004493Y009586D01*
X005093Y008986D01*
X005192Y008945D01*
X009684Y008945D01*
X009776Y008853D01*
X009776Y008627D01*
X009732Y008582D01*
X009128Y008582D01*
X009005Y008459D01*
X009005Y007970D01*
X009011Y007965D01*
X009005Y007959D01*
X009005Y007470D01*
X009011Y007465D01*
X009005Y007459D01*
X009005Y006970D01*
X009011Y006965D01*
X009005Y006959D01*
X009005Y006470D01*
X009128Y006347D01*
X009814Y006347D01*
X009937Y006470D01*
X009937Y006495D01*
X010750Y006495D01*
X010849Y006536D01*
X010925Y006612D01*
X011175Y006862D01*
X011216Y006961D01*
X011216Y009968D01*
X011175Y010068D01*
X011099Y010144D01*
X010849Y010394D01*
X010750Y010435D01*
X009179Y010435D01*
X009226Y010549D01*
X009226Y010780D01*
X009138Y010993D01*
X008975Y011156D01*
X008761Y011245D01*
X008531Y011245D01*
X008318Y011156D01*
X008154Y010993D01*
X008146Y010973D01*
X008138Y010993D01*
X007975Y011156D01*
X007761Y011245D01*
X007531Y011245D01*
X007318Y011156D01*
X007154Y010993D01*
X007146Y010973D01*
X007138Y010993D01*
X006975Y011156D01*
X006761Y011245D01*
X006533Y011245D01*
X006226Y011552D01*
X006133Y011644D01*
X006012Y011695D01*
X003580Y011695D01*
X003459Y011644D01*
X003366Y011552D01*
X001866Y010052D01*
X001816Y009930D01*
X001816Y009655D01*
X001654Y009493D01*
X001566Y009280D01*
X001566Y009049D01*
X001654Y008836D01*
X001818Y008673D01*
X001917Y008632D01*
X001874Y008609D01*
X001807Y008561D01*
X001749Y008503D01*
X001701Y008437D01*
X001664Y008364D01*
X001639Y008286D01*
X001628Y008215D01*
X002096Y008215D01*
X002096Y008115D01*
X001628Y008115D01*
X001639Y008043D01*
X001664Y007965D01*
X001701Y007892D01*
X001749Y007826D01*
X001807Y007768D01*
X001874Y007720D01*
X001917Y007698D01*
X001818Y007656D01*
X001654Y007493D01*
X001566Y007280D01*
X001566Y007049D01*
X001654Y006836D01*
X001818Y006673D01*
X001838Y006665D01*
X001818Y006656D01*
X001654Y006493D01*
X001566Y006280D01*
X001566Y006049D01*
X001654Y005836D01*
X001818Y005673D01*
X001838Y005665D01*
X001818Y005656D01*
X001677Y005516D01*
X001416Y005777D01*
X001416Y006067D01*
X001533Y006184D01*
X001533Y006634D01*
X001455Y006712D01*
X001463Y006725D01*
X001473Y006763D01*
X001473Y006902D01*
X001165Y006902D01*
X001165Y006939D01*
X001473Y006939D01*
X001473Y007078D01*
X001463Y007116D01*
X001443Y007150D01*
X001415Y007178D01*
X001381Y007198D01*
X001343Y007208D01*
X001165Y007208D01*
X001165Y006939D01*
X001127Y006939D01*
X001127Y006902D01*
X000819Y006902D01*
X000819Y006763D01*
X000829Y006725D01*
X000837Y006712D01*
X000759Y006634D01*
X000759Y006184D01*
X000876Y006067D01*
X000876Y005611D01*
X000917Y005512D01*
X000993Y005436D01*
X000993Y005436D01*
X001493Y004936D01*
X001592Y004895D01*
X001630Y004895D01*
X001654Y004836D01*
X001818Y004673D01*
X001838Y004665D01*
X001818Y004656D01*
X001654Y004493D01*
X001566Y004280D01*
X001566Y004049D01*
X001654Y003836D01*
X001818Y003673D01*
X002031Y003585D01*
X002261Y003585D01*
X002475Y003673D01*
X002638Y003836D01*
X002662Y003895D01*
X002750Y003895D01*
X002849Y003936D01*
X003505Y004592D01*
X003517Y004562D01*
X003767Y004312D01*
X003843Y004236D01*
X003942Y004195D01*
X007755Y004195D01*
X007755Y004170D01*
X007791Y004135D01*
X004742Y004135D01*
X004643Y004094D01*
X004567Y004018D01*
X004417Y003868D01*
X004376Y003768D01*
X004376Y003181D01*
X004318Y003156D01*
X004154Y002993D01*
X004066Y002780D01*
X004066Y002549D01*
X004154Y002336D01*
X004119Y002423D02*
X002311Y002423D01*
X002222Y002521D02*
X004078Y002521D01*
X004066Y002620D02*
X002132Y002620D01*
X002043Y002718D02*
X004066Y002718D01*
X004081Y002817D02*
X001961Y002817D01*
X001888Y002915D02*
X004122Y002915D01*
X004175Y003014D02*
X001815Y003014D01*
X001743Y003112D02*
X004273Y003112D01*
X004376Y003211D02*
X001670Y003211D01*
X001606Y003309D02*
X004376Y003309D01*
X004376Y003408D02*
X001547Y003408D01*
X001488Y003506D02*
X004376Y003506D01*
X004376Y003605D02*
X002310Y003605D01*
X001982Y003605D02*
X001430Y003605D01*
X001371Y003703D02*
X001787Y003703D01*
X001689Y003802D02*
X001318Y003802D01*
X001272Y003900D02*
X001628Y003900D01*
X001587Y003999D02*
X001226Y003999D01*
X001180Y004097D02*
X001566Y004097D01*
X001566Y004196D02*
X001133Y004196D01*
X001088Y004294D02*
X001572Y004294D01*
X001613Y004393D02*
X001053Y004393D01*
X001018Y004491D02*
X001654Y004491D01*
X001751Y004590D02*
X000984Y004590D01*
X000949Y004688D02*
X001802Y004688D01*
X001704Y004787D02*
X000914Y004787D01*
X000884Y004885D02*
X001634Y004885D01*
X001445Y004984D02*
X000860Y004984D01*
X000835Y005082D02*
X001347Y005082D01*
X001248Y005181D02*
X000811Y005181D01*
X000787Y005279D02*
X001150Y005279D01*
X001051Y005378D02*
X000763Y005378D01*
X000745Y005476D02*
X000953Y005476D01*
X000891Y005575D02*
X000731Y005575D01*
X000717Y005673D02*
X000876Y005673D01*
X000876Y005772D02*
X000703Y005772D01*
X000689Y005870D02*
X000876Y005870D01*
X000876Y005969D02*
X000675Y005969D01*
X000668Y006067D02*
X000876Y006067D01*
X000777Y006166D02*
X000664Y006166D01*
X000660Y006264D02*
X000759Y006264D01*
X000759Y006363D02*
X000656Y006363D01*
X000652Y006461D02*
X000759Y006461D01*
X000759Y006560D02*
X000648Y006560D01*
X000648Y006658D02*
X000784Y006658D01*
X000821Y006757D02*
X000652Y006757D01*
X000655Y006855D02*
X000819Y006855D01*
X000819Y006939D02*
X000819Y007078D01*
X000829Y007116D01*
X000849Y007150D01*
X000877Y007178D01*
X000911Y007198D01*
X000949Y007208D01*
X001127Y007208D01*
X001127Y006939D01*
X000819Y006939D01*
X000819Y006954D02*
X000659Y006954D01*
X000662Y007052D02*
X000819Y007052D01*
X000849Y007151D02*
X000666Y007151D01*
X000675Y007249D02*
X001566Y007249D01*
X001566Y007151D02*
X001443Y007151D01*
X001473Y007052D02*
X001566Y007052D01*
X001606Y006954D02*
X001473Y006954D01*
X001473Y006855D02*
X001646Y006855D01*
X001734Y006757D02*
X001472Y006757D01*
X001509Y006658D02*
X001822Y006658D01*
X001721Y006560D02*
X001533Y006560D01*
X001533Y006461D02*
X001641Y006461D01*
X001600Y006363D02*
X001533Y006363D01*
X001533Y006264D02*
X001566Y006264D01*
X001566Y006166D02*
X001515Y006166D01*
X001566Y006067D02*
X001416Y006067D01*
X001416Y005969D02*
X001599Y005969D01*
X001640Y005870D02*
X001416Y005870D01*
X001421Y005772D02*
X001719Y005772D01*
X001817Y005673D02*
X001519Y005673D01*
X001618Y005575D02*
X001736Y005575D01*
X003316Y005967D02*
X003316Y006353D01*
X003558Y006595D01*
X003894Y006595D01*
X003886Y006564D01*
X003886Y006430D01*
X004421Y006430D01*
X004421Y006400D01*
X003886Y006400D01*
X003886Y006265D01*
X003896Y006227D01*
X003905Y006211D01*
X003879Y006185D01*
X003592Y006185D01*
X003493Y006144D01*
X003417Y006068D01*
X003316Y005967D01*
X003316Y005969D02*
X003318Y005969D01*
X003316Y006067D02*
X003417Y006067D01*
X003316Y006166D02*
X003547Y006166D01*
X003316Y006264D02*
X003886Y006264D01*
X003886Y006363D02*
X003326Y006363D01*
X003424Y006461D02*
X003886Y006461D01*
X003886Y006560D02*
X003523Y006560D01*
X004451Y006430D02*
X004986Y006430D01*
X004986Y006564D01*
X004976Y006603D01*
X004967Y006618D01*
X005046Y006698D01*
X005046Y007132D01*
X005013Y007165D01*
X005046Y007198D01*
X005046Y007555D01*
X005156Y007445D01*
X005156Y005485D01*
X005046Y005375D01*
X005046Y005632D01*
X005013Y005665D01*
X005046Y005698D01*
X005046Y006132D01*
X004967Y006211D01*
X004976Y006227D01*
X004986Y006265D01*
X004986Y006400D01*
X004451Y006400D01*
X004451Y006430D01*
X004986Y006461D02*
X005156Y006461D01*
X005156Y006363D02*
X004986Y006363D01*
X004986Y006264D02*
X005156Y006264D01*
X005156Y006166D02*
X005012Y006166D01*
X005046Y006067D02*
X005156Y006067D01*
X005156Y005969D02*
X005046Y005969D01*
X005046Y005870D02*
X005156Y005870D01*
X005156Y005772D02*
X005046Y005772D01*
X005022Y005673D02*
X005156Y005673D01*
X005156Y005575D02*
X005046Y005575D01*
X005046Y005476D02*
X005147Y005476D01*
X005049Y005378D02*
X005046Y005378D01*
X005475Y004984D02*
X006246Y004984D01*
X006246Y005082D02*
X005574Y005082D01*
X005672Y005181D02*
X006263Y005181D01*
X006246Y005279D02*
X005725Y005279D01*
X005736Y005378D02*
X006246Y005378D01*
X006246Y005476D02*
X005736Y005476D01*
X005736Y005575D02*
X006246Y005575D01*
X006271Y005673D02*
X005736Y005673D01*
X005736Y005772D02*
X006246Y005772D01*
X006246Y005870D02*
X005736Y005870D01*
X005736Y005969D02*
X006246Y005969D01*
X006246Y006067D02*
X005736Y006067D01*
X005736Y006166D02*
X006278Y006166D01*
X006246Y006264D02*
X005736Y006264D01*
X005736Y006363D02*
X006246Y006363D01*
X006246Y006461D02*
X005736Y006461D01*
X005736Y006560D02*
X006246Y006560D01*
X006273Y006658D02*
X005736Y006658D01*
X005736Y006757D02*
X006246Y006757D01*
X006246Y006855D02*
X005736Y006855D01*
X005736Y006954D02*
X006246Y006954D01*
X006246Y007052D02*
X005736Y007052D01*
X005736Y007151D02*
X006265Y007151D01*
X006246Y007249D02*
X005736Y007249D01*
X005736Y007348D02*
X006246Y007348D01*
X006246Y007446D02*
X005736Y007446D01*
X005736Y007545D02*
X006246Y007545D01*
X006258Y007643D02*
X005727Y007643D01*
X005679Y007742D02*
X006246Y007742D01*
X006246Y007840D02*
X005581Y007840D01*
X005482Y007939D02*
X006246Y007939D01*
X006246Y008037D02*
X005384Y008037D01*
X005342Y008079D02*
X005342Y008079D01*
X005285Y008136D02*
X006250Y008136D01*
X006314Y008234D02*
X005046Y008234D01*
X005046Y008333D02*
X006306Y008333D01*
X006306Y008431D02*
X005046Y008431D01*
X005046Y008530D02*
X006306Y008530D01*
X006331Y008628D02*
X005046Y008628D01*
X004951Y008727D02*
X009776Y008727D01*
X009776Y008825D02*
X002627Y008825D01*
X002674Y008924D02*
X009705Y008924D01*
X009776Y008628D02*
X007381Y008628D01*
X007376Y008637D02*
X007348Y008665D01*
X007314Y008684D01*
X007276Y008695D01*
X006871Y008695D01*
X006871Y008430D01*
X007406Y008430D01*
X007406Y008564D01*
X007396Y008603D01*
X007376Y008637D01*
X007406Y008530D02*
X007680Y008530D01*
X007531Y008431D02*
X007406Y008431D01*
X007406Y008333D02*
X007432Y008333D01*
X006871Y008431D02*
X006841Y008431D01*
X006841Y008530D02*
X006871Y008530D01*
X006871Y008628D02*
X006841Y008628D01*
X008221Y008215D02*
X008271Y008265D01*
X008687Y008234D02*
X009005Y008234D01*
X009005Y008136D02*
X008687Y008136D01*
X008687Y008037D02*
X009005Y008037D01*
X009005Y007939D02*
X008687Y007939D01*
X008687Y007840D02*
X009005Y007840D01*
X009005Y007742D02*
X008687Y007742D01*
X008687Y007643D02*
X009005Y007643D01*
X009005Y007545D02*
X008687Y007545D01*
X008687Y007446D02*
X009005Y007446D01*
X009005Y007348D02*
X008687Y007348D01*
X008687Y007249D02*
X009005Y007249D01*
X009005Y007151D02*
X008687Y007151D01*
X008687Y007052D02*
X009005Y007052D01*
X009005Y006954D02*
X008687Y006954D01*
X008687Y006855D02*
X009005Y006855D01*
X009005Y006757D02*
X008687Y006757D01*
X008687Y006658D02*
X009005Y006658D01*
X009005Y006560D02*
X008687Y006560D01*
X008678Y006461D02*
X009014Y006461D01*
X009113Y006363D02*
X008579Y006363D01*
X008582Y006264D02*
X009110Y006264D01*
X009012Y006166D02*
X008680Y006166D01*
X008687Y006067D02*
X009005Y006067D01*
X009005Y005969D02*
X008687Y005969D01*
X008687Y005870D02*
X009005Y005870D01*
X009005Y005772D02*
X008687Y005772D01*
X008687Y005673D02*
X009005Y005673D01*
X009005Y005575D02*
X008687Y005575D01*
X008687Y005476D02*
X009005Y005476D01*
X009005Y005378D02*
X008687Y005378D01*
X008687Y005279D02*
X009005Y005279D01*
X009005Y005181D02*
X008687Y005181D01*
X008687Y005082D02*
X009005Y005082D01*
X009005Y004984D02*
X008687Y004984D01*
X008687Y004885D02*
X009005Y004885D01*
X009005Y004787D02*
X008687Y004787D01*
X008687Y004688D02*
X009005Y004688D01*
X009005Y004590D02*
X008687Y004590D01*
X008687Y004491D02*
X009005Y004491D01*
X009005Y004393D02*
X008687Y004393D01*
X008687Y004294D02*
X009005Y004294D01*
X009005Y004196D02*
X008687Y004196D01*
X006246Y004787D02*
X005278Y004787D01*
X005377Y004885D02*
X006246Y004885D01*
X004652Y004097D02*
X003010Y004097D01*
X002912Y003999D02*
X004548Y003999D01*
X004450Y003900D02*
X002763Y003900D01*
X002603Y003802D02*
X004390Y003802D01*
X004376Y003703D02*
X002505Y003703D01*
X003109Y004196D02*
X003940Y004196D01*
X003785Y004294D02*
X003207Y004294D01*
X003306Y004393D02*
X003686Y004393D01*
X003588Y004491D02*
X003404Y004491D01*
X003503Y004590D02*
X003506Y004590D01*
X004986Y006560D02*
X005156Y006560D01*
X005156Y006658D02*
X005007Y006658D01*
X005046Y006757D02*
X005156Y006757D01*
X005156Y006855D02*
X005046Y006855D01*
X005046Y006954D02*
X005156Y006954D01*
X005156Y007052D02*
X005046Y007052D01*
X005027Y007151D02*
X005156Y007151D01*
X005156Y007249D02*
X005046Y007249D01*
X005046Y007348D02*
X005156Y007348D01*
X005154Y007446D02*
X005046Y007446D01*
X005046Y007545D02*
X005056Y007545D01*
X003826Y008234D02*
X002662Y008234D01*
X002638Y008333D02*
X003826Y008333D01*
X003826Y008431D02*
X002594Y008431D01*
X002516Y008530D02*
X003826Y008530D01*
X003826Y008628D02*
X002382Y008628D01*
X002528Y008727D02*
X003921Y008727D01*
X003243Y008136D02*
X002196Y008136D01*
X002096Y008136D02*
X000830Y008136D01*
X000853Y008234D02*
X001631Y008234D01*
X001654Y008333D02*
X000877Y008333D01*
X000908Y008431D02*
X001698Y008431D01*
X001776Y008530D02*
X000942Y008530D01*
X000975Y008628D02*
X001910Y008628D01*
X001764Y008727D02*
X001009Y008727D01*
X001043Y008825D02*
X001665Y008825D01*
X001618Y008924D02*
X001077Y008924D01*
X001122Y009022D02*
X001577Y009022D01*
X001566Y009121D02*
X001167Y009121D01*
X001212Y009219D02*
X001566Y009219D01*
X001582Y009318D02*
X001257Y009318D01*
X001301Y009416D02*
X001622Y009416D01*
X001676Y009515D02*
X001353Y009515D01*
X001410Y009613D02*
X001774Y009613D01*
X001816Y009712D02*
X001468Y009712D01*
X001525Y009810D02*
X001816Y009810D01*
X001816Y009909D02*
X001582Y009909D01*
X001644Y010007D02*
X001848Y010007D01*
X001920Y010106D02*
X001715Y010106D01*
X001786Y010204D02*
X002019Y010204D01*
X002117Y010303D02*
X001857Y010303D01*
X001928Y010401D02*
X002216Y010401D01*
X002314Y010500D02*
X002006Y010500D01*
X002093Y010598D02*
X002413Y010598D01*
X002511Y010697D02*
X002179Y010697D01*
X002266Y010795D02*
X002610Y010795D01*
X002708Y010894D02*
X002353Y010894D01*
X002457Y010992D02*
X002807Y010992D01*
X002905Y011091D02*
X002563Y011091D01*
X002668Y011189D02*
X003004Y011189D01*
X003102Y011288D02*
X002774Y011288D01*
X002899Y011386D02*
X003201Y011386D01*
X003299Y011485D02*
X003028Y011485D01*
X003157Y011583D02*
X003398Y011583D01*
X003290Y011682D02*
X003549Y011682D01*
X003449Y011780D02*
X009901Y011780D01*
X010059Y011682D02*
X006043Y011682D01*
X006194Y011583D02*
X010190Y011583D01*
X010321Y011485D02*
X006293Y011485D01*
X006226Y011552D02*
X006226Y011552D01*
X006391Y011386D02*
X010452Y011386D01*
X010569Y011288D02*
X006490Y011288D01*
X006895Y011189D02*
X007397Y011189D01*
X007252Y011091D02*
X007040Y011091D01*
X007138Y010992D02*
X007154Y010992D01*
X007895Y011189D02*
X008397Y011189D01*
X008252Y011091D02*
X008040Y011091D01*
X008138Y010992D02*
X008154Y010992D01*
X008895Y011189D02*
X010677Y011189D01*
X010784Y011091D02*
X009040Y011091D01*
X009138Y010992D02*
X010891Y010992D01*
X010987Y010894D02*
X009179Y010894D01*
X009220Y010795D02*
X011075Y010795D01*
X011164Y010697D02*
X009226Y010697D01*
X009226Y010598D02*
X011252Y010598D01*
X011337Y010500D02*
X009206Y010500D01*
X010831Y010401D02*
X011409Y010401D01*
X011481Y010303D02*
X010940Y010303D01*
X011038Y010204D02*
X011553Y010204D01*
X011625Y010106D02*
X011137Y010106D01*
X011099Y010144D02*
X011099Y010144D01*
X011200Y010007D02*
X011692Y010007D01*
X011750Y009909D02*
X011216Y009909D01*
X011216Y009810D02*
X011808Y009810D01*
X011866Y009712D02*
X011216Y009712D01*
X011216Y009613D02*
X011924Y009613D01*
X011979Y009515D02*
X011216Y009515D01*
X011216Y009416D02*
X012024Y009416D01*
X012070Y009318D02*
X011216Y009318D01*
X011216Y009219D02*
X012116Y009219D01*
X012162Y009121D02*
X011216Y009121D01*
X011216Y009022D02*
X012208Y009022D01*
X012243Y008924D02*
X011216Y008924D01*
X011216Y008825D02*
X012277Y008825D01*
X012312Y008727D02*
X011216Y008727D01*
X011216Y008628D02*
X012346Y008628D01*
X012381Y008530D02*
X011216Y008530D01*
X011216Y008431D02*
X012411Y008431D01*
X012435Y008333D02*
X011216Y008333D01*
X011216Y008234D02*
X012459Y008234D01*
X012483Y008136D02*
X011216Y008136D01*
X011216Y008037D02*
X012507Y008037D01*
X012531Y007939D02*
X011216Y007939D01*
X011216Y007840D02*
X012549Y007840D01*
X012563Y007742D02*
X011216Y007742D01*
X011216Y007643D02*
X012577Y007643D01*
X012591Y007545D02*
X011216Y007545D01*
X011216Y007446D02*
X012604Y007446D01*
X012618Y007348D02*
X011216Y007348D01*
X011216Y007249D02*
X012625Y007249D01*
X012629Y007151D02*
X011216Y007151D01*
X011216Y007052D02*
X012633Y007052D01*
X012637Y006954D02*
X011213Y006954D01*
X011168Y006855D02*
X012641Y006855D01*
X012646Y006757D02*
X011070Y006757D01*
X010971Y006658D02*
X012643Y006658D01*
X012639Y006560D02*
X010873Y006560D01*
X010696Y006166D02*
X012625Y006166D01*
X012628Y006264D02*
X009832Y006264D01*
X009829Y006363D02*
X012632Y006363D01*
X012636Y006461D02*
X009928Y006461D01*
X009571Y006765D02*
X009471Y006715D01*
X009471Y007215D02*
X009571Y007265D01*
X009471Y007715D02*
X009571Y007765D01*
X009471Y008215D02*
X009571Y008265D01*
X009076Y008530D02*
X008616Y008530D01*
X008687Y008431D02*
X009005Y008431D01*
X009005Y008333D02*
X008687Y008333D01*
X008271Y007765D02*
X008221Y007715D01*
X008271Y007265D02*
X008221Y007215D01*
X007863Y006363D02*
X007726Y006363D01*
X007627Y006264D02*
X007860Y006264D01*
X000150Y006665D02*
X000158Y006984D01*
X000181Y007302D01*
X000220Y007618D01*
X000275Y007932D01*
X000345Y008243D01*
X000430Y008551D01*
X000530Y008853D01*
X000644Y009151D01*
X000774Y009442D01*
X000917Y009727D01*
X001074Y010005D01*
X001245Y010274D01*
X001428Y010535D01*
X001625Y010786D01*
X001833Y011027D01*
X002053Y011258D01*
X002284Y011478D01*
X002525Y011686D01*
X002776Y011883D01*
X003037Y012066D01*
X003306Y012237D01*
X003584Y012394D01*
X003869Y012537D01*
X004160Y012667D01*
X004458Y012781D01*
X004760Y012881D01*
X005068Y012966D01*
X005379Y013036D01*
X005693Y013091D01*
X006009Y013130D01*
X006327Y013153D01*
X006646Y013161D01*
X006965Y013153D01*
X007283Y013130D01*
X007599Y013091D01*
X007913Y013036D01*
X008224Y012966D01*
X008532Y012881D01*
X008834Y012781D01*
X009132Y012667D01*
X009423Y012537D01*
X009708Y012394D01*
X009986Y012237D01*
X010255Y012066D01*
X010516Y011883D01*
X010767Y011686D01*
X011008Y011478D01*
X011239Y011258D01*
X011459Y011027D01*
X011667Y010786D01*
X011864Y010535D01*
X012047Y010274D01*
X012218Y010005D01*
X012375Y009727D01*
X012518Y009442D01*
X012648Y009151D01*
X012762Y008853D01*
X012862Y008551D01*
X012947Y008243D01*
X013017Y007932D01*
X013072Y007618D01*
X013111Y007302D01*
X013134Y006984D01*
X013142Y006665D01*
X013134Y006346D01*
X013111Y006028D01*
X013072Y005712D01*
X013017Y005398D01*
X012947Y005087D01*
X012862Y004779D01*
X012762Y004477D01*
X012648Y004179D01*
X012518Y003888D01*
X012375Y003603D01*
X012218Y003325D01*
X012047Y003056D01*
X011864Y002795D01*
X011667Y002544D01*
X011459Y002303D01*
X011239Y002072D01*
X011008Y001852D01*
X010767Y001644D01*
X010516Y001447D01*
X010255Y001264D01*
X009986Y001093D01*
X009708Y000936D01*
X009423Y000793D01*
X009132Y000663D01*
X008834Y000549D01*
X008532Y000449D01*
X008224Y000364D01*
X007913Y000294D01*
X007599Y000239D01*
X007283Y000200D01*
X006965Y000177D01*
X006646Y000169D01*
X006327Y000177D01*
X006009Y000200D01*
X005693Y000239D01*
X005379Y000294D01*
X005068Y000364D01*
X004760Y000449D01*
X004458Y000549D01*
X004160Y000663D01*
X003869Y000793D01*
X003584Y000936D01*
X003306Y001093D01*
X003037Y001264D01*
X002776Y001447D01*
X002525Y001644D01*
X002284Y001852D01*
X002053Y002072D01*
X001833Y002303D01*
X001625Y002544D01*
X001428Y002795D01*
X001245Y003056D01*
X001074Y003325D01*
X000917Y003603D01*
X000774Y003888D01*
X000644Y004179D01*
X000530Y004477D01*
X000430Y004779D01*
X000345Y005087D01*
X000275Y005398D01*
X000220Y005712D01*
X000181Y006028D01*
X000158Y006346D01*
X000150Y006665D01*
X000688Y007348D02*
X001594Y007348D01*
X001635Y007446D02*
X000701Y007446D01*
X000715Y007545D02*
X001706Y007545D01*
X001804Y007643D02*
X000728Y007643D01*
X000741Y007742D02*
X001844Y007742D01*
X001739Y007840D02*
X000761Y007840D01*
X000784Y007939D02*
X001678Y007939D01*
X001641Y008037D02*
X000807Y008037D01*
X001127Y007151D02*
X001165Y007151D01*
X001165Y007052D02*
X001127Y007052D01*
X001127Y006954D02*
X001165Y006954D01*
X002488Y007643D02*
X002714Y007643D01*
X002616Y007545D02*
X002586Y007545D01*
X002449Y007742D02*
X002813Y007742D01*
X002911Y007840D02*
X002553Y007840D01*
X002615Y007939D02*
X003010Y007939D01*
X003108Y008037D02*
X002651Y008037D01*
X002715Y009022D02*
X005057Y009022D01*
X004958Y009121D02*
X002726Y009121D01*
X002726Y009219D02*
X004860Y009219D01*
X004761Y009318D02*
X002710Y009318D01*
X002670Y009416D02*
X004663Y009416D01*
X004564Y009515D02*
X002616Y009515D01*
X002518Y009613D02*
X004466Y009613D01*
X004396Y009712D02*
X002476Y009712D01*
X002558Y009810D02*
X004376Y009810D01*
X004376Y009909D02*
X002657Y009909D01*
X002755Y010007D02*
X004376Y010007D01*
X004376Y010106D02*
X002854Y010106D01*
X002952Y010204D02*
X004286Y010204D01*
X004188Y010303D02*
X003051Y010303D01*
X003149Y010401D02*
X004127Y010401D01*
X004087Y010500D02*
X003248Y010500D01*
X003346Y010598D02*
X004066Y010598D01*
X004066Y010697D02*
X003445Y010697D01*
X003543Y010795D02*
X004072Y010795D01*
X004113Y010894D02*
X003642Y010894D01*
X003740Y010992D02*
X004154Y010992D01*
X003609Y011879D02*
X009739Y011879D01*
X009577Y011977D02*
X003768Y011977D01*
X003968Y012076D02*
X009380Y012076D01*
X009176Y012174D02*
X004169Y012174D01*
X004390Y012273D02*
X008955Y012273D01*
X008685Y012371D02*
X004653Y012371D01*
X004939Y012470D02*
X008390Y012470D01*
X008008Y012568D02*
X005310Y012568D01*
X005836Y012667D02*
X007437Y012667D01*
X010825Y006067D02*
X012613Y006067D01*
X012600Y005969D02*
X010924Y005969D01*
X011022Y005870D02*
X012586Y005870D01*
X012573Y005772D02*
X011094Y005772D01*
X011116Y005673D02*
X012560Y005673D01*
X012546Y005575D02*
X011116Y005575D01*
X011116Y005476D02*
X012525Y005476D01*
X012501Y005378D02*
X011116Y005378D01*
X011116Y005279D02*
X012478Y005279D01*
X012454Y005181D02*
X011116Y005181D01*
X011116Y005082D02*
X012431Y005082D01*
X012408Y004984D02*
X011116Y004984D01*
X011116Y004885D02*
X012374Y004885D01*
X012340Y004787D02*
X011116Y004787D01*
X011116Y004688D02*
X012307Y004688D01*
X012273Y004590D02*
X011116Y004590D01*
X011116Y004491D02*
X012239Y004491D01*
X012202Y004393D02*
X011116Y004393D01*
X011116Y004294D02*
X012157Y004294D01*
X012112Y004196D02*
X011116Y004196D01*
X011116Y004097D02*
X012067Y004097D01*
X012022Y003999D02*
X011116Y003999D01*
X011116Y003900D02*
X011977Y003900D01*
X011923Y003802D02*
X011116Y003802D01*
X011116Y003703D02*
X011866Y003703D01*
X011808Y003605D02*
X011116Y003605D01*
X011116Y003506D02*
X011751Y003506D01*
X011693Y003408D02*
X011116Y003408D01*
X011116Y003309D02*
X011629Y003309D01*
X011558Y003211D02*
X011116Y003211D01*
X011116Y003112D02*
X011487Y003112D01*
X011416Y003014D02*
X011116Y003014D01*
X011116Y002915D02*
X011345Y002915D01*
X011264Y002817D02*
X011098Y002817D01*
X011031Y002718D02*
X011177Y002718D01*
X011090Y002620D02*
X010933Y002620D01*
X011003Y002521D02*
X010834Y002521D01*
X010915Y002423D02*
X010717Y002423D01*
X010809Y002324D02*
X009126Y002324D01*
X009027Y002226D02*
X010703Y002226D01*
X010597Y002127D02*
X008864Y002127D01*
X008428Y002127D02*
X007864Y002127D01*
X008027Y002226D02*
X008265Y002226D01*
X008166Y002324D02*
X008126Y002324D01*
X007428Y002127D02*
X006864Y002127D01*
X007027Y002226D02*
X007265Y002226D01*
X007166Y002324D02*
X007126Y002324D01*
X006428Y002127D02*
X005864Y002127D01*
X006027Y002226D02*
X006265Y002226D01*
X006166Y002324D02*
X006126Y002324D01*
X005428Y002127D02*
X004864Y002127D01*
X005027Y002226D02*
X005265Y002226D01*
X005166Y002324D02*
X005126Y002324D01*
X004428Y002127D02*
X002620Y002127D01*
X002729Y002029D02*
X010491Y002029D01*
X010363Y001930D02*
X002840Y001930D01*
X002974Y001832D02*
X010234Y001832D01*
X010104Y001733D02*
X003107Y001733D01*
X003240Y001635D02*
X009967Y001635D01*
X009807Y001536D02*
X003391Y001536D01*
X003556Y001438D02*
X009648Y001438D01*
X009484Y001339D02*
X003722Y001339D01*
X003909Y001241D02*
X009282Y001241D01*
X009081Y001142D02*
X004119Y001142D01*
X004329Y001044D02*
X008852Y001044D01*
X008587Y000945D02*
X004604Y000945D01*
X004884Y000847D02*
X008287Y000847D01*
X007914Y000748D02*
X005281Y000748D01*
X005839Y000650D02*
X007355Y000650D01*
X004265Y002226D02*
X002511Y002226D01*
D11*
X004646Y002665D03*
X005646Y002665D03*
X006646Y002665D03*
X007646Y002665D03*
X008646Y002665D03*
X002146Y004165D03*
X002146Y005165D03*
X002146Y006165D03*
X002146Y007165D03*
X002146Y008165D03*
X002146Y009165D03*
X004646Y010665D03*
X005646Y010665D03*
X006646Y010665D03*
X007646Y010665D03*
X008646Y010665D03*
D12*
X006856Y008415D03*
X006856Y007915D03*
X006856Y007415D03*
X006856Y006915D03*
X006856Y006415D03*
X006856Y005915D03*
X006856Y005415D03*
X006856Y004915D03*
X004436Y004915D03*
X004436Y005415D03*
X004436Y005915D03*
X004436Y006415D03*
X004436Y006915D03*
X004436Y007415D03*
X004436Y007915D03*
X004436Y008415D03*
D13*
X001146Y006921D03*
X001146Y006409D03*
D14*
X008221Y006715D03*
X008221Y007215D03*
X008221Y007715D03*
X008221Y008215D03*
X009471Y008215D03*
X009471Y007715D03*
X009471Y007215D03*
X009471Y006715D03*
X009471Y005915D03*
X009471Y005415D03*
X009471Y004915D03*
X009471Y004415D03*
X008221Y004415D03*
X008221Y004915D03*
X008221Y005415D03*
X008221Y005915D03*
D15*
X008221Y006715D02*
X008271Y006765D01*
X005446Y007565D02*
X005446Y005365D01*
X004996Y004915D01*
X004436Y004915D01*
X002446Y006165D02*
X002146Y006165D01*
X002146Y007165D02*
X002646Y007165D01*
X003346Y007865D01*
X004386Y007865D01*
X004436Y007915D01*
X005096Y007915D01*
X005446Y007565D01*
X004436Y007415D02*
X004386Y007465D01*
X004436Y006915D02*
X004386Y006865D01*
X004436Y006415D02*
X003636Y006415D01*
D16*
X003636Y006415D03*
D17*
X002146Y009165D02*
X002146Y009865D01*
X003646Y011365D01*
X005946Y011365D01*
X006646Y010665D01*
D18*
X007646Y010665D02*
X007646Y010065D01*
X007896Y009815D01*
X010396Y009815D01*
X010646Y009565D01*
X010646Y007515D01*
X010396Y007265D01*
X009571Y007265D01*
X009571Y007765D02*
X010096Y007765D01*
X010346Y008015D01*
X010346Y009265D01*
X010096Y009515D01*
X006046Y009515D01*
X005646Y009915D01*
X005646Y010665D01*
X004646Y010665D02*
X004646Y009815D01*
X005246Y009215D01*
X009796Y009215D01*
X010046Y008965D01*
X010046Y008515D01*
X009796Y008265D01*
X009571Y008265D01*
X008271Y008265D02*
X007746Y008265D01*
X007396Y007915D01*
X006856Y007915D01*
X006856Y007415D02*
X007396Y007415D01*
X007746Y007765D01*
X008271Y007765D01*
X008271Y007265D02*
X007746Y007265D01*
X007396Y006915D01*
X006856Y006915D01*
X006856Y006415D02*
X007396Y006415D01*
X007746Y006765D01*
X008271Y006765D01*
X008271Y005965D02*
X008221Y005915D01*
X006856Y005915D01*
X006856Y005415D02*
X008221Y005415D01*
X008221Y004915D02*
X006856Y004915D01*
X008221Y004415D02*
X008271Y004465D01*
X003996Y004465D01*
X003746Y004715D01*
X003746Y005265D01*
X003896Y005415D01*
X004436Y005415D01*
X004436Y005915D02*
X003646Y005915D01*
X003396Y005665D01*
X003396Y004865D01*
X002696Y004165D01*
X002146Y004165D01*
X002146Y005165D02*
X001646Y005165D01*
X001146Y005665D01*
X001146Y006409D01*
X002446Y006165D02*
X002646Y006365D01*
X002646Y006565D01*
X003546Y007465D01*
X004386Y007465D01*
X004386Y006865D02*
X003446Y006865D01*
X003046Y006465D01*
X003046Y005415D01*
X002796Y005165D01*
X002146Y005165D01*
X004646Y003715D02*
X004796Y003865D01*
X009846Y003865D01*
X009946Y003965D01*
X009946Y004265D01*
X009846Y004365D01*
X009571Y004365D01*
X009471Y004415D01*
X009571Y004865D02*
X009471Y004915D01*
X009571Y004865D02*
X009996Y004865D01*
X010246Y004615D01*
X010246Y003815D01*
X009996Y003565D01*
X005796Y003565D01*
X005646Y003415D01*
X005646Y002665D01*
X004646Y002665D02*
X004646Y003715D01*
X007646Y003115D02*
X007646Y002665D01*
X007646Y003115D02*
X007796Y003265D01*
X010296Y003265D01*
X010546Y003515D01*
X010546Y005115D01*
X010296Y005365D01*
X009471Y005365D01*
X009471Y005415D01*
X009471Y005915D02*
X010596Y005915D01*
X010846Y005665D01*
X010846Y002915D01*
X010596Y002665D01*
X008646Y002665D01*
X009571Y006765D02*
X010696Y006765D01*
X010946Y007015D01*
X010946Y009915D01*
X010696Y010165D01*
X008896Y010165D01*
X008646Y010415D01*
X008646Y010665D01*
M02*
