G75*
G70*
%OFA0B0*%
%FSLAX24Y24*%
%IPPOS*%
%LPD*%
%AMOC8*
5,1,8,0,0,1.08239X$1,22.5*
%
%ADD10C,0.0100*%
%ADD11C,0.0000*%
D10*
X022004Y028000D02*
X022012Y028319D01*
X022035Y028637D01*
X022074Y028953D01*
X022129Y029267D01*
X022199Y029578D01*
X022284Y029886D01*
X022384Y030188D01*
X022498Y030486D01*
X022628Y030777D01*
X022771Y031062D01*
X022928Y031340D01*
X023099Y031609D01*
X023282Y031870D01*
X023479Y032121D01*
X023687Y032362D01*
X023907Y032593D01*
X024138Y032813D01*
X024379Y033021D01*
X024630Y033218D01*
X024891Y033401D01*
X025160Y033572D01*
X025438Y033729D01*
X025723Y033872D01*
X026014Y034002D01*
X026312Y034116D01*
X026614Y034216D01*
X026922Y034301D01*
X027233Y034371D01*
X027547Y034426D01*
X027863Y034465D01*
X028181Y034488D01*
X028500Y034496D01*
X028819Y034488D01*
X029137Y034465D01*
X029453Y034426D01*
X029767Y034371D01*
X030078Y034301D01*
X030386Y034216D01*
X030688Y034116D01*
X030986Y034002D01*
X031277Y033872D01*
X031562Y033729D01*
X031840Y033572D01*
X032109Y033401D01*
X032370Y033218D01*
X032621Y033021D01*
X032862Y032813D01*
X033093Y032593D01*
X033313Y032362D01*
X033521Y032121D01*
X033718Y031870D01*
X033901Y031609D01*
X034072Y031340D01*
X034229Y031062D01*
X034372Y030777D01*
X034502Y030486D01*
X034616Y030188D01*
X034716Y029886D01*
X034801Y029578D01*
X034871Y029267D01*
X034926Y028953D01*
X034965Y028637D01*
X034988Y028319D01*
X034996Y028000D01*
X034988Y027681D01*
X034965Y027363D01*
X034926Y027047D01*
X034871Y026733D01*
X034801Y026422D01*
X034716Y026114D01*
X034616Y025812D01*
X034502Y025514D01*
X034372Y025223D01*
X034229Y024938D01*
X034072Y024660D01*
X033901Y024391D01*
X033718Y024130D01*
X033521Y023879D01*
X033313Y023638D01*
X033093Y023407D01*
X032862Y023187D01*
X032621Y022979D01*
X032370Y022782D01*
X032109Y022599D01*
X031840Y022428D01*
X031562Y022271D01*
X031277Y022128D01*
X030986Y021998D01*
X030688Y021884D01*
X030386Y021784D01*
X030078Y021699D01*
X029767Y021629D01*
X029453Y021574D01*
X029137Y021535D01*
X028819Y021512D01*
X028500Y021504D01*
X028181Y021512D01*
X027863Y021535D01*
X027547Y021574D01*
X027233Y021629D01*
X026922Y021699D01*
X026614Y021784D01*
X026312Y021884D01*
X026014Y021998D01*
X025723Y022128D01*
X025438Y022271D01*
X025160Y022428D01*
X024891Y022599D01*
X024630Y022782D01*
X024379Y022979D01*
X024138Y023187D01*
X023907Y023407D01*
X023687Y023638D01*
X023479Y023879D01*
X023282Y024130D01*
X023099Y024391D01*
X022928Y024660D01*
X022771Y024938D01*
X022628Y025223D01*
X022498Y025514D01*
X022384Y025812D01*
X022284Y026114D01*
X022199Y026422D01*
X022129Y026733D01*
X022074Y027047D01*
X022035Y027363D01*
X022012Y027681D01*
X022004Y028000D01*
D11*
X022390Y028000D02*
X022392Y028044D01*
X022398Y028088D01*
X022408Y028131D01*
X022421Y028173D01*
X022438Y028214D01*
X022459Y028253D01*
X022483Y028290D01*
X022510Y028325D01*
X022540Y028357D01*
X022573Y028387D01*
X022609Y028413D01*
X022646Y028437D01*
X022686Y028456D01*
X022727Y028473D01*
X022770Y028485D01*
X022813Y028494D01*
X022857Y028499D01*
X022901Y028500D01*
X022945Y028497D01*
X022989Y028490D01*
X023032Y028479D01*
X023074Y028465D01*
X023114Y028447D01*
X023153Y028425D01*
X023189Y028401D01*
X023223Y028373D01*
X023255Y028342D01*
X023284Y028308D01*
X023310Y028272D01*
X023332Y028234D01*
X023351Y028194D01*
X023366Y028152D01*
X023378Y028110D01*
X023386Y028066D01*
X023390Y028022D01*
X023390Y027978D01*
X023386Y027934D01*
X023378Y027890D01*
X023366Y027848D01*
X023351Y027806D01*
X023332Y027766D01*
X023310Y027728D01*
X023284Y027692D01*
X023255Y027658D01*
X023223Y027627D01*
X023189Y027599D01*
X023153Y027575D01*
X023114Y027553D01*
X023074Y027535D01*
X023032Y027521D01*
X022989Y027510D01*
X022945Y027503D01*
X022901Y027500D01*
X022857Y027501D01*
X022813Y027506D01*
X022770Y027515D01*
X022727Y027527D01*
X022686Y027544D01*
X022646Y027563D01*
X022609Y027587D01*
X022573Y027613D01*
X022540Y027643D01*
X022510Y027675D01*
X022483Y027710D01*
X022459Y027747D01*
X022438Y027786D01*
X022421Y027827D01*
X022408Y027869D01*
X022398Y027912D01*
X022392Y027956D01*
X022390Y028000D01*
X033610Y028000D02*
X033612Y028044D01*
X033618Y028088D01*
X033628Y028131D01*
X033641Y028173D01*
X033658Y028214D01*
X033679Y028253D01*
X033703Y028290D01*
X033730Y028325D01*
X033760Y028357D01*
X033793Y028387D01*
X033829Y028413D01*
X033866Y028437D01*
X033906Y028456D01*
X033947Y028473D01*
X033990Y028485D01*
X034033Y028494D01*
X034077Y028499D01*
X034121Y028500D01*
X034165Y028497D01*
X034209Y028490D01*
X034252Y028479D01*
X034294Y028465D01*
X034334Y028447D01*
X034373Y028425D01*
X034409Y028401D01*
X034443Y028373D01*
X034475Y028342D01*
X034504Y028308D01*
X034530Y028272D01*
X034552Y028234D01*
X034571Y028194D01*
X034586Y028152D01*
X034598Y028110D01*
X034606Y028066D01*
X034610Y028022D01*
X034610Y027978D01*
X034606Y027934D01*
X034598Y027890D01*
X034586Y027848D01*
X034571Y027806D01*
X034552Y027766D01*
X034530Y027728D01*
X034504Y027692D01*
X034475Y027658D01*
X034443Y027627D01*
X034409Y027599D01*
X034373Y027575D01*
X034334Y027553D01*
X034294Y027535D01*
X034252Y027521D01*
X034209Y027510D01*
X034165Y027503D01*
X034121Y027500D01*
X034077Y027501D01*
X034033Y027506D01*
X033990Y027515D01*
X033947Y027527D01*
X033906Y027544D01*
X033866Y027563D01*
X033829Y027587D01*
X033793Y027613D01*
X033760Y027643D01*
X033730Y027675D01*
X033703Y027710D01*
X033679Y027747D01*
X033658Y027786D01*
X033641Y027827D01*
X033628Y027869D01*
X033618Y027912D01*
X033612Y027956D01*
X033610Y028000D01*
M02*
